<svg xmlns="http://www.w3.org/2000/svg" width="34.313" height="11.375" viewBox="0 0 34.313 11.375"><g fill="#202020"><path d="M8.175 4.855a.14.14 0 0 1-.028-.12L9.018.657a.2.2 0 0 1 .072-.12.2.2 0 0 1 .13-.05h1.97c.281 0 .521.054.716.16.196.107.343.249.439.424.097.174.145.358.145.552 0 .093-.008.173-.024.24-.043.21-.115.38-.218.508a1.41 1.41 0 0 1-.307.294.747.747 0 0 1 .284.606c0 .097-.013.206-.038.328a2.35 2.35 0 0 1-.253.679 1.169 1.169 0 0 1-.508.454c-.229.116-.533.174-.912.174H8.285a.13.13 0 0 1-.11-.051zm2.352-.927a.51.51 0 0 0 .363-.139.441.441 0 0 0 .147-.335.272.272 0 0 0-.094-.215.37.37 0 0 0-.253-.082H9.649l-.164.771h1.042zm-.518-2.462l-.151.72h.979a.485.485 0 0 0 .309-.095.42.42 0 0 0 .152-.266.82.82 0 0 0 .012-.101c0-.084-.027-.148-.082-.192-.055-.045-.135-.066-.239-.066h-.98zM16.65 4.673c.021.155-.031.233-.157.233h-.764c-.072 0-.125-.016-.158-.047a.17.17 0 0 1-.057-.111l-.069-.523h-1.68l-.284.523a.294.294 0 0 1-.278.158h-.883c-.076 0-.114-.031-.114-.095 0-.046.015-.093.044-.139L14.473.694a.425.425 0 0 1 .13-.146.325.325 0 0 1 .198-.063h1.08c.075 0 .133.02.17.06.038.04.062.09.069.148l.53 3.98zm-1.326-1.427l-.189-1.516-.833 1.516h1.022zM19.981 4.862a.378.378 0 0 1-.092-.114l-1.104-2.146-.455 2.133a.201.201 0 0 1-.073.12.196.196 0 0 1-.129.051h-.827a.132.132 0 0 1-.11-.051.14.14 0 0 1-.028-.12l.871-4.078a.2.2 0 0 1 .072-.12.2.2 0 0 1 .13-.05h.53c.104 0 .181.048.227.145l1.118 2.159.454-2.134a.205.205 0 0 1 .072-.12.202.202 0 0 1 .13-.05h.827c.046 0 .083.017.11.05a.141.141 0 0 1 .028.12l-.871 4.078a.2.2 0 0 1-.072.12.198.198 0 0 1-.13.051h-.53a.229.229 0 0 1-.148-.044zM25.439 4.735a.166.166 0 0 1-.054.117.163.163 0 0 1-.117.054h-.909a.247.247 0 0 1-.136-.035.315.315 0 0 1-.098-.11l-.891-1.54-.321 1.515a.201.201 0 0 1-.073.12.196.196 0 0 1-.129.051h-.827a.132.132 0 0 1-.11-.051.14.14 0 0 1-.028-.12l.871-4.078a.2.2 0 0 1 .072-.12.2.2 0 0 1 .13-.05h.827c.046 0 .083.017.11.05a.144.144 0 0 1 .028.12l-.278 1.301L24.801.627a.435.435 0 0 1 .113-.102.329.329 0 0 1 .164-.037h1.048c.034 0 .062.012.082.034a.123.123 0 0 1 .032.085.11.11 0 0 1-.032.082l-1.97 2.008 1.188 1.989a.112.112 0 0 1 .013.049zM4.236 6.465a.144.144 0 0 1 .028.12l-.146.669a.188.188 0 0 1-.076.12.207.207 0 0 1-.132.051H2.799l-.688 3.238a.195.195 0 0 1-.072.12.196.196 0 0 1-.13.051h-.828a.133.133 0 0 1-.11-.051.143.143 0 0 1-.028-.12l.688-3.238H.52a.125.125 0 0 1-.107-.051.149.149 0 0 1-.025-.12l.146-.669a.205.205 0 0 1 .072-.12.2.2 0 0 1 .13-.05h3.391c.044 0 .081.016.109.05zM7.799 6.727c.294.208.441.502.441.88 0 .123-.011.228-.031.316-.063.303-.179.55-.347.742a1.753 1.753 0 0 1-.669.458l.467 1.503a.06.06 0 0 1 .007.031c0 .046-.018.087-.054.123s-.075.054-.117.054H6.7c-.076 0-.13-.016-.161-.047a.308.308 0 0 1-.072-.124l-.411-1.351h-.644l-.29 1.351a.201.201 0 0 1-.073.12.196.196 0 0 1-.129.051h-.827a.132.132 0 0 1-.11-.051.14.14 0 0 1-.028-.12l.871-4.078a.2.2 0 0 1 .072-.12.2.2 0 0 1 .13-.05h1.647c.454 0 .829.103 1.124.312zm-1.465 1.6c.408 0 .646-.155.713-.467a.938.938 0 0 0 .013-.113c0-.236-.177-.354-.53-.354h-.713l-.197.934h.714zM12.338 10.6c.021.155-.031.233-.157.233h-.764c-.072 0-.125-.016-.158-.047a.17.17 0 0 1-.057-.111l-.069-.523h-1.68l-.284.523a.294.294 0 0 1-.278.158h-.883c-.076 0-.114-.031-.114-.095 0-.046.015-.093.044-.139l2.223-3.978a.425.425 0 0 1 .13-.146.325.325 0 0 1 .198-.063h1.08c.075 0 .133.02.17.06.038.04.062.09.069.148l.53 3.98zm-1.325-1.426l-.189-1.516-.834 1.516h1.023zM15.668 10.79a.378.378 0 0 1-.092-.114L14.472 8.53l-.454 2.134a.201.201 0 0 1-.073.12.196.196 0 0 1-.129.051h-.827a.132.132 0 0 1-.11-.051.14.14 0 0 1-.028-.12l.871-4.078a.2.2 0 0 1 .072-.12.2.2 0 0 1 .13-.05h.53c.104 0 .181.048.227.145l1.118 2.159.454-2.134a.205.205 0 0 1 .072-.12.202.202 0 0 1 .13-.05h.827c.046 0 .083.017.11.05a.141.141 0 0 1 .028.12l-.871 4.078a.2.2 0 0 1-.072.12.198.198 0 0 1-.13.051h-.53a.236.236 0 0 1-.149-.045zM21.525 7.693a.163.163 0 0 1-.102.041h-.827a.346.346 0 0 1-.136-.022.342.342 0 0 1-.098-.079.448.448 0 0 0-.252-.214.881.881 0 0 0-.335-.058c-.181 0-.334.024-.458.073a.335.335 0 0 0-.231.306c0 .067.036.124.107.171.074.046.182.089.327.129.146.04.374.094.686.161.379.08.661.204.849.373.188.168.281.394.281.675 0 .102-.013.213-.038.335-.093.43-.323.756-.691.979-.368.224-.864.335-1.486.335a2.1 2.1 0 0 1-.894-.189 1.65 1.65 0 0 1-.635-.493.905.905 0 0 1-.202-.625.18.18 0 0 1 .063-.098.16.16 0 0 1 .101-.041h.827c.097 0 .171.029.222.089l.078.11c.045.061.116.115.215.164s.225.072.376.072c.521 0 .808-.111.858-.334.017-.076-.011-.141-.082-.193-.071-.052-.181-.099-.328-.139s-.379-.094-.694-.161l-.14-.031c-.665-.147-.997-.49-.997-1.029 0-.104.013-.221.038-.347.08-.388.288-.701.625-.941.337-.239.795-.359 1.376-.359.32 0 .609.064.868.192.259.129.459.289.6.483.142.193.205.383.192.568a.179.179 0 0 1-.063.097zM25.763 6.465a.141.141 0 0 1 .028.12l-.145.669a.197.197 0 0 1-.076.12.208.208 0 0 1-.133.051H23.55l-.183.865h1.761c.047 0 .084.017.111.05a.127.127 0 0 1 .021.12l-.139.669a.197.197 0 0 1-.076.12.203.203 0 0 1-.131.051h-1.762l-.29 1.363a.201.201 0 0 1-.073.12.196.196 0 0 1-.129.051h-.827a.132.132 0 0 1-.11-.051.14.14 0 0 1-.028-.12l.871-4.078a.2.2 0 0 1 .072-.12.2.2 0 0 1 .13-.05h2.885c.045 0 .083.016.11.05zM26.947 9.824h1.995c.046 0 .082.017.107.05a.15.15 0 0 1 .025.12l-.146.669a.2.2 0 0 1-.072.12.196.196 0 0 1-.13.051h-2.992a.132.132 0 0 1-.11-.051.14.14 0 0 1-.028-.12l.871-4.078a.2.2 0 0 1 .072-.12.2.2 0 0 1 .13-.05h2.941c.047 0 .083.017.11.05a.141.141 0 0 1 .028.12l-.145.669a.197.197 0 0 1-.076.12.208.208 0 0 1-.133.051H27.45l-.145.682h1.806c.046 0 .083.017.11.051a.143.143 0 0 1 .028.12l-.146.669a.202.202 0 0 1-.076.12.213.213 0 0 1-.132.051h-1.806l-.142.706zM33.494 6.727c.294.208.441.502.441.88 0 .123-.011.228-.031.316a1.58 1.58 0 0 1-.348.741 1.753 1.753 0 0 1-.669.458l.467 1.503a.06.06 0 0 1 .007.031c0 .046-.018.087-.054.123s-.075.054-.117.054h-.795c-.076 0-.13-.016-.161-.047a.308.308 0 0 1-.072-.124l-.411-1.351h-.644l-.29 1.351a.201.201 0 0 1-.073.12.196.196 0 0 1-.129.051h-.827a.132.132 0 0 1-.11-.051.14.14 0 0 1-.028-.12l.871-4.078a.2.2 0 0 1 .072-.12.2.2 0 0 1 .13-.05h1.647c.454.001.829.104 1.124.313zm-1.464 1.6c.408 0 .646-.155.713-.467a.983.983 0 0 0 .013-.113c0-.236-.177-.354-.53-.354h-.713l-.196.934h.713z"/></g></svg>