<svg xmlns="http://www.w3.org/2000/svg" width="52.583" height="11.864" viewBox="0 0 52.583 11.864"><path fill="#202020" d="M11.114 7.33a5.37 5.37 0 1 1-10.42-2.6 5.37 5.37 0 1 1 10.42 2.6z"/><path fill="#FFF" d="M8.272 5.264c.107-.715-.437-1.099-1.181-1.355l.24-.968-.588-.147-.235.943c-.155-.039-.314-.075-.472-.11l.237-.95-.59-.147-.241.968a21.231 21.231 0 0 1-.376-.088v-.003l-.812-.203-.157.63s.437.1.428.105c.239.06.282.218.275.343l-.275 1.103c.016.004.038.01.06.02l-.061-.015-.385 1.545c-.03.073-.103.181-.27.14.006.01-.428-.107-.428-.107l-.293.675.767.191.42.108-.244.98.589.146.242-.969c.16.044.317.084.47.122l-.241.964.589.147.244-.977c1.005.19 1.76.113 2.079-.796.256-.732-.013-1.154-.542-1.429.384-.089.674-.343.75-.866zM6.926 7.152c-.182.732-1.414.336-1.814.237l.324-1.297c.399.1 1.68.297 1.49 1.06zm.182-1.899c-.166.666-1.192.327-1.525.245l.293-1.177c.333.083 1.405.238 1.232.932z"/><path fill="#202020" d="M16.274 3.908c.436 0 .812.078 1.128.231.318.155.58.363.79.625.207.264.362.572.462.925.099.354.149.735.149 1.142 0 .626-.115 1.217-.346 1.774a4.452 4.452 0 0 1-2.359 2.433 4.324 4.324 0 0 1-1.766.361c-.082 0-.226-.002-.43-.007a6.113 6.113 0 0 1-.698-.06 8.184 8.184 0 0 1-.836-.165 4.234 4.234 0 0 1-.836-.299L13.884.985 15.99.658l-.842 3.507c.18-.08.362-.144.543-.19a2.44 2.44 0 0 1 .582-.067zm-1.767 5.82c.317 0 .616-.078.897-.23.282-.154.525-.362.728-.62a3.096 3.096 0 0 0 .659-1.897c0-.435-.073-.774-.218-1.019-.145-.244-.413-.367-.802-.367a2.48 2.48 0 0 0-.496.068 1.238 1.238 0 0 0-.551.286l-.897 3.724.143.027a1.522 1.522 0 0 0 .292.028h.245zM20.987 11.21h-2.012l1.699-7.15H22.7l-1.713 7.15zm.979-8.022a1.25 1.25 0 0 1-.761-.25c-.228-.168-.341-.424-.341-.769 0-.19.039-.368.115-.536a1.441 1.441 0 0 1 .747-.728 1.35 1.35 0 0 1 .538-.108c.28 0 .534.084.76.251.227.168.34.425.34.768 0 .191-.037.37-.115.537a1.407 1.407 0 0 1-.306.435 1.493 1.493 0 0 1-.441.292 1.32 1.32 0 0 1-.536.108zM24.464 2.278l2.107-.326-.517 2.108h2.257l-.408 1.658H25.66l-.598 2.501a2.844 2.844 0 0 0-.095.584c-.01.182.013.338.067.47a.589.589 0 0 0 .292.304c.14.073.34.11.605.11.217 0 .429-.02.633-.062.203-.04.409-.096.618-.17l.15 1.55c-.272.1-.566.185-.884.258a5.105 5.105 0 0 1-1.13.108c-.624 0-1.11-.093-1.454-.278a1.609 1.609 0 0 1-.734-.762 2.421 2.421 0 0 1-.19-1.107c.019-.418.082-.857.19-1.319l1.334-5.627zM28.222 8.354c0-.616.1-1.197.299-1.74.199-.544.485-1.02.857-1.428.37-.406.822-.728 1.353-.965a4.324 4.324 0 0 1 1.773-.353c.408 0 .773.04 1.094.116.322.078.614.18.878.306l-.694 1.578a6.339 6.339 0 0 0-.564-.197 2.452 2.452 0 0 0-.714-.089c-.672 0-1.203.231-1.598.693-.394.462-.592 1.083-.592 1.863 0 .462.1.836.3 1.122.199.286.567.428 1.1.428a3.725 3.725 0 0 0 1.414-.285l.15 1.617a7.176 7.176 0 0 1-.842.266 4.713 4.713 0 0 1-1.102.114c-.562 0-1.038-.082-1.427-.244a2.73 2.73 0 0 1-.965-.66 2.478 2.478 0 0 1-.551-.973 4.07 4.07 0 0 1-.17-1.169zM37.16 11.4c-.48 0-.897-.074-1.251-.219a2.304 2.304 0 0 1-.876-.612 2.638 2.638 0 0 1-.523-.93 3.75 3.75 0 0 1-.176-1.189c0-.545.087-1.089.264-1.632a4.639 4.639 0 0 1 .782-1.468 4.202 4.202 0 0 1 1.263-1.069c.497-.276 1.069-.414 1.712-.414.472 0 .886.073 1.245.218.357.145.65.35.884.612.23.264.405.573.522.931.118.357.177.755.177 1.19 0 .542-.086 1.087-.257 1.631a4.725 4.725 0 0 1-.761 1.468c-.335.435-.754.79-1.257 1.067-.503.277-1.086.415-1.748.415zm1.006-5.819c-.298 0-.562.087-.788.258a2.212 2.212 0 0 0-.57.653c-.155.264-.27.551-.348.863a3.724 3.724 0 0 0-.115.89c0 .454.073.807.217 1.061.146.253.408.38.789.38.299 0 .562-.086.789-.259.225-.172.416-.389.57-.652.154-.262.27-.55.348-.863.076-.312.115-.61.115-.89 0-.453-.073-.807-.218-1.06-.145-.254-.408-.38-.79-.38zM43.376 11.21h-2.014l1.699-7.15h2.027l-1.712 7.15zm.978-8.022a1.25 1.25 0 0 1-.761-.25c-.227-.168-.34-.424-.34-.769 0-.19.039-.368.116-.536a1.424 1.424 0 0 1 1.284-.836c.28 0 .535.084.762.251.226.168.34.425.34.768 0 .191-.04.37-.116.537a1.416 1.416 0 0 1-1.285.835zM46.539 4.384c.153-.045.323-.098.509-.157a7.46 7.46 0 0 1 1.4-.285 8.8 8.8 0 0 1 .97-.048c1.062 0 1.794.31 2.198.925.404.616.473 1.46.212 2.528l-.926 3.861h-2.025l.897-3.78c.055-.236.098-.464.129-.687.032-.22.03-.416-.007-.584a.696.696 0 0 0-.251-.408c-.133-.104-.333-.156-.605-.156-.262 0-.53.028-.802.083l-1.32 5.532h-2.025l1.646-6.824z"/></svg>