<svg xmlns="http://www.w3.org/2000/svg" xmlns:xlink="http://www.w3.org/1999/xlink" width="37.083" height="24.167" viewBox="0 0 37.083 24.167"><path fill="#202020" d="M36.243 13.39s-9.76 6.887-27.635 9.969h27.635V13.39z"/><path fill="#202020" d="M36.369.608L.526.612v23.006h35.973L36.496.608h-.127zm-.13.261v22.487H.786L.785.869h35.454z"/><path fill="#202020" d="M3.671 7.649h-1.49v5.205h1.483c.788 0 1.358-.186 1.857-.601a2.61 2.61 0 0 0 .945-1.998c0-1.536-1.148-2.606-2.795-2.606zm1.186 3.91c-.319.288-.733.414-1.39.414h-.272V8.531h.273c.656 0 1.054.117 1.39.421.351.313.562.797.562 1.296s-.211.999-.563 1.311zM6.933 7.649h1.015v5.205H6.933zM10.431 9.646c-.609-.225-.788-.374-.788-.655 0-.328.319-.577.756-.577.304 0 .554.125.819.422l.531-.696a2.278 2.278 0 0 0-1.53-.577c-.921 0-1.624.64-1.624 1.492 0 .717.327 1.084 1.281 1.428.397.14.6.234.702.296.203.132.304.32.304.539 0 .422-.335.734-.788.734-.484 0-.874-.242-1.108-.694l-.656.632c.468.687 1.03.991 1.802.991 1.055 0 1.795-.702 1.795-1.709.001-.829-.341-1.203-1.496-1.626zM12.249 10.255c0 1.53 1.201 2.716 2.748 2.716.437 0 .811-.086 1.273-.303v-1.195c-.406.406-.765.57-1.226.57-1.023 0-1.748-.741-1.748-1.796 0-.999.749-1.788 1.701-1.788.484 0 .851.173 1.273.586V7.851c-.446-.226-.812-.32-1.249-.32-1.539 0-2.772 1.211-2.772 2.724zM24.32 11.145l-1.388-3.496h-1.11l2.21 5.339h.546l2.249-5.339h-1.101zM27.286 12.854h2.879v-.881H28.3v-1.405h1.797v-.882H28.3V8.531h1.865v-.882h-2.879zM34.186 9.186c0-.975-.671-1.537-1.842-1.537h-1.506v5.205h1.014v-2.091h.132l1.405 2.091h1.249L33 10.661c.765-.155 1.186-.678 1.186-1.475zm-2.037.859h-.297V8.469h.313c.632 0 .976.265.976.772 0 .523-.344.804-.992.804z"/><linearGradient id="a" gradientUnits="userSpaceOnUse" x1="20.787" y1="12.489" x2="18.87" y2="9.487"><stop offset="0" stop-color="#acacac"/><stop offset=".324" stop-color="#a7a7a7"/><stop offset=".62" stop-color="#9d9d9d"/><stop offset="1" stop-color="#929292"/></linearGradient><circle fill="url(#a)" cx="19.37" cy="10.27" r="2.769"/><defs><filter id="b" filterUnits="userSpaceOnUse" x="16.601" y="7.501" width="5.538" height="5.538"><feFlood result="back" flood-color="#fff" flood-opacity="1"/><feBlend in="SourceGraphic" in2="back"/></filter></defs><mask maskUnits="userSpaceOnUse" x="16.601" y="7.501" width="5.538" height="5.538" id="c"><g filter="url(#b)"><linearGradient id="d" gradientUnits="userSpaceOnUse" x1="20.485" y1="12.448" x2="17.682" y2="6.971"><stop offset="0"/><stop offset=".026" stop-color="#080808"/><stop offset=".21" stop-color="#3f3f3f"/><stop offset=".389" stop-color="#6c6c6c"/><stop offset=".559" stop-color="#8f8f8f"/><stop offset=".719" stop-color="#a8a8a8"/><stop offset=".864" stop-color="#b7b7b7"/><stop offset=".982" stop-color="#bdbdbd"/></linearGradient><circle mask="url(#c)" fill="url(#d)" cx="19.37" cy="10.27" r="2.769"/></g></mask><linearGradient id="e" gradientUnits="userSpaceOnUse" x1="20.485" y1="12.448" x2="17.682" y2="6.971"><stop offset="0" stop-color="#9d9d9d"/><stop offset=".275" stop-color="#8e8e8e"/><stop offset=".665" stop-color="#7e7e7e"/><stop offset=".982" stop-color="#797979"/></linearGradient><circle opacity=".65" fill="url(#e)" cx="19.37" cy="10.27" r="2.769"/><g opacity=".5"><defs><circle id="f" opacity=".5" cx="19.37" cy="10.27" r="2.769"/></defs><clipPath id="g"><use xlink:href="#f" overflow="visible"/></clipPath><g clip-path="url(#g)"><circle fill="#202020" cx="19.379" cy="10.279" r="2.825"/><circle fill="#212121" cx="19.38" cy="10.281" r="2.825"/><circle fill="#222" cx="19.382" cy="10.283" r="2.824"/><circle fill="#232323" cx="19.383" cy="10.284" r="2.824"/><circle fill="#242424" cx="19.385" cy="10.286" r="2.824"/><circle fill="#242424" cx="19.386" cy="10.288" r="2.824"/><circle fill="#252525" cx="19.388" cy="10.29" r="2.823"/><circle fill="#262626" cx="19.389" cy="10.291" r="2.823"/><circle fill="#272727" cx="19.391" cy="10.293" r="2.823"/><circle fill="#282828" cx="19.392" cy="10.295" r="2.822"/><circle fill="#292929" cx="19.394" cy="10.297" r="2.822"/><circle fill="#292929" cx="19.395" cy="10.298" r="2.822"/><circle fill="#2A2A2A" cx="19.397" cy="10.3" r="2.822"/><circle fill="#2B2B2B" cx="19.398" cy="10.302" r="2.821"/><circle fill="#2C2C2C" cx="19.4" cy="10.304" r="2.821"/><circle fill="#2D2D2D" cx="19.401" cy="10.305" r="2.821"/><circle fill="#2E2E2E" cx="19.403" cy="10.307" r="2.821"/><circle fill="#2E2E2E" cx="19.405" cy="10.309" r="2.82"/><circle fill="#2F2F2F" cx="19.406" cy="10.311" r="2.82"/><circle fill="#303030" cx="19.408" cy="10.313" r="2.82"/><circle fill="#313131" cx="19.409" cy="10.314" r="2.819"/><circle fill="#323232" cx="19.411" cy="10.316" r="2.819"/><circle fill="#333" cx="19.412" cy="10.318" r="2.819"/><circle fill="#333" cx="19.414" cy="10.32" r="2.819"/><circle fill="#343434" cx="19.415" cy="10.321" r="2.818"/><circle fill="#353535" cx="19.417" cy="10.323" r="2.818"/><circle fill="#363636" cx="19.418" cy="10.325" r="2.818"/><circle fill="#373737" cx="19.42" cy="10.327" r="2.817"/><circle fill="#373737" cx="19.421" cy="10.328" r="2.817"/><circle fill="#383838" cx="19.423" cy="10.33" r="2.817"/><circle fill="#393939" cx="19.424" cy="10.332" r="2.817"/><circle fill="#3A3A3A" cx="19.426" cy="10.334" r="2.816"/><circle fill="#3B3B3B" cx="19.428" cy="10.335" r="2.816"/><circle fill="#3C3C3C" cx="19.429" cy="10.337" r="2.816"/><circle fill="#3C3C3C" cx="19.431" cy="10.339" r="2.816"/><circle fill="#3D3D3D" cx="19.432" cy="10.341" r="2.815"/><circle fill="#3E3E3E" cx="19.434" cy="10.343" r="2.815"/><circle fill="#3F3F3F" cx="19.435" cy="10.344" r="2.815"/><circle fill="#404040" cx="19.437" cy="10.346" r="2.814"/><circle fill="#414141" cx="19.438" cy="10.348" r="2.814"/><circle fill="#414141" cx="19.44" cy="10.35" r="2.814"/><circle fill="#424242" cx="19.441" cy="10.351" r="2.814"/><circle fill="#434343" cx="19.443" cy="10.353" r="2.813"/><circle fill="#444" cx="19.444" cy="10.355" r="2.813"/><circle fill="#454545" cx="19.446" cy="10.357" r="2.813"/><circle fill="#464646" cx="19.447" cy="10.358" r="2.813"/><circle fill="#464646" cx="19.449" cy="10.36" r="2.812"/><circle fill="#474747" cx="19.45" cy="10.362" r="2.812"/><circle fill="#484848" cx="19.452" cy="10.364" r="2.812"/><circle fill="#494949" cx="19.454" cy="10.365" r="2.811"/><circle fill="#4A4A4A" cx="19.455" cy="10.367" r="2.811"/><circle fill="#4B4B4B" cx="19.457" cy="10.369" r="2.811"/><circle fill="#4B4B4B" cx="19.458" cy="10.371" r="2.811"/><circle fill="#4C4C4C" cx="19.46" cy="10.373" r="2.81"/><circle fill="#4D4D4D" cx="19.461" cy="10.374" r="2.81"/><circle fill="#4E4E4E" cx="19.463" cy="10.376" r="2.81"/><circle fill="#4F4F4F" cx="19.464" cy="10.378" r="2.809"/><circle fill="#4F4F4F" cx="19.466" cy="10.38" r="2.809"/><circle fill="#505050" cx="19.467" cy="10.381" r="2.809"/><circle fill="#515151" cx="19.469" cy="10.383" r="2.809"/><circle fill="#525252" cx="19.47" cy="10.385" r="2.808"/><circle fill="#535353" cx="19.472" cy="10.387" r="2.808"/><circle fill="#545454" cx="19.473" cy="10.388" r="2.808"/><circle fill="#545454" cx="19.475" cy="10.39" r="2.808"/><circle fill="#555" cx="19.476" cy="10.392" r="2.807"/><circle fill="#565656" cx="19.478" cy="10.394" r="2.807"/><circle fill="#575757" cx="19.48" cy="10.395" r="2.807"/><circle fill="#585858" cx="19.481" cy="10.397" r="2.806"/><circle fill="#595959" cx="19.483" cy="10.399" r="2.806"/><circle fill="#595959" cx="19.484" cy="10.401" r="2.806"/><circle fill="#5A5A5A" cx="19.486" cy="10.403" r="2.806"/><circle fill="#5B5B5B" cx="19.487" cy="10.404" r="2.805"/><circle fill="#5C5C5C" cx="19.489" cy="10.406" r="2.805"/><circle fill="#5D5D5D" cx="19.49" cy="10.408" r="2.805"/><circle fill="#5E5E5E" cx="19.492" cy="10.41" r="2.805"/><circle fill="#5E5E5E" cx="19.493" cy="10.411" r="2.804"/><circle fill="#5F5F5F" cx="19.495" cy="10.413" r="2.804"/><circle fill="#606060" cx="19.496" cy="10.415" r="2.804"/><circle fill="#616161" cx="19.498" cy="10.417" r="2.803"/><circle fill="#626262" cx="19.499" cy="10.418" r="2.803"/><circle fill="#636363" cx="19.501" cy="10.42" r="2.803"/><circle fill="#636363" cx="19.502" cy="10.422" r="2.803"/><circle fill="#646464" cx="19.504" cy="10.424" r="2.802"/><circle fill="#656565" cx="19.506" cy="10.425" r="2.802"/><circle fill="#666" cx="19.507" cy="10.427" r="2.802"/><circle fill="#676767" cx="19.509" cy="10.429" r="2.801"/><circle fill="#676767" cx="19.51" cy="10.431" r="2.801"/><circle fill="#686868" cx="19.512" cy="10.433" r="2.801"/><circle fill="#696969" cx="19.513" cy="10.434" r="2.801"/><circle fill="#6A6A6A" cx="19.515" cy="10.436" r="2.8"/><circle fill="#6B6B6B" cx="19.516" cy="10.438" r="2.8"/><circle fill="#6C6C6C" cx="19.518" cy="10.44" r="2.8"/><circle fill="#6C6C6C" cx="19.519" cy="10.441" r="2.8"/><circle fill="#6D6D6D" cx="19.521" cy="10.443" r="2.799"/><circle fill="#6E6E6E" cx="19.522" cy="10.445" r="2.799"/><circle fill="#6F6F6F" cx="19.524" cy="10.447" r="2.799"/><circle fill="#707070" cx="19.525" cy="10.448" r="2.798"/><circle fill="#717171" cx="19.527" cy="10.45" r="2.798"/><circle fill="#717171" cx="19.528" cy="10.452" r="2.798"/><circle fill="#727272" cx="19.53" cy="10.454" r="2.798"/><circle fill="#737373" cx="19.532" cy="10.455" r="2.797"/><circle fill="#747474" cx="19.533" cy="10.457" r="2.797"/><circle fill="#757575" cx="19.535" cy="10.459" r="2.797"/><circle fill="#767676" cx="19.536" cy="10.461" r="2.797"/><circle fill="#767676" cx="19.538" cy="10.463" r="2.796"/><circle fill="#777" cx="19.539" cy="10.464" r="2.796"/><circle fill="#787878" cx="19.541" cy="10.466" r="2.796"/><circle fill="#797979" cx="19.542" cy="10.468" r="2.795"/><circle fill="#7A7A7A" cx="19.544" cy="10.47" r="2.795"/><circle fill="#7A7A7A" cx="19.545" cy="10.471" r="2.795"/><circle fill="#7B7B7B" cx="19.547" cy="10.473" r="2.795"/><circle fill="#7C7C7C" cx="19.548" cy="10.475" r="2.794"/><circle fill="#7D7D7D" cx="19.55" cy="10.477" r="2.794"/><circle fill="#7E7E7E" cx="19.551" cy="10.478" r="2.794"/><circle fill="#7F7F7F" cx="19.553" cy="10.48" r="2.794"/><circle fill="#7F7F7F" cx="19.554" cy="10.482" r="2.793"/><circle fill="gray" cx="19.556" cy="10.484" r="2.793"/><circle fill="#818181" cx="19.558" cy="10.485" r="2.793"/><circle fill="#828282" cx="19.559" cy="10.487" r="2.792"/><circle fill="#838383" cx="19.561" cy="10.489" r="2.792"/><circle fill="#848484" cx="19.562" cy="10.491" r="2.792"/><circle fill="#848484" cx="19.564" cy="10.493" r="2.792"/><circle fill="#858585" cx="19.565" cy="10.494" r="2.791"/><circle fill="#868686" cx="19.567" cy="10.496" r="2.791"/><circle fill="#878787" cx="19.568" cy="10.498" r="2.791"/><circle fill="#888" cx="19.57" cy="10.5" r="2.79"/><circle fill="#898989" cx="19.571" cy="10.501" r="2.79"/><circle fill="#898989" cx="19.573" cy="10.503" r="2.79"/><circle fill="#8A8A8A" cx="19.574" cy="10.505" r="2.79"/><circle fill="#8B8B8B" cx="19.576" cy="10.507" r="2.789"/><circle fill="#8C8C8C" cx="19.577" cy="10.508" r="2.789"/><circle fill="#8D8D8D" cx="19.579" cy="10.51" r="2.789"/><circle fill="#8E8E8E" cx="19.581" cy="10.512" r="2.789"/><circle fill="#8E8E8E" cx="19.582" cy="10.514" r="2.788"/><circle fill="#8F8F8F" cx="19.584" cy="10.516" r="2.788"/><circle fill="#909090" cx="19.585" cy="10.517" r="2.788"/><circle fill="#919191" cx="19.587" cy="10.519" r="2.787"/><circle fill="#929292" cx="19.588" cy="10.521" r="2.787"/><circle fill="#929292" cx="19.59" cy="10.523" r="2.787"/><circle fill="#939393" cx="19.591" cy="10.524" r="2.787"/><circle fill="#949494" cx="19.593" cy="10.526" r="2.786"/><circle fill="#959595" cx="19.594" cy="10.528" r="2.786"/><circle fill="#969696" cx="19.596" cy="10.53" r="2.786"/><circle fill="#979797" cx="19.597" cy="10.531" r="2.786"/><circle fill="#979797" cx="19.599" cy="10.533" r="2.785"/><circle fill="#989898" cx="19.6" cy="10.535" r="2.785"/><circle fill="#999" cx="19.602" cy="10.537" r="2.785"/><circle fill="#9A9A9A" cx="19.603" cy="10.538" r="2.784"/><circle fill="#9B9B9B" cx="19.605" cy="10.54" r="2.784"/><circle fill="#9C9C9C" cx="19.607" cy="10.542" r="2.784"/><circle fill="#9C9C9C" cx="19.608" cy="10.544" r="2.784"/><circle fill="#9D9D9D" cx="19.61" cy="10.546" r="2.783"/><circle fill="#9E9E9E" cx="19.611" cy="10.547" r="2.783"/><circle fill="#9F9F9F" cx="19.613" cy="10.549" r="2.783"/><circle fill="#A0A0A0" cx="19.614" cy="10.551" r="2.782"/><circle fill="#A1A1A1" cx="19.616" cy="10.553" r="2.782"/><circle fill="#A1A1A1" cx="19.617" cy="10.554" r="2.782"/><circle fill="#A2A2A2" cx="19.619" cy="10.556" r="2.782"/><circle fill="#A3A3A3" cx="19.62" cy="10.558" r="2.781"/><circle fill="#A4A4A4" cx="19.622" cy="10.56" r="2.781"/><circle fill="#A5A5A5" cx="19.623" cy="10.561" r="2.781"/><circle fill="#A6A6A6" cx="19.625" cy="10.563" r="2.781"/><circle fill="#A6A6A6" cx="19.626" cy="10.565" r="2.78"/><circle fill="#A7A7A7" cx="19.628" cy="10.567" r="2.78"/><circle fill="#A8A8A8" cx="19.629" cy="10.568" r="2.78"/><circle fill="#A9A9A9" cx="19.631" cy="10.57" r="2.779"/><circle fill="#AAA" cx="19.633" cy="10.572" r="2.779"/><circle fill="#AAA" cx="19.634" cy="10.574" r="2.779"/><circle fill="#ABABAB" cx="19.636" cy="10.576" r="2.779"/><circle fill="#ACACAC" cx="19.637" cy="10.577" r="2.778"/><circle fill="#ADADAD" cx="19.639" cy="10.579" r="2.778"/><circle fill="#AEAEAE" cx="19.64" cy="10.581" r="2.778"/><circle fill="#AFAFAF" cx="19.642" cy="10.583" r="2.778"/><circle fill="#AFAFAF" cx="19.643" cy="10.584" r="2.777"/><circle fill="#B0B0B0" cx="19.645" cy="10.586" r="2.777"/><circle fill="#B1B1B1" cx="19.646" cy="10.588" r="2.777"/><circle fill="#B2B2B2" cx="19.648" cy="10.59" r="2.776"/><circle fill="#B3B3B3" cx="19.649" cy="10.591" r="2.776"/><circle fill="#B4B4B4" cx="19.651" cy="10.593" r="2.776"/><circle fill="#B4B4B4" cx="19.652" cy="10.595" r="2.776"/><circle fill="#B5B5B5" cx="19.654" cy="10.597" r="2.775"/><circle fill="#B6B6B6" cx="19.655" cy="10.598" r="2.775"/><circle fill="#B7B7B7" cx="19.657" cy="10.6" r="2.775"/><circle fill="#B8B8B8" cx="19.659" cy="10.602" r="2.774"/><circle fill="#B9B9B9" cx="19.66" cy="10.604" r="2.774"/><circle fill="#B9B9B9" cx="19.662" cy="10.606" r="2.774"/><circle fill="#BABABA" cx="19.663" cy="10.607" r="2.774"/><circle fill="#BBB" cx="19.665" cy="10.609" r="2.773"/><circle fill="#BCBCBC" cx="19.666" cy="10.611" r="2.773"/><circle fill="#BDBDBD" cx="19.668" cy="10.613" r="2.773"/><circle fill="#BEBEBE" cx="19.669" cy="10.614" r="2.773"/><circle fill="#BEBEBE" cx="19.671" cy="10.616" r="2.772"/><circle fill="#BFBFBF" cx="19.672" cy="10.618" r="2.772"/><circle fill="#C0C0C0" cx="19.674" cy="10.62" r="2.772"/><circle fill="#C1C1C1" cx="19.675" cy="10.621" r="2.771"/><circle fill="#C2C2C2" cx="19.677" cy="10.623" r="2.771"/><circle fill="#C2C2C2" cx="19.678" cy="10.625" r="2.771"/><circle fill="#C3C3C3" cx="19.68" cy="10.627" r="2.771"/><circle fill="#C4C4C4" cx="19.681" cy="10.628" r="2.77"/><circle fill="#C5C5C5" cx="19.683" cy="10.63" r="2.77"/><circle fill="#C6C6C6" cx="19.685" cy="10.632" r="2.77"/><circle fill="#C7C7C7" cx="19.686" cy="10.634" r="2.769"/><circle opacity=".995" fill="#C7C7C7" cx="19.687" cy="10.635" r="2.77"/><circle opacity=".99" fill="#C7C7C7" cx="19.689" cy="10.637" r="2.77"/><circle opacity=".985" fill="#C7C7C7" cx="19.69" cy="10.639" r="2.77"/><circle opacity=".98" fill="#C8C8C8" cx="19.691" cy="10.64" r="2.77"/><circle opacity=".975" fill="#C8C8C8" cx="19.693" cy="10.642" r="2.77"/><circle opacity=".97" fill="#C8C8C8" cx="19.694" cy="10.643" r="2.77"/><circle opacity=".965" fill="#C9C9C9" cx="19.695" cy="10.645" r="2.77"/><circle opacity=".96" fill="#C9C9C9" cx="19.697" cy="10.647" r="2.77"/><circle opacity=".955" fill="#C9C9C9" cx="19.698" cy="10.648" r="2.77"/><circle opacity=".95" fill="#C9C9C9" cx="19.699" cy="10.65" r="2.77"/><circle opacity=".945" fill="#CACACA" cx="19.701" cy="10.651" r="2.77"/><circle opacity=".94" fill="#CACACA" cx="19.702" cy="10.653" r="2.77"/><circle opacity=".935" fill="#CACACA" cx="19.703" cy="10.654" r="2.77"/><circle opacity=".93" fill="#CBCBCB" cx="19.705" cy="10.656" r="2.77"/><circle opacity=".925" fill="#CBCBCB" cx="19.706" cy="10.658" r="2.77"/><circle opacity=".92" fill="#CBCBCB" cx="19.707" cy="10.659" r="2.77"/><circle opacity=".915" fill="#CBCBCB" cx="19.709" cy="10.661" r="2.77"/><circle opacity=".91" fill="#CCC" cx="19.71" cy="10.662" r="2.77"/><circle opacity=".905" fill="#CCC" cx="19.711" cy="10.664" r="2.77"/><circle opacity=".9" fill="#CCC" cx="19.713" cy="10.666" r="2.77"/><circle opacity=".895" fill="#CDCDCD" cx="19.714" cy="10.667" r="2.77"/><circle opacity=".89" fill="#CDCDCD" cx="19.715" cy="10.669" r="2.77"/><circle opacity=".886" fill="#CDCDCD" cx="19.717" cy="10.67" r="2.77"/><circle opacity=".881" fill="#CDCDCD" cx="19.718" cy="10.672" r="2.77"/><circle opacity=".876" fill="#CECECE" cx="19.719" cy="10.674" r="2.77"/><circle opacity=".871" fill="#CECECE" cx="19.72" cy="10.675" r="2.77"/><circle opacity=".866" fill="#CECECE" cx="19.722" cy="10.677" r="2.77"/><circle opacity=".861" fill="#CECECE" cx="19.723" cy="10.678" r="2.77"/><circle opacity=".856" fill="#CFCFCF" cx="19.724" cy="10.68" r="2.77"/><circle opacity=".851" fill="#CFCFCF" cx="19.726" cy="10.682" r="2.77"/><circle opacity=".846" fill="#CFCFCF" cx="19.727" cy="10.683" r="2.77"/><circle opacity=".841" fill="#D0D0D0" cx="19.728" cy="10.685" r="2.77"/><circle opacity=".836" fill="#D0D0D0" cx="19.73" cy="10.686" r="2.77"/><circle opacity=".831" fill="#D0D0D0" cx="19.731" cy="10.688" r="2.77"/><circle opacity=".826" fill="#D0D0D0" cx="19.732" cy="10.69" r="2.77"/><circle opacity=".821" fill="#D1D1D1" cx="19.734" cy="10.691" r="2.77"/><circle opacity=".816" fill="#D1D1D1" cx="19.735" cy="10.693" r="2.77"/><circle opacity=".811" fill="#D1D1D1" cx="19.736" cy="10.694" r="2.77"/><circle opacity=".806" fill="#D2D2D2" cx="19.738" cy="10.696" r="2.77"/><circle opacity=".801" fill="#D2D2D2" cx="19.739" cy="10.698" r="2.77"/><circle opacity=".796" fill="#D2D2D2" cx="19.74" cy="10.699" r="2.77"/><circle opacity=".791" fill="#D2D2D2" cx="19.742" cy="10.701" r="2.77"/><circle opacity=".786" fill="#D3D3D3" cx="19.743" cy="10.702" r="2.77"/><circle opacity=".781" fill="#D3D3D3" cx="19.744" cy="10.704" r="2.77"/><circle opacity=".776" fill="#D3D3D3" cx="19.746" cy="10.705" r="2.77"/><circle opacity=".771" fill="#D4D4D4" cx="19.747" cy="10.707" r="2.77"/><circle opacity=".766" fill="#D4D4D4" cx="19.748" cy="10.709" r="2.77"/><circle opacity=".761" fill="#D4D4D4" cx="19.75" cy="10.71" r="2.77"/><circle opacity=".756" fill="#D4D4D4" cx="19.751" cy="10.712" r="2.77"/><circle opacity=".751" fill="#D5D5D5" cx="19.752" cy="10.713" r="2.77"/><circle opacity=".746" fill="#D5D5D5" cx="19.753" cy="10.715" r="2.77"/><circle opacity=".741" fill="#D5D5D5" cx="19.755" cy="10.717" r="2.77"/><circle opacity=".736" fill="#D5D5D5" cx="19.756" cy="10.718" r="2.77"/><circle opacity=".731" fill="#D6D6D6" cx="19.757" cy="10.72" r="2.77"/><circle opacity=".726" fill="#D6D6D6" cx="19.759" cy="10.721" r="2.77"/><circle opacity=".721" fill="#D6D6D6" cx="19.76" cy="10.723" r="2.77"/><circle opacity=".716" fill="#D7D7D7" cx="19.761" cy="10.725" r="2.77"/><circle opacity=".711" fill="#D7D7D7" cx="19.763" cy="10.726" r="2.77"/><circle opacity=".707" fill="#D7D7D7" cx="19.764" cy="10.728" r="2.77"/><circle opacity=".702" fill="#D7D7D7" cx="19.765" cy="10.729" r="2.77"/><circle opacity=".697" fill="#D8D8D8" cx="19.767" cy="10.731" r="2.77"/><circle opacity=".692" fill="#D8D8D8" cx="19.768" cy="10.733" r="2.77"/><circle opacity=".687" fill="#D8D8D8" cx="19.769" cy="10.734" r="2.77"/><circle opacity=".682" fill="#D9D9D9" cx="19.771" cy="10.736" r="2.77"/><circle opacity=".677" fill="#D9D9D9" cx="19.772" cy="10.737" r="2.77"/><circle opacity=".672" fill="#D9D9D9" cx="19.773" cy="10.739" r="2.77"/><circle opacity=".667" fill="#D9D9D9" cx="19.775" cy="10.741" r="2.77"/><circle opacity=".662" fill="#DADADA" cx="19.776" cy="10.742" r="2.77"/><circle opacity=".657" fill="#DADADA" cx="19.777" cy="10.744" r="2.77"/><circle opacity=".652" fill="#DADADA" cx="19.779" cy="10.745" r="2.77"/><circle opacity=".647" fill="#DBDBDB" cx="19.78" cy="10.747" r="2.77"/><circle opacity=".642" fill="#DBDBDB" cx="19.781" cy="10.749" r="2.77"/><circle opacity=".637" fill="#DBDBDB" cx="19.783" cy="10.75" r="2.77"/><circle opacity=".632" fill="#DBDBDB" cx="19.784" cy="10.752" r="2.77"/><circle opacity=".627" fill="#DCDCDC" cx="19.785" cy="10.753" r="2.77"/><circle opacity=".622" fill="#DCDCDC" cx="19.787" cy="10.755" r="2.77"/><circle opacity=".617" fill="#DCDCDC" cx="19.788" cy="10.756" r="2.77"/><circle opacity=".612" fill="#DCDCDC" cx="19.789" cy="10.758" r="2.77"/><circle opacity=".607" fill="#DDD" cx="19.791" cy="10.76" r="2.77"/><circle opacity=".602" fill="#DDD" cx="19.792" cy="10.761" r="2.77"/><circle opacity=".597" fill="#DDD" cx="19.793" cy="10.763" r="2.77"/><circle opacity=".592" fill="#DEDEDE" cx="19.795" cy="10.764" r="2.77"/><circle opacity=".587" fill="#DEDEDE" cx="19.796" cy="10.766" r="2.77"/><circle opacity=".582" fill="#DEDEDE" cx="19.797" cy="10.768" r="2.77"/><circle opacity=".577" fill="#DEDEDE" cx="19.798" cy="10.769" r="2.77"/><circle opacity=".572" fill="#DFDFDF" cx="19.8" cy="10.771" r="2.77"/><circle opacity=".567" fill="#DFDFDF" cx="19.801" cy="10.772" r="2.77"/><circle opacity=".562" fill="#DFDFDF" cx="19.802" cy="10.774" r="2.77"/><circle opacity=".557" fill="#E0E0E0" cx="19.804" cy="10.776" r="2.77"/><circle opacity=".552" fill="#E0E0E0" cx="19.805" cy="10.777" r="2.77"/><circle opacity=".547" fill="#E0E0E0" cx="19.806" cy="10.779" r="2.77"/><circle opacity=".542" fill="#E0E0E0" cx="19.808" cy="10.78" r="2.77"/><circle opacity=".537" fill="#E1E1E1" cx="19.809" cy="10.782" r="2.77"/><circle opacity=".532" fill="#E1E1E1" cx="19.81" cy="10.784" r="2.77"/><circle opacity=".527" fill="#E1E1E1" cx="19.812" cy="10.785" r="2.77"/><circle opacity=".522" fill="#E2E2E2" cx="19.813" cy="10.787" r="2.77"/><circle opacity=".517" fill="#E2E2E2" cx="19.814" cy="10.788" r="2.77"/><circle opacity=".512" fill="#E2E2E2" cx="19.816" cy="10.79" r="2.77"/><circle opacity=".507" fill="#E2E2E2" cx="19.817" cy="10.792" r="2.77"/><circle opacity=".502" fill="#E3E3E3" cx="19.818" cy="10.793" r="2.77"/><circle opacity=".497" fill="#E3E3E3" cx="19.82" cy="10.795" r="2.77"/><circle opacity=".492" fill="#E3E3E3" cx="19.821" cy="10.796" r="2.77"/><circle opacity=".488" fill="#E4E4E4" cx="19.822" cy="10.798" r="2.77"/><circle opacity=".483" fill="#E4E4E4" cx="19.824" cy="10.8" r="2.77"/><circle opacity=".478" fill="#E4E4E4" cx="19.825" cy="10.801" r="2.77"/><circle opacity=".473" fill="#E4E4E4" cx="19.826" cy="10.803" r="2.77"/><circle opacity=".468" fill="#E5E5E5" cx="19.828" cy="10.804" r="2.77"/><circle opacity=".463" fill="#E5E5E5" cx="19.829" cy="10.806" r="2.77"/><circle opacity=".458" fill="#E5E5E5" cx="19.83" cy="10.807" r="2.77"/><circle opacity=".453" fill="#E5E5E5" cx="19.832" cy="10.809" r="2.77"/><circle opacity=".448" fill="#E6E6E6" cx="19.833" cy="10.811" r="2.77"/><circle opacity=".443" fill="#E6E6E6" cx="19.834" cy="10.812" r="2.77"/><circle opacity=".438" fill="#E6E6E6" cx="19.835" cy="10.814" r="2.77"/><circle opacity=".433" fill="#E7E7E7" cx="19.837" cy="10.815" r="2.77"/><circle opacity=".428" fill="#E7E7E7" cx="19.838" cy="10.817" r="2.77"/><circle opacity=".423" fill="#E7E7E7" cx="19.839" cy="10.819" r="2.77"/><circle opacity=".418" fill="#E7E7E7" cx="19.841" cy="10.82" r="2.77"/><circle opacity=".413" fill="#E8E8E8" cx="19.842" cy="10.822" r="2.77"/><circle opacity=".408" fill="#E8E8E8" cx="19.843" cy="10.823" r="2.77"/><circle opacity=".403" fill="#E8E8E8" cx="19.845" cy="10.825" r="2.77"/><circle opacity=".398" fill="#E9E9E9" cx="19.846" cy="10.827" r="2.77"/><circle opacity=".393" fill="#E9E9E9" cx="19.847" cy="10.828" r="2.77"/><circle opacity=".388" fill="#E9E9E9" cx="19.849" cy="10.83" r="2.77"/><circle opacity=".383" fill="#E9E9E9" cx="19.85" cy="10.831" r="2.77"/><circle opacity=".378" fill="#EAEAEA" cx="19.851" cy="10.833" r="2.77"/><circle opacity=".373" fill="#EAEAEA" cx="19.853" cy="10.835" r="2.77"/><circle opacity=".368" fill="#EAEAEA" cx="19.854" cy="10.836" r="2.77"/><circle opacity=".363" fill="#EBEBEB" cx="19.855" cy="10.838" r="2.77"/><circle opacity=".358" fill="#EBEBEB" cx="19.857" cy="10.839" r="2.77"/><circle opacity=".353" fill="#EBEBEB" cx="19.858" cy="10.841" r="2.77"/><circle opacity=".348" fill="#EBEBEB" cx="19.859" cy="10.843" r="2.77"/><circle opacity=".343" fill="#ECECEC" cx="19.861" cy="10.844" r="2.77"/><circle opacity=".338" fill="#ECECEC" cx="19.862" cy="10.846" r="2.77"/><circle opacity=".333" fill="#ECECEC" cx="19.863" cy="10.847" r="2.77"/><circle opacity=".328" fill="#ECECEC" cx="19.865" cy="10.849" r="2.77"/><circle opacity=".323" fill="#EDEDED" cx="19.866" cy="10.851" r="2.77"/><circle opacity=".318" fill="#EDEDED" cx="19.867" cy="10.852" r="2.77"/><circle opacity=".313" fill="#EDEDED" cx="19.868" cy="10.854" r="2.77"/><circle opacity=".308" fill="#EEE" cx="19.87" cy="10.855" r="2.77"/><circle opacity=".303" fill="#EEE" cx="19.871" cy="10.857" r="2.77"/><circle opacity=".298" fill="#EEE" cx="19.872" cy="10.858" r="2.77"/><circle opacity=".293" fill="#EEE" cx="19.874" cy="10.86" r="2.77"/><circle opacity=".289" fill="#EFEFEF" cx="19.875" cy="10.862" r="2.77"/><circle opacity=".284" fill="#EFEFEF" cx="19.876" cy="10.863" r="2.77"/><circle opacity=".279" fill="#EFEFEF" cx="19.878" cy="10.865" r="2.77"/><circle opacity=".274" fill="#F0F0F0" cx="19.879" cy="10.866" r="2.77"/><circle opacity=".269" fill="#F0F0F0" cx="19.88" cy="10.868" r="2.77"/><circle opacity=".264" fill="#F0F0F0" cx="19.882" cy="10.87" r="2.77"/><circle opacity=".259" fill="#F0F0F0" cx="19.883" cy="10.871" r="2.77"/><circle opacity=".254" fill="#F1F1F1" cx="19.884" cy="10.873" r="2.77"/><circle opacity=".249" fill="#F1F1F1" cx="19.886" cy="10.874" r="2.77"/><circle opacity=".244" fill="#F1F1F1" cx="19.887" cy="10.876" r="2.77"/><circle opacity=".239" fill="#F2F2F2" cx="19.888" cy="10.878" r="2.77"/><circle opacity=".234" fill="#F2F2F2" cx="19.89" cy="10.879" r="2.77"/><circle opacity=".229" fill="#F2F2F2" cx="19.891" cy="10.881" r="2.77"/><circle opacity=".224" fill="#F2F2F2" cx="19.892" cy="10.882" r="2.77"/><circle opacity=".219" fill="#F3F3F3" cx="19.894" cy="10.884" r="2.77"/><circle opacity=".214" fill="#F3F3F3" cx="19.895" cy="10.886" r="2.77"/><circle opacity=".209" fill="#F3F3F3" cx="19.896" cy="10.887" r="2.77"/><circle opacity=".204" fill="#F3F3F3" cx="19.898" cy="10.889" r="2.77"/><circle opacity=".199" fill="#F4F4F4" cx="19.899" cy="10.89" r="2.77"/><circle opacity=".194" fill="#F4F4F4" cx="19.9" cy="10.892" r="2.77"/><circle opacity=".189" fill="#F4F4F4" cx="19.902" cy="10.894" r="2.77"/><circle opacity=".184" fill="#F5F5F5" cx="19.903" cy="10.895" r="2.77"/><circle opacity=".179" fill="#F5F5F5" cx="19.904" cy="10.897" r="2.77"/><circle opacity=".174" fill="#F5F5F5" cx="19.906" cy="10.898" r="2.77"/><circle opacity=".169" fill="#F5F5F5" cx="19.907" cy="10.9" r="2.77"/><circle opacity=".164" fill="#F6F6F6" cx="19.908" cy="10.901" r="2.77"/><circle opacity=".159" fill="#F6F6F6" cx="19.91" cy="10.903" r="2.77"/><circle opacity=".154" fill="#F6F6F6" cx="19.911" cy="10.905" r="2.77"/><circle opacity=".149" fill="#F7F7F7" cx="19.912" cy="10.906" r="2.77"/><circle opacity=".144" fill="#F7F7F7" cx="19.913" cy="10.908" r="2.77"/><circle opacity=".139" fill="#F7F7F7" cx="19.915" cy="10.909" r="2.77"/><circle opacity=".134" fill="#F7F7F7" cx="19.916" cy="10.911" r="2.77"/><circle opacity=".129" fill="#F8F8F8" cx="19.917" cy="10.913" r="2.77"/><circle opacity=".124" fill="#F8F8F8" cx="19.919" cy="10.914" r="2.77"/><circle opacity=".119" fill="#F8F8F8" cx="19.92" cy="10.916" r="2.77"/><circle opacity=".114" fill="#F9F9F9" cx="19.921" cy="10.917" r="2.77"/><circle opacity=".11" fill="#F9F9F9" cx="19.923" cy="10.919" r="2.77"/><circle opacity=".104" fill="#F9F9F9" cx="19.924" cy="10.921" r="2.77"/><circle opacity=".1" fill="#F9F9F9" cx="19.925" cy="10.922" r="2.77"/><circle opacity=".095" fill="#FAFAFA" cx="19.927" cy="10.924" r="2.77"/><circle opacity=".09" fill="#FAFAFA" cx="19.928" cy="10.925" r="2.77"/><circle opacity=".085" fill="#FAFAFA" cx="19.929" cy="10.927" r="2.77"/><circle opacity=".08" fill="#FBFBFB" cx="19.931" cy="10.929" r="2.77"/><circle opacity=".075" fill="#FBFBFB" cx="19.932" cy="10.93" r="2.77"/><circle opacity=".07" fill="#FBFBFB" cx="19.933" cy="10.932" r="2.77"/><circle opacity=".065" fill="#FBFBFB" cx="19.935" cy="10.933" r="2.77"/><circle opacity=".06" fill="#FCFCFC" cx="19.936" cy="10.935" r="2.77"/><circle opacity=".055" fill="#FCFCFC" cx="19.937" cy="10.937" r="2.77"/><circle opacity=".05" fill="#FCFCFC" cx="19.939" cy="10.938" r="2.77"/><circle opacity=".045" fill="#FCFCFC" cx="19.94" cy="10.94" r="2.77"/><circle opacity=".04" fill="#FDFDFD" cx="19.941" cy="10.941" r="2.77"/><circle opacity=".035" fill="#FDFDFD" cx="19.943" cy="10.943" r="2.77"/><circle opacity=".03" fill="#FDFDFD" cx="19.944" cy="10.945" r="2.77"/><circle opacity=".025" fill="#FEFEFE" cx="19.945" cy="10.946" r="2.77"/><circle opacity=".02" fill="#FEFEFE" cx="19.946" cy="10.948" r="2.77"/><circle opacity=".015" fill="#FEFEFE" cx="19.948" cy="10.949" r="2.77"/><circle opacity=".01" fill="#FEFEFE" cx="19.949" cy="10.951" r="2.77"/><circle opacity=".005" fill="#FFF" cx="19.95" cy="10.952" r="2.77"/></g></g><g fill="#202020"><path d="M34.834 7.845c0-.091-.063-.141-.173-.141h-.147v.458h.109v-.178l.128.177h.133l-.15-.189a.125.125 0 0 0 .1-.127zm-.193.062h-.018v-.12h.02c.054 0 .082.019.082.059 0 .041-.029.061-.084.061z"/><path d="M34.683 7.533a.396.396 0 0 0-.398.399c0 .221.178.399.398.399a.4.4 0 0 0 0-.798zm-.002.726a.323.323 0 0 1-.318-.327c0-.182.141-.328.318-.328.174 0 .316.149.316.328 0 .18-.142.327-.316.327z"/></g></svg>