<svg xmlns="http://www.w3.org/2000/svg" width="29.333" height="26.333" viewBox="0 0 29.333 26.333"><g fill="#202020"><path d="M27.616.599H1.713c-.55 0-1 .45-1 1v23.159c0 .55.45 1 1 1h25.903c.55 0 1-.45 1-1V1.599c0-.55-.45-1-1-1zm.193 23.932c0 .275-.225.5-.5.5H2.019a.501.501 0 0 1-.5-.5V1.826c0-.275.225-.5.5-.5h25.29c.275 0 .5.225.5.5v22.705z"/><path d="M24.139 4.846L22.141 16.08 20.153 4.846H17.89l2.902 16.319H23.499l2.889-16.319zM14.639 19.054V4.914h-2.204v16.183h6.1v-2.043zM10.484 6.957V4.914H3.871v16.183h6.613v-2.043H6.076v-5.323h3.777v-2.043H6.076V6.957z"/></g></svg>