<svg xmlns="http://www.w3.org/2000/svg" width="34.625" height="21.262" viewBox="0 0 34.625 21.262"><path fill="#202020" d="M26.954 10.94h-2.675a.536.536 0 0 1-.54-.534c0-.297.242-.558.54-.558h4.072V7.84h-4.072c-1.421 0-2.578 1.159-2.578 2.577s1.156 2.577 2.578 2.577h2.639c.297 0 .54.236.54.533 0 .297-.242.515-.54.515H21.26c-.48.917-.947 1.703-1.896 2.096h7.59c1.397-.02 2.541-1.203 2.541-2.608 0-1.406-1.143-2.569-2.541-2.59z"/><path fill="#202020" d="M16.7 7.84c-2.267 0-4.114 1.858-4.114 4.14V20.591h2.052v-4.454h2.057c2.267 0 4.107-1.882 4.107-4.165.001-2.282-1.834-4.132-4.102-4.132zm0 6.201h-2.061v-2.068c0-1.156.92-2.096 2.061-2.096s2.069.94 2.069 2.096a2.061 2.061 0 0 1-2.069 2.068z"/><g fill="#202020"><path d="M6.089 16.137c-1.941 0-3.572-1.383-4.014-3.19 0 0-.128-.597-.128-.991 0-.393.121-.997.121-.997A4.142 4.142 0 0 1 6.08 7.816c2.279 0 4.149 1.852 4.149 4.131v1.002H4.175c.358.699 1.081 1.092 1.914 1.092h5.442l.007-5.909c0-.881-.721-1.602-1.602-1.602H2.223c-.881 0-1.602.699-1.602 1.58v7.714c0 .881.721 1.624 1.602 1.624h7.714c.791 0 1.45-.568 1.578-1.31H6.089z"/><path d="M6.08 9.777c-.831 0-1.553.508-1.912 1.164h3.824c-.359-.656-1.081-1.164-1.912-1.164zM9.574 4.021c0-1.883-1.565-3.409-3.495-3.409-1.898 0-3.442 1.476-3.492 3.316v1.047c0 .123.1.244.225.244h1.286c.126 0 .236-.121.236-.244v-.954c0-.94.783-1.705 1.747-1.705s1.747.765 1.747 1.705v.955c0 .123.102.244.227.244H9.34c.126 0 .234-.121.234-.244v-.955z"/></g><g fill="#202020"><path d="M19.003 18.801l-.186 1.052c-.093.532-.441.775-.914.775-.4 0-.71-.261-.62-.775l.186-1.053h.287l-.186 1.052c-.057.328.09.515.369.515.287 0 .532-.17.591-.514l.186-1.053h.287zm-1.125-.329c0 .088.067.129.139.129.09 0 .188-.064.188-.186 0-.085-.057-.129-.132-.129-.092 0-.195.059-.195.186zm.619-.003c0 .09.07.132.145.132.08 0 .186-.064.186-.183 0-.085-.062-.132-.132-.132-.093 0-.199.059-.199.183zM19.696 18.801l-.129.727c.111-.15.333-.229.488-.229.32 0 .542.188.542.536 0 .493-.343.79-.782.79-.17 0-.315-.063-.403-.223l-.049.19h-.25l.318-1.79h.265zm-.202 1.227c-.01.212.126.348.325.348.25 0 .493-.194.509-.488.01-.214-.129-.341-.323-.341a.52.52 0 0 0-.511.481zM21.119 20.067c-.01.175.126.317.359.317a.63.63 0 0 0 .392-.138l.145.167a.903.903 0 0 1-.586.216c-.367 0-.581-.22-.581-.555 0-.447.351-.779.8-.779.411 0 .643.248.503.772h-1.032zm.816-.218c.021-.218-.108-.307-.323-.307-.194 0-.372.089-.449.307h.772zM22.862 19.325l-.013.168a.477.477 0 0 1 .41-.196c.124 0 .235.044.294.108l-.16.232a.28.28 0 0 0-.212-.077.398.398 0 0 0-.405.345l-.121.686h-.266l.225-1.266h.248zM24.834 19.325l.134 1.002.485-1.002h.297l-.666 1.266h-.312l-.126-.835-.204.415-.222.42h-.31l-.225-1.266h.299l.132 1.002.488-1.002h.23zM26.092 20.067c-.01.175.126.317.359.317a.63.63 0 0 0 .392-.138l.145.167a.903.903 0 0 1-.586.216c-.367 0-.581-.22-.581-.555 0-.447.351-.779.8-.779.411 0 .643.248.503.772h-1.032zm.816-.218c.021-.218-.108-.307-.323-.307-.194 0-.372.089-.449.307h.772zM27.853 19.325l-.225 1.266h-.266l.225-1.266h.266zm-.235-.345c0 .09.067.137.139.137.103 0 .199-.067.199-.194a.13.13 0 0 0-.134-.134c-.095 0-.204.062-.204.191zM29.033 19.638c-.083-.093-.188-.119-.315-.119-.176 0-.299.059-.299.17 0 .093.101.132.25.145.232.021.529.098.467.426-.044.238-.281.377-.612.377-.206 0-.405-.046-.54-.235l.173-.188c.096.132.263.186.413.188.126 0 .276-.046.299-.165.023-.114-.077-.157-.263-.176-.217-.021-.454-.101-.454-.341 0-.318.343-.429.601-.429.196 0 .341.044.46.17l-.18.177zM29.873 19.325l-.121.682c-.039.217.059.367.281.367.209 0 .387-.173.423-.385l.116-.664h.266l-.225 1.266h-.24l.018-.184c-.15.142-.297.209-.475.209-.312 0-.498-.224-.431-.608l.121-.683h.267zM32.005 20.591l.121-.678c.039-.219-.036-.365-.279-.365-.212 0-.39.17-.426.379l-.116.663h-.265l.225-1.266h.243l-.018.185c.147-.137.299-.204.465-.204.31 0 .511.215.442.605l-.121.68h-.271zM32.907 20.766c-.018.175.116.245.341.245.196 0 .408-.11.457-.388l.039-.217c-.116.163-.328.227-.485.227-.325 0-.553-.194-.553-.545 0-.501.372-.79.792-.79.178 0 .338.085.395.229l.044-.202h.258l-.222 1.304c-.083.483-.441.633-.769.633-.392 0-.609-.19-.555-.496h.258zm.075-.73c0 .217.142.348.346.348.55 0 .697-.844.147-.844a.484.484 0 0 0-.493.496z"/></g></svg>