<svg xmlns="http://www.w3.org/2000/svg" width="36.083" height="16.333" viewBox="0 0 36.083 16.333"><path fill="#FFF" d="M32.055.721H3.185A2.61 2.61 0 0 0 .574 3.329v9.915a2.61 2.61 0 0 0 2.611 2.608h28.87V.721z"/><path fill="#FFF" d="M18.688 1.817H3.108a1.498 1.498 0 0 0-1.497 1.496v9.932a1.5 1.5 0 0 0 1.497 1.496h15.58V1.817z"/><path fill="#0D0D0D" d="M32.926.7H3.108A2.614 2.614 0 0 0 .493 3.313v9.932a2.616 2.616 0 0 0 2.615 2.613h29.817a2.614 2.614 0 0 0 2.615-2.613V3.313A2.614 2.614 0 0 0 32.926.7zM1.611 13.246V3.313a1.5 1.5 0 0 1 1.497-1.496h15.58v12.924H3.108a1.497 1.497 0 0 1-1.497-1.495z"/><path fill="#FFF" d="M22.83 8.164c0 .603-.298 1.017-.792 1.017-.436 0-.8-.414-.8-.966 0-.566.32-.988.8-.988.508.001.792.436.792.937m-2.9 3.457h1.308V9.566h.015c.247.45.741.617 1.199.617 1.126 0 1.73-.929 1.73-2.048 0-.915-.574-1.91-1.62-1.91-.596 0-1.148.24-1.41.77h-.015v-.682H19.93v5.308zM25.968 8.898c0-.363.349-.501.792-.501.196 0 .385.014.553.022 0 .443-.312.894-.807.894-.306-.001-.538-.154-.538-.415m2.638 1.198a4.64 4.64 0 0 1-.073-.893V7.794c0-1.155-.836-1.569-1.802-1.569-.56 0-1.047.08-1.512.269l.022.886c.364-.203.785-.283 1.206-.283.473 0 .858.138.865.654a3.842 3.842 0 0 0-.61-.051c-.698 0-1.955.138-1.955 1.293 0 .821.669 1.191 1.417 1.191.538 0 .901-.211 1.199-.683h.014c0 .196.022.392.029.595h1.2zM29.193 11.621c.269.058.538.087.814.087 1.2 0 1.483-.923 1.853-1.873l1.388-3.523H31.94l-.778 2.469h-.014l-.814-2.469h-1.409l1.533 3.871c-.094.334-.341.523-.66.523-.182 0-.342-.021-.516-.08l-.089.995z"/><path fill="#4D4D4D" d="M4.817 8.171c0-.515.254-.944.741-.944.589 0 .836.472.836.893 0 .581-.371.973-.836.973-.393.001-.741-.333-.741-.922m2.841-1.858H6.473v.682h-.014c-.276-.465-.727-.77-1.286-.77-1.177 0-1.708.842-1.708 1.968 0 1.119.647 1.902 1.686 1.902.523 0 .959-.203 1.272-.646h.015v.204c0 .741-.407 1.096-1.163 1.096-.545 0-.879-.116-1.279-.312l-.066 1.032c.305.108.821.24 1.446.24 1.526 0 2.282-.501 2.282-2.055V6.313zM9.869 4.737H8.561v.959h1.308v-.959zm-1.308 5.359h1.308V6.313H8.561v3.783zM13.511 6.269a2.762 2.762 0 0 0-.443-.043c-.567 0-.894.305-1.119.784h-.014v-.697h-1.192v3.783h1.308V8.499c0-.741.342-1.184.952-1.184.152 0 .298 0 .443.043l.065-1.089zM15.764 9.268c-.603 0-.85-.501-.85-1.06 0-.567.247-1.068.85-1.068s.85.501.85 1.068c0 .559-.247 1.06-.85 1.06m0 .915c1.25 0 2.202-.726 2.202-1.975 0-1.257-.952-1.983-2.202-1.983s-2.202.726-2.202 1.983c0 1.249.952 1.975 2.202 1.975"/></svg>