<svg xmlns="http://www.w3.org/2000/svg" width="29.333" height="25.667" viewBox="0 0 29.333 25.667"><path d="M3.807 14.375h4.47v7.423h-4.47z"/><circle cx="6.084" cy="10.664" r="2.53"/><path d="M16.745.684H.706v24.324h16.039v-.005c3.503-.048 6.279-.918 8.248-2.594 2.395-2.038 3.61-5.256 3.61-9.563 0-2.059-.319-3.906-.949-5.49-.603-1.515-1.493-2.803-2.647-3.828C22.975 1.722 20.122.745 16.745.69V.684zm-.304 1.615c3.108 0 5.699.842 7.492 2.436 2.027 1.801 3.054 4.53 3.054 8.111 0 7.097-3.45 10.546-10.546 10.546H2.321V2.299h14.12z"/><path fill="#494949" d="M16 21.806h-5.67V4.266H16h-.229c4.729 0 9.762 1.866 9.762 8.793 0 7.323-5.034 8.747-9.762 8.747H16z"/><g fill="#FFF"><path d="M9.352 8.794h1.557c.351 0 .619.027.803.081.247.073.459.203.636.389s.311.414.403.684c.092.27.138.602.138.998 0 .347-.043.647-.13.898a1.865 1.865 0 0 1-.452.746 1.5 1.5 0 0 1-.599.337c-.188.06-.439.089-.754.089H9.352V8.794zm.851.715v2.79h.638c.238 0 .411-.013.516-.04a.795.795 0 0 0 .345-.175c.091-.082.166-.218.224-.407.058-.189.087-.446.087-.771 0-.326-.029-.576-.087-.75a.968.968 0 0 0-.242-.408.81.81 0 0 0-.395-.198c-.119-.027-.353-.04-.701-.04h-.385z"/><path d="M9.237 8.678v4.451h1.718c.325 0 .59-.032.789-.095.268-.086.484-.208.644-.364.208-.202.369-.468.48-.791.09-.262.136-.577.136-.936a3.27 3.27 0 0 0-.144-1.035 1.975 1.975 0 0 0-.428-.726 1.53 1.53 0 0 0-.687-.42c-.197-.057-.47-.085-.836-.085H9.237zm1.672.231c.339 0 .598.026.771.076.226.067.423.187.585.357.164.173.291.389.377.642.088.256.132.579.132.96 0 .333-.041.623-.123.861a1.75 1.75 0 0 1-.423.7 1.39 1.39 0 0 1-.553.31c-.175.056-.417.084-.719.084H9.468v-3.99h1.441z"/><path d="M10.088 9.394v3.02h.753c.25 0 .429-.014.545-.044a.922.922 0 0 0 .394-.201c.108-.098.192-.248.257-.459.062-.201.092-.465.092-.805 0-.341-.03-.598-.092-.786a1.084 1.084 0 0 0-.273-.456.93.93 0 0 0-.45-.227c-.128-.029-.366-.043-.725-.043h-.501zm.499.23c.421 0 .6.02.676.037.139.03.254.087.341.17a.854.854 0 0 1 .212.36c.054.162.081.402.081.714 0 .313-.027.561-.081.738-.051.167-.115.287-.191.355a.686.686 0 0 1-.295.149 2.279 2.279 0 0 1-.489.037h-.522V9.625l.268-.001zM13.852 13.014v-4.22h3.124v.715h-2.273v.935h2.115v.715h-2.115v1.14h2.354v.715h-3.205z"/><path d="M13.737 8.678v4.451h3.436v-.946h-2.354v-.909h2.115v-.946h-2.115v-.704h2.273v-.946h-3.355zm3.124.231v.485h-2.273v1.165h2.115v.485h-2.115v1.37h2.354v.485h-2.974v-3.99h2.893z"/><g><path d="M21.823 13.014h-.927l-.368-.958h-1.686l-.349.958h-.904l1.64-4.22h.907l1.687 4.22zm-1.569-1.673l-.582-1.564-.57 1.564h1.152z"/><path d="M19.149 8.678l-1.73 4.451h1.153l.349-.958h1.526l.368.958h1.177l-1.78-4.451h-1.063zm.908.231l1.595 3.99h-.677l-.368-.958h-1.846l-.349.958h-.655l1.55-3.99h.75z"/><path d="M18.937 11.456h1.483l-.749-2.013-.734 2.013zm.736-1.345l.415 1.114h-.821l.406-1.114z"/></g><g><path d="M22.535 13.014V8.828h.851v3.47h2.12v.715h-2.971z"/><path d="M22.419 8.713v4.417h3.202v-.946h-2.12v-3.47h-1.082zm.851.231v3.47h2.12v.485h-2.741V8.944h.621z"/></g></g></svg>