<svg xmlns="http://www.w3.org/2000/svg" width="32.313" height="25.313" viewBox="0 0 32.313 25.313"><path fill="#747474" d="M11.959 2.531h8.483v15.244h-8.483z"/><path fill="#747474" d="M11.959 2.531h8.483v15.244h-8.483z"/><path fill="#545454" d="M12.497 10.153A9.678 9.678 0 0 1 16.2 2.531 9.654 9.654 0 0 0 10.209.458C4.855.458.515 4.798.515 10.153s4.34 9.695 9.694 9.695a9.654 9.654 0 0 0 5.991-2.073 9.677 9.677 0 0 1-3.703-7.622"/><path fill="#737373" d="M31.885 10.153c0 5.354-4.34 9.695-9.694 9.695a9.659 9.659 0 0 1-5.992-2.073 9.678 9.678 0 0 0 3.703-7.622 9.678 9.678 0 0 0-3.703-7.622A9.655 9.655 0 0 1 22.191.458c5.354.001 9.694 4.341 9.694 9.695"/><path fill="#0F0F0F" d="M23.311 22.083c.113 0 .275.022.399.07l-.173.528a.902.902 0 0 0-.35-.065c-.366 0-.549.237-.549.662v1.444h-.56v-2.574h.555v.312a.758.758 0 0 1 .678-.377zm-2.069.576h-.915v1.163c0 .258.091.431.372.431.145 0 .329-.049.495-.145l.161.479c-.178.124-.457.2-.7.2-.663 0-.894-.356-.894-.954v-1.174h-.523v-.512h.523v-.781h.565v.781h.915v.512zm-7.168.549c.06-.372.285-.625.684-.625.361 0 .592.226.652.625h-1.336zm1.917.226c-.006-.803-.501-1.352-1.223-1.352-.754 0-1.281.549-1.281 1.352 0 .818.549 1.351 1.32 1.351.388 0 .743-.097 1.055-.361l-.275-.415a1.22 1.22 0 0 1-.748.269c-.361 0-.689-.167-.77-.63h1.911a2.41 2.41 0 0 0 .011-.214zm2.461-.629a1.654 1.654 0 0 0-.802-.221c-.307 0-.49.113-.49.302 0 .172.194.221.436.253l.264.038c.56.081.899.318.899.77 0 .49-.431.84-1.174.84-.42 0-.808-.108-1.115-.334l.264-.436c.189.145.469.269.857.269.382 0 .587-.113.587-.313 0-.145-.145-.226-.452-.269l-.264-.038c-.576-.081-.889-.34-.889-.759 0-.512.42-.824 1.072-.824.409 0 .781.092 1.05.269l-.243.453zm6.906-.19a.849.849 0 0 0-.321.06.765.765 0 0 0-.426.432.893.893 0 0 0-.062.336c0 .123.02.234.062.336a.775.775 0 0 0 .426.432.83.83 0 0 0 .321.06c.115 0 .223-.02.321-.06a.773.773 0 0 0 .43-.432.89.89 0 0 0 .062-.336.874.874 0 0 0-.062-.336.763.763 0 0 0-.43-.432.841.841 0 0 0-.321-.06zm0-.532c.2 0 .385.035.555.104a1.31 1.31 0 0 1 .733.716c.07.166.105.346.105.54s-.035.374-.105.54a1.31 1.31 0 0 1-.733.717c-.17.069-.355.104-.555.104-.2 0-.385-.035-.555-.104a1.35 1.35 0 0 1-.439-.286 1.325 1.325 0 0 1-.29-.431c-.07-.166-.105-.346-.105-.54s.035-.374.105-.54a1.32 1.32 0 0 1 .729-.716 1.45 1.45 0 0 1 .555-.104zm-14.556 1.351c0-.452.296-.824.781-.824.463 0 .775.356.775.824s-.312.823-.775.823c-.484.001-.781-.37-.781-.823zm2.084 0v-1.287h-.56v.312c-.178-.232-.447-.377-.813-.377-.722 0-1.287.565-1.287 1.352 0 .786.565 1.352 1.287 1.352.366 0 .635-.145.813-.377v.312h.56v-1.287zm-3.155 1.287v-1.616c0-.608-.388-1.018-1.012-1.023-.329-.006-.668.097-.905.458-.178-.285-.458-.458-.851-.458-.274 0-.544.081-.754.382v-.317h-.56v2.574h.565v-1.427c0-.447.248-.684.63-.684.372 0 .56.242.56.679v1.432h.566v-1.427c0-.447.259-.684.63-.684.383 0 .566.242.566.679v1.432h.565z"/></svg>