<svg xmlns="http://www.w3.org/2000/svg" width="33.125" height="26" viewBox="0 0 33.125 26"><g fill="#202020"><path d="M5.99 22.98a.996.996 0 0 0-.328-.216 1.104 1.104 0 0 0-.416-.077c-.08 0-.163.007-.249.021-.086.014-.17.038-.253.073a.874.874 0 0 0-.429.376.962.962 0 0 0-.36-.345 1.067 1.067 0 0 0-.52-.125c-.066 0-.133.006-.203.018a.958.958 0 0 0-.209.062.817.817 0 0 0-.369.31v-.321h-.553v2.631h.558v-1.458c0-.112.018-.211.053-.298a.634.634 0 0 1 .142-.218.579.579 0 0 1 .209-.133.72.72 0 0 1 .255-.045c.188 0 .334.06.437.179.104.119.155.289.155.511v1.464h.56v-1.458c0-.112.018-.211.053-.298a.634.634 0 0 1 .142-.218.579.579 0 0 1 .209-.133.72.72 0 0 1 .255-.045c.188 0 .334.06.437.179.104.119.155.289.155.511v1.464h.559v-1.654c0-.154-.025-.295-.076-.423a.94.94 0 0 0-.214-.334zM8.934 23.075a1.04 1.04 0 0 0-.341-.282 1.05 1.05 0 0 0-.486-.106 1.282 1.282 0 0 0-.934.39 1.342 1.342 0 0 0-.28.438 1.479 1.479 0 0 0-.102.556c0 .201.034.387.102.556a1.278 1.278 0 0 0 1.214.828c.189 0 .351-.035.486-.104.135-.07.249-.163.341-.28v.316h.574v-2.631h-.574v.319zm-.022 1.332a.757.757 0 0 1-.736.508.747.747 0 0 1-.74-.516.955.955 0 0 1-.055-.327.96.96 0 0 1 .055-.327.747.747 0 0 1 .74-.516.757.757 0 0 1 .736.508c.038.103.058.214.058.335s-.019.232-.058.335zM12.147 24.068c-.161-.125-.386-.209-.673-.251l-.272-.041a2.35 2.35 0 0 1-.17-.032.562.562 0 0 1-.137-.048.269.269 0 0 1-.092-.077.189.189 0 0 1-.034-.115c0-.093.043-.169.13-.227a.657.657 0 0 1 .367-.087c.082 0 .163.007.243.022.08.015.155.033.227.055a1.625 1.625 0 0 1 .343.149l.247-.448a1.698 1.698 0 0 0-.481-.205 2.298 2.298 0 0 0-.585-.073c-.169 0-.32.02-.453.059a1.012 1.012 0 0 0-.342.168.73.73 0 0 0-.217.265.805.805 0 0 0-.076.352.65.65 0 0 0 .227.515c.151.131.373.217.666.257l.275.036a.85.85 0 0 1 .346.106c.073.049.11.11.11.185 0 .099-.05.177-.151.235-.101.058-.25.087-.448.087-.108 0-.205-.007-.29-.022a1.44 1.44 0 0 1-.233-.059 1.155 1.155 0 0 1-.345-.188l-.266.431c.095.071.195.129.299.173a2.062 2.062 0 0 0 .83.164c.189 0 .357-.021.507-.063a1.13 1.13 0 0 0 .376-.177.748.748 0 0 0 .314-.619.628.628 0 0 0-.242-.527zM17.522 23.071a1.125 1.125 0 0 0-.393-.283 1.243 1.243 0 0 0-.504-.1c-.194 0-.371.033-.531.1-.16.067-.298.161-.413.283a1.297 1.297 0 0 0-.269.438c-.064.17-.096.358-.096.563 0 .209.033.398.099.569.066.17.158.316.277.437.119.121.261.214.426.28.165.066.346.099.544.099.2 0 .39-.027.57-.082.18-.055.351-.151.512-.288l-.286-.409c-.11.088-.231.156-.364.205a1.14 1.14 0 0 1-.397.073.96.96 0 0 1-.269-.038.72.72 0 0 1-.234-.119.724.724 0 0 1-.179-.207.876.876 0 0 1-.102-.305h1.945a1.63 1.63 0 0 0 .011-.214c0-.205-.031-.392-.092-.562a1.287 1.287 0 0 0-.255-.44zm-1.606.775a.974.974 0 0 1 .077-.262.723.723 0 0 1 .141-.206.585.585 0 0 1 .206-.133.751.751 0 0 1 .273-.047c.183 0 .332.057.448.17a.825.825 0 0 1 .22.478h-1.365zM25.149 23.075a1.04 1.04 0 0 0-.341-.282 1.05 1.05 0 0 0-.486-.106 1.282 1.282 0 0 0-.934.39 1.342 1.342 0 0 0-.28.438 1.479 1.479 0 0 0-.102.556c0 .201.034.387.102.556a1.278 1.278 0 0 0 1.214.828c.189 0 .351-.035.486-.104.136-.07.249-.163.341-.28v.316h.574v-2.631h-.574v.319zm-.022 1.332a.757.757 0 0 1-.736.508.747.747 0 0 1-.74-.516.955.955 0 0 1-.055-.327.96.96 0 0 1 .055-.327.747.747 0 0 1 .74-.516.757.757 0 0 1 .736.508c.038.103.058.214.058.335s-.02.232-.058.335zM14.609 24.863a.767.767 0 0 1-.273.052.476.476 0 0 1-.163-.027.347.347 0 0 1-.132-.086.41.41 0 0 1-.089-.152.676.676 0 0 1-.033-.225V23.28h.922v-.522h-.922v-.798h-.577v.797h-.525v.522h.525v1.156c0 .35.083.608.249.773.166.166.398.249.696.249.167 0 .316-.026.449-.077a1.98 1.98 0 0 0 .245-.115l-.196-.481a1.746 1.746 0 0 1-.176.079zM19.791 22.687c-.161 0-.307.029-.437.088s-.239.2-.327.326v-.345h-.521v2.631h.527V23.94a.89.89 0 0 1 .047-.299.637.637 0 0 1 .129-.222.538.538 0 0 1 .198-.137.67.67 0 0 1 .253-.047 1.083 1.083 0 0 1 .34.056l.17-.549a1.237 1.237 0 0 0-.379-.055zM27.772 22.687c-.161 0-.307.029-.437.088s-.239.2-.327.326v-.345h-.521v2.631h.527V23.94a.89.89 0 0 1 .047-.299.637.637 0 0 1 .129-.222.538.538 0 0 1 .198-.137.67.67 0 0 1 .253-.047 1.083 1.083 0 0 1 .34.056l.17-.549a1.244 1.244 0 0 0-.379-.055zM30.453 21.687v1.388a1.04 1.04 0 0 0-.341-.282 1.05 1.05 0 0 0-.486-.106 1.282 1.282 0 0 0-.934.39 1.342 1.342 0 0 0-.28.438 1.479 1.479 0 0 0-.102.556c0 .201.034.387.102.556a1.278 1.278 0 0 0 1.214.828c.189 0 .351-.035.486-.104.135-.07.249-.163.341-.28v.316h.574v-3.701h-.574zm-.022 2.72a.757.757 0 0 1-.736.508.747.747 0 0 1-.74-.516.955.955 0 0 1-.055-.327.96.96 0 0 1 .055-.327.747.747 0 0 1 .74-.516.757.757 0 0 1 .736.508c.038.103.058.214.058.335s-.02.232-.058.335zM21.165 23.463a.768.768 0 0 1 .261-.173.861.861 0 0 1 .327-.062c.129 0 .249.021.36.062.107.04.2.095.279.166l.276-.46a1.41 1.41 0 0 0-.35-.204 1.49 1.49 0 0 0-.564-.106c-.203 0-.391.035-.564.106a1.387 1.387 0 0 0-.448.291 1.353 1.353 0 0 0-.402.987 1.353 1.353 0 0 0 .402.987c.125.124.275.221.448.291.173.07.361.106.564.106.203 0 .391-.035.564-.106.13-.053.247-.121.35-.204l-.276-.46a.855.855 0 0 1-.279.166 1.031 1.031 0 0 1-.36.062.861.861 0 0 1-.327-.062.768.768 0 0 1-.434-.439.898.898 0 0 1-.063-.342c0-.124.021-.238.063-.342.042-.101.1-.19.173-.264z"/></g><path fill="#1D1D1D" d="M32.236 25.002a.28.28 0 0 1 .196.079.265.265 0 0 1 .081.189.27.27 0 0 1-.169.248.282.282 0 0 1-.305-.058.261.261 0 0 1-.059-.294.28.28 0 0 1 .256-.164zm0 .462a.186.186 0 0 0 .136-.057.203.203 0 0 0 .056-.138.194.194 0 0 0-.117-.179.2.2 0 0 0-.214.041.194.194 0 0 0-.041.214c.01.024.024.044.041.062a.206.206 0 0 0 .062.042.2.2 0 0 0 .077.015zm.016-.313c.033 0 .057.007.074.022a.073.073 0 0 1 .025.058.068.068 0 0 1-.018.048.091.091 0 0 1-.053.025l.074.085h-.08l-.066-.083H32.2v.083h-.067v-.238h.119zm-.052.058v.044h.05c.01 0 .018-.002.024-.005.006-.003.008-.009.008-.017a.02.02 0 0 0-.008-.017c-.006-.004-.014-.005-.024-.005h-.05z"/><path fill="#202020" d="M12.78 10.456a9.899 9.899 0 0 1 3.766-7.776A9.874 9.874 0 0 0 10.395.539C4.918.539.478 4.979.478 10.456s4.44 9.917 9.917 9.917c2.325 0 4.46-.802 6.151-2.141a9.899 9.899 0 0 1-3.766-7.776z"/><path fill="#818181" d="M12.78 10.456a9.899 9.899 0 0 0 3.766 7.776c2.293-1.816 3.766-4.623 3.766-7.776s-1.473-5.959-3.766-7.776a9.899 9.899 0 0 0-3.766 7.776z"/><path fill="#A7A7A7" d="M31.942 15.82v-.29h-.117v-.08h.322v.08h-.117v.29h-.088zm.621 0v-.257l-.083.221h-.092l-.083-.221v.256h-.087v-.37h.124l.092.237.091-.237h.124v.37h-.086zM22.697.539c-2.325 0-4.46.802-6.151 2.141 2.293 1.816 3.766 4.623 3.766 7.776s-1.473 5.959-3.766 7.776a9.874 9.874 0 0 0 6.151 2.141c5.477 0 9.917-4.44 9.917-9.917S28.174.539 22.697.539z"/></svg>