<svg xmlns="http://www.w3.org/2000/svg" width="44.875" height="8.25" viewBox="0 0 44.875 8.25"><g fill="#202020"><path d="M39.188 3.536c-.235.164-.577.245-1.045.245h-.463l.356-1.92H38.377c.388 0 .672.062.867.189.153.099.334.296.334.67-.001.45-.212.692-.39.816m-27.657 2.41H7.943l.232-1.255h2.251l.256-1.414h-2.23l.215-1.242h3.582l-.718 3.911zM41.121.957c-.528-.362-1.326-.544-2.372-.544h-2.741l-1.019 5.532h-3.591l.23-1.255h2.163l.257-1.41-2.162.004.232-1.25h2.228l.296-1.621h-4.525l-.967 5.249h-1.66l.974-5.248h-2.366l-.967 5.248h-1.618l.975-5.248h-2.363l-1.022 5.532h-3.616l.228-1.255h2.173l.256-1.402-2.17-.002.23-1.252h2.253l.295-1.621H6.654l-.803 4.384L4.252.414H1.798L.478 7.568h2.343l.799-4.505 1.552 4.505h8.399l1.021-5.533h1.314l-1.022 5.533h22.1l.64-3.493 1.038 3.493h2.345l-1.074-2.854.245-.053c.54-.116.963-.365 1.257-.738.294-.377.443-.861.443-1.442 0-.678-.247-1.176-.757-1.524M43.053 6.722l.319-.017a.463.463 0 0 0 .158-.029.175.175 0 0 0 .108-.174.17.17 0 0 0-.064-.129c-.04-.032-.102-.046-.186-.042l-.355.018.02.373zm-.118.635l-.057-1.125.499-.025c.1-.005.176.001.23.019a.245.245 0 0 1 .131.101c.034.05.053.105.055.167a.28.28 0 0 1-.067.206.393.393 0 0 1-.234.116c.04.017.071.034.092.051a.77.77 0 0 1 .131.144l.21.296-.185.009-.161-.227a2.176 2.176 0 0 0-.115-.15.36.36 0 0 0-.079-.071.236.236 0 0 0-.069-.027.423.423 0 0 0-.083-.001l-.173.009.025.5-.15.008z"/><path d="M42.448 6.813a.87.87 0 0 1 .828-.916.874.874 0 0 1 .916.827l.002.045a.875.875 0 0 1-.829.872.875.875 0 0 1-.917-.828m.818-1.095c-.28.015-.539.137-.727.346a1.053 1.053 0 0 0 .834 1.755 1.053 1.053 0 0 0 .996-1.104v-.001a1.051 1.051 0 0 0-1.103-.996"/></g></svg>