<svg xmlns="http://www.w3.org/2000/svg" width="38.75" height="11.188" viewBox="0 0 38.75 11.188"><g fill="#202020"><path d="M26.025.566h-2.949a.41.41 0 0 0-.405.346l-1.192 7.561a.246.246 0 0 0 .243.284h1.513a.287.287 0 0 0 .283-.242l.338-2.144a.41.41 0 0 1 .405-.346h.933c1.942 0 3.063-.94 3.356-2.803.132-.815.005-1.455-.376-1.903-.42-.492-1.163-.753-2.149-.753zm.34 2.762c-.161 1.058-.97 1.058-1.751 1.058h-.445l.312-1.976a.246.246 0 0 1 .243-.207h.204c.532 0 1.035 0 1.294.303.154.181.201.45.143.822zM4.994.566H2.045a.41.41 0 0 0-.405.346L.448 8.473a.246.246 0 0 0 .243.284h1.408a.41.41 0 0 0 .405-.346l.322-2.04a.408.408 0 0 1 .404-.346h.933c1.942 0 3.063-.94 3.356-2.803.132-.815.005-1.455-.376-1.903C6.723.827 5.98.566 4.994.566zm.34 2.762c-.161 1.058-.97 1.058-1.751 1.058h-.445L3.45 2.41a.246.246 0 0 1 .242-.208h.204c.532 0 1.035 0 1.294.303.156.182.203.451.144.823zM13.807 3.294h-1.412a.246.246 0 0 0-.243.208l-.062.394-.099-.143c-.306-.444-.987-.592-1.668-.592-1.56 0-2.892 1.182-3.152 2.84-.134.827.057 1.617.526 2.169.431.507 1.046.718 1.778.718 1.257 0 1.955-.808 1.955-.808l-.063.392a.246.246 0 0 0 .243.284h1.272a.41.41 0 0 0 .405-.346l.763-4.833a.246.246 0 0 0-.243-.283zm-1.968 2.748c-.136.807-.777 1.348-1.594 1.348-.41 0-.737-.132-.948-.381-.209-.247-.287-.599-.221-.992a1.58 1.58 0 0 1 1.582-1.359c.401 0 .727.133.941.385.217.254.302.609.24.999zM34.838 3.294h-1.412a.246.246 0 0 0-.243.208l-.062.395-.099-.143c-.306-.444-.987-.592-1.668-.592-1.56 0-2.892 1.182-3.152 2.84-.135.827.057 1.618.526 2.169.431.507 1.046.718 1.778.718 1.257 0 1.955-.808 1.955-.808l-.063.392a.246.246 0 0 0 .243.284h1.272a.41.41 0 0 0 .405-.346l.763-4.833a.246.246 0 0 0-.243-.284zM32.87 6.042c-.136.807-.777 1.348-1.594 1.348-.41 0-.737-.132-.948-.381-.209-.247-.287-.599-.221-.992a1.58 1.58 0 0 1 1.582-1.359c.401 0 .727.133.941.385.217.254.302.609.24.999zM21.327 3.294h-1.419a.408.408 0 0 0-.339.18l-1.958 2.883-.83-2.771a.41.41 0 0 0-.392-.292h-1.395a.246.246 0 0 0-.233.325l1.563 4.587-1.47 2.074a.246.246 0 0 0 .201.388h1.418c.134 0 .26-.066.337-.176l4.72-6.812a.247.247 0 0 0-.203-.386zM36.502.774l-1.21 7.699a.246.246 0 0 0 .243.284h1.217a.41.41 0 0 0 .405-.346L38.35.85a.246.246 0 0 0-.243-.284h-1.362a.246.246 0 0 0-.243.208z"/></g></svg>