<svg xmlns="http://www.w3.org/2000/svg" width="68.333" height="12.333" viewBox="0 0 68.333 12.333"><g fill="#202020"><path d="M9.276 5.282c.008-.512.122-.902.343-1.168.116-.112.261-.205.437-.282.183-.082.361-.121.533-.121h2.088c.922.008 1.39.511 1.405 1.512v3.081a1.272 1.272 0 0 1-.416.922 1.332 1.332 0 0 1-.955.417h-1.975v2.221h-1.46V5.282zm3.345.29c-.007-.232-.117-.353-.33-.361h-1.138c-.27.016-.408.165-.415.442V7.7c.007.287.16.433.46.442h1.043c.108 0 .198-.04.27-.123a.294.294 0 0 0 .111-.239V5.572zM18.617 5.536c.007-.225-.123-.332-.393-.325h-2.943v-1.5h3.314c.965.015 1.455.482 1.471 1.402v3.14c-.008.398-.13.725-.365.985-.247.27-.565.405-.955.405h-2.003c-.974-.008-1.468-.453-1.484-1.338V7.094c.008-.924.48-1.394 1.415-1.41h1.944v-.148zM16.72 7.845c0 .085.039.154.117.204a.382.382 0 0 0 .265.093h1.123c.254 0 .385-.098.393-.297v-.419c0-.229-.134-.344-.404-.344h-1.112c-.146 0-.247.024-.303.07-.052.055-.079.162-.079.32v.373zM24.17 10.364a.477.477 0 0 0 .298-.124.317.317 0 0 0 .118-.24v-.357h-1.871c-.244 0-.44-.031-.585-.093a1.338 1.338 0 0 1-.46-.31 1.49 1.49 0 0 1-.315-.497 1.547 1.547 0 0 1-.101-.601V3.71h1.461v3.956c0 .318.129.476.391.476h1.032c.123 0 .229-.04.318-.123a.309.309 0 0 0 .129-.249V3.71h1.449v6.538c-.008.484-.132.871-.372 1.165-.243.294-.575.444-.998.451h-3.411v-1.501h2.917zM27.181 8.142h2.604c.238-.009.362-.104.369-.287v-.134a.307.307 0 0 0-.034-.129c-.058-.113-.13-.17-.215-.17h-1.291a1.444 1.444 0 0 1-.985-.395 1.13 1.13 0 0 1-.428-.865V5.044c.015-.874.489-1.318 1.424-1.333h3.02v1.5h-2.558c-.301 0-.452.092-.452.276v.146c0 .19.155.286.463.286h1.287c.343.008.635.139.879.395.246.258.373.565.382.921V8.33c-.008.308-.15.615-.424.921-.134.15-.27.253-.406.312a1.666 1.666 0 0 1-.579.081h-3.055V8.142zM36.044 5.536c.006-.225-.125-.332-.394-.325h-2.942v-1.5h3.314c.965.015 1.454.481 1.47 1.402v3.14c-.008.398-.13.725-.365.985-.245.27-.564.405-.954.405h-2.004c-.974-.008-1.469-.453-1.483-1.338V7.094c.007-.924.478-1.394 1.415-1.41h1.944v-.148zm-1.899 2.309a.23.23 0 0 0 .119.204.379.379 0 0 0 .263.093h1.124c.255 0 .385-.098.393-.297v-.419c0-.229-.136-.344-.405-.344h-1.112c-.146 0-.246.024-.302.07-.052.055-.079.162-.079.32v.373zM38.678 2.859c.009-.405.158-.73.452-.974.284-.248.656-.375 1.118-.382h.928v1.451h-.562c-.309.006-.467.154-.473.44v.318h1.035v1.502h-1.035v4.431h-1.462V2.859zM43.522 7.63v.093c0 .121.031.216.095.285.046.089.108.134.19.134H46.809v1.501h-3.192c-.291 0-.518-.028-.678-.082a1.23 1.23 0 0 1-.47-.283 1.253 1.253 0 0 1-.325-.487 2.167 2.167 0 0 1-.09-.691l-.012-3.005c.016-.908.49-1.37 1.422-1.385h1.969c.91.015 1.372.494 1.386 1.436v1.187L43.522 7.63zm1.809-2.122v-.035a.23.23 0 0 0-.094-.191.43.43 0 0 0-.251-.071h-1.017a.45.45 0 0 0-.317.112.318.318 0 0 0-.153.273v.602l1.832-.69zM49.911 9.643a3 3 0 0 1-.607-.058 1.299 1.299 0 0 1-.579-.271 1.38 1.38 0 0 1-.415-.587 2.045 2.045 0 0 1-.119-.725v-2.8a1.837 1.837 0 0 1 .069-.602 1.26 1.26 0 0 1 .308-.51c.178-.175.359-.291.551-.348a2.58 2.58 0 0 1 .625-.07h2.239v.351h-2.188c-.386 0-.69.079-.911.238-.227.173-.343.472-.343.893v2.803c0 .197.03.389.09.574.062.182.164.341.311.481.159.121.318.196.472.227.161.035.334.052.517.052h2.087v.352h-2.107zM58.092 8.027c0 .225-.017.424-.046.597-.048.19-.145.373-.292.546a1.467 1.467 0 0 1-1.14.472h-1.746c-.453 0-.821-.135-1.106-.405-.291-.267-.438-.637-.438-1.113v-.901c.015-1.019.523-1.541 1.523-1.565h2.908v-.395c0-.326-.094-.611-.282-.856a.891.891 0 0 0-.42-.321 2.17 2.17 0 0 0-.546-.064h-3.172v-.35h3.008c.275 0 .524.02.749.058a1.042 1.042 0 0 1 .606.405c.27.348.402.749.395 1.201v2.691zm-.349-2.018h-2.936c-.352.008-.626.117-.825.326-.205.212-.307.504-.307.875v.894c0 .174.018.332.055.475.037.15.129.284.275.4.254.21.534.314.841.314h1.779c.743-.008 1.118-.399 1.118-1.177V6.009zM61.376 4.023c-.815.015-1.216.46-1.201 1.334v4.286h-.35V5.358c-.016-1.125.519-1.686 1.607-1.686h.389v.35h-.445zM67.639 7.984c-.031 1.131-.63 1.685-1.796 1.662h-1.297c-.274 0-.519-.024-.736-.069-.223-.058-.437-.194-.642-.406a1.35 1.35 0 0 1-.294-.58 2.198 2.198 0 0 1-.069-.655V5.385c.015-1.149.594-1.72 1.737-1.711h2.746V1.737h.35v6.247zm-.349-3.959h-2.767c-.199 0-.378.022-.539.065a.939.939 0 0 0-.484.306 1.043 1.043 0 0 0-.277.452 1.534 1.534 0 0 0-.066.546v2.733c0 .454.131.764.398.929.131.078.276.135.438.174a2.1 2.1 0 0 0 .54.064h1.209c.452 0 .822-.104 1.106-.314.286-.196.431-.536.441-1.02V4.025zM1.16 3.485c.115-.051.23-.09.344-.115a2.22 2.22 0 0 1 4.344.001c.329.062.6.195.812.393a3.15 3.15 0 0 0-.022-.555A2.98 2.98 0 0 0 3.672.493 2.98 2.98 0 0 0 .699 3.349c-.009.137-.012.28-.007.429.133-.113.287-.215.468-.293"/><path d="M5.414 3.71H1.846c-.172 0-.35.04-.533.122a1.497 1.497 0 0 0-.438.282C.654 4.38.54 4.77.532 5.281v2.79c.008.513.122.902.343 1.167.116.113.261.206.438.284.183.081.361.121.533.121h3.569c.921-.008 1.39-.513 1.405-1.513V5.224c-.015-1.002-.484-1.505-1.406-1.514"/></g></svg>