<svg xmlns="http://www.w3.org/2000/svg" width="48.813" height="17.313" viewBox="0 0 48.813 17.313"><g fill="#202020"><path d="M.381 14.752l1.215-6.841h3.133c.772 0 1.272.149 1.5.446.228.297.269.854.125 1.669-.139.782-.38 1.315-.723 1.599-.343.284-.917.426-1.722.426l-.302.005H1.632l-.479 2.696H.381zm1.367-3.348h1.829c.765 0 1.27-.078 1.513-.236.243-.157.415-.518.516-1.083.118-.662.119-1.08.005-1.256-.114-.174-.444-.262-.988-.262l-.295-.005H2.253l-.505 2.842zM7.042 9.961h.702l-.168.551.012.015c.357-.451.855-.677 1.493-.677.882 0 1.243.454 1.081 1.363l-.064.331h-.691l.036-.12c.033-.127.053-.212.06-.256.087-.491-.137-.737-.671-.737-.782 0-1.259.483-1.43 1.448l-.51 2.872h-.701l.851-4.79zM10.776 9.961h3.453l-.121.682-3.484 3.529h2.857l-.103.581H9.684l.118-.667 3.496-3.544h-2.626l.104-.581zM17.68 13.304h.717l-.026.175c-.088.498-.302.846-.639 1.045-.338.199-.886.298-1.644.298-.882 0-1.432-.161-1.651-.484-.218-.322-.236-1-.052-2.032.17-.956.422-1.597.758-1.925.335-.327.908-.491 1.716-.491.882 0 1.435.142 1.658.426.224.284.254.882.092 1.794l-.067.376h-3.448c-.134.755-.139 1.236-.013 1.443.125.207.485.311 1.08.311.565 0 .94-.049 1.126-.148.186-.099.308-.312.367-.639l.026-.149zm.242-1.363l.035-.226c.092-.518.067-.855-.076-1.01-.143-.155-.497-.233-1.061-.233-.568 0-.953.091-1.154.273-.201.182-.356.581-.465 1.195h2.721zM20.884 7.911l-1.215 6.841h-.702l1.215-6.841h.702zM24.212 13.304h.717l-.026.175c-.088.498-.302.846-.639 1.045-.338.199-.886.298-1.644.298-.882 0-1.432-.161-1.651-.484-.218-.322-.236-1-.052-2.032.17-.956.422-1.597.758-1.925.335-.327.908-.491 1.716-.491.882 0 1.435.142 1.658.426.224.284.254.882.092 1.794l-.067.376h-3.448c-.134.755-.139 1.236-.013 1.443.125.207.485.311 1.08.311.565 0 .94-.049 1.126-.148.186-.099.308-.312.367-.639l.026-.149zm.242-1.363l.035-.226c.092-.518.067-.855-.076-1.01-.143-.155-.497-.233-1.061-.233-.568 0-.953.091-1.154.273-.201.182-.356.581-.465 1.195h2.721zM32.486 9.961l-2.194 4.792h-1.043l-.169-2.661-.051-.812-.018-.406-.023-.406h-.015l-.167.406-.167.406-.34.812-1.119 2.661h-1.062l-.447-4.792h.737l.206 2.651.063.832.023.416.026.416h.02l.169-.416.174-.416.347-.827 1.128-2.656h1.022l.179 2.661.054.827.022.411.021.416h.015l.179-.416.174-.416.358-.832 1.143-2.651h.755zM36.02 9.961l-.921 2.135-.459 1.063-.221.536-.225.531h-.02l-.091-.531-.085-.536-.182-1.063-.358-2.135h-.747l.962 5.207-.11.236c-.296.632-.631.937-1.005.917a1.497 1.497 0 0 1-.239-.035l-.103.581c.133.023.243.035.33.035.431 0 .786-.134 1.066-.401s.578-.759.896-1.474l2.258-5.067h-.746z"/><g><path d="M41.259 14.144l-.114.646h-4.81l.225-1.277c.126-.716.346-1.184.659-1.407.313-.222.994-.393 2.043-.512.838-.093 1.357-.219 1.557-.378.199-.159.358-.572.475-1.238.103-.583.074-.962-.086-1.136-.16-.174-.562-.261-1.204-.261-.803 0-1.322.07-1.557.211-.235.141-.4.48-.495 1.016l-.08.507h-.739l.067-.353c.143-.812.407-1.353.793-1.623.385-.27 1.085-.405 2.1-.405.9 0 1.48.146 1.738.437.259.292.313.86.164 1.705-.143.812-.383 1.354-.72 1.628-.337.273-.997.458-1.979.554-.863.086-1.39.205-1.58.358-.19.152-.348.585-.473 1.297l-.04.229h4.056zM47.59 8.005l-.806 4.573h.998l-.114.646h-.998l-.276 1.566h-.754l.276-1.566h-3.739l.159-.9 4.089-4.319h1.165zm-1.56 4.573l.72-4.081h-.015l-3.822 4.081h3.117z"/></g><g><path d="M16.27 5.839c1.637-.943 3.2-1.63 4.681-2.112l-.3-1.69a33.205 33.205 0 0 0-6.02 2.561l1.639 1.241zM34.837 4.917l5.782-3.154c-2.396-.752-5.44-1.291-9.266-1.311h-.037l-1.323 2.647a16.25 16.25 0 0 1 4.844 1.818zM13.156 5.459c-2.541 1.58-3.871 2.922-3.871 2.922h3.217a35.122 35.122 0 0 1 2.313-1.649l-1.659-1.273zM29.448.491a34.874 34.874 0 0 0-7.523 1.172l.222 1.713c2.426-.631 4.61-.714 6.515-.49l.786-2.395zM43.699 2.992l-7.495 2.804a9.84 9.84 0 0 1 1.059.865h11.146s-1.261-1.953-4.71-3.669z"/></g></g></svg>