<svg xmlns="http://www.w3.org/2000/svg" width="33.25" height="16.936" viewBox="0 0 33.25 16.936"><g fill-rule="evenodd" clip-rule="evenodd" fill="#202020"><path d="M13.559 11.825c-.139-.644-.437-1.129-.855-1.496-.144-.152-.318-.26-.516-.374a1.739 1.739 0 0 0-.302-.142c-.217-.082-.501-.178-.855-.142.177-.09.441-.093.712-.089.225.024.412.087.605.142.162.088.322.177.481.267.39-1.167.241-2.763-.196-3.792-.422-1.079-1.035-1.968-1.833-2.67-.785-.717-1.727-1.276-2.973-1.531a4.904 4.904 0 0 0-1.959.018 4.393 4.393 0 0 0-1.513.73c-.4.354-.787.72-1.051 1.21-.095.095-.136.244-.214.356-.054.135-.116.264-.177.392-.092.282-.197.55-.25.872-.142.583-.168 1.384-.071 2.012.073.674.271 1.224.481 1.762.129.25.247.512.391.748.136.238.305.443.463.659.359.389.744.751 1.193 1.051.909.592 1.953 1.049 3.383 1.121.028-.058-.039-.174-.053-.249-.021-.086-.03-.184-.054-.267a2.661 2.661 0 0 1 0-.605c.057.015.055.087.089.125.03.035.042.089.089.107.036.1.113.159.16.249.134.139.239.307.41.409.136.138.317.229.481.338.176.091.328.207.534.267.354.186.828.252 1.3.32.475.064.934.145 1.371.249.402.138.812.268 1.14.48.173.1.344.202.498.321.076.061.171.102.231.178.094.037.135.126.231.16.276.264.549.531.784.837.097.176.228.317.302.517.065.071.084.189.142.267.004.101.102.223.018.303-.132.019-.105-.12-.16-.178-.043-.07-.096-.13-.125-.213-.208-.219-.395-.459-.623-.659-.226-.196-.447-.396-.712-.552a5.364 5.364 0 0 0-1.745-.801c-.661-.191-1.402-.268-2.261-.213a5.085 5.085 0 0 0-1.051.231c-.337.084-.713.13-1.086.178-1.457.09-3.08-.258-4.166-.783-.58-.268-1.113-.584-1.566-.979-.248-.179-.45-.404-.659-.623-.191-.231-.391-.452-.534-.73-.19-.237-.303-.552-.463-.819-.104-.317-.252-.591-.32-.943a4.728 4.728 0 0 1-.213-1.07C.485 8.673.437 8.467.438 8.3c0-.015.019-.028.018-.053-.008-.152-.044-.386 0-.516a5.35 5.35 0 0 1 .125-1.122c.064-.357.159-.684.267-.997.106-.321.246-.608.373-.908.086-.128.151-.276.231-.409.068-.14.17-.245.232-.392.069-.039.081-.133.142-.178.028-.079.102-.112.125-.196a.607.607 0 0 0 .143-.178c.054-.053.111-.103.142-.178.212-.209.402-.441.623-.641.22-.207.467-.387.695-.587.144-.069.249-.178.391-.249.108-.099.266-.149.374-.249.297-.13.55-.305.872-.41.278-.143.611-.231.926-.338C6.801.523 7.49.402 8.342.431c.031.004.046-.03.053 0 1.613.049 2.789.535 3.792 1.193.994.662 1.763 1.548 2.314 2.653.539 1.094.842 2.581.588 4.148a8.43 8.43 0 0 1-.588 1.905c-.146.27-.275.555-.445.801a2.361 2.361 0 0 1-.249.374.755.755 0 0 1-.124.178c-.021.033-.047.06-.071.089-.008.016-.016.032-.036.036.005.031-.016.036-.017.017z"/><path d="M13.131 12.288c-.209-.082-.244-.338-.339-.534-.017-.072-.032-.18 0-.249.014-.003.018-.018.036-.018.053-.034.103.009.178.036a1.1 1.1 0 0 1 .214.445c.004.139.014.287-.089.32zM11.565 11.985c.003-.02.018-.01.018 0 .316.04.46.251.481.587a.378.378 0 0 1-.303.338c-.425.007-.667-.384-.516-.783.084-.069.144-.163.32-.142zM19.964 9.753c.051.217.161.373.285.517.123.144.269.265.445.356.164.103.344.19.551.249.101.036.198.076.32.089.085.046.191.071.196.196-.005.15-.105.204-.231.231-.128-.027-.286-.023-.392-.071-.27-.032-.486-.118-.712-.196a3.258 3.258 0 0 1-1.104-.712c-.062-.104-.147-.185-.213-.285-.066-.1-.111-.222-.178-.32-.529-.07-.891-.308-1.211-.588a2.566 2.566 0 0 1-.623-1.264c-.113-.511-.078-1.146.053-1.638.291-.954.906-1.587 2.065-1.673.32.01.599.049.854.143.257.093.502.265.695.445.016.015.023.016.035.036.04.061.14.14.196.213.011.014.006.038.018.054.022.029.053.043.071.071.012.018.008.036.018.053l.053.089c.008.014.03.025.035.036.031.058.044.13.071.196.029.068.067.129.089.196.068.204.113.443.142.694.069.717-.073 1.357-.338 1.834a1.982 1.982 0 0 1-.499.623c-.184.185-.442.302-.691.426zm-.854-4.486c-.155.011-.248.084-.374.125-.083.077-.187.134-.249.231-.103.057-.131.189-.213.267a3.12 3.12 0 0 0-.178.588c-.042.22-.069.469-.071.712-.005.613.126 1.222.373 1.584.143.176.319.322.534.427.124.012.222.051.356.054.074-.027.201-.001.25-.054.109.008.136-.066.231-.071a.571.571 0 0 1 .178-.125c.064-.072.126-.146.196-.213.036-.053.055-.123.107-.16.31-.592.345-1.679.142-2.368a2.09 2.09 0 0 0-.302-.623 1.72 1.72 0 0 0-.463-.339c-.142-.029-.276-.068-.463-.053-.011.001-.021.002-.018.018h-.036zM22.866 4.768c.279.011.604-.023.854.018.056.088.034.188.036.285.02 1.306 0 2.706 0 4.041 0 .108.002.216 0 .321-.003.089.02.185-.036.267-.125.031-.302.018-.463.018-.168 0-.334.023-.445-.036-.03-1.579-.03-3.281 0-4.86a.096.096 0 0 1 .054-.054zM25.002 4.768h.837c.075.103.099.257.125.41.251.959.501 1.92.73 2.902.054.007.037-.058.054-.089.024-.023.011-.084.036-.107.01-.079.058-.12.053-.213.064-.12.082-.286.142-.409.074-.289.167-.557.25-.837.078-.29.185-.551.25-.855.118-.244.146-.578.285-.801h.356c.128.24.174.562.285.819.071.29.173.551.249.837.177.554.357 1.103.517 1.673.071-.107.071-.285.124-.41.031-.141.058-.286.107-.409.138-.563.267-1.133.428-1.673.061-.284.118-.57.213-.819.206-.03.525-.03.73 0 .018.209-.081.436-.142.623-.033.228-.118.404-.16.623-.127.402-.225.831-.356 1.229-.1.427-.235.821-.338 1.246-.068.198-.119.415-.178.623-.069.192-.093.43-.196.588h-.498c-.127-.223-.172-.528-.285-.765-.248-.786-.525-1.541-.765-2.332-.085.088-.082.262-.142.374-.038.134-.076.269-.125.391-.067.271-.172.505-.232.783-.099.245-.173.515-.249.784-.105.233-.142.534-.267.748-.132.039-.337.007-.498.018-.126-.142-.137-.397-.214-.588-.06-.2-.102-.42-.178-.605-.095-.433-.24-.817-.339-1.246-.129-.398-.239-.817-.356-1.229-.064-.197-.114-.408-.178-.605-.029-.215-.174-.407-.125-.641.01-.019.029-.029.05-.038zM32.035 4.768c.279.011.604-.023.854.018.061.187.036.386.036.587v3.738c0 .202.026.4-.036.588a4.95 4.95 0 0 1-.712.018c-.068-.003-.15.016-.196-.036-.061-.185-.035-.384-.035-.587V5.391c0-.225-.021-.44.035-.588a.137.137 0 0 1 .054-.035zM27.032 11.765c.11.056.226.107.303.196a.614.614 0 0 1 .053.445c-.158.329-.708.355-1.122.249v-1.62c.122-.062.315-.053.498-.053.12.016.238.035.339.071a.414.414 0 0 1 .178.481c-.063.096-.121.198-.249.231zm0-.249c.045-.34-.231-.398-.516-.356v.57c.264.021.439-.048.516-.214zm.089.836c.091-.365-.235-.541-.588-.463-.042.178-.006.433-.018.641.263.02.503.004.606-.178zM23.026 10.999c.039.193.008.455.018.677.011.033.075-.031.071-.071.031-.023.071-.037.071-.089a.465.465 0 0 0 .143-.178c.12-.093.179-.247.302-.338.066.006.158-.015.196.018-.061.153-.179.248-.267.374-.083.125-.195.221-.267.356.092.168.224.297.32.463.113.148.242.28.32.463-.064.037-.193.01-.285.018-.108-.129-.197-.278-.303-.409-.088-.15-.209-.266-.285-.427-.042.237-.006.552-.018.819-.053.036-.168.01-.249.018a15.887 15.887 0 0 1 0-1.691c.079-.003.157-.003.233-.003zM25.448 11.48c.026-.011-.002-.022 0 0-.309.391-.583.817-.891 1.21h-.213a16.445 16.445 0 0 1 0-1.691h.196v1.282c.016.048.043-.037.054-.053.025-.029.05-.056.071-.089.037-.064.088-.114.125-.178.084-.118.178-.225.249-.356.105-.096.159-.244.267-.339a.439.439 0 0 1 .125-.177c.005-.103.121-.093.231-.09-.011.558.024 1.163-.018 1.691h-.178c-.042-.368-.007-.812-.018-1.21zM28.118 11.017v1.175c.016.048.043-.037.054-.053.037-.005.036-.048.053-.071.049-.039.066-.112.124-.142.054-.125.147-.209.214-.321.154-.196.291-.408.445-.605h.214c.029.523.029 1.169 0 1.691h-.178c-.042-.392-.007-.86-.019-1.282-.015-.034-.01.019-.035.018-.008.016-.016.032-.036.036-.002.045-.032.062-.053.089-.039.061-.08.121-.125.178-.079.123-.176.227-.249.356-.086.116-.183.221-.25.356-.124.078-.108.295-.356.249a16.445 16.445 0 0 1 0-1.691c.066.005.159-.016.197.017z"/></g></svg>