<svg xmlns="http://www.w3.org/2000/svg" width="53.5" height="12.083" viewBox="0 0 53.5 12.083"><g fill="#202020"><path d="M9.324 4.187h3.777v.966h-2.413v.785h2.086v.907h-2.086v1.836H9.324zM17.562 5.153v-.967H13.78v4.495h3.778v-.965h-2.411v-.871h1.596v-.907h-1.596v-.785zM49.519 4.194l-.795 1.517-.792-1.517h-1.353l1.457 2.613V8.69h1.363V6.807l1.463-2.613zM22.654 4.177h1.35l.796 1.519.794-1.519h1.344l-1.465 2.612v1.886h-1.362V6.789zM42.401 4.549c-.252-.24-.631-.36-1.136-.36h-2.26v4.497h1.341V7.017h.763c.564 0 .983-.127 1.257-.382.275-.258.411-.611.411-1.065.001-.441-.124-.783-.376-1.021zm-1.146 1.419c-.079.069-.204.112-.372.129-.059.005-.123.01-.193.01h-.344V5.106h.398c.05 0 .096 0 .138.003.188.014.318.061.396.143a.495.495 0 0 1 .141.36.446.446 0 0 1-.164.356zM18.14 4.189h4.147l-.004.964h-1.392l.004 3.533h-1.363l-.006-3.533h-1.392zM7.459 4.184H6.134L4.655 8.68H6.02l.191-.741H7.38l.194.741h1.364L7.459 4.184zm-.548 2.781h-.437l.309-1.615.017.077v.001l.032.153.001.006.292 1.378h-.214zM45.309 4.189h-1.324l-1.478 4.498h1.363l.192-.742h1.169l.193.742h1.367l-1.482-4.498zm-.66 2.783h-.328l.313-1.616.015.079.326 1.537h-.326zM.452 7.136h1.311c.027.207.079.323.168.433.141.175.345.262.612.262.197 0 .349-.046.457-.134a.401.401 0 0 0 .159-.313.395.395 0 0 0-.151-.304c-.103-.086-.339-.172-.71-.249-.609-.133-1.042-.309-1.3-.529a1.05 1.05 0 0 1-.395-.837c0-.226.068-.436.202-.634.135-.202.335-.357.603-.471.268-.114.638-.171 1.104-.171.574 0 1.012.105 1.312.309.301.208.481.554.538 1.005h-1.32a.524.524 0 0 0-.207-.371C2.723 5.043 2.57 5 2.375 5c-.164 0-.285.033-.366.099a.304.304 0 0 0-.122.242c0 .07.034.132.101.187.065.057.221.11.466.159.605.128 1.039.257 1.301.385.263.13.454.289.572.481.12.194.179.407.179.645 0 .279-.079.535-.238.771a1.46 1.46 0 0 1-.667.535c-.286.122-.646.182-1.08.182-.764 0-1.291-.142-1.585-.427-.295-.284-.447-.682-.484-1.123M51.19 4.245h.813v.215h-.274v.65h-.265v-.65h-.274zM52.121 4.245h.35l.136.527.135-.527h.35v.865h-.219v-.659l-.168.659h-.198l-.168-.659v.659h-.218zM32.485.713l-5.483 5.483 5.483 5.483 5.483-5.483L32.485.713zm-1.067 8.822l-1.617-1.617 1.679-1.679-1.678-1.679 1.617-1.617 1.679 1.679 1.617 1.617-3.297 3.296zm4.935-2.729l-2.717 2.717-.616-.617 2.717-2.717-2.717-2.716.617-.617 3.334 3.334-.618.616z"/></g></svg>