<svg xmlns="http://www.w3.org/2000/svg" width="34.125" height="12.375" viewBox="0 0 34.125 12.375"><path fill="#202020" d="M26.793 1.702l2.76-.494v10.598h-2.76V1.702zm4.031 0v10.104h2.763V1.208l-2.763.494zM22.86 11.807h2.763V4.055H22.86v7.752zM4.608 5.151c-.349-.023-1.157-.075-1.157-.803 0-.878 1.164-.878 1.6-.878.767 0 1.761.227 2.471.439 0 0 .396.14.733.283l.031.009V1.796l-.043-.013c-.838-.293-1.812-.575-3.617-.575C1.513 1.208.41 3.022.41 4.576c0 .896.384 3.004 3.949 3.247.302.019 1.104.065 1.104.817 0 .621-.657.987-1.761.987a8.659 8.659 0 0 1-3.098-.602v2.476c1.068.28 2.271.42 3.682.42 3.044 0 4.408-1.716 4.408-3.417-.001-1.928-1.526-3.181-4.086-3.353zm16.696-1.21c-2.553.082-3.849 1.227-3.849 3.504v4.361h2.785V8.25c0-1.363.178-1.948 1.796-2.003V3.981c-.272-.058-.732-.04-.732-.04zm-7.493.105c-.061.154-.504 1.404-1.573 2.698V1.208l-2.85.563v10.035h2.85V8.705c.825 1.238 1.233 3.102 1.233 3.102h3.414c-.338-1.404-1.815-3.992-1.815-3.992a12.524 12.524 0 0 0 2.001-3.768h-3.26zm10.43-.735a1.361 1.361 0 1 0 .001-2.723 1.361 1.361 0 0 0-.001 2.723z"/></svg>