<svg xmlns="http://www.w3.org/2000/svg" width="43.938" height="8.474" viewBox="0 0 43.938 8.474"><g fill="#202020"><path d="M12.335.412h-4.36c-.687 0-1.355 0-1.953.303-.598.304-1.127.912-1.533 2.127a2.41 2.41 0 0 0-.141.681c-.006.197.028.364.102.508.092.176.24.343.426.483.185.14.408.254.647.327l.287.082c.152.044.33.096.442.13a.89.89 0 0 1 .204.086.423.423 0 0 1 .162.163.379.379 0 0 1 .039.157.506.506 0 0 1-.03.182c-.057.166-.141.272-.303.337-.16.065-.397.086-.757.088H1.082l-.71 1.949h4.802c.452 0 1.278 0 2.072-.337.794-.338 1.555-1.012 1.878-2.361.121-.507.084-.92-.115-1.245-.2-.324-.56-.559-1.084-.71l-.256-.074a52.922 52.922 0 0 1-.378-.108.513.513 0 0 1-.299-.214.43.43 0 0 1-.044-.342.497.497 0 0 1 .249-.299c.126-.07.292-.108.486-.108h2.791c.02-.028.038-.059.058-.088A6.143 6.143 0 0 1 12.335.412"/><path d="M12.337.404H7.978c-.687 0-1.355 0-1.953.303-.599.304-1.127.911-1.534 2.126a2.41 2.41 0 0 0-.14.682 1.02 1.02 0 0 0 .102.507c.091.177.239.343.425.483.186.14.408.254.647.327l.288.082.442.13a.98.98 0 0 1 .203.086.406.406 0 0 1 .162.164c.024.048.037.1.039.157a.506.506 0 0 1-.03.182.497.497 0 0 1-.301.337c-.162.064-.399.085-.758.088H1.084L.375 8.006h4.802c.452 0 1.278 0 2.072-.337s1.555-1.012 1.878-2.361c.122-.507.084-.92-.115-1.244-.2-.325-.56-.56-1.084-.71l-.256-.074-.378-.108a.504.504 0 0 1-.299-.215.424.424 0 0 1-.044-.341.495.495 0 0 1 .249-.299c.126-.07.292-.108.486-.108h2.791l.058-.088A6.14 6.14 0 0 1 12.337.404M36.069.416c.149.118.277.252.384.406.274.394.378.863.316 1.399h1.4l-2.11 5.8h2.108l2.111-5.8h2.709l.658-1.805h-7.576z"/><path d="M35.964 1.162c-.347-.499-1.053-.744-2.159-.745h-2.56L28.477 8.02h2.351l1.007-2.676c.048.11.642 2.676.642 2.676h2.472s-.45-1.885-.781-2.647c-.085-.196-.174-.416-.292-.599.698-.259 1.71-.817 2.129-1.946.26-.694.244-1.254-.041-1.666m-2.047 1.68c-.226.608-.631.984-1.402.984h-.003l-.399-.001.682-1.839h.388c.71 0 .975.208.734.856M16.618 1.124c-.38-.543-1.03-.82-1.935-.82-.591 0-1.166.136-1.704.39-.771.364-1.468.973-2.039 1.779a7.735 7.735 0 0 0-.936 1.81c-.467 1.281-.462 2.322.017 3.007.271.388.835.851 1.981.852h.004c2.089 0 3.648-1.369 4.636-4.069.261-.716.605-2.048-.024-2.949m-2.236 3.054c-.652 1.784-1.125 2.233-1.836 2.233h-.001c-.693-.001-.936-.439-.288-2.214.485-1.325 1.112-2.172 1.872-2.172.722 0 .887.418.253 2.153M24.965.412h-4.443c-1.242 0-2.167.629-2.603 1.805l-2.11 5.798h2.311l1.084-2.981 2.043.002.581-1.597-2.036-.001.328-.924a.49.49 0 0 1 .471-.297H23l.058-.088c.509-.721 1.23-1.305 1.907-1.717M29.221 1.124c-.38-.543-1.03-.82-1.936-.82-.591 0-1.165.136-1.704.39-.77.364-1.468.973-2.038 1.779a7.735 7.735 0 0 0-.936 1.81c-.469 1.281-.463 2.321.016 3.006.271.388.835.851 1.982.852h.004c2.088 0 3.648-1.369 4.635-4.069.262-.715.606-2.047-.023-2.948m-2.236 3.054c-.652 1.784-1.125 2.233-1.836 2.233h-.002c-.694-.001-.935-.439-.287-2.214.484-1.325 1.112-2.172 1.871-2.172h.001c.722 0 .888.418.253 2.153"/><path d="M36.071.408c.149.118.277.252.384.406.274.394.378.863.316 1.399h1.4l-2.11 5.8h2.108l2.111-5.8h2.709l.657-1.805h-7.575z"/><path d="M35.966 1.153c-.347-.499-1.052-.744-2.158-.745h-2.56L28.48 8.011h2.352l1.007-2.676c.049.11.642 2.676.642 2.676h2.473s-.45-1.885-.781-2.647c-.085-.196-.174-.415-.292-.599.698-.259 1.71-.816 2.129-1.945.257-.694.242-1.255-.044-1.667m-2.046 1.68c-.226.608-.631.984-1.402.984h-.003l-.399-.001.682-1.838h.388c.709 0 .974.207.734.855M16.621 1.116c-.38-.543-1.03-.82-1.935-.821-.592 0-1.166.136-1.704.39-.771.365-1.468.973-2.039 1.78a7.773 7.773 0 0 0-.936 1.81c-.468 1.281-.463 2.322.016 3.007.271.388.835.85 1.981.852h.004c2.089 0 3.648-1.369 4.636-4.069.261-.716.606-2.049-.023-2.949M14.385 4.17c-.652 1.784-1.125 2.232-1.836 2.232h-.001c-.693 0-.936-.439-.287-2.214.484-1.325 1.112-2.172 1.871-2.172.722 0 .887.419.253 2.154M24.967.404h-4.443c-1.242 0-2.167.629-2.604 1.805l-2.11 5.798h2.312l1.084-2.981 2.043.001.581-1.596-2.036-.001.328-.924a.488.488 0 0 1 .471-.297h2.41c.019-.028.037-.059.057-.088.509-.722 1.231-1.305 1.907-1.717M29.224 1.116c-.38-.543-1.03-.82-1.935-.821-.591 0-1.166.136-1.704.39-.771.365-1.468.973-2.039 1.78a7.735 7.735 0 0 0-.936 1.81c-.468 1.281-.463 2.322.016 3.007.271.388.834.85 1.982.852h.003c2.089 0 3.649-1.369 4.635-4.069.263-.716.607-2.049-.022-2.949M26.988 4.17c-.652 1.784-1.124 2.232-1.836 2.232h-.002c-.694 0-.936-.439-.288-2.214.484-1.325 1.112-2.172 1.871-2.172h.001c.723 0 .888.419.254 2.154"/></g></svg>