<svg xmlns="http://www.w3.org/2000/svg" width="37.375" height="12.125" viewBox="0 0 37.375 12.125"><path fill="#202020" d="M13.18 11.519L15.038.618h2.971L16.15 11.519zM26.926.886a7.67 7.67 0 0 0-2.663-.458c-2.936 0-5.004 1.478-5.022 3.597-.017 1.566 1.476 2.44 2.604 2.962 1.156.534 1.545.875 1.54 1.352-.007.731-.924 1.064-1.778 1.064-1.189 0-1.821-.165-2.797-.572l-.383-.173-.417 2.44c.694.304 1.977.568 3.31.582 3.123 0 5.151-1.462 5.174-3.724.011-1.24-.78-2.184-2.495-2.962-1.039-.504-1.675-.841-1.668-1.351 0-.453.538-.938 1.702-.938a5.481 5.481 0 0 1 2.224.418l.266.126.403-2.363M34.546.628H32.25c-.711 0-1.244.194-1.556.904l-4.413 9.99h3.12s.51-1.343.626-1.638l3.805.005c.089.382.362 1.633.362 1.633h2.757L34.546.628m-3.664 7.026c.246-.628 1.184-3.047 1.184-3.047-.018.029.244-.631.394-1.04l.201.94.688 3.148h-2.467zM10.688.626L7.779 8.059l-.31-1.511C6.927 4.807 5.24 2.92 3.354 1.976l2.66 9.534 3.144-.004L13.836.626h-3.148"/><path fill="#ABABAB" d="M5.08.619H.289L.251.846c3.728.902 6.194 3.083 7.218 5.703l-1.042-5.01c-.18-.69-.702-.896-1.347-.92"/></svg>