<svg xmlns="http://www.w3.org/2000/svg" width="47.813" height="13" viewBox="0 0 47.813 13"><g fill-rule="evenodd" clip-rule="evenodd" fill="#202020"><path d="M6.457.395a6.12 6.12 0 0 1 2.704.626c.129.061.257.128.385.202l-.568.509-.854-.883-1.44 1.285-.856-.934-2.684 2.42 1.721 1.896-.676.594 1.694 1.9-.672.593 2.422 2.696L9.07 9.975l1.243 1.418a6.554 6.554 0 0 1-.813.54 6.132 6.132 0 0 1-3.043.806c-3.4 0-6.172-2.773-6.172-6.172S3.058.395 6.457.395z"/><path d="M5.332 6.177L6.8 4.856l1.322 1.467-1.468 1.322-1.322-1.468zM6.376 8.713l1.468-1.321L9.165 8.86l-1.467 1.321-1.322-1.468zM4.282 3.671L5.75 2.349l1.321 1.468-1.468 1.321-1.321-1.467zM6.975 2.96l1.101-.992.991 1.101-1.1.991-.992-1.1zM8.931 7.499l1.101-.991.991 1.101-1.1.991-.992-1.101zM9.899 9.722L11 8.731l.991 1.101-1.1.991-.992-1.101zM10.343 4.626l.734-.66.661.734-.734.66-.661-.734zM9.405 2.446l.734-.661.661.734-.734.661-.661-.734zM11.281 6.807l.734-.661.661.734-.734.661-.661-.734zM7.99 5.173l1.101-.991.991 1.101-1.101.991-.991-1.101zM29.631 4.196l-.035.023-.034-.023c-.253-.23-.529-.322-.874-.322-.794 0-1.312.552-1.312 1.415v4.038h.794V5.289c0-.575.391-.621.518-.621a.56.56 0 0 1 .345.115c.115.115.173.276.173.506v4.038H30V5.289c0-.575.391-.621.518-.621a.56.56 0 0 1 .345.115c.115.115.173.276.173.506v4.038h.794V5.289c0-.449-.138-.817-.391-1.07a1.315 1.315 0 0 0-.92-.345c-.358 0-.646.104-.888.322zM35.419 5.738c-.265-.276-.702-.518-1.3-.518-.575 0-1.013.242-1.277.518-.414.449-.495 1.082-.495 1.576 0 .483.081 1.116.495 1.565.265.276.702.518 1.277.518.598 0 1.036-.242 1.3-.518.414-.449.495-1.082.495-1.565-.001-.494-.081-1.127-.495-1.576zm-.311 1.749c0 .38 0 .805-.288 1.116-.115.115-.334.265-.702.265a.937.937 0 0 1-.679-.265c-.288-.311-.288-.737-.288-1.116V7.13c0-.38 0-.805.288-1.104a.896.896 0 0 1 .679-.276c.368 0 .587.15.702.276.288.299.288.725.288 1.104v.357zM36.569 5.289l.668.012v.357c.196-.138.368-.242.564-.311.242-.104.414-.127.656-.127.345 0 .702.069.989.391.276.322.334.702.334 1.024v2.681h-.737V6.578c0-.656-.414-.828-.759-.828-.345 0-.702.15-.989.414v3.153h-.725V5.289zM43.381 8.534a3.168 3.168 0 0 1-.472.184 1.906 1.906 0 0 1-.622.104c-.379 0-.725-.126-.909-.334-.138-.138-.287-.414-.287-.897v-.104h2.485v-.184c0-.644-.023-1.174-.426-1.6-.265-.288-.667-.483-1.174-.483-.564 0-.978.242-1.231.529-.414.472-.46 1.093-.46 1.496 0 .449.069 1.116.483 1.576.265.311.736.575 1.404.575.299 0 .621-.035.943-.161a5.11 5.11 0 0 0 .495-.23l-.229-.471zm-2.29-1.668c0-.46.149-.725.265-.852a.782.782 0 0 1 .609-.265c.207 0 .414.046.564.196.265.253.265.564.265.84v.173h-1.703v-.092zM47.557 5.301l-1.576 4.74c-.058.207-.207.552-.38.748-.207.23-.483.334-.794.334-.219 0-.425-.046-.633-.161-.126-.081-.253-.161-.334-.253l.345-.437c.058.058.138.115.207.161a.755.755 0 0 0 .38.104.522.522 0 0 0 .426-.207c.08-.104.161-.345.219-.495l.092-.322-1.691-4.211h.794l1.012 2.52c.104.241.207.61.23.713h.034c.127-.483.184-.645.288-.944l.725-2.29h.656zM16.596 9.086l.023-.035.034.035c.265.219.529.322.886.322.794 0 1.312-.564 1.312-1.415V3.955h-.805v4.038c0 .575-.391.61-.506.61-.104 0-.242-.012-.345-.115-.115-.104-.173-.276-.173-.495V3.955h-.805v4.038c0 .575-.391.61-.518.61-.092 0-.23-.012-.334-.115-.115-.104-.173-.276-.173-.495V3.955h-.805v4.038c0 .437.138.805.391 1.058.23.23.564.357.92.357.357 0 .645-.115.898-.322zM22.544 8.534c-.127.057-.276.126-.46.184a1.9 1.9 0 0 1-.621.104c-.38 0-.725-.126-.909-.334-.126-.138-.276-.414-.276-.897v-.104h2.462v-.184c0-.644-.023-1.174-.414-1.6-.265-.276-.667-.472-1.185-.472-.541 0-.955.242-1.208.518-.426.483-.46 1.104-.46 1.496 0 .449.058 1.116.472 1.576.276.299.736.575 1.404.575.299 0 .61-.046.943-.173.173-.058.357-.161.483-.23l-.231-.459zm-2.267-1.668c0-.46.138-.713.265-.852a.773.773 0 0 1 .598-.264c.207 0 .414.058.564.207.265.242.265.552.265.84v.161h-1.691v-.092zM26.157 5.635a1.691 1.691 0 0 0-1.104-.403c-.184 0-.38.035-.518.058-.115.034-.265.092-.391.138V3.851h-.725v5.12c.426.253.932.426 1.507.426.425 0 1.001-.092 1.415-.633.334-.449.403-1.012.403-1.473 0-.437-.035-1.185-.587-1.656zm-1.243.115c.288 0 .587.092.771.288.253.276.253.69.253 1.047v.345c0 .679-.115.955-.219 1.105-.115.15-.356.334-.771.334-.15 0-.334-.046-.472-.08a2.367 2.367 0 0 1-.334-.161V5.991"/></g></svg>