<svg xmlns="http://www.w3.org/2000/svg" width="37.75" height="15.5" viewBox="0 0 37.75 15.5"><path fill="#202020" d="M16.717 6.1c-.837 0-1.71.611-1.71.611v-.393c0-.086-.034-.12-.121-.12h-1.069c-.086 0-.138.052-.138.12v8.377c0 .086.034.138.121.138h1.086c.069 0 .121-.052.121-.138V7.524s.504-.319 1.116-.319c.583 0 1.043.289 1.043.883v6.607c0 .086.052.138.138.138h1.068c.086 0 .121-.069.121-.138V7.712c0-1.051-.647-1.612-1.776-1.612zM21.224 10.572c0-1.758.515-3.499 1.565-3.499.356 0 .698.117 1.034.384v6.194c-.263.143-.594.275-.952.275-1.142 0-1.647-1.355-1.647-3.354zm3.806-8.674h-1.069c-.086 0-.138.052-.138.121v4.226c-.41-.157-.784-.241-1.086-.241-1.736 0-2.927 1.659-2.927 4.85 0 2.733 1.159 4.199 2.672 4.199.638 0 1.164-.365 1.549-.708l.233.396c.039.068.072.092.151.092l.615.001c.069 0 .121-.052.121-.138V2.019c0-.087-.035-.121-.121-.121zM29.039 9.736c-.394 0-1.11.097-1.11.097s.009-.285.044-.559c.154-1.455.501-2.191 1.1-2.191.521 0 .878.753.964 2.071.017.274.017.582.017.582h-1.015zm.085-3.715c-1.78 0-2.658 2.328-2.658 4.862 0 2.652 1.253 4.139 2.864 4.139.708 0 1.413-.279 1.875-.535.071-.039.084-.095.067-.163l-.135-.56c-.017-.069-.051-.103-.137-.103-.038 0-.621.171-1.19.171-1.318 0-1.923-1.172-1.923-2.728v-.378s.655.091 1.049.091h2.487v-.719c0-2.656-.929-4.077-2.299-4.077zM10.698 13.476c-.306.296-.673.451-1.003.451s-.585-.152-.79-.435c-.249-.343-.365-.872-.365-1.458 0-.927.342-1.878 1.067-1.878.359 0 .753.117 1.09.385l.001 2.935zm.951-6.366c-.395-.779-1.099-1.12-1.905-1.12-.518 0-1.327.198-1.867.441-.105.047-.172.09-.172.173 0 .049.025.106.052.155l.363.778c.038.088.098.108.147.108.054 0 .097-.026.146-.057.527-.335.913-.521 1.218-.521.404 0 .678.268.848.671.158.376.219.895.219 1.494v.176c-.332-.208-.907-.322-1.194-.322-1.544 0-2.377 1.467-2.377 3.036 0 1.69.973 2.93 2.143 2.93.651 0 1.241-.382 1.636-.864 0 0 .21.501.238.561.028.06.057.082.136.082h.625c.069 0 .121-.052.121-.138V9.835c-.001-1.194-.062-2.104-.377-2.725zM37.067 6.196h-.953a.184.184 0 0 0-.188.128c-.06.158-.463 1.219-.628 1.658-.118.314-.435 1.213-.435 1.213h-.037a54.333 54.333 0 0 0-.359-.98c-.102-.264-.633-1.662-.7-1.834-.036-.093-.076-.185-.212-.185h-1.043c-.115 0-.18.126-.142.204.037.078 1.699 3.863 1.699 3.863s-1.785 4.238-1.837 4.333c-.052.095.013.236.14.236h.914c.155 0 .217-.082.264-.213.131-.368.327-.88.604-1.671.184-.524.474-1.444.474-1.444h.032s.318.938.436 1.244c.299.775.681 1.788.721 1.895.042.112.101.189.208.189h1.036c.102 0 .15-.117.102-.219-.115-.243-1.1-2.635-1.783-4.207 0 0 1.774-3.914 1.808-4.011.036-.096.025-.199-.121-.199z"/><path fill="#606060" d="M8.206.637H7.005c-.106 0-.173.052-.188.128-.016.076-1.802 5.524-1.932 5.977-.092.322-.392 1.456-.464 1.729l-.622-1.697c-.151-.467-1.598-4.509-1.64-4.671-.023-.089-.064-.199-.22-.199H.766c-.115 0-.18.126-.143.204.03.062 2.149 5.699 3.005 7.852v4.735c0 .086.034.138.121.138H4.86c.069 0 .121-.052.121-.138V9.997C5.694 8.005 8.3.916 8.328.836c.035-.097.025-.199-.122-.199z"/></svg>