<svg xmlns="http://www.w3.org/2000/svg" viewBox="0 0 123.1 61.65"><defs><style>.cls-1{fill:#c3ff00}.cls-2{fill:#fff}.cls-3{fill:#2d2f49}</style></defs><title>Asset 1</title><g id="Layer_2" data-name="Layer 2"><g id="Capa_1" data-name="Capa 1"><path class="cls-1" d="M64.56 20.23l.05.3L63.17 28l-.16.28-1.67 1.42-.11.09h-6l.53-.89 1.82-9.46-.19-.89h6l.08.09zM60.34 27l.21-.19 1-5.2-.15-.17H60L58.92 27zm11.29-7.55l.25 9.46.42.89h-4l.34-.89v-.61l-.24-.12h-.63l-.41.12v.09l-.19.52v.89h-4l.75-.89 3.9-9.46v-.89h4.2zm-2.54 3l-1.35 4.07.37-.12h.61l.24.12zm9.03-3.89l-.53.91-1.82 9.43.18.91h-3.54l.53-.91 1.82-9.43-.18-.91h3.54zm4.34 0l-.53.89-1.53 7.94h4.07l.73-.39-.35 1.84-.23.41-.38.33-.46.19h-6.89l.54-.92 1.82-9.43-.19-.89z"/><path class="cls-1" d="M93.76 18.57l-.94.89-3.28 5.12-.83 4.29.18.92h-3.71l.52-.92.83-4.29-1.29-5.12-.59-.89h3.73l-.1.91.22 2.52h.08l1.16-2.51.24-.91z"/><path class="cls-2" d="M62.2 34.51l-2.63 1.74-.57-.72h-2.09l-1.07 5.56h2.09l.95-.76 1.84 1.81-2.12 1.7-.13.09h-4.2l-.09-.09-1.28-1.5-.1-.12v-.17l1.44-7.46v-.17l.15-.12 1.86-1.5.13-.09h4.21l.09.09z"/><path class="cls-2" d="M68.48 43l.18.92H65.1l.54-.92.64-3.39H64.7L64 43l.18.92h-3.53l.54-.92.65-3.39-.94.39.68-3.54.8.36.62-3.22-.18-.91h3.57l-.53.9-.61 3.19h1.59l.61-3.19-.19-.9h3.56l-.53.91zm8.85-9.42l.25 9.42.42.89h-4l.34-.89v-.61l-.24-.12h-.63l-.41.12v.09l-.19.52v.89h-4l.75-.89 3.9-9.46v-.89h4.2zm-2.54 3l-1.35 4.07.37-.12h.61l.24.12zm8.44 6.17l-1.13-4.31-.88 4.56.18.92H78l.54-.92 1.82-9.43-.19-.89h3.54l1.09 3.82h.2l2.33-3.81h3.56l-.53.89L88.57 43l.18.92h-3.42l.52-.92.88-4.57-2.53 4.32zm16.27-8.04l-.67 3.5-2.12 2.34h-3.2L93 43l-.24.36-.48.41-.51.16h-2.1l.54-.92L92 33.58l-.19-.89h6.38zm-3.12 1.51l-.07-.36-.4-.17h-1.47l-.38 2h1.45l.47-.19.22-.34zm7.88-3.53l-.53.91-1.82 9.4.18.91h-3.54l.53-.91 1.82-9.43-.18-.91h3.54zm.63 1.61l1.12-.69 1-.92h4.39l.72.87.84.73-1.55 8-1.12.69-.88.92h-4.71l-.55-.81-.81-.8zm2 6.82h1.52l.58-.64.82-4.34-.32-.59h-1.55l-.55.61-.84 4.35zm5.23 2.81l.54-.92 1.82-9.43-.19-.89h3l1.52 4.4h.08l.68-3.51-.19-.89h3.68l-.51.89-1.78 9.42-.18.36-.42.37-.47.19h-2.09l-1.49-4.67h-.06l-.72 3.75.18.92z"/><path class="cls-1" d="M38.22 15.35H7.94C5.33 18.3 2.56 24 2.56 31.24c0 6.14 5.8 14.06 12.09 20.08l.86.79 3.83-1.92a13.33 13.33 0 0 0 3.72 1.18 13.33 13.33 0 0 0 3.72-1.18l3.83 1.92.86-.79c6.29-6 12.09-13.94 12.09-20.08.01-7.24-2.75-12.94-5.34-15.89z"/><path class="cls-2" d="M23 61.65a44.86 44.86 0 0 1-8-1.17l-2.47-.61 2-5.18-1.63-1.5A58.76 58.76 0 0 1 4.09 42.7C1.38 38.45 0 34.6 0 31.24A27.74 27.74 0 0 1 5.69 14v-.2a2.74 2.74 0 0 1 2-2.78c.63-.23 1.57-.5 2.62-.78l.34-.56a1.12 1.12 0 0 0 .14-.32l.26-2.52h1a96.07 96.07 0 0 0 8-6.1L21 0l2.11 2 2.11-2 .91.75a96.1 96.1 0 0 0 8 6.1h1l.26 2.52c.13.54.5.84 2.11 1.32 1 .3 3.12.93 3 3.12v.2a27.74 27.74 0 0 1 5.69 17.23c0 3.36-1.38 7.22-4.09 11.46a58.69 58.69 0 0 1-8.79 10.47l-1.65 1.52 2 5.18-2.47.61a45.09 45.09 0 0 1-8 1.17H23zM30.18 49C35.26 44 41 36.55 41 31.24a24.39 24.39 0 0 0-1.54-8.64 84.38 84.38 0 0 1-5.1 17.71 75.3 75.3 0 0 1-4.2 8.69zM6.66 22.6a24.38 24.38 0 0 0-1.54 8.64C5.13 36.54 10.86 44 16 49a75.32 75.32 0 0 1-4.22-8.7 84.36 84.36 0 0 1-5.12-17.7z"/><path class="cls-3" d="M39.14 14.54l-.07-.08v-.72c.06-1.13-1.06-1.47-2.05-1.76-1.53-.48-2.71-.98-3.02-2.39l-.14-1.39c-.83 0-8.63-6.41-8.63-6.41l-2.16 2.06-2.18-2.07s-7.8 6.41-8.63 6.41l-.14 1.39a2.46 2.46 0 0 1-.32.8 51.1 51.1 0 0 1 5.41-.38c-.13 0-6.71 1.4-9 2.24-.67.27-1.22.67-1.18 1.47v.72l-.03.11c-2.73 3.12-5.66 9.15-5.66 16.7 0 3.1 1.3 6.71 3.88 10.74A57.34 57.34 0 0 0 13.8 52.2l1.5 1.38 4-2v.11c-.26 1.73 7.08 2.21 7.23 2.2a37.28 37.28 0 0 1-4.53 0c-1.09 0-2.1-.11-2.93-.19.12 2.14 7.8 2.33 8 2.31a47.06 47.06 0 0 1-5.88 0c-2.45-.08-4.65-.34-5.55-.46l-1.34 3.39 1 .25a43.6 43.6 0 0 0 7.7 1.13h.07a43.61 43.61 0 0 0 7.74-1.13l1-.25-1.33-3.39h-.58c-1.39 0-2.34-1.94-2.49-2.25L27 51.64l3.87 1.94 1.48-1.36A57.35 57.35 0 0 0 40.92 42c2.57-4 3.88-7.64 3.88-10.74 0-7.57-2.93-13.6-5.66-16.72zM15.49 50.42C9.83 45 3.79 37.12 3.79 31.24a24.8 24.8 0 0 1 3.59-13.11A81.89 81.89 0 0 0 13 39.8a69.27 69.27 0 0 0 4.86 9.76l-2.15 1.08zm15.15 0l-.23.21-2.15-1.08a69.25 69.25 0 0 0 4.86-9.76 81.89 81.89 0 0 0 5.62-21.67 24.8 24.8 0 0 1 3.59 13.11c.02 5.89-6.03 13.77-11.69 19.19z"/><path class="cls-2" d="M34.81 20.51c0-9.07-6.35-8.83-7.47-8.83s-4 2.37-4.27 2.56c-.24-.19-3.21-2.56-4.27-2.56s-7.47-.23-7.47 8.83c4.16 0 6 12.7 6 12.7a5.28 5.28 0 0 0-.33 1.63 5.85 5.85 0 0 0 6 5.63h.07a5.85 5.85 0 0 0 6-5.63 5.28 5.28 0 0 0-.26-1.63s1.83-12.7 6-12.7z"/><path class="cls-3" d="M23.09 41.38h-.95v-.06a6.7 6.7 0 0 1-6-6.47 6.17 6.17 0 0 1 .24-1.7c-.73-4.94-2.75-11.74-5.05-11.74h-.9v-.9c0-4 1.16-6.8 3.45-8.39a8.09 8.09 0 0 1 4.72-1.34h.2c1.06 0 3 1.3 4.27 2.32 1.32-1 3.21-2.32 4.27-2.32h.2a8.09 8.09 0 0 1 4.72 1.34c2.29 1.59 3.45 4.41 3.45 8.39v.9h-.9c-2.3 0-4.32 6.8-5.05 11.74a6.17 6.17 0 0 1 .24 1.7 6.7 6.7 0 0 1-6 6.47v.06zM12.24 19.75c1.78.56 3.26 2.82 4.49 6.85a48 48 0 0 1 1.45 6.49v.21l-.06.2a4.38 4.38 0 0 0-.21 1.35A5 5 0 0 0 23 39.58h.05a5 5 0 0 0 5.1-4.74 4.38 4.38 0 0 0-.15-1.35l-.06-.2v-.21a48 48 0 0 1 1.46-6.48c1.23-4 2.71-6.29 4.49-6.85-.21-4.7-2.39-7.18-6.35-7.18h-.2a13.56 13.56 0 0 0-3.71 2.36l-.56.45-.56-.45a13.47 13.47 0 0 0-3.72-2.36h-.19c-3.96.01-6.15 2.48-6.36 7.18z"/><path class="cls-3" d="M28.9 22.93l-1.24-4.25 4.23-1.37-.56-1.74-5.1 1.65-.82.24 1.73 5.9a30.85 30.85 0 0 1-4 .89 30.86 30.86 0 0 1-4-.89l1.73-5.9-.82-.24-5.1-1.65-.56 1.74 4.23 1.37L17.23 23a7.13 7.13 0 0 0-1.86 2.24c-.78 1.64.09 4 .19 4.28l1.71-.65A4.68 4.68 0 0 1 17 26a4.67 4.67 0 0 1 1-1.27c1.15.95 3.2 1.61 4.14 2.67V31a5.87 5.87 0 0 1-2.31.68 5 5 0 0 1-2.57-1.34L16 31.72c.2.19 2 1.82 3.81 1.82a7.63 7.63 0 0 0 3.22-.92 7.63 7.63 0 0 0 3.22.92c1.78 0 3.61-1.63 3.81-1.82l-1.24-1.35a5.13 5.13 0 0 1-2.57 1.34A5.87 5.87 0 0 1 24 31v-3.62c.95-1.07 3-1.73 4.15-2.68a4.68 4.68 0 0 1 1 1.28 4.58 4.58 0 0 1-.25 2.84l1.71.65c.1-.27 1-2.64.19-4.28a7.18 7.18 0 0 0-1.9-2.26zm-5.83 11.06l-3.32 1.29h6.63l-3.31-1.29z"/><path class="cls-1" d="M22.84 5.83l-2.23-1.62a54 54 0 0 1-6.72 4.61l9-1.72z"/></g></g></svg>