<svg xmlns="http://www.w3.org/2000/svg" viewBox="0 0 19.59 19.59"><path d="M1.44 3.31A1.86 1.86 0 0 1 3.3 1.44h13a1.86 1.86 0 0 1 1.86 1.86v13a1.86 1.86 0 0 1-1.86 1.86h-13a1.86 1.86 0 0 1-1.86-1.86v-1.7a.72.72 0 0 0-1.44 0v1.68a3.31 3.31 0 0 0 3.3 3.31h13a3.3 3.3 0 0 0 3.3-3.31v-13A3.31 3.31 0 0 0 16.29 0H3.3A3.31 3.31 0 0 0 0 3.31M16.29 0"/><path d="M7.29 13.89a.55.55 0 0 1-.54.54H6a.55.55 0 0 1-.54-.54v-4H1.54a.52.52 0 0 1-.38-.16.52.52 0 0 1-.16-.37v-.62a.52.52 0 0 1 .16-.38.53.53 0 0 1 .38-.16h3.93V4.27A.55.55 0 0 1 6 3.73h.74a.55.55 0 0 1 .54.54V8.2h3.95a.55.55 0 0 1 .54.54v.62a.55.55 0 0 1-.54.54H7.29z"/></svg>