<svg xmlns="http://www.w3.org/2000/svg" width="18.4" height="19" viewBox="0 0 18.4 19"><style>.st0{fill:#2f6196}</style><path class="st0" d="M4.7 14.4c-.1-.1-.3-.1-.5 0L.3 18.2c-.1.1-.1.3 0 .5.1.1.1.1.2.1s.2 0 .2-.1l3.9-3.8c.2-.1.2-.3.1-.5zM.6 16l2.7-2.6c.1-.1.1-.3 0-.5-.1-.1-.3-.1-.5 0L.1 15.5c-.1.2-.1.4 0 .5.1.1.1.1.2.1s.2 0 .3-.1zM6 16l-2.5 2.5c-.1.1-.1.3 0 .5h.2c.1 0 .2 0 .2-.1l2.5-2.5c.1-.1.1-.3 0-.5-.1 0-.3 0-.4.1zm4.7-16C6.4 0 2.9 3.5 2.9 7.7s3.5 7.7 7.7 7.7c4.3 0 7.7-3.5 7.7-7.7S14.9 0 10.7 0zm0 .7c1.6 0 3 .5 4.2 1.4l-2.2 2H8.6l-2.2-2C7.6 1.2 9.1.7 10.7.7zm-7.1 7c0-2.1.9-3.9 2.3-5.2l2.2 2-1.2 3.8-3.2 1c-.1-.6-.1-1.1-.1-1.6zm6.7 7.1c-3-.1-5.6-2.2-6.4-5l3.2-1 3.2 2.3v3.7zM7.6 8.4l1.2-3.7h3.8l1.2 3.7-3.1 2.3-3.1-2.3zm3.4 6.4v-3.6l3.2-2.3 3.2 1c-.8 2.7-3.4 4.8-6.4 4.9zm3.4-6.5l-1.2-3.8 2.2-2c1.4 1.3 2.3 3.2 2.3 5.3 0 .5-.1 1-.2 1.5l-3.1-1z"/></svg>