<svg xmlns="http://www.w3.org/2000/svg" width="64" height="64" viewBox="13.5 15.8 64 64"><defs><style>.cls-1{fill:#fff}.cls-2{fill:none}.cls-3{isolation:isolate}.cls-4{clip-path:url(#clip-path)}.cls-5{mix-blend-mode:multiply}.cls-6{fill:#556080}.cls-7{clip-path:url(#clip-path-2)}.cls-8{fill:#626377}.cls-9{fill:#2d2f49}</style><clipPath id="clip-path"><circle class="cls-1" cx="45.42" cy="47.83" r="31.67"/></clipPath><clipPath id="clip-path-2"><path class="cls-2" d="M.46 10.06h89.99v92H.46z"/></clipPath></defs><title>Asset 1</title><g class="cls-3"><g id="Layer_2" data-name="Layer 2"><g id="Capa_64_copia" data-name="Capa 64 copia"><circle class="cls-1" cx="45.42" cy="47.83" r="31.67"/><g class="cls-4"><g class="cls-5"><rect class="cls-6" width="90" height="90" rx="6" ry="6"/><g class="cls-7"><path class="cls-8" d="M31.65 80.86L18.4 88.09a12.15 12.15 0 0 0-2.13 1.51 44.38 44.38 0 0 0 57 .15A11.76 11.76 0 0 0 71 88.18l-14.23-7.09a5.42 5.42 0 0 1-3-4.85v-5.56A19.6 19.6 0 0 0 55.12 69a32.53 32.53 0 0 0 4.41-8.89 4.46 4.46 0 0 0 3.17-4.24v-5.98a4.42 4.42 0 0 0-1.49-3.3V38S63 24.64 44.87 24.64 28.53 38 28.53 38v8.59a4.43 4.43 0 0 0-1.53 3.3v5.94a4.48 4.48 0 0 0 2.05 3.74 29.51 29.51 0 0 0 5.38 11.11v5.43a5.42 5.42 0 0 1-2.82 4.74zm0 0"/><path class="cls-9" d="M45.63 11.24a44.38 44.38 0 0 0-29.34 78.34 12.66 12.66 0 0 1 2.1-1.5l13.26-7.22a5.41 5.41 0 0 0 2.81-4.75v-5.43a29.51 29.51 0 0 1-5.36-11.12 4.43 4.43 0 0 1-2.1-3.73v-5.95a4.45 4.45 0 0 1 1.48-3.29V38s-1.71-13.37 16.39-13.37S61.21 38 61.21 38v8.59a4.44 4.44 0 0 1 1.48 3.29v5.95a4.46 4.46 0 0 1-3.16 4.24A32.77 32.77 0 0 1 55.12 69c-.49.69-.94 1.27-1.34 1.73v5.56a5.41 5.41 0 0 0 3 4.85L71 88.18a11.58 11.58 0 0 1 2.33 1.56 44.39 44.39 0 0 0-27.66-78.5zm0 0"/></g></g></g></g></g></g></svg>