<svg xmlns="http://www.w3.org/2000/svg" viewBox="0 0 13.39 13.38"><defs><style>.cls-1{fill:#fff}</style></defs><title>Asset 1</title><g id="Layer_2" data-name="Layer 2"><g id="Capa_64_copia" data-name="Capa 64 copia"><path class="cls-1" d="M.72 9.08h.09A.24.24 0 0 0 1 8.76a6.1 6.1 0 0 1 10-6.43h-.74a.24.24 0 0 0 0 .49h1.33a.24.24 0 0 0 .17-.07.24.24 0 0 0 .07-.17V1.25a.24.24 0 0 0-.26-.25.25.25 0 0 0-.24.25V2A6.59 6.59 0 0 0 .49 8.92a.25.25 0 0 0 .23.16zm0 0"/><path class="cls-1" d="M.72 9.19A.36.36 0 0 1 .39 9a6.7 6.7 0 0 1 1.52-7 6.7 6.7 0 0 1 9.32-.25v-.47a.35.35 0 0 1 .35-.35.35.35 0 0 1 .35.35v1.33a.35.35 0 0 1-.1.25.36.36 0 0 1-.25.1L10.27 3a.35.35 0 0 1-.35-.35.35.35 0 0 1 .35-.36h.48a6 6 0 0 0-9.69 6.43.35.35 0 0 1-.21.45zm6-9a6.49 6.49 0 0 0-6.13 8.7.15.15 0 0 0 .19.11.14.14 0 0 0 .07-.1.13.13 0 0 0 0-.1A6.21 6.21 0 0 1 11 2.25l.22.22h-1a.14.14 0 0 0-.14.14.14.14 0 0 0 .14.14h1.33a.14.14 0 0 0 .1 0 .14.14 0 0 0 0-.1V1.32a.14.14 0 0 0-.14-.14.14.14 0 0 0-.14.14v1l-.22-.22A6.45 6.45 0 0 0 6.7.21zM11.06 11a6.11 6.11 0 0 1-8.63.1h.74a.24.24 0 0 0 0-.49H1.84a.25.25 0 0 0-.24.25v1.33a.25.25 0 0 0 .24.24.25.25 0 0 0 .24-.25v-.74A6.59 6.59 0 0 0 12.9 4.46a.24.24 0 0 0-.46.16A6.07 6.07 0 0 1 11.06 11zm0 0"/><path class="cls-1" d="M6.7 13.38a6.66 6.66 0 0 1-4.53-1.77v.49a.35.35 0 0 1-.35.35.35.35 0 0 1-.36-.35v-1.33a.35.35 0 0 1 .35-.36h1.33a.35.35 0 0 1 .35.35.35.35 0 0 1-.35.35h-.49a6 6 0 0 0 9.69-6.46.35.35 0 0 1 .21-.45.35.35 0 0 1 .45.21 6.7 6.7 0 0 1-1.51 6.95 6.64 6.64 0 0 1-4.79 2.02zm-4.75-2.27l.22.22A6.49 6.49 0 0 0 12.8 4.5a.14.14 0 0 0-.18-.08.14.14 0 0 0-.08.18 6.21 6.21 0 0 1-10.18 6.53l-.21-.22h1a.14.14 0 0 0 .14-.14.14.14 0 0 0-.14-.14H1.82a.14.14 0 0 0-.14.14v1.32a.14.14 0 0 0 .14.14.14.14 0 0 0 .18-.12z"/></g></g></svg>