<?xml version="1.0" encoding="UTF-8" standalone="no"?>
<!-- Generator: Adobe Illustrator 17.0.0, SVG Export Plug-In . SVG Version: 6.00 Build 0)  -->

<svg
   xmlns:dc="http://purl.org/dc/elements/1.1/"
   xmlns:cc="http://creativecommons.org/ns#"
   xmlns:rdf="http://www.w3.org/1999/02/22-rdf-syntax-ns#"
   xmlns:svg="http://www.w3.org/2000/svg"
   xmlns="http://www.w3.org/2000/svg"
   xmlns:sodipodi="http://sodipodi.sourceforge.net/DTD/sodipodi-0.dtd"
   xmlns:inkscape="http://www.inkscape.org/namespaces/inkscape"
   version="1.1"
   id="Capa_1"
   x="0px"
   y="0px"
   width="8.4329996"
   height="8.3710003"
   viewBox="0 0 8.4329996 8.3710003"
   enable-background="new 0 0 21.771 21.771"
   xml:space="preserve"
   inkscape:version="0.48.4 r9939"
   sodipodi:docname="Add_new_entry.svg"><metadata
     id="metadata15"><rdf:RDF><cc:Work
         rdf:about=""><dc:format>image/svg+xml</dc:format><dc:type
           rdf:resource="http://purl.org/dc/dcmitype/StillImage" /><dc:title></dc:title></cc:Work></rdf:RDF></metadata><defs
     id="defs13" /><sodipodi:namedview
     pagecolor="#ffffff"
     bordercolor="#666666"
     borderopacity="1"
     objecttolerance="10"
     gridtolerance="10"
     guidetolerance="10"
     inkscape:pageopacity="0"
     inkscape:pageshadow="2"
     inkscape:window-width="1857"
     inkscape:window-height="1056"
     id="namedview11"
     showgrid="false"
     inkscape:zoom="15.330228"
     inkscape:cx="3.5139956"
     inkscape:cy="6.0768579"
     inkscape:window-x="63"
     inkscape:window-y="24"
     inkscape:window-maximized="1"
     inkscape:current-layer="g7"
     fit-margin-top="0"
     fit-margin-left="0"
     fit-margin-right="0"
     fit-margin-bottom="0" /><g
     id="g3"
     transform="translate(-6.669,-6.7)"><g
       id="g7"><path
         d="M 7.093,9.648 C 6.977,9.648 6.879,9.689 6.795,9.772 6.712,9.857 6.669,9.956 6.669,10.071 v 1.708 c 0,0.116 0.043,0.214 0.126,0.298 0.083,0.083 0.182,0.126 0.298,0.126 h 2.429 v 2.446 c 0,0.114 0.043,0.213 0.126,0.298 0.083,0.083 0.184,0.124 0.298,0.124 h 1.913 c 0.114,0 0.213,-0.041 0.298,-0.124 0.083,-0.085 0.124,-0.184 0.124,-0.298 v -2.446 h 2.398 c 0.116,0 0.214,-0.043 0.299,-0.126 0.083,-0.083 0.124,-0.182 0.124,-0.298 V 10.071 C 15.102,9.955 15.061,9.857 14.978,9.772 14.893,9.689 14.794,9.648 14.679,9.648 H 12.28 V 7.124 C 12.28,7.008 12.239,6.91 12.156,6.826 12.071,6.743 11.972,6.7 11.858,6.7 H 9.945 C 9.831,6.7 9.731,6.743 9.647,6.826 9.564,6.909 9.521,7.008 9.521,7.124 V 9.648 H 7.093 z"
         id="path9"
         inkscape:export-xdpi="108"
         inkscape:export-ydpi="108"
         inkscape:connector-curvature="0"
         style="fill:#f6bc1e;fill-opacity:1" /></g></g></svg>