<?xml version="1.0" encoding="utf-8"?>
<!-- Generator: Adobe Illustrator 17.0.0, SVG Export Plug-In . SVG Version: 6.00 Build 0)  -->
<!DOCTYPE svg PUBLIC "-//W3C//DTD SVG 1.1//EN" "http://www.w3.org/Graphics/SVG/1.1/DTD/svg11.dtd">
<svg version="1.1" id="Capa_1" xmlns="http://www.w3.org/2000/svg" xmlns:xlink="http://www.w3.org/1999/xlink" x="0px" y="0px"
	 width="16.535px" height="16.427px" viewBox="0 0 16.535 16.427" enable-background="new 0 0 16.535 16.427" xml:space="preserve">
<path fill="#006A81" d="M16.356,5.191l-1.007-1.027c-0.004,0.004-0.008,0.009-0.013,0.013c-0.814,0.799-2.121,0.785-2.92-0.029
	c-0.798-0.814-0.785-2.122,0.03-2.92c0.004-0.004,0.009-0.008,0.013-0.012l-1.006-1.027c-0.243-0.247-0.64-0.251-0.888-0.009
	L7.721,2.968l0.871,0.889L7.917,4.518L7.046,3.629l-6.858,6.72c-0.247,0.242-0.252,0.64-0.009,0.887l4.902,5.002
	c0.242,0.248,0.639,0.252,0.887,0.009l6.858-6.72l-0.86-0.878l0.675-0.662l0.86,0.878l2.846-2.789
	C16.594,5.835,16.598,5.438,16.356,5.191L16.356,5.191z M8.583,5.167l0.675-0.661l1.131,1.154L9.713,6.32L8.583,5.167z
	 M11.356,8.027l-1.043-1.064l0.675-0.661l1.043,1.064L11.356,8.027z M11.356,8.027"/>
</svg>
