<svg xmlns="http://www.w3.org/2000/svg" viewBox="0 0 29.37 39.56"><defs><style>.cls-1{fill:#2d2f49}</style></defs><title>Asset 2</title><g id="Layer_2" data-name="Layer 2"><g id="Capa_1" data-name="Capa 1"><path class="cls-1" d="M25.55 8.62l-.05-.06v-.48c0-.77-.72-1-1.39-1.19-1.07-.32-1.86-.64-2.06-1.61L22 4.33c-.57 0-5.84-4.33-5.84-4.33l-1.47 1.4L13.21 0S7.94 4.33 7.38 4.33l-.1.94a1.63 1.63 0 0 1-.22.54 34.37 34.37 0 0 1 3.67-.24c-.09 0-4.59 1-6.12 1.52-.44.18-.8.45-.77 1v.48l-.05.06A17.63 17.63 0 0 0 0 19.9c0 2.09.88 4.54 2.62 7.26a38.75 38.75 0 0 0 5.8 6.91l1 .93 2.71-1.36v.07c-.13 1.17 4.79 1.5 4.87 1.49a25.21 25.21 0 0 1-3.06 0c-.73 0-1.42-.08-2-.13.08 1.45 5.27 1.57 5.39 1.56a31.81 31.81 0 0 1-4 0 42.44 42.44 0 0 1-3.75-.31l-.88 2.26.67.17a29.46 29.46 0 0 0 5.23.77 29.47 29.47 0 0 0 5.23-.77l.67-.17-.9-2.29h-.3c-.94 0-1.58-1.31-1.68-1.52l-.3-1.12L19.93 35l1-.92a38.76 38.76 0 0 0 5.8-6.91c1.74-2.72 2.62-5.16 2.62-7.26a17.64 17.64 0 0 0-3.8-11.29zM8.48 4.76A36.52 36.52 0 0 0 13 1.64l1.51 1.09v.87zm3.18 2.54h.13a9.1 9.1 0 0 1 2.51 1.6l.38.31.38-.31a9.17 9.17 0 0 1 2.51-1.6h.14c2.68 0 4.15 1.67 4.29 4.85-.95.3-1.77 1.32-2.48 3.07a5.88 5.88 0 0 0-.9-.92l-.84-2.87 2.86-.92-.38-1.17-3.45 1.11-.56.16 1.17 4a20.85 20.85 0 0 1-2.73.6 20.86 20.86 0 0 1-2.74-.6l1.17-4-.56-.16-3.45-1.13-.38 1.18 2.86.92-.85 2.89a5.82 5.82 0 0 0-.89.92c-.71-1.76-1.53-2.78-2.49-3.08C7.51 9 9 7.29 11.66 7.29zm7.21 9.81c-.26.91-.47 1.78-.61 2.49a2.82 2.82 0 0 1-1.4.63 4 4 0 0 1-1.56-.46V17.3c.64-.72 2-1.17 2.81-1.81a3.16 3.16 0 0 1 .68.87 1.59 1.59 0 0 1 .08.74zm-4.8.2v2.47a4 4 0 0 1-1.56.46 2.84 2.84 0 0 1-1.4-.63c-.14-.69-.33-1.53-.59-2.41a1.68 1.68 0 0 1 .07-.83 3.15 3.15 0 0 1 .68-.86c.73.62 2.16 1.07 2.8 1.79zM9.72 33l-.15-.14c-3.82-3.66-7.91-9-7.91-13a16.73 16.73 0 0 1 2.43-8.85 55.39 55.39 0 0 0 3.79 14.68 46.38 46.38 0 0 0 3.29 6.59zm5-7.47a3.35 3.35 0 0 1-3.45-3.2 3 3 0 0 1 .14-.92v-.24a2.81 2.81 0 0 0 1.12.27 5.16 5.16 0 0 0 2.18-.62 5.16 5.16 0 0 0 2.18.62 2.81 2.81 0 0 0 1.11-.26v.24a3 3 0 0 1 .14.92 3.35 3.35 0 0 1-3.44 3.2zm5.1 7.33l-.15.14-1.45-.73a46.39 46.39 0 0 0 3.29-6.59 55.38 55.38 0 0 0 3.79-14.64 16.73 16.73 0 0 1 2.43 8.85c-.02 3.99-4.1 9.32-7.92 12.98z"/><path class="cls-1" d="M12.45 22.64h4.47l-2.23-.87-2.24.87z"/></g></g></svg>