<svg xmlns="http://www.w3.org/2000/svg" viewBox="0 0 20.57 21.88"><defs><style>.cls-1{fill:#2d2f49}</style></defs><title>Asset 3</title><g id="Layer_2" data-name="Layer 2"><g id="Capa_1" data-name="Capa 1"><path class="cls-1" d="M10.88 13.85a1.29 1.29 0 0 0 1-.53l3.36-4.72a.37.37 0 0 0-.51-.51L10 11.5a1.3 1.3 0 0 0 .76 2.35zm-.67-1.34a.58.58 0 0 1 .23-.42L13.32 10l-2.08 2.88a.57.57 0 0 1-1-.38zm0 0"/><path class="cls-1" d="M19 7.13a10 10 0 0 0-1.3-1.75l.78-.78.52.51 1.55-1.55L19 2l-1.53 1.52L18 4l-.78.78a9.9 9.9 0 0 0-1.75-1.3 9.77 9.77 0 0 0-3.75-1.24v-.42h.55a.91.91 0 1 0 0-1.82H8.93a.91.91 0 0 0 0 1.82h.55v.42a9.75 9.75 0 0 0-1.17.19.36.36 0 1 0 .16.71 9.41 9.41 0 0 1 1-.17h.73v.72a.37.37 0 0 0 .73 0v-.76a9 9 0 0 1 3.81 1l-.36.62a.37.37 0 0 0 .13.5.38.38 0 0 0 .18 0A.37.37 0 0 0 15 5l.36-.62a9.16 9.16 0 0 1 2.83 2.83l-.62.36a.36.36 0 0 0 .18.68.38.38 0 0 0 .18 0l.62-.36a9.05 9.05 0 0 1 1 3.87h-.65a.36.36 0 1 0 0 .73h.72a9.06 9.06 0 0 1-1 3.87l-.62-.45a.36.36 0 1 0-.37.63l.62.36a9.2 9.2 0 0 1-2.83 2.83l-.42-.62a.36.36 0 0 0-.63.36l.36.62a9 9 0 0 1-3.81 1v-.72a.36.36 0 1 0-.73 0v.72a9.19 9.19 0 0 1-1.74-.22.36.36 0 1 0-.16.71 9.89 9.89 0 0 0 2.21.25h.07a9.79 9.79 0 0 0 4.82-1.3A9.9 9.9 0 0 0 19 17a9.81 9.81 0 0 0 0-9.8zM19 3l.51.51L19 4l-.52-.52zm-8.81-.81v-1.1H8.93a.18.18 0 1 1 0-.36h3.28a.18.18 0 1 1 0 .36h-1.27v1.1h-.73zM7.29 5.1H5.47a.37.37 0 1 0 0 .73h1.82a.37.37 0 1 0 0-.73zm0 2.56H3.65a.36.36 0 1 0 0 .73h3.64a.36.36 0 1 0 0-.73zm0 2.55H1.82a.37.37 0 0 0 0 .73h5.47a.37.37 0 1 0 0-.73zm0 2.55H.37a.37.37 0 0 0 0 .73h6.92a.37.37 0 1 0 0-.73zm0 2.55H2.55a.36.36 0 1 0 0 .73h4.74a.36.36 0 1 0 0-.73zm0 2.55H4.74a.37.37 0 0 0 0 .73h2.55a.37.37 0 1 0 0-.73zm0 0"/></g></g></svg>