<svg xmlns="http://www.w3.org/2000/svg" viewBox="0 0 13.51 12.67"><defs><style>.cls-1{fill:#ccc;fill-rule:evenodd}</style></defs><title>Asset 1</title><g id="Layer_2" data-name="Layer 2"><path class="cls-1" d="M11.82 9.5A12.13 12.13 0 0 0 8 7.76a8.83 8.83 0 0 0 1.17-2.32 5.29 5.29 0 0 0 .15-1.74 7.72 7.72 0 0 0 0-1.77A2.34 2.34 0 0 0 6.74 0a2.35 2.35 0 0 0-2.57 1.93 8.84 8.84 0 0 0 0 1.77 4.51 4.51 0 0 0 .19 1.74 7.7 7.7 0 0 0 1.11 2.32A12.47 12.47 0 0 0 1.69 9.5C0 10.29 0 11.17 0 11.17v.34a1.3 1.3 0 0 0 1.23 1.16h11a1.23 1.23 0 0 0 1.25-1.21v-.29s.01-.88-1.66-1.67z" id="User_balance" data-name="User balance"/></g></svg>