<svg xmlns="http://www.w3.org/2000/svg" viewBox="0 0 12.8 12.8"><defs><style>.cls-1{fill:#ffc843}.cls-2{fill:#bc7a04}</style></defs><title>Asset 9</title><g id="Layer_2" data-name="Layer 2"><g id="Capa_1" data-name="Capa 1"><path class="cls-1" d="M12.8 6.4A6.4 6.4 0 1 1 6.4 0a6.4 6.4 0 0 1 6.4 6.4zm0 0"/><path class="cls-2" d="M11.59 6.4A5.19 5.19 0 1 1 6.4 1.21a5.19 5.19 0 0 1 5.19 5.19zm0 0"/><path class="cls-1" d="M6.48 2.56a.46.46 0 0 1 .46.44v.12a3.72 3.72 0 0 1 1.28.42.6.6 0 0 1-.28 1.12.65.65 0 0 1-.31-.08 3.38 3.38 0 0 0-.73-.3v1.38c1.35.36 1.92.91 1.92 1.9s-.76 1.63-1.88 1.75v.47a.46.46 0 0 1-.92 0V9.3a4.43 4.43 0 0 1-1.74-.62.61.61 0 0 1 .31-1.13.64.64 0 0 1 .35.11 3.38 3.38 0 0 0 1.13.5V6.75c-1.27-.35-1.9-.83-1.9-1.89A1.81 1.81 0 0 1 6 3.13V3a.46.46 0 0 1 .46-.46zm-.42 2.87v-1.2c-.42.06-.61.27-.61.56s.12.46.61.64zM6.9 7v1.21c.42-.06.63-.26.63-.58S7.37 7.14 6.9 7zm0 0"/></g></g></svg>