<?xml version="1.0" encoding="UTF-8" standalone="no"?>
<!-- Created with Inkscape (http://www.inkscape.org/) -->

<svg
   xmlns:dc="http://purl.org/dc/elements/1.1/"
   xmlns:cc="http://creativecommons.org/ns#"
   xmlns:rdf="http://www.w3.org/1999/02/22-rdf-syntax-ns#"
   xmlns:svg="http://www.w3.org/2000/svg"
   xmlns="http://www.w3.org/2000/svg"
   xmlns:sodipodi="http://sodipodi.sourceforge.net/DTD/sodipodi-0.dtd"
   xmlns:inkscape="http://www.inkscape.org/namespaces/inkscape"
   width="20.668993"
   height="20.534143"
   id="svg9609"
   version="1.1"
   inkscape:version="0.48.4 r9939"
   sodipodi:docname="icon_balance_winning.svg">
  <defs
     id="defs9611" />
  <sodipodi:namedview
     id="base"
     pagecolor="#ffffff"
     bordercolor="#666666"
     borderopacity="1.0"
     inkscape:pageopacity="0.0"
     inkscape:pageshadow="2"
     inkscape:zoom="5.598901"
     inkscape:cx="21.0519"
     inkscape:cy="37.778596"
     inkscape:current-layer="layer1"
     showgrid="true"
     inkscape:grid-bbox="true"
     inkscape:document-units="px"
     inkscape:window-width="1857"
     inkscape:window-height="1056"
     inkscape:window-x="63"
     inkscape:window-y="24"
     inkscape:window-maximized="1"
     fit-margin-top="0"
     fit-margin-left="0"
     fit-margin-right="0"
     fit-margin-bottom="0"
     inkscape:snap-object-midpoints="false" />
  <metadata
     id="metadata9614">
    <rdf:RDF>
      <cc:Work
         rdf:about="">
        <dc:format>image/svg+xml</dc:format>
        <dc:type
           rdf:resource="http://purl.org/dc/dcmitype/StillImage" />
        <dc:title></dc:title>
      </cc:Work>
    </rdf:RDF>
  </metadata>
  <g
     id="layer1"
     inkscape:label="Layer 1"
     inkscape:groupmode="layer"
     transform="translate(-5.6655036,-5.7329284)">
    <g
       id="g6136"
       transform="matrix(1.4010797,0,0,-1.4010797,23.060741,14.125355)">
      <path
         inkscape:connector-curvature="0"
         d="m 0,0 c -0.45,-0.398 -1.017,-0.606 -1.691,-0.634 0.09,0.168 0.175,0.34 0.258,0.521 0.45,0.983 0.646,2.105 0.726,3.003 l 1.957,0 C 1.172,2.168 0.903,0.799 0,0 m -10.079,0 c -0.903,0.799 -1.171,2.168 -1.25,2.89 l 1.957,0 c 0.083,-0.898 0.276,-2.02 0.726,-3.003 0.083,-0.181 0.17,-0.353 0.258,-0.521 -0.674,0.028 -1.241,0.236 -1.691,0.634 m 9.427,3.843 c 0.009,0.446 -0.007,0.728 -0.007,0.728 l -4.358,0.002 -0.045,0 -4.358,-0.002 c 0,0 -0.016,-0.282 -0.007,-0.728 l -2.887,0 0,-0.478 c 0,-0.108 0.018,-2.671 1.601,-4.075 0.659,-0.585 1.481,-0.879 2.453,-0.879 0.147,0 0.298,0.008 0.45,0.02 0.552,-0.753 1.188,-1.284 1.904,-1.546 l 0,-2.093 -2.101,0 0,-1.309 -0.696,0 0,-0.732 7.328,0 0,0.732 -0.697,0 0,1.309 -2.101,0 0,2.093 c 0.714,0.262 1.353,0.793 1.904,1.546 0.154,-0.012 0.303,-0.02 0.45,-0.02 0.972,0 1.794,0.294 2.453,0.879 1.583,1.404 1.601,3.967 1.601,4.075 l 0,0.478 -2.887,0 z"
         style="fill:#ffc843;fill-opacity:1;fill-rule:nonzero;stroke:none"
         id="path6138" />
    </g>
  </g>
</svg>
