<svg xmlns="http://www.w3.org/2000/svg" viewBox="0 0 17.69 17.69"><defs><style>.cls-1{fill:#ff1d25}.cls-2{fill:#fff}</style></defs><title>Asset 2</title><g id="Layer_2" data-name="Layer 2"><g id="Capa_64_copia" data-name="Capa 64 copia"><circle class="cls-1" cx="8.85" cy="8.85" r="8.85" transform="rotate(-45 8.853 8.843)"/><path class="cls-2" d="M7.38 11.74a.33.33 0 0 1-.24.1.34.34 0 0 1-.24-.1l-1-1a.35.35 0 0 1 0-.49l1.4-1.4-1.4-1.38a.33.33 0 0 1-.1-.24.33.33 0 0 1 .1-.23L7 5.88a.34.34 0 0 1 .48 0l1.41 1.41 1.38-1.38a.34.34 0 0 1 .24-.1.33.33 0 0 1 .24.1l1 1a.34.34 0 0 1 0 .49l-1.39 1.36 1.45 1.45a.33.33 0 0 1 .1.24.33.33 0 0 1-.1.24l-1.1 1.1a.35.35 0 0 1-.49 0l-1.45-1.45z"/></g></g></svg>