<?xml version="1.0" encoding="UTF-8" standalone="no"?>
<!-- Generator: Adobe Illustrator 17.0.0, SVG Export Plug-In . SVG Version: 6.00 Build 0)  -->

<svg
   xmlns:dc="http://purl.org/dc/elements/1.1/"
   xmlns:cc="http://creativecommons.org/ns#"
   xmlns:rdf="http://www.w3.org/1999/02/22-rdf-syntax-ns#"
   xmlns:svg="http://www.w3.org/2000/svg"
   xmlns="http://www.w3.org/2000/svg"
   xmlns:sodipodi="http://sodipodi.sourceforge.net/DTD/sodipodi-0.dtd"
   xmlns:inkscape="http://www.inkscape.org/namespaces/inkscape"
   version="1.1"
   id="Capa_1"
   x="0px"
   y="0px"
   width="8.4329996"
   height="8.3710003"
   viewBox="0 0 8.4329996 8.3710003"
   enable-background="new 0 0 21.771 21.771"
   xml:space="preserve"
   inkscape:version="0.48.4 r9939"
   sodipodi:docname="Add_new_entry.svg"><metadata
     id="metadata15"><rdf:RDF><cc:Work
         rdf:about=""><dc:format>image/svg+xml</dc:format><dc:type
           rdf:resource="http://purl.org/dc/dcmitype/StillImage" /><dc:title></dc:title></cc:Work></rdf:RDF></metadata><defs
     id="defs13" /><sodipodi:namedview
     pagecolor="#ffffff"
     bordercolor="#666666"
     borderopacity="1"
     objecttolerance="10"
     gridtolerance="10"
     guidetolerance="10"
     inkscape:pageopacity="0"
     inkscape:pageshadow="2"
     inkscape:window-width="1857"
     inkscape:window-height="1056"
     id="namedview11"
     showgrid="false"
     inkscape:zoom="15.330228"
     inkscape:cx="3.5139956"
     inkscape:cy="6.0768579"
     inkscape:window-x="63"
     inkscape:window-y="24"
     inkscape:window-maximized="1"
     inkscape:current-layer="g3"
     fit-margin-top="0"
     fit-margin-left="0"
     fit-margin-right="0"
     fit-margin-bottom="0" /><g
     id="g3"
     transform="translate(-6.669,-6.7)"><g
       id="g7"><path
         d="M 7.093,12.123 C 6.977,12.123 6.879,12.082 6.795,11.999 6.712,11.914 6.669,11.815 6.669,11.7 V 9.992 C 6.669,9.876 6.712,9.778 6.795,9.694 6.878,9.611 6.977,9.568 7.093,9.568 H 9.522 V 7.122 C 9.522,7.008 9.565,6.909 9.648,6.824 9.731,6.741 9.832,6.7 9.946,6.7 h 1.913 c 0.114,0 0.213,0.041 0.298,0.124 0.083,0.085 0.124,0.184 0.124,0.298 v 2.446 h 2.398 c 0.116,0 0.214,0.043 0.299,0.126 0.083,0.083 0.124,0.182 0.124,0.298 V 11.7 c 0,0.116 -0.041,0.214 -0.124,0.299 -0.085,0.083 -0.184,0.124 -0.299,0.124 H 12.28 v 2.524 c 0,0.116 -0.041,0.214 -0.124,0.298 -0.085,0.083 -0.184,0.126 -0.298,0.126 H 9.945 C 9.831,15.071 9.731,15.028 9.647,14.945 9.564,14.862 9.521,14.763 9.521,14.647 V 12.123 H 7.093 z"
         id="path9"
         inkscape:export-xdpi="108"
         inkscape:export-ydpi="108"
         inkscape:connector-curvature="0"
         style="fill:#c3ff00" /></g></g></svg>