<svg xmlns="http://www.w3.org/2000/svg" viewBox="0 0 19.28 19.4"><defs><style>.cls-1{fill:#2d2f49}</style></defs><title>Asset 1</title><g id="Layer_2" data-name="Layer 2"><g id="Capa_1" data-name="Capa 1"><path class="cls-1" d="M14.18 12.09C18.52 8.95 19.91 5.4 19 3.51c-.58-1.25-2-1.72-3.92-1.33a3.76 3.76 0 0 0-1-2.11.36.36 0 0 0-.17-.07H5.37a.36.36 0 0 0-.22.07 3.76 3.76 0 0 0-1 2.1c-1.9-.38-3.32.09-3.9 1.34-.88 1.89.51 5.44 4.86 8.58a22.48 22.48 0 0 0 1.27 2 5 5 0 0 1 1.13 2.3c0 1.67-2.21 2.27-2.23 2.28a.36.36 0 0 0 .09.71h8.54a.36.36 0 0 0 .09-.68s-2.23-.61-2.23-2.28a5 5 0 0 1 1.13-2.3 22.44 22.44 0 0 0 1.28-2.03zm1.08-9.21c1.57-.32 2.7 0 3.13.93C19 5.25 18 8 14.81 10.68a10.8 10.8 0 0 0 .73-3.93 22.42 22.42 0 0 0-.29-3.87zM.9 3.81c.43-.92 1.56-1.25 3.1-.93a22.42 22.42 0 0 0-.29 3.87 10.79 10.79 0 0 0 .73 3.93C1.3 8 .24 5.25.9 3.81zm10.16 12.61a2.74 2.74 0 0 0 1.28 2.27H6.95a2.74 2.74 0 0 0 1.28-2.27A5.32 5.32 0 0 0 7 13.72a21.48 21.48 0 0 1-1.27-2 10.19 10.19 0 0 1-1.22-4.9c0-4.34.83-5.72 1.06-6h8.23c.25.32 1.07 1.71 1.07 6a10.19 10.19 0 0 1-1.22 4.9 21.43 21.43 0 0 1-1.27 2 5.33 5.33 0 0 0-1.32 2.7z"/><path class="cls-1" d="M12.12 6.37l-1.49-.22L10 4.8a.37.37 0 0 0-.64 0l-.71 1.36-1.49.22A.36.36 0 0 0 7 7l1 1-.22 1.53a.36.36 0 0 0 .52.38l1.33-.7 1.33.7a.36.36 0 0 0 .52-.38L11.24 8l1.08-1a.36.36 0 0 0-.2-.61zm-1.51 1.29a.36.36 0 0 0-.1.32l.16 1-.86-.45a.36.36 0 0 0-.33 0l-.86.45.16-1a.36.36 0 0 0-.1-.32L8 7l1-.14a.36.36 0 0 0 .27-.2l.43-.87.43.87a.36.36 0 0 0 .27.2l1 .14z"/></g></g></svg>