<svg xmlns="http://www.w3.org/2000/svg" width="55.2" height="72.9" viewBox="0 0 55.2 72.9"><style>.st0{fill:#53a51e}.st1{fill:none;stroke:#fff;stroke-miterlimit:10}.st2{fill:#fff}.st3{fill:#ff1d25}</style><path class="st0" d="M.1 7h45.5v66.1H.1z"/><path class="st1" d="M33.5 6.9v8.5h-22V6.9"/><circle class="st2" cx="23" cy="12.9" r="2.7"/><circle class="st2" cx="10.7" cy="25.8" r="2.7"/><circle class="st2" cx="34.5" cy="25.8" r="2.7"/><circle class="st2" cx="10.7" cy="41.5" r="2.7"/><circle class="st2" cx="34.5" cy="41.5" r="2.7"/><circle class="st2" cx="10.7" cy="57.7" r="2.7"/><circle class="st2" cx="34.5" cy="57.7" r="2.7"/><path class="st1" d="M0 42.4h46"/><circle class="st1" cx="22.3" cy="41.3" r="7.2"/><circle class="st3" cx="45.7" cy="8.8" r="8.8"/><path class="st2" d="M44.2 11.7c-.1.1-.1.1-.2.1s-.2 0-.2-.1l-1-1c-.1-.1-.1-.1-.1-.2s0-.2.1-.2l1.4-1.4-1.4-1.4c-.1-.1-.1-.1-.1-.2s0-.2.1-.2L43.9 6c.1-.1.1-.1.2-.1s.2 0 .2.1l1.4 1.4L47.1 6c.1-.1.1-.1.2-.1s.2 0 .2.1l1 1c.1 0 .2 0 .2.1s0 .2-.1.2l-1.4 1.4 1.5 1.5c.1.1.1.1.1.2s0 .2-.1.2l-1.1 1.1c-.1.1-.1.1-.2.1s-.2 0-.2-.1l-1.5-1.5-1.5 1.5z"/><g><path class="st2" d="M44.3 14.4l-.2.6 1.8 2.5-.9.9v1l-1.2 1-.3 1-.4.5-.2 2.2 2.8 3.3 1-.3 1 1.3.9.2.9.8 5-4-.7-1-.1-.9-.4-.7.1-.9-.4-.8v-.7l-.4-.7.2-2-.9-1.1-1 .8-.2.8-.4.7-4.3-5.2-1.2-.1z"/><path d="M52.7 19.2l-.4-.5.6-.5.5.6-.7.4.9 1.1-.6.4-.9-1.1.6-.4zm-10.2 3.6l.5.6.6-.5-.5-.6-.6.5zm1.4-8.7l.5.6 1.1-.9-.5-.7-1.1 1zm8.9 8.6l.9 1.1.6-.5-.9-1.1.5-.4-.9-1.1-.6.5.9 1.1-.5.4zm1.9 2.3l-.9-1.1-.6.5.9 1.1-4.5 3.7-.9-1.1-.6.5 1.4 1.7 5.6-4.6-.4-.7zm-8 1.8l-.6.5 1.4 1.7.6-.5-1.4-1.7zM45 23.5l.6-.5-1.8-2.2-.6.5-.6.5.5.6.6-.5 1.3 1.6zm1.2-2l.6-.5-1.8-2.2-.6.5-1.1.9.5.6 1.1-.9 1.3 1.6zm1.7-1.3l.6-.5-4.2-5.1-.6.5 1.9 2.3-1.1.9.5.6 1.1-.9 1.8 2.2zm2.4-2.8l.5.6 1.1-.9.9 1.1.6-.5L52 16l-.6.5-1.1.9zm-7.3 6l-.6.5 3.2 3.9.6-.5-3.2-3.9zm8.4-2.4l.6-.5-1.3-1.6.5-.4-.5-.5-.5.4-4.2-5.2-.6.5 6 7.3zm0 0"/></g></svg>