<svg xmlns="http://www.w3.org/2000/svg" viewBox="0 0 21.23 22.01"><defs><style>.cls-1{fill:#2d2f49}</style></defs><title>Asset 1</title><g id="Layer_2" data-name="Layer 2"><path class="cls-1" d="M2.75 5.5a2.75 2.75 0 0 0 2.72-2.36h15.36a.39.39 0 1 0 0-.78H5.47A2.75 2.75 0 1 0 2.75 5.5zm0-4.72a2 2 0 1 1-2 2 2 2 0 0 1 2-2zm15.73 15.73a2.75 2.75 0 0 0-2.72 2.36H.39a.39.39 0 0 0 0 .79h15.36a2.75 2.75 0 1 0 2.72-3.14zm0 4.72a2 2 0 1 1 2-2 2 2 0 0 1-2 2zm2.35-10.62h-7.32a2.83 2.83 0 0 0-5.63 0H.39a.39.39 0 1 0 0 .78H7.9a2.83 2.83 0 0 0 5.58 0h7.35a.39.39 0 1 0 0-.78zM10.69 13a2 2 0 1 1 2-2 2 2 0 0 1-2 2zm0 0" id="Capa_1" data-name="Capa 1"/></g></svg>