<svg xmlns="http://www.w3.org/2000/svg" viewBox="0 0 26.29 23.54"><defs><style>.cls-1{fill:#2d2f49}</style></defs><title>Asset 2</title><g id="Layer_2" data-name="Layer 2"><g id="Capa_1" data-name="Capa 1"><path class="cls-1" d="M20.1 9.89v-.2h-.07L11 4.46l5-3.18 8.46 4.81L21 8.34a.59.59 0 1 0 .63 1L26 6.57a.59.59 0 0 0 0-1L16.36.08a.59.59 0 0 0-.61 0L9.56 4 6.47 5.93.28 9.83a.59.59 0 0 0 0 1l9.63 5.47a.59.59 0 0 0 .61 0l4.4-2.77a.59.59 0 0 0-.63-1l-4.1 2.58-8.44-4.8 5-3.18 9 5.13V19a.59.59 0 0 0 .91.5l3.09-1.95a.59.59 0 0 0 .28-.5V10a.57.57 0 0 0 0-.06zM17 18v-6.09a.59.59 0 0 0-.3-.52l-8.77-5 2-1.23L18.35 10l-.74.47a.59.59 0 1 0 .63 1l.67-.42v5.73zm0 0"/><path class="cls-1" d="M25.37 7.94L21 10.72a.59.59 0 0 0 .63 1L26 9a.59.59 0 1 0-.63-1zm-11.06 6.97l-4.1 2.58L.89 12.2a.59.59 0 0 0-.59 1l9.63 5.5a.59.59 0 0 0 .61 0l4.4-2.77a.59.59 0 1 0-.63-1zm11.06-4.59L21 13.1a.59.59 0 0 0 .63 1L26 11.33a.59.59 0 1 0-.63-1zm0 0"/><path class="cls-1" d="M14.31 17.29l-4.1 2.58-9.32-5.3a.59.59 0 0 0-.59 1l9.63 5.47a.59.59 0 0 0 .61 0l4.4-2.77a.59.59 0 1 0-.63-1zm11.06-4.59L21 15.47a.59.59 0 0 0 .63 1L26 13.71a.59.59 0 1 0-.63-1zm0 0"/><path class="cls-1" d="M14.31 19.67l-4.1 2.58L.89 17a.59.59 0 0 0-.59 1l9.63 5.47a.59.59 0 0 0 .61 0l4.4-2.77a.59.59 0 0 0-.63-1zm0 0"/></g></g></svg>