<svg xmlns="http://www.w3.org/2000/svg" viewBox="0 0 14.5 14.96"><defs><style>.cls-1{fill:#f74906;fill-rule:evenodd}.cls-2{fill:#2f6196}.cls-3{fill:#fff}</style></defs><title>Asset 1</title><g id="Layer_2" data-name="Layer 2"><g id="Capa_1" data-name="Capa 1"><path class="cls-1" d="M7.35 12.39A13.34 13.34 0 0 1 4 12a6.6 6.6 0 0 1-1.6-.69 2.9 2.9 0 0 1-1.14-1.08A1.18 1.18 0 0 1 1 9.6a1.36 1.36 0 0 1 .14-.6 2.32 2.32 0 0 1 .46-.68 4.65 4.65 0 0 1 .63-.51A6.21 6.21 0 0 1 3.76 7a6.61 6.61 0 0 1 1.77-.45 12.74 12.74 0 0 1 3.59-.17 10.73 10.73 0 0 1 1.83.35 8.66 8.66 0 0 1 1.65.68A3.77 3.77 0 0 1 14 8.52c.11.29.29.57.35.8a2.25 2.25 0 0 1-.12.91 5.45 5.45 0 0 1-.45.75 7.15 7.15 0 0 1-.69.63 9.32 9.32 0 0 1-1.65.85 11.11 11.11 0 0 0 1.71-.8 2.6 2.6 0 0 0 .74-.63 2.77 2.77 0 0 0 .51-.8 1.53 1.53 0 0 0 .11-.91 3.78 3.78 0 0 0-.29-.91 3.57 3.57 0 0 0-.68-.68 2.24 2.24 0 0 0-.74-.57 7.63 7.63 0 0 0-1.71-.8C10.43 6.18 9.8 6 9.23 5.9a16.8 16.8 0 0 0-3.82-.05 10.87 10.87 0 0 0-1.88.45 7.43 7.43 0 0 0-1.82.7c-.23.23-.51.4-.8.69a3 3 0 0 0-.63.79A2.61 2.61 0 0 0 0 9.66a3.92 3.92 0 0 0 .34 1.14 3.27 3.27 0 0 0 .69.85 4.34 4.34 0 0 0 .8.63 6.62 6.62 0 0 0 1.82.85 13.86 13.86 0 0 0 3.7.63V15l3.25-2-3.25-1.86z"/><circle class="cls-2" cx="7.25" cy="5.18" r="5.18"/><path class="cls-3" d="M5.44 5.77a.19.19 0 0 1-.14-.06.2.2 0 0 1-.06-.14v-.82a.2.2 0 0 1 .2-.2H6.6V3.39a.2.2 0 0 1 .06-.14.19.19 0 0 1 .14-.06h.91a.2.2 0 0 1 .2.2v1.16h1.14a.2.2 0 0 1 .14.06.19.19 0 0 1 .06.14v.81a.2.2 0 0 1-.2.2H7.91V7a.19.19 0 0 1-.06.14.2.2 0 0 1-.14.06H6.8a.2.2 0 0 1-.2-.2V5.77z"/></g></g></svg>