<?xml version="1.0" encoding="utf-8"?>
<!-- Generator: Adobe Illustrator 17.0.0, SVG Export Plug-In . SVG Version: 6.00 Build 0)  -->
<!DOCTYPE svg PUBLIC "-//W3C//DTD SVG 1.1//EN" "http://www.w3.org/Graphics/SVG/1.1/DTD/svg11.dtd">
<svg version="1.1" id="Capa_1" xmlns="http://www.w3.org/2000/svg" xmlns:xlink="http://www.w3.org/1999/xlink" x="0px" y="0px"
	 width="14.549px" height="12.812px" viewBox="0 0 14.549 12.812" enable-background="new 0 0 14.549 12.812" xml:space="preserve">
<g>
	<g>
		<path fill="#FFC843" d="M11.662,0.73c0.009-0.446-0.007-0.728-0.007-0.728L7.298,0H7.252L2.894,0.002c0,0-0.016,0.282-0.007,0.728
			H0v0.477c0,0.108,0.018,2.671,1.601,4.075c0.659,0.586,1.481,0.88,2.453,0.88c0.147,0,0.298-0.009,0.45-0.021
			c0.552,0.753,1.188,1.284,1.904,1.546v2.093H4.307v1.309H3.611v0.733h7.328V11.09h-0.696V9.781H8.141V7.688
			c0.714-0.262,1.353-0.793,1.904-1.546c0.154,0.012,0.303,0.021,0.45,0.021c0.971,0,1.794-0.294,2.453-0.88
			c1.582-1.404,1.601-3.967,1.601-4.075V0.73H11.662z M2.235,4.573c-0.903-0.799-1.171-2.168-1.25-2.89h1.957
			c0.083,0.898,0.276,2.019,0.726,3.003c0.083,0.181,0.17,0.353,0.258,0.521C3.252,5.18,2.685,4.971,2.235,4.573L2.235,4.573z
			 M12.314,4.573c-0.45,0.398-1.017,0.606-1.691,0.634c0.09-0.168,0.175-0.34,0.258-0.521c0.45-0.983,0.646-2.105,0.726-3.003h1.957
			C13.486,2.405,13.217,3.774,12.314,4.573L12.314,4.573z M12.314,4.573"/>
	</g>
	<g>
		<circle fill-rule="evenodd" clip-rule="evenodd" fill="#FFFFFF" cx="10.277" cy="9.017" r="3.3"/>
		<path fill-rule="evenodd" clip-rule="evenodd" fill="#EF4224" d="M10.277,11.863c-0.612,0-1.181-0.199-1.646-0.531l3.966-3.961
			c0.327,0.465,0.526,1.034,0.526,1.646C13.123,10.587,11.847,11.863,10.277,11.863z M7.431,9.017c0-1.57,1.276-2.846,2.846-2.846
			c0.612,0,1.181,0.199,1.646,0.531l-3.966,3.961C7.63,10.198,7.431,9.629,7.431,9.017z M13.27,6.693l0.024-0.024L12.625,6
			l-0.024,0.024c-0.64-0.503-1.447-0.802-2.324-0.802c-2.097,0-3.795,1.698-3.795,3.795c0,0.878,0.299,1.679,0.802,2.324
			L7.26,11.365l0.669,0.669l0.024-0.024c0.64,0.503,1.447,0.802,2.324,0.802c2.097,0,3.795-1.698,3.795-3.795
			C14.072,8.14,13.773,7.338,13.27,6.693z"/>
	</g>
</g>
</svg>
