<?xml version="1.0" encoding="utf-8"?>
<!-- Generator: Adobe Illustrator 17.0.0, SVG Export Plug-In . SVG Version: 6.00 Build 0)  -->
<!DOCTYPE svg PUBLIC "-//W3C//DTD SVG 1.1//EN" "http://www.w3.org/Graphics/SVG/1.1/DTD/svg11.dtd">
<svg version="1.1" id="Capa_1" xmlns="http://www.w3.org/2000/svg" xmlns:xlink="http://www.w3.org/1999/xlink" x="0px" y="0px"
	 width="16.535px" height="17.784px" viewBox="0 0 16.535 17.784" enable-background="new 0 0 16.535 17.784" xml:space="preserve">
<g>
	<path fill="#006881" d="M16.356,5.191l-1.007-1.027c-0.004,0.004-0.008,0.009-0.013,0.013c-0.814,0.799-2.121,0.785-2.92-0.029
		c-0.798-0.814-0.785-2.122,0.03-2.92c0.004-0.004,0.009-0.008,0.013-0.012l-1.006-1.027c-0.243-0.247-0.64-0.251-0.888-0.009
		L7.721,2.968l0.871,0.889L7.917,4.518L7.046,3.629l-6.858,6.72c-0.247,0.242-0.252,0.64-0.009,0.887l4.902,5.002
		c0.242,0.248,0.639,0.252,0.887,0.009l6.858-6.72l-0.86-0.878l0.675-0.662l0.86,0.878l2.846-2.789
		C16.594,5.835,16.598,5.438,16.356,5.191L16.356,5.191z M8.583,5.167l0.675-0.661l1.131,1.154L9.713,6.32L8.583,5.167z
		 M11.356,8.027l-1.043-1.064l0.675-0.661l1.043,1.064L11.356,8.027z M11.356,8.027"/>
	<g>
		<circle fill-rule="evenodd" clip-rule="evenodd" fill="#FFFFFF" cx="9.102" cy="13.989" r="3.3"/>
		<path fill-rule="evenodd" clip-rule="evenodd" fill="#EF4224" d="M9.102,16.835c-0.612,0-1.181-0.199-1.646-0.531l3.966-3.961
			c0.327,0.465,0.526,1.034,0.526,1.646C11.948,15.559,10.672,16.835,9.102,16.835z M6.256,13.989c0-1.57,1.276-2.846,2.846-2.846
			c0.612,0,1.181,0.199,1.646,0.531l-3.966,3.961C6.455,15.17,6.256,14.601,6.256,13.989z M12.095,11.665l0.024-0.024l-0.669-0.669
			l-0.024,0.024c-0.64-0.503-1.447-0.802-2.324-0.802c-2.097,0-3.795,1.698-3.795,3.795c0,0.878,0.299,1.679,0.802,2.324
			l-0.024,0.024l0.669,0.669l0.024-0.024c0.64,0.503,1.447,0.802,2.324,0.802c2.097,0,3.795-1.698,3.795-3.795
			C12.897,13.112,12.598,12.31,12.095,11.665z"/>
	</g>
</g>
</svg>
