<svg xmlns="http://www.w3.org/2000/svg" width="98.6" height="131.8" viewBox="0 0 98.6 131.8"><style>.st0{fill:#c3ff00}.st1{fill:#fff}.st2{fill:#2d2f49}</style><path class="st0" d="M81.7 32.8l-32.4-.1-32.4.1c-5.5 6.3-11.4 18.4-11.4 34 0 13.1 12.4 30 25.8 42.9l1.8 1.7 8.2-4.1s5.4 2.5 8 2.5 8-2.5 8-2.5l8.2 4.1 1.8-1.7c13.4-12.9 25.8-29.8 25.8-42.9 0-15.6-5.9-27.7-11.4-34z"/><path class="st1" d="M49.1 131.8c-8.3-.3-16.8-2.4-17.1-2.5l-5.3-1.3 4.3-11.1-3.5-3.2c-7.6-7.3-14.1-15-18.8-22.4C2.9 82.2 0 73.9 0 66.8 0 50.5 6.2 37.2 12.2 30v-.4c-.1-1.9.6-4.4 4.3-5.9 1.3-.5 3.4-1.1 5.6-1.7l.7-1.2c.1-.2.2-.4.3-.7l.6-5.4h2.1c2.1-1.1 10.3-7.5 17.1-13l2-1.6 4.5 4.3L53.8 0l2 1.6c6.8 5.6 15 11.9 17.1 13H75l.6 5.4c.3 1.2 1.1 1.8 4.5 2.8 2.2.6 6.7 2 6.4 6.7v.4c6 7.2 12.2 20.5 12.2 36.8 0 7.2-2.9 15.4-8.7 24.5-4.7 7.4-11.2 15.1-18.8 22.4l-3.5 3.2 4.3 11.1-5.3 1.3c-.4.1-8.9 2.2-17.1 2.5h-.1l-.4.1zm15.4-27c10.9-10.6 23.1-26.6 23.1-38 0-7.5-1.5-13.7-3.3-18.5-2.7 15.8-7.3 29-10.9 37.9-3.4 8.4-6.8 14.8-8.9 18.6zM14.2 48.3C12.5 53 11 59.2 11 66.8c0 11.3 12.3 27.3 23.1 38-2.1-3.7-5.5-10.1-9-18.6-3.6-8.9-8.2-22.1-10.9-37.9z"/><path class="st2" d="M83.7 31.1l-.1-.2c0-.5.1-1 .1-1.5.1-2.4-2.3-3.1-4.4-3.8-3.4-1-5.9-2-6.5-5.1l-.3-3C70.6 17.5 54 3.8 54 3.8l-4.7 4.4-4.7-4.4S27.9 17.5 26.2 17.5l-.3 3c-.1.7-.4 1.2-.7 1.7 3.2-.4 7.1-.7 11.6-.8-.3 0-14.3 3-19.3 4.8-1.4.6-2.6 1.4-2.5 3.1 0 .5.1 1 .1 1.5l-.1.2C9.1 37.8 2.9 50.6 2.9 66.8c0 6.6 2.8 14.3 8.3 23 4.6 7.2 10.9 14.8 18.4 21.9l3.2 2.9 8.6-4.3-.1.2c-.6 3.7 15.1 4.7 15.5 4.7-3.2.2-6.6.2-9.7.1-2.3-.1-4.5-.2-6.3-.4.3 4.6 16.7 5 17 4.9-4.1.3-8.5.3-12.6.1-5.2-.2-9.9-.7-11.9-1l-2.8 7.1 2.1.5c.3.1 8.6 2.1 16.5 2.4h.2c7.9-.3 16.2-2.3 16.6-2.4l2.1-.5-2.8-7.2h-1.3c-3 0-5-4.1-5.3-4.8l-1-3.5 8.3 4.1 3.2-2.9c7.4-7.1 13.8-14.7 18.4-21.9 5.5-8.6 8.3-16.3 8.3-23-.1-16.2-6.3-29-12.1-35.7zm-50.6 76.7c-12.1-11.6-25-28.4-25-41 0-11.8 3.6-21.5 7.7-28 2.2 19.2 7.6 35.5 12 46.3 4.5 10.9 8.8 18.2 10.4 20.9l-4.6 2.3-.5-.5zm32.4 0l-.5.4-4.6-2.3C62 103.3 66.3 96 70.8 85c4.5-10.8 9.8-27.1 12-46.3 4.1 6.5 7.7 16.3 7.7 28 0 12.6-12.9 29.5-25 41.1z"/><path class="st1" d="M74.4 43.8c0-19.4-13.6-18.9-16-18.9-2.3 0-8.6 5.1-9.1 5.5-.5-.4-6.8-5.4-9.1-5.4-2.4 0-16-.5-16 18.9C33.1 43.8 37 71 37 71c-.4 1.1-.6 2.3-.6 3.5 0 6.6 5.7 12 12.8 12 7.1-.1 12.8-5.4 12.8-12 0-1.2-.2-2.4-.6-3.5.2 0 4.1-27.2 13-27.2z"/><path class="st2" d="M49.3 88.4h-2v-.1c-7.2-.9-12.8-6.8-12.8-13.8 0-1.2.2-2.5.5-3.6-1.6-10.6-5.9-25.1-10.8-25.1h-1.9v-1.9c0-8.5 2.5-14.5 7.4-17.9 2.7-2 6.1-3 10-3h.4c2.3 0 6.3 2.8 9.1 5 2.8-2.2 6.9-5 9.1-5h.4c3.9 0 7.3 1 10.1 2.9 4.9 3.4 7.4 9.4 7.4 17.9v1.9h-1.9c-4.9 0-9.2 14.5-10.8 25.1.3 1.2.5 2.4.5 3.6 0 7-5.6 12.9-12.8 13.8v.1l-1.9.1zM26.2 42.2c3.8 1.2 7 6 9.6 14.6 2.1 6.9 3.1 13.6 3.1 13.9l.1.4-.1.4c-.3.9-.5 1.9-.5 2.9 0 5.5 4.9 10.1 10.9 10.1h.2c6 0 10.9-4.6 10.9-10.1 0-1-.2-2-.5-2.9l-.1-.4.1-.4c0-.3 1-7 3.1-13.9 2.6-8.6 5.8-13.4 9.6-14.6-.4-10-5.1-15.3-13.6-15.3h-.4c-1 .1-4.6 2.3-7.9 5.1l-1.2 1-1.2-1c-3.4-2.7-6.9-5-7.9-5.1H40c-8.7 0-13.4 5.3-13.8 15.3z"/><path class="st2" d="M61.8 49l-2.7-9.1 9-2.9-1.2-3.7L56 36.8l-1.8.5L58 49.9c-3 .8-7.4 1.9-8.6 1.9-1.2 0-5.6-1.1-8.7-1.9l3.7-12.6-1.8-.5-10.9-3.5-1.2 3.7 9 2.9-2.7 9.1c-1.3 1.1-3 2.8-4 4.8-1.7 3.5.2 8.6.4 9.1l3.6-1.4c-.5-1.3-1.3-4.5-.5-6.1.5-1 1.3-1.9 2.1-2.7 2.5 2 6.8 3.4 8.8 5.7v7.8c-1.3.6-3.3 1.5-4.9 1.5-1.7 0-4.3-1.8-5.5-2.9l-2.6 2.9c.4.4 4.3 3.9 8.1 3.9 2.7 0 5.5-1.2 6.9-2 1.4.7 4.2 2 6.9 2 3.8 0 7.7-3.5 8.1-3.9l-2.6-2.9c-.8.7-3.5 2.9-5.5 2.9-1.6 0-3.7-.8-4.9-1.5v-7.8c2-2.3 6.4-3.7 8.9-5.7.8.8 1.7 1.8 2.2 2.7.7 1.5.1 4.5-.5 6.1l3.6 1.4c.2-.6 2.1-5.6.4-9.1-.9-2-2.7-3.7-4-4.8zM49.3 72.6l-7.1 2.8h14.2z"/><path class="st0" d="M48.8 12.5L44 9s-7.7 6.2-14.4 9.9l19.1-3.7v-2.7z"/></svg>