<?xml version="1.0" encoding="utf-8"?>
<!-- Generator: Adobe Illustrator 17.0.0, SVG Export Plug-In . SVG Version: 6.00 Build 0)  -->
<!DOCTYPE svg PUBLIC "-//W3C//DTD SVG 1.1//EN" "http://www.w3.org/Graphics/SVG/1.1/DTD/svg11.dtd">
<svg version="1.1" id="Capa_1" xmlns="http://www.w3.org/2000/svg" xmlns:xlink="http://www.w3.org/1999/xlink" x="0px" y="0px"
	 width="13.117px" height="14.902px" viewBox="0 0 13.117 14.902" enable-background="new 0 0 13.117 14.902" xml:space="preserve">
<g>
	<circle fill="#BC7A04" cx="6.567" cy="8.532" r="4.023"/>
	<path fill="#F47B20" d="M10.582,3.161L9.863,4.085c1.55,1.206,2.323,3.158,2.018,5.095c-0.223,1.422-0.987,2.671-2.151,3.518
		c-1.164,0.847-2.587,1.191-4.009,0.967c-2.935-0.462-4.947-3.225-4.486-6.16C1.46,6.083,2.224,4.834,3.387,3.987
		c1.016-0.739,2.23-1.095,3.468-1.024L5.843,4.024L6.594,4.74L8.19,3.063l0,0.001l0.716-0.751l-0.75-0.715l0,0L6.48,0L5.764,0.751
		l1.092,1.04c-1.484-0.07-2.939,0.362-4.158,1.249C1.283,4.072,0.352,5.592,0.08,7.323c-0.561,3.572,1.887,6.936,5.459,7.498
		c0.346,0.054,0.691,0.081,1.033,0.081c1.376,0,2.712-0.433,3.846-1.258c1.416-1.031,2.346-2.552,2.618-4.282
		C13.408,7.005,12.468,4.628,10.582,3.161L10.582,3.161z M10.582,3.161"/>
	<path fill="#FFFFFF" d="M7.094,11.204v-0.57c0.676-0.076,1.334-0.503,1.334-1.313c0-1.102-1.024-1.228-1.772-1.32
		C6.177,7.943,5.81,7.876,5.81,7.587c0-0.403,0.568-0.446,0.812-0.446c0.363,0,0.749,0.17,0.881,0.388l0.038,0.063l0.752-0.348
		L8.256,7.168C7.975,6.595,7.474,6.43,7.094,6.363V5.861h-0.88v0.5C5.394,6.482,4.908,6.936,4.908,7.587
		c0,1.061,0.963,1.168,1.666,1.247C7.199,8.907,7.491,9.062,7.491,9.32c0,0.492-0.682,0.531-0.891,0.531
		c-0.465,0-0.914-0.232-1.044-0.54L5.524,9.234L4.708,9.58L4.74,9.656c0.242,0.566,0.764,0.921,1.474,1.004v0.543H7.094z
		 M7.094,11.204"/>
</g>
</svg>
