<svg xmlns="http://www.w3.org/2000/svg" viewBox="0 0 20.38 21.11"><defs><style>.cls-1{fill:#2d2f49}</style></defs><title>Asset 4</title><g id="Layer_2" data-name="Layer 2"><path class="cls-1" d="M5 10.14a7.94 7.94 0 0 0 2.8 4 7.88 7.88 0 0 0 9.49 0 7.94 7.94 0 0 0 2.8-4 7.89 7.89 0 0 0-2.4-8.23 7.88 7.88 0 0 0-10.26 0A7.89 7.89 0 0 0 5 10.14zm.71-2.27a6.83 6.83 0 0 1 2-4.87l2 2-1.22 3.64-2.67.72a6.87 6.87 0 0 1-.16-1.48zM12.5 1a6.83 6.83 0 0 1 4 1.31l-2 2h-3.93L8.51 2.33A6.84 6.84 0 0 1 12.5 1zm6.84 6.84a6.88 6.88 0 0 1-.16 1.48l-2.68-.68L15.32 5l2-2a6.83 6.83 0 0 1 2 4.85zM13 12l3.21-2.3 2.64.71A6.89 6.89 0 0 1 13 14.69zM9.51 8.89l1.11-3.38v-.08h3.7l1.17 3.47L12.5 11zm2.49 5.8a6.89 6.89 0 0 1-5.85-4.34l2.65-.71L12 12zM.8 19.57a.52.52 0 1 0 .74.74L6 15.81a.52.52 0 1 0-.74-.74zM.15 15.79a.52.52 0 0 0 .74.74l2.94-2.94a.52.52 0 0 0-.74-.74L.15 15.79zm4.43 4.43a.52.52 0 0 0 .74.74L8.25 18a.52.52 0 0 0-.74-.74zm2.94-2.94" id="Capa_1" data-name="Capa 1"/></g></svg>