<svg xmlns="http://www.w3.org/2000/svg" viewBox="0 0 14.11 14.11"><defs><style>.cls-1{fill:#c3ff00;fill-rule:evenodd}</style></defs><title>Asset 1</title><g id="Layer_2" data-name="Layer 2"><g id="Capa_64_copia" data-name="Capa 64 copia"><path class="cls-1" d="M7.05 12.34a5.29 5.29 0 1 1 5.29-5.29 5.29 5.29 0 0 1-5.29 5.29zM7.05 0a7.05 7.05 0 1 0 7.05 7.05A7.05 7.05 0 0 0 7.05 0z"/><path class="cls-1" d="M6.36 6.5a.89.89 0 0 0-.18.72l.74 3.93a.25.25 0 0 0 .49 0l.53-4a.89.89 0 0 0-1.53-.73v.05zm1 .3a.4.4 0 0 1 .1.31l-.34 2.42-.45-2.39a.39.39 0 0 1 .68-.33zm0 0"/><path class="cls-1" d="M7.09 8a.89.89 0 0 0 .65-.37l2.34-3.24A.25.25 0 0 0 9.74 4L6.5 6.37A.89.89 0 0 0 7 8zm-.46-.92a.4.4 0 0 1 .16-.29l2-1.43-1.43 2a.39.39 0 0 1-.71-.26zm0 0"/></g></g></svg>