<svg xmlns="http://www.w3.org/2000/svg" xmlns:xlink="http://www.w3.org/1999/xlink" width="54" height="54" viewBox="10 14 54 54"><style>.st0{clip-path:url(#SVGID_2_)}.st1{fill:#556080}.st2,.st3{clip-path:url(#SVGID_4_);fill:#ccc}.st3{fill:#fff}.st4{clip-path:url(#SVGID_6_)}.st5,.st6{clip-path:url(#SVGID_8_);fill:#ccc}.st6{fill:#fff}</style><defs><circle id="SVGID_1_" cx="37.2" cy="41" r="27.1"/></defs><use xlink:href="#SVGID_1_" overflow="visible" fill="#fff"/><clipPath id="SVGID_2_"><use xlink:href="#SVGID_1_" overflow="visible"/></clipPath><g class="st0"><path class="st1" d="M76 70c0 3.3-2.7 6-6 6H6c-3.3 0-6-2.7-6-6V6c0-3.3 2.7-6 6-6h64c3.3 0 6 2.7 6 6v64z"/><defs><path id="SVGID_3_" d="M.2 9.2H76V87H.2z"/></defs><clipPath id="SVGID_4_"><use xlink:href="#SVGID_3_" overflow="visible"/></clipPath><path class="st2" d="M26.5 69.1l-11.2 6.1c-.7.4-1.2.8-1.8 1.3 6.5 5.5 14.9 8.8 24.1 8.8 9.1 0 17.5-3.3 23.9-8.7-.6-.5-1.2-1-2-1.3l-11.9-6c-1.5-.8-2.5-2.4-2.5-4.1v-4.7c.3-.4.7-.9 1.1-1.5 1.6-2.3 2.9-4.9 3.7-7.5 1.5-.5 2.7-1.9 2.7-3.6v-5c0-1.1-.5-2.1-1.3-2.8v-7.3s1.5-11.3-13.8-11.3c-15.2 0-13.8 11.3-13.8 11.3v7.3c-.8.7-1.3 1.7-1.3 2.8v5c0 1.3.7 2.5 1.7 3.2 1.3 5.5 4.5 9.4 4.5 9.4V65c.3 1.7-.6 3.3-2.1 4.1zm0 0"/><path class="st3" d="M38.3 10.2C17.6 9.8.6 26.4.2 47.1 0 58.8 5.3 69.4 13.6 76.4c.5-.5 1.1-.9 1.8-1.3L26.6 69c1.5-.8 2.4-2.3 2.4-4v-4.6s-3.3-3.9-4.5-9.4c-1-.7-1.7-1.8-1.7-3.2v-5c0-1.1.5-2.1 1.2-2.8v-7.3s-1.5-11.3 13.8-11.3c15.2 0 13.8 11.3 13.8 11.3V40c.8.7 1.2 1.7 1.2 2.8v5c0 1.7-1.1 3.1-2.7 3.6-.9 2.7-2.1 5.2-3.7 7.5-.4.6-.8 1.1-1.1 1.5v4.7c0 1.7 1 3.3 2.5 4.1l12 6c.7.4 1.4.8 2 1.3 8.1-6.7 13.3-16.8 13.5-28.2.1-20.7-16.4-37.7-37-38.1zm0 0"/></g></svg>