<svg xmlns="http://www.w3.org/2000/svg" width="175.7" height="48.2" viewBox="0 0 175.7 48.2"><style>.st0{fill:#2f6196}.st1{fill-rule:evenodd;clip-rule:evenodd;fill:#fff}</style><path class="st0" d="M171.7 14.2h-142c-.4 8.5-7.4 15.3-16 15.4v14.6c0 2.2 1.8 4 4 4h154c2.2 0 4-1.8 4-4v-26c0-2.2-1.8-4-4-4z"/><circle class="st0" cx="13.4" cy="13.4" r="13.4"/><path class="st1" d="M13.5 18.7c-2.9 0-5.3-2.4-5.3-5.3s2.4-5.3 5.3-5.3 5.3 2.4 5.3 5.3-2.4 5.3-5.3 5.3zm0-12.4c-3.9 0-7.1 3.2-7.1 7.1 0 3.9 3.2 7.1 7.1 7.1 3.9 0 7.1-3.2 7.1-7.1-.1-3.9-3.2-7.1-7.1-7.1z"/><path class="st1" d="M12.8 12.8c-.2.2-.2.5-.2.7l.7 3.9c0 .1.1.2.3.2.1 0 .2-.1.2-.2l.5-4c0-.3 0-.5-.2-.7-.2-.2-.4-.3-.7-.3-.2.1-.4.2-.6.4zm1 .3c.1.1.1.2.1.3l-.3 2.4-.5-2.4c0-.1 0-.2.1-.3.1-.1.2-.1.3-.1.1 0 .2.1.3.1zm0 0"/><path class="st1" d="M13.5 14.3c.3 0 .5-.2.7-.4l2.3-3.2c.1-.1.1-.2 0-.3-.1-.1-.2-.1-.3 0L13 12.7c-.2.2-.3.4-.4.7 0 .3.1.5.3.7.1.1.3.2.6.2zm-.4-.9c0-.1.1-.2.2-.3l2-1.4-1.4 2c-.1.1-.2.2-.3.2-.1 0-.2 0-.3-.1-.2-.2-.3-.3-.2-.4zm0 0"/></svg>