<svg xmlns="http://www.w3.org/2000/svg" xmlns:xlink="http://www.w3.org/1999/xlink" viewBox="0 0 194.14 69.03"><defs><style>.cls-1{fill:url(#linear-gradient)}.cls-2{fill:url(#linear-gradient-2)}.cls-3{fill:url(#linear-gradient-3)}.cls-4{fill:#fff}.cls-5{fill:#1f2133}.cls-6{fill:#c3ff00}.cls-7{fill:#2d2f49}</style><linearGradient id="linear-gradient" x1="18.58" y1="53.61" x2="18.58" y2="60.57" gradientUnits="userSpaceOnUse"><stop offset="0" stop-color="#575757"/><stop offset=".17" stop-color="#626262"/><stop offset=".46" stop-color="#7f7f7f"/><stop offset=".84" stop-color="#afafaf"/><stop offset="1" stop-color="#c4c4c4"/></linearGradient><linearGradient id="linear-gradient-2" x1="175.78" y1="53.2" x2="175.78" y2="60.05" xlink:href="#linear-gradient"/><linearGradient id="linear-gradient-3" x1="-1.06" y1="34.51" x2="194.14" y2="34.51" gradientUnits="userSpaceOnUse"><stop offset="0" stop-color="#e6e6e6"/><stop offset=".23" stop-color="#f0f0f0"/><stop offset=".52" stop-color="#f7f7f7"/><stop offset=".78" stop-color="#f0f0f0"/><stop offset="1" stop-color="#e6e6e6"/></linearGradient></defs><title>Asset 1</title><g id="Layer_2" data-name="Layer 2"><g id="Capa_1" data-name="Capa 1"><path class="cls-1" d="M37.16 8.85C30.83 15.9 22 23.73 11.58 32.62 7.79 34 3.91 35.2 0 36.18a183.6 183.6 0 0 1 20.07 24.39c7.5-27.63 14.5-40.48 17.09-51.72z"/><path class="cls-2" d="M157.45 9.14c6.27 6.91 15 14.57 25.19 23.23 3.75 1.31 7.59 2.48 11.45 3.41A179 179 0 0 0 173.93 60c-7.28-27.24-14-39.86-16.48-50.86z"/><path class="cls-3" d="M194.14 35.8c-.17.43-4 3.31-18 11.67C162.18 55 138 68 97.09 69 56.14 68.25 32 55.34 18 47.85 4 39.51.18 36.59 0 36.17 8.62 20.49 17.08 11.66 17.08 0c.15 0 26.75 6.17 80.2 6.48 53.46.07 80.27-5.85 80.41-5.85 0 11.29 8.13 19.85 16.45 35.17z"/><path class="cls-4" d="M97.28 6.48C43.83 6.17 17.23 0 17.08 0v.94c.12 0 26.58 6.15 80.22 6.5 53.64 0 80.33-5.93 80.43-5.9V.63c-.17 0-26.99 5.91-80.45 5.85z"/><path class="cls-5" d="M125.25 30.28a28.51 28.51 0 0 0-56.91 0L68 52.08h57.67z"/><path class="cls-6" d="M106.45 23.7H87.69a15.3 15.3 0 0 0-3.32 9.84c0 3.8 3.59 8.71 7.49 12.44l.53.49 2.38-1.19a8.26 8.26 0 0 0 2.31.73 8.26 8.26 0 0 0 2.31-.73l2.38 1.19.53-.49c3.9-3.73 7.49-8.64 7.49-12.44a15.3 15.3 0 0 0-3.34-9.84z"/><path class="cls-4" d="M97 52.39a27.79 27.79 0 0 1-5-.73l-1.53-.38 1.26-3.21-1-.93a36.4 36.4 0 0 1-5.46-6.5 13.66 13.66 0 0 1-2.53-7.1 17.19 17.19 0 0 1 3.56-10.66v-.12A1.7 1.7 0 0 1 87.55 21c.39-.14 1-.31 1.63-.48l.21-.35a.69.69 0 0 0 .08-.2l.16-1.56h.61a59.51 59.51 0 0 0 5-3.78l.57-.47 1.31 1.24 1.31-1.24.57.47a59.53 59.53 0 0 0 5 3.78h.61l.16 1.56c.08.34.31.52 1.31.82.63.19 1.93.58 1.86 1.93v.12a17.18 17.18 0 0 1 3.52 10.67 13.66 13.66 0 0 1-2.53 7.1 36.36 36.36 0 0 1-5.44 6.49l-1 .94 1.26 3.21-1.53.38a27.93 27.93 0 0 1-5 .73H97zm4.46-7.83c3.15-3.09 6.71-7.72 6.71-11a15.11 15.11 0 0 0-1-5.35 52.27 52.27 0 0 1-3.16 11 46.65 46.65 0 0 1-2.61 5.39zM86.91 28.19a15.1 15.1 0 0 0-1 5.35c0 3.29 3.55 7.92 6.71 11a46.66 46.66 0 0 1-2.61-5.39 52.26 52.26 0 0 1-3.1-10.96z"/><path class="cls-7" d="M107 23.2v-.45c0-.7-.66-.91-1.27-1.09-1-.29-1.71-.59-1.89-1.48l-.09-.86c-.52 0-5.35-4-5.35-4l-1.35 1.28-1.33-1.3s-4.83 4-5.35 4l-.09.86a1.52 1.52 0 0 1-.2.49 31.65 31.65 0 0 1 3.35-.22c-.08 0-4.15.87-5.59 1.38-.42.17-.76.42-.73.91v.45a16.16 16.16 0 0 0-3.5 10.34A12.88 12.88 0 0 0 86 40.2a35.52 35.52 0 0 0 5.32 6.33l.93.85 2.49-1.25v.07c-.16 1.07 4.39 1.37 4.48 1.36a23.09 23.09 0 0 1-2.81 0c-.67 0-1.3-.07-1.82-.12.07 1.33 4.83 1.44 4.94 1.43a29.15 29.15 0 0 1-3.64 0c-1.52-.05-2.88-.21-3.44-.28l-.81 2.07.62.15a27 27 0 0 0 4.8.7 27 27 0 0 0 4.8-.7l.61-.15-.82-2.1h-.38c-.86 0-1.45-1.2-1.54-1.39l-.28-1 2.4 1.2.92-.84a35.52 35.52 0 0 0 5.32-6.33 12.87 12.87 0 0 0 2.4-6.65A16.16 16.16 0 0 0 107 23.2zM92.38 45.43c-3.51-3.36-7.25-8.24-7.25-11.88a15.36 15.36 0 0 1 2.23-8.12 50.72 50.72 0 0 0 3.48 13.42 42.91 42.91 0 0 0 3 6l-1.33.67zm9.39 0l-.14.13-1.33-.67a42.9 42.9 0 0 0 3-6 50.72 50.72 0 0 0 3.48-13.42 15.36 15.36 0 0 1 2.22 8.08c0 3.64-3.73 8.52-7.24 11.88z"/><path class="cls-4" d="M104.34 26.9c0-5.62-3.94-5.47-4.62-5.47s-2.5 1.47-2.65 1.57c-.15-.12-2-1.59-2.65-1.59s-4.62-.14-4.62 5.47c2.58 0 3.7 7.87 3.7 7.87a3.27 3.27 0 0 0-.16 1A3.62 3.62 0 0 0 97 39.27a3.62 3.62 0 0 0 3.71-3.49 3.27 3.27 0 0 0-.16-1s1.21-7.88 3.79-7.88z"/><path class="cls-7" d="M97.08 39.83h-.59a4.15 4.15 0 0 1-3.71-4 3.82 3.82 0 0 1 .15-1.05c-.45-3.06-1.7-7.27-3.13-7.27h-.56v-.61c0-2.46.72-4.21 2.14-5.2a5 5 0 0 1 2.92-.83h.12a6.35 6.35 0 0 1 2.65 1.44 6.35 6.35 0 0 1 2.65-1.44h.12a5 5 0 0 1 2.92.83c1.42 1 2.14 2.73 2.14 5.2v.56h-.56c-1.42 0-2.68 4.21-3.13 7.27a3.82 3.82 0 0 1 .15 1.05 4.15 4.15 0 0 1-3.71 4zm-6.72-13.4c1.1.35 2 1.74 2.78 4.24a29.75 29.75 0 0 1 .9 4v.25a2.72 2.72 0 0 0-.13.84 3.07 3.07 0 0 0 3.16 2.93 3.07 3.07 0 0 0 3.16-2.93 2.72 2.72 0 0 0-.13-.84v-.25a29.75 29.75 0 0 1 .9-4c.76-2.5 1.68-3.89 2.78-4.24-.13-2.91-1.48-4.45-3.93-4.45h-.12a8.4 8.4 0 0 0-2.3 1.46l-.35.28-.35-.28A8.34 8.34 0 0 0 94.42 22h-.12c-2.45 0-3.81 1.52-3.94 4.43z"/><path class="cls-7" d="M100.68 28.4l-.77-2.63 2.62-.85-.35-1.08-3.16 1-.51.15 1.07 3.65a19.11 19.11 0 0 1-2.51.55 19.12 19.12 0 0 1-2.51-.55L95.63 25l-.51-.15-3.16-1-.35 1.08 2.62.85-.78 2.65a4.42 4.42 0 0 0-1.15 1.37 3.93 3.93 0 0 0 .12 2.65l1.06-.45a2.9 2.9 0 0 1-.15-1.76 2.89 2.89 0 0 1 .62-.79c.71.59 2 1 2.56 1.66v2.26a3.64 3.64 0 0 1-1.43.42 3.11 3.11 0 0 1-1.6-.79l-.77.83A4.21 4.21 0 0 0 95.07 35a4.73 4.73 0 0 0 2-.57 4.73 4.73 0 0 0 2 .57 4.21 4.21 0 0 0 2.36-1.13l-.77-.83a3.18 3.18 0 0 1-1.59.83 3.64 3.64 0 0 1-1.43-.42v-2.29c.59-.66 1.86-1.07 2.57-1.66a2.9 2.9 0 0 1 .63.8 2.84 2.84 0 0 1-.15 1.76l1.06.41a3.93 3.93 0 0 0 .12-2.65 4.45 4.45 0 0 0-1.19-1.42zm-3.61 6.85l-2.05.8h4.1l-2.05-.8z"/><path class="cls-6" d="M96.93 17.81l-1.39-1a33.47 33.47 0 0 1-4.16 2.86l5.55-1.06z"/></g></g></svg>