<?xml version="1.0" encoding="utf-8"?>
<!-- Generator: Adobe Illustrator 16.0.0, SVG Export Plug-In . SVG Version: 6.00 Build 0)  -->
<!DOCTYPE svg PUBLIC "-//W3C//DTD SVG 1.1//EN" "http://www.w3.org/Graphics/SVG/1.1/DTD/svg11.dtd">
<svg version="1.1" id="Layer_1" xmlns="http://www.w3.org/2000/svg" xmlns:xlink="http://www.w3.org/1999/xlink" viewBox="0 0 96 96" enable-background="new 0 0 96 96" xml:space="preserve">
<g transform="rotate(232 48 48)">
	<defs>
		<rect id="SVGID_1_" width="96" height="96"/>
	</defs>
	<clipPath id="SVGID_2_">
		<use xlink:href="#SVGID_1_"  overflow="visible"/>
	</clipPath>
	<path clip-path="url(#SVGID_2_)" fill="#2D2F49" d="M95.329,49.634c-0.122-6.379-1.507-12.739-4.063-18.554
		c-2.548-5.82-6.246-11.092-10.785-15.449c-4.537-4.36-9.918-7.806-15.741-10.079c-5.821-2.283-12.079-3.374-18.261-3.241
		C40.295,2.433,34.14,3.777,28.51,6.256c-5.634,2.47-10.738,6.055-14.955,10.454c-4.219,4.396-7.552,9.609-9.749,15.246
		c-2.205,5.635-3.256,11.69-3.124,17.677c0.122,5.987,1.428,11.94,3.829,17.384c2.394,5.448,5.866,10.383,10.124,14.459
		c4.256,4.079,9.3,7.299,14.751,9.419c5.45,2.128,11.302,3.139,17.093,3.008c5.791-0.123,11.54-1.389,16.799-3.713
		c5.261-2.317,10.029-5.675,13.964-9.794c3.939-4.115,7.046-8.99,9.088-14.257c1.244-3.192,2.088-6.525,2.533-9.902
		c0.119,0.006,0.238,0.01,0.359,0.01c3.372,0,6.105-2.732,6.105-6.105c0-0.171-0.009-0.34-0.022-0.508H95.329z M85.626,65.848
		c-2.239,5.076-5.484,9.674-9.463,13.47c-3.976,3.798-8.682,6.793-13.762,8.758c-5.079,1.974-10.521,2.905-15.922,2.775
		c-5.4-0.125-10.743-1.312-15.63-3.48c-4.89-2.163-9.321-5.295-12.976-9.132c-3.658-3.836-6.538-8.374-8.426-13.268
		C7.551,60.077,6.658,54.837,6.79,49.633c0.123-5.205,1.271-10.343,3.363-15.045c2.085-4.704,5.104-8.965,8.801-12.481
		c3.696-3.516,8.065-6.284,12.773-8.095c4.707-1.819,9.744-2.672,14.753-2.542c5.009,0.124,9.944,1.232,14.46,3.247
		c4.518,2.008,8.611,4.913,11.986,8.47c3.377,3.555,6.03,7.757,7.765,12.279c1.741,4.522,2.555,9.355,2.426,14.167h0.023
		c-0.015,0.168-0.023,0.338-0.023,0.509c0,3.149,2.385,5.742,5.447,6.07C87.97,59.534,86.986,62.778,85.626,65.848"/>
	<defs>
		<path id="SVGID_3_" d="M46.479,2.313C40.296,2.435,34.14,3.78,28.51,6.259c-5.634,2.471-10.738,6.055-14.954,10.455
			c-4.219,4.395-7.552,9.608-9.75,15.246C1.601,37.594,0.55,43.649,0.682,49.637c0.123,5.987,1.429,11.94,3.83,17.383
			c2.394,5.449,5.865,10.384,10.124,14.459c4.256,4.079,9.3,7.3,14.751,9.42c5.364,2.094,11.117,3.101,16.818,3.008V90.84
			c-5.306-0.158-10.551-1.334-15.356-3.466c-4.889-2.164-9.32-5.295-12.975-9.133c-3.659-3.836-6.539-8.373-8.427-13.269
			C7.552,60.08,6.658,54.839,6.789,49.636c0.124-5.206,1.271-10.344,3.364-15.045c2.085-4.704,5.104-8.967,8.8-12.481
			c3.696-3.517,8.065-6.285,12.774-8.096c4.707-1.818,9.744-2.672,14.752-2.542c5.009,0.125,9.945,1.232,14.461,3.247
			c4.517,2.009,8.61,4.914,11.984,8.47c3.377,3.555,6.031,7.758,7.766,12.28c1.741,4.521,2.555,9.354,2.426,14.167h0.022
			c-0.014,0.168-0.022,0.337-0.022,0.509c0,3.149,2.385,5.741,5.447,6.07c0,0,0.538,0.036,0.658,0.036
			c3.373,0,6.106-2.734,6.106-6.106c0-0.172-0.008-0.34-0.023-0.508h0.024c-0.122-6.38-1.507-12.74-4.063-18.555
			c-2.548-5.82-6.246-11.092-10.784-15.448c-4.537-4.36-9.917-7.807-15.741-10.08c-5.506-2.159-11.402-3.252-17.257-3.252
			C47.148,2.302,46.813,2.306,46.479,2.313"/>
	</defs>
	<clipPath id="SVGID_4_">
		<use xlink:href="#SVGID_3_"  overflow="visible"/>
	</clipPath>

		<linearGradient id="SVGID_5_" gradientUnits="userSpaceOnUse" x1="-4.882813e-004" y1="96.001" x2="1.0005" y2="96.001" gradientTransform="matrix(0 -91.6092 -91.6092 0 8842.4805 93.9375)">
		<stop  offset="0" style="stop-color:#2D2F49"/>
		<stop  offset="0.239" style="stop-color:#2D2F49"/>
		<stop  offset="0.439" style="stop-color:#C3FF00"/>
		<stop  offset="1" style="stop-color:#C3FF00"/>
	</linearGradient>
	<rect x="0.55" y="2.302" clip-path="url(#SVGID_4_)" fill="url(#SVGID_5_)" width="94.779" height="91.697"/>
	<animateTransform values="0,48,48;360,48,48" attributeName="transform" type="rotate" repeatCount="indefinite" dur="1200ms"></animateTransform>
</g>
<g>
	<defs>
		<rect id="SVGID_6_" width="96" height="96"/>
	</defs>
	<clipPath id="SVGID_7_">
		<use xlink:href="#SVGID_6_"  overflow="visible"/>
	</clipPath>
	<path clip-path="url(#SVGID_7_)" fill="#C3FF00" d="M60.429,33.648l-14.642-0.044h-0.01h-0.009l-14.642,0.044
		c-2.501,2.855-5.176,8.34-5.176,15.365c0,5.933,5.607,13.592,11.689,19.417l0.829,0.763l3.708-1.859c0,0,2.435,1.144,3.601,1.144
		c1.167,0,3.601-1.144,3.601-1.144l3.709,1.859l0.829-0.763c6.081-5.825,11.688-13.484,11.688-19.417
		C65.604,41.988,62.93,36.503,60.429,33.648"/>
	<path clip-path="url(#SVGID_7_)" fill="#FFFFFF" d="M45.695,78.425c-3.739-0.142-7.59-1.092-7.752-1.133l-2.389-0.593l1.962-5.013
		l-1.573-1.449c-3.445-3.299-6.384-6.8-8.518-10.141c-2.624-4.107-3.954-7.836-3.954-11.084c0-7.396,2.789-13.379,5.501-16.659
		c-0.004-0.064-0.008-0.128-0.011-0.193c-0.044-0.85,0.258-2.006,1.95-2.69c0.609-0.219,1.52-0.483,2.537-0.752l0.329-0.541
		c0.063-0.102,0.104-0.199,0.131-0.308l0.252-2.434h0.955c0.953-0.501,4.671-3.385,7.735-5.903l0.883-0.726l2.044,1.939l2.044-1.939
		l0.883,0.726c3.063,2.518,6.783,5.402,7.735,5.903h0.955l0.251,2.437c0.126,0.525,0.484,0.807,2.044,1.275
		c0.979,0.293,3.014,0.903,2.903,3.013c-0.003,0.065-0.007,0.129-0.011,0.193c2.713,3.28,5.502,9.263,5.502,16.659
		c0,3.248-1.331,6.977-3.954,11.084c-2.135,3.341-5.074,6.842-8.5,10.124l-1.592,1.466L56,76.699l-2.39,0.594
		c-0.162,0.04-4.021,0.99-7.752,1.132l-0.049,0.002L45.695,78.425z M52.653,66.202c4.918-4.815,10.473-12.054,10.473-17.189
		c0-3.403-0.678-6.214-1.487-8.356c-1.219,7.15-3.282,13.129-4.928,17.127c-1.583,3.845-3.11,6.723-4.077,8.409L52.653,66.202z
		 M29.915,40.657c-0.809,2.142-1.487,4.954-1.487,8.356c0,5.13,5.543,12.357,10.474,17.189l0.019-0.009
		c-0.968-1.688-2.495-4.565-4.077-8.409C33.197,53.786,31.134,47.807,29.915,40.657"/>
	<path clip-path="url(#SVGID_7_)" fill="#2D2F49" d="M61.319,32.868l-0.064-0.075c0.014-0.234,0.033-0.464,0.046-0.699
		c0.057-1.095-1.026-1.42-1.982-1.707c-1.53-0.458-2.666-0.913-2.952-2.308l-0.139-1.349c-0.805,0-8.345-6.198-8.345-6.198
		l-2.105,1.998l-2.105-1.998c0,0-7.54,6.198-8.345,6.198l-0.139,1.349c-0.062,0.3-0.17,0.549-0.306,0.772
		c1.461-0.174,3.229-0.317,5.235-0.341c-0.127-0.01-6.486,1.356-8.722,2.161c-0.651,0.263-1.182,0.649-1.142,1.423
		c0.012,0.235,0.032,0.465,0.046,0.699l-0.065,0.075c-2.644,3.018-5.47,8.845-5.47,16.145c0,2.997,1.262,6.492,3.751,10.387
		c2.08,3.257,4.952,6.675,8.304,9.887l1.448,1.333l3.883-1.946l-0.037,0.106c0.004-0.003,0.009-0.006,0.013-0.01
		c-0.256,1.676,6.851,2.141,6.993,2.129c-1.433,0.113-2.968,0.1-4.381,0.034c-1.05-0.035-2.034-0.109-2.833-0.187
		c0.114,2.071,7.543,2.25,7.708,2.236c-1.863,0.146-3.864,0.122-5.684,0.031c-2.372-0.082-4.494-0.33-5.369-0.444l-1.264,3.229
		l0.96,0.239c0.157,0.039,3.895,0.959,7.488,1.095l0.033,0.001l0.032-0.001c3.593-0.136,7.331-1.056,7.488-1.095l0.96-0.239
		l-1.283-3.279h-0.593c-1.346,0-2.268-1.873-2.406-2.173l-0.435-1.604l3.745,1.877l1.432-1.317l0.017-0.016
		c3.352-3.212,6.224-6.63,8.304-9.887c2.489-3.895,3.751-7.39,3.751-10.387C66.789,41.713,63.965,35.886,61.319,32.868
		 M38.449,67.566c-5.472-5.243-11.316-12.868-11.316-18.554c0-5.32,1.619-9.738,3.475-12.673c0.984,8.701,3.416,16.058,5.432,20.952
		c2.037,4.947,3.97,8.25,4.703,9.436l-2.075,1.04L38.449,67.566z M53.104,67.566l-0.218,0.201l-2.075-1.04
		c0.731-1.185,2.665-4.488,4.703-9.436c2.015-4.895,4.446-12.251,5.431-20.952c1.856,2.935,3.475,7.353,3.475,12.673
		C64.42,54.698,58.576,62.323,53.104,67.566"/>
	<path clip-path="url(#SVGID_7_)" fill="#FFFFFF" d="M57.128,38.639c0-8.766-6.144-8.541-7.22-8.541
		c-1.031,0-3.897,2.29-4.131,2.478c-0.234-0.188-3.1-2.478-4.131-2.478c-1.075,0-7.22-0.225-7.22,8.541
		c4.025,0,5.772,12.286,5.772,12.286c-0.162,0.5-0.25,1.028-0.25,1.576c0,2.994,2.591,5.424,5.797,5.448v0.001
		c0.005,0,0.01,0,0.015,0c0.006,0,0.011,0,0.017,0s0.012,0,0.017,0s0.011,0,0.016,0v-0.001c3.206-0.024,5.796-2.454,5.796-5.448
		c0-0.548-0.088-1.076-0.25-1.576C51.356,50.925,53.104,38.639,57.128,38.639"/>
	<path clip-path="url(#SVGID_7_)" fill="#2D2F49" d="M54.661,30.53c-1.241-0.863-2.775-1.3-4.56-1.3h-0.193
		c-1.023,0-2.854,1.257-4.131,2.241c-1.277-0.984-3.108-2.241-4.131-2.241h-0.193c-1.785,0-3.32,0.437-4.56,1.299
		c-2.213,1.538-3.336,4.267-3.336,8.111v0.868h0.869c1.39,0,2.674,2.567,3.614,5.658c0.081,1.057,0.418,1.983,0.478,2.14l0.09-0.035
		c0.172,0.71,0.322,1.421,0.452,2.117l-0.081,0.088c0.02,0.019,0.066,0.06,0.117,0.103c0.079,0.436,0.153,0.865,0.214,1.279
		c-0.154,0.535-0.231,1.088-0.231,1.645c0,3.18,2.531,5.833,5.797,6.258v0.059l0.918,0.001l0.884-0.002V58.76
		c3.266-0.425,5.796-3.078,5.796-6.258c0-0.557-0.077-1.109-0.23-1.645c0.061-0.414,0.135-0.845,0.215-1.279
		c0.049-0.043,0.096-0.084,0.115-0.103l-0.08-0.088c0.13-0.698,0.281-1.412,0.453-2.125l0.113,0.043
		c0.062-0.162,0.419-1.14,0.484-2.238c0.938-3.046,2.208-5.56,3.583-5.56h0.868V38.64C57.996,34.796,56.874,32.068,54.661,30.53
		 M39.926,43.926c0.207-0.436,0.588-0.871,0.967-1.23c1.109,0.916,3.09,1.557,4.001,2.584v3.531
		c-0.566,0.282-1.487,0.657-2.231,0.657c-0.594,0-1.406-0.459-2.002-0.898c-0.204-1.004-0.487-2.248-0.859-3.532
		C39.768,44.618,39.79,44.213,39.926,43.926 M50.53,51.191c0.138,0.426,0.208,0.866,0.208,1.311c0,2.504-2.214,4.558-4.935,4.579
		h-0.024h-0.028c-2.721-0.021-4.935-2.075-4.935-4.579c0-0.444,0.07-0.885,0.208-1.311l0.062-0.19l-0.023-0.158
		c0.505,0.224,1.052,0.392,1.6,0.392c1.209,0,2.469-0.557,3.114-0.889c0.644,0.332,1.904,0.889,3.113,0.889
		c0.549,0,1.097-0.168,1.602-0.392l-0.023,0.158L50.53,51.191z M51.788,44.914c-0.389,1.326-0.684,2.616-0.894,3.652
		c-0.547,0.404-1.366,0.902-2.005,0.902c-0.742,0-1.663-0.375-2.229-0.656v-3.531c0.915-1.033,2.908-1.674,4.014-2.597
		c0.381,0.36,0.768,0.799,0.978,1.242C51.774,44.183,51.808,44.536,51.788,44.914 M52.695,42.298
		c-0.411-0.536-0.892-0.997-1.282-1.32l-1.202-4.106l4.089-1.321l-0.543-1.681l-4.935,1.594l-0.796,0.233l1.67,5.703
		c-1.376,0.362-3.369,0.859-3.913,0.859h-0.001v-0.001c-0.001,0.001-0.003,0.001-0.005,0.001c-0.001,0-0.003,0-0.005-0.001v0.001
		h-0.001c-0.544,0-2.537-0.498-3.913-0.859l1.67-5.703l-0.796-0.233l-4.935-1.594l-0.543,1.681l4.089,1.321l-1.21,4.132
		c-0.39,0.325-0.862,0.784-1.266,1.315c-1.022-2.514-2.196-3.984-3.556-4.413c0.201-4.544,2.314-6.939,6.142-6.939l0.186,0.001
		c0.456,0.033,2.067,1.058,3.594,2.286l0.544,0.438l0.544-0.438c1.526-1.228,3.138-2.253,3.587-2.286l0.193-0.001
		c3.827,0,5.94,2.395,6.142,6.939C54.886,38.333,53.715,39.796,52.695,42.298"/>
	<polygon clip-path="url(#SVGID_7_)" fill="#2D2F49" points="42.574,52.923 45.776,52.923 48.98,52.923 45.776,51.675 	"/>
	<path clip-path="url(#SVGID_7_)" fill="#C3FF00" d="M45.559,24.445l-2.163-1.566c0,0-3.488,2.825-6.493,4.458l8.656-1.66V24.445z"
		/>
	<animate attributeName="opacity"
           values="0;1;0" dur="1s"
           repeatCount="indefinite"/>
</g>
</svg>
