<svg xmlns="http://www.w3.org/2000/svg">

    <!-- Main Nav Header -->
    <defs>
        <!--
         Original dimensions: width="13.51" height="12.67"
         Style via: fill
         -->
        <symbol id="svg-icon-user-icon" viewBox="0 0 13.51 12.67">
            <g>
                <path d="M11.82 9.5A12.13 12.13 0 0 0 8 7.76a8.83 8.83 0 0 0 1.17-2.32 5.29 5.29 0 0 0 .15-1.74 7.72 7.72 0 0 0 0-1.77A2.34 2.34 0 0 0 6.74 0a2.35 2.35 0 0 0-2.57 1.93 8.84 8.84 0 0 0 0 1.77 4.51 4.51 0 0 0 .19 1.74 7.7 7.7 0 0 0 1.11 2.32A12.47 12.47 0 0 0 1.69 9.5C0 10.29 0 11.17 0 11.17v.34a1.3 1.3 0 0 0 1.23 1.16h11a1.23 1.23 0 0 0 1.25-1.21v-.29s.01-.88-1.66-1.67z"/>
            </g>
        </symbol>
    </defs>
    <defs>
        <!--
         Original dimensions: width="21.55" height="20.64"
         Style via: fill
         -->
        <symbol id="svg-icon-main-menu">
            <g>
                <path d="M0 0h21.55v4.05H0zM0 8.29h21.55v4.05H0zM0 16.58h21.55v4.05H0z"/>
            </g>
        </symbol>
    </defs>
    <defs>
        <!--
         Original dimensions: width="18" height="18"
         Style via: fill
         -->
        <symbol id="svg-icon-main-menu-close">
            <g stroke-width="2" stroke-linecap="round" stroke-linejoin="round" fill="none" fill-rule="evenodd">
                <path d="M1.333 1.333l15.334 15.334M16.667 1.333L1.333 16.667"/>
            </g>
        </symbol>
    </defs>
    <defs>
        <!--
         Original dimensions: width="9" height="10.64"
         Style via: fill
         -->
        <symbol id="svg-icon-user-popbox-logout" viewBox="0 0 9 10.64">
            <path d="M3.27 8.93l3-3-3-2.93v1.91H.82v2.45h2.45zM.82 0H0v4.09h1.64V1.64h5.72v9H9V0zM0 8.18v2.45h1.64V8.18H0z"/>
        </symbol>
    </defs>
    <defs>
        <!--
         Original dimensions: width="12.2" height="12.2"
         Style via: fill
         -->
        <symbol id="svg-icon-user-popbox-account" viewBox="0 0 12.2 12.2">
            <path d="M4.95 5.84l-.55.49 1.32 1.48 2.39-2.42-.43-.56-1.93 1.59zm0 0"/>
            <path d="M6.1 0a6.1 6.1 0 1 0 6.1 6.1A6.1 6.1 0 0 0 6.1 0zm0 9.47c-3.1 0-3.36-5.31-3.36-5.31L6.1 2.73l3.36 1.43S9.24 9.47 6.1 9.47zm0 0"/>
        </symbol>
    </defs>

    <!-- Lobby -->
    <defs>
        <!--
         Original dimensions: width="12" height="12"
         Style via: fill
         -->
        <symbol id="svg-icon-lobby-all-dates">
            <g>
                <path d="M8.9 0v2.22h.74V0zM2.22 0v2.22H3V0zm8.9 3.71v7.42H.74V3.71zm-.75 8.16a1.49 1.49 0 0 0 1.49-1.49V2.23A1.49 1.49 0 0 0 10.38.74v1.11a1.11 1.11 0 1 1-2.22 0V.74H3.71v1.11a1.11 1.11 0 0 1-2.22 0V.74A1.49 1.49 0 0 0 0 2.23v8.14a1.5 1.5 0 0 0 1.49 1.5z"/>
            </g>
        </symbol>
    </defs>

    <!-- Create Lineup -->
    <defs>
        <!--
         Original dimensions: width="12.64" height="11.81"
         Style via: fill
         -->
        <symbol id="svg-icon-back-to-lobby" viewBox="0 0 12.64 11.81">
            <g>
                <path d="M5.46 11.07L0 5.53 5.46 0v3.13c3.16 0 7.18 1.51 7.18 8.68-1.3-4.34-6.79-3.9-7.18-3.9z"/>
            </g>
        </symbol>
    </defs>
    <defs>
        <!--
         Original dimensions: width="6.85" height="6.8"
         Style via: fill
         -->
        <symbol id="svg-icon-lineup-add-player" viewBox="0 0 6.85 6.8">
            <g>
                <path d="M.34 4.41a.33.33 0 0 1-.24-.1.34.34 0 0 1-.1-.25V2.67a.33.33 0 0 1 .1-.24.33.33 0 0 1 .24-.1h2v-2A.33.33 0 0 1 2.42.1a.33.33 0 0 1 .24-.1h1.56a.33.33 0 0 1 .24.1.33.33 0 0 1 .1.24v2h1.95a.34.34 0 0 1 .24.1.33.33 0 0 1 .1.24v1.38a.34.34 0 0 1-.34.34H4.56v2.06a.33.33 0 0 1-.1.24.33.33 0 0 1-.24.1H2.66a.35.35 0 0 1-.34-.34V4.41z"/>
            </g>
        </symbol>
    </defs>
    <defs>
        <!--
         Original dimensions: width="19.7" height="19.7"
         Style via: fill, stroke
         -->
        <symbol id="svg-icon-lineup-clear-x" viewBox="0 0 19.7 19.7">
            <circle style="fill:none;stroke-width:2;stroke-miterlimit:10;" cx="9.8" cy="9.8" r="8.8"/>
            <path style="stroke:none;" d="M8.4 12.7c-.1.1-.1.1-.2.1s-.2 0-.2-.1l-1-1c-.1-.1-.1-.1-.1-.2s0-.2.1-.2l1.4-1.4-1.5-1.4c-.1-.1-.1-.2-.1-.3 0-.1 0-.2.1-.2L8 6.9c.1-.1.1-.1.2-.1s.2 0 .2.1l1.4 1.4 1.4-1.4c.1-.1.1-.1.2-.1s.2 0 .2.1l1 1c.2.1.2.1.2.2s0 .2-.1.2l-1.4 1.4 1.5 1.5c.1.1.1.1.1.2s0 .2-.1.2l-1.1 1.1c-.1.1-.1.1-.2.1s-.2 0-.2-.1l-1.5-1.5-1.4 1.5z"/>
        </symbol>
    </defs>

    <!-- My Contests -->
    <defs>
        <!--
         Original dimensions: width="20.5" height="18.6"
         Style via: fill
         -->
        <symbol id="svg-icon-contests-live" viewBox="0 0 20.5 18.6">
            <path d="M9.3 0C4.2 0 0 4.2 0 9.3c0 5.1 4.2 9.3 9.3 9.3.4 0 .7-.3.7-.7 0-.4-.3-.7-.7-.7-4.4 0-8-3.6-8-8s3.6-8 8-8 8 3.6 8 8c0 0 0 1.4-.4 2.8l-.6-1.5c-.1-.3-.5-.5-.8-.4-.3.1-.5.5-.4.8l1.2 2.9v.1l.1.1.1.1H17.3l2.9-1.7c.3-.2.4-.6.2-.9-.2-.3-.6-.4-.9-.2l-1.3.7c.4-1.5.3-2.8.3-2.9.1-4.9-4-9.1-9.2-9.1zm0 0"/>
            <path d="M8.9 10.5c.1 0 .1.1.2.1H9.4c.1 0 .1-.1.1-.1l4.1-4.1c.3-.3.3-.7 0-.9-.3-.3-.7-.3-.9 0L9 9.2 5.7 7.8c-.3-.1-.7 0-.9.3-.1.4 0 .7.4.9l3.7 1.5zm0 .1"/>
        </symbol>
    </defs>
    <defs>
        <!--
         Original dimensions: width="18.9" height="18.9"
         Style via: fill
         -->
        <symbol id="svg-icon-contests-upcoming" viewBox="0 0 18.9 18.9">
            <path d="M9.4 18.9C4.2 18.9 0 14.6 0 9.4S4.2 0 9.4 0s9.4 4.2 9.4 9.4c.1 5.2-4.2 9.5-9.4 9.5zm0-17.6C4.9 1.3 1.3 5 1.3 9.4c0 4.5 3.6 8.1 8.1 8.1s8.1-3.6 8.1-8.1c.1-4.4-3.6-8.1-8.1-8.1z"/>
            <circle cx="9.4" cy="9.4" r="4.6"/>
        </symbol>
    </defs>
    <defs>
        <!--
         Original dimensions: width="15.5" height="18.9"
         Style via: fill
         -->
        <symbol id="svg-icon-contests-history" viewBox="0 0 15.5 18.9">
            <path d="M15.5 4.8v12.3c0 1-.8 1.8-1.8 1.8H5.4c-1 0-1.8-.8-1.8-1.8v-8c.3 0 .5.1.8.1H5v7.9c0 .3.2.5.5.5h8.3c.3 0 .5-.2.5-.5V4.8c0-.3-.2-.5-.5-.5H9.2c0-.4-.1-.9-.2-1.3h4.7c1 0 1.8.8 1.8 1.8zM4.3 8.6C1.9 8.6 0 6.7 0 4.3S1.9 0 4.3 0s4.3 1.9 4.3 4.3-1.9 4.3-4.3 4.3zm0-.9c1.9 0 3.4-1.5 3.4-3.4S6.2.9 4.3.9.9 2.4.9 4.3s1.5 3.4 3.4 3.4zm2.6-3c.3 0 .5-.2.5-.5s-.2-.5-.5-.5H4.7V2c0-.3-.2-.5-.5-.5-.2.1-.4.3-.4.5v2.2c0 .3.2.5.5.5h2.6zm5.2 3.7H7.2c-.3 0-.5.2-.5.5s.2.5.5.5h4.9c.3 0 .5-.2.5-.5s-.2-.5-.5-.5zm0 2.8H7.2c-.3 0-.5.2-.5.5s.2.5.5.5h4.9c.3 0 .5-.2.5-.5s-.2-.5-.5-.5zm0 2.9H7.2c-.3 0-.5.2-.5.5s.2.5.5.5h4.9c.3 0 .5-.2.5-.5s-.2-.5-.5-.5zm0 0"/>
        </symbol>
    </defs>

    <!-- Tournament Lobby -->
    <defs>
        <!--
         Original dimensions: width="18.4" height="19"
         Style via: fill
         -->
        <svg id="svg-icon-tour-lobby-overview" viewBox="0 0 18.4 19">
            <path d="M4.7 14.4c-.1-.1-.3-.1-.5 0L.3 18.2c-.1.1-.1.3 0 .5.1.1.1.1.2.1s.2 0 .2-.1l3.9-3.8c.2-.1.2-.3.1-.5zM.6 16l2.7-2.6c.1-.1.1-.3 0-.5-.1-.1-.3-.1-.5 0L.1 15.5c-.1.2-.1.4 0 .5.1.1.1.1.2.1s.2 0 .3-.1zM6 16l-2.5 2.5c-.1.1-.1.3 0 .5h.2c.1 0 .2 0 .2-.1l2.5-2.5c.1-.1.1-.3 0-.5-.1 0-.3 0-.4.1zM10.7 0C6.4 0 2.9 3.5 2.9 7.7s3.5 7.7 7.7 7.7c4.3 0 7.7-3.5 7.7-7.7S14.9 0 10.7 0zm0 .7c1.6 0 3 .5 4.2 1.4l-2.2 2H8.6l-2.2-2C7.6 1.2 9.1.7 10.7.7zm-7.1 7c0-2.1.9-3.9 2.3-5.2l2.2 2-1.2 3.8-3.2 1c-.1-.6-.1-1.1-.1-1.6zm6.7 7.1c-3-.1-5.6-2.2-6.4-5l3.2-1 3.2 2.3v3.7zM7.6 8.4l1.2-3.7h3.8l1.2 3.7-3.1 2.3-3.1-2.3zm3.4 6.4v-3.6l3.2-2.3 3.2 1c-.8 2.7-3.4 4.8-6.4 4.9zm3.4-6.5l-1.2-3.8 2.2-2c1.4 1.3 2.3 3.2 2.3 5.3 0 .5-.1 1-.2 1.5l-3.1-1z"/>
        </svg>
    </defs>
    <defs>
        <!--
         Original dimensions: width="25.5" height="15.6"
         Style via: fill
         -->
        <symbol id="svg-icon-tour-lobby-statistics" viewBox="0 0 25.5 15.6">
            <path d="M22 0c-1.9 0-3.5 1.6-3.5 3.5 0 .9.4 1.8 1 2.4L16 9.6c-.6-.6-1.5-1-2.5-1-1.4 0-2.6.8-3.2 2L7 9.6v-.4c0-1.9-1.6-3.5-3.5-3.5S0 7.3 0 9.2s1.6 3.5 3.5 3.5c1.4 0 2.7-.9 3.2-2.1l3.2.9c0 .2-.1.4-.1.5 0 1.9 1.6 3.5 3.5 3.5S17 14 17 12.1c0-.6-.2-1.1-.4-1.6l3.7-3.8c.5.3 1.1.5 1.7.5 1.9 0 3.5-1.6 3.5-3.5C25.5 1.6 23.9 0 22 0zM3.5 11.7C2.1 11.7 1 10.6 1 9.2s1.1-2.5 2.5-2.5S6 7.9 6 9.2s-1.1 2.5-2.5 2.5zm10 2.8c-1.4 0-2.5-1.1-2.5-2.5s1.1-2.5 2.5-2.5S16 10.6 16 12s-1.2 2.5-2.5 2.5zM22 6c-1.4 0-2.5-1.1-2.5-2.5S20.6 1 22 1s2.5 1.1 2.5 2.5S23.4 6 22 6z"/>
        </symbol>
    </defs>
    <defs>
        <!--
         Original dimensions: width="10.3" height="17.8"
         Style via: fill stroke
         -->
        <symbol id="svg-icon-tour-lobby-arrow-left" viewBox="0 0 10.3 17.8">
            <path d="M1.1 8.6c-.1.1-.1.4 0 .6l7.4 7.4c.1.1.2.1.3.1.1 0 .2 0 .3-.1.2-.2.2-.5 0-.6l-7-7.1 7.1-7.1c.2-.2.2-.5 0-.6-.2-.2-.5-.2-.6-.1L1.1 8.6zm0 0"/>
        </symbol>
    </defs>
    <defs>
        <!--
         Original dimensions: width="10.3" height="17.8"
         Style via: fill stroke
         -->
        <symbol id="svg-icon-tour-lobby-arrow-right" viewBox="0 0 10.3 17.8">
            <path d="M9.2 8.6L1.8 1.1c-.2-.1-.5-.1-.7 0-.1.2-.1.5 0 .7l7.1 7.1L1.1 16c-.2.2-.2.5 0 .6.1.1.2.1.3.1.1 0 .2 0 .3-.1l7.4-7.4c.3-.2.3-.5.1-.6zm0 0"/>
        </symbol>
    </defs>
    
    <!-- Modal -->
    <defs>
        <!--
         Original dimensions: width="10.2" height="10.2"
         Style via: fill
         -->
        <symbol id="svg-icon-modal-close-x" viewBox="0 0 10.2 10.2">
            <path d="M.7 10.2c-.2 0-.4-.1-.5-.2-.3-.3-.3-.7 0-1L9 .2c.3-.3.7-.3 1 0 .3.3.3.7 0 1L1.2 10c-.1.1-.3.2-.5.2z"/>
            <path d="M9.5 10.2c-.2 0-.4-.1-.5-.2L.2 1.2C-.1.9-.1.5.2.2s.7-.3 1 0L10 9c.3.3.3.7 0 1-.1.1-.3.2-.5.2z"/>
        </symbol>
    </defs>
    <defs>
        <!--
         Original dimensions: width="18.4" height="19"
         Style via: fill
         -->
         <symbol id="svg-icon-player-modal-overview" viewBox="0 0 18.4 19">
            <path d="M4.7 14.4c-.1-.1-.3-.1-.5 0L.3 18.2c-.1.1-.1.3 0 .5.1.1.1.1.2.1s.2 0 .2-.1l3.9-3.8c.2-.1.2-.3.1-.5zM.6 16l2.7-2.6c.1-.1.1-.3 0-.5-.1-.1-.3-.1-.5 0L.1 15.5c-.1.2-.1.4 0 .5.1.1.1.1.2.1s.2 0 .3-.1zM6 16l-2.5 2.5c-.1.1-.1.3 0 .5h.2c.1 0 .2 0 .2-.1l2.5-2.5c.1-.1.1-.3 0-.5-.1 0-.3 0-.4.1zM10.7 0C6.4 0 2.9 3.5 2.9 7.7s3.5 7.7 7.7 7.7c4.3 0 7.7-3.5 7.7-7.7S14.9 0 10.7 0zm0 .7c1.6 0 3 .5 4.2 1.4l-2.2 2H8.6l-2.2-2C7.6 1.2 9.1.7 10.7.7zm-7.1 7c0-2.1.9-3.9 2.3-5.2l2.2 2-1.2 3.8-3.2 1c-.1-.6-.1-1.1-.1-1.6zm6.7 7.1c-3-.1-5.6-2.2-6.4-5l3.2-1 3.2 2.3v3.7zM7.6 8.4l1.2-3.7h3.8l1.2 3.7-3.1 2.3-3.1-2.3zm3.4 6.4v-3.6l3.2-2.3 3.2 1c-.8 2.7-3.4 4.8-6.4 4.9zm3.4-6.5l-1.2-3.8 2.2-2c1.4 1.3 2.3 3.2 2.3 5.3 0 .5-.1 1-.2 1.5l-3.1-1z"/>
        </symbol>
    </defs>
    <defs>
        <!--
         Original dimensions: width="19.1" height="19.2"
         Style via: fill
         -->
        <symbol id="svg-icon-player-modal-matches" viewBox="0 0 19.1 19.2">
            <path d="M14 11.9c4.3-3.1 5.7-6.6 4.8-8.5-.6-1.2-2-1.7-3.9-1.3-.4-1.6-.9-2-1-2.1H5.3c-.1 0-.1 0-.2.1-.1 0-.6.5-1 2.1C2.2 1.8.8 2.2.2 3.5-.6 5.3.8 8.8 5 11.9c.4.8.9 1.4 1.3 2 .6.9 1.1 1.7 1.1 2.3 0 1.6-2.2 2.2-2.2 2.3-.2 0-.3.2-.3.4s.2.3.4.3h8.4c.2 0 .3-.1.4-.3 0-.2-.1-.3-.3-.4 0 0-2.2-.6-2.2-2.3 0-.6.5-1.4 1.1-2.3.5-.5.9-1.2 1.3-2zm1.1-9.1c1.5-.3 2.7 0 3.1.9.7 1.4-.4 4.2-3.5 6.8.4-1.1.7-2.4.7-3.9 0-1.6-.2-2.8-.3-3.8zM.9 3.8c.4-.9 1.5-1.3 3.1-1-.2 1-.3 2.2-.3 3.9 0 1.5.3 2.8.7 3.9C1.3 7.9.2 5.2.9 3.8zm10 12.4c0 1.1.6 1.8 1.3 2.2H6.9c.6-.5 1.3-1.2 1.3-2.2 0-.8-.5-1.7-1.2-2.7-.4-.6-.9-1.3-1.3-2-.7-1.3-1.2-2.8-1.2-4.8 0-4.3.8-5.7 1.1-6h8.1c.2.3 1.1 1.7 1.1 6 0 2-.5 3.6-1.2 4.8-.4.8-.8 1.4-1.3 2-.8 1.1-1.4 1.9-1.4 2.7z"/>
            <path d="M12 6.3l-1.5-.2-.7-1.4c-.1-.2-.5-.2-.6 0l-.7 1.4-1.4.2c-.1 0-.2.1-.3.2 0 .1 0 .3.1.4l1.1 1-.3 1.5c0 .1 0 .3.1.3.1.1.3.1.4 0L9.5 9l1.3.7h.2c.1 0 .1 0 .2-.1s.2-.2.1-.3L11 7.8l1.1-1c.1-.1.1-.2.1-.4 0 0-.1-.1-.2-.1zm-1.5 1.3c-.1.1-.1.2-.1.3l.2.9-.9-.4h-.4l-.8.4.2-.9c0-.1 0-.2-.1-.3l-.7-.7.9-.1c.1 0 .2-.1.3-.2l.4-.9.5.9c.1.1.2.2.3.2l.9.1-.7.7z"/>
        </symbol>
    </defs>
    <defs>
        <!--
         Original dimensions: width="25.5" height="15.6"
         Style via: fill
         -->
         <symbol id="svg-icon-player-modal-stats" viewBox="0 0 25.5 15.6">
            <path d="M22 0c-1.9 0-3.5 1.6-3.5 3.5 0 .9.4 1.8 1 2.4L16 9.6c-.6-.6-1.5-1-2.5-1-1.4 0-2.6.8-3.2 2L7 9.6v-.4c0-1.9-1.6-3.5-3.5-3.5S0 7.3 0 9.2s1.6 3.5 3.5 3.5c1.4 0 2.7-.9 3.2-2.1l3.2.9c0 .2-.1.4-.1.5 0 1.9 1.6 3.5 3.5 3.5S17 14 17 12.1c0-.6-.2-1.1-.4-1.6l3.7-3.8c.5.3 1.1.5 1.7.5 1.9 0 3.5-1.6 3.5-3.5C25.5 1.6 23.9 0 22 0zM3.5 11.7C2.1 11.7 1 10.6 1 9.2s1.1-2.5 2.5-2.5S6 7.9 6 9.2s-1.1 2.5-2.5 2.5zm10 2.8c-1.4 0-2.5-1.1-2.5-2.5s1.1-2.5 2.5-2.5S16 10.6 16 12s-1.2 2.5-2.5 2.5zM22 6c-1.4 0-2.5-1.1-2.5-2.5S20.6 1 22 1s2.5 1.1 2.5 2.5S23.4 6 22 6z"/>
        </symbol>
    </defs>
    <defs>
        <!--
         Original dimensions: width="19.9" height="19.9"
         Style via: fill
         -->
         <symbol id="svg-icon-modal-info" viewBox="0 0 19.9 19.9">
            <path d="M10 0C4.5 0 0 4.5 0 10s4.5 10 10 10 10-4.5 10-10S15.4 0 10 0zm2 15.4c-.5.2-.9.4-1.2.5-.3.1-.7.1-1.1.1-.6 0-1.1-.2-1.4-.5-.3-.3-.5-.7-.5-1.2v-.6c0-.2.1-.4.1-.6l.7-2.1c.1-.2.1-.4.1-.6 0-.2.1-.4.1-.5 0-.3-.1-.5-.2-.6-.1-.2-.3-.2-.7-.2-.2 0-.3 0-.5.1-.2 0-.3 0-.4.1l.2-.7c.4-.2.8-.3 1.2-.4.3-.2.7-.2 1-.2.6 0 1.1.1 1.4.4.3.3.5.7.5 1.2v.5c0 .2-.1.5-.1.7l-.7 2.2c-.1.2-.1.4-.1.6 0 .2-.1.4-.1.5 0 .3.1.5.2.6.1.1.4.2.7.2.2 0 .3 0 .5-.1s.3-.1.4-.1l-.1.7zm-.1-9.1c-.3.3-.7.4-1.1.4-.4 0-.8-.1-1.1-.4-.2-.3-.4-.7-.4-1 0-.4.2-.7.4-1 .3-.3.7-.4 1.1-.4.4 0 .8.1 1.1.4.3.3.4.6.4 1 .1.3-.1.7-.4 1z"/>
        </symbol>
    </defs>
    <defs>
        <!--
         Original dimensions: width="26.8" height="23.1"
         Style via: fill
         -->
         <symbol id="svg-icon-dialog-warning" viewBox="0 0 26.8 23.1">
            <path d="M14.6 14.6h-3.4V6.1h3.4v8.5zm.1 5.8h-3.4V17h3.4v3.4zm11.8.7L14.8.9C14-.4 12.8-.3 12 1L.3 21c-.8 1.3-.1 2.1 1.4 2.1h23.5c1.4 0 2-.7 1.3-2z"/>
        </symbol>
    </defs>
    
    <!-- Account -->
    <defs>
        <!--
         Original dimensions: width="19.2" height="24.1"
         Style via: fill
         -->
        <symbol id="svg-icon-account-information" viewBox="0 0 19.2 24.1">
            <path d="M19 2.8c0-.2-.2-.3-.3-.4L9.7 0h-.2l-9 2.4c-.2 0-.3.2-.3.4s-.6 4.3.3 9c.5 2.8 1.4 5.2 2.6 7.1 1.6 2.5 3.7 4.2 6.4 5.1h.2c2.7-1 4.8-2.7 6.4-5.1 1.2-1.9 2.1-4.3 2.6-7.1.9-4.7.4-8.9.3-9zm-1.1 8.8c-.5 2.7-1.3 5-2.5 6.8-1.4 2.2-3.4 3.8-5.8 4.7-2.4-.9-4.3-2.5-5.8-4.7-1.2-1.8-2-4.1-2.5-6.8C.7 7.8.9 4.2 1 3.2L9.6.9l8.6 2.3c.1 1 .4 4.6-.3 8.4z"/>
            <path d="M9.6 4.6c-3.8 0-6.8 3.1-6.8 6.8s3.1 6.8 6.8 6.8 6.8-3.1 6.8-6.8-3-6.8-6.8-6.8zm0 12.8c-1.8 0-3.3-.8-4.4-2 .4-.8.9-1.5 1.7-2 .8-.6 1.8-.9 2.8-.9s2 .3 2.8.9c.7.5 1.3 1.2 1.7 2-1.2 1.2-2.8 2-4.6 2zm-2-7.8c0-1.1.9-2 2-2s2 .9 2 2-.9 2-2 2-2-.9-2-2zm7 5c-.4-.8-1-1.4-1.7-1.9-.5-.3-1-.6-1.5-.8.7-.5 1.2-1.4 1.2-2.3 0-1.6-1.3-2.9-2.9-2.9s-3 1.3-3 2.9c0 .9.5 1.8 1.2 2.3-.5.2-1 .4-1.5.8-.7.5-1.3 1.2-1.7 1.9-.6-.9-.9-2-.9-3.2 0-3.3 2.7-5.9 5.9-5.9s5.9 2.7 5.9 5.9c0 1.2-.4 2.3-1 3.2z"/>
        </symbol>
    </defs>
    <defs>
        <!--
         Original dimensions: width="25.6" height="23.8"
         Style via: fill
         -->
        <symbol id="svg-icon-account-deposit" viewBox="0 0 25.6 23.8">
            <path d="M23.3 23.8h-21c-1.3 0-2.3-1-2.3-2.3v-16c0-1.3 1-2.3 2.3-2.3h7.3L19.5 0h.3c.2.1.2.2.3.3l.7 2.9h2.5c1.3 0 2.3 1 2.3 2.3v16c0 1.3-1 2.3-2.3 2.3zM2.3 4C1.5 4 .8 4.7.8 5.5v16c0 .8.7 1.5 1.5 1.5h21c.8 0 1.5-.7 1.5-1.5v-5H17c-1 0-1.8-.8-1.8-1.8v-2.4c0-1 .8-1.8 1.8-1.8h7.8v-5c0-.8-.7-1.5-1.5-1.5h-21zM17 11.3c-.6 0-1 .5-1 1v2.4c0 .6.5 1 1 1h7.8v-4.4H17zm-4.6-8.1H20L19.4 1l-7 2.2zM18.3 15c-.8 0-1.5-.7-1.5-1.5s.7-1.5 1.5-1.5 1.5.7 1.5 1.5-.6 1.5-1.5 1.5zm0-2.2c-.4 0-.7.3-.7.7 0 .4.3.7.7.7.4 0 .7-.3.7-.7 0-.4-.3-.7-.7-.7zm0 0"/>
        </symbol>
    </defs>
    <defs>
        <!--
         Original dimensions: width="24.6" height="18.1"
         Style via: fill
         -->
        <symbol id="svg-icon-account-withdraw" viewBox="0 0 24.6 18.1">
            <path d="M24.6 6.3c0 .2-.2.4-.4.4s-.4-.2-.4-.4V.8H.8V8h2.3c.2 0 .4.2.4.4s-.2.4-.4.4H.4c-.2-.1-.4-.3-.4-.5V.4C0 .2.2 0 .4 0h23.8c.2 0 .4.2.4.4v5.9zm-3.1 2.4h2.7c.2 0 .4-.2.4-.4s-.2-.4-.4-.4h-2.7c-.2 0-.4.2-.4.4s.2.4.4.4zm0 0"/>
            <path d="M3.9 4.7c-.2 0-.4-.2-.4-.4s.1-.3.4-.3h16.9c.2 0 .4.2.4.4s-.2.4-.4.4H3.9zm0 0M8.3 6c.2 0 .4.2.4.4s-.2.3-.4.3H5.2v7.2h14.1V6.7H18c-.2 0-.4-.2-.4-.4s.2-.3.4-.3h1.7c.2 0 .4.2.4.4v7.9c0 .2-.2.4-.4.4H4.8c-.2 0-.4-.2-.4-.4v-8c.1-.2.2-.3.4-.3h3.5zm8 0h-6.2c-.3 0-.4.1-.4.3s.2.4.4.4h6.2c.2 0 .4-.2.4-.4s-.2-.3-.4-.3zm0 0M4.8 16.4c-.2 0-.4-.2-.4-.4s.2-.4.4-.4h14.9c.2 0 .4.2.4.4s-.2.4-.4.4H4.8zm0 0M4.8 18.1c-.2 0-.4-.2-.4-.4s.2-.4.4-.4h14.9c.2 0 .4.2.4.4s-.2.4-.4.4H4.8zm0 0"/>
            <path d="M7.9 6.3c0-.2.2-.3.4-.3s.4.2.4.4c0 1 .4 1.9 1.1 2.5.6.6 1.5 1 2.5 1s1.9-.4 2.5-1c.6-.6 1.1-1.5 1.1-2.5 0-.3.1-.4.4-.4.2 0 .4.2.4.4 0 1.2-.5 2.3-1.3 3.1-.8.8-1.9 1.3-3.1 1.3-1.2 0-2.3-.5-3.1-1.3-.8-.9-1.3-2-1.3-3.2zm0 0M4.8 11.7c-.2 0-.4-.2-.4-.4s.2-.4.4-.4c.9 0 1.8.4 2.4 1 .6.6 1 1.4 1 2.4 0 .2-.2.4-.4.4s-.4-.2-.4-.4c0-.7-.3-1.4-.8-1.8-.4-.5-1-.8-1.8-.8zm0 0M19.7 10.9c.2 0 .4.2.4.4s-.2.4-.4.4c-.7 0-1.4.3-1.8.8-.5.5-.8 1.1-.8 1.8 0 .2-.2.4-.4.4s-.4-.2-.4-.4c0-.9.4-1.8 1-2.4.7-.6 1.5-1 2.4-1zm0 0"/>
        </symbol>
    </defs>
    <defs>
        <!--
         Original dimensions: width="25.3" height="26.3"
         Style via: fill
         -->
        <symbol id="svg-icon-account-transaction" viewBox="0 0 25.3 26.3">
            <path d="M14 7.2h-.8V5.1h.8V2.3L9.9 0H8.8L4.7 2.3v2.8h.8v2.1h-.8v2.5H14V7.2zm-1.7 0h-.8V5.1h.8v2.1zM8.9 5.1v2.1h-.8V5.1h.8zm.8 0h.8v2.1h-.8V5.1zM9 .8h.6l3.1 1.7H6L9 .8zm4.1 2.6v.8H5.5v-.8h7.6zM6.4 5.1h.8v2.1h-.8V5.1zm6.7 3.8H5.5v-.8h7.6v.8zM17.8 11.9h.8V3.4h-3.8v.8h3z"/>
            <path d="M17.8 25.4H4.2V22H.8V4.2h3v-.8H0v19.2l3.6 3.6h15v-3.4h-.8v2.6zm-14.4-.6l-1.9-1.9h1.9v1.9z"/>
            <path d="M13.6 11c-3 0-5.5 2.5-5.5 5.5s2.5 5.5 5.5 5.5 5.5-2.5 5.5-5.5-2.5-5.5-5.5-5.5zm0 10.2c-2.6 0-4.7-2.1-4.7-4.7s2.1-4.7 4.7-4.7 4.7 2.1 4.7 4.7-2.1 4.7-4.7 4.7z"/>
            <path d="M12.7 14.4h1.7c.5 0 .8.4.8.8h.8c0-.9-.8-1.7-1.7-1.7H14v-.8h-.8v.8h-.4c-.9 0-1.7.8-1.7 1.7 0 .9.8 1.7 1.7 1.7h1.7c.5 0 .8.4.8.8s-.4.8-.8.8h-1.7c-.5 0-.8-.4-.8-.8h-1c0 .9.8 1.7 1.7 1.7h.4v.8h.9v-.8h.4c.9 0 1.7-.8 1.7-1.7s-.8-1.7-1.7-1.7h-1.7c-.5 0-.8-.4-.8-.8s.4-.8.8-.8zM24.2 15.1l-.9 1.3h-2.8v.9h2.2l-.4.6.7.4 2.3-3.2-2.3-3.2-.7.5.4.6h-3.9v.9h4.5zM3.8 16.6h2.8v-.8H4.4l.5-.6-.7-.5-2.3 3.2 2.3 3.2.7-.5-.5-.6h4.4v-.8h-5l-.9-1.3z"/>
        </symbol>
    </defs>
    <defs>
        <!--
         Original dimensions: width="22.4" height="22.4"
         Style via: fill
         -->
        <symbol id="svg-icon-account-balance" viewBox="0 0 22.4 22.4">
            <path d="M22.1 7.5H10.8c-.2 0-.4.1-.4.4v14.2c0 .2.2.4.4.4H22c.2 0 .4-.1.4-.4V7.9c0-.3-.1-.4-.3-.4zm-.4.7v2.2H11.2v-.7h4.5V9h-4.5v-.8h10.5zM11.2 21.7V11.2h10.5v10.5H11.2zm0 0"/>
            <path d="M13.1 12h1.1v.7h-1.1zM15 12h1.1v.7H15zM16.8 12h1.1v.7h-1.1zM18.7 12h1.1v.7h-1.1zM12.3 13.8h1.5v.7h-1.5zM14.6 13.8h1.5v.7h-1.5zM16.8 13.8h1.5v.7h-1.5zM19.1 13.8h1.5v.7h-1.5zM12.3 15.3h1.5v.7h-1.5zM14.6 15.3h1.5v.7h-1.5zM16.8 15.3h1.5v.7h-1.5zM19.1 15.3h1.5v.7h-1.5zM12.3 16.8h1.5v.7h-1.5zM14.6 16.8h1.5v.7h-1.5zM16.8 16.8h1.5v.7h-1.5zM19.1 16.8h1.5v.7h-1.5zM12.3 18.3h1.5v.7h-1.5zM14.6 18.3h1.5v.7h-1.5zM16.8 18.3h1.5v.7h-1.5zM19.1 18.3h1.5v.7h-1.5zM12.3 19.8h1.5v.7h-1.5zM14.6 19.8h1.5v.7h-1.5zM16.8 19.8h1.5v.7h-1.5zM19.1 19.8h1.5v.7h-1.5zM.7 5.2h4.1c.2 0 .4-.1.4-.4V.7H18V6h.7V.4c0-.2-.1-.4-.4-.4H4.9h-.1s-.1 0-.1.1L.1 4.6s0 .1-.1.1V9h.7V5.2zm3.8-.7H1.3l3.2-3.2v3.2zm0 0M9.4 16.1H5.2v-5.2c0-.2-.1-.4-.4-.4H.4c-.2 0-.4.2-.4.4v11.2c0 .2.1.4.4.4h9c.2 0 .4-.1.4-.4v-5.6c-.1-.3-.2-.4-.4-.4zm-8.7.7h3.7V18H.7v-1.2zm3.8-.7H.7V15h3.7v1.1zm0-1.9H.7v-1.1h3.7v1.1zM.7 18.7h3.7v1.1H.7v-1.1zm4.5 0H9v1.1H5.2v-1.1zM9 18H5.2v-1.1H9V18zM.7 11.2h3.7v1.1H.7v-1.1zm0 9.4h3.7v1.1H.7v-1.1zM9 21.7H5.2v-1.1H9v1.1zm0 0"/>
            <path d="M14.2 1.9h2.6v.7h-2.6zM10.1 3.7h6.7v.7h-6.7zM16.5 9h1.1v.7h-1.1z"/>
        </symbol>
    </defs>
    <defs>
        <!--
         Original dimensions: width="23.2" height="23.2"
         Style via: fill
         -->
         <symbol id="svg-icon-account-settings" viewBox="0 0 23.2 23.2">
            <path d="M11.6 5.6c-3.3 0-6 2.7-6 6s2.7 6 6 6 6-2.7 6-6-2.7-6-6-6zm0 11.1c-2.8 0-5.1-2.3-5.1-5.1s2.3-5.1 5.1-5.1 5.1 2.3 5.1 5.1-2.3 5.1-5.1 5.1zm0 0"/>
            <path d="M22 9h-.9c-.2-.8-.5-1.6-1-2.3l.6-.6c.2-.2.3-.5.3-.8 0-.3-.1-.6-.3-.8l-2-2c-.5-.5-1.2-.5-1.7 0l-.5.5c-.7-.4-1.5-.7-2.3-1v-.8C14.2.5 13.6 0 13 0h-2.8C9.5 0 9 .5 9 1.2v.9c-.8.2-1.6.5-2.3.9l-.6-.6c-.5-.4-1.3-.4-1.7 0l-2 2c-.2.2-.3.5-.3.8 0 .3.1.6.3.8l.6.7c-.4.7-.7 1.5-.9 2.3h-.9C.5 9 0 9.5 0 10.2V13c0 .7.5 1.2 1.2 1.2h.9c.2.8.5 1.6 1 2.3l-.6.6c-.2.2-.3.5-.3.8 0 .3.1.6.3.8l2 2c.5.5 1.2.5 1.7 0l.6-.6c.7.4 1.5.7 2.3 1v.9c0 .7.5 1.2 1.2 1.2H13c.7 0 1.2-.5 1.2-1.2v-.9c.8-.2 1.6-.5 2.3-1l.6.6c.5.5 1.2.5 1.7 0l2-2c.2-.2.3-.5.3-.8 0-.3-.1-.6-.3-.8l-.6-.6c.4-.7.7-1.5 1-2.3h.8c.7 0 1.2-.5 1.2-1.2v-2.8c0-.7-.6-1.2-1.2-1.2zm.3 4c0 .2-.2.3-.3.3h-1.5l-.1.3c-.2 1-.6 1.9-1.1 2.7l-.2.3 1.1 1.1c.1.1.1.3 0 .5l-2 2c-.1.1-.3.1-.5 0l-1.1-1.1-.3.2c-.8.5-1.7.9-2.7 1.1l-.3.1V22c0 .2-.2.3-.3.3h-2.8c-.2 0-.3-.2-.3-.3v-1.5l-.3-.1c-1-.2-1.9-.6-2.7-1.1l-.3-.2-1.1 1.1c-.1.1-.3.1-.5 0l-2-2c-.1-.1-.1-.3 0-.5l1.1-1.1-.2-.3c-.5-.8-.9-1.7-1.1-2.7l-.1-.3H1.2c-.2 0-.3-.2-.3-.3v-2.8c0-.2.1-.3.3-.3h1.5l.1-.3c.2-1 .6-1.9 1.1-2.7l.2-.3L3 5.5c-.1-.2-.1-.4 0-.5l2-2c.1-.1.3-.1.5 0l1.1 1.1.3-.2c.8-.5 1.7-.9 2.6-1.1l.3-.1V1.2c0-.2.2-.3.3-.3H13c.2 0 .3.2.3.3v1.5l.3.1c1 .2 1.9.6 2.7 1.1l.3.2L17.7 3c.1-.1.3-.1.5 0l2 2c.1.1.1.3 0 .5l-1.1 1.1.2.3c.5.8.9 1.7 1.1 2.7l.1.3H22c.2 0 .3.2.3.3V13zm0 0"/>
            <path d="M11.6 7.3c-2.4 0-4.3 1.9-4.3 4.3s1.9 4.3 4.3 4.3 4.3-1.9 4.3-4.3-2-4.3-4.3-4.3zm0 7.7c-1.9 0-3.4-1.5-3.4-3.4s1.5-3.4 3.4-3.4S15 9.7 15 11.6 13.5 15 11.6 15zm0 0"/>
        </symbol>
    </defs>
</svg>