<svg xmlns="http://www.w3.org/2000/svg" width="15.2" height="8.5" viewBox="0 0 15.2 8.5"><style>.st0{fill:#fff}</style><g id="XMLID_15_"><g id="XMLID_19_"><path id="XMLID_21_" class="st0" d="M15.2 2.5c-.1-.2-.3-.5-.3-.5-.1-.1-.2-.2-.2-.3-.2-.1-.5-.1-.7-.1-.4 0-.7.1-1.1.2-.2 0-.3.1-.5.1s-.5.1-.7.1c-.5.1-.9.2-1.4.2-.1-.2-.2-.3-.3-.2-.1 0-.2.1-.2.2h-.5c0-.1-.1-.3-.3-.2 0 0-.1.1 0 .2h-.5c0-.1-.1-.3-.3-.2-.1 0-.2.1-.2.2-.2 0-.3-.1-.5-.1-.1-.1-.2-.1-.3-.1-.3 0-.6.2-.8.5-.1 0-.2.1-.3.2 0 .8-.3 1.5-.7 2 .8-.1 1.6-.2 2.4-.5 2.1-.6 3.5.1 3.8.2-.1.1-.3.1-.4.2-.3.1-.6.3-.9.4-.8.4-1.6.7-2.3 1h-.2c-.6-.5-1.4-.6-2.2-.5h-.9c-.6.4-1.2.6-2 .6h-.4c.2.5.6 1 1 1.4.2.3.4.5.6.8.1.1.2.1.3.1.1-.1.3-.1.6-.3l.2.3c0 .1.1.1.2 0l.4-.2c.1 0 .1-.1.1-.2l-.1-.3c.2-.1.3-.2.5-.2l.2.3c0 .1.1.1.2 0l.5-.2c.1 0 .1-.1.1-.2L7 7.1c.1-.1.3-.1.4-.2l.2.3c0 .1.1.1.2 0l.5-.2c.1 0 .1-.1.1-.2l-.1-.3c.8-.4 1.6-.7 2.4-1.1l.3.3c0 .1.1.1.2 0l.4-.2c.1 0 .1-.1.1-.2l-.1-.3c.2-.1.3-.2.5-.2l.2.3c0 .1.1.1.2 0l.4-.2c.1 0 .1-.1.1-.2l-.1-.4c.1-.1.3-.2.4-.2l.3.4c0 .1.1.1.2 0l.4-.2c.1 0 .1-.1.1-.2l-.1-.6c.2-.1.3-.2.5-.4.2-.1.3-.3.5-.4v-.2z"/><path id="XMLID_20_" class="st0" d="M6.2 2.2c.1-.2.3-.3.6-.4-.2 0-.3-.1-.5-.1h-.4c.1.2.2.4.3.5-.1.1-.1.1 0 0z"/></g><path id="XMLID_16_" class="st0" d="M2.7 0C1.2 0 0 1.2 0 2.7s1.2 2.7 2.7 2.7 2.7-1.2 2.7-2.7S4.2 0 2.7 0zm1.2 3.5c.1.1.1.2 0 .3-.1.2-.3.2-.4.1l-.8-.8-.7.8c-.1.1-.3.1-.4 0-.1-.1-.1-.2 0-.3l.8-.8-.8-.9c-.1-.1-.1-.2 0-.3.1-.1.2-.1.3 0l.8.8.8-.8c.1-.1.2-.1.3 0 .2.1.2.3.1.3l-.8.8.8.8z"/></g></svg>