<svg xmlns="http://www.w3.org/2000/svg" width="10.9" height="11.9" viewBox="0 0 10.9 11.9"><style>.st0{fill:#fff}</style><g id="XMLID_16_"><g id="XMLID_20_"><path id="XMLID_22_" class="st0" d="M4.7 2.8h-.2L2.9 4s-.1.1-.1.2L3.5 6c0 .1.1.1.1.1h2c.1 0 .1 0 .1-.1l.6-1.9c0-.1 0-.1-.1-.2L4.7 2.8z"/><path id="XMLID_21_" class="st0" d="M4.6 0C2.1 0 0 2.1 0 4.6c0 2.5 2.1 4.6 4.6 4.6h.2c0-.3 0-.6.1-.9h-.3c-.4 0-.9-.1-1.2-.3l-.5-1c0-.1-.1-.1-.2-.1l-1.1-.2C1.1 6.1.9 5.4.9 4.6l.9-.8s.1-.1.1-.2l-.3-1.1c.1-.2.3-.3.4-.5.4-.4.9-.7 1.5-.9l1 .6h.2l1-.6c.6.2 1.1.5 1.5.9.1.1.3.3.4.5l-.2 1.1c0 .1-.2.1-.1.2l.6.8c0 .4.1.8 0 1.2h.2c.3 0 .6 0 .9.1.1-.4.2-.8.2-1.3C9.2 2.1 7.1 0 4.6 0z"/></g><path id="XMLID_17_" class="st0" d="M8.2 6.5c-1.5 0-2.7 1.2-2.7 2.7s1.2 2.7 2.7 2.7 2.7-1.2 2.7-2.7-1.2-2.7-2.7-2.7zM9.3 10c.1.1.1.2 0 .3-.1.1-.2.1-.3 0l-.8-.8-.8.8c-.1.1-.2.1-.3 0-.1-.1-.1-.2 0-.3l.8-.8-.8-.8c-.1-.1-.1-.2 0-.3.1-.1.2-.1.3 0l.8.8.8-.8c.1-.1.2-.1.3 0 .1.1.1.2 0 .3l-.8.8.8.8z"/></g></svg>