<svg xmlns="http://www.w3.org/2000/svg" width="11.1" height="13.2" viewBox="0 0 11.1 13.2"><style>.st0{fill:#fff}</style><g id="XMLID_17_"><g id="XMLID_19_"><path id="XMLID_29_" class="st0" d="M10.4 5.6l.4-.2H10s-.1.7-.3 1.2l.5-.6.5.5-.5.5-.5-.6c0 .1-.1.3-.1.4l.3.3-.5.6-.2-.2c-.1.1-.2.2-.2.3l.1.2-.5.5-.1-.1-.3.3.1.1-.5.5-.2-.2c-.1.1-.2.2-.4.2l.3.3-.5.5-.5-.4c-.3.1-.7.2-1 .3l-.1.1-.1-.1h-.4c0 .5.1 1.1.1 1.5l-.8.7v.4c0 .1-.3.2-.2.2.1 0 0 .3.1.2l.9-.6h6.1v-1l-.2-.2.2-.2v-.6l-.3.5-.4-.5.4-.5.3.5v-.6l-.2-.2.2-.2v-.6l-.3.5-.4-.5.4-.5.3.5v-.7l-.2-.1.2-.2v-.6l-.3.5-.4-.5.4-.5.3.5v-.7l-.2-.2.2-.2v-.5l-.3.6-.4-.6zm-1 2.7l.5.5-.5.5-.5-.5.5-.5zm-.8.8l.5.5-.5.5-.5-.5.5-.5zm-3 2.3h-.4v-.5l.2-.2.5.5-.3.2zm.1-1l.5-.5.5.5-.5.5-.5-.5zm1.6 1h-.6l-.2-.2.5-.5.5.5-.2.2zm0-1l.5-.5.5.5-.5.5-.5-.5zm1.6 1h-.6l-.2-.2.5-.5.5.5-.2.2zm0-1l.5-.5.5.5-.5.5-.5-.5zm1.8.8l-.2.2h-.6l-.2-.2.5-.5.5.5zm0-1.6l-.5.5-.5-.5.5-.5.5.5zm0-1.6l-.5.5-.5-.5.5-.5.5.5z"/><g id="XMLID_20_"><g id="XMLID_24_"><path id="XMLID_25_" class="st0" d="M4.6 9.3c2.6 0 4.6-2.1 4.6-4.6.1-2.6-2-4.7-4.6-4.7C2.1 0 0 2.1 0 4.6c0 2.6 2.1 4.7 4.6 4.7zM.9 4.6l.9-.8s.1-.1.1-.2l-.3-1.1c.2-.2.3-.3.4-.5.5-.4 1-.7 1.5-.9l1 .6h.2l1-.6c.6.2 1.1.5 1.5.9.1.1.3.3.4.5l-.2 1.1c0 .1 0 .1.1.2l.9.8c0 .8-.2 1.5-.7 2.1l-1.2.2-.1.1-.5 1.1c-.4.2-.8.2-1.3.2-.4 0-.9-.1-1.3-.2L2.9 7c0-.1-.1-.1-.2-.1l-1.1-.2C1.2 6.1.9 5.4.9 4.6zm0 0"/></g><path id="XMLID_21_" class="st0" d="M3.5 6.1c0 .1.1.1.1.1h2c.1 0 .1 0 .1-.1l.6-1.9c0-.1 0-.1-.1-.2L4.7 2.8h-.2L2.9 4s-.1.1-.1.2l.7 1.9zm0 0"/></g></g></g></svg>