<svg xmlns="http://www.w3.org/2000/svg" width="14.4" height="12.5" viewBox="0 0 14.4 12.5"><style>.st0{fill:#fff}</style><g id="XMLID_15_"><path id="XMLID_26_" class="st0" d="M12.3 0c-.1 0-.1 0 0 0L6.9 1c-.1 0-.2.1-.3.2-.1.1-.1.2-.1.3l.6 3.1.3.3.3.3L7 1.5l5.3-1L13.9 9l-4.3.8-.3.3-.3.3 5-1c.2 0 .4-.3.3-.5L12.6.3c.1-.2-.1-.3-.3-.3zm0 0"/><path id="XMLID_23_" class="st0" d="M11.2 5.7l-.6-3c0-.1-.1-.2-.2-.1l-.9.1c-.1 0-.2.1-.1.2l.6 3c0 .1.1.2.2.1l.8-.1c.1 0 .2-.1.2-.2zm0 0"/><path id="XMLID_20_" class="st0" d="M11.4 7c0 .3-.3.6-.6.6s-.6-.3-.6-.6.3-.6.6-.6.6.3.6.6zm0 0"/><path id="XMLID_16_" class="st0" d="M6.2 12.5l.1.1c.1 0 .1 0 .1-.1L9 9.9l1.3-1.3c.1-.1.1-.2 0-.3L7.6 5.5l-.3-.3-3.1-3-.1-.1c-.1 0-.1 0-.1.1L.1 6c-.1.1-.1.2 0 .3l6.1 6.2zm-3-5.7c0-.1.1-.2.2-.2h1.1V5.5c0-.1.1-.2.2-.2h.8c.1 0 .2.1.2.2v1.1h1.1c.1 0 .2.1.2.2v.8c0 .1-.1.2-.2.2H5.7v1.1c0 .1-.1.2-.2.2h-.8c-.1 0-.2-.1-.2-.2V7.8H3.4c-.1 0-.2-.1-.2-.2v-.8zm0 0"/></g></svg>