<svg xmlns="http://www.w3.org/2000/svg" width="8.5" height="19.1" viewBox="0 0 8.5 19.1"><style>.st0{fill:#fff}</style><g id="XMLID_15_"><path id="XMLID_22_" class="st0" d="M6.1 8.4c.1.1.2.2.2.3l2-.8c.2-.1.3-.3.2-.5L5.5.2c0-.1-.1-.2-.3-.2h-.1L.2 2c-.2.1-.2.3-.2.5l2.3 5.6-.5.5c-.8.8-.8 1.3-1 2.8-.2.9-.6 1.3-.4 1.8.1.3.3.6.5.7l.1.1v.1l.1.1.1.1.1.1.1.1.1.1.1.1C2.9 16 3 16.2 3.9 17.2c1 1.1 1.4 2.1 1.4 2.1s3.1-1 2.8-1.6c-.3-.5-.4-1.3-.4-1.3-.1-1.8-1.5-4.1-1.4-4.1.2.2.4.3.5.3.1 0 .3-.1.4-.2.4-.3-.4-1.2-.4-1.2s.2-.1.5-.4C7.6 10.4 6 9.6 6 9.6s.7-.1.4-.7c-.3-.3-.3-.4-.4-.4-.1-.1-.2-.1-.3-.1h-.4c-.1-.1-.2-.5-.2-.5-.3-.6-.5-.7-.7-.7-.3 0-.4.2-.4.2s-.8.5-.4 2.1c0 .1 0 .2.1.3.3 1.4.1 1.8.1 1.8-.1.1-.3.2-.4.2-.2 0-.4-.2-.5-.4v-.2c-.1-.5-.1-1.2-.1-1.2l.1-.1c.1-.1.1-.2.2-.3l-.1.1c.1.1.2.2.3.2h.1c0-.1 0-.2-.1-.3h-.1v-.5l-.6-1.3L.3 2.4l4.9-2 3 7.2-2.1.8zm0 0"/><path id="XMLID_19_" class="st0" d="M4.5 6.5c.1.1.2.2.4.2h.2c.3-.1.4-.4.3-.7-.1-.3-.4-.4-.7-.3-.1 0-.2.2-.3.3-.1.1 0 .3 0 .4.1 0 .1.1.1.1zm0 0"/><path id="XMLID_16_" class="st0" d="M5 5.4L3.8 2.3l-.8.4 1.3 3 .7-.3zm0 0"/></g></svg>