<svg xmlns="http://www.w3.org/2000/svg" width="13.8" height="10.7" viewBox="0 0 13.8 10.7"><style>.st0{fill:#fff}</style><g id="XMLID_16_"><g id="XMLID_26_"><path id="XMLID_28_" class="st0" d="M10.6 9.1s-.1-.1 0 0c-.1-.1-.1-.1-.2-.1l-.4-.1-.5-.1-.4-.1h-.3l-1.2-.3h-.2s-.1 0-.1.1l-.2.2-.2 1.1c0 .2.1.4.3.4l2.2.4.6.1h.1c.1 0 .1 0 .2-.1s.1-.1.1-.2l.2-1v-.2c.1.1.1 0 0-.1zm-1.8.4h-.2c-.1 0-.2 0-.2.1-.3.1 0 .3 0 .3-.3-.1-.6-.4-.3-.7.1-.1.3-.1.5-.1h.2c.5.1 1 .3 1 .3s-.6.1-1 .1z"/><path id="XMLID_27_" class="st0" d="M13.8 6c0-.1 0-.1-.1-.2v-.1c-.1-.2-.3-.4-.5-.4h-.4l-1.3.5c0-.3.1-.8.3-1.8l.5-2v-.1c.2-.8-.8-1.3-1.1-.3l-.2.6-.1.1v.1l-.1.2.1-.5.2-1c.1-.3-.1-.6-.4-.7h-.1c-.3-.1-.6.2-.7.5l-.4 1.7.1-1.4c0-.3-.1-.6-.4-.6h-.1c-.3 0-.6.2-.6.5v.1c.6.8.9 1.8.9 2.9 0 1.7-.8 3.2-2.1 4.1.1 0 .4-.1.5-.1 0 0 2 .4 2.3.4.3.1.4.2.4.2l.1-.1c.1-.2.2-.5.3-.8l2.5-1.3.1-.1h.1c.2 0 .2-.2.2-.4z"/></g><g id="XMLID_17_"><g id="XMLID_21_"><path id="XMLID_22_" class="st0" d="M4.2 8.4c2.3 0 4.2-1.9 4.2-4.2C8.4 1.9 6.6 0 4.2 0 1.9 0 0 1.9 0 4.2c0 2.4 1.9 4.2 4.2 4.2zM.9 4.2l.8-.7s.1-.1.1-.2l-.2-1c0-.2.1-.3.2-.5.4-.3.9-.6 1.4-.8l.9.5h.2l.9-.5c.5.2 1 .4 1.4.8.1.2.2.3.4.5l-.2 1c0 .1 0 .1.1.2l.8.7c0 .7-.2 1.4-.6 1.9l-1 .2c-.1 0-.1.1-.1.1l-.4 1c-.6.1-1 .2-1.4.2-.4 0-.8-.1-1.2-.2l-.4-1c0-.1-.1-.1-.1-.1l-1-.2C1.1 5.6.9 4.9.9 4.2zm0 0"/></g><path id="XMLID_18_" class="st0" d="M3.2 5.5c0 .1.1.1.1.1h1.8c.1 0 .1 0 .1-.1l.6-1.7c0-.1 0-.1-.1-.2l-1.4-1h-.2L2.7 3.7s-.1.1-.1.2l.6 1.6zm0 0"/></g></g></svg>