<svg xmlns="http://www.w3.org/2000/svg" width="12.068" height="12.068" viewBox="0 0 12.068 12.068"><g fill="#FFF"><path d="M6.034 12.068a6.035 6.035 0 1 0-.001-12.07 6.035 6.035 0 0 0 .001 12.07zM1.229 5.982l1.113-1.024a.287.287 0 0 0 .079-.24l-.292-1.486c.151-.21.32-.41.507-.596A4.778 4.778 0 0 1 4.585 1.45l1.323.741c.07.039.183.039.252 0l1.323-.741a4.83 4.83 0 0 1 2.455 1.782l-.291 1.486a.29.29 0 0 0 .078.24l1.113 1.024.001.052c0 .994-.3 1.941-.856 2.74l-1.499.223a.281.281 0 0 0-.199.154l-.593 1.396a4.81 4.81 0 0 1-1.658.293 4.815 4.815 0 0 1-1.658-.293l-.593-1.396a.288.288 0 0 0-.2-.154l-1.498-.223a4.775 4.775 0 0 1-.856-2.74v-.052zm0 0"/><path d="M7.81 7.218a.343.343 0 0 1 0 .482l-.056.056a.342.342 0 0 1-.482 0L6.051 6.534 4.83 7.756a.342.342 0 0 1-.482 0L4.292 7.7a.342.342 0 0 1 0-.482l1.222-1.222-1.222-1.222a.343.343 0 0 1 0-.482l.056-.056a.341.341 0 0 1 .482 0l1.221 1.222 1.221-1.222a.341.341 0 0 1 .482 0l.056.057a.343.343 0 0 1 0 .482L6.588 5.996 7.81 7.218z"/></g></svg>