<svg xmlns="http://www.w3.org/2000/svg" width="15.472" height="9.366" viewBox="0 0 15.472 9.366"><path fill="#FFF" d="M7.097 3.577c.167-.241.28-.324.544-.444a8.913 8.913 0 0 0-.423-.087 1.339 1.339 0 0 0-.325-.023c.068.201.115.409.142.626.017-.023.046-.049.062-.072zM3.175 7.468a3.176 3.176 0 1 0 0-6.352 3.176 3.176 0 0 0 0 6.352zM.647 4.265l.586-.539a.151.151 0 0 0 .041-.126l-.154-.782a2.511 2.511 0 0 1 1.293-.938l.696.39a.148.148 0 0 0 .133 0l.696-.39a2.511 2.511 0 0 1 1.293.938l-.154.782a.15.15 0 0 0 .041.126l.586.539v.027a2.51 2.51 0 0 1-.451 1.442l-.788.117a.157.157 0 0 0-.105.081l-.312.735a2.533 2.533 0 0 1-1.744 0l-.313-.735a.157.157 0 0 0-.105-.081l-.789-.117a2.51 2.51 0 0 1-.451-1.442l.001-.027zm0 0"/><path fill="#FFF" d="M2.396 5.277c.013.04.058.072.1.072h1.36a.112.112 0 0 0 .1-.072l.42-1.293a.111.111 0 0 0-.038-.117l-1.1-.799a.11.11 0 0 0-.123 0l-1.1.799a.108.108 0 0 0-.039.116l.42 1.294zm13.06-1.495l-.248-.507a.77.77 0 0 0-.23-.255c-.196-.137-.458-.124-.685-.1-.344.036-.683.114-1.019.189-.144.032-.287.062-.432.09-.217.041-.434.08-.652.12-.436.08-.873.149-1.313.193-.012-.12-.132-.233-.273-.164a.175.175 0 0 0-.101.195 9.4 9.4 0 0 1-.445.018c.008-.13-.12-.271-.273-.196a.172.172 0 0 0-.102.195 8.918 8.918 0 0 1-.488-.014c.026-.136-.108-.298-.27-.218a.175.175 0 0 0-.103.183 3.12 3.12 0 0 1-.448-.092c-.103-.029-.203-.066-.309-.079-.31-.04-.601.187-.767.429-.042.062-.11.137-.177.21.013.13.039.255.039.388 0 .517-.106 1.007-.285 1.46.55-.111 1.118-.239 1.726-.406 1.961-.538 3.217.066 3.483.213a37.691 37.691 0 0 1-1.244.552c-.685.29-1.376.566-2.063.848l-.155.064c-.573-.459-1.314-.552-2.025-.547-.032 0-.065.004-.097.005a3.974 3.974 0 0 1-2.29 1.643c.062.077.123.159.184.234.212.261.432.516.648.774.047.057.14.078.207.048l.516-.232.241.291c.04.049.119.066.176.038l.405-.198a.15.15 0 0 0 .079-.162l-.076-.34.462-.209.228.276c.041.049.12.066.177.038l.405-.198a.157.157 0 0 0 .078-.163l-.073-.325.417-.189.211.255a.152.152 0 0 0 .176.038l.405-.199a.153.153 0 0 0 .078-.163l-.064-.288c.746-.327 1.494-.65 2.231-.995l.227.274c.04.049.12.066.176.038l.405-.198a.153.153 0 0 0 .078-.163l-.077-.343c.144-.072.287-.146.43-.221l.222.268c.04.049.119.066.176.038l.405-.198a.153.153 0 0 0 .078-.163l-.084-.382c.124-.072.248-.145.37-.22l.272.328c.04.049.119.066.176.038l.405-.199a.153.153 0 0 0 .078-.163l-.122-.544a9.536 9.536 0 0 0 .882-.727.192.192 0 0 0 .038-.211zM9.633.336C6.455 2.156 5.445 0 5.445 0s.012.458-.089 1.038c.527.345.954.817 1.267 1.365 1.5.047 1.808.812 4.572.418-.743-.411-2.099-1.385-1.562-2.485z"/></svg>