<svg xmlns="http://www.w3.org/2000/svg" width="11.2" height="12.9" viewBox="0 0 11.2 12.9"><style>.st0{fill:#fff}</style><g id="XMLID_16_"><g id="XMLID_18_"><path id="XMLID_29_" class="st0" d="M3 1.9c-.2-.2-.5-.3-.8-.3-.7 0-1.3.6-1.3 1.3 0 .2 0 .4.1.5.6-.7 1.3-1.2 2-1.5zm0 0"/><path id="XMLID_25_" class="st0" d="M5.6 12.9c3.1 0 5.6-2.5 5.6-5.6 0-2.8-2-5.1-4.6-5.5v-1H7c.2 0 .3-.2.3-.4S7.2 0 7 0H4.2c-.2 0-.3.2-.3.4s.1.4.3.4h.5v1c-.5.1-1 .2-1.4.4-.8.3-1.4.9-2 1.5C.5 4.7 0 5.9 0 7.3c0 3.1 2.5 5.6 5.6 5.6zM2.3 4.1c.3-.4.7-.6 1.1-.8.6-.4 1.4-.6 2.2-.6 2.6 0 4.6 2.1 4.6 4.6 0 2.6-2.1 4.6-4.6 4.6C3 12 .9 9.9.9 7.3c0-1.2.6-2.4 1.4-3.2zm0 0"/><g id="XMLID_19_"><g id="XMLID_20_"><path id="XMLID_21_" class="st0" d="M2.8 10.1c.2.2.4.3.6.5.1.1.2.1.3.2.6.3 1.2.5 1.9.5h.3c.4 0 .8-.1 1.2-.3.2-.1.3-.1.4-.2.1-.1.2-.1.3-.2.2-.1.4-.3.6-.5.7-.7 1.2-1.7 1.2-2.8s-.5-2.1-1.2-2.8c-.2-.2-.4-.3-.6-.5-.1 0-.2-.1-.3-.2-.2 0-.3-.1-.5-.2-.3-.1-.7-.2-1.2-.2h-.3c-.7 0-1.3.2-1.9.5 0 0-.1.1-.2.1-.2.2-.4.3-.6.5-.7.7-1.2 1.7-1.2 2.8s.5 2.1 1.2 2.8zm2.8-5.9v3l-3 1.1c-.5-2.1.9-4.1 3-4.1zm0 0"/></g></g></g></g></svg>