<svg xmlns="http://www.w3.org/2000/svg" width="13.7" height="11.5" viewBox="0 0 13.7 11.5"><style>.st0{fill:#fff}.st1{fill:#306297}</style><g id="XMLID_15_"><path id="XMLID_28_" class="st0" d="M13.4 0H.2C.1 0 0 .1 0 .2V8s0 .1.1.1h.2l1.2-1H12l1.2 1h.2c.1 0 .1-.1.1-.2V.2c.2-.1.1-.2-.1-.2zm-1.5 6.6h-.5l-.3-.3.5-.5.4.3c-.1.2-.1.4-.1.5zM3 .4l.3.3-.6.5-.5-.5.3-.3H3zm1.6 0l.3.3-.5.5-.6-.5.3-.3h.5zm1.7 0l.3.3-.6.5-.5-.5.3-.3h.5zm1.6 0l.3.3-.5.5-.6-.5.3-.3h.5zm1.7 0l.3.3-.6.5-.5-.5.2-.3h.6zm1.6 0l.3.3-.5.5-.5-.5.3-.3h.4zm-10 1.5l.4.4-.2.3c-.1-.3-.1-.5-.2-.7zm11 1.4l-.4.4-.5-.5.5-.5.4.3v.3zm-10.7 0v-.2l.4-.4.5.5-.5.5-.4-.4zm1.2.1l.5.6-.5.5-.5-.5.5-.6zm.3-.3l.5-.5.5.5-.5.6-.5-.6zm1.4.3l.5.6-.5.5-.6-.5.6-.6zm.3-.3l.5-.5.5.5-.5.6-.5-.6zm1.3.3l.5.6-.5.5-.5-.5.5-.6zm.3-.3l.5-.5.5.5-.5.6-.5-.6zm1.4.3l.5.6-.5.5-.6-.5.6-.6zm.2-.3l.5-.5.6.5-.5.6-.6-.6zm1.4.3l.5.6-.5.5-.5-.5.5-.6zm.3-.3l.5-.5.5.5-.5.5-.5-.5zm1.3.3l.6.6-.5.5-.6-.5.5-.6zm0-.6l-.5-.5.5-.5.5.5-.5.5zm-.8-.8l-.5-.5.5-.5.5.5-.5.5zm-.3.3l-.5.5-.5-.5.5-.5.5.5zM8.5 2l-.6-.5.6-.5.5.5-.5.5zm-.3.3l-.5.5-.6-.5.5-.5.6.5zM6.8 2l-.5-.5.5-.5.5.5-.5.5zm-.3.3l-.5.5-.5-.5.5-.5.5.5zM5.2 2l-.5-.5.5-.5.5.5-.5.5zm-.3.3l-.5.5-.6-.5.5-.5.6.5zM3.5 2L3 1.5l.5-.5.5.5-.5.5zm-.3.3l-.5.5-.5-.5.5-.5.5.5zM1.9 2l-.5-.5.5-.5.5.5-.5.5zm-.2 3v-.5l.3-.3.5.5-.6.6-.2-.3zm1 .1l.5.5-.4.5-.6-.5.5-.5zm.3-.3l.5-.5.5.5-.5.5-.5-.5zm1.4.3l.5.5-.5.5-.6-.5.6-.5zm.3-.3l.5-.5.5.5-.5.5-.5-.5zm1.3.3l.5.5-.5.5-.5-.5.5-.5zm.3-.3l.5-.5.5.5-.5.5-.5-.5zm1.4.3l.5.5-.5.5-.6-.5.6-.5zm.2-.3l.5-.5.6.5-.5.5-.6-.5zm1.4.3l.5.5-.5.5-.5-.5.5-.5zm.3-.3l.5-.5.5.5-.5.5-.5-.5zm1.3.3l.5.5-.5.5-.5-.5.5-.5zm.3-.3l.5-.5.3.2V5l-.3.3-.5-.5zm.9-2.5l.3-.3c0 .2-.1.4-.1.6l-.2-.3zm-.3-.3l-.5-.5.5-.5.5.5-.5.5zM1.6.7l-.5.5-.1-.1C.8.8.7.6.6.4h.7l.3.3zm.1 5.4l.2-.2.5.5-.2.2h-.5v-.5zm1.4.3l.5-.5.5.5-.2.2h-.6l-.2-.2zm1.6 0l.5-.5.5.5-.2.2h-.6l-.2-.2zm1.6 0l.5-.5.5.5-.2.2h-.6l-.2-.2zm1.6 0l.5-.5.6.5-.2.2h-.6l-.3-.2zm1.7 0l.5-.5.5.5-.3.3h-.5l-.2-.3zm3.1-5.3l-.1.1-.5-.5.3-.3h.6c0 .1-.1.1-.1.2-.1.1-.1.3-.2.5zM.4 7.5V.9c.1.1.2.4.3.7.5 1.5.6 3.6.6 5.2l-.9.7zm12.8 0l-.9-.7c0-1.6.1-3.7.6-5.2.1-.3.2-.5.3-.7v6.6zm0 0"/><circle id="XMLID_25_" class="st1" cx="6.7" cy="7.3" r="4.2"/><g id="XMLID_16_"><g id="XMLID_20_"><path id="XMLID_21_" class="st0" d="M6.7 10.8c1.9 0 3.5-1.6 3.5-3.5S8.6 3.8 6.7 3.8 3.2 5.4 3.2 7.3s1.6 3.5 3.5 3.5zM3.9 7.3l.7-.6s.1-.1 0-.1l-.1-.9.3-.3c.3-.4.7-.6 1.1-.8l.8.4h.1l.8-.4c.4.2.8.4 1.1.7.1.1.2.2.3.4l-.2.8v.1l.7.6c0 .6-.2 1.1-.5 1.6l-.8.2s-.1 0-.1.1l-.4.8c-.3.1-.6.2-1 .2-.3 0-.7-.1-1-.2l-.3-.8-.1-.1-.9-.1c-.3-.5-.5-1-.5-1.6zm0 0"/></g><path id="XMLID_17_" class="st0" d="M5.9 8.4l.1.1h1.5s.1 0 .1-.1L8.1 7v-.1l-1.3-1h-.1l-1.3.9s-.1.1 0 .1l.5 1.5zm0 0"/></g></g></svg>