<svg xmlns="http://www.w3.org/2000/svg" width="8.9" height="15" viewBox="0 0 8.9 15"><style>.st0{fill:#fff}.st1{fill:#306297}</style><g id="XMLID_15_"><path id="XMLID_22_" class="st0" d="M8 0H0v13.2h8.9V0H8zM6 .9v1.4H2.9V.9H6zM.9.9H2v2.3h4.9V.9H8V6H6.2c-.2-.9-1-1.6-2-1.6s-1.8.7-2 1.6H.9V.9zM3.2 6c.2-.4.6-.7 1.1-.7.5 0 .9.3 1.1.7H3.2zm2.2.9c-.2.4-.6.7-1.1.7-.5 0-.9-.3-1.1-.7h2.2zm-2.5 5.4v-1.4H6v1.4H2.9zm5.1 0H6.9V10H2v2.3H.9V6.9h1.5c.2.9 1 1.6 2 1.6s1.8-.7 2-1.6H8v5.4zm0 0"/><circle id="XMLID_19_" class="st1" cx="4.4" cy="11.8" r="3.2"/><path id="XMLID_16_" class="st0" d="M4.4 9.3c-1.4 0-2.5 1.1-2.5 2.5s1.1 2.5 2.5 2.5 2.5-1.1 2.5-2.5c.1-1.4-1.1-2.5-2.5-2.5zm1.5 2L4.1 13s-.1.1-.2.1-.1 0-.1-.1l-.9-1.1c-.1-.1-.1-.2 0-.3.1-.1.2-.1.3 0l.8.9 1.6-1.6c.1-.1.2-.1.3 0 .1.1.1.3 0 .4z"/></g></svg>