<svg xmlns="http://www.w3.org/2000/svg" width="8.2" height="19" viewBox="0 0 8.2 19"><style>.st0{fill:#fff}</style><g id="XMLID_15_"><path id="XMLID_19_" class="st0" d="M5.2.1c0-.1-.1-.1-.1-.1H5L.1 2c-.1.1-.1.2-.1.3l2.3 5.5.6 1.4.1.3c0 .1.2.1.2.1h.1v-.2c-.1-.5-.2-.9-.1-1.2.1-.8.4-1.1.5-1.1 0-.1.2-.3.5-.3.1 0 .2 0 .3.1.2.1.4.4.6.8 0 .1.1.3.2.4v.1l.1.4.4-.2h.3l.1-.1L8 7.5c.1 0 .1-.1.1-.2L5.2.1zm.7 5.5L4.3 5l-.6 1.6-.7-.3.6-1.6L2 4.1l.3-.8 1.6.6.6-1.6.8.3-.7 1.6 1.6.6-.3.8zm0 0"/><path id="XMLID_16_" class="st0" d="M.7 13.8c.1.1.1.1.2.1l.1.1v.1l.1.1.1.1.1.1.1.1C2.7 15.8 2.8 16 3.7 17c.9 1 1.3 2 1.3 2s3.1-1 2.8-1.6c-.3-.5-.4-1.3-.4-1.3-.1-1.8-1.6-4.1-1.5-4.1.2.2.4.3.5.3.1 0 .3-.1.4-.2.6-.2-.3-1.1-.3-1.1s.2-.1.5-.4c.3-.4-1.3-1.2-1.3-1.2s.6-.1.5-.6v-.1l-.9.1v-.1l-.2-.5c-.1-.1-.2-.4-.2-.4-.2-.6-.5-.8-.7-.8-.2 0-.4.2-.4.2s-.8.5-.4 2.1v.5c.2 1.3.1 1.6.1 1.6-.1.1-.3.2-.4.2-.2 0-.4-.2-.5-.4V11c-.1-.5-.1-1.2-.1-1.2l.1-.1c0-.1.1-.1.1-.1L2 8c-.1.1-.2.3-.4.5-.8.8-.8 1.3-1 2.7-.2.9-.6 1.3-.4 1.8.1.4.3.6.5.8zm0 0"/></g></svg>