<svg xmlns="http://www.w3.org/2000/svg" width="13.4" height="13.8" viewBox="0 0 13.4 13.8"><style>.st0{fill:#fff}.st1,.st2{fill:#306297}.st2{fill-rule:evenodd;clip-rule:evenodd}</style><g id="XMLID_25_"><path id="XMLID_29_" class="st0" d="M6 12.1c3.3 0 6-2.7 6-6s-2.7-6-6-6C2.7 0 0 2.7 0 6c0 3.4 2.7 6.1 6 6.1zM1.2 6l1.1-1c.1-.1.1-.2.1-.2l-.3-1.6c.2-.2.3-.4.5-.6.6-.6 1.2-1 1.9-1.2l1.3.7h.3l1.3-.7c.7.2 1.4.6 1.9 1.2.3.2.5.4.6.6l-.3 1.5c0 .1 0 .2.1.2l1.1 1V6c0 1-.3 1.9-.9 2.7L8.5 9c-.1 0-.2.1-.2.2l-.6 1.4c-.5.2-1.1.3-1.7.3-.6 0-1.1-.1-1.7-.3l-.5-1.4c0-.1-.1-.2-.2-.2l-1.5-.2C1.5 8 1.2 7 1.2 6zm0 0"/><path id="XMLID_26_" class="st0" d="M4.6 7.9c0 .1.1.1.1.1h2.6c.1 0 .2 0 .2-.1l.8-2.5c0-.1 0-.2-.1-.2l-2-1.5H6L3.8 5.2c-.1 0-.1.1-.1.2l.9 2.5zm0 0"/></g><g id="XMLID_16_"><circle id="XMLID_22_" class="st1" cx="10.2" cy="10.7" r="3.1"/><g id="XMLID_20_"><circle id="XMLID_21_" class="st0" cx="10.2" cy="10.7" r="2.5"/></g><path id="XMLID_17_" class="st2" d="M10.2 11.9l1.3-1.3-1.3-1.3v.7c-.8 0-1.7.4-1.7 2.1.3-1.1 1.7-.9 1.7-.9v.7z"/></g></svg>