<svg xmlns="http://www.w3.org/2000/svg" width="15.2" height="12.2" viewBox="0 0 15.2 12.2"><style>.st0{fill:#fff}</style><g id="XMLID_15_"><path id="XMLID_36_" class="st0" d="M15.2 6.9c-.1-.2-.2-.5-.2-.5 0-.1-.1-.2-.2-.2-.3-.2-.5-.2-.8-.2-.3 0-.7.1-1 .2-.1 0-.3.1-.4.1-.2 0-.4.1-.6.1-.4.1-.8.1-1.3.2 0-.1-.1-.2-.3-.2-.1 0-.1.1-.1.2h-.4c0-.1-.1-.3-.3-.2-.1 0-.1.1-.1.2h-.1c-.2.8-.6 1.4-1.2 1.9.1 0 .2-.1.4-.1 1.9-.5 3.1.1 3.3.2-.1.1-.3.1-.4.2-.2.1-.5.2-.8.4-.7.3-1.3.5-2 .8 0 0-.1 0-.1.1-.5-.5-1.2-.6-1.9-.6-.6.3-1.3.4-2.1.4-.3 0-.7 0-1-.1v.2c.2.5.6.9.9 1.3l.7.7c0 .1.1.1.2 0 .1 0 .3-.1.5-.2l.2.3s.1.1.2 0l.4-.1c.1 0 .1-.1.1-.2l-.1-.3c.1-.1.3-.1.4-.2l.2.3s.1.1.2 0l.4-.2c.1 0 .1-.1.1-.2l-.1-.2c.1-.1.3-.1.4-.2l.2.2s.1.1.2 0l.3-.1c.1 0 .1-.1.1-.2l-.1-.3c.7-.3 1.4-.6 2.1-1l.2.3s.1.1.2 0l.5-.1c.1 0 .1-.1.1-.2l-.1-.3c.1-.1.3-.1.4-.2l.2.3s.1.1.2 0l.4-.2c.1 0 .1-.1.1-.2l-.1-.4c.1-.1.2-.1.4-.2l.3.3s.1.1.2 0l.4-.2c.1 0 .1-.1.1-.2l-.1-.5c.1-.1.3-.2.4-.3.1-.1.3-.2.4-.4-.1.1-.1 0-.1 0z"/><g id="XMLID_16_"><g id="XMLID_25_"><path id="XMLID_26_" class="st0" d="M4.6 9.3c2.6 0 4.6-2.1 4.6-4.6.1-2.6-2-4.7-4.6-4.7C2.1 0 0 2.1 0 4.6c0 2.6 2.1 4.7 4.6 4.7zM.9 4.6l.9-.8s.1-.1.1-.2l-.3-1.1c.2-.2.3-.3.4-.5.5-.4 1-.7 1.5-.9l1 .6h.2l1-.6c.6.2 1.1.5 1.5.9.1.1.3.3.4.5l-.2 1.1c0 .1 0 .1.1.2l.9.8c0 .8-.2 1.5-.7 2.1l-1.2.2-.1.1-.5 1.1c-.4.1-.8.2-1.3.2-.4 0-.9-.1-1.3-.2L2.9 7c0-.1-.1-.1-.2-.1l-1.1-.2C1.2 6.1.9 5.4.9 4.6zm0 0"/></g><path id="XMLID_17_" class="st0" d="M3.5 6.1c0 .1.1.1.1.1h2c.1 0 .1 0 .1-.1l.6-1.9c0-.1 0-.1-.1-.2L4.7 2.8h-.2L2.9 4s-.1.1-.1.2l.7 1.9zm0 0"/></g></g></svg>