<svg xmlns="http://www.w3.org/2000/svg" width="13.8" height="11.6" viewBox="0 0 13.8 11.6"><style>.st0,.st1{fill:#fff}.st1{fill-rule:evenodd;clip-rule:evenodd}</style><g id="XMLID_15_"><g id="XMLID_17_"><g id="XMLID_19_"><path id="XMLID_24_" class="st0" d="M4.9 4.6c-.2 0-.4-.1-.5-.1-.5-.1-.8 0-.9.5 0 0-.1.4-.3 1 .5-.3.8-.6 1-.9.3-.3.4-.4.7-.5zm0 0"/><path id="XMLID_20_" class="st0" d="M2 11.4c.1.1.2.1.2.1.1-.1.3-.1.6-.3l.3.3c0 .1.1.1.2 0l.5-.2c.1 0 .1-.1.1-.2l-.1-.4c.2-.1.3-.2.5-.2l.3.3c0 .1.1.1.2 0l.5-.2c.1 0 .1-.1.1-.2l-.1-.4c.2-.1.3-.1.5-.2l.2.3c0 .1.1.1.2 0l.4-.1c.1 0 .1-.1.1-.2l-.1-.3c.8-.4 1.7-.7 2.5-1.1l.3.3c0 .1.1.1.2 0l.4-.2c.1 0 .1-.1.1-.2L10 8c.2-.1.3-.2.5-.2l.2.2c0 .1.1.1.2 0l.5-.2c.1 0 .1-.1.1-.2l-.1-.4c.1-.1.3-.2.4-.2l.3.4c0 .1.1.1.2 0l.5-.2c.1 0 .1-.1.1-.2l-.1-.6c.2-.1.3-.3.5-.4.2-.1.3-.3.5-.4.1-.1.1-.2 0-.2l-.3-.6-.3-.3c-.2-.2-.5-.1-.8-.1-.4 0-.8.1-1.2.2-.2 0-.3.1-.5.1s-.5.1-.7.1c-.4.1-.9.1-1.4.2 0-.1-.1-.3-.3-.2-.1.1-.1.1-.1.2h-.5c0-.1-.1-.3-.3-.2l-.2.2h-.5c0-.2-.1-.3-.3-.2-.1 0-.1.1-.1.2-.2 0-.4-.1-.5-.1-.1 0-.2-.1-.3-.1-.4 0-.8.2-.9.5-.3.4-1 1.1-1.9 1.3-.4.1-.8 0-1.1-.1-.3-.1-.4-.2-.6-.3-.1-.1-.3-.2-.4-.1-.3.1-.4.7-.5 1-.2.6-.1 1.3.1 1.9.2.6.7 1.1 1.1 1.6.2.2.5.5.7.8zM.4 7.9c1.5.2 3.4-.2 5.6-.8 2.2-.6 3.7.1 4 .3-.2.1-.4.1-.5.2-.3.1-.6.3-.9.4-.8.3-1.6.6-2.4 1H6c-.6-.5-1.4-.6-2.2-.6-.8 0-1.7.2-2.5-.1C1 8.3.8 8.2.6 8l-.2-.1zm0 0"/></g></g><path id="XMLID_16_" class="st1" d="M10.5 4.2l2-2.1-2-2.1v1.2c-1.2 0-2.7.6-2.7 3.3.5-1.7 2.5-1.5 2.7-1.5v1.2z"/></g></svg>