<svg xmlns="http://www.w3.org/2000/svg" width="90.083" height="10.616" viewBox="0 0 90.083 10.616"><g fill="#2F6196"><path d="M.627 8.968a.236.236 0 0 1-.048-.202l1.47-6.88a.333.333 0 0 1 .122-.203.332.332 0 0 1 .219-.085h3.322c.476 0 .879.091 1.209.271.33.182.577.419.74.714a1.898 1.898 0 0 1 .202 1.336c-.07.355-.193.642-.367.857a2.338 2.338 0 0 1-.517.495c.319.264.479.604.479 1.022 0 .164-.021.349-.064.555a3.94 3.94 0 0 1-.425 1.145c-.185.316-.47.571-.858.767-.387.195-.899.293-1.539.293H.813a.229.229 0 0 1-.186-.085zm3.967-1.566c.241 0 .445-.078.612-.234s.251-.345.251-.564c0-.149-.054-.271-.16-.362s-.249-.139-.426-.139H3.113l-.276 1.3h1.757zm-.873-4.154l-.256 1.215h1.651c.213 0 .387-.054.521-.16s.22-.256.256-.447c.014-.085.021-.142.021-.17 0-.143-.047-.251-.139-.325-.092-.075-.226-.113-.404-.113h-1.65zM14.924 8.658c.035.264-.053.395-.266.395h-1.289c-.121 0-.21-.026-.267-.08a.287.287 0 0 1-.096-.187l-.117-.884h-2.833l-.478.884a.503.503 0 0 1-.469.267H7.618c-.128 0-.191-.054-.191-.16 0-.078.024-.155.074-.234L11.25 1.95a.75.75 0 0 1 .218-.245.556.556 0 0 1 .336-.106h1.821c.128 0 .224.034.287.102a.44.44 0 0 1 .117.25l.895 6.707zm-2.237-2.406l-.319-2.557-1.406 2.557h1.725zM20.542 8.979a.645.645 0 0 1-.154-.192l-1.863-3.621-.768 3.601c-.014.078-.055.146-.122.202s-.141.085-.219.085h-1.395a.236.236 0 0 1-.235-.287l1.47-6.88a.343.343 0 0 1 .122-.203.332.332 0 0 1 .219-.085h.895c.178 0 .305.082.384.245l1.885 3.643.767-3.6a.343.343 0 0 1 .122-.203.332.332 0 0 1 .219-.085h1.396c.078 0 .14.028.186.085a.24.24 0 0 1 .049.203l-1.47 6.88c-.015.078-.056.146-.123.202s-.14.085-.218.085h-.895a.392.392 0 0 1-.252-.075zM29.75 8.766a.27.27 0 0 1-.091.196.274.274 0 0 1-.197.091h-1.533c-.093 0-.169-.02-.229-.059s-.115-.102-.165-.187l-1.501-2.599-.544 2.557c-.014.078-.055.146-.122.202s-.141.085-.219.085h-1.395a.236.236 0 0 1-.235-.287l1.47-6.88a.343.343 0 0 1 .122-.203.332.332 0 0 1 .219-.085h1.395a.235.235 0 0 1 .235.288l-.468 2.193 2.183-2.247a.747.747 0 0 1 .191-.171.54.54 0 0 1 .277-.063h1.768c.057 0 .104.02.139.059s.054.087.054.144a.188.188 0 0 1-.054.139l-3.322 3.387L29.73 8.68a.22.22 0 0 1 .02.086zM39.648 1.683a.242.242 0 0 1 .048.203l-.245 1.129c-.015.078-.057.146-.128.202s-.146.085-.224.085h-1.874l-1.161 5.464a.342.342 0 0 1-.122.202.334.334 0 0 1-.219.085h-1.396a.226.226 0 0 1-.186-.085.233.233 0 0 1-.048-.202l1.16-5.464h-1.874a.215.215 0 0 1-.182-.085c-.042-.057-.057-.124-.042-.202l.245-1.129a.343.343 0 0 1 .122-.203.332.332 0 0 1 .219-.085h5.719c.08 0 .141.028.188.085zM45.66 2.125c.497.352.746.847.746 1.485 0 .206-.018.384-.054.532-.106.512-.302.929-.586 1.252-.283.323-.66.58-1.129.772l.788 2.534a.11.11 0 0 1 .011.054c0 .078-.03.147-.09.207a.274.274 0 0 1-.197.091h-1.342c-.128 0-.219-.026-.271-.08a.506.506 0 0 1-.123-.207l-.692-2.279h-1.086l-.49 2.279c-.014.078-.055.146-.122.202s-.141.085-.219.085h-1.395a.236.236 0 0 1-.235-.287l1.47-6.88a.343.343 0 0 1 .122-.203.332.332 0 0 1 .219-.085h2.779c.767.001 1.399.176 1.896.528zm-2.471 2.699c.688 0 1.09-.262 1.204-.788.014-.099.021-.163.021-.191 0-.397-.298-.597-.895-.597h-1.203l-.33 1.576h1.203zM53.317 8.658c.035.264-.053.395-.266.395h-1.289c-.121 0-.21-.026-.267-.08a.292.292 0 0 1-.095-.187l-.117-.884H48.45l-.479.884a.503.503 0 0 1-.469.267h-1.491c-.128 0-.191-.054-.191-.16 0-.078.024-.155.074-.234l3.749-6.709a.75.75 0 0 1 .218-.245.556.556 0 0 1 .336-.106h1.821c.128 0 .224.034.287.102a.44.44 0 0 1 .117.25l.895 6.707zm-2.236-2.406l-.319-2.557-1.406 2.557h1.725zM58.935 8.979a.645.645 0 0 1-.154-.192l-1.863-3.621-.768 3.6c-.014.078-.055.146-.122.202s-.141.085-.219.085h-1.395a.236.236 0 0 1-.235-.287l1.47-6.88a.343.343 0 0 1 .122-.203.332.332 0 0 1 .219-.085h.895c.178 0 .305.082.384.245l1.885 3.643.767-3.6a.343.343 0 0 1 .122-.203.332.332 0 0 1 .219-.085h1.396c.078 0 .14.028.186.085a.24.24 0 0 1 .049.203l-1.47 6.88c-.015.078-.056.146-.123.202s-.14.085-.218.085h-.895a.39.39 0 0 1-.252-.074zM68.813 3.754a.269.269 0 0 1-.171.069h-1.395a.553.553 0 0 1-.229-.037.523.523 0 0 1-.165-.133 1.527 1.527 0 0 0-.102-.144c-.06-.082-.168-.155-.324-.219s-.345-.096-.564-.096c-.306 0-.563.041-.772.122-.209.082-.335.223-.378.421a.327.327 0 0 0-.011.096c0 .114.061.21.182.288.12.078.303.15.548.218s.63.158 1.155.271c.64.136 1.117.345 1.433.629.316.284.475.664.475 1.14 0 .17-.021.358-.064.564-.156.724-.545 1.274-1.166 1.65-.621.377-1.457.564-2.508.564-.547 0-1.05-.106-1.507-.319-.458-.213-.815-.49-1.07-.831-.256-.341-.37-.692-.341-1.054a.288.288 0 0 1 .106-.165.265.265 0 0 1 .17-.069h1.396c.163 0 .287.05.372.148l.134.187a.94.94 0 0 0 .362.277c.166.081.378.122.633.122.881 0 1.363-.188 1.449-.564.028-.128-.019-.235-.139-.324-.121-.089-.306-.167-.554-.234-.249-.067-.64-.158-1.172-.271l-.234-.054c-1.122-.248-1.683-.827-1.683-1.736 0-.177.021-.372.064-.585.135-.653.485-1.183 1.054-1.587.568-.405 1.342-.607 2.322-.607.539 0 1.027.108 1.464.325.437.216.773.488 1.012.814s.347.646.325.958a.294.294 0 0 1-.107.166zM75.966 1.683a.242.242 0 0 1 .048.203l-.245 1.129c-.015.078-.057.146-.128.202s-.146.085-.224.085h-3.185l-.309 1.459h2.972c.077 0 .14.028.186.085a.213.213 0 0 1 .038.202l-.234 1.129a.34.34 0 0 1-.128.203.353.353 0 0 1-.224.085h-2.972l-.49 2.301c-.014.078-.055.146-.122.202s-.141.085-.219.085h-1.395a.236.236 0 0 1-.235-.287l1.47-6.88a.343.343 0 0 1 .122-.203.332.332 0 0 1 .219-.085h4.867a.23.23 0 0 1 .188.085zM77.962 7.349h3.365c.078 0 .139.028.181.085a.25.25 0 0 1 .043.203l-.245 1.129a.342.342 0 0 1-.122.202.334.334 0 0 1-.219.085h-5.048a.236.236 0 0 1-.235-.287l1.47-6.88a.343.343 0 0 1 .122-.203.332.332 0 0 1 .219-.085h4.963a.23.23 0 0 1 .187.085.242.242 0 0 1 .048.203l-.245 1.129c-.015.078-.057.146-.128.202s-.146.085-.224.085h-3.28l-.245 1.15h3.046a.236.236 0 0 1 .235.287l-.245 1.129a.332.332 0 0 1-.127.202.349.349 0 0 1-.224.086h-3.046l-.246 1.193zM89.006 2.125c.497.352.746.847.746 1.485 0 .206-.018.384-.054.532-.106.512-.302.929-.586 1.252-.283.323-.66.58-1.129.772l.788 2.534a.11.11 0 0 1 .011.054c0 .078-.03.147-.09.207a.274.274 0 0 1-.197.091h-1.342c-.128 0-.219-.026-.271-.08a.506.506 0 0 1-.123-.207l-.692-2.279H84.98l-.49 2.279c-.014.078-.055.146-.122.202s-.141.085-.219.085h-1.395a.236.236 0 0 1-.235-.287l1.47-6.88a.343.343 0 0 1 .122-.203.332.332 0 0 1 .219-.085h2.779c.768.001 1.4.176 1.897.528zm-2.471 2.699c.688 0 1.09-.262 1.204-.788.014-.099.021-.163.021-.191 0-.397-.298-.597-.895-.597h-1.203l-.33 1.576h1.203z"/></g></svg>