<svg xmlns="http://www.w3.org/2000/svg" width="80.958" height="17.667" viewBox="0 0 80.958 17.667"><path fill="#F7931A" d="M17.01 10.893A8.323 8.323 0 1 1 .858 6.866a8.323 8.323 0 1 1 16.152 4.027z"/><path fill="#FFF" d="M12.605 7.693c.166-1.108-.678-1.703-1.831-2.1l.374-1.502-.914-.228-.364 1.461c-.24-.06-.487-.116-.732-.172l.367-1.47-.913-.229-.374 1.5a28.23 28.23 0 0 1-.583-.137v-.005l-1.26-.315-.242.976s.678.155.663.165c.37.092.437.337.426.531l-.426 1.71c.025.007.059.016.095.03a3.462 3.462 0 0 0-.097-.024l-.597 2.395c-.045.112-.16.281-.42.217.01.013-.663-.166-.663-.166l-.453 1.046 1.189.296c.22.055.438.113.65.168l-.377 1.518.912.228.374-1.502c.249.068.49.13.728.19l-.373 1.494.914.228.378-1.515c1.558.295 2.729.176 3.222-1.233.397-1.134-.02-1.789-.84-2.215.598-.137 1.048-.529 1.167-1.34zm-2.087 2.926c-.282 1.134-2.192.521-2.812.367l.502-2.01c.62.154 2.605.46 2.31 1.643zm.283-2.943c-.258 1.032-1.847.508-2.363.38l.455-1.825c.515.13 2.176.37 1.908 1.445z"/><path fill="#4D4D4D" d="M25.009 5.59c.675 0 1.259.121 1.749.36.493.24.899.562 1.225.968.322.41.56.886.716 1.433a6.53 6.53 0 0 1 .23 1.77 7.11 7.11 0 0 1-.535 2.75 7.155 7.155 0 0 1-1.465 2.256 6.904 6.904 0 0 1-2.192 1.516 6.684 6.684 0 0 1-2.738.56c-.127 0-.35-.005-.666-.01a9.841 9.841 0 0 1-1.084-.095c-.41-.057-.84-.14-1.297-.254a6.526 6.526 0 0 1-1.297-.463L21.3 1.062l3.265-.506-1.305 5.436c.279-.126.56-.223.842-.295.28-.07.583-.107.906-.107zm-2.74 9.021c.493 0 .956-.12 1.39-.359a3.662 3.662 0 0 0 1.13-.959c.316-.402.565-.854.747-1.36a4.638 4.638 0 0 0 .274-1.582c0-.674-.113-1.2-.337-1.58-.225-.379-.64-.569-1.243-.569-.198 0-.452.038-.768.105-.317.072-.601.22-.855.444l-1.39 5.773c.084.015.158.03.22.042a2.314 2.314 0 0 0 .453.043c.1.002.225.002.38.002zM32.315 16.908h-3.12L31.83 5.825h3.14l-2.655 11.083zm1.517-12.433c-.435 0-.83-.13-1.18-.389-.353-.258-.528-.655-.528-1.19 0-.296.06-.572.178-.833A2.23 2.23 0 0 1 33.46.935c.26-.112.538-.168.834-.168.435 0 .828.13 1.179.39.35.26.526.657.526 1.19 0 .296-.06.573-.18.833a2.193 2.193 0 0 1-1.157 1.127c-.26.114-.536.168-.831.168zM37.703 3.064l3.267-.506-.802 3.267h3.498l-.632 2.57h-3.477l-.926 3.877a4.37 4.37 0 0 0-.147.905c-.015.282.02.524.105.727a.913.913 0 0 0 .453.473c.218.113.529.17.937.17.336 0 .664-.032.98-.095.316-.062.635-.149.958-.263l.233 2.403c-.422.155-.878.288-1.37.4-.493.112-1.076.167-1.75.167-.968 0-1.72-.144-2.254-.43-.534-.289-.912-.683-1.138-1.182-.223-.497-.323-1.07-.295-1.716.029-.647.126-1.328.295-2.044l2.065-8.723zM43.529 12.483c0-.955.155-1.855.463-2.698a6.615 6.615 0 0 1 1.329-2.214 6.216 6.216 0 0 1 2.097-1.495c.82-.364 1.737-.548 2.749-.548.633 0 1.198.06 1.696.18.5.121.952.277 1.36.474l-1.076 2.446a10.096 10.096 0 0 0-.874-.305c-.302-.093-.67-.138-1.106-.138-1.041 0-1.864.36-2.476 1.074-.61.716-.917 1.68-.917 2.888 0 .716.155 1.295.465 1.74.309.442.879.662 1.706.662a5.752 5.752 0 0 0 2.192-.442l.233 2.507c-.394.153-.83.291-1.307.412-.478.117-1.048.177-1.708.177-.871 0-1.61-.128-2.212-.379-.604-.255-1.102-.593-1.495-1.022a3.85 3.85 0 0 1-.854-1.508 6.165 6.165 0 0 1-.265-1.81zM57.384 17.202c-.744 0-1.391-.113-1.94-.338-.546-.225-1-.54-1.357-.948a4.09 4.09 0 0 1-.811-1.443c-.184-.555-.272-1.169-.272-1.842 0-.844.136-1.688.41-2.53a7.158 7.158 0 0 1 1.213-2.275 6.472 6.472 0 0 1 1.958-1.656c.77-.427 1.658-.642 2.654-.642.73 0 1.374.114 1.93.338a3.62 3.62 0 0 1 1.37.948c.356.408.627.888.809 1.444a5.86 5.86 0 0 1 .274 1.843c0 .842-.134 1.686-.4 2.53-.265.84-.66 1.6-1.18 2.275a6.174 6.174 0 0 1-1.948 1.653c-.781.428-1.685.643-2.71.643zm1.558-9.018c-.462 0-.871.134-1.221.4a3.441 3.441 0 0 0-.884 1.011c-.24.41-.42.854-.54 1.338a5.789 5.789 0 0 0-.177 1.38c0 .703.113 1.251.336 1.645.226.392.632.59 1.223.59.464 0 .87-.134 1.223-.402a3.47 3.47 0 0 0 .884-1.01c.239-.407.419-.854.539-1.339a5.84 5.84 0 0 0 .178-1.38c0-.7-.113-1.25-.338-1.644-.225-.392-.633-.589-1.223-.589zM67.018 16.908h-3.121L66.53 5.825h3.142l-2.655 11.083zm1.516-12.433c-.435 0-.83-.13-1.18-.389-.35-.258-.527-.655-.527-1.19 0-.296.06-.572.18-.833.119-.26.277-.484.475-.675.196-.189.426-.34.685-.453.259-.112.536-.168.83-.168.437 0 .83.13 1.182.39.35.26.528.657.528 1.19 0 .296-.063.573-.181.833a2.19 2.19 0 0 1-1.157 1.127 2.067 2.067 0 0 1-.835.168zM71.92 6.33c.237-.07.5-.153.789-.244a11.653 11.653 0 0 1 2.171-.442c.442-.05.946-.075 1.505-.075 1.645 0 2.779.48 3.405 1.434.625.955.734 2.262.328 3.92l-1.435 5.983h-3.14l1.39-5.858c.086-.366.152-.719.202-1.065.05-.342.047-.644-.011-.905a1.082 1.082 0 0 0-.39-.633c-.205-.16-.516-.242-.938-.242-.407 0-.82.044-1.243.128l-2.044 8.575h-3.141L71.92 6.33z"/></svg>