<svg xmlns="http://www.w3.org/2000/svg" xmlns:xlink="http://www.w3.org/1999/xlink" width="56.99" height="36.917" viewBox="0 0 56.99 36.917"><path fill="#FFF" d="M.757.867L56.12.864v35.259l-55.355.001z"/><path fill="#F48120" d="M55.924 20.473S40.796 31.148 13.089 35.925h42.835V20.473z"/><path fill="#231F20" d="M56.12.661L.562.667v35.66h55.759L56.318.661h-.198zm-.202.405v34.856H.964L.962 1.067l54.956-.001z"/><path fill="#231F20" d="M5.437 11.575h-2.31v8.069h2.298c1.222 0 2.104-.288 2.879-.932a4.05 4.05 0 0 0 1.465-3.097c0-2.382-1.779-4.04-4.332-4.04zm1.839 6.061c-.495.447-1.137.641-2.154.641H4.7v-5.336h.422c1.017 0 1.634.182 2.154.653.544.485.872 1.236.872 2.009 0 .775-.328 1.549-.872 2.033zM10.493 11.575h1.574v8.069h-1.574zM15.915 14.671c-.944-.349-1.222-.58-1.222-1.016 0-.508.494-.894 1.172-.894.472 0 .859.194 1.269.653l.823-1.078a3.53 3.53 0 0 0-2.371-.895c-1.428 0-2.517.991-2.517 2.312 0 1.112.507 1.681 1.985 2.213.616.217.93.362 1.088.46.314.205.472.496.472.835 0 .654-.52 1.138-1.222 1.138-.751 0-1.355-.375-1.718-1.076l-1.017.979c.725 1.064 1.596 1.536 2.794 1.536 1.636 0 2.783-1.087 2.783-2.649.002-1.283-.528-1.863-2.319-2.518zM18.733 15.615c0 2.372 1.862 4.211 4.259 4.211.678 0 1.258-.133 1.973-.47v-1.853c-.629.63-1.186.884-1.9.884-1.585 0-2.71-1.149-2.71-2.783 0-1.549 1.161-2.771 2.637-2.771.751 0 1.319.268 1.973.908v-1.852c-.691-.35-1.259-.496-1.936-.496-2.385-.001-4.296 1.876-4.296 4.222zM37.444 16.994l-2.152-5.419h-1.719l3.424 8.275h.847l3.485-8.275h-1.706zM42.041 19.643h4.463v-1.366h-2.89v-2.178h2.784v-1.366h-2.784v-1.791h2.89v-1.367h-4.463zM52.736 13.957c0-1.511-1.041-2.382-2.855-2.382h-2.334v8.069h1.572v-3.241h.205l2.178 3.241h1.936l-2.54-3.399c1.185-.242 1.838-1.053 1.838-2.288zm-3.158 1.332h-.46v-2.444h.485c.98 0 1.513.411 1.513 1.196 0 .812-.532 1.248-1.538 1.248z"/><linearGradient id="a" gradientUnits="userSpaceOnUse" x1="31.968" y1="19.077" x2="28.996" y2="14.424"><stop offset="0" stop-color="#f89f20"/><stop offset=".25" stop-color="#f79a20"/><stop offset=".533" stop-color="#f68d20"/><stop offset=".62" stop-color="#f58720"/><stop offset=".723" stop-color="#f48120"/><stop offset="1" stop-color="#f37521"/></linearGradient><circle fill="url(#a)" cx="29.771" cy="15.637" r="4.292"/><defs><filter id="b" filterUnits="userSpaceOnUse" x="25.479" y="11.345" width="8.585" height="8.585"><feFlood result="back" flood-color="#fff" flood-opacity="1"/><feBlend in="SourceGraphic" in2="back"/></filter></defs><mask maskUnits="userSpaceOnUse" x="25.479" y="11.345" width="8.585" height="8.585" id="c"><g filter="url(#b)"><linearGradient id="d" gradientUnits="userSpaceOnUse" x1="31.499" y1="19.014" x2="27.155" y2="10.524"><stop offset="0"/><stop offset=".026" stop-color="#080808"/><stop offset=".21" stop-color="#3f3f3f"/><stop offset=".389" stop-color="#6c6c6c"/><stop offset=".559" stop-color="#8f8f8f"/><stop offset=".719" stop-color="#a8a8a8"/><stop offset=".864" stop-color="#b7b7b7"/><stop offset=".982" stop-color="#bdbdbd"/></linearGradient><circle mask="url(#c)" fill="url(#d)" cx="29.771" cy="15.637" r="4.292"/></g></mask><linearGradient id="e" gradientUnits="userSpaceOnUse" x1="31.499" y1="19.014" x2="27.155" y2="10.524"><stop offset="0" stop-color="#f58720"/><stop offset=".359" stop-color="#e16f27"/><stop offset=".703" stop-color="#d4602c"/><stop offset=".982" stop-color="#d05b2e"/></linearGradient><circle opacity=".65" fill="url(#e)" cx="29.771" cy="15.637" r="4.292"/><g opacity=".5"><defs><circle id="f" opacity=".5" cx="29.771" cy="15.638" r="4.292"/></defs><clipPath id="g"><use xlink:href="#f" overflow="visible"/></clipPath><g clip-path="url(#g)"><circle fill="#231F20" cx="29.784" cy="15.652" r="4.379"/><circle fill="#242021" cx="29.787" cy="15.654" r="4.378"/><circle fill="#252122" cx="29.789" cy="15.657" r="4.378"/><circle fill="#252223" cx="29.791" cy="15.66" r="4.377"/><circle fill="#262223" cx="29.794" cy="15.662" r="4.377"/><circle fill="#272324" cx="29.796" cy="15.665" r="4.377"/><circle fill="#282425" cx="29.799" cy="15.668" r="4.376"/><circle fill="#292526" cx="29.801" cy="15.671" r="4.376"/><circle fill="#292627" cx="29.803" cy="15.673" r="4.375"/><circle fill="#2A2728" cx="29.806" cy="15.676" r="4.375"/><circle fill="#2B2728" cx="29.808" cy="15.679" r="4.374"/><circle fill="#2C2829" cx="29.81" cy="15.682" r="4.374"/><circle fill="#2D292A" cx="29.813" cy="15.684" r="4.374"/><circle fill="#2D2A2B" cx="29.815" cy="15.687" r="4.373"/><circle fill="#2E2B2C" cx="29.818" cy="15.69" r="4.373"/><circle fill="#2F2C2D" cx="29.82" cy="15.692" r="4.372"/><circle fill="#302C2D" cx="29.822" cy="15.695" r="4.372"/><circle fill="#312D2E" cx="29.825" cy="15.698" r="4.371"/><circle fill="#322E2F" cx="29.827" cy="15.701" r="4.371"/><circle fill="#322F30" cx="29.829" cy="15.703" r="4.371"/><circle fill="#333031" cx="29.832" cy="15.706" r="4.37"/><circle fill="#343132" cx="29.834" cy="15.709" r="4.37"/><circle fill="#353132" cx="29.837" cy="15.712" r="4.369"/><circle fill="#363233" cx="29.839" cy="15.714" r="4.369"/><circle fill="#363334" cx="29.841" cy="15.717" r="4.368"/><circle fill="#373435" cx="29.844" cy="15.72" r="4.368"/><circle fill="#383536" cx="29.846" cy="15.723" r="4.368"/><circle fill="#393637" cx="29.848" cy="15.725" r="4.367"/><circle fill="#3A3638" cx="29.851" cy="15.728" r="4.367"/><circle fill="#3A3738" cx="29.853" cy="15.731" r="4.366"/><circle fill="#3B3839" cx="29.856" cy="15.734" r="4.366"/><circle fill="#3C393A" cx="29.858" cy="15.736" r="4.365"/><circle fill="#3D3A3B" cx="29.86" cy="15.739" r="4.365"/><circle fill="#3E3B3C" cx="29.863" cy="15.742" r="4.365"/><circle fill="#3E3B3D" cx="29.865" cy="15.744" r="4.364"/><circle fill="#3F3C3D" cx="29.867" cy="15.747" r="4.364"/><circle fill="#403D3E" cx="29.87" cy="15.75" r="4.363"/><circle fill="#413E3F" cx="29.872" cy="15.753" r="4.363"/><circle fill="#423F40" cx="29.874" cy="15.755" r="4.362"/><circle fill="#424041" cx="29.877" cy="15.758" r="4.362"/><circle fill="#434042" cx="29.879" cy="15.761" r="4.362"/><circle fill="#444142" cx="29.882" cy="15.764" r="4.361"/><circle fill="#454243" cx="29.884" cy="15.766" r="4.361"/><circle fill="#464344" cx="29.886" cy="15.769" r="4.36"/><circle fill="#464445" cx="29.889" cy="15.772" r="4.36"/><circle fill="#474546" cx="29.891" cy="15.775" r="4.36"/><circle fill="#484547" cx="29.893" cy="15.777" r="4.359"/><circle fill="#494648" cx="29.896" cy="15.78" r="4.359"/><circle fill="#4A4748" cx="29.898" cy="15.783" r="4.358"/><circle fill="#4A4849" cx="29.901" cy="15.785" r="4.358"/><circle fill="#4B494A" cx="29.903" cy="15.788" r="4.357"/><circle fill="#4C4A4B" cx="29.905" cy="15.791" r="4.357"/><circle fill="#4D4A4C" cx="29.908" cy="15.794" r="4.357"/><circle fill="#4E4B4D" cx="29.91" cy="15.796" r="4.356"/><circle fill="#4F4C4D" cx="29.912" cy="15.799" r="4.356"/><circle fill="#4F4D4E" cx="29.915" cy="15.802" r="4.355"/><circle fill="#504E4F" cx="29.917" cy="15.805" r="4.355"/><circle fill="#514F50" cx="29.92" cy="15.807" r="4.354"/><circle fill="#524F51" cx="29.922" cy="15.81" r="4.354"/><circle fill="#535052" cx="29.924" cy="15.813" r="4.354"/><circle fill="#535152" cx="29.927" cy="15.816" r="4.353"/><circle fill="#545253" cx="29.929" cy="15.818" r="4.353"/><circle fill="#555354" cx="29.931" cy="15.821" r="4.352"/><circle fill="#565455" cx="29.934" cy="15.824" r="4.352"/><circle fill="#575456" cx="29.936" cy="15.827" r="4.351"/><circle fill="#575557" cx="29.939" cy="15.829" r="4.351"/><circle fill="#585657" cx="29.941" cy="15.832" r="4.351"/><circle fill="#595758" cx="29.943" cy="15.835" r="4.35"/><circle fill="#5A5859" cx="29.946" cy="15.837" r="4.35"/><circle fill="#5B595A" cx="29.948" cy="15.84" r="4.349"/><circle fill="#5B5A5B" cx="29.95" cy="15.843" r="4.349"/><circle fill="#5C5A5C" cx="29.953" cy="15.846" r="4.348"/><circle fill="#5D5B5D" cx="29.955" cy="15.848" r="4.348"/><circle fill="#5E5C5D" cx="29.958" cy="15.851" r="4.348"/><circle fill="#5F5D5E" cx="29.96" cy="15.854" r="4.347"/><circle fill="#5F5E5F" cx="29.962" cy="15.857" r="4.347"/><circle fill="#605F60" cx="29.965" cy="15.859" r="4.346"/><circle fill="#615F61" cx="29.967" cy="15.862" r="4.346"/><circle fill="#626062" cx="29.969" cy="15.865" r="4.345"/><circle fill="#636162" cx="29.972" cy="15.868" r="4.345"/><circle fill="#636263" cx="29.974" cy="15.87" r="4.345"/><circle fill="#646364" cx="29.976" cy="15.873" r="4.344"/><circle fill="#656465" cx="29.979" cy="15.876" r="4.344"/><circle fill="#666466" cx="29.981" cy="15.878" r="4.343"/><circle fill="#676567" cx="29.984" cy="15.881" r="4.343"/><circle fill="#686667" cx="29.986" cy="15.884" r="4.342"/><circle fill="#686768" cx="29.988" cy="15.887" r="4.342"/><circle fill="#696869" cx="29.991" cy="15.889" r="4.342"/><circle fill="#6A696A" cx="29.993" cy="15.892" r="4.341"/><circle fill="#6B696B" cx="29.995" cy="15.895" r="4.341"/><circle fill="#6C6A6C" cx="29.998" cy="15.898" r="4.34"/><circle fill="#6C6B6D" cx="30" cy="15.9" r="4.34"/><circle fill="#6D6C6D" cx="30.003" cy="15.903" r="4.339"/><circle fill="#6E6D6E" cx="30.005" cy="15.906" r="4.339"/><circle fill="#6F6E6F" cx="30.007" cy="15.909" r="4.339"/><circle fill="#706E70" cx="30.01" cy="15.911" r="4.338"/><circle fill="#706F71" cx="30.012" cy="15.914" r="4.338"/><circle fill="#717072" cx="30.014" cy="15.917" r="4.337"/><circle fill="#727172" cx="30.017" cy="15.92" r="4.337"/><circle fill="#737273" cx="30.019" cy="15.922" r="4.336"/><circle fill="#747374" cx="30.022" cy="15.925" r="4.336"/><circle fill="#747375" cx="30.024" cy="15.928" r="4.336"/><circle fill="#757476" cx="30.026" cy="15.931" r="4.335"/><circle fill="#767577" cx="30.029" cy="15.933" r="4.335"/><circle fill="#777677" cx="30.031" cy="15.936" r="4.334"/><circle fill="#787778" cx="30.033" cy="15.939" r="4.334"/><circle fill="#787879" cx="30.036" cy="15.941" r="4.333"/><circle fill="#79787A" cx="30.038" cy="15.944" r="4.333"/><circle fill="#7A797B" cx="30.041" cy="15.947" r="4.333"/><circle fill="#7B7A7C" cx="30.043" cy="15.95" r="4.332"/><circle fill="#7C7B7C" cx="30.045" cy="15.952" r="4.332"/><circle fill="#7C7C7D" cx="30.048" cy="15.955" r="4.331"/><circle fill="#7D7D7E" cx="30.05" cy="15.958" r="4.331"/><circle fill="#7E7D7F" cx="30.052" cy="15.961" r="4.33"/><circle fill="#7F7E80" cx="30.055" cy="15.963" r="4.33"/><circle fill="#807F81" cx="30.057" cy="15.966" r="4.33"/><circle fill="#808082" cx="30.059" cy="15.969" r="4.329"/><circle fill="#818182" cx="30.062" cy="15.972" r="4.329"/><circle fill="#828283" cx="30.064" cy="15.974" r="4.328"/><circle fill="#838284" cx="30.067" cy="15.977" r="4.328"/><circle fill="#848385" cx="30.069" cy="15.98" r="4.327"/><circle fill="#858486" cx="30.071" cy="15.983" r="4.327"/><circle fill="#858587" cx="30.074" cy="15.985" r="4.327"/><circle fill="#868687" cx="30.076" cy="15.988" r="4.326"/><circle fill="#878788" cx="30.078" cy="15.991" r="4.326"/><circle fill="#888789" cx="30.081" cy="15.993" r="4.325"/><circle fill="#89888A" cx="30.083" cy="15.996" r="4.325"/><circle fill="#89898B" cx="30.086" cy="15.999" r="4.324"/><circle fill="#8A8A8C" cx="30.088" cy="16.002" r="4.324"/><circle fill="#8B8B8C" cx="30.09" cy="16.004" r="4.324"/><circle fill="#8C8C8D" cx="30.093" cy="16.007" r="4.323"/><circle fill="#8D8C8E" cx="30.095" cy="16.01" r="4.323"/><circle fill="#8D8D8F" cx="30.097" cy="16.013" r="4.322"/><circle fill="#8E8E90" cx="30.1" cy="16.015" r="4.322"/><circle fill="#8F8F91" cx="30.102" cy="16.018" r="4.321"/><circle fill="#909092" cx="30.105" cy="16.021" r="4.321"/><circle fill="#919192" cx="30.107" cy="16.024" r="4.321"/><circle fill="#919293" cx="30.109" cy="16.026" r="4.32"/><circle fill="#929294" cx="30.112" cy="16.029" r="4.32"/><circle fill="#939395" cx="30.114" cy="16.032" r="4.319"/><circle fill="#949496" cx="30.116" cy="16.034" r="4.319"/><circle fill="#959597" cx="30.119" cy="16.037" r="4.319"/><circle fill="#959697" cx="30.121" cy="16.04" r="4.318"/><circle fill="#969798" cx="30.124" cy="16.043" r="4.318"/><circle fill="#979799" cx="30.126" cy="16.045" r="4.317"/><circle fill="#98989A" cx="30.128" cy="16.048" r="4.317"/><circle fill="#99999B" cx="30.131" cy="16.051" r="4.316"/><circle fill="#999A9C" cx="30.133" cy="16.054" r="4.316"/><circle fill="#9A9B9C" cx="30.135" cy="16.056" r="4.316"/><circle fill="#9B9C9D" cx="30.138" cy="16.059" r="4.315"/><circle fill="#9C9C9E" cx="30.14" cy="16.062" r="4.315"/><circle fill="#9D9D9F" cx="30.142" cy="16.065" r="4.314"/><circle fill="#9E9EA0" cx="30.145" cy="16.067" r="4.314"/><circle fill="#9E9FA1" cx="30.147" cy="16.07" r="4.313"/><circle fill="#9FA0A1" cx="30.15" cy="16.073" r="4.313"/><circle fill="#A0A1A2" cx="30.152" cy="16.076" r="4.313"/><circle fill="#A1A1A3" cx="30.154" cy="16.078" r="4.312"/><circle fill="#A2A2A4" cx="30.157" cy="16.081" r="4.312"/><circle fill="#A2A3A5" cx="30.159" cy="16.084" r="4.311"/><circle fill="#A3A4A6" cx="30.161" cy="16.086" r="4.311"/><circle fill="#A4A5A7" cx="30.164" cy="16.089" r="4.31"/><circle fill="#A5A6A7" cx="30.166" cy="16.092" r="4.31"/><circle fill="#A6A6A8" cx="30.169" cy="16.095" r="4.31"/><circle fill="#A6A7A9" cx="30.171" cy="16.097" r="4.309"/><circle fill="#A7A8AA" cx="30.173" cy="16.1" r="4.309"/><circle fill="#A8A9AB" cx="30.176" cy="16.103" r="4.308"/><circle fill="#A9AAAC" cx="30.178" cy="16.106" r="4.308"/><circle fill="#AAABAC" cx="30.18" cy="16.108" r="4.307"/><circle fill="#AAABAD" cx="30.183" cy="16.111" r="4.307"/><circle fill="#ABACAE" cx="30.185" cy="16.114" r="4.307"/><circle fill="#ACADAF" cx="30.188" cy="16.117" r="4.306"/><circle fill="#ADAEB0" cx="30.19" cy="16.119" r="4.306"/><circle fill="#AEAFB1" cx="30.192" cy="16.122" r="4.305"/><circle fill="#AEB0B1" cx="30.195" cy="16.125" r="4.305"/><circle fill="#AFB0B2" cx="30.197" cy="16.128" r="4.304"/><circle fill="#B0B1B3" cx="30.199" cy="16.13" r="4.304"/><circle fill="#B1B2B4" cx="30.202" cy="16.133" r="4.304"/><circle fill="#B2B3B5" cx="30.204" cy="16.136" r="4.303"/><circle fill="#B2B4B6" cx="30.207" cy="16.138" r="4.303"/><circle fill="#B3B5B7" cx="30.209" cy="16.141" r="4.302"/><circle fill="#B4B5B7" cx="30.211" cy="16.144" r="4.302"/><circle fill="#B5B6B8" cx="30.214" cy="16.147" r="4.301"/><circle fill="#B6B7B9" cx="30.216" cy="16.149" r="4.301"/><circle fill="#B6B8BA" cx="30.218" cy="16.152" r="4.301"/><circle fill="#B7B9BB" cx="30.221" cy="16.155" r="4.3"/><circle fill="#B8BABC" cx="30.223" cy="16.158" r="4.3"/><circle fill="#B9BABC" cx="30.226" cy="16.16" r="4.299"/><circle fill="#BABBBD" cx="30.228" cy="16.163" r="4.299"/><circle fill="#BBBCBE" cx="30.23" cy="16.166" r="4.298"/><circle fill="#BBBDBF" cx="30.233" cy="16.169" r="4.298"/><circle fill="#BCBEC0" cx="30.235" cy="16.171" r="4.298"/><circle fill="#BDBFC1" cx="30.237" cy="16.174" r="4.297"/><circle fill="#BEBFC1" cx="30.24" cy="16.177" r="4.297"/><circle fill="#BFC0C2" cx="30.242" cy="16.179" r="4.296"/><circle fill="#BFC1C3" cx="30.244" cy="16.182" r="4.296"/><circle fill="#C0C2C4" cx="30.247" cy="16.185" r="4.295"/><circle fill="#C1C3C5" cx="30.249" cy="16.188" r="4.295"/><circle fill="#C2C4C6" cx="30.252" cy="16.19" r="4.295"/><circle fill="#C3C4C6" cx="30.254" cy="16.193" r="4.294"/><circle fill="#C3C5C7" cx="30.256" cy="16.196" r="4.294"/><circle fill="#C4C6C8" cx="30.259" cy="16.199" r="4.293"/><circle fill="#C5C7C9" cx="30.261" cy="16.201" r="4.293"/><circle opacity=".995" fill="#C5C7C9" cx="30.263" cy="16.204" r="4.293"/><circle opacity=".99" fill="#C6C8CA" cx="30.265" cy="16.206" r="4.293"/><circle opacity=".985" fill="#C6C8CA" cx="30.267" cy="16.209" r="4.293"/><circle opacity=".98" fill="#C6C8CA" cx="30.269" cy="16.211" r="4.293"/><circle opacity=".975" fill="#C6C8CA" cx="30.271" cy="16.214" r="4.293"/><circle opacity=".97" fill="#C7C9CB" cx="30.273" cy="16.216" r="4.293"/><circle opacity=".965" fill="#C7C9CB" cx="30.275" cy="16.219" r="4.293"/><circle opacity=".96" fill="#C7C9CB" cx="30.277" cy="16.221" r="4.293"/><circle opacity=".955" fill="#C8CACB" cx="30.28" cy="16.224" r="4.293"/><circle opacity=".95" fill="#C8CACC" cx="30.282" cy="16.226" r="4.293"/><circle opacity=".945" fill="#C8CACC" cx="30.284" cy="16.229" r="4.293"/><circle opacity=".94" fill="#C8CACC" cx="30.286" cy="16.231" r="4.293"/><circle opacity=".935" fill="#C9CBCC" cx="30.288" cy="16.233" r="4.293"/><circle opacity=".93" fill="#C9CBCD" cx="30.29" cy="16.236" r="4.293"/><circle opacity=".925" fill="#C9CBCD" cx="30.292" cy="16.238" r="4.293"/><circle opacity=".92" fill="#CACBCD" cx="30.294" cy="16.241" r="4.293"/><circle opacity=".915" fill="#CACCCE" cx="30.296" cy="16.243" r="4.293"/><circle opacity=".91" fill="#CACCCE" cx="30.298" cy="16.246" r="4.293"/><circle opacity=".905" fill="#CACCCE" cx="30.3" cy="16.248" r="4.293"/><circle opacity=".9" fill="#CBCDCE" cx="30.302" cy="16.251" r="4.293"/><circle opacity=".895" fill="#CBCDCF" cx="30.304" cy="16.253" r="4.293"/><circle opacity=".89" fill="#CBCDCF" cx="30.306" cy="16.256" r="4.293"/><circle opacity=".886" fill="#CCCDCF" cx="30.308" cy="16.258" r="4.293"/><circle opacity=".881" fill="#CCCECF" cx="30.31" cy="16.261" r="4.293"/><circle opacity=".876" fill="#CCCED0" cx="30.312" cy="16.263" r="4.293"/><circle opacity=".871" fill="#CDCED0" cx="30.314" cy="16.266" r="4.293"/><circle opacity=".866" fill="#CDCFD0" cx="30.316" cy="16.268" r="4.293"/><circle opacity=".861" fill="#CDCFD1" cx="30.318" cy="16.271" r="4.293"/><circle opacity=".856" fill="#CDCFD1" cx="30.321" cy="16.273" r="4.293"/><circle opacity=".851" fill="#CECFD1" cx="30.323" cy="16.275" r="4.293"/><circle opacity=".846" fill="#CED0D1" cx="30.325" cy="16.278" r="4.293"/><circle opacity=".841" fill="#CED0D2" cx="30.327" cy="16.28" r="4.293"/><circle opacity=".836" fill="#CFD0D2" cx="30.329" cy="16.283" r="4.293"/><circle opacity=".831" fill="#CFD0D2" cx="30.331" cy="16.285" r="4.293"/><circle opacity=".826" fill="#CFD1D2" cx="30.333" cy="16.288" r="4.293"/><circle opacity=".821" fill="#CFD1D3" cx="30.335" cy="16.29" r="4.293"/><circle opacity=".816" fill="#D0D1D3" cx="30.337" cy="16.293" r="4.293"/><circle opacity=".811" fill="#D0D2D3" cx="30.339" cy="16.295" r="4.293"/><circle opacity=".806" fill="#D0D2D3" cx="30.341" cy="16.298" r="4.293"/><circle opacity=".801" fill="#D1D2D4" cx="30.343" cy="16.3" r="4.293"/><circle opacity=".796" fill="#D1D2D4" cx="30.345" cy="16.303" r="4.293"/><circle opacity=".791" fill="#D1D3D4" cx="30.347" cy="16.305" r="4.293"/><circle opacity=".786" fill="#D1D3D5" cx="30.349" cy="16.308" r="4.293"/><circle opacity=".781" fill="#D2D3D5" cx="30.351" cy="16.31" r="4.293"/><circle opacity=".776" fill="#D2D4D5" cx="30.353" cy="16.313" r="4.293"/><circle opacity=".771" fill="#D2D4D5" cx="30.355" cy="16.315" r="4.293"/><circle opacity=".766" fill="#D3D4D6" cx="30.357" cy="16.317" r="4.293"/><circle opacity=".761" fill="#D3D4D6" cx="30.359" cy="16.32" r="4.293"/><circle opacity=".756" fill="#D3D5D6" cx="30.361" cy="16.322" r="4.293"/><circle opacity=".751" fill="#D3D5D6" cx="30.364" cy="16.325" r="4.293"/><circle opacity=".746" fill="#D4D5D7" cx="30.366" cy="16.327" r="4.293"/><circle opacity=".741" fill="#D4D5D7" cx="30.368" cy="16.33" r="4.293"/><circle opacity=".736" fill="#D4D6D7" cx="30.37" cy="16.332" r="4.293"/><circle opacity=".731" fill="#D5D6D8" cx="30.372" cy="16.335" r="4.293"/><circle opacity=".726" fill="#D5D6D8" cx="30.374" cy="16.337" r="4.293"/><circle opacity=".721" fill="#D5D7D8" cx="30.376" cy="16.34" r="4.293"/><circle opacity=".716" fill="#D5D7D8" cx="30.378" cy="16.342" r="4.293"/><circle opacity=".711" fill="#D6D7D9" cx="30.38" cy="16.345" r="4.293"/><circle opacity=".707" fill="#D6D7D9" cx="30.382" cy="16.347" r="4.293"/><circle opacity=".702" fill="#D6D8D9" cx="30.384" cy="16.35" r="4.293"/><circle opacity=".697" fill="#D7D8D9" cx="30.386" cy="16.352" r="4.293"/><circle opacity=".692" fill="#D7D8DA" cx="30.388" cy="16.355" r="4.293"/><circle opacity=".687" fill="#D7D9DA" cx="30.39" cy="16.357" r="4.293"/><circle opacity=".682" fill="#D7D9DA" cx="30.392" cy="16.359" r="4.293"/><circle opacity=".677" fill="#D8D9DA" cx="30.394" cy="16.362" r="4.293"/><circle opacity=".672" fill="#D8D9DB" cx="30.396" cy="16.364" r="4.293"/><circle opacity=".667" fill="#D8DADB" cx="30.398" cy="16.367" r="4.293"/><circle opacity=".662" fill="#D9DADB" cx="30.4" cy="16.369" r="4.293"/><circle opacity=".657" fill="#D9DADC" cx="30.402" cy="16.372" r="4.293"/><circle opacity=".652" fill="#D9DBDC" cx="30.405" cy="16.374" r="4.293"/><circle opacity=".647" fill="#D9DBDC" cx="30.407" cy="16.377" r="4.293"/><circle opacity=".642" fill="#DADBDC" cx="30.409" cy="16.379" r="4.293"/><circle opacity=".637" fill="#DADBDD" cx="30.411" cy="16.382" r="4.293"/><circle opacity=".632" fill="#DADCDD" cx="30.413" cy="16.384" r="4.293"/><circle opacity=".627" fill="#DBDCDD" cx="30.415" cy="16.387" r="4.293"/><circle opacity=".622" fill="#DBDCDD" cx="30.417" cy="16.389" r="4.293"/><circle opacity=".617" fill="#DBDCDE" cx="30.419" cy="16.392" r="4.293"/><circle opacity=".612" fill="#DCDDDE" cx="30.421" cy="16.394" r="4.293"/><circle opacity=".607" fill="#DCDDDE" cx="30.423" cy="16.397" r="4.293"/><circle opacity=".602" fill="#DCDDDE" cx="30.425" cy="16.399" r="4.293"/><circle opacity=".597" fill="#DCDEDF" cx="30.427" cy="16.401" r="4.293"/><circle opacity=".592" fill="#DDDEDF" cx="30.429" cy="16.404" r="4.293"/><circle opacity=".587" fill="#DDDEDF" cx="30.431" cy="16.406" r="4.293"/><circle opacity=".582" fill="#DDDEE0" cx="30.433" cy="16.409" r="4.293"/><circle opacity=".577" fill="#DEDFE0" cx="30.435" cy="16.411" r="4.293"/><circle opacity=".572" fill="#DEDFE0" cx="30.437" cy="16.414" r="4.293"/><circle opacity=".567" fill="#DEDFE0" cx="30.439" cy="16.416" r="4.293"/><circle opacity=".562" fill="#DEE0E1" cx="30.441" cy="16.419" r="4.293"/><circle opacity=".557" fill="#DFE0E1" cx="30.443" cy="16.421" r="4.293"/><circle opacity=".552" fill="#DFE0E1" cx="30.446" cy="16.424" r="4.293"/><circle opacity=".547" fill="#DFE0E1" cx="30.448" cy="16.426" r="4.293"/><circle opacity=".542" fill="#E0E1E2" cx="30.45" cy="16.429" r="4.293"/><circle opacity=".537" fill="#E0E1E2" cx="30.452" cy="16.431" r="4.293"/><circle opacity=".532" fill="#E0E1E2" cx="30.454" cy="16.434" r="4.293"/><circle opacity=".527" fill="#E0E1E3" cx="30.456" cy="16.436" r="4.293"/><circle opacity=".522" fill="#E1E2E3" cx="30.458" cy="16.438" r="4.293"/><circle opacity=".517" fill="#E1E2E3" cx="30.46" cy="16.441" r="4.293"/><circle opacity=".512" fill="#E1E2E3" cx="30.462" cy="16.443" r="4.293"/><circle opacity=".507" fill="#E2E3E4" cx="30.464" cy="16.446" r="4.293"/><circle opacity=".502" fill="#E2E3E4" cx="30.466" cy="16.448" r="4.293"/><circle opacity=".497" fill="#E2E3E4" cx="30.468" cy="16.451" r="4.293"/><circle opacity=".492" fill="#E2E3E4" cx="30.47" cy="16.453" r="4.293"/><circle opacity=".488" fill="#E3E4E5" cx="30.472" cy="16.456" r="4.293"/><circle opacity=".483" fill="#E3E4E5" cx="30.474" cy="16.458" r="4.293"/><circle opacity=".478" fill="#E3E4E5" cx="30.476" cy="16.461" r="4.293"/><circle opacity=".473" fill="#E4E5E5" cx="30.478" cy="16.463" r="4.293"/><circle opacity=".468" fill="#E4E5E6" cx="30.48" cy="16.466" r="4.293"/><circle opacity=".463" fill="#E4E5E6" cx="30.482" cy="16.468" r="4.293"/><circle opacity=".458" fill="#E4E5E6" cx="30.484" cy="16.471" r="4.293"/><circle opacity=".453" fill="#E5E6E7" cx="30.486" cy="16.473" r="4.293"/><circle opacity=".448" fill="#E5E6E7" cx="30.489" cy="16.476" r="4.293"/><circle opacity=".443" fill="#E5E6E7" cx="30.491" cy="16.478" r="4.293"/><circle opacity=".438" fill="#E6E6E7" cx="30.493" cy="16.48" r="4.293"/><circle opacity=".433" fill="#E6E7E8" cx="30.495" cy="16.483" r="4.293"/><circle opacity=".428" fill="#E6E7E8" cx="30.497" cy="16.485" r="4.293"/><circle opacity=".423" fill="#E6E7E8" cx="30.499" cy="16.488" r="4.293"/><circle opacity=".418" fill="#E7E8E8" cx="30.501" cy="16.49" r="4.293"/><circle opacity=".413" fill="#E7E8E9" cx="30.503" cy="16.493" r="4.293"/><circle opacity=".408" fill="#E7E8E9" cx="30.505" cy="16.495" r="4.293"/><circle opacity=".403" fill="#E8E8E9" cx="30.507" cy="16.498" r="4.293"/><circle opacity=".398" fill="#E8E9EA" cx="30.509" cy="16.5" r="4.293"/><circle opacity=".393" fill="#E8E9EA" cx="30.511" cy="16.503" r="4.293"/><circle opacity=".388" fill="#E8E9EA" cx="30.513" cy="16.505" r="4.293"/><circle opacity=".383" fill="#E9EAEA" cx="30.515" cy="16.508" r="4.293"/><circle opacity=".378" fill="#E9EAEB" cx="30.517" cy="16.51" r="4.293"/><circle opacity=".373" fill="#E9EAEB" cx="30.519" cy="16.513" r="4.293"/><circle opacity=".368" fill="#EAEAEB" cx="30.521" cy="16.515" r="4.293"/><circle opacity=".363" fill="#EAEBEB" cx="30.523" cy="16.518" r="4.293"/><circle opacity=".358" fill="#EAEBEC" cx="30.525" cy="16.52" r="4.293"/><circle opacity=".353" fill="#EBEBEC" cx="30.527" cy="16.522" r="4.293"/><circle opacity=".348" fill="#EBEBEC" cx="30.53" cy="16.525" r="4.293"/><circle opacity=".343" fill="#EBECEC" cx="30.532" cy="16.527" r="4.293"/><circle opacity=".338" fill="#EBECED" cx="30.534" cy="16.53" r="4.293"/><circle opacity=".333" fill="#ECECED" cx="30.536" cy="16.532" r="4.293"/><circle opacity=".328" fill="#ECEDED" cx="30.538" cy="16.535" r="4.293"/><circle opacity=".323" fill="#ECEDEE" cx="30.54" cy="16.537" r="4.293"/><circle opacity=".318" fill="#EDEDEE" cx="30.542" cy="16.54" r="4.293"/><circle opacity=".313" fill="#EDEDEE" cx="30.544" cy="16.542" r="4.293"/><circle opacity=".308" fill="#EDEEEE" cx="30.546" cy="16.545" r="4.293"/><circle opacity=".303" fill="#EDEEEF" cx="30.548" cy="16.547" r="4.293"/><circle opacity=".298" fill="#EEEEEF" cx="30.55" cy="16.55" r="4.293"/><circle opacity=".293" fill="#EEEFEF" cx="30.552" cy="16.552" r="4.293"/><circle opacity=".289" fill="#EEEFEF" cx="30.554" cy="16.555" r="4.293"/><circle opacity=".284" fill="#EFEFF0" cx="30.556" cy="16.557" r="4.293"/><circle opacity=".279" fill="#EFEFF0" cx="30.558" cy="16.56" r="4.293"/><circle opacity=".274" fill="#EFF0F0" cx="30.56" cy="16.562" r="4.293"/><circle opacity=".269" fill="#EFF0F0" cx="30.562" cy="16.564" r="4.293"/><circle opacity=".264" fill="#F0F0F1" cx="30.564" cy="16.567" r="4.293"/><circle opacity=".259" fill="#F0F1F1" cx="30.566" cy="16.569" r="4.293"/><circle opacity=".254" fill="#F0F1F1" cx="30.568" cy="16.572" r="4.293"/><circle opacity=".249" fill="#F1F1F2" cx="30.57" cy="16.574" r="4.293"/><circle opacity=".244" fill="#F1F1F2" cx="30.573" cy="16.577" r="4.293"/><circle opacity=".239" fill="#F1F2F2" cx="30.575" cy="16.579" r="4.293"/><circle opacity=".234" fill="#F1F2F2" cx="30.577" cy="16.582" r="4.293"/><circle opacity=".229" fill="#F2F2F3" cx="30.579" cy="16.584" r="4.293"/><circle opacity=".224" fill="#F2F2F3" cx="30.581" cy="16.587" r="4.293"/><circle opacity=".219" fill="#F2F3F3" cx="30.583" cy="16.589" r="4.293"/><circle opacity=".214" fill="#F3F3F3" cx="30.585" cy="16.592" r="4.293"/><circle opacity=".209" fill="#F3F3F4" cx="30.587" cy="16.594" r="4.293"/><circle opacity=".204" fill="#F3F4F4" cx="30.589" cy="16.597" r="4.293"/><circle opacity=".199" fill="#F3F4F4" cx="30.591" cy="16.599" r="4.293"/><circle opacity=".194" fill="#F4F4F5" cx="30.593" cy="16.602" r="4.293"/><circle opacity=".189" fill="#F4F4F5" cx="30.595" cy="16.604" r="4.293"/><circle opacity=".184" fill="#F4F5F5" cx="30.597" cy="16.606" r="4.293"/><circle opacity=".179" fill="#F5F5F5" cx="30.599" cy="16.609" r="4.293"/><circle opacity=".174" fill="#F5F5F6" cx="30.601" cy="16.611" r="4.293"/><circle opacity=".169" fill="#F5F6F6" cx="30.603" cy="16.614" r="4.293"/><circle opacity=".164" fill="#F5F6F6" cx="30.605" cy="16.616" r="4.293"/><circle opacity=".159" fill="#F6F6F6" cx="30.607" cy="16.619" r="4.293"/><circle opacity=".154" fill="#F6F6F7" cx="30.609" cy="16.621" r="4.293"/><circle opacity=".149" fill="#F6F7F7" cx="30.611" cy="16.624" r="4.293"/><circle opacity=".144" fill="#F7F7F7" cx="30.614" cy="16.626" r="4.293"/><circle opacity=".139" fill="#F7F7F7" cx="30.616" cy="16.629" r="4.293"/><circle opacity=".134" fill="#F7F7F8" cx="30.618" cy="16.631" r="4.293"/><circle opacity=".129" fill="#F7F8F8" cx="30.62" cy="16.634" r="4.293"/><circle opacity=".124" fill="#F8F8F8" cx="30.622" cy="16.636" r="4.293"/><circle opacity=".119" fill="#F8F8F9" cx="30.624" cy="16.639" r="4.293"/><circle opacity=".114" fill="#F8F9F9" cx="30.626" cy="16.641" r="4.293"/><circle opacity=".11" fill="#F9F9F9" cx="30.628" cy="16.644" r="4.293"/><circle opacity=".104" fill="#F9F9F9" cx="30.63" cy="16.646" r="4.293"/><circle opacity=".1" fill="#F9F9FA" cx="30.632" cy="16.648" r="4.293"/><circle opacity=".095" fill="#FAFAFA" cx="30.634" cy="16.651" r="4.293"/><circle opacity=".09" fill="#FAFAFA" cx="30.636" cy="16.653" r="4.293"/><circle opacity=".085" fill="#FAFAFA" cx="30.638" cy="16.656" r="4.293"/><circle opacity=".08" fill="#FAFBFB" cx="30.64" cy="16.658" r="4.293"/><circle opacity=".075" fill="#FBFBFB" cx="30.642" cy="16.661" r="4.293"/><circle opacity=".07" fill="#FBFBFB" cx="30.644" cy="16.663" r="4.293"/><circle opacity=".065" fill="#FBFBFC" cx="30.646" cy="16.666" r="4.293"/><circle opacity=".06" fill="#FCFCFC" cx="30.648" cy="16.668" r="4.293"/><circle opacity=".055" fill="#FCFCFC" cx="30.65" cy="16.671" r="4.293"/><circle opacity=".05" fill="#FCFCFC" cx="30.652" cy="16.673" r="4.293"/><circle opacity=".045" fill="#FCFCFD" cx="30.655" cy="16.676" r="4.293"/><circle opacity=".04" fill="#FDFDFD" cx="30.657" cy="16.678" r="4.293"/><circle opacity=".035" fill="#FDFDFD" cx="30.659" cy="16.681" r="4.293"/><circle opacity=".03" fill="#FDFDFD" cx="30.661" cy="16.683" r="4.293"/><circle opacity=".025" fill="#FEFEFE" cx="30.663" cy="16.686" r="4.293"/><circle opacity=".02" fill="#FEFEFE" cx="30.665" cy="16.688" r="4.293"/><circle opacity=".015" fill="#FEFEFE" cx="30.667" cy="16.69" r="4.293"/><circle opacity=".01" fill="#FEFEFE" cx="30.669" cy="16.693" r="4.293"/><circle opacity=".005" fill="#FFF" cx="30.671" cy="16.695" r="4.293"/></g></g><g fill="#231F20"><path d="M53.741 11.878c0-.141-.097-.219-.269-.219h-.228v.709h.169v-.275l.199.275h.207l-.233-.292c.099-.027.155-.099.155-.198zm-.299.097h-.029v-.185h.03c.084 0 .127.03.127.091.001.062-.043.094-.128.094z"/><path d="M53.506 11.394a.615.615 0 0 0-.618.618c0 .343.276.618.618.618.335 0 .61-.278.61-.618a.617.617 0 0 0-.61-.618zm-.002 1.126a.5.5 0 0 1-.493-.507c0-.282.219-.508.493-.508.27 0 .49.231.49.508a.501.501 0 0 1-.49.507z"/></g></svg>