<svg xmlns="http://www.w3.org/2000/svg" width="45.125" height="40.625" viewBox="0 0 45.125 40.625"><path fill="#1E89FB" d="M44.255 37.91c0 1.1-.9 2-2 2H3.005c-1.1 0-2-.9-2-2V2.912c0-1.1.9-2 2-2h39.25c1.1 0 2 .9 2 2V37.91z"/><path fill="#FFF" d="M43.005 37.782c0 .55-.45 1-1 1H3.255c-.55 0-1-.45-1-1V3.039c0-.55.45-1 1-1h38.75c.55 0 1 .45 1 1v34.743z"/><path fill="#F72322" d="M37.316 7.494l-3.097 17.413-3.082-17.413H27.63l4.498 25.296h4.197l4.477-25.296z"/><path d="M22.591 29.517V7.6h-3.417V32.684h9.456v-3.167z"/><path fill="#1E89FB" d="M16.151 10.767V7.6H5.901V32.684h10.25v-3.167H9.317v-8.25h5.855V18.1H9.317v-7.333z"/></svg>