<svg xmlns="http://www.w3.org/2000/svg" width="59.625" height="26.333" viewBox="0 0 59.625 26.333"><path fill="#FFF" d="M53.145.633H5.101A4.342 4.342 0 0 0 .757 4.974v16.499a4.344 4.344 0 0 0 4.344 4.341h48.044V.633z"/><path fill="#FFF" d="M30.901 2.458H4.974a2.494 2.494 0 0 0-2.492 2.489v16.529a2.496 2.496 0 0 0 2.492 2.49h25.927V2.458z"/><path fill="#000268" d="M54.594.599H4.974A4.35 4.35 0 0 0 .622 4.947v16.529a4.35 4.35 0 0 0 4.352 4.348h49.62a4.351 4.351 0 0 0 4.352-4.348V4.947A4.35 4.35 0 0 0 54.594.599zM2.482 21.476V4.947a2.495 2.495 0 0 1 2.492-2.49h25.927v21.508H4.974a2.493 2.493 0 0 1-2.492-2.489z"/><path fill="#FFF" d="M37.793 13.02c0 1.003-.496 1.692-1.318 1.692-.726 0-1.331-.689-1.331-1.607 0-.942.533-1.644 1.331-1.644.846 0 1.318.725 1.318 1.559m-4.826 5.753h2.177v-3.42h.024c.411.749 1.234 1.027 1.996 1.027 1.875 0 2.878-1.547 2.878-3.408 0-1.522-.955-3.178-2.696-3.178-.992 0-1.911.399-2.347 1.281h-.024V9.938h-2.008v8.835zM43.015 14.241c0-.604.58-.834 1.318-.834.327 0 .641.024.919.036 0 .737-.52 1.487-1.343 1.487-.507 0-.894-.255-.894-.689m4.39 1.993a7.676 7.676 0 0 1-.121-1.486v-2.344c0-1.922-1.391-2.61-2.999-2.61-.932 0-1.742.132-2.516.447l.036 1.474c.605-.338 1.307-.471 2.008-.471.786 0 1.428.23 1.44 1.088a6.304 6.304 0 0 0-1.016-.085c-1.161 0-3.253.23-3.253 2.152 0 1.366 1.113 1.982 2.358 1.982.895 0 1.5-.351 1.995-1.136h.024c0 .326.037.653.049.99h1.995zM48.383 18.773c.448.097.895.145 1.355.145 1.996 0 2.467-1.536 3.084-3.118l2.31-5.862h-2.177l-1.294 4.109h-.024l-1.355-4.109h-2.346l2.551 6.441c-.156.556-.568.87-1.099.87-.303 0-.57-.036-.859-.133l-.146 1.657z"/><path fill="#FF0007" d="M7.816 13.032c0-.858.423-1.571 1.234-1.571.979 0 1.391.785 1.391 1.486 0 .967-.617 1.62-1.391 1.62-.653 0-1.234-.556-1.234-1.535m4.729-3.094h-1.972v1.136h-.023c-.46-.773-1.21-1.281-2.141-1.281-1.959 0-2.842 1.402-2.842 3.275 0 1.862 1.076 3.166 2.806 3.166.871 0 1.596-.337 2.116-1.075h.024v.339c0 1.233-.677 1.825-1.935 1.825-.907 0-1.463-.193-2.128-.52l-.109 1.716a7.35 7.35 0 0 0 2.407.399c2.54 0 3.798-.834 3.798-3.42v-5.56zM16.224 7.316h-2.177v1.595h2.177V7.316zm-2.177 8.918h2.177V9.938h-2.177v6.296zM22.286 9.865a4.663 4.663 0 0 0-.738-.072c-.943 0-1.488.507-1.863 1.305h-.024v-1.16h-1.984v6.296h2.177v-2.658c0-1.233.569-1.97 1.584-1.97.254 0 .496 0 .737.072l.111-1.813zM26.034 14.857c-1.004 0-1.415-.834-1.415-1.764 0-.943.411-1.777 1.415-1.777s1.415.834 1.415 1.777c0 .931-.411 1.764-1.415 1.764m0 1.523c2.08 0 3.664-1.208 3.664-3.287 0-2.091-1.584-3.299-3.664-3.299s-3.665 1.208-3.665 3.299c.001 2.079 1.585 3.287 3.665 3.287"/></svg>