<svg xmlns="http://www.w3.org/2000/svg" width="44.833" height="38.917" viewBox="0 0 44.833 38.917"><path d="M5.822 21.909h6.929v11.506H5.822z"/><circle cx="9.352" cy="16.157" r="3.922"/><path d="M25.877.687H1.016V38.39h24.861v-.007c5.431-.074 9.733-1.423 12.785-4.02 3.713-3.159 5.595-8.146 5.595-14.824 0-3.192-.495-6.055-1.472-8.51-.934-2.348-2.315-4.345-4.103-5.934C35.532 2.296 31.11.782 25.876.696V.687zm-.471 2.504c4.818 0 8.834 1.305 11.613 3.775 3.141 2.792 4.734 7.022 4.734 12.572 0 11-5.347 16.347-16.347 16.347H3.52V3.191h21.886z"/><path fill="#CD0067" d="M24.722 33.428h-8.789V6.24h8.789-.355c7.33 0 15.132 2.893 15.132 13.63 0 11.351-7.802 13.558-15.132 13.558h.355z"/><g fill="#FFF"><path d="M14.418 13.258h2.413c.544 0 .959.042 1.245.125.384.113.712.314.986.602.274.289.482.642.624 1.06.143.418.214.933.214 1.546 0 .538-.067 1.003-.201 1.392-.164.476-.397.861-.7 1.156-.229.223-.538.397-.928.522-.291.093-.681.139-1.168.139h-2.485v-6.542zm1.319 1.109v4.324h.988c.37 0 .636-.021.8-.062a1.21 1.21 0 0 0 .534-.272c.142-.128.257-.338.347-.63.089-.292.134-.691.134-1.196s-.045-.892-.134-1.162c-.089-.27-.215-.481-.376-.632s-.365-.254-.613-.307c-.185-.042-.547-.062-1.087-.062h-.593z"/><path d="M14.239 13.079v6.9h2.663c.504 0 .915-.049 1.223-.147.415-.133.751-.323.999-.565.322-.313.573-.725.745-1.226.14-.407.21-.895.21-1.45 0-.63-.075-1.169-.224-1.604a3.04 3.04 0 0 0-.664-1.125 2.382 2.382 0 0 0-1.065-.651c-.305-.089-.729-.132-1.295-.132h-2.592zm2.592.358c.525 0 .927.04 1.194.118.351.103.656.29.906.554a2.7 2.7 0 0 1 .585.995c.136.397.205.898.205 1.488 0 .516-.064.965-.191 1.334-.154.447-.374.812-.656 1.086-.208.203-.497.364-.858.48-.272.086-.647.13-1.114.13h-2.306v-6.184l2.235-.001z"/><path d="M15.558 14.188v4.682h1.167c.388 0 .664-.022.844-.068a1.4 1.4 0 0 0 .61-.312c.168-.151.298-.384.398-.711.096-.312.142-.721.142-1.248 0-.529-.047-.927-.143-1.218a1.67 1.67 0 0 0-.423-.706 1.444 1.444 0 0 0-.697-.352c-.198-.045-.567-.066-1.124-.066h-.774zm.774.358c.652 0 .93.032 1.047.058.215.047.393.135.529.263.138.13.249.318.328.558.083.251.125.623.125 1.106 0 .485-.043.869-.126 1.143-.079.26-.179.445-.295.55a1.055 1.055 0 0 1-.458.231c-.15.038-.404.057-.757.057h-.809v-3.966h.416zM21.393 19.8v-6.542h4.843v1.109h-3.524v1.449h3.278v1.109h-3.278v1.766h3.649V19.8h-4.968z"/><path d="M21.214 13.079v6.9h5.326v-1.467h-3.649v-1.409h3.278v-1.467h-3.278v-1.091h3.524v-1.467h-5.201zm4.843.358v.751h-3.524v1.807h3.278v.751h-3.278v2.124h3.649v.751h-4.61v-6.184h4.485z"/><g><path d="M33.748 19.8h-1.437l-.571-1.485h-2.614l-.541 1.485h-1.401l2.542-6.542h1.406l2.616 6.542zm-2.432-2.593l-.902-2.424-.884 2.424h1.786z"/><path d="M29.603 13.079l-2.681 6.9h1.788l.541-1.485h2.366l.571 1.485h1.824l-2.759-6.9h-1.65zm1.408.358l2.473 6.184h-1.05l-.571-1.485h-2.862l-.541 1.485h-1.015l2.403-6.184h1.163z"/><path d="M29.275 17.385h2.298l-1.161-3.12-1.137 3.12zm1.141-2.085l.643 1.727h-1.272l.629-1.727z"/></g><g><path d="M34.851 19.8v-6.488h1.319v5.379h3.287V19.8h-4.606z"/><path d="M34.672 13.133v6.846h4.963v-1.467h-3.287v-5.379h-1.676zm1.32.358v5.379h3.287v.751h-4.248V13.49l.961.001z"/></g></g></svg>