<svg xmlns="http://www.w3.org/2000/svg" width="50.167" height="38.917" viewBox="0 0 50.167 38.917"><path fill="#6C6BBD" d="M18.517 3.944h13.148v23.629H18.517z"/><path fill="#D32011" d="M19.351 15.759A15 15 0 0 1 25.09 3.945 14.962 14.962 0 0 0 15.804.732C7.505.732.778 7.46.778 15.759s6.727 15.027 15.026 15.027a14.96 14.96 0 0 0 9.286-3.213 15.002 15.002 0 0 1-5.739-11.814"/><path fill="#0099DF" d="M49.403 15.759c0 8.3-6.727 15.027-15.026 15.027a14.965 14.965 0 0 1-9.287-3.213 15 15 0 0 0 5.74-11.814c0-4.793-2.244-9.063-5.74-11.814A14.967 14.967 0 0 1 34.377.732c8.299 0 15.026 6.728 15.026 15.027"/><path fill="#110F0D" d="M36.114 34.25c.175 0 .426.033.618.109l-.268.818a1.414 1.414 0 0 0-.543-.1c-.568 0-.851.367-.851 1.026v2.238h-.868v-3.99h.86v.484c.225-.351.551-.585 1.052-.585zm-3.209.894h-1.419v1.803c0 .4.141.668.576.668a1.6 1.6 0 0 0 .767-.225l.25.742c-.275.192-.709.31-1.084.31-1.027 0-1.385-.551-1.385-1.478v-1.819h-.81v-.793h.81v-1.21h.876v1.21h1.419v.792zm-11.11.851c.093-.576.442-.969 1.06-.969.559 0 .918.351 1.01.969h-2.07zm2.972.35c-.009-1.244-.777-2.095-1.896-2.095-1.168 0-1.986.851-1.986 2.095 0 1.268.851 2.094 2.046 2.094.601 0 1.151-.15 1.636-.559l-.426-.643c-.333.268-.76.418-1.16.418-.559 0-1.068-.259-1.193-.976h2.963c.008-.109.016-.217.016-.334zm3.814-.976a2.56 2.56 0 0 0-1.243-.343c-.476 0-.76.176-.76.468 0 .267.3.342.675.392l.409.058c.868.126 1.394.493 1.394 1.194 0 .76-.668 1.302-1.819 1.302-.652 0-1.253-.167-1.728-.518l.409-.676c.292.225.727.418 1.328.418.592 0 .91-.175.91-.484 0-.225-.225-.351-.701-.417l-.409-.058c-.893-.126-1.378-.526-1.378-1.177 0-.793.652-1.277 1.661-1.277.634 0 1.21.142 1.627.418l-.375.7zm10.706-.294c-.179 0-.344.032-.498.094a1.18 1.18 0 0 0-.661.67 1.376 1.376 0 0 0-.096.521c0 .19.032.363.096.521a1.2 1.2 0 0 0 .661.67c.154.063.319.094.498.094s.345-.031.498-.094a1.21 1.21 0 0 0 .666-.67c.064-.158.096-.331.096-.521 0-.189-.032-.363-.096-.521a1.21 1.21 0 0 0-.666-.67 1.299 1.299 0 0 0-.498-.094zm0-.825c.31 0 .596.054.86.161a2.03 2.03 0 0 1 1.136 1.11c.109.257.163.536.163.837 0 .301-.054.58-.163.837a2.034 2.034 0 0 1-1.136 1.111c-.264.107-.55.16-.86.16-.31 0-.596-.053-.86-.16a2.078 2.078 0 0 1-.681-.443 2.06 2.06 0 0 1-.45-.668 2.121 2.121 0 0 1-.163-.837c0-.301.054-.58.163-.837.109-.256.259-.479.45-.667.191-.188.418-.336.681-.443.263-.107.55-.161.86-.161zm-22.563 2.095c0-.701.46-1.277 1.21-1.277.718 0 1.202.551 1.202 1.277s-.484 1.276-1.202 1.276c-.751.001-1.21-.574-1.21-1.276zm3.23 0V34.35h-.867v.484c-.276-.359-.693-.585-1.26-.585-1.119 0-1.995.876-1.995 2.095 0 1.218.876 2.095 1.995 2.095.568 0 .984-.225 1.26-.585v.484h.867v-1.993zm-4.891 1.995v-2.504c0-.943-.601-1.577-1.569-1.586-.509-.009-1.036.15-1.403.71-.275-.442-.71-.71-1.319-.71-.425 0-.843.125-1.168.592v-.492h-.867v3.99h.876v-2.212c0-.693.384-1.06.976-1.06.576 0 .868.375.868 1.052v2.22h.876v-2.212c0-.693.401-1.06.976-1.06.593 0 .877.375.877 1.052v2.22h.877z"/></svg>