<svg xmlns="http://www.w3.org/2000/svg" width="49.583" height="38.917" viewBox="0 0 49.583 38.917"><g fill="#1D1D1B"><path d="M8.719 34.624a1.476 1.476 0 0 0-.496-.326 1.672 1.672 0 0 0-.629-.116c-.121 0-.246.01-.376.031-.13.021-.257.057-.382.11a1.446 1.446 0 0 0-.356.218c-.112.093-.21.21-.293.351a1.433 1.433 0 0 0-.544-.521 1.602 1.602 0 0 0-.785-.189c-.099 0-.202.009-.307.027a1.415 1.415 0 0 0-.315.093 1.244 1.244 0 0 0-.558.47v-.486h-.837v3.977h.844v-2.204c0-.169.027-.319.08-.45a.983.983 0 0 1 .215-.33.884.884 0 0 1 .315-.201c.121-.046.249-.069.386-.069.284 0 .504.09.661.27.157.18.235.437.235.772v2.213h.844V36.06c0-.169.027-.319.08-.45a.983.983 0 0 1 .215-.33.884.884 0 0 1 .315-.201c.121-.046.249-.069.386-.069.284 0 .504.09.661.27.157.18.235.437.235.772v2.213h.844v-2.499c0-.232-.038-.446-.114-.639a1.448 1.448 0 0 0-.324-.503zM13.169 34.767a1.544 1.544 0 0 0-.515-.425 1.57 1.57 0 0 0-.735-.16 1.94 1.94 0 0 0-1.834 1.252 2.251 2.251 0 0 0-.154.841c0 .305.051.585.154.841a1.949 1.949 0 0 0 1.834 1.252c.285 0 .53-.053.735-.158.205-.105.376-.246.515-.423v.477h.868v-3.977h-.868v.48zm-.033 2.014c-.058.155-.14.289-.245.403a1.126 1.126 0 0 1-.378.268c-.147.065-.31.098-.49.098-.188 0-.356-.034-.504-.102a1.13 1.13 0 0 1-.613-.679 1.468 1.468 0 0 1-.083-.494c0-.174.028-.339.083-.494.055-.155.134-.29.237-.405a1.12 1.12 0 0 1 .376-.274c.148-.068.316-.102.504-.102.18 0 .343.033.49.098.147.065.273.154.378.268.105.114.187.248.245.403.058.155.087.324.087.506s-.029.351-.087.506zM18.025 36.268c-.244-.19-.583-.316-1.017-.38l-.411-.062a3.826 3.826 0 0 1-.257-.048.844.844 0 0 1-.208-.073.398.398 0 0 1-.139-.116.283.283 0 0 1-.052-.174c0-.141.066-.255.197-.342.131-.087.316-.131.554-.131.124 0 .247.011.367.033a3.002 3.002 0 0 1 .637.193c.088.04.163.078.224.114l.374-.677a2.542 2.542 0 0 0-.727-.309 3.453 3.453 0 0 0-.884-.11c-.255 0-.483.03-.685.089a1.59 1.59 0 0 0-.517.253 1.095 1.095 0 0 0-.328.401 1.21 1.21 0 0 0-.114.531.98.98 0 0 0 .342.778c.228.198.564.327 1.007.388l.415.054c.238.033.412.087.523.16.111.073.166.167.166.28 0 .15-.076.268-.228.355-.152.087-.378.131-.677.131-.163 0-.309-.011-.438-.033a2.218 2.218 0 0 1-.353-.089 1.61 1.61 0 0 1-.286-.129 1.996 1.996 0 0 1-.235-.156l-.403.652c.144.108.295.195.453.262a3.065 3.065 0 0 0 .897.231c.136.012.255.019.357.019.285 0 .54-.032.766-.095.226-.064.415-.153.569-.268a1.128 1.128 0 0 0 .475-.936c.001-.341-.121-.606-.364-.796zM26.148 34.761a1.707 1.707 0 0 0-.594-.428 1.882 1.882 0 0 0-.762-.152c-.293 0-.561.051-.803.152s-.45.244-.625.428c-.174.184-.31.405-.407.662a2.394 2.394 0 0 0-.145.851c0 .316.05.602.149.859a1.847 1.847 0 0 0 1.062 1.083c.249.1.523.15.822.15.302 0 .589-.042.861-.125a2.15 2.15 0 0 0 .774-.436l-.432-.619a1.923 1.923 0 0 1-.55.309c-.201.073-.401.11-.6.11a1.41 1.41 0 0 1-.407-.058 1.065 1.065 0 0 1-.623-.494 1.29 1.29 0 0 1-.154-.461h2.939a2.405 2.405 0 0 0 .017-.324c0-.31-.046-.593-.139-.849a1.933 1.933 0 0 0-.383-.658zm-2.426 1.173c.022-.144.061-.276.116-.396.055-.12.127-.224.214-.311a.897.897 0 0 1 .311-.201c.12-.047.258-.071.413-.071.277 0 .502.086.677.257.174.172.285.412.332.722h-2.063zM37.676 34.767a1.544 1.544 0 0 0-.515-.425 1.57 1.57 0 0 0-.735-.16 1.94 1.94 0 0 0-1.834 1.252 2.251 2.251 0 0 0-.154.841c0 .305.051.585.154.841a1.949 1.949 0 0 0 1.834 1.252c.285 0 .53-.053.735-.158.205-.105.376-.246.515-.423v.477h.868v-3.977h-.868v.48zm-.034 2.014c-.058.155-.14.289-.245.403a1.126 1.126 0 0 1-.378.268c-.147.065-.31.098-.49.098-.188 0-.356-.034-.504-.102a1.13 1.13 0 0 1-.613-.679 1.468 1.468 0 0 1-.083-.494c0-.174.028-.339.083-.494.055-.155.134-.29.237-.405a1.12 1.12 0 0 1 .376-.274c.149-.068.317-.102.505-.102.18 0 .343.033.49.098.147.065.273.154.378.268.105.114.187.248.245.403.058.155.087.324.087.506s-.029.351-.088.506zM21.745 37.47c-.14.053-.277.079-.413.079a.708.708 0 0 1-.247-.042.509.509 0 0 1-.199-.131.623.623 0 0 1-.135-.23 1.033 1.033 0 0 1-.05-.34v-1.731h1.393v-.789h-1.393v-1.204h-.872v1.204h-.793v.789h.793v1.748c0 .529.125.918.376 1.169.25.251.601.376 1.052.376.252 0 .478-.039.679-.116.133-.051.256-.11.371-.174l-.297-.728a2.202 2.202 0 0 1-.265.12zM29.578 34.182c-.244 0-.464.044-.66.133-.197.089-.361.302-.494.493v-.522h-.788v3.977h.796v-2.188c0-.169.023-.32.071-.453a.972.972 0 0 1 .195-.336.827.827 0 0 1 .299-.208c.116-.047.243-.071.382-.071a1.688 1.688 0 0 1 .514.084l.257-.83a1.542 1.542 0 0 0-.213-.053 2.281 2.281 0 0 0-.359-.026zM41.64 34.182c-.244 0-.464.044-.66.133-.197.089-.361.302-.494.493v-.522h-.788v3.977h.796v-2.188c0-.169.023-.32.071-.453a.972.972 0 0 1 .195-.336.827.827 0 0 1 .299-.208c.116-.047.243-.071.382-.071a1.688 1.688 0 0 1 .514.084l.257-.83a1.542 1.542 0 0 0-.213-.053 2.3 2.3 0 0 0-.359-.026zM45.692 32.669v2.098a1.544 1.544 0 0 0-.515-.425 1.57 1.57 0 0 0-.735-.16 1.94 1.94 0 0 0-1.834 1.252 2.251 2.251 0 0 0-.154.841c0 .305.051.585.154.841a1.949 1.949 0 0 0 1.834 1.252c.285 0 .53-.053.735-.158.205-.105.376-.246.515-.423v.477h.868v-5.593h-.868zm-.033 4.112c-.058.155-.14.289-.245.403a1.126 1.126 0 0 1-.378.268c-.147.065-.31.098-.49.098-.188 0-.356-.034-.504-.102a1.13 1.13 0 0 1-.613-.679 1.468 1.468 0 0 1-.083-.494c0-.174.028-.339.083-.494.055-.155.134-.29.237-.405a1.12 1.12 0 0 1 .376-.274c.148-.068.316-.102.504-.102.18 0 .343.033.49.098.147.065.273.154.378.268.105.114.187.248.245.403.058.155.087.324.087.506s-.029.351-.087.506zM31.655 35.355c.111-.112.242-.199.394-.262.152-.062.317-.093.494-.093.195 0 .376.031.543.093.162.06.302.144.421.251l.418-.695a2.145 2.145 0 0 0-.529-.308 2.233 2.233 0 0 0-.853-.16 2.23 2.23 0 0 0-.853.16 2.063 2.063 0 0 0-.677.44c-.19.187-.338.408-.446.662a2.104 2.104 0 0 0-.162.83c0 .299.054.576.162.83.108.255.257.475.446.662.19.187.415.334.677.44.262.107.546.16.853.16.307 0 .591-.053.853-.16.196-.08.373-.182.529-.308l-.418-.695a1.295 1.295 0 0 1-.421.251 1.552 1.552 0 0 1-.543.093c-.177 0-.342-.031-.494-.093a1.148 1.148 0 0 1-.394-.262 1.216 1.216 0 0 1-.262-.403 1.352 1.352 0 0 1-.095-.517c0-.188.032-.36.095-.517a1.24 1.24 0 0 1 .262-.399z"/></g><path fill="#1D1D1B" d="M48.388 37.68a.423.423 0 0 1 .295.119.413.413 0 0 1 .122.287.418.418 0 0 1-.582.375.406.406 0 0 1-.133-.662.414.414 0 0 1 .298-.119zm0 .699a.294.294 0 0 0 .269-.179.295.295 0 0 0-.155-.384.29.29 0 0 0-.23 0 .286.286 0 0 0-.178.269.295.295 0 0 0 .178.271.276.276 0 0 0 .116.023zm.023-.473c.049 0 .087.011.112.033a.108.108 0 0 1 .038.088.097.097 0 0 1-.028.072.14.14 0 0 1-.08.037l.112.129h-.121l-.1-.126h-.012v.126h-.101v-.359h.18zm-.078.088v.066h.076a.07.07 0 0 0 .036-.007.027.027 0 0 0 .013-.025c0-.011-.004-.02-.013-.025a.069.069 0 0 0-.036-.008h-.076z"/><path fill="#E20D17" d="M18.982 15.696c0-4.765 2.226-9.007 5.691-11.752A14.921 14.921 0 0 0 15.376.708C7.098.708.388 7.419.388 15.696s6.711 14.988 14.988 14.988c3.513 0 6.742-1.212 9.297-3.236-3.465-2.746-5.691-6.988-5.691-11.752z"/><path fill="#EA610A" d="M18.982 15.696c0 4.765 2.226 9.007 5.691 11.752 3.466-2.745 5.691-6.987 5.691-11.752s-2.226-9.007-5.691-11.752c-3.465 2.745-5.691 6.987-5.691 11.752z"/><path fill="#F59E00" d="M47.942 23.803v-.439h-.177v-.121h.486v.121h-.177v.439h-.132zm.94 0v-.388l-.126.335h-.139l-.126-.334v.387h-.131v-.559h.188l.139.358.138-.358h.188v.559h-.131zM33.97.707a14.921 14.921 0 0 0-9.297 3.236c3.466 2.745 5.691 6.987 5.691 11.752s-2.226 9.007-5.691 11.752a14.921 14.921 0 0 0 9.297 3.236c8.278 0 14.988-6.711 14.988-14.988S42.248.707 33.97.707z"/></svg>