<svg xmlns="http://www.w3.org/2000/svg" width="69.188" height="12.085" viewBox="0 0 69.188 12.085"><g fill="#8DC640"><path d="M60.89 5.387c-.368.257-.902.383-1.633.383h-.725l.556-3.002H59.621c.607 0 1.05.098 1.355.296.239.155.521.463.521 1.047.001.704-.328 1.082-.607 1.276M17.655 9.154h-5.609l.363-1.962h3.518l.4-2.21h-3.484l.337-1.942h5.599l-1.124 6.114zm46.257-7.797c-.825-.565-2.073-.85-3.709-.85h-4.285l-1.593 8.648h-5.613l.36-1.962h3.382l.402-2.204-3.38.006.362-1.954h3.483l.463-2.535H46.71L45.198 8.71h-2.594L44.127.506h-3.698L38.917 8.71h-2.529L37.912.506h-3.695L32.62 9.155h-5.653l.356-1.962h3.397l.4-2.191-3.392-.003.36-1.957h3.521L32.07.507H10.03L8.777 7.36 6.277.507H2.441L.377 11.691H4.04l1.249-7.042 2.426 7.042h13.13l1.596-8.65h2.054l-1.597 8.65h34.548l1.001-5.46 1.622 5.46h3.665l-1.679-4.462.383-.083c.845-.181 1.506-.571 1.965-1.154.46-.589.693-1.346.693-2.255 0-1.058-.387-1.836-1.184-2.38M66.932 10.368l.499-.026a.744.744 0 0 0 .248-.046.261.261 0 0 0 .131-.113.281.281 0 0 0 .038-.16.264.264 0 0 0-.101-.202c-.063-.051-.16-.071-.29-.065l-.555.028.03.584zm-.184.993l-.09-1.759.781-.039c.156-.008.275.002.359.029.084.027.151.08.204.157a.484.484 0 0 1 .086.261.438.438 0 0 1-.105.322c-.076.089-.198.15-.365.182a.595.595 0 0 1 .144.08c.071.059.14.134.205.225l.328.463-.29.015-.251-.354a2.885 2.885 0 0 0-.18-.234.529.529 0 0 0-.124-.111.371.371 0 0 0-.108-.042.66.66 0 0 0-.13-.001l-.269.014.039.782-.234.01z"/><path d="M65.986 10.51a1.361 1.361 0 0 1 1.294-1.432 1.364 1.364 0 0 1 1.431 1.292l.003.07c0 .721-.568 1.325-1.296 1.363a1.366 1.366 0 0 1-1.432-1.293m1.278-1.712a1.636 1.636 0 0 0-1.136.541 1.638 1.638 0 0 0-.422 1.186 1.648 1.648 0 0 0 1.727 1.558 1.646 1.646 0 0 0 1.557-1.726v-.001a1.645 1.645 0 0 0-1.726-1.558"/></g></svg>