<svg xmlns="http://www.w3.org/2000/svg" width="58.063" height="16.188" viewBox="0 0 58.063 16.188"><path fill="#009BDE" d="M39.051.575h-4.466a.621.621 0 0 0-.613.524L32.166 12.55a.372.372 0 0 0 .368.43h2.291a.434.434 0 0 0 .429-.367l.512-3.246a.621.621 0 0 1 .613-.524h1.413c2.942 0 4.639-1.424 5.083-4.245.2-1.234.008-2.204-.57-2.882C41.671.97 40.545.575 39.051.575zm.515 4.182c-.244 1.603-1.468 1.603-2.652 1.603h-.674l.473-2.993a.373.373 0 0 1 .368-.314h.309c.806 0 1.567 0 1.96.459.234.275.305.683.216 1.245z"/><path fill="#002F87" d="M7.199.575H2.734a.621.621 0 0 0-.613.524L.315 12.55a.372.372 0 0 0 .368.43h2.132a.621.621 0 0 0 .613-.524l.487-3.089a.621.621 0 0 1 .613-.524h1.413c2.942 0 4.639-1.424 5.083-4.245.2-1.234.008-2.204-.57-2.882C9.819.97 8.693.575 7.199.575zm.516 4.182c-.244 1.604-1.469 1.604-2.653 1.604h-.673l.473-2.993a.372.372 0 0 1 .367-.315h.309c.806 0 1.567 0 1.96.459.235.275.306.683.217 1.245zM20.547 4.706h-2.138a.373.373 0 0 0-.368.314l-.094.598-.15-.217c-.463-.672-1.495-.897-2.526-.897-2.362 0-4.381 1.79-4.773 4.301-.204 1.253.086 2.45.796 3.285.653.768 1.584 1.087 2.693 1.087 1.904 0 2.96-1.223 2.96-1.223l-.095.594a.373.373 0 0 0 .368.431h1.926a.621.621 0 0 0 .613-.524l1.156-7.32a.372.372 0 0 0-.368-.429zm-2.98 4.162c-.207 1.222-1.176 2.042-2.414 2.042-.62 0-1.117-.2-1.436-.577-.316-.374-.435-.908-.335-1.502.193-1.211 1.178-2.058 2.396-2.058.607 0 1.1.201 1.426.583.328.384.457.921.363 1.512z"/><path fill="#009BDE" d="M52.399 4.706H50.26a.373.373 0 0 0-.368.314l-.094.598-.149-.217c-.463-.672-1.495-.897-2.526-.897-2.362 0-4.381 1.79-4.773 4.301-.204 1.253.086 2.45.796 3.285.653.768 1.584 1.087 2.693 1.087 1.904 0 2.96-1.223 2.96-1.223l-.095.594a.373.373 0 0 0 .368.431h1.926a.621.621 0 0 0 .613-.524l1.156-7.32a.373.373 0 0 0-.368-.429zm-2.981 4.162c-.207 1.222-1.176 2.042-2.414 2.042-.62 0-1.117-.2-1.436-.577-.316-.374-.435-.908-.335-1.502.193-1.211 1.178-2.058 2.396-2.058.607 0 1.1.201 1.426.583.329.384.457.921.363 1.512z"/><path fill="#002F87" d="M31.936 4.706h-2.149a.619.619 0 0 0-.513.272l-2.965 4.367-1.256-4.196a.62.62 0 0 0-.594-.443h-2.113a.372.372 0 0 0-.352.492l2.367 6.947-2.226 3.141a.373.373 0 0 0 .304.588h2.147a.62.62 0 0 0 .51-.267l7.148-10.316a.374.374 0 0 0-.308-.585z"/><path fill="#009BDE" d="M54.919.89l-1.833 11.66a.372.372 0 0 0 .368.43h1.843a.621.621 0 0 0 .613-.524l1.807-11.451a.372.372 0 0 0-.368-.43h-2.063a.373.373 0 0 0-.367.315z"/></svg>