<svg xmlns="http://www.w3.org/2000/svg" width="105.375" height="18.75" viewBox="0 0 105.375 18.75"><path fill="#1B8CCB" d="M14.079 7.815c.012-.793.189-1.397.531-1.81.179-.173.405-.318.678-.437.284-.127.559-.188.826-.188h3.237c1.429.012 2.154.793 2.178 2.344V12.5c-.011.551-.226 1.029-.645 1.429-.412.42-.905.634-1.48.646h-3.062v3.443h-2.265V7.815zm5.184.45c-.011-.36-.181-.547-.512-.559h-1.763c-.418.026-.632.255-.644.686v3.173c.011.444.248.671.713.685h1.616a.531.531 0 0 0 .419-.19.453.453 0 0 0 .171-.37V8.265zM28.558 8.21c.011-.348-.191-.515-.61-.503h-4.561V5.381h5.136c1.495.024 2.255.747 2.28 2.174v4.866c-.013.616-.201 1.123-.566 1.527-.383.418-.875.629-1.48.629h-3.105c-1.51-.013-2.276-.703-2.3-2.074v-1.878c.012-1.433.744-2.161 2.193-2.186h3.013V8.21zm-2.94 3.579a.36.36 0 0 0 .181.316.591.591 0 0 0 .41.145h1.74c.394 0 .597-.152.609-.461v-.65c0-.354-.207-.533-.626-.533h-1.724c-.226 0-.382.038-.47.108-.081.085-.122.25-.122.496v.579zM37.165 15.692a.736.736 0 0 0 .461-.192.488.488 0 0 0 .182-.373v-.551h-2.9c-.379 0-.681-.049-.907-.145-.237-.087-.476-.25-.714-.481a2.313 2.313 0 0 1-.488-.77c-.103-.244-.156-.557-.156-.931V5.38h2.265v6.131c0 .492.201.738.607.738h1.599c.19 0 .355-.062.494-.19a.48.48 0 0 0 .2-.386V5.38h2.246v10.134c-.013.75-.205 1.35-.576 1.805-.377.456-.891.688-1.547.699h-5.287v-2.326h4.521zM41.833 12.249h4.036c.369-.013.561-.161.572-.444v-.209a.464.464 0 0 0-.053-.2c-.091-.176-.201-.263-.333-.263h-2.002a2.231 2.231 0 0 1-1.526-.612c-.431-.364-.652-.813-.663-1.34V7.446c.023-1.354.758-2.043 2.207-2.066h4.681v2.325h-3.965c-.466 0-.701.143-.701.428v.226c0 .295.24.443.717.443h1.994c.531.012.984.216 1.362.612.382.4.579.875.592 1.427v1.697c-.013.477-.233.953-.657 1.428a1.849 1.849 0 0 1-.63.484c-.22.083-.517.125-.897.125h-4.735v-2.326zM55.57 8.21c.01-.348-.193-.515-.611-.504h-4.561V5.381h5.137c1.495.023 2.254.746 2.278 2.174v4.866c-.012.616-.202 1.123-.566 1.527-.38.418-.874.628-1.479.628h-3.106c-1.511-.012-2.277-.702-2.298-2.074v-1.878c.01-1.433.741-2.161 2.193-2.186h3.014V8.21zm-2.943 3.579c0 .133.061.238.184.316a.586.586 0 0 0 .408.145h1.742c.395 0 .597-.152.609-.461v-.65c0-.354-.211-.533-.627-.533h-1.724c-.226 0-.382.038-.469.108-.08.085-.123.25-.123.496v.579zM59.654 4.06c.014-.628.245-1.132.7-1.51.44-.384 1.017-.581 1.732-.592h1.438v2.249h-.871c-.479.01-.723.239-.733.682v.492h1.604v2.328H61.92v6.868h-2.267V4.06zM67.162 11.456v.144c0 .187.048.334.147.442.071.138.167.208.294.208h4.653v2.327h-4.947c-.451 0-.803-.043-1.051-.126a1.92 1.92 0 0 1-.729-.439c-.249-.246-.419-.497-.504-.755-.093-.269-.14-.626-.14-1.071l-.019-4.657c.025-1.407.76-2.124 2.205-2.147h3.052c1.411.024 2.126.766 2.149 2.226v1.84l-5.11 2.008zm2.804-3.29v-.054a.358.358 0 0 0-.146-.296.667.667 0 0 0-.39-.109h-1.577a.695.695 0 0 0-.491.173.492.492 0 0 0-.237.423v.933l2.841-1.07zM77.065 14.576c-.343 0-.656-.032-.94-.089-.297-.048-.594-.187-.897-.42a2.14 2.14 0 0 1-.643-.91 3.172 3.172 0 0 1-.184-1.123V7.692a2.817 2.817 0 0 1 .105-.934c.077-.27.236-.533.478-.79.275-.272.557-.451.854-.54.286-.072.607-.108.969-.108h3.471v.544h-3.391c-.598 0-1.069.123-1.413.37-.352.269-.531.732-.531 1.384v4.345c0 .306.046.602.139.89.096.283.254.529.482.746.246.188.492.304.732.353.25.054.518.08.802.08h3.235v.545h-3.268zM89.745 12.071c0 .349-.026.657-.071.926a2.096 2.096 0 0 1-.453.847 2.28 2.28 0 0 1-1.767.732h-2.706c-.703 0-1.273-.21-1.715-.628-.451-.414-.68-.987-.68-1.725v-1.399c.023-1.58.811-2.389 2.36-2.425h4.507v-.613c0-.505-.146-.947-.437-1.327a1.374 1.374 0 0 0-.651-.497 3.321 3.321 0 0 0-.846-.098H82.37V5.32h4.662c.427 0 .812.03 1.161.089.179.036.342.105.494.206.158.096.307.238.445.422.418.539.623 1.161.613 1.862v4.172zm-.54-3.129h-4.551c-.545.012-.971.181-1.279.505-.318.329-.475.782-.475 1.356v1.386c0 .269.028.515.086.736.058.233.2.44.426.62.394.326.828.487 1.304.487h2.758c1.152-.012 1.733-.619 1.733-1.825V8.942zM94.835 5.864c-1.263.024-1.884.712-1.861 2.068v6.644h-.543V7.934c-.025-1.744.805-2.613 2.49-2.613h.603v.543h-.689zM104.544 12.003c-.048 1.753-.977 2.612-2.784 2.576h-2.01c-.425 0-.804-.037-1.141-.107-.346-.09-.677-.3-.995-.629-.24-.295-.394-.593-.455-.899a3.41 3.41 0 0 1-.106-1.015V7.975c.023-1.781.921-2.666 2.693-2.652h4.256V2.321h.542v9.682zm-.542-6.136h-4.289a3.31 3.31 0 0 0-.836.1c-.261.059-.514.218-.749.476-.227.235-.368.467-.429.7a2.37 2.37 0 0 0-.102.846v4.236c0 .704.204 1.184.617 1.44.204.12.428.21.679.27.251.066.529.099.837.099h1.875c.7 0 1.274-.161 1.714-.487.443-.304.668-.831.683-1.582V5.867z"/><path fill="#C11718" d="M1.499 5.03c.178-.079.356-.14.533-.178a3.441 3.441 0 0 1 6.734.002c.51.096.93.303 1.258.608.013-.3.002-.588-.034-.86A4.62 4.62 0 0 0 5.392.393C2.909.393.889 2.36.784 4.82a6.596 6.596 0 0 0-.012.665c.208-.175.447-.333.727-.455"/><path fill="#C11718" d="M8.094 5.38H2.562c-.267 0-.542.061-.826.189-.274.12-.499.264-.678.437-.344.413-.52 1.016-.532 1.81v4.325c.012.795.188 1.397.532 1.809.179.175.404.32.678.44.284.125.559.188.826.188h5.532c1.428-.013 2.156-.796 2.178-2.346V7.725c-.023-1.552-.75-2.332-2.178-2.345"/></svg>