<svg xmlns="http://www.w3.org/2000/svg" width="85.083" height="29.917" viewBox="0 0 85.083 29.917"><g fill="#CF3B3B"><path d="M.47 25.597L2.598 13.62H8.081c1.351 0 2.226.26 2.625.781s.472 1.495.218 2.922c-.243 1.369-.665 2.302-1.265 2.799-.6.497-1.605.746-3.015.746l-.528.009H2.66l-.838 4.72H.47zm2.393-5.861h3.202c1.339 0 2.222-.137 2.648-.412.426-.275.727-.907.903-1.895.206-1.158.209-1.891.009-2.198-.2-.307-.777-.461-1.73-.461l-.516-.009H3.746l-.883 4.975zM12.13 17.209h1.228l-.294.965.022.026c.626-.79 1.497-1.184 2.614-1.184 1.544 0 2.175.795 1.892 2.386l-.112.579h-1.21l.064-.211c.057-.222.092-.371.106-.448.153-.86-.239-1.29-1.175-1.29-1.369 0-2.203.845-2.503 2.536l-.893 5.027H10.64l1.49-8.386zM18.666 17.209h6.045l-.211 1.193-6.098 6.177h5.001l-.181 1.018h-6.466l.207-1.167 6.12-6.203h-4.597l.18-1.018zM30.752 23.061h1.255l-.046.307c-.155.872-.528 1.481-1.119 1.829-.591.348-1.551.522-2.878.522-1.544 0-2.507-.282-2.89-.847-.382-.564-.413-1.75-.092-3.558.297-1.673.739-2.796 1.327-3.369.587-.573 1.589-.86 3.004-.86 1.544 0 2.512.249 2.903.746s.445 1.544.162 3.141l-.117.658h-6.036c-.235 1.322-.243 2.164-.023 2.527.219.363.849.544 1.891.544.988 0 1.646-.086 1.972-.259.326-.173.54-.545.642-1.119l.045-.262zm.424-2.386l.061-.395c.161-.907.117-1.496-.133-1.768s-.869-.408-1.858-.408c-.995 0-1.668.159-2.02.478-.352.319-.624 1.016-.815 2.093h4.765zM36.361 13.62l-2.127 11.976h-1.228l2.127-11.976h1.228zM42.187 23.061h1.255l-.046.307c-.155.872-.528 1.481-1.119 1.829-.591.348-1.551.522-2.878.522-1.544 0-2.507-.282-2.89-.847-.382-.564-.413-1.75-.092-3.558.297-1.673.739-2.796 1.327-3.369.587-.573 1.589-.86 3.004-.86 1.544 0 2.512.249 2.903.746s.445 1.544.162 3.141l-.117.658H37.66c-.235 1.322-.243 2.164-.023 2.527.219.363.849.544 1.891.544.988 0 1.646-.086 1.972-.259.326-.173.54-.545.642-1.119l.045-.262zm.424-2.386l.061-.395c.161-.907.117-1.496-.133-1.768s-.869-.408-1.858-.408c-.995 0-1.668.159-2.02.478-.352.319-.624 1.016-.815 2.093h4.765zM56.67 17.209l-3.841 8.388h-1.825l-.295-4.659-.09-1.421-.032-.711-.041-.711h-.026l-.293.711-.293.711-.595 1.421-1.959 4.659h-1.86l-.783-8.388h1.29l.36 4.641.11 1.456.046.728.046.728h.035l.296-.728.305-.728.608-1.448 1.975-4.65h1.79l.313 4.659.094 1.448.039.719.037.728h.026l.313-.728.305-.728.627-1.456 2-4.641h1.318zM62.856 17.209l-1.612 3.738-.804 1.86-.386.939-.393.93h-.035l-.16-.93-.149-.939-.319-1.86-.626-3.738h-1.307l1.684 9.115-.192.413c-.518 1.106-1.104 1.641-1.759 1.606a2.708 2.708 0 0 1-.419-.061l-.181 1.018c.233.041.425.061.577.061.754 0 1.376-.234 1.866-.702.49-.468 1.012-1.328 1.568-2.58l3.953-8.87h-1.306z"/></g><g fill="#BBBCC4"><path d="M72.029 24.531l-.2 1.131h-8.421l.394-2.236c.221-1.253.606-2.073 1.154-2.462.548-.389 1.74-.687 3.576-.896 1.468-.162 2.376-.383 2.725-.661.349-.278.626-1.001.832-2.166.18-1.021.13-1.684-.151-1.988-.281-.304-.983-.457-2.108-.457-1.405 0-2.313.123-2.725.37-.412.247-.701.84-.866 1.779l-.139.887h-1.294l.117-.618c.251-1.421.713-2.368 1.388-2.841.674-.473 1.9-.709 3.676-.709 1.576 0 2.591.255 3.043.766.453.511.548 1.505.287 2.984-.25 1.421-.671 2.371-1.26 2.849-.59.479-1.745.802-3.465.97-1.511.151-2.434.36-2.766.626-.333.267-.609 1.024-.829 2.271l-.07.4h7.102zM83.111 13.786L81.7 21.791h1.748l-.199 1.131H81.5l-.483 2.741h-1.319l.483-2.741h-6.545l.278-1.575 7.158-7.561h2.039zm-2.73 8.005l1.26-7.143h-.026l-6.691 7.143h5.457z"/></g><g fill="#BBBCC4"><path d="M28.283 9.993c2.866-1.65 5.602-2.853 8.194-3.696l-.526-2.958a58.132 58.132 0 0 0-10.538 4.482l2.87 2.172zM60.786 8.379l10.122-5.521C66.715 1.541 61.384.598 54.688.562h-.066l-2.316 4.633a28.55 28.55 0 0 1 8.48 3.184zM22.832 9.329c-4.447 2.765-6.776 5.115-6.776 5.115h5.631a61.564 61.564 0 0 1 4.049-2.886l-2.904-2.229zM51.352.632a61.046 61.046 0 0 0-13.169 2.052l.389 2.999c4.247-1.104 8.07-1.249 11.404-.858L51.352.632zM76.299 5.01L63.178 9.918c1.216.88 1.854 1.514 1.854 1.514h19.512c.001 0-2.208-3.419-8.245-6.422z"/></g></svg>