<svg xmlns="http://www.w3.org/2000/svg" width="61.604" height="31.094" viewBox="0 0 61.604 31.094"><g fill-rule="evenodd" clip-rule="evenodd"><path fill="#F18B00" d="M24.9 21.603c-.258-1.197-.812-2.097-1.587-2.777-.268-.282-.591-.482-.959-.694a3.422 3.422 0 0 0-.561-.264c-.402-.153-.931-.331-1.587-.264.329-.167.819-.174 1.323-.166.418.045.764.161 1.123.264.3.163.597.329.893.496.725-2.166.447-5.131-.363-7.042-.784-2.004-1.923-3.654-3.405-4.959-1.457-1.331-3.208-2.369-5.521-2.843-1.145-.247-2.586-.208-3.637.033a8.148 8.148 0 0 0-2.81 1.355C7.066 5.4 6.346 6.08 5.857 6.99c-.176.177-.252.454-.397.662-.101.251-.215.49-.33.727-.171.523-.367 1.022-.463 1.62-.264 1.082-.312 2.569-.132 3.736.136 1.253.503 2.274.893 3.273.24.465.459.951.726 1.388.253.442.567.822.86 1.224.666.722 1.382 1.395 2.215 1.951 1.689 1.1 3.627 1.949 6.282 2.082.052-.108-.072-.324-.099-.463-.04-.159-.055-.342-.1-.496a4.857 4.857 0 0 1 0-1.124c.105.027.102.162.166.231.056.065.077.165.165.198.066.186.211.296.297.463.25.257.444.57.761.76.252.256.589.425.892.628.328.169.608.384.992.496.657.346 1.537.468 2.413.595.883.12 1.735.27 2.545.463.746.256 1.507.498 2.116.892.321.186.638.376.925.596.14.112.318.189.43.33.174.069.25.235.43.297.513.49 1.02.986 1.456 1.554.179.328.424.589.562.96.121.133.156.35.264.495.007.188.189.413.033.562-.245.036-.196-.223-.297-.331-.08-.129-.179-.241-.233-.396-.387-.406-.733-.853-1.157-1.223-.419-.364-.831-.735-1.322-1.025-.924-.653-1.994-1.158-3.24-1.488-1.227-.355-2.603-.498-4.198-.396-.7.092-1.369.218-1.951.429-.626.156-1.324.241-2.016.331-2.706.167-5.719-.479-7.736-1.454-1.077-.499-2.067-1.084-2.909-1.818-.46-.333-.836-.751-1.223-1.157-.354-.429-.726-.839-.992-1.356-.353-.44-.563-1.025-.86-1.521-.193-.588-.467-1.097-.595-1.752-.202-.591-.326-1.26-.396-1.984-.012-.199-.101-.582-.1-.893 0-.028.036-.052.033-.099-.015-.282-.082-.716 0-.959-.015-.655.103-1.461.232-2.083.118-.663.295-1.27.496-1.852.197-.596.457-1.129.693-1.686.159-.238.28-.513.43-.76.126-.259.316-.455.431-.727.127-.071.15-.246.264-.33.051-.147.189-.209.232-.364.108-.09.194-.203.264-.331.101-.097.206-.19.264-.329.394-.389.747-.819 1.157-1.19.409-.384.867-.72 1.29-1.091.268-.128.462-.331.727-.463.201-.184.495-.277.694-.463.551-.242 1.021-.566 1.62-.76.516-.266 1.135-.43 1.719-.628 1.269-.326 2.55-.55 4.132-.496.057.007.086-.056.099 0 2.996.09 5.179.993 7.042 2.215 1.846 1.229 3.275 2.874 4.298 4.926 1.001 2.032 1.564 4.794 1.091 7.703a15.583 15.583 0 0 1-1.091 3.537c-.27.502-.512 1.032-.827 1.488a4.389 4.389 0 0 1-.463.694 1.372 1.372 0 0 1-.231.331c-.039.06-.087.112-.133.165-.015.029-.029.059-.066.066.011.059-.029.068-.031.033z"/><path fill="#F18B00" d="M24.107 22.463c-.388-.152-.453-.627-.629-.992-.031-.134-.059-.335 0-.463.027-.006.033-.033.066-.033.098-.063.19.017.33.066.19.218.311.505.397.826.007.261.027.534-.164.596zM21.197 21.901c.006-.038.033-.018.033 0 .586.074.855.467.892 1.091-.052.345-.246.548-.563.628-.789.013-1.238-.713-.959-1.455.16-.128.271-.303.597-.264z"/><path fill="#0D61AB" d="M36.795 17.756c.094.402.3.693.529.96.229.267.499.492.827.661.305.19.638.353 1.024.462.187.067.367.141.595.165.158.086.354.133.364.364-.008.278-.195.378-.43.43-.237-.05-.53-.043-.728-.133-.502-.059-.903-.22-1.322-.364a6.05 6.05 0 0 1-2.05-1.323c-.116-.193-.273-.343-.396-.529-.122-.186-.205-.412-.331-.594-.983-.13-1.654-.573-2.248-1.091-.546-.622-.976-1.36-1.158-2.347-.209-.948-.144-2.128.099-3.042.541-1.772 1.682-2.947 3.835-3.108.594.019 1.111.091 1.587.265.477.173.932.491 1.29.826.029.027.042.03.066.066.075.112.261.261.363.396.02.027.012.07.033.1.041.054.099.081.133.133.022.033.014.068.034.098.025.041.06.098.099.165.015.027.056.047.065.066.057.108.081.242.133.364.053.126.124.239.165.364.126.379.21.822.264 1.289.129 1.331-.135 2.52-.628 3.406a3.693 3.693 0 0 1-.926 1.157c-.347.346-.825.563-1.288.794zm-1.586-8.331c-.289.02-.461.156-.694.232-.154.143-.346.249-.463.43-.19.107-.243.352-.396.495a5.739 5.739 0 0 0-.331 1.091 7.566 7.566 0 0 0-.132 1.323c-.008 1.138.235 2.269.693 2.942.266.328.592.597.992.793.23.023.412.095.661.1.138-.05.374-.003.463-.1.203.015.253-.122.43-.132.093-.094.2-.175.331-.232.118-.134.235-.271.363-.396.067-.098.102-.229.198-.298.575-1.1.641-3.118.265-4.397a3.85 3.85 0 0 0-.562-1.157 3.17 3.17 0 0 0-.86-.629c-.264-.055-.512-.126-.86-.098-.02.002-.039.005-.034.033h-.064zM42.185 8.499c.519.021 1.122-.043 1.586.034.104.163.063.349.066.529.037 2.426 0 5.025 0 7.504 0 .2.005.401 0 .596-.005.165.037.343-.066.496-.232.058-.561.033-.86.033-.311 0-.62.042-.827-.067a246.84 246.84 0 0 1 0-9.025.17.17 0 0 1 .101-.1zM46.151 8.499h1.554c.14.191.183.478.232.761.467 1.781.931 3.566 1.355 5.388.101.012.069-.108.1-.165.045-.042.02-.156.066-.198.018-.147.107-.223.099-.396.118-.223.153-.531.263-.76.137-.537.311-1.035.463-1.554.145-.538.344-1.023.463-1.587.218-.453.27-1.073.529-1.488h.661c.238.445.323 1.044.53 1.521.132.539.321 1.023.462 1.554.328 1.029.663 2.048.96 3.108.132-.199.133-.529.231-.761.058-.263.109-.532.198-.76.256-1.045.496-2.105.794-3.107.112-.527.22-1.059.396-1.521a5.593 5.593 0 0 1 1.356 0c.033.388-.15.809-.264 1.157-.061.424-.219.75-.298 1.157-.235.746-.418 1.544-.661 2.282-.187.793-.436 1.525-.628 2.314-.127.368-.221.771-.331 1.157-.129.357-.172.798-.364 1.091h-.925c-.235-.415-.32-.98-.529-1.421-.46-1.459-.975-2.861-1.421-4.331-.157.163-.153.486-.265.694-.07.25-.14.499-.232.727-.125.504-.32.937-.43 1.455-.183.456-.321.957-.462 1.456-.195.433-.265.991-.496 1.389-.246.073-.626.012-.925.033-.233-.263-.255-.738-.398-1.091-.111-.372-.189-.781-.33-1.124-.176-.805-.446-1.516-.629-2.314-.24-.74-.444-1.517-.661-2.282-.118-.365-.212-.758-.331-1.123-.053-.403-.323-.76-.231-1.195a.237.237 0 0 1 .099-.066zM59.21 8.499c.518.021 1.122-.043 1.587.034.114.348.066.717.066 1.09v6.942c0 .376.048.743-.066 1.092a9.107 9.107 0 0 1-1.323.033c-.126-.006-.279.03-.364-.067-.114-.343-.065-.713-.065-1.091V9.656c0-.417-.039-.817.065-1.091a.254.254 0 0 1 .1-.066zM49.92 21.492c.204.105.419.198.562.364.119.187.179.541.099.827-.293.61-1.315.66-2.083.462v-3.008c.226-.116.585-.098.925-.099.223.03.442.065.629.132a.768.768 0 0 1 .331.892c-.118.18-.226.369-.463.43zm0-.463c.084-.632-.43-.74-.959-.661v1.058c.491.039.817-.088.959-.397zm.166 1.553c.169-.679-.437-1.005-1.091-.859-.077.331-.011.805-.033 1.19.487.038.933.007 1.124-.331zM42.482 20.07c.072.358.014.845.033 1.257.02.061.139-.058.132-.133.058-.042.131-.068.133-.165a.857.857 0 0 0 .265-.331c.222-.173.333-.459.562-.628.122.012.293-.028.363.033-.113.283-.333.46-.495.694-.154.233-.362.41-.496.662.172.312.416.552.595.859.21.275.45.519.595.859-.119.069-.358.018-.529.033-.201-.24-.366-.516-.562-.76-.164-.278-.388-.494-.529-.793-.077.441-.011 1.025-.034 1.52-.098.066-.312.019-.462.033a29.63 29.63 0 0 1 0-3.141l.429.001zM46.978 20.963c.048-.02-.003-.04 0 0-.573.727-1.084 1.517-1.654 2.247h-.396c-.055-.97-.055-2.17 0-3.141h.364v2.381c.03.089.08-.069.1-.099.046-.054.094-.104.132-.165.069-.119.163-.212.232-.331.156-.218.331-.418.463-.662.196-.179.296-.454.496-.629.046-.14.138-.236.232-.329.009-.191.225-.173.429-.166-.021 1.037.045 2.16-.033 3.141h-.331c-.077-.684-.013-1.507-.034-2.247zM51.937 20.103v2.182c.031.09.081-.069.1-.099.068-.009.066-.089.099-.133.091-.073.123-.207.231-.264.1-.232.274-.388.398-.596.285-.364.541-.758.826-1.124h.397c.055.97.055 2.171 0 3.141h-.331c-.077-.728-.013-1.597-.034-2.38-.028-.063-.019.036-.065.033-.015.03-.029.059-.066.066-.004.084-.06.116-.099.165a4.264 4.264 0 0 1-.232.331c-.147.228-.327.422-.462.661-.159.215-.34.41-.463.661-.23.145-.201.548-.661.463-.055-.97-.055-2.17 0-3.141.119.013.291-.027.362.034z"/></g></svg>