<svg xmlns="http://www.w3.org/2000/svg" width="105.081" height="23.25" viewBox="0 0 105.081 23.25"><path fill="#045EA9" d="M18.227 7.783h7.475v1.91h-4.776v1.554h4.128v1.794h-4.128v3.634h-2.699zM34.53 9.693V7.779h-7.479v.001h-.005v8.895h7.475v-1.91h-4.77v-1.724h3.157v-1.795h-3.157V9.693z"/><linearGradient id="a" gradientUnits="userSpaceOnUse" x1="96.189" y1="16.692" x2="96.189" y2="7.795"><stop offset=".368" stop-color="#0158a8"/><stop offset=".779" stop-color="#00a3d8"/></linearGradient><path fill="url(#a)" d="M97.771 7.795l-1.576 3.003-1.567-3.003h-2.677l2.883 5.172v3.725h2.699v-3.725l2.894-5.172z"/><path fill="#045EA9" d="M44.606 7.763h2.671l1.576 3.006 1.572-3.006h2.66l-2.9 5.169v3.732h-2.696v-3.732z"/><linearGradient id="b" gradientUnits="userSpaceOnUse" x1="80.697" y1="16.685" x2="80.697" y2="7.786"><stop offset=".368" stop-color="#0158a8"/><stop offset=".779" stop-color="#00a3d8"/></linearGradient><path fill="url(#b)" d="M83.683 8.498c-.498-.475-1.249-.712-2.248-.712h-4.471v8.899h2.654v-3.303h1.509c1.117 0 1.945-.25 2.488-.756.544-.51.814-1.208.814-2.107.001-.873-.247-1.549-.746-2.021zm-2.266 2.808c-.157.137-.403.221-.737.256-.116.01-.243.02-.382.02h-.68V9.6h.788c.099 0 .19 0 .273.007.369.027.626.121.781.282a.981.981 0 0 1 .279.713.884.884 0 0 1-.322.704z"/><path fill="#045EA9" d="M35.674 7.786h8.205l-.007 1.908h-2.755l.009 6.991h-2.698l-.011-6.991h-2.756zM14.537 7.777h-2.622l-2.928 8.895h2.702l.377-1.466h2.314l.384 1.466h2.699l-2.926-8.895zm-1.086 5.502h-.863l.612-3.197.033.155v.002l.064.302.002.011.578 2.727h-.426z"/><linearGradient id="c" gradientUnits="userSpaceOnUse" x1="88.131" y1="16.687" x2="88.131" y2="7.786"><stop offset=".368" stop-color="#0158a8"/><stop offset=".779" stop-color="#00a3d8"/></linearGradient><path fill="url(#c)" d="M89.437 7.786h-2.62l-2.926 8.901h2.697l.38-1.469h2.314l.382 1.469h2.705l-2.932-8.901zm-1.304 5.506h-.648l.618-3.198.03.156.646 3.042h-.646z"/><path fill="#045EA9" d="M.669 13.618h2.595c.054.409.157.638.333.857.279.347.683.519 1.212.519.39 0 .692-.091.905-.265.212-.182.314-.384.314-.619 0-.225-.097-.424-.298-.601-.206-.172-.672-.342-1.407-.496-1.204-.262-2.06-.61-2.572-1.045-.518-.438-.781-.989-.781-1.658 0-.448.135-.864.4-1.255.265-.398.661-.706 1.192-.931.531-.226 1.262-.338 2.184-.338 1.135 0 2.002.207 2.597.612.595.411.952 1.097 1.065 1.988H5.796c-.066-.388-.192-.557-.411-.735-.22-.175-.524-.261-.909-.261-.325 0-.563.066-.724.197a.596.596 0 0 0-.242.478c0 .139.068.261.2.37.128.113.438.218.922.314 1.198.253 2.056.508 2.575.761.52.257.899.573 1.133.952.237.384.354.806.354 1.276 0 .552-.157 1.059-.47 1.525-.314.468-.755.822-1.321 1.061-.566.241-1.278.36-2.137.36-1.511 0-2.554-.282-3.137-.845-.585-.562-.885-1.35-.96-2.221"/><path fill="#00A3DB" d="M101.077 7.897h1.609v.425h-.544v1.287h-.524V8.322h-.541zM102.918 7.897h.693l.269 1.042.268-1.042h.692v1.712h-.433V8.304l-.333 1.305h-.392l-.332-1.305v1.305h-.432z"/><linearGradient id="d" gradientUnits="userSpaceOnUse" x1="64.061" y1="22.609" x2="64.061" y2=".906"><stop offset=".442" stop-color="#0158a8"/><stop offset=".656" stop-color="#00a3d8"/></linearGradient><path fill="url(#d)" d="M64.061.906L53.21 11.758l10.851 10.851 10.851-10.851L64.061.906zm-2.111 17.46l-3.199-3.199 3.323-3.323-3.323-3.324 3.199-3.199 3.323 3.323 3.199 3.199-6.522 6.523zm9.766-5.401l-5.376 5.376-1.221-1.221 5.376-5.376-5.376-5.376 1.221-1.221 6.597 6.597-1.221 1.221z"/></svg>