<svg xmlns="http://www.w3.org/2000/svg" width="44.25" height="15.531" viewBox="0 0 44.25 15.531"><path fill="#862165" d="M34.981 1.841l3.636-.651v13.96h-3.636V1.841zm5.31 0V15.15h3.639V1.19l-3.639.651zM29.8 15.15h3.639V4.94H29.8v10.21zM5.758 6.384c-.46-.03-1.524-.099-1.524-1.057 0-1.156 1.533-1.156 2.108-1.156 1.011 0 2.32.299 3.255.578 0 0 .521.184.965.372l.041.011V1.964l-.057-.017C9.443 1.561 8.16 1.19 5.781 1.19 1.68 1.19.227 3.579.227 5.626c0 1.18.506 3.956 5.202 4.277.398.024 1.455.085 1.455 1.076 0 .818-.865 1.3-2.32 1.3-1.595 0-3.141-.407-4.081-.792v3.262c1.407.369 2.992.553 4.85.553 4.01 0 5.806-2.26 5.806-4.501.001-2.541-2.009-4.192-5.381-4.417zM27.75 4.79c-3.363.108-5.069 1.617-5.069 4.615v5.745h3.668v-4.685c0-1.796.235-2.566 2.366-2.639V4.843c-.358-.076-.965-.053-.965-.053zm-9.869.138c-.081.203-.663 1.849-2.072 3.554V1.19l-3.754.742V15.15h3.754v-4.086c1.087 1.631 1.624 4.086 1.624 4.086h4.497c-.445-1.849-2.39-5.259-2.39-5.259 1.746-2.214 2.513-4.573 2.635-4.964h-4.294zm13.738-.968a1.794 1.794 0 1 0 0-3.587 1.794 1.794 0 0 0 0 3.587z"/></svg>