<svg xmlns="http://www.w3.org/2000/svg" width="71.667" height="13.75" viewBox="0 0 71.667 13.75"><g fill="#F48120"><path d="M19.964.617h-7.129c-1.124 0-2.217 0-3.194.496-.979.497-1.843 1.491-2.508 3.478-.143.427-.219.796-.23 1.114-.01.321.046.594.167.83.15.288.392.561.696.789.303.23.667.417 1.058.536l.47.134c.249.072.539.157.723.212.108.033.226.076.333.14a.67.67 0 0 1 .265.268.59.59 0 0 1 .063.257.818.818 0 0 1-.05.298c-.091.27-.229.444-.493.55-.263.106-.651.14-1.238.144H1.561l-1.16 3.186h7.853c.739 0 2.09 0 3.389-.551 1.298-.551 2.543-1.654 3.07-3.86.198-.829.137-1.505-.188-2.035-.326-.53-.915-.915-1.773-1.161l-.418-.12-.617-.178a.827.827 0 0 1-.488-.351.692.692 0 0 1-.072-.559.811.811 0 0 1 .407-.489c.207-.114.478-.177.794-.177h4.564c.033-.046.062-.096.094-.144.833-1.178 1.842-2.133 2.948-2.807"/><path d="M19.968.603h-7.129c-1.124 0-2.216 0-3.194.496-.979.497-1.842 1.491-2.507 3.478-.144.427-.22.795-.23 1.114-.01.321.046.593.167.83.149.289.391.561.695.79.304.229.667.416 1.058.535l.47.134c.248.072.539.156.723.212.107.034.226.076.333.14a.68.68 0 0 1 .264.268c.04.079.061.164.063.257a.81.81 0 0 1-.05.297c-.091.27-.229.444-.493.551-.263.106-.65.14-1.237.144H1.565l-1.16 3.186h7.853c.739 0 2.09 0 3.388-.551s2.543-1.654 3.07-3.86c.199-.828.137-1.504-.188-2.035-.326-.531-.915-.915-1.773-1.161l-.418-.121-.618-.177a.827.827 0 0 1-.488-.352.694.694 0 0 1-.072-.558.811.811 0 0 1 .407-.489c.207-.114.478-.177.794-.177h4.565c.033-.047.062-.097.094-.144.834-1.178 1.844-2.133 2.949-2.807M58.777.624c.244.193.453.413.628.663.447.645.619 1.411.516 2.288h2.29L58.76 13.06h3.448l3.453-9.484h4.43L71.166.625H58.777z"/><path d="M58.605 1.843c-.568-.816-1.722-1.217-3.53-1.219h-4.186l-4.527 12.433h3.845l1.647-4.376c.079.18 1.051 4.376 1.051 4.376h4.043s-.736-3.083-1.276-4.328c-.139-.321-.284-.68-.478-.979 1.142-.424 2.797-1.336 3.482-3.182.421-1.134.396-2.051-.071-2.725M55.259 4.59c-.37.995-1.032 1.61-2.293 1.61h-.006l-.652-.001 1.116-3.007h.634c1.16-.001 1.594.339 1.201 1.398M26.968 1.782C26.347.894 25.283.442 23.804.44c-.967 0-1.907.222-2.787.638-1.26.595-2.401 1.591-3.334 2.91a12.666 12.666 0 0 0-1.531 2.961c-.765 2.095-.756 3.796.027 4.916.443.634 1.365 1.391 3.24 1.393h.007c3.416 0 5.966-2.239 7.581-6.654.427-1.17.99-3.35-.039-4.822m-3.655 4.994c-1.065 2.917-1.839 3.651-3.003 3.651h-.002c-1.133-.001-1.531-.719-.471-3.621.793-2.167 1.819-3.553 3.061-3.553h.001c1.18.002 1.45.686.414 3.523M40.618.617h-7.266c-2.031 0-3.543 1.028-4.257 2.951l-3.451 9.482h3.78l1.773-4.874 3.342.003.95-2.611-3.33-.002.536-1.511c.113-.27.379-.486.77-.486l3.94.001c.033-.047.062-.097.094-.144.833-1.18 2.013-2.135 3.119-2.809M47.579 1.782C46.957.894 45.895.442 44.414.44c-.966 0-1.906.222-2.786.638-1.259.595-2.401 1.591-3.333 2.91a12.626 12.626 0 0 0-1.53 2.961c-.767 2.095-.757 3.796.026 4.916.443.634 1.365 1.391 3.241 1.393h.006c3.415 0 5.966-2.239 7.579-6.654.428-1.17.99-3.35-.038-4.822m-3.656 4.994c-1.065 2.917-1.839 3.651-3.002 3.651h-.003c-1.134-.001-1.53-.719-.469-3.621.791-2.167 1.819-3.553 3.059-3.553h.002c1.18.002 1.45.686.413 3.523"/><path d="M58.781.611c.244.193.453.412.628.663.447.644.618 1.411.516 2.288h2.29l-3.451 9.484h3.448l3.452-9.484h4.43L71.169.611H58.781z"/><path d="M58.609 1.83C58.042 1.014 56.888.613 55.08.611h-4.186l-4.527 12.433h3.846l1.646-4.376c.08.18 1.051 4.376 1.051 4.376h4.044s-.736-3.083-1.276-4.329c-.139-.32-.284-.679-.478-.979 1.14-.425 2.794-1.336 3.48-3.181.421-1.135.396-2.052-.071-2.725m-3.347 2.746c-.369.994-1.032 1.608-2.293 1.608h-.005l-.652-.001 1.115-3.006h.635c1.161.001 1.594.34 1.2 1.399M26.973 1.768C26.351.88 25.288.428 23.808.426c-.968 0-1.907.223-2.787.638-1.26.596-2.401 1.591-3.334 2.91a12.677 12.677 0 0 0-1.53 2.96c-.765 2.096-.757 3.797.026 4.917.444.634 1.366 1.39 3.24 1.393h.007c3.416 0 5.966-2.239 7.581-6.655.427-1.17.991-3.35-.038-4.821m-3.656 4.994c-1.065 2.917-1.839 3.65-3.003 3.65h-.002c-1.133-.001-1.531-.719-.47-3.621.792-2.167 1.818-3.553 3.06-3.553h.001c1.18.002 1.451.687.414 3.524M40.623.603h-7.266c-2.032 0-3.544 1.028-4.258 2.951l-3.451 9.482h3.78l1.773-4.874 3.341.002.95-2.61-3.33-.002.537-1.511c.112-.271.379-.486.77-.486l3.94.001c.032-.046.061-.097.093-.144.835-1.18 2.015-2.135 3.121-2.809M47.583 1.768C46.961.88 45.899.428 44.418.426c-.967 0-1.907.223-2.786.638-1.26.596-2.401 1.591-3.334 2.91a12.639 12.639 0 0 0-1.53 2.96c-.766 2.096-.757 3.797.027 4.917.442.634 1.364 1.39 3.241 1.393h.006c3.416 0 5.967-2.239 7.579-6.655.429-1.17.991-3.35-.038-4.821m-3.656 4.994c-1.065 2.917-1.839 3.65-3.002 3.65h-.003c-1.135-.001-1.531-.719-.471-3.621.792-2.167 1.819-3.553 3.06-3.553h.002c1.181.002 1.451.687.414 3.524"/></g></svg>