<svg xmlns="http://www.w3.org/2000/svg" width="49.25" height="15.625" viewBox="0 0 49.25 15.625"><path fill="#005098" d="M17.44 15.061L19.893.668h3.923l-2.454 14.393zM35.59 1.022C34.813.73 33.595.418 32.074.418c-3.876 0-6.607 1.952-6.63 4.75-.022 2.068 1.949 3.222 3.437 3.91 1.527.705 2.04 1.155 2.033 1.785-.01.965-1.219 1.405-2.347 1.405-1.57 0-2.404-.218-3.693-.755l-.506-.229-.551 3.222c.916.402 2.611.75 4.37.768 4.124 0 6.801-1.93 6.831-4.917.015-1.637-1.03-2.883-3.294-3.911-1.371-.666-2.211-1.11-2.202-1.784 0-.598.711-1.238 2.247-1.238a7.245 7.245 0 0 1 2.936.551l.352.166.533-3.119M45.65.681h-3.031c-.939 0-1.642.256-2.054 1.194l-5.826 13.19h4.119s.674-1.774.826-2.163l5.024.006c.117.504.477 2.157.477 2.157h3.64L45.65.681m-4.838 9.277c.324-.829 1.563-4.023 1.563-4.023-.023.038.322-.833.52-1.374l.265 1.241.908 4.156h-3.256zM14.15.678l-3.841 9.815L9.9 8.498c-.715-2.299-2.943-4.79-5.433-6.038l3.512 12.587 4.151-.005L18.306.677H14.15"/><path fill="#F6A500" d="M6.746.669H.42l-.05.3c4.922 1.191 8.178 4.07 9.53 7.53L8.524 1.884C8.287.973 7.598.701 6.746.669"/></svg>