<svg xmlns="http://www.w3.org/2000/svg" width="89.875" height="24.667" viewBox="0 0 89.875 24.667"><g fill-rule="evenodd" clip-rule="evenodd" fill="#1A5EAB"><path d="M12.302.781c1.816 0 3.537.423 5.069 1.174.24.114.481.24.721.378l-1.064.954-1.6-1.655-2.702 2.408-1.604-1.75-5.03 4.535 3.226 3.554-1.268 1.114 3.177 3.56-1.26 1.112 4.539 5.053 2.694-2.481 2.329 2.658c-.463.36-.968.699-1.524 1.013a11.479 11.479 0 0 1-5.704 1.51C5.929 23.918.732 18.721.732 12.349S5.93.781 12.302.781z"/><path d="M10.194 11.619l2.75-2.478 2.478 2.751-2.751 2.478-2.477-2.751zM12.15 16.372l2.751-2.477 2.477 2.751-2.751 2.478-2.477-2.752zM8.225 6.921l2.751-2.477 2.477 2.751-2.751 2.477-2.477-2.751zM13.273 5.588l2.063-1.858 1.858 2.064-2.063 1.857-1.858-2.063zM16.94 14.096l2.063-1.857 1.857 2.063-2.063 1.858-1.857-2.064zM18.754 18.264l2.063-1.858 1.858 2.063-2.063 1.858-1.858-2.063zM19.586 8.712l1.375-1.238L22.2 8.849l-1.376 1.239-1.238-1.376zM17.828 4.625l1.375-1.238 1.239 1.376-1.376 1.238-1.238-1.376zM21.344 12.799l1.375-1.239 1.239 1.376-1.376 1.239-1.238-1.376zM15.175 9.736l2.063-1.857 1.858 2.063-2.063 1.858-1.858-2.064zM55.738 7.906l-.065.043-.065-.043c-.474-.431-.992-.604-1.639-.604-1.488 0-2.459 1.035-2.459 2.653v7.569h1.488V9.955c0-1.078.733-1.165.971-1.165.173 0 .431.043.647.216.216.216.323.518.323.949v7.569h1.488V9.955c0-1.078.733-1.165.97-1.165.173 0 .431.043.647.216.215.216.323.518.323.949v7.569h1.488V9.955c0-.841-.258-1.531-.733-2.006-.431-.41-1.035-.647-1.725-.647-.667 0-1.206.194-1.659.604zM66.586 10.796c-.496-.518-1.316-.97-2.437-.97-1.079 0-1.898.453-2.394.97-.776.841-.927 2.027-.927 2.954 0 .906.151 2.092.927 2.933.496.517 1.315.97 2.394.97 1.121 0 1.941-.453 2.437-.97.776-.841.927-2.027.927-2.933 0-.927-.151-2.113-.927-2.954zm-.582 3.278c0 .711 0 1.509-.539 2.092-.216.215-.625.496-1.315.496-.647 0-1.057-.281-1.273-.496-.539-.583-.539-1.38-.539-2.092v-.669c0-.711 0-1.51.539-2.07.216-.237.625-.518 1.273-.518.69 0 1.099.281 1.315.518.539.56.539 1.359.539 2.07v.669zM68.742 9.955l1.251.022v.668c.367-.259.69-.453 1.057-.582.453-.194.776-.237 1.229-.237.647 0 1.315.129 1.855.733.517.604.625 1.316.625 1.919v5.024h-1.381V12.37c0-1.229-.776-1.553-1.423-1.553s-1.315.281-1.854.776v5.909h-1.359V9.955zM81.509 16.036a5.895 5.895 0 0 1-.884.345c-.41.13-.733.194-1.165.194-.711 0-1.358-.237-1.703-.625-.259-.259-.539-.776-.539-1.682v-.194h4.658v-.345c0-1.208-.043-2.2-.798-2.998-.496-.539-1.251-.905-2.2-.905-1.057 0-1.833.453-2.307.992-.777.885-.863 2.049-.863 2.803 0 .841.13 2.092.906 2.955.496.582 1.38 1.078 2.631 1.078.561 0 1.165-.065 1.768-.302.323-.129.69-.302.927-.431l-.431-.885zm-4.291-3.126c0-.863.28-1.359.496-1.596.215-.237.56-.496 1.142-.496.389 0 .776.086 1.057.367.496.474.496 1.057.496 1.574v.323h-3.192v-.172zM89.337 9.976l-2.954 8.885c-.108.388-.388 1.035-.712 1.401-.388.432-.905.626-1.488.626-.41 0-.798-.087-1.186-.302-.237-.151-.475-.302-.626-.475l.647-.82c.108.108.259.216.388.302.215.13.475.194.711.194.41 0 .669-.215.798-.388.151-.194.302-.647.41-.927l.173-.604-3.17-7.893h1.488l1.897 4.723c.194.452.389 1.143.432 1.337h.064c.237-.906.346-1.208.54-1.769l1.358-4.291h1.23zM31.305 17.071l.043-.065.065.065c.496.41.992.604 1.661.604 1.488 0 2.458-1.057 2.458-2.653V7.453h-1.51v7.569c0 1.078-.733 1.143-.949 1.143-.194 0-.453-.022-.647-.216-.216-.194-.323-.517-.323-.927V7.453h-1.51v7.569c0 1.078-.733 1.143-.97 1.143-.173 0-.432-.022-.626-.216-.216-.194-.323-.517-.323-.927V7.453h-1.51v7.569c0 .82.259 1.509.733 1.984.431.431 1.057.669 1.725.669.669 0 1.208-.215 1.683-.604zM42.454 16.036c-.237.107-.518.237-.863.345a3.55 3.55 0 0 1-1.164.194c-.712 0-1.359-.237-1.704-.625-.237-.259-.517-.776-.517-1.682v-.194h4.615v-.345c0-1.208-.043-2.2-.776-2.998-.496-.517-1.251-.884-2.222-.884a3.05 3.05 0 0 0-2.264.97c-.798.906-.863 2.07-.863 2.803 0 .841.108 2.092.884 2.955.518.561 1.38 1.078 2.631 1.078a4.89 4.89 0 0 0 1.768-.323c.323-.108.668-.302.906-.431l-.431-.863zm-4.248-3.126c0-.863.259-1.337.496-1.596a1.448 1.448 0 0 1 1.121-.496c.389 0 .777.108 1.057.388.496.453.496 1.035.496 1.574v.302h-3.17v-.172zM49.226 10.602c-.539-.475-1.294-.755-2.07-.755-.345 0-.711.065-.971.108-.215.064-.496.172-.733.259V7.259h-1.359v9.596a5.48 5.48 0 0 0 2.825.798c.798 0 1.877-.172 2.652-1.186.626-.841.755-1.898.755-2.76.001-.82-.064-2.221-1.099-3.105zm-2.33.215c.539 0 1.1.173 1.445.539.475.518.475 1.294.475 1.962v.647c0 1.273-.216 1.79-.41 2.071-.216.281-.668.625-1.445.625-.281 0-.626-.087-.885-.151a4.154 4.154 0 0 1-.625-.302V11.27"/></g></svg>