<svg xmlns="http://www.w3.org/2000/svg" width="57.313" height="22.938" viewBox="0 0 57.313 22.938"><path fill="#020202" d="M25.268 8.777c-1.298 0-2.651.947-2.651.947v-.609c0-.133-.053-.187-.187-.187h-1.657c-.133 0-.214.08-.214.187V22.1c0 .134.053.214.187.214h1.683c.107 0 .187-.08.187-.214V10.985s.781-.495 1.73-.495c.903 0 1.617.449 1.617 1.368V22.1c0 .134.08.214.214.214h1.656c.134 0 .187-.107.187-.214V11.277c.001-1.63-1.002-2.5-2.752-2.5zM32.254 15.709c0-2.725.798-5.423 2.426-5.423.552 0 1.082.181 1.603.596v9.601c-.408.221-.921.427-1.476.427-1.77-.001-2.553-2.102-2.553-5.201zm5.9-13.445h-1.657c-.134 0-.214.08-.214.187v6.551c-.636-.244-1.215-.373-1.683-.373-2.69 0-4.538 2.572-4.538 7.518 0 4.237 1.797 6.509 4.142 6.509.988 0 1.804-.566 2.401-1.098l.362.613c.061.106.111.142.233.142l.953.001c.107 0 .187-.08.187-.214V2.451c.001-.134-.052-.187-.186-.187zM44.367 14.414c-.61 0-1.721.151-1.721.151s.015-.442.068-.867c.239-2.256.777-3.396 1.705-3.396.808 0 1.361 1.167 1.494 3.211.026.425.026.902.026.902h-1.572zm.133-5.758c-2.759 0-4.12 3.609-4.12 7.536 0 4.111 1.942 6.415 4.439 6.415 1.098 0 2.19-.432 2.907-.83.11-.061.13-.147.103-.253l-.21-.868c-.026-.106-.079-.159-.212-.159-.058 0-.963.265-1.844.265-2.043 0-2.98-1.817-2.98-4.229v-.586s1.016.141 1.626.141h3.855v-1.115c-.001-4.115-1.441-6.317-3.564-6.317zM15.938 20.21c-.474.458-1.043.698-1.554.698-.511 0-.907-.236-1.224-.674-.386-.532-.566-1.352-.566-2.26 0-1.437.53-2.911 1.655-2.911.556 0 1.167.181 1.689.596v4.551zm1.475-9.868c-.612-1.207-1.704-1.735-2.953-1.735-.803 0-2.056.307-2.893.683-.164.074-.267.139-.267.268 0 .077.038.165.08.241l.564 1.207c.058.137.151.168.228.168.083 0 .151-.04.226-.088.816-.522 1.414-.809 1.888-.809.626 0 1.052.416 1.314 1.041.244.582.339 1.387.339 2.316l.001.273c-.515-.322-1.406-.5-1.85-.5-2.394 0-3.685 2.274-3.685 4.706 0 2.62 1.509 4.542 3.322 4.542 1.01 0 1.923-.592 2.536-1.34 0 0 .326.777.368.87.043.093.088.128.21.128h.969c.107 0 .187-.08.187-.214v-7.532c-.001-1.85-.095-3.262-.584-4.225zM56.812 8.927h-1.477a.286.286 0 0 0-.292.199c-.094.245-.718 1.889-.974 2.57-.182.487-.674 1.88-.674 1.88h-.057c-.002-.005-.362-1.014-.556-1.518-.158-.409-.98-2.576-1.084-2.843-.056-.144-.118-.286-.329-.286h-1.617c-.178 0-.278.195-.221.316.057.121 2.633 5.988 2.633 5.988s-2.766 6.569-2.847 6.717c-.081.148.021.366.218.366h1.417c.241 0 .336-.127.409-.33.204-.571.507-1.364.936-2.59.285-.812.734-2.238.734-2.238h.05s.493 1.453.676 1.928c.463 1.202 1.055 2.771 1.118 2.937.065.174.157.293.323.293h1.606c.159 0 .233-.181.158-.339-.179-.377-1.704-4.084-2.764-6.521 0 0 2.749-6.067 2.803-6.217.054-.153.037-.312-.189-.312z"/><path fill="#E42822" d="M12.077.31h-1.862c-.165 0-.268.081-.292.198C9.899.626 7.13 9.07 6.929 9.773c-.143.499-.608 2.257-.72 2.679l-.963-2.63c-.234-.724-2.477-6.99-2.543-7.24-.036-.138-.1-.309-.341-.309H.544c-.178 0-.278.195-.221.316.046.097 3.33 8.834 4.657 12.172V22.1c0 .134.053.214.187.214h1.722c.107 0 .187-.08.187-.214v-7.281C8.182 11.73 12.222.742 12.266.619c.054-.151.038-.309-.189-.309z"/></svg>