<svg xmlns="http://www.w3.org/2000/svg" xmlns:xlink="http://www.w3.org/1999/xlink" width="23.772" height="13.87" viewBox="0 0 23.772 13.87"><defs><path id="a" d="M0 0h23.772v13.87H0z"/></defs><clipPath id="b"><use xlink:href="#a" overflow="visible"/></clipPath><path clip-path="url(#b)" fill="#bc0030" d="M0 0h23.772v13.87H0z"/><g clip-path="url(#b)"><defs><path id="c" d="M0 0h23.772v13.87H0z"/></defs><clipPath id="d"><use xlink:href="#c" overflow="visible"/></clipPath><path d="M15.707 8.809a.247.247 0 0 0-.126-.039.421.421 0 0 1-.143-.033.208.208 0 0 0-.235.039c-.048.039-.079.044-.261.061-.257.019-.34.019-.34.003 0-.008.065-.055.147-.108.111-.072.156-.091.191-.083.077.014.173-.022.246-.097.069-.072.087-.075.245-.069.037.003.012.003.064-.006-.024-.064-.116-.188-.274-.147-.069.017-.108.019-.144.008-.101-.036-.237.036-.279.147-.019.055-.123.138-.303.249l-.133.083-.256-.1c-.284-.108-.526-.219-.526-.235 0-.008.035-.053.079-.105a.457.457 0 0 0 .079-.097.412.412 0 0 0-.111-.066c-.397-.199-.679-.481-.798-.8-.084-.221-.041-.274.064-.075.082.16.144.232.257.307.12.077.19.091.237.05.053-.05.04-.108-.036-.196-.177-.199-.228-.5-.083-.5.054 0 .062.008.17.266.158.357.317.598.443.658.105.058.278.014.307-.077.021-.072-.006-.119-.127-.194-.191-.125-.317-.324-.364-.587-.017-.083-.014-.105.011-.144.043-.064.075-.042.198.141.231.351.649.808.819.902.303.166.602.16.783-.019.048-.05.065-.08.065-.125 0-.086-.065-.122-.203-.116-.317.014-.346.011-.468-.044-.235-.113-.465-.379-.645-.753-.172-.351-.127-.368.16-.075.387.396.7.542.988.456.14-.039.273-.166.273-.26 0-.1-.05-.127-.202-.119a7.824 7.824 0 0 1-.282.006c-.148.003-.17-.003-.278-.055a1.246 1.246 0 0 1-.242-.171c-.184-.172-.494-.598-.494-.681s.073-.05.263.119c.156.136.432.321.556.382.072.03.119.039.256.039.145 0 .181-.003.253-.044.116-.058.158-.113.166-.235.014-.174-.072-.219-.322-.152-.354.086-.541.022-.867-.31-.158-.16-.213-.249-.192-.299.017-.05.087-.025.387.125.332.169.426.202.582.202.138 0 .227-.028.311-.1.127-.111.16-.236.079-.316-.064-.066-.19-.061-.331.011a.673.673 0 0 1-.209.064c-.223.022-.551-.102-.712-.266-.111-.111-.163-.213-.133-.252.03-.036.079-.027.203.023.239.102.354.13.537.13a.908.908 0 0 0 .501-.13c.134-.075.224-.172.224-.235a.238.238 0 0 0-.036-.108c-.05-.083-.145-.08-.315.017-.345.185-.58.213-.82.091a.994.994 0 0 1-.32-.304c-.026-.053-.026-.061-.001-.086.032-.03.054-.03.32.069.131.047.19.061.346.066.208.008.333-.014.468-.077.183-.083.36-.299.36-.432 0-.066-.042-.149-.08-.166-.077-.03-.12-.011-.239.116-.188.188-.372.26-.668.26-.313 0-.444-.047-.444-.166 0-.083.064-.13.192-.152.39-.064.841-.266 1.083-.49.142-.133.196-.227.195-.34-.003-.127-.058-.216-.159-.244-.084-.025-.152.017-.242.158-.151.238-.306.368-.6.515-.17.086-.444.18-.494.172-.018-.006-.042-.036-.055-.077-.044-.119-.051-.122-.228-.047a6.455 6.455 0 0 1-.401.155c-.268.094-.358.152-.421.279-.033.061-.04.102-.04.293-.001.199-.007.224-.042.277-.057.077-.101.096-.215.096-.165 0-.256-.097-.264-.285a.813.813 0 0 1 .093-.44.803.803 0 0 1 .324-.36c.156-.102.307-.149.526-.172.195-.017.394-.091.441-.188-.201.058-.401-.028-.383-.036.017-.011.373-.011.421-.014a.488.488 0 0 0 .292-.122c.095-.066.159-.13.133-.174-.022-.047-.094-.039-.144.017-.022.028-.069.077-.102.116-.057.064-.069.069-.239.094-.129.019-.151.019-.226 0-.024-.017-.044-.039-.044-.047 0-.025.069-.064.136-.077.046-.011.151.025.239.05-.019-.05-.019-.053-.05-.111-.042-.083-.118-.113-.304-.119-.133-.006-.177-.014-.206-.039-.019-.019-.053-.042-.071-.055a.221.221 0 0 0-.095-.017c-.119-.006-.306.041-.486.119a.496.496 0 0 1-.246.055.897.897 0 0 1-.196-.019c-.143-.039-.167-.039-.167-.011 0 .033.12.144.212.188.047.028.066.044.057.064-.012.039-.148.127-.231.155-.084.03-.082.064.01.108.043.019.073.044.076.055.001.05-.176.166-.256.166-.097 0-.059.077.048.1.058.014.058.022.006.077-.058.069-.109.091-.169.08-.065-.017-.079.011-.04.08.029.05.029.055-.003.077a.123.123 0 0 1-.053.022c-.004 0-.01.003-.011.003-.006 0-.012 0-.015.003-.006-.003-.011-.003-.017-.003l-.012-.003c-.019-.006-.037-.011-.054-.022-.03-.022-.03-.028 0-.077.037-.069.025-.097-.042-.08-.057.011-.111-.011-.169-.08-.053-.055-.053-.064.008-.077.107-.022.143-.1.046-.1-.08 0-.257-.116-.255-.166.001-.011.033-.036.076-.055.093-.044.094-.077.008-.108-.083-.028-.219-.116-.231-.155-.008-.019.011-.036.059-.064.09-.044.209-.155.209-.188 0-.028-.024-.028-.166.011a.91.91 0 0 1-.196.019.499.499 0 0 1-.248-.055c-.18-.077-.364-.125-.486-.119a.22.22 0 0 0-.094.017c-.019.014-.051.036-.072.055-.029.025-.072.033-.203.039-.19.006-.264.036-.307.119-.033.058-.033.061-.051.111.089-.025.194-.061.241-.05.065.014.136.053.136.077 0 .008-.022.03-.046.047-.073.019-.097.019-.225 0-.169-.025-.181-.03-.241-.094-.029-.039-.077-.089-.1-.116-.05-.055-.122-.063-.144-.016-.026.044.036.108.133.174a.487.487 0 0 0 .29.122c.046.003.404.003.421.014.018.008-.183.094-.382.036.046.097.246.171.441.188.22.022.369.069.524.172.163.108.25.202.324.36a.823.823 0 0 1 .094.44c-.01.188-.1.285-.264.285-.112 0-.158-.019-.212-.097-.036-.053-.04-.077-.043-.277 0-.191-.006-.232-.037-.293-.064-.127-.154-.185-.423-.279a6.455 6.455 0 0 1-.401-.155c-.177-.076-.184-.073-.227.046-.014.041-.039.072-.055.077-.052.008-.324-.086-.494-.171-.296-.147-.45-.277-.602-.515-.089-.141-.155-.183-.244-.158-.099.028-.156.117-.156.244-.003.113.051.207.195.34.242.224.693.426 1.082.49.13.022.192.069.192.152 0 .119-.13.166-.444.166-.295 0-.48-.072-.667-.26-.12-.127-.161-.147-.238-.116-.04.017-.083.1-.083.166 0 .133.178.349.36.432.136.064.261.086.47.077a.934.934 0 0 0 .345-.067c.264-.1.288-.1.32-.069.024.025.024.033-.003.086a.954.954 0 0 1-.32.304c-.238.122-.476.094-.817-.091-.173-.097-.267-.1-.317-.017a.265.265 0 0 0-.038.108c0 .064.09.16.227.235a.9.9 0 0 0 .501.13c.181.001.296-.027.535-.129.123-.05.172-.058.203-.022.03.039-.024.141-.133.252-.163.163-.49.288-.712.266a.63.63 0 0 1-.21-.064c-.139-.073-.265-.078-.328-.012-.083.08-.051.205.078.315.086.072.173.1.311.1.154 0 .25-.033.58-.202.302-.149.372-.174.39-.125.021.05-.036.139-.194.299-.326.332-.512.396-.866.31-.252-.066-.337-.022-.323.152.011.122.053.177.166.235.073.042.109.044.253.044a.544.544 0 0 0 .256-.039c.126-.061.401-.246.556-.382.192-.167.265-.201.265-.118s-.311.51-.496.681a1.25 1.25 0 0 1-.241.172c-.109.052-.131.058-.277.055a7.89 7.89 0 0 1-.284-.006c-.151-.008-.203.02-.203.119 0 .094.134.221.273.26.289.086.6-.061.988-.456.288-.293.332-.277.16.075-.18.374-.408.639-.645.753-.119.054-.15.057-.467.043-.138-.005-.202.031-.202.117 0 .044.017.075.066.125.18.18.479.185.78.019.171-.094.589-.551.82-.902.123-.183.154-.205.198-.141.026.039.028.061.011.144-.05.263-.173.462-.364.587-.121.074-.148.121-.125.193.028.091.201.136.304.077.124-.061.285-.302.441-.658.113-.258.12-.266.174-.266.144 0 .093.302-.08.501-.079.089-.091.147-.036.196.046.042.113.028.235-.05.115-.075.174-.147.257-.307.105-.199.149-.147.062.075-.118.318-.4.6-.797.8a.487.487 0 0 0-.112.066c0 .006.036.053.08.097a.622.622 0 0 1 .079.105c0 .017-.241.127-.527.235l-.257.1-.13-.083c-.183-.111-.282-.194-.304-.249-.04-.111-.178-.183-.279-.147-.035.011-.077.008-.145-.008-.158-.042-.25.083-.274.147.054.008.028.008.066.006.158-.007.175-.004.244.068.072.075.17.111.246.097.036-.008.082.011.191.083.08.053.147.1.147.108 0 .017-.086.017-.34-.003-.184-.017-.213-.022-.263-.061a.207.207 0 0 0-.234-.039.38.38 0 0 1-.142.034.235.235 0 0 0-.126.038c-.054.039-.087.058-.11.139.094-.003.062-.003.131-.014.12-.017.132-.014.17.019.023.02.056.047.078.058a.338.338 0 0 0 .232-.008c.037-.019.123-.025.315-.025.144-.003.271-.003.281 0a.543.543 0 0 1-.129.083c-.134.086-.147.089-.264.086-.155-.003-.242.047-.269.144l-.034.138c-.024.091-.035.108.034.268.075-.177.05-.124.072-.155.039-.058.053-.066.139-.071.124-.011.18-.047.225-.144.03-.069.064-.094.225-.196.225-.139.21-.139.46-.023.124.058.17.089.191.127.037.075.118.105.202.077.089-.025.122-.008.178.069.024.033.025.028.061.061.01-.05.01-.058.01-.105 0-.075-.007-.089-.101-.183-.111-.109-.177-.14-.256-.109-.039.013-.068.011-.163-.034-.108-.049-.147-.088-.092-.088.01 0 .183-.064.376-.138l.357-.138.053.044c.098.075.252.147.32.147.061 0 .068-.006.087-.069.03-.102.237-.498.346-.667.187-.288.288-.362.373-.271.025.03.032.066.03.174-.003.321-.187.744-.429.982a.748.748 0 0 1-.436.221c-.13.019-.219.05-.219.086 0 .033.086.136.141.163.048.028.093.03.195.028a.393.393 0 0 0 .259-.083c.116-.069.133-.075.156-.053.024.025.025.039.007.105-.036.138-.134.199-.364.227-.235.03-.315.102-.237.21.05.072.137.108.26.108.137 0 .257-.058.414-.207.068-.061.129-.108.14-.1.024.011.022.155-.004.241a.481.481 0 0 1-.203.238 1.363 1.363 0 0 1-.149.047c-.191.053-.22.127-.084.219.09.058.236.064.344.011.071-.03.266-.213.302-.279.032-.058.064-.014.054.072-.007.072-.05.155-.145.288-.077.105-.048.249.082.443.087.13.172.224.21.238.037-.014.12-.108.209-.238.131-.194.158-.337.08-.443-.095-.133-.138-.216-.144-.288-.011-.086.021-.13.054-.072.036.066.23.249.302.279a.373.373 0 0 0 .343-.011c.136-.091.107-.166-.084-.219a1.363 1.363 0 0 1-.149-.047.486.486 0 0 1-.203-.238c-.028-.086-.028-.23-.001-.241.01-.008.069.039.138.1.155.149.275.207.412.207.125 0 .21-.036.261-.108.079-.108-.001-.18-.235-.21-.23-.028-.328-.089-.367-.227-.018-.066-.014-.08.007-.105.024-.022.04-.017.155.053.118.072.141.077.261.083.101.003.147 0 .192-.028.057-.028.144-.13.144-.163 0-.036-.089-.066-.219-.086a.756.756 0 0 1-.437-.221c-.241-.238-.425-.661-.429-.982-.001-.108.006-.144.032-.174.084-.091.185-.017.371.271.111.169.317.564.347.667.021.064.028.069.089.069.066 0 .221-.072.318-.147l.053-.044.357.138c.196.075.367.138.379.138.054 0 .014.039-.094.089-.094.044-.127.047-.16.033-.082-.03-.147 0-.259.111-.093.094-.101.108-.101.183 0 .047 0 .055.01.105.037-.033.037-.028.062-.061.055-.077.091-.094.176-.069.089.028.167-.003.205-.077.021-.039.068-.069.19-.127.25-.116.237-.116.459.022.163.102.195.127.227.196.046.097.102.133.224.144.089.006.102.014.138.072.022.03-.001-.022.075.155.068-.16.058-.177.033-.268-.011-.042-.028-.105-.033-.138-.028-.097-.116-.147-.27-.144-.116.003-.13 0-.264-.086-.08-.044-.14-.083-.127-.083a3.81 3.81 0 0 1 .281 0c.191 0 .275.006.311.025.058.03.18.033.232.008a.613.613 0 0 0 .08-.058c.037-.033.05-.036.167-.019.071.011.037.011.133.014-.022-.083-.058-.102-.11-.141m-2.54-5.796c.039-.025-.03-.097.046-.094.017 0 .044.006.08.017.057.011.084.075.05.108-.036.039-.231.053-.268.019-.066-.174.048-.02.092-.05m-2.471.05c-.039.033-.232.019-.268-.019-.036-.033-.006-.097.05-.108a.325.325 0 0 1 .08-.017c.077-.003.008.069.044.094.044.03.161-.124.094.05" clip-path="url(#d)"/></g></svg>