<svg xmlns="http://www.w3.org/2000/svg" xmlns:xlink="http://www.w3.org/1999/xlink" width="23.772" height="13.867" viewBox="0 0 23.772 13.867"><defs><path id="a" d="M0 0h23.772v13.867H0z"/></defs><clipPath id="b"><use xlink:href="#a" overflow="visible"/></clipPath><path clip-path="url(#b)" fill="#438fc3" d="M0 0h23.772v13.867H0z"/><path clip-path="url(#b)" fill="#d6003f" d="M0 4.623h23.772v4.623H0z"/><path clip-path="url(#b)" fill="#48ae68" d="M0 9.246h23.772v4.621H0z"/><g clip-path="url(#b)"><defs><path id="c" d="M0 0h23.772v13.867H0z"/></defs><clipPath id="d"><use xlink:href="#c" overflow="visible"/></clipPath><path d="M12.355 8.555a1.62 1.62 0 0 1 0-3.24c.324 0 .625.097.878.26a1.942 1.942 0 1 0 0 2.72c-.253.163-.554.26-.878.26" clip-path="url(#d)" fill="#fff"/><path clip-path="url(#d)" fill="#fff" d="M14.545 7.669l-.531-.24-.204.548-.205-.548-.53.24.241-.531-.546-.205.546-.204-.24-.529.531.238.205-.542.205.545.529-.241-.241.529.545.207-.545.205z"/></g></svg>