<svg xmlns="http://www.w3.org/2000/svg" xmlns:xlink="http://www.w3.org/1999/xlink" width="23.773" height="13.867" viewBox="0 0 23.773 13.867"><defs><path id="a" d="M0 0h23.772v13.867H0z"/></defs><clipPath id="b"><use xlink:href="#a" overflow="visible"/></clipPath><path clip-path="url(#b)" fill="#ba0019" d="M0 0h23.773v9.244H0z"/><path clip-path="url(#b)" fill="#3e9a13" d="M0 9.244h23.773v4.623H0z"/><path clip-path="url(#b)" fill="#fff" d="M0 0h3.051v13.867H0z"/><path d="M.37 13.612h.136v-.382H.37v.382zm1.087 0h.136v-.382h-.136v.382zm1.088 0h.136v-.382h-.136v.382zM.914 12.589h.135v-.318H.914v.318zm1.088 0h.136v-.318h-.136v.318zm-1.632-.83h.136v-.382H.37v.382zm1.087 0h.136v-.382h-.136v.382zm1.088 0h.136v-.382h-.136v.382zm-1.902.512h.135v-.321h.136v-.318h.135v.318h.137v.321h.135v.318h-.135v.321h-.137v.321H.914v-.321H.778v-.321H.643v-.318zm1.088 0h.136v-.321h.136v-.318h.136v.318h.136v.321h.135v.318h-.136v.321h-.136v.321h-.136v-.321h-.135v-.321h-.136v-.318zm.271-1.279v.318h-.137v.321h-.134v.318h-.137v.321h-.137v-.32h-.136v-.318h-.135v-.322h-.137v-.318H.914v.318H.778v.321H.643v.318H.506v.321H.37v.318h.136v.321h.137v.321h.135v.318h.136v.318h.136v-.318h.136v-.318h.135v-.32h.136v-.321h.136v.321h.137v.321h.136v.318h.136v.318h.136v-.318h.136v-.318h.136v-.321h.136v-.321h.135v-.318h-.136v-.321H2.41v-.318h-.136v-.322h-.136v-.318h-.136zm.337-.318h.068v-.127h.068v.127h.068v.127h-.067v.13h-.069v-.13h-.068v-.127zm0-.445v.188h-.067v.194h-.068v.255h.068v.191h.067v.191h.205v-.191h.068v-.191h.067v-.256h-.067v-.194h-.068v-.188h-.205zm-1.833.442h.068v-.127h.068v.127H.71v.13H.643v.127H.575v-.127H.506v-.13zm0-.445v.191H.439v.191H.37v.257h.068v.191h.068v.191H.71v-.191h.068v-.191h.066v-.257H.778v-.191H.71v-.191H.506zm.748.445h.067v-.127h.069v.127h.067v.13H1.39v.127h-.069v-.127h-.067v-.13zm.34 0h.068v-.127h.068v.127h.067v.13h-.066v.127h-.069v-.127h-.068v-.13zm0-.445v.191h-.137v-.191h-.203v.191h-.068v.191h-.068v.257h.068v.191h.068v.191h.203v-.191h.136v.191h.204v-.191h.069v-.191h.066v-.257h-.065v-.191h-.069v-.191h-.204zm-1.224-.13h.136v-.382H.37v.382zm1.087 0h.136v-.382h-.136v.382zm1.088 0h.136v-.382h-.136v.382zM.37 8.499h.136v-.254H.37v.254zm2.175 0h.136v-.254h-.136v.254zm-1.088-.893h.136v-.318h-.136v.318zM.37 6.743v.385h.136v-.385H.37zm.748 0v.385h.136v-.385h-.136zm.68 0v.385h.136v-.385h-.136zm.747 0v.385h.136v-.385h-.136zm-.883-.224v.127h-.068v.097h-.137v-.097H1.39v-.127h-.136v.191h.067v.097h.069v.255h-.069v.097h-.067v.191h.136v-.129h.067v-.094h.136v.094h.068v.127h.136v-.19h-.066v-.097h-.069v-.255h.068v-.097h.067v-.19h-.135zm-.205.063h.136v-.318h-.136v.318zM.37 5.625h.136V5.37H.37v.255zm2.175 0h.136V5.37h-.136v.255zM.37 4.156h.136v-.385H.37v.385zm1.087 0h.136v-.385h-.136v.385zm1.088 0h.136v-.385h-.136v.385zM.914 6.939v-.133h.135v-.221h.137v-.257h.204v-.302h.067v-.147h.137v.144h.068v.304h.205v.257h.136v.221h.136v.254h-.137v.227h-.135v.254h-.205v.302h-.068v.144h-.137v-.142H1.39v-.302h-.204v-.254h-.137v-.227H.914v-.122zm1.088-3.552v.321h-.137v.318h-.134v.321h-.137v.318h-.137v-.318h-.136v-.321h-.135v-.319h-.137v-.32H.914v.321H.778v.318H.642v.321H.506v.318H.37v.321h.136v.321h.136v.318h.136v.318h.136v-.318h.135v-.318h.137v-.321h-.137v-.385h.137v.258h.135v.511h.069v.315l-.204.003v.255h-.137v.191H.914v.321H.778v-.321H.642v-.191H.506v-.191H.37v.575h.136v.257h.136v.221h.136v.255H.642v.227H.506v.255H.37v.575h.136v-.193h.136v-.191h.136v-.318h.136v.318h.135v.191h.137v.257l.204.003v.315h-.069v.512h-.135v.257h-.137v-.387h.137v-.318h-.137v-.318H.914v-.321H.778v.321H.642v.318H.506v.318H.37v.321h.136v.318h.137v.321h.135v.321h.136v.318h.135v-.318h.137v-.321h.135V9.52h.136v-.318h.136v.318h.137v.321h.136v.321h.136v.318h.136v-.318h.136v-.321h.136V9.52h.136v-.318h.136v-.321h-.137v-.318H2.41v-.318h-.136v-.321h-.136v.321h-.136v.318h-.137v.318h.137v.387h-.137v-.257h-.134v-.512h-.069v-.318h.205v-.257h.136v-.191h.136v-.318h.136v.318h.135v.191h.136v.194h.135v-.576h-.135v-.254H2.41v-.227h-.136v-.255h.136v-.221h.136v-.257h.135v-.576h-.135v.191H2.41v.191h-.136v.321h-.136v-.321h-.136v-.191h-.135v-.255h-.205V5.37h.068v-.512h.135v-.257h.137v.385h-.137v.321h.137v.318h.136v.318h.136v-.318h.136v-.318h.136v-.321h.136v-.321h-.137v-.318H2.41v-.321h-.136v-.319h-.136v-.32h-.136zM.506 3.068h.067v-.127h.07v.127H.71v.127H.643v.13h-.07v-.13H.506v-.127zm0-.257H.439v.194H.37v.255h.068v.194h.068v.191H.71v-.192h.068v-.194h.066v-.254H.778v-.194H.71v-.188H.506v.188zm.748.257h.067v-.127h.069v.127h.067v.127H1.39v.13h-.069v-.13h-.067v-.127zm.34 0h.068v-.127h.068v.127h.067v.127h-.066v.13h-.069v-.13h-.068v-.127zm-.34-.257h-.068v.194h-.068v.255h.068v.194h.068v.191h.203v-.192h.136v.191h.204v-.191h.069v-.194h.066v-.254h-.065v-.194h-.069v-.188h-.204v.188h-.137v-.188h-.203v.188zm1.085.255h.068v-.125h.068v.125h.068v.13h-.067v.127h-.069v-.127h-.068v-.13zm0-.446v.191h-.067v.194h-.068v.255h.068v.19h.067v.191h.205V3.45h.068v-.191h.067v-.254h-.067v-.194h-.068V2.62h-.205zM.37 2.493h.136v-.382H.37v.382zm1.087 0h.136v-.382h-.136v.382zm1.088 0h.136v-.382h-.136v.382zM.914 1.599h.135v-.321H.914v.321zm1.088 0h.136v-.321h-.136v.321zM.37.639h.136V.257H.37v.382zm1.087 0h.136V.257h-.136v.382zm1.088 0h.136V.257h-.136v.382zm-1.902.639h.135V.96h.136V.639h.135V.96h.137v.318h.135v.321h-.135v.318h-.137v.321H.914v-.321H.778v-.318H.643v-.321zm1.088 0h.136V.96h.136V.639h.136V.96h.136v.318h.135v.321h-.136v.318h-.136v.321h-.136v-.321h-.135v-.318h-.136v-.321zM2.002 0v.321h-.135v.318h-.136V.96h-.137v.318h-.137V.96h-.136V.639h-.135V.321h-.135V0H.914v.321H.778v.318H.643V.96H.506v.318H.37v.321h.136v.318h.137v.321h.135v.321h.136v.318h.135v-.318h.137v-.321h.135v-.321h.136v-.318h.136v.318h.137v.321h.135v.321h.137v.318h.136v-.318h.136v-.321h.136v-.321h.136v-.318h.136v-.321h-.136V.96H2.41V.639h-.136V.321h-.136V0h-.136z" clip-path="url(#b)" fill="#ba0019"/></svg>