<svg xmlns="http://www.w3.org/2000/svg" xmlns:xlink="http://www.w3.org/1999/xlink" width="23.773" height="13.87" viewBox="0 0 23.773 13.87"><defs><path id="a" d="M0 0h23.773v13.87H0z"/></defs><clipPath id="b"><use xlink:href="#a" overflow="visible"/></clipPath><path clip-path="url(#b)" fill="#250392" d="M0 0h23.773v13.87H0z"/><path clip-path="url(#b)" fill="#f5cc28" d="M5.369 0l13.867 13.87V0z"/><path clip-path="url(#b)" fill="#fff" d="M3.353 0h-.96l-.294.91.774-.564.774.564zm13.093 13.303h-.96l.773.567h.963l.772-.567h-.959l-.295-.911zM4.606 2.081l.775.561-.296-.907.775-.565h-.959L4.606.263l-.296.907h-.957l.776.565-.297.907zm1.733 1.734l.775.565-.295-.913.774-.562h-.958l-.296-.91-.294.91h-.958l.774.562-.295.913zm1.734 1.732l.774.565-.296-.91.775-.562h-.957l-.296-.913-.296.913H6.82l.775.562-.296.91zm1.734 1.735l.774.562-.296-.911.774-.561h-.957l-.295-.91-.297.91h-.956l.774.561-.295.911zm1.732 1.732l.775.565-.295-.911.774-.564h-.958l-.296-.908-.294.908h-.958l.774.564-.296.911zm1.734 1.732l.773.564-.294-.91.775-.561h-.957l-.297-.911-.296.911h-.956l.775.561-.297.91zm1.734 1.738l.774.558-.296-.91.774-.561h-.957l-.295-.908-.296.908h-.957l.775.561-.296.91z"/></svg>