<svg xmlns="http://www.w3.org/2000/svg" xmlns:xlink="http://www.w3.org/1999/xlink" width="23.77" height="13.867" viewBox="0 0 23.77 13.867"><defs><path id="a" d="M0 0h23.77v13.867H0z"/></defs><clipPath id="b"><use xlink:href="#a" overflow="visible"/></clipPath><path clip-path="url(#b)" fill="#fff" d="M0 4.621h23.77v4.623H0z"/><path clip-path="url(#b)" fill="#1e2788" d="M0 9.244h23.77v4.623H0z"/><path clip-path="url(#b)" fill="#cb0028" d="M0 0h23.77v4.621H0z"/><g clip-path="url(#b)"><defs><path id="c" d="M0 0h23.77v13.867H0z"/></defs><clipPath id="d"><use xlink:href="#c" overflow="visible"/></clipPath><path d="M9.132 4.554a8.252 8.252 0 0 1 2.717-.468 8.151 8.151 0 0 1 2.79.474l.693-1.394-.487-.848s-.869.357-.874.357c-.007 0-.613-.667-.613-.667l-.776.47-.729-.557-.685.549-.802-.465-.583.697-.876-.375-.47.84.695 1.387z" clip-path="url(#d)" fill="#fff"/><g clip-path="url(#d)"><path d="M14.648 4.587l-.015-.006a8.167 8.167 0 0 0-2.765-.476 8.325 8.325 0 0 0-2.732.468l-.715-1.397.469-.859.902.367.559-.69.827.459.663-.546.753.556.757-.47c.257.26.614.65.632.667.008-.011.621-.263.855-.36l.513.858-.703 1.429zM8.899 2.345l-.442.831.69 1.37a7.742 7.742 0 0 1 2.702-.479c.975 0 1.905.158 2.783.469l.682-1.379-.486-.827c-.847.365-.852.365-.858.365-.012 0-.015 0-.625-.672l-.753.473-.752-.559-.66.549-.825-.462-.557.69-.899-.369z" fill="#cb0028"/></g><path d="M13.565 4.168l.398-1.401.848-.344.445.751-.642 1.313a5.502 5.502 0 0 0-1.049-.319z" clip-path="url(#d)" fill="#3a7aa1"/><g clip-path="url(#d)"><path d="M14.618 4.492l-.005-.002a5.51 5.51 0 0 0-1.047-.318l.393-1.406.851-.35.454.755-.646 1.321zm.188-2.068l-.843.347-.393 1.397c.488.105.681.167 1.042.311l.641-1.307-.447-.748z" fill="#4c73d5"/></g><path d="M11.331 4.016l-.133-1.45.675-.537.703.535-.125 1.451c-.388-.02-.665-.017-1.12.001z" clip-path="url(#d)" fill="#3a7aa1"/><g clip-path="url(#d)"><path d="M12.456 4.022h-.004a10.458 10.458 0 0 0-1.121 0l-.138-1.455.675-.542.711.537-.123 1.46zm-.588-1.991l-.667.537.136 1.447a8.747 8.747 0 0 1 1.109-.003l.126-1.448-.704-.533z" fill="#4c73d5"/></g><path d="M9.165 4.485l-.63-1.328.419-.736.871.379.369 1.372c-.401.082-.609.15-1.029.313z" clip-path="url(#d)" fill="#3a7aa1"/><g clip-path="url(#d)"><path d="M9.162 4.492L8.53 3.157l.419-.737.878.378.373 1.373c-.408.09-.627.162-1.035.318l-.003.003zm-.207-2.066l-.414.734.624 1.32c.405-.158.624-.23 1.026-.314l-.372-1.363-.864-.377z" fill="#4c73d5"/></g><path d="M9.029 3.815c.194.022.328.011.495-.045.196-.093.259-.199.319-.285.045.168.027.326-.195.455-.201.105-.486.072-.619-.125z" clip-path="url(#d)" fill="#fff"/><g clip-path="url(#d)"><path d="M9.4 4.004a.44.44 0 0 1-.376-.185c.064 0 .115.003.163.003a.969.969 0 0 0 .335-.055c.182-.087.246-.183.305-.267a.588.588 0 0 1-.303.275 1.081 1.081 0 0 1-.495.046c.125.166.409.221.616.116.183-.108.22-.231.213-.344.018.111-.018.242-.209.35a.516.516 0 0 1-.249.061z" fill="#fff"/></g><path clip-path="url(#d)" fill="#fbfc2b" d="M12.056 2.79l-.039.01.003.069-.05.01-.03.061.018.016-.013.046.013.017.011.037.033.005.007.043.05.006.045.033.003.021.051.001.036.011.126-.015.018-.024v-.035l.067-.002.008-.057h.033l-.005-.063.03.003-.007-.029-.018-.027-.005-.038-.052-.05-.009-.068-.033-.015-.003-.045.036-.055-.003-.018-.033-.001-.029.019-.033.007v.015l.008.031h-.039l-.003-.047-.056-.028-.054.037-.003.04-.025.007-.026-.038-.046-.017-.026-.001v.03l.05.061z"/><g clip-path="url(#d)"><path d="M12.192 3.187l-.094-.011-.003-.03-.044-.025-.044-.006-.017-.052-.021.006-.029-.088.018-.025-.025-.008.028-.075.057-.018-.013-.055.048-.021-.006-.028-.046-.053v-.049l.036.003.048.018.03.042.008-.042c0-.007 0-.007.058-.047l.071.029.007.055.018-.011-.01-.015c0-.029.003-.03.046-.036l.021-.018.042-.003h.01l.006.032-.041.061.006.039c0-.008.026.006.026.006l.019.075.05.046.03.098-.042.012.018.05-.046.012.007.045-.08.012.01.025-.019.032-.138.018zm-.031-.033l.036.011.123-.014.007-.021-.001-.03.079-.012-.006-.046.047-.01-.015-.051.043-.01-.039-.036-.004-.044-.048-.046-.017-.072c-.033-.01-.033-.01-.033-.018l-.003-.044.042-.059-.028-.004-.021.019c-.006.003-.033.004-.039.007.018.032.018.032.018.035l-.051.011-.015-.058-.05-.017c.003.004-.033.026-.04.033v.043l-.035.007-.037-.042-.039-.012-.01.018.043.055-.003.044-.045.019.01.059-.057.019-.022.055c.019.015.019.017.01.046-.007.001-.007.003.006.024l.015.039.021-.003.018.053.041-.002.053.037.003.024.043-.007z" fill="#c2a21f"/></g><g clip-path="url(#d)"><path d="M12.413 3.042l-.011-.037.011.037z" fill="none"/></g><g clip-path="url(#d)"><path d="M12.441 2.98l-.015-.025.015.025z" fill="none"/></g><path clip-path="url(#d)" fill="#c2a21f" d="M11.961 2.951l.056-.003.01.048.018.02.003.086.018.008.005-.036.04-.003.009.072-.009.011.003.01.053-.003.012-.018.028-.001.011.019.007-.026.029-.011.021.036.037-.006-.022-.021-.011-.045.054-.029.018.034h.018l-.022-.04v-.08l.04-.053.054-.005v-.024l-.054-.048-.013-.069-.03-.016-.008.01-.036.002.036.051v.032l.012.008-.001.09-.039.005-.003.049-.023.025-.013.044-.023.03h-.043l-.027-.025-.002-.033-.018-.005-.01-.039-.032-.015v-.022l-.028-.011-.002-.021-.016-.01v-.057l.024-.004-.014-.016-.004-.016v-.018l.021-.018-.039-.005-.033.015-.003.068-.041.01-.036.055z"/><g clip-path="url(#d)"><path d="M12.107 3.176l-.006-.019v-.083l-.03.011.004.025v.015l-.033-.012-.007-.097-.03-.065-.047.012-.021-.018.032-.069.046-.018c-.006-.003-.006-.048-.006-.054a.144.144 0 0 1 .042-.025.219.219 0 0 1 .047.001l-.02.06-.017-.01.017-.03c-.007.003-.017 0-.019 0 .007.004-.014.01-.026.012.003.007 0 .024 0 .059l-.051.022-.026.05.059-.006.024.057.024.106-.003-.028.053-.014.022.082-.008.01.051-.006v.024l-.071.008zm.17-.004c-.035-.042-.035-.044-.035-.048l-.018.011.003.007-.006-.018c.026-.011.029-.011.032-.011a.25.25 0 0 1 .03.042l.026-.011-.029-.001-.012-.054.003-.003c0 .003-.003.003-.003.003l-.014.021-.051.006c-.036-.028-.036-.03-.036-.036l-.006-.032c-.015.004-.015.004-.026-.042l-.028-.011-.003-.029-.026-.006-.007-.025c-.015-.001-.015-.001-.015-.069v-.011l.036-.004.022.021-.04.004a.175.175 0 0 1 .004.044l.047.036.003.03.022.008c.008.007.014.036.017.04.017.01.022.044.022.044l.021.015.033-.003c.015-.028.018-.028.024-.028-.008 0 .003-.039.003-.039l.028-.029-.003-.04c0-.012 0-.012.053-.018l-.024-.118-.034-.04.043-.022.047.008.019.076.055.047v.028l-.065.018-.033.047.003.073c.003 0 .018.03.021.035l-.029.017-.028-.039-.039.032.036.048-.043.026zm.038-.206c.003.006.003.04.003.04l-.028.032c-.011.033-.012.044-.018.047l.054-.036.015.015c-.003-.001-.003-.003-.003-.004l-.003-.087.011-.017a.182.182 0 0 1-.031.01zm.023-.198l-.036.015.042.03.012.13.024-.03.061-.01-.061-.052-.018-.075-.024-.008z" fill="#c2a21f"/></g><path d="M12.174 3.042l.029-.017v-.03l-.029-.007-.007-.008.025.003.042-.003.012-.006c-.007.012-.01.012-.012.012l-.021.01v.032l.065.007s0 .012-.003.012l-.065-.015-.04.025.004-.015z" clip-path="url(#d)" fill="#613f21"/><g clip-path="url(#d)"><path d="M12.158 3.071l.012-.032.03-.018-.008-.032.015.006v-.006l.026-.01v.007l-.018.015.004.026c.062.003.062.003.062.007-.01.017-.01.017-.075.003l-.048.034z" fill="#c2a21f"/></g><path d="M12.336 2.853l-.036.029-.025.042-.011.001-.039-.046h-.042l-.022.057-.015-.003-.044-.046s-.012-.024-.01-.024l.108.001v-.05s-.018-.006-.026-.011l.059-.001-.023.015v.044l.095.001.031-.009z" clip-path="url(#d)" fill="#c2a21f"/><g clip-path="url(#d)"><path d="M12.161 2.948l-.018-.003-.054-.057-.008-.03.119-.005-.011-.036.011-.007c-.006.003-.008.003-.014.004-.01-.022.011-.022.047-.022h.036l-.051.036.004.033.111-.018-.056.087-.024.003-.036-.048-.032.007c.006.003-.01.043-.012.048l-.012.008zm.046-.083l-.115.01.061.05c.006-.007.008-.019.021-.05l.036-.003-.003-.007z" fill="#c2a21f"/></g><path d="M12.143 2.879h.01c.006 0 .008.003.008.006v.01c0 .006-.003.008-.008.008h-.01c-.006 0-.008-.003-.008-.008v-.01c0-.003.003-.006.008-.006zm.118-.006h.008c.006 0 .008.003.008.008v.007c0 .006-.003.008-.008.008h-.008c-.003 0-.007-.003-.007-.008v-.006c0-.006.004-.009.007-.009z" clip-path="url(#d)" fill="#613f21"/><g clip-path="url(#d)"><path d="M12.092 2.804l-.014-.007.006-.014a.334.334 0 0 1 .108-.03c.051-.006.087.001.129.008-.046.017-.077.01-.123.015-.045.005-.07.016-.106.028z" fill="#c2a21f"/></g><path clip-path="url(#d)" fill="#c2a21f" d="M12.102 2.714h-.034l-.042-.047.022.004.03.013z"/><g clip-path="url(#d)"><path fill="#c2a21f" d="M12.122 2.728h-.054l-.077-.075.093.021.038.054z"/></g><path clip-path="url(#d)" fill="#c2a21f" d="M12.294 2.696l.072-.054-.022-.002-.029.023-.031.006z"/><g clip-path="url(#d)"><path fill="none" d="M12.294 2.696l.072-.054-.022-.002-.029.023-.031.006z"/></g><path clip-path="url(#d)" fill="#c2a21f" d="M12.251 2.707l-.113.004.002-.012.042-.004.004-.017h.014l.007.017.041.007z"/><g clip-path="url(#d)"><path fill="#c2a21f" d="M12.125 2.723l.003-.025.054-.014-.024.015.034-.003-.003-.012.062.005.01.018-.007.011-.129.005z"/></g><path clip-path="url(#d)" fill="#c2a21f" d="M12.246 2.666h-.039l-.002-.021z"/><g clip-path="url(#d)"><path fill="none" d="M12.246 2.666h-.039l-.002-.021z"/></g><path clip-path="url(#d)" fill="#c2a21f" d="M12.179 2.645l-.003.021-.038.008z"/><g clip-path="url(#d)"><path fill="none" d="M12.179 2.645l-.003.021-.038.008z"/></g><path clip-path="url(#d)" fill="#c2a21f" d="M11.963 3.032l.018-.048-.015-.033-.018.048z"/><g clip-path="url(#d)"><path fill="none" d="M11.963 3.032l.018-.048-.015-.033-.018.048z"/></g><path clip-path="url(#d)" fill="#c2a21f" d="M12.002 3.059l.025-.057-.046.047z"/><g clip-path="url(#d)"><path fill="#c2a21f" d="M12.006 3.074l-.03-.015.041-.063-.027.06.012.003-.011-.005.026-.059-.011.079z"/></g><path clip-path="url(#d)" fill="#fbfc2b" d="M11.429 2.81l-.038.009.002.07-.045.011-.035.059.021.018-.015.046.012.015.011.039.033.002.009.045.048.008.046.032.003.021.054.001.035.01.124-.014.018-.025v-.036l.066-.001.008-.056h.034l-.003-.065.032.003-.012-.029-.017-.025-.003-.039-.054-.051-.01-.066-.034-.016-.002-.045.038-.053-.005-.022h-.033l-.029.022-.033.004v.016l.008.03h-.039l-.002-.046-.057-.027-.054.034-.003.042-.025.007-.026-.038-.046-.016-.026-.002v.029l.049.063z"/><g clip-path="url(#d)"><path d="M11.568 3.208l-.098-.012-.001-.029-.042-.025-.046-.007-.019-.053-.019.006-.03-.082a.261.261 0 0 1 .012-.029l-.021-.024.033-.061.054-.017-.01-.057.046-.018-.006-.026-.046-.055V2.67l.039.001.046.018.033.043.006-.043c0-.006 0-.006.059-.044l.069.026.007.057.018-.011-.007-.015c-.003-.03-.003-.03.043-.036l.021-.018.042-.003h.01l.006.03-.042.062.006.039c0-.008.025.004.025.004l.022.075.048.047.033.097-.044.014.018.05-.046.011.004.047-.076.012.01.024-.02.033-.137.018zm-.033-.035l.036.011.12-.012.011-.021v-.03l.076-.014-.004-.044.046-.011-.015-.05.044-.01-.036-.036-.008-.046-.05-.044-.014-.072c-.035-.011-.035-.011-.035-.018l-.001-.046.04-.059-.028-.003-.021.018a.206.206 0 0 1-.039.006c.018.033.018.033.018.036l-.051.011-.012-.057-.051-.017c.003.003-.033.026-.042.032.003.004 0 .035 0 .035v.008l-.03.01-.042-.043-.039-.012-.011.017.044.055-.003.046-.046.019.01.057-.055.021-.024.055c.024.015.024.015.01.051-.008-.004-.008-.003.006.017l.015.039.021-.003.018.053h.04l.058.036.001.025.043-.01z" fill="#c2a21f"/></g><g clip-path="url(#d)"><path d="M11.786 3.061l-.008-.036.008.036z" fill="none"/></g><g clip-path="url(#d)"><path d="M11.814 2.999l-.015-.024.015.024z" fill="none"/></g><path clip-path="url(#d)" fill="#c2a21f" d="M11.334 2.972l.057-.003.009.048.02.015.001.092.018.007.006-.036.044-.005.004.074-.007.008.006.011.048-.001.013-.018.027-.003.011.021.01-.025.026-.011.021.033.037-.006-.022-.019-.008-.047.051-.028.018.034h.021l-.024-.039v-.079l.039-.054.054-.007v-.022l-.054-.05-.015-.068-.028-.015-.008.009-.036.004.036.048v.033l.015.009-.005.087-.038.008-.003.048-.023.024-.013.046-.023.029h-.043L11.55 3.1l-.003-.033-.018-.006-.01-.038-.027-.016v-.022l-.032-.012-.003-.022-.015-.007v-.057l.026-.005-.015-.016-.006-.016v-.017l.021-.021-.036-.002-.036.015-.003.066-.041.014-.033.051z"/><g clip-path="url(#d)"><path d="M11.481 3.196l-.006-.019v-.085l-.03.014.006.026-.003.014-.03-.012-.011-.101-.028-.061-.047.012-.019-.018.03-.069.046-.018c-.004-.003-.004-.047-.004-.054.012-.012.036-.022.04-.025l.046.003-.017.059-.02-.012.019-.03c-.008.003-.019 0-.021.001.007.001-.012.01-.026.012v.058l-.051.024-.026.048.059-.007.024.059.022.108-.001-.032.054-.012.019.082-.007.011.051-.008v.026l-.069.006zm.168-.003c-.036-.044-.036-.044-.036-.047l-.012.011v.004l-.004-.015c.025-.012.028-.012.03-.012l.03.04.025-.011-.028-.001-.012-.052.059-.042.012.017c0-.003 0-.003-.003-.006l-.003-.084.012-.018-.033.01c.003.006.003.042.003.042l-.028.029c-.015.05-.015.05-.021.05l-.015.025-.051.006c-.034-.032-.034-.032-.034-.039l-.006-.032c-.018.003-.018.001-.026-.04l-.028-.012-.003-.029-.025-.006-.008-.025c-.015-.003-.015-.003-.015-.069v-.011l.036-.004.024.019-.042.007c.008.007.008.037.008.043l.043.036.003.029.024.01c.007.006.012.036.015.04.018.008.024.044.024.044 0-.003.019.015.019.015l.033-.003c.018-.028.018-.028.024-.028-.006 0 .006-.039.006-.039l.025-.029v-.04c0-.012 0-.012.048-.018l-.023-.118-.033-.043.043-.021.047.007.021.076.053.048v.026l-.064.019-.033.047.003.075c.003 0 .018.028.021.033l-.029.018-.028-.04-.039.033.036.048-.045.027zm.063-.404l-.036.014.042.032.012.129.024-.03.061-.01-.061-.051-.018-.075-.024-.009z" fill="#c2a21f"/></g><path d="M11.547 3.061l.029-.015v-.03l-.029-.008-.007-.009.028.003.039-.003.012-.004c-.007.012-.01.012-.012.012l-.021.01.003.03.061.007-.001.014-.065-.015-.042.024.005-.016z" clip-path="url(#d)" fill="#613f21"/><g clip-path="url(#d)"><path d="M11.532 3.09l.01-.03.032-.019-.008-.029.015.004v-.004l.026-.01v.006l-.018.015.006.025c.061.004.061.004.061.008-.007.018-.007.018-.075.003l-.049.031z" fill="#c2a21f"/></g><path d="M11.709 2.875l-.039.027-.022.042-.011.001-.036-.047-.04.002-.024.057-.018-.003-.042-.046s-.015-.024-.012-.024h.108l-.003-.05-.024-.01c.006-.003.059-.003.059-.003l-.024.017v.043h.095l.033-.006z" clip-path="url(#d)" fill="#c2a21f"/><g clip-path="url(#d)"><path d="M11.537 2.966l-.021-.001-.054-.055-.007-.03.118-.006-.01-.035.007-.007-.01.003c-.01-.023.01-.025.046-.025h.039l-.057.036.008.036.109-.019-.057.089-.022.003-.036-.048-.028.006c.001.004-.017.046-.017.048l-.008.005zm.043-.082l-.115.01.062.051a.299.299 0 0 0 .019-.051l.036-.006-.002-.004z" fill="#c2a21f"/></g><path d="M11.517 2.898h.011c.004 0 .007.004.007.008v.008c0 .006-.003.008-.007.008h-.011c-.006 0-.008-.003-.008-.008v-.007c-.001-.005.002-.009.008-.009zm.117-.005h.011c.003 0 .004.004.004.01v.007c0 .006-.001.008-.004.008h-.011c-.001 0-.007-.003-.007-.008v-.008c0-.005.006-.009.007-.009z" clip-path="url(#d)" fill="#613f21"/><g clip-path="url(#d)"><path d="M11.468 2.822l-.012-.006.004-.014a.321.321 0 0 1 .108-.029c.048-.006.082.003.123.01-.043.017-.077.008-.12.014-.043.003-.07.013-.103.025z" fill="#c2a21f"/></g><path clip-path="url(#d)" fill="#c2a21f" d="M11.475 2.735h-.03l-.047-.046.023.003.035.013z"/><g clip-path="url(#d)"><path fill="#c2a21f" d="M11.496 2.747h-.051l-.078-.076.09.021.039.055z"/></g><path clip-path="url(#d)" fill="#c2a21f" d="M11.669 2.717l.072-.054-.024-.004-.029.025-.03.005z"/><g clip-path="url(#d)"><path fill="none" d="M11.669 2.717l.072-.054-.024-.004-.029.025-.03.005z"/></g><path clip-path="url(#d)" fill="#c2a21f" d="M11.624 2.728l-.113.003.003-.011.041-.006.006-.015h.009l.01.015.042.007z"/><g clip-path="url(#d)"><path fill="#c2a21f" d="M11.499 2.743l.002-.025.054-.013-.023.015.036-.003-.004-.012.06.005.01.018-.007.01-.128.005z"/></g><path clip-path="url(#d)" fill="#c2a21f" d="M11.622 2.684l-.042.003-.003-.021z"/><g clip-path="url(#d)"><path fill="none" d="M11.622 2.684l-.042.003-.003-.021z"/></g><path clip-path="url(#d)" fill="#c2a21f" d="M11.553 2.666l-.003.021-.039.005z"/><g clip-path="url(#d)"><path fill="none" d="M11.553 2.666l-.003.021-.039.005z"/></g><path clip-path="url(#d)" fill="#c2a21f" d="M11.337 3.053l.02-.048-.02-.033-.016.048z"/><g clip-path="url(#d)"><path fill="none" d="M11.337 3.053l.02-.048-.02-.033-.016.048z"/></g><path clip-path="url(#d)" fill="#c2a21f" d="M11.375 3.079l.025-.056-.045.045z"/><g clip-path="url(#d)"><path fill="#c2a21f" d="M11.381 3.095l-.032-.017.042-.061-.029.06.013.002-.011-.005.029-.058-.012.079z"/></g><path d="M12.461 4.015l.126-1.454.771-.444.596.645-.396 1.401a7.565 7.565 0 0 0-1.097-.148z" clip-path="url(#d)" fill="#1e2788"/><g clip-path="url(#d)"><path d="M13.561 4.17l-.006-.001a7.393 7.393 0 0 0-1.094-.149l.12-1.458.773-.448.603.647-.396 1.409zm-.206-2.049l-.765.445-.123 1.448c.483.03.706.066 1.086.144l.396-1.397-.594-.64z" fill="#160080"/></g><path clip-path="url(#d)" fill="#fbfc2b" d="M11.753 3.353l-.036.01v.069l-.047.01-.03.061.018.018-.013.045.01.016.014.038.03.003.007.044.049.007.049.035v.021h.054l.036.011.123-.014.018-.028v-.034l.069-.003.007-.054h.035l-.006-.064.031.003-.007-.03-.018-.024-.006-.039-.051-.051-.011-.069-.036-.017-.003-.043.039-.052-.003-.022h-.036l-.024.022-.036.004v.015l.011.031h-.042v-.046l-.059-.029-.052.036-.002.043-.028.005-.026-.037-.046-.018h-.023v.029l.045.062z"/><g clip-path="url(#d)"><path d="M11.891 3.752l-.095-.012-.006-.03-.04-.024-.044-.007-.018-.053-.022.006-.033-.093-.003-.042.03-.061.057-.015-.012-.058.046-.019-.003-.028-.046-.054-.003-.036.003-.014.033.003.051.017.03.046.008-.046c0-.003 0-.003.059-.044l.069.028.004.057.021-.01-.01-.017c0-.03 0-.03.046-.036l.021-.017.04-.003h.011l.006.029-.042.062.006.036c0-.006.025.006.025.006l.022.077.046.046.035.098-.043.011.018.05-.047.014.003.046-.076.012.01.024-.021.033-.136.018zm-.033-.033l.039.011.12-.017.01-.019v-.029l.077-.012-.006-.047.047-.01-.018-.051.043-.008-.035-.037-.004-.046-.05-.044-.015-.073c-.033-.01-.033-.01-.033-.019l-.003-.044.039-.059-.029-.003-.017.018-.042.006c.018.033.018.033.018.036l-.051.012-.014-.058-.048-.018c.003.004-.033.028-.04.033.003.003 0 .036 0 .036v.007l-.033.01-.039-.043-.042-.014-.011.018.047.055-.003.046-.047.018.011.058-.057.021-.025.055c.022.012.022.017.01.044-.01.001-.008.003.008.025l.012.039.024-.003.017.051.039-.001.055.037.004.026.042-.007z" fill="#c2a21f"/></g><g clip-path="url(#d)"><path d="M12.111 3.605l-.01-.036.01.036z" fill="none"/></g><g clip-path="url(#d)"><path d="M12.14 3.544l-.018-.026.018.026z" fill="none"/></g><path clip-path="url(#d)" fill="#c2a21f" d="M11.658 3.517l.056-.003.01.048.018.015.003.089.018.007.005-.035.045-.004.007.072-.01.01.003.011h.049l.014-.021.028-.003.014.024.007-.029.029-.009.019.035.036-.005-.019-.024-.011-.044.051-.028.021.035h.017l-.023-.042v-.08l.041-.053.054-.005v-.021l-.054-.051-.015-.068-.032-.016-.006.009-.036.003.036.051v.032l.015.007-.003.09-.039.005-.001.05-.026.024-.016.045-.02.029-.042.002-.025-.025-.005-.033-.018-.006-.007-.039-.032-.013-.001-.024-.027-.012-.005-.023-.013-.006-.002-.057.024-.006-.012-.016-.004-.017v-.015l.019-.021-.038-.004-.036.017v.065l-.043.012-.034.054z"/><g clip-path="url(#d)"><path d="M11.804 3.739l-.006-.018.003-.084-.03.012.006.025-.003.017-.032-.014-.01-.1-.028-.061-.05.012-.02-.018.032-.068.048-.018c-.006-.003-.006-.047-.006-.054.012-.014.036-.024.039-.026.012-.003.046.003.046.003l-.015.059-.018-.014.018-.029c-.01.003-.018.001-.024 0 .008.004-.012.01-.025.014a.164.164 0 0 1 0 .057l-.048.024-.032.048.065-.006.021.058.022.107v-.028l.053-.014.019.083-.007.01.054-.007-.003.022-.069.008zm.169-.005c-.033-.04-.033-.04-.033-.044l-.012.04-.033-.025-.015.004.025-.015v.012l.021.015.006-.006-.01-.026c.028-.012.03-.012.033-.012.01.012.028.04.028.04l.028-.011h-.03l-.012-.054.059-.039.012.014-.003-.004v-.087l.01-.015c-.01.006-.025.008-.03.01.003.006 0 .039 0 .039l-.027.031c-.017.05-.017.05-.026.05.006.001-.01.024-.01.024l-.053.005c-.039-.029-.039-.029-.039-.036l-.001-.033c-.015.006-.018.003-.029-.042l-.028-.011-.002-.028-.025-.004-.006-.026c-.017-.003-.017-.003-.017-.069v-.01l.036-.006-.001-.001.024.019-.039.008a.157.157 0 0 1 .004.043c.015.006.015.006.021.032l.026.004.001.029.024.007a.139.139 0 0 1 .012.044c.022.007.024.043.024.043 0-.003.024.015.024.015l.033-.001c.015-.03.015-.032.021-.032-.006 0 .006-.039.006-.039l.025-.026v-.042c0-.01 0-.01.048-.015l-.023-.118-.03-.044.04-.021.046.007.022.077.053.047v.026l-.064.019-.03.047.003.072.019.035-.028.02-.03-.043-.036.032.033.05-.045.025zm.062-.401l-.036.014.04.032.017.129.019-.029.062-.011-.059-.051-.017-.076-.026-.008z" fill="#c2a21f"/></g><path d="M11.873 3.605l.028-.015v-.032l-.028-.006-.011-.011.029.006.039-.003.012-.006c-.006.014-.008.011-.01.011-.003 0-.021.01-.021.01v.03l.064.01c-.003 0 0 .011-.003.011l-.066-.014-.039.025.006-.016z" clip-path="url(#d)" fill="#613f21"/><g clip-path="url(#d)"><path d="M11.855 3.634l.012-.032.03-.018-.01-.03.015.003v-.003l.026-.01.003.006-.018.015.003.025c.064.003.064.003.064.01-.011.017-.012.017-.075.003l-.05.031z" fill="#c2a21f"/></g><path d="M12.035 3.418l-.039.028-.024.042-.011.002-.036-.048h-.04l-.024.058-.015-.003-.044-.046-.011-.025.107.001v-.05l-.024-.01.057-.001-.021.015v.042l.093.001.032-.006z" clip-path="url(#d)" fill="#c2a21f"/><g clip-path="url(#d)"><path d="M11.861 3.511l-.018-.003-.057-.055-.008-.032.119-.004-.011-.035.011-.008-.012.004c-.011-.022.012-.025.046-.025h.039l-.054.036.006.035.112-.018-.057.089-.022.003-.039-.048-.029.006c.003.003-.012.043-.012.048l-.014.007zm.046-.083l-.117.011.062.051c.003-.008.008-.024.021-.051l.036-.006-.002-.005z" fill="#c2a21f"/></g><path d="M11.843 3.442h.007c.006 0 .008.004.008.007v.01c0 .006-.003.007-.008.007h-.007c-.006 0-.008-.001-.008-.007v-.01c0-.003.002-.007.008-.007zm.115-.006h.011l.007.009v.009l-.007.004h-.011l-.004-.004v-.009l.004-.009z" clip-path="url(#d)" fill="#613f21"/><g clip-path="url(#d)"><path d="M11.79 3.369l-.012-.009.003-.011a.367.367 0 0 1 .237-.024c-.044.015-.077.011-.12.014a.317.317 0 0 0-.108.03z" fill="#c2a21f"/></g><path clip-path="url(#d)" fill="#c2a21f" d="M11.802 3.279h-.034l-.044-.049.024.004.03.014z"/><g clip-path="url(#d)"><path fill="#c2a21f" d="M11.822 3.29h-.054l-.077-.075.093.021.038.054z"/></g><path clip-path="url(#d)" fill="#c2a21f" d="M11.991 3.262l.075-.055-.027-.004-.024.026-.034.001z"/><g clip-path="url(#d)"><path fill="none" d="M11.991 3.262l.075-.055-.027-.004-.024.026-.034.001z"/></g><path clip-path="url(#d)" fill="#c2a21f" d="M11.951 3.27l-.114.004v-.009l.045-.006.003-.015h.012l.01.014.041.007z"/><g clip-path="url(#d)"><path fill="#c2a21f" d="M11.825 3.287l.001-.025.053-.014-.024.017.036-.003-.005-.014.065.006.007.016-.007.011-.126.006z"/></g><path clip-path="url(#d)" fill="#c2a21f" d="M11.945 3.229h-.041l-.003-.021z"/><g clip-path="url(#d)"><path fill="none" d="M11.945 3.229h-.041l-.003-.021z"/></g><path clip-path="url(#d)" fill="#c2a21f" d="M11.879 3.209l-.003.02-.039.007z"/><g clip-path="url(#d)"><path fill="none" d="M11.879 3.209l-.003.02-.039.007z"/></g><path clip-path="url(#d)" fill="#c2a21f" d="M11.66 3.597l.021-.049-.018-.034-.015.051z"/><g clip-path="url(#d)"><path fill="none" d="M11.66 3.597l.021-.049-.018-.034-.015.051z"/></g><path clip-path="url(#d)" fill="#c2a21f" d="M11.702 3.623l.022-.058-.046.048z"/><g clip-path="url(#d)"><path fill="#c2a21f" d="M11.706 3.638l-.033-.016.041-.061-.026.059.014.003-.011-.004.026-.062-.011.081z"/></g><path d="M12.654 3.754l-.039.044.003.039h.08c.025-.008.033-.018.039-.026.004-.012 0-.021.003-.039l-.086-.018z" clip-path="url(#d)" fill="#cb0028"/><g clip-path="url(#d)"><path d="M12.612 3.842l-.004-.043.04-.047.091.017-.003.043.003.003c-.006.01-.011.021-.042.028h-.085v-.001z" fill="#d30028"/></g><path d="M12.845 3.862l-.036.025-.003.036.072.006c.025-.003.028-.007.033-.018.01-.012.008-.012.01-.028l-.076-.021z" clip-path="url(#d)" fill="#cb0028"/><g clip-path="url(#d)"><path d="M12.878 3.934l-.072-.006-.003-.042.036-.03.084.021-.012.033.006.003c-.009.013-.014.016-.039.021z" fill="#d30028"/></g><path d="M13.16 3.77l-.039.039.003.029.077.003c.022-.006.019-.003.028-.019.008-.012.006-.015.008-.032l-.077-.02z" clip-path="url(#d)" fill="#cb0028"/><g clip-path="url(#d)"><path d="M13.201 3.846l-.077-.004-.008-.033.042-.042.08.017-.008.037.006.003c-.012.015-.012.015-.035.022z" fill="#d30028"/></g><path d="M13.381 3.839l-.044.036v.036l.08.008c.025-.007.028-.012.036-.024.007-.011.001-.012.004-.03l-.076-.026z" clip-path="url(#d)" fill="#cb0028"/><g clip-path="url(#d)"><path d="M13.419 3.923l-.082-.007-.003-.042.042-.037.084.023-.003.04c-.009.011-.015.019-.038.023z" fill="#d30028"/></g><path d="M12.842 2.886l.151.101c.029-.024.087-.01.113-.003.039.011.069.035.105.042a.718.718 0 0 0 .206.024c.061-.008.109-.039.156-.062v-.016h-.029a.382.382 0 0 1-.169.011c-.051-.006-.064-.029-.141-.053l-.008-.012c.095.003.116 0 .155-.015.036-.011.053-.033.076-.05v-.017h-.03c-.036.022-.059.028-.113.022-.051-.006-.097-.033-.131-.035-.036 0-.036-.017-.069-.019a.54.54 0 0 0-.166.017c-.065.019-.076.034-.106.065z" clip-path="url(#d)" fill="#cb0028"/><g clip-path="url(#d)"><path d="M13.381 3.054a.716.716 0 0 1-.173-.024.201.201 0 0 1-.054-.021.34.34 0 0 0-.051-.021c-.054-.015-.087-.014-.108 0l-.156-.098a.162.162 0 0 1 .105-.075.63.63 0 0 1 .169-.017c.019.003.026.006.036.01a.05.05 0 0 0 .033.01c.019 0 .036.007.058.015a.252.252 0 0 0 .073.018c.051.006.075.003.113-.021l.03.004-.003.004.003-.003v.005c-.003 0-.003.003-.004.003l-.011.029c-.015.012-.033.028-.061.035a.174.174 0 0 1-.091.017h-.025l.025-.01a.184.184 0 0 0 .089-.017.136.136 0 0 0 .055-.033l.019-.021a.279.279 0 0 1-.14.021.282.282 0 0 1-.076-.021.296.296 0 0 0-.055-.014.068.068 0 0 1-.037-.01.1.1 0 0 0-.032-.01.6.6 0 0 0-.166.015c-.054.015-.066.03-.09.054l.138.102c.01-.015.054-.018.111-.001.018.004.036.012.054.019a.161.161 0 0 0 .051.022.626.626 0 0 0 .206.021.335.335 0 0 0 .133-.047l-.006-.018a.36.36 0 0 1-.169.012.19.19 0 0 1-.066-.024.394.394 0 0 0-.077-.029l.019-.005c.03.011.048.021.064.026.021.01.036.019.062.024.046.004.108.01.166-.014h.032l-.018.036c-.042.021-.086.046-.137.05l-.038.002z" fill="#ba0019"/></g><path d="M12.872 2.864c.012.004.028.008.042.015.012.006.007.006.019.015-.001-.012 0-.012-.007-.021-.01-.01-.024-.018-.033-.025l-.021.016z" clip-path="url(#d)" fill="#82373b"/><g clip-path="url(#d)"><path d="M12.872 2.864c.012.004.028.008.042.015.012.006.007.006.019.015-.001-.012 0-.012-.007-.021-.01-.01-.024-.018-.033-.025l-.021.016z" fill="none"/></g><path d="M12.998 2.972c0-.012-.007-.024-.012-.035-.006-.012-.008-.022-.018-.032.012.003.018.007.028.019.01.012.01.024.012.042l-.01.006z" clip-path="url(#d)" fill="#82373b"/><g clip-path="url(#d)"><path d="M12.998 2.972c0-.012-.007-.024-.012-.035-.006-.012-.008-.022-.018-.032.012.003.018.007.028.019.01.012.01.024.012.042l-.01.006z" fill="none"/></g><path d="M13.026 2.812c.006.01.011.015.018.036a1.1 1.1 0 0 1 .006.04c-.003-.012 0-.026 0-.04-.003-.012-.008-.025-.01-.036h-.014z" clip-path="url(#d)" fill="#82373b"/><g clip-path="url(#d)"><path d="M13.026 2.812c.006.01.011.015.018.036a1.1 1.1 0 0 1 .006.04c-.003-.012 0-.026 0-.04-.003-.012-.008-.025-.01-.036h-.014z" fill="none"/></g><path clip-path="url(#d)" fill="#82373b" d="M13.149 2.821l.005.072.009-.068z"/><g clip-path="url(#d)"><path fill="none" d="M13.149 2.821l.005.072.009-.068z"/></g><path d="M13.121 2.97c.003-.011 0-.024 0-.035l-.01-.036c.012.01.015.024.022.037a.041.041 0 0 1-.012.034z" clip-path="url(#d)" fill="#82373b"/><g clip-path="url(#d)"><path d="M13.121 2.97c.003-.011 0-.024 0-.035l-.01-.036c.012.01.015.024.022.037a.041.041 0 0 1-.012.034z" fill="none"/></g><path d="M13.247 2.94s.003.024-.003.04c-.004.019-.007.019-.021.03.017-.011.029-.015.033-.026.004-.018-.006-.043-.009-.044z" clip-path="url(#d)" fill="#82373b"/><g clip-path="url(#d)"><path d="M13.247 2.94s.003.024-.003.04c-.004.019-.007.019-.021.03.017-.011.029-.015.033-.026.004-.018-.006-.043-.009-.044z" fill="none"/></g><path d="M13.271 2.915c-.011.003-.011-.033-.018-.053.004-.001.007 0 .012.01.006.003.003.028.006.043z" clip-path="url(#d)" fill="#82373b"/><g clip-path="url(#d)"><path d="M13.271 2.915c-.011.003-.011-.033-.018-.053.004-.001.007 0 .012.01.006.003.003.028.006.043z" fill="none"/></g><path clip-path="url(#d)" fill="#82373b" d="M13.355 2.902l.006-.03h.009v.022l-.015.008z"/><g clip-path="url(#d)"><path fill="none" d="M13.355 2.902l.006-.03h.009v.022z"/></g><path d="M13.349 2.981c.006.01.012.021.015.032.003.01-.003.015-.01.029l.015.001c.008-.011.011-.021.008-.03 0-.011-.006-.018-.017-.028l-.011-.004z" clip-path="url(#d)" fill="#82373b"/><g clip-path="url(#d)"><path d="M13.373 3.049l-.018-.001.006-.035-.015-.029a.02.02 0 0 1 .01.003h-.007l.022.026c0 .01-.003.015-.008.026l.008.004-.006-.003c.008-.01.011-.018.008-.028l-.011-.024c.017.006.022.012.022.024 0 .01 0 .019-.008.033l-.003.004z" fill="#83353b"/></g><path clip-path="url(#d)" fill="#82373b" d="M13.453 2.989l.004.043.011-.007-.002-.036z"/><g clip-path="url(#d)"><path fill="none" d="M13.453 2.989l.004.043.011-.007-.002-.036z"/></g><path d="M12.831 2.893c-.033.012-.046.03-.061.047l-.098-.051c-.015.015-.021.033-.015.053a.181.181 0 0 0 .062.061c-.006.029-.015.05-.024.072-.012.026-.033.058-.036.069 0 .011-.003.036.015.044.015.006.075-.006.095-.004a.097.097 0 0 0-.011.036c.003.007.008.01.024.01-.002.01-.012.021-.007.028a.055.055 0 0 0 .037.007l-.03.03a.35.35 0 0 0-.048.048c-.015.024-.018.046.012.044-.01.012-.021.024-.021.036.003.012.011.021.03.012-.012.029-.004.057 0 .087-.01.024-.007.043-.01.072-.021.012-.024.028-.039.054-.012.028-.039.036-.051.095l.087.022c.003-.012.015-.021.018-.033a.061.061 0 0 0 .003-.04c.018-.026.054-.077.064-.107.019-.01.033-.018.05-.018.012 0 .022.008.039.018-.008.024-.026.05-.026.083v.091c-.006.021-.03.021-.043.09l.079.022c.015-.024.036-.028.041-.036l.004-.095c.011-.044.075-.083.075-.129.024 0 .03.001.042-.003.012-.003.015-.008.025-.018.003.015.014.015.024.015s.032-.014.039-.018c.006.008.007.015.021.018.01.003.044-.003.057-.004l-.065.105c-.003.011.003.018-.006.028-.001.012-.012.017-.017.028l.075.017.01-.032c.018-.006.03-.01.039-.019.007-.008.007-.029.012-.04a.844.844 0 0 0 .093-.09.084.084 0 0 1 .054.042.215.215 0 0 1-.008.102l-.046.075-.006.014.075.025.048-.036v-.053c.026-.043.059-.066.093-.093 0-.001.006-.058.003-.058-.008-.006-.015-.003-.015-.015a.163.163 0 0 1 0-.054c.003-.006.012-.012.012-.018-.012-.012-.007-.051-.006-.08 0-.033.047-.072.051-.09l.006-.036c-.006-.007-.012-.014-.012-.021 0-.007.007-.018.012-.026l.011-.015v-.088c-.003-.008-.011-.022-.019-.025-.007 0-.019.008-.028.017l-.044.032c-.019.007-.037.01-.073 0h-.057c-.028.01-.044.011-.072-.001h-.034a.166.166 0 0 1-.036.017.073.073 0 0 1-.036 0c-.087.006-.064.012-.09.017-.018-.003-.012-.014-.09-.014l-.028-.009a.28.28 0 0 1-.093-.112c.076-.024.109-.046.136-.1l-.112.004-.16-.106z" clip-path="url(#d)" fill="#fbfc2b"/><g clip-path="url(#d)"><path d="M12.929 3.878l-.082-.021c.004-.051.017-.066.028-.079l.01-.108c0-.024.008-.043.015-.059l-.022-.033a.093.093 0 0 0-.047.014c-.01.025-.046.079-.061.104 0 .006.003.026-.003.042l-.023.032-.087-.021c.003-.046.018-.064.03-.079l.026-.042a.087.087 0 0 1 .028-.037c-.007.022-.012.03-.018.043-.015.028-.019.036-.028.043a.133.133 0 0 0-.033.069l.084.017.01-.029a.086.086 0 0 0 .003-.04c.018-.029.054-.08.065-.108.036-.021.059-.024.082-.008.014.019.008.028.006.039-.008.015-.018.033-.018.054v.091c-.021.035-.033.05-.042.09l.075.015c.007-.012.018-.019.026-.025l.015-.1c.004-.021.024-.043.036-.061.021-.022.037-.044.037-.068h.021l.008-.006.018.007-.039.001c0 .025-.018.048-.036.072-.015.018-.03.037-.033.057l-.008.093c-.022.017-.033.025-.04.037l-.003.004zm.537-.018l-.08-.026.051-.094c.008-.021.011-.057.008-.101a.089.089 0 0 0-.051-.037.637.637 0 0 1-.09.09l-.014.04a.064.064 0 0 1-.03.018l-.015.032-.079-.015.017-.029-.004.015.062.021.004-.026c.026-.012.033-.015.039-.022l.015-.042a.636.636 0 0 0 .09-.09c.029.003.054.018.065.044a.262.262 0 0 1-.008.107l-.048.075.069.033.043-.036v-.05a.272.272 0 0 1 .077-.086.29.29 0 0 0 .015-.065.096.096 0 0 1-.015-.069c0-.029.006-.065.008-.1 0-.022.019-.046.036-.065.007-.01.015-.021.017-.026l.003-.033c-.012-.028-.007-.039 0-.048l.011-.101h-.003l-.036-.004-.044.032a.113.113 0 0 1-.076.001h-.057c-.026.007-.047.01-.075-.003l-.03.001a.13.13 0 0 1-.036.017l-.036-.006v.006c-.059.004-.066.008-.072.011h-.03c-.011-.003-.021-.008-.077-.008l-.03-.011a.278.278 0 0 1-.095-.112c.082-.029.113-.053.136-.105l-.106.01-.163-.104a.148.148 0 0 0-.046.035l-.011-.004a.112.112 0 0 1 .055-.042l.162.107.111-.006c-.021.062-.054.087-.136.111a.377.377 0 0 0 .093.102l.03.007c.054 0 .066.006.077.011.03-.006.037-.008.1-.014l.036.001c.008-.001.021-.008.03-.012l.039-.003c.03.01.044.008.069 0h.059c.036.008.051.004.072 0l.043-.032c.003-.004.018-.018.029-.018.012.003.024.024.024.03l.001.087-.024.042.008.057a.144.144 0 0 1-.018.029c-.015.018-.033.04-.033.061-.003.021-.007.065.006.077-.015.033-.018.064-.015.075.017.014.019.015.015.068-.044.042-.072.065-.093.1l-.003.05-.046.042zm-.284-.126h-.001l.001-.03.068-.105c-.008.01-.032.012-.046.012l-.032-.017c-.028.022-.051.035-.064.001l.028.006c.003 0 .012-.001.036-.018l.024.018a.355.355 0 0 0 .057-.006l-.071.139zm-.438-.147c0-.033 0-.048.008-.066-.008-.036-.012-.059 0-.086-.021.01-.029.003-.032-.011 0-.01.006-.018.014-.029.003.014-.003.021-.003.029l.01-.006.018.021c-.01.025-.004.044 0 .069-.004.03-.004.046-.004.062a.077.077 0 0 0-.011.017zm-.016-.213c-.012-.01-.008-.021 0-.032a.279.279 0 0 1 .039-.04l.042-.04c-.017.007-.026.007-.036 0l.01-.028v.007l.029.019-.017.03c-.036.036-.051.048-.058.059-.009.01-.011.02-.009.025zm.054-.14l-.028-.014a.08.08 0 0 1 .007-.033c-.003 0-.015.003-.025.003-.017.003-.033.003-.047.003-.039-.01-.036-.039-.033-.051 0-.007.006-.018.015-.035l.018-.036a.28.28 0 0 0 .024-.069.132.132 0 0 1-.059-.058.053.053 0 0 1 .015-.059l.065.033-.065-.024a.046.046 0 0 0-.007.044.208.208 0 0 0 .058.061c-.001.033-.012.053-.019.075-.006.014-.014.026-.021.039a.101.101 0 0 0-.012.03c-.003.017-.006.033.007.039.029.001.046 0 .059-.003l.033-.001.015.056z" fill="#e8d629"/></g><path d="M12.792 3.032l.032.014c.001.006.012.008.018.01.006 0 .007-.004.012-.008l.029-.015c-.017-.003-.024-.014-.039-.014-.02 0-.031.009-.052.013z" clip-path="url(#d)" fill="#624e0f"/><g clip-path="url(#d)"><path d="M12.842 3.061l-.053-.026h.003v-.003h.006c.026-.015.033-.017.047-.017l.028.012-.028-.006-.042.012.039.021v-.002.004l.006-.01.03-.015.007.004-.043.026z" fill="#624e0f"/></g><path d="M12.852 3.406c0 .003-.004.004-.007.003a.249.249 0 0 0-.024-.093.315.315 0 0 1 .031.09z" clip-path="url(#d)" fill="#c2a21f"/><g clip-path="url(#d)"><path d="M12.852 3.406c0 .003-.004.004-.007.003a.249.249 0 0 0-.024-.093.315.315 0 0 1 .031.09z" fill="none"/></g><path d="M13.037 3.41c.007.001.015.001.018-.001.003-.008-.006-.019-.008-.026-.01-.022-.018-.046-.022-.055-.003-.004-.008-.001-.008.003.007.018.017.072.02.079z" clip-path="url(#d)" fill="#c2a21f"/><g clip-path="url(#d)"><path d="M13.037 3.41c.007.001.015.001.018-.001.003-.008-.006-.019-.008-.026-.01-.022-.018-.046-.022-.055-.003-.004-.008-.001-.008.003.007.018.017.072.02.079z" fill="none"/></g><path d="M13.139 3.398c0 .006-.015 0-.018-.007 0-.008-.021-.083-.015-.086.003-.001.015.025.021.037 0 .007.009.033.012.056z" clip-path="url(#d)" fill="#c2a21f"/><g clip-path="url(#d)"><path d="M13.139 3.398c0 .006-.015 0-.018-.007 0-.008-.021-.083-.015-.086.003-.001.015.025.021.037 0 .007.009.033.012.056z" fill="none"/></g><path d="M13.124 3.55c0 .004.012 0 .018-.004.012-.021.03-.043.036-.053.003-.01.018-.068.012-.068l-.03.059c-.018.033-.036.062-.036.066z" clip-path="url(#d)" fill="#c2a21f"/><g clip-path="url(#d)"><path d="M13.127 3.557l-.006-.003c-.003-.007-.003-.01.033-.072l.021-.037c.003-.003.003-.003.006-.003l-.018.046a.25.25 0 0 0-.033.062l-.003-.003v.006l.03-.04a.23.23 0 0 0 .025-.068c.014.006 0 .05-.001.05l-.054.062z" fill="#c2a21f"/></g><path d="M13.226 3.518c-.006.001.011-.051.011-.061l.012-.075c.008.046.001.1-.023.136z" clip-path="url(#d)" fill="#c2a21f"/><g clip-path="url(#d)"><path d="M13.226 3.526l-.006-.006c-.003-.003-.003-.007.006-.043l.018-.097c.018.05.01.102-.012.138l-.006.008z" fill="#c2a21f"/></g><path d="M13.289 3.356a.316.316 0 0 1-.044-.072c.003-.003.036.047.042.054a.036.036 0 0 1 .002.018z" clip-path="url(#d)" fill="#c2a21f"/><g clip-path="url(#d)"><path d="M13.289 3.356a.316.316 0 0 1-.044-.072c.003-.003.036.047.042.054a.036.036 0 0 1 .002.018z" fill="none"/></g><path d="M13.391 3.41c-.003-.004-.003-.025-.007-.051-.008-.026-.019-.051-.017-.058.003-.003.008 0 .017.003.001.014.007.069.014.102 0 .003-.001.004-.007.004z" clip-path="url(#d)" fill="#c2a21f"/><g clip-path="url(#d)"><path d="M13.391 3.41c-.003-.004-.003-.025-.007-.051-.008-.026-.019-.051-.017-.058.003-.003.008 0 .017.003.001.014.007.069.014.102 0 .003-.001.004-.007.004z" fill="none"/></g><path d="M13.463 3.344c-.003-.003.01.026.021.059.007.035.015.094.018.09.004-.003.004-.01.012-.011.011-.001.048 0 .047-.001-.024-.022-.047-.039-.059-.059-.018-.024-.029-.055-.039-.078z" clip-path="url(#d)" fill="#c2a21f"/><g clip-path="url(#d)"><path d="M13.499 3.5h-.006l-.003-.03c-.004-.018-.007-.046-.012-.064a1.097 1.097 0 0 1-.015-.047l.003.001c-.003-.004-.006-.007-.006-.011l.018.025c.008.014.015.029.025.043a.255.255 0 0 0 .05.048l-.054.035z" fill="#c2a21f"/></g><path d="M13.827 3.236a5.986 5.986 0 0 1 1.211.391l-.324.658c-.185-.071-.362-.125-.545-.183-.178-.057-.354-.109-.535-.165l.193-.701z" clip-path="url(#d)" fill="#fff"/><g clip-path="url(#d)"><path d="M14.714 4.291l-.003-.003a9.31 9.31 0 0 0-.462-.156l-.082-.026a21.299 21.299 0 0 0-.365-.112l-.169-.053.192-.707c.225.043.427.097.627.16.217.069.418.154.587.227l-.325.67zm-.887-1.05l-.189.696.167.046.367.113.08.026c.151.048.303.098.457.156l.326-.656c-.167-.066-.367-.148-.585-.219a6.019 6.019 0 0 0-.623-.162z" fill="#fff"/></g><path d="M13.787 3.391s.306.068.598.163c.293.095.581.216.581.216-.003 0-.185.378-.185.378a8.746 8.746 0 0 0-1.107-.357l.113-.4z" clip-path="url(#d)" fill="#cb0028"/><g clip-path="url(#d)"><path d="M14.783 4.153h-.006a8.39 8.39 0 0 0-1.104-.357l.108-.407c.015-.001.314.066.603.16.195.061.527.187.578.216-.026-.003-.293-.115-.58-.207-.291-.094-.593-.16-.599-.163l-.104.395c.192.039.38.097.555.155.192.061.372.127.542.194.163-.331.181-.369.187-.374a.017.017 0 0 1 .007.004c-.007.012-.136.278-.187.379v.005z" fill="#d30028"/></g><path d="M13.812 3.577c.029-.018.048-.024.068-.05h.105l.003.039c.028.011.04.026.069.039.025.014.064.024.09.036l.231.021c.03.006.075.018.102.033a.147.147 0 0 1 .059.062 1.02 1.02 0 0 0 .301.045c.025.008.025.021.012.035 0 0-.026.033-.098.033-.072.003-.151-.04-.187-.033.003.021.039.065.082.084v.101l-.019.019-.024-.015c.018-.024.012-.053.004-.077-.014-.024-.014-.03-.046-.033a.244.244 0 0 1-.105-.046l-.015.003c-.011.014-.021.028-.044.037l-.043-.001-.105-.025c0-.001-.003-.017 0-.018l.037-.001c.024.008.071.008.071.008v-.04l.069-.004c-.012-.048-.018-.08-.084-.091l-.203.007v.028a.557.557 0 0 0-.191.008c-.026.001-.068.015-.086.015l-.019-.006c-.014-.004-.014-.008-.008-.021.087-.004.102-.012.129-.025.001-.008-.008-.026-.012-.026-.058-.003-.101 0-.116-.003a.645.645 0 0 1-.057-.021s-.003-.021 0-.021l.036.008a.265.265 0 0 0 .118-.003v-.027c0-.014-.01-.028-.012-.028a.938.938 0 0 0-.082-.007c-.035-.007-.03-.025-.03-.039z" clip-path="url(#d)"/><g clip-path="url(#d)"><path d="M14.629 4.048l-.026-.017c.015-.029.01-.055.003-.079-.015-.026-.018-.029-.041-.03a.24.24 0 0 1-.097-.042c.048.018.069.026.097.03.029.001.033.011.046.029.014.037.019.066 0 .09l.019.012-.006-.004.021-.019v-.096c-.042-.015-.08-.061-.083-.084.032-.007.054 0 .08.008.036.008.075.021.112.021.071-.001.093-.033.093-.033-.054-.028-.115-.03-.165-.037a1.015 1.015 0 0 1-.145-.033.16.16 0 0 0-.059-.064.432.432 0 0 0-.1-.032l-.231-.021-.047-.019c-.018-.006-.033-.011-.046-.017-.015-.006-.024-.014-.036-.021l-.033-.019-.006-.042-.1.004c-.011.019-.026.026-.047.036-.015.028-.015.036.008.042a.296.296 0 0 1 .084.008c.003.003.015.015.015.03v.03c-.025.018-.09.015-.123.01l-.024-.01.006-.006c.084.019.119.008.133 0l-.001-.024c-.015-.025-.071-.03-.09-.03-.033-.007-.033-.024-.033-.04v-.002l.019-.015a.107.107 0 0 0 .047-.037l.111-.003.007.044c.011 0 .021.008.035.014.01.007.017.015.033.021.01.007.028.012.043.018l.046.019.23.019a.28.28 0 0 1 .105.036.155.155 0 0 1 .061.061c.044.014.09.024.138.03.05.008.111.011.158.014h.006l.019.017c-.01.024-.036.059-.111.059a.416.416 0 0 1-.115-.021.275.275 0 0 0-.065-.012c0 .012.035.057.077.075v.109l-.022.023zm-.227-.132l-.048-.003c-.108-.026-.108-.026-.108-.029.006-.024.007-.025.043-.025a.373.373 0 0 0 .071.008l-.006-.035.046-.007-.04.011.004.036a.183.183 0 0 1-.076-.003h-.035c.006.012.104.033.104.033l.046.003a.103.103 0 0 0 .036-.036c.006.003.011.003.014.004-.018.02-.027.032-.051.043zm.024-.096c-.018-.042-.026-.066-.082-.076l-.203.004.007.022c-.028.006-.055.003-.086.003a.404.404 0 0 0-.108.011c-.017.001-.032.007-.047.01a.115.115 0 0 1-.042.008l-.035-.017.018-.004.018.015V3.79a.152.152 0 0 0 .042-.008c.015-.001.03-.007.044-.007a.448.448 0 0 1 .111-.012c.03 0 .061.003.082.004l-.011-.022.212-.011c.066.011.075.042.087.084l-.007.002zm-.547-.048c.051-.015.064-.024.084-.032l-.053-.019-.033.001-.039-.001c-.011-.003-.059-.018-.059-.026l.008-.008c.012.011.036.019.051.024h.072l.044.003c.007.003.019.024.017.033a.189.189 0 0 1-.092.025z"/></g><path d="M14.258 3.815a.34.34 0 0 0 .101.018l.069-.004c-.012-.048-.018-.08-.084-.091l-.203.007v.028l.117.042z" clip-path="url(#d)" fill="#fff"/><g clip-path="url(#d)"><path d="M14.359 3.837a.358.358 0 0 1-.104-.017c-.036-.015-.066-.026-.115-.044l-.008-.032.212-.011c.066.011.075.042.087.084l-.005.003c-.018-.042-.026-.066-.082-.076l-.203.004.007.022c.047.015.075.029.095.036a.52.52 0 0 0 .116.024l.051-.006-.051.013z"/></g><path d="M10.205 4.165l-.371-1.373.564-.682.786.451.137 1.457c-.402.03-.665.069-1.116.147z" clip-path="url(#d)" fill="#1e2788"/><g clip-path="url(#d)"><path d="M10.2 4.172v-.004l-.371-1.374.566-.689.795.45.136 1.461c-.412.036-.679.077-1.121.155l-.005.001zm.197-2.058l-.557.68.367 1.365c.441-.076.707-.118 1.115-.148l-.138-1.45-.787-.447z" fill="#160080"/></g><path clip-path="url(#d)" fill="#fbfc2b" d="M8.885 3.021l.133.104-.023.184.173-.072.138.105.018-.169.144-.055-.118-.113.025-.169-.171.061-.125-.103-.028.16z"/><g clip-path="url(#d)"><path d="M9.311 3.353l-.146-.109-.17.072.018-.192-.133-.096.169-.08c.024-.154.024-.156.026-.156.007-.001.131.1.133.1.005-.003.164-.062.164-.062l-.018.175.118.108-.145.066-.016.174zm-.146-.123l.135.101.018-.159.147-.062-.12-.1.025-.174c-.162.069-.164.069-.166.069-.012-.008-.119-.101-.126-.105.004.004-.021.155-.021.155l-.17.073.137.093L9 3.31l.165-.08z" fill="#f4c627"/></g><path clip-path="url(#d)" fill="#f4c427" d="M8.887 3.023l.578.092-.144.058-.138-.096.123.26-.138-.101.012-.159-.183.231.027-.184z"/><path clip-path="url(#d)" fill="#f4c627" d="M9.049 2.956l.134.115-.104-.277z"/><path d="M9.201 2.904c.003.001-.021.167-.018.167.012-.019.192-.231.189-.231 0 0-.166.065-.171.064z" clip-path="url(#d)" fill="#f4c627"/><path clip-path="url(#d)" fill="#fbfc2b" d="M14.397 2.788l.036.166-.141.123.179.056.036.168.126-.118.147.047-.015-.162.131-.112-.173-.062-.027-.156-.126.102z"/><g clip-path="url(#d)"><path d="M14.505 3.31l-.037-.177-.178-.051.14-.131-.036-.162.18.047c.12-.104.12-.104.123-.104.006.006.036.16.03.166.011.001.17.055.17.055l-.129.12.018.156-.154-.043-.127.124zm-.108-.517l.042.16-.144.129.18.046.035.162.122-.111.151.047-.027-.156.134-.116c-.17-.054-.17-.054-.172-.057a3.04 3.04 0 0 0-.025-.158c0 .008-.12.107-.12.107l-.176-.053z" fill="#f4c627"/></g><path clip-path="url(#d)" fill="#f4c627" d="M14.399 2.792l.381.437-.148-.047-.042-.163-.077.278-.039-.164.116-.116-.296.06.144-.122zm.171.048l.027.173.101-.278z"/><path d="M14.72 2.894c0 .003-.123.116-.123.116.021-.006.299-.054.296-.054 0 0-.17-.058-.173-.062z" clip-path="url(#d)" fill="#f4c627"/><path d="M9.837 2.797c.201-.095.426-.17.663-.203a4.93 4.93 0 0 1 .69-.033l.029.36c-.183.003-.32 0-.645.04a2.464 2.464 0 0 0-.65.159l-.087-.323z" clip-path="url(#d)" fill="#cb0028"/><g clip-path="url(#d)"><path d="M9.922 3.125l-.09-.325c.224-.111.447-.18.668-.212.203-.028.403-.033.645-.033h.046a7.9 7.9 0 0 1 .036.365l-.055.007c-.16 0-.299 0-.596.039a2.51 2.51 0 0 0-.65.158l-.004.001zm1.263-.564l-.04.006c-.242 0-.441.004-.645.033-.221.03-.441.097-.66.203l.087.31c.192-.075.326-.113.647-.156.295-.039.436-.039.596-.039h.048a11.559 11.559 0 0 1-.033-.357z" fill="#d30028"/></g><path d="M10.009 3.432c-.003 0 .104.379.104.379a5.866 5.866 0 0 1 1.175-.168l-.033-.371a3.863 3.863 0 0 0-.635.015 3.404 3.404 0 0 0-.611.145z" clip-path="url(#d)" fill="#cb0028"/><g clip-path="url(#d)"><path d="M10.107 3.815l-.003-.001c-.102-.38-.102-.383-.1-.386.213-.072.414-.119.616-.147.185-.022.423-.026.635-.015l.037.376c-.187.017-.397.032-.598.061a5.557 5.557 0 0 0-.582.112h-.005zm.898-.546c-.138 0-.268.008-.382.024a3.21 3.21 0 0 0-.611.144l.102.369c.183-.046.379-.084.581-.112.198-.029.411-.044.593-.055l-.038-.367c-.075 0-.16-.003-.245-.003z" fill="#d30028"/></g><path d="M9.087 4.604h5.593V8.19c-.141 1.394-1.482 2.439-2.711 2.431-1.323.058-2.786-1.026-2.89-2.444l.008-3.573z" clip-path="url(#d)" fill="#fff"/><g clip-path="url(#d)"><path d="M11.871 10.644c-1.245 0-2.706-1.014-2.814-2.468l.012-3.572 5.611-.019.021 3.605c-.147 1.444-1.552 2.451-2.717 2.451-.047 0-.083.003-.113.003zm2.791-6.04l-5.575.019.011 3.552c.108 1.469 1.617 2.479 2.87 2.424 1.165 0 2.547-.991 2.693-2.413V4.604h.001z" fill="#cb0028"/></g><path d="M9.206 4.728h5.358v3.436c-.136 1.338-1.422 2.338-2.598 2.33-1.269.057-2.671-.982-2.774-2.341l.014-3.425z" clip-path="url(#d)" fill="#cb0028"/><g clip-path="url(#d)"><path d="M11.871 10.516c-1.194 0-2.592-.968-2.696-2.363l.01-3.425 5.38-.019.018 3.456c-.138 1.385-1.484 2.349-2.603 2.349l-.109.002zm2.672-5.788l-5.337.02.007 3.406c.105 1.407 1.556 2.372 2.753 2.321 1.116 0 2.442-.948 2.577-2.313V4.728z" fill="#cb0028"/></g><path clip-path="url(#d)" fill="#fff" d="M10.284 4.745h1.065v1.147h-1.065zm3.205 3.445v1.132l.6.003c.291-.436.415-.86.444-1.134l-1.044-.001z"/><g clip-path="url(#d)"><path d="M14.092 9.329l-.603-.003-.005-1.136.501-.006h.549c-.008.136-.079.6-.439 1.143l-.003.002zm-.603-1.135l.004 1.127.593-.003c.36-.54.429-1.002.441-1.129l-.544.004h-.494v.001z" fill="#fff"/></g><path d="M12.423 9.332v1.087c.462-.091.84-.322 1.056-.479l-.003-.609h-1.053z" clip-path="url(#d)" fill="#fff"/><g clip-path="url(#d)"><path d="M12.419 10.428V9.332l1.057-.006.008.614a2.804 2.804 0 0 1-1.058.486l-.007.002zm1.051-1.096l-1.047.007.003 1.076c.447-.09.816-.311 1.05-.477l-.006-.606z" fill="#fff"/></g><path d="M10.291 9.332l.003.609c.362.256.779.412 1.054.469l-.003-1.076-1.054-.002z" clip-path="url(#d)" fill="#fff"/><g clip-path="url(#d)"><path d="M11.352 10.417l-.004-.001a3.035 3.035 0 0 1-1.057-.47l-.004-.613 1.058-.003.007 1.087zm-.013-1.083l-1.049.006.008.602c.365.256.777.407 1.043.463l-.002-1.071z" fill="#fff"/></g><path d="M9.226 8.19c.033.444.234.838.432 1.119l.621.012V8.19H9.226z" clip-path="url(#d)" fill="#fff"/><g clip-path="url(#d)"><path d="M10.284 9.327h-.006l-.621-.014c-.149-.205-.401-.621-.437-1.123l1.058-.006.006 1.143zm-.01-1.137l-1.048.004c.041.496.29.909.437 1.111l.611.011V8.19z" fill="#fff"/></g><path clip-path="url(#d)" fill="#fff" d="M9.219 5.892h1.065v1.145H9.219zm2.13 0h1.067v1.145h-1.067zm1.067-1.151h1.065v1.145h-1.065zm1.068 1.151h1.065v1.145h-1.065zm-3.2 1.145h1.065v1.145h-1.065zm2.132 0h1.065v1.145h-1.065zm-1.067 1.146h1.067V9.33h-1.067z"/><path d="M12.939 3.392c-.006.006-.012-.05-.015-.058l-.021-.075c.026.042.041.09.036.133z" clip-path="url(#d)" fill="#c2a21f"/><g clip-path="url(#d)"><path d="M12.939 3.398c-.007 0-.01-.006-.015-.044l-.026-.091a.16.16 0 0 1 .047.131l-.006.004z" fill="#c2a21f"/></g></g></svg>