<svg xmlns="http://www.w3.org/2000/svg" xmlns:xlink="http://www.w3.org/1999/xlink" width="23.772" height="13.867" viewBox="0 0 23.772 13.867"><defs><path id="a" d="M0 0h23.772v13.867H0z"/></defs><clipPath id="b"><use xlink:href="#a" overflow="visible"/></clipPath><path clip-path="url(#b)" fill="#fff" d="M0 0h23.772v13.867H0z"/><g clip-path="url(#b)"><defs><path id="c" d="M0 0h23.772v13.867H0z"/></defs><clipPath id="d"><use xlink:href="#c" overflow="visible"/></clipPath><path d="M10.165 4.212c0 .181.024.205.033.239.014.035.026.664-.066.833a.628.628 0 0 1-.354.285c-.075.018-.309-.146-.523-.215-.219-.069-.206-.057-.299-.057a.784.784 0 0 0-.351.126c-.039-.007-.05-.022-.072 0-.021.021-.114.113-.136.171-.023.056-.08.274-.149.296-.067.023-.255.209-.375.216-.123.009-.09-.005-.173-.011-.082-.004-.091-.091-.172-.135-.08-.047-.1-.082-.1-.082s-.024-.09-.059-.09c-.033 0-.066.159-.066.205 0 .046.09.216.136.252.046.035.046.239.024.296-.025.056.045.116.056.171.01.055-.071.102-.035.113.035.01.08.08.08.149 0 .068.169.091.205.159.035.069.047.181.059.252.009.069.049.035.054.206.057.026.136.08.206.113.069.035.057.115.148.148.09.036.09 0 .137.014.046.01-.021.022.059.044.079.022.112-.011.178.022.071.035.107.113.149.138.046.021.242.08.252.09.012.012.136.058.159.058s.093-.046.093-.046.079.021.148 0c.069-.022.116-.091.16-.091.046 0 .055.022.102.022.046 0 .113-.022.113-.022s.102-.024.184.022c.08.047.261.263.261.354 0 .091-.012.137-.012.137s.093-.01.126.01c.036.024.03-.018.285.024-.015-.062-.261-.239-.033-.49.228-.25.243-.148.296-.195.053-.044.264-.178.616-.055.344-.055.093-.105.285-.115.036-.014.1.003.172.024a.133.133 0 0 1 .149-.069c.015-.04.108-.094.206-.104.012-.076.259-.173.397-.181.059-.053.123-.281.437-.172.01-.073.061-.194.145-.217.019-.154-.04-.465.116-.57.152-.141.3-.108.557-.102.18.036.261.169.321.183.057.01.076.01.145-.036.071-.044-.01-.137.047-.137.059 0 .033.014.126 0 .093-.01.079-.042.136-.055.093.046.195.011.242.046.044.033.051.03.147.043.036.059.127.059.127.059s-.069-.024-.046-.059c.024-.033 0-.136-.046-.18-.047-.046-.069-.058-.104-.105-.035-.044.011-.044-.046-.101-.057-.058-.183-.115-.216-.183-.033-.068-.024-.113-.082-.17-.057-.059-.286-.252-.296-.456-.012-.206.01-.404.149-.468-.006-.122.021-.138.147-.208.129-.068.138-.022.217-.022.08 0 .126.012.206-.046.079-.057.01-.183.216-.364.207-.183.288-.275.357-.285.066-.014.315-.187.418-.173.075-.087.149-.192.242-.261s.192-.069.238-.126c.047-.057.036-.159.173-.249.136-.093.252-.152.308-.195.055-.047.181-.012.228-.057.046-.048.046-.219.093-.253.043-.035-.149.08-.255.126-.1.046-.249.127-.375.115-.126-.012-.057.069-.126.091-.069.021-.183.011-.228.057-.047.047-.126.159-.192.206-.071.044-.107.033-.173.068-.069.035-.126.068-.183.091-.057.024-.228.012-.228.012s-.149.192-.219.263c-.061.067-.141.055-.21.089-.069.035-.649.409-1.047.468-.4.055-.219-.035-.344 0-.125.035-.307.274-.457.284-.149.014-.195 0-.225 0-.036 0-.219.116-.333.093a.85.85 0 0 1-.343.035c-.048-.006-.136.058-.261 0-.097-.032-.097.037-.285-.022-.19-.059-.318.022-.411-.022-.091-.047-.079-.083-.149-.083-.066 0-.066.047-.148.047-.08 0-.093-.047-.159-.047s-.147.047-.252.036c-.102-.012-.136-.058-.205-.058-.069-.002-.447-.161-.447-.161z" clip-path="url(#d)" fill="#dd7d21"/><path d="M11.331 11.183c.201-.144.375-.191.645-.238.27-.047.555-.127.704-.166.151-.04-.506.191-.674.237-.164.048-.675.167-.675.167zm1.086-.422c-.054-.339.08-.696.387-.838.072.246-.148.664-.387.838zm.524-.175c-.165-.284.112-.647.318-.825.096.17-.071.678-.318.825zm.483-.219c-.174-.242.033-.665.255-.833.086.24 0 .668-.255.833zm.484-.304c-.16-.228-.048-.582.183-.813.165.19.024.602-.183.813zm.389-.305c-.134-.216.03-.732.246-.874.093.191.024.73-.246.874zm.309-.081c-.039-.309.501-.65.721-.641-.024.252-.255.529-.721.641zm-.302.348c.255-.26.746-.26.92-.206-.046.152-.627.483-.92.206z" clip-path="url(#d)" fill="#2c6752"/><path d="M13.955 10.287c.357-.095.588-.173.801.048-.15.191-.729.134-.801-.048zm-.509.231c.342-.183.755.087.818.243-.38.159-.825-.203-.818-.243zm-.467.261c.311-.119.668.039.809.213-.166.081-.6.168-.809-.213zm-.426.134c.357-.04.699.231.773.385-.454.044-.629-.093-.773-.385zm-.115.27c-.198-.144-.372-.191-.642-.238-.27-.047-.555-.127-.707-.166-.148-.04.509.191.676.237.167.048.673.167.673.167zm-1.086-.422c.057-.339-.077-.696-.387-.838-.07.246.15.664.387.838zm-.522-.175c.167-.284-.112-.647-.318-.825-.095.17.072.678.318.825zm-.485-.219c.177-.242-.03-.665-.252-.833-.087.24 0 .668.252.833zm-.483-.304c.159-.229.048-.583-.181-.814-.165.191-.024.603.181.814zm-.387-.305c.137-.216-.03-.732-.246-.874-.096.191-.024.73.246.874zm-.312-.081c.042-.309-.498-.65-.718-.641.024.252.251.529.718.641zm.305.348c-.255-.26-.746-.26-.92-.206.048.152.627.483.92.206z" clip-path="url(#d)" fill="#2c6752"/><path d="M9.816 10.287c-.357-.095-.588-.173-.801.048.148.191.729.134.801-.048zm.507.231c-.34-.183-.753.087-.815.243.38.159.822-.203.815-.243zm.466.261c-.31-.119-.665.039-.806.213.167.081.601.168.806-.213zm.432.134c-.36-.04-.701.231-.775.385.456.044.631-.093.775-.385z" clip-path="url(#d)" fill="#2c6752"/></g></svg>