<svg xmlns="http://www.w3.org/2000/svg" width="23.772" height="13.87" viewBox="0 0 23.772 13.87"><path fill="#006bb5" d="M0 0h23.772v13.87H0z"/><path d="M11.862 1.973l.192.593h.621l-.503.365.192.591-.502-.364-.505.364.193-.591-.503-.365h.622zm0 8.375l.192.592h.621l-.503.365.192.592-.502-.366-.505.366.193-.592-.503-.365h.622zm-2.009-.491l.192.592h.624l-.506.366.194.591-.504-.365-.503.365.194-.591-.505-.366h.623zM8.335 8.389l.193.59h.622l-.504.368.192.591-.503-.366-.504.366.194-.591-.502-.368h.622zm-.538-2.156l.192.593h.623l-.503.365.191.592-.503-.365-.503.365.192-.592-.504-.365h.622zm.49-2.154l.193.592h.622l-.504.366.192.592-.503-.365-.504.365.192-.592-.501-.366h.619zM9.756 2.61l.192.592h.623l-.505.365.191.593-.501-.365-.504.365.192-.593-.503-.365h.623zm4.113 0l.191.592h.624l-.505.365.193.593-.503-.365-.504.365.194-.593-.505-.365h.623zm1.568 1.469l.192.592h.621l-.503.366.192.592-.502-.365-.505.365.193-.592-.505-.366h.624zm.538 2.057l.192.592h.623l-.505.365.193.592-.503-.367-.504.367.192-.592-.503-.365h.621zm-.538 2.107l.192.591h.621l-.503.364.192.593-.502-.365-.505.365.193-.593-.505-.364h.624zm-1.52 1.516l.193.592h.622l-.502.367.192.591-.505-.366-.502.366.192-.591-.504-.367h.622z" fill="#ffcb25"/></svg>