<svg xmlns="http://www.w3.org/2000/svg" xmlns:xlink="http://www.w3.org/1999/xlink" width="23.772" height="13.867" viewBox="0 0 23.772 13.867"><defs><path id="a" d="M0 0h23.772v13.867H0z"/></defs><use xlink:href="#a" overflow="visible" fill="#fff"/><clipPath id="b"><use xlink:href="#a" overflow="visible"/></clipPath><g clip-path="url(#b)"><defs><path id="c" d="M0 0h23.772v13.867H0z"/></defs><clipPath id="d"><use xlink:href="#c" overflow="visible"/></clipPath><path d="M5.639 3.128a7.519 7.519 0 0 1-.076.754c-.014.08-.03.159-.042.238a3.85 3.85 0 0 1 .945 0c-.015-.079-.028-.158-.042-.238a6.973 6.973 0 0 1-.073-.754c.336.015.667.057.988.118a4.124 4.124 0 0 1 0-.947 6.963 6.963 0 0 1-.988.118c.012-.336.053-.668.115-.992a3.872 3.872 0 0 1-.945 0c.059.324.1.656.118.992a7.048 7.048 0 0 1-.994-.118 3.716 3.716 0 0 1 0 .947c.324-.061.655-.103.994-.118m11.786 0a7.237 7.237 0 0 1-.077.754c-.01.08-.025.159-.04.238a3.871 3.871 0 0 1 .945 0c-.015-.079-.026-.158-.039-.238a6.272 6.272 0 0 1-.077-.754c.336.015.668.057.992.118a3.53 3.53 0 0 1 0-.947 7.224 7.224 0 0 1-.992.118c.018-.336.057-.668.116-.992a3.9 3.9 0 0 1-.945 0c.061.324.102.656.118.992a7.072 7.072 0 0 1-.992-.118 3.909 3.909 0 0 1 0 .947 7.04 7.04 0 0 1 .991-.118m-11.074 7.61c.01-.256.036-.508.073-.754.014-.079.026-.159.042-.238a3.871 3.871 0 0 1-.945 0c.012.079.028.159.042.238.039.246.064.498.076.754a7.519 7.519 0 0 1-.994-.118 3.68 3.68 0 0 1 0 .945c.324-.061.654-.101.993-.116a7.67 7.67 0 0 1-.118.99 3.851 3.851 0 0 1 .945 0 6.624 6.624 0 0 1-.115-.99c.336.015.667.055.988.116a4.083 4.083 0 0 1 0-.945c-.32.06-.651.101-.987.118m11.785 0c.012-.256.039-.508.077-.754.012-.079.024-.159.039-.238a3.871 3.871 0 0 1-.945 0 6.874 6.874 0 0 1 .117.992 7.549 7.549 0 0 1-.992-.118 3.863 3.863 0 0 1 0 .945 7.07 7.07 0 0 1 .992-.116 7.026 7.026 0 0 1-.118.99 3.872 3.872 0 0 1 .945 0 7.871 7.871 0 0 1-.116-.99c.336.015.668.055.992.116a3.508 3.508 0 0 1 0-.945c-.323.06-.655.101-.991.118M10.49 0h2.793v13.867H10.49z" clip-path="url(#d)" fill="#d50037"/><path clip-path="url(#d)" fill="#d50037" d="M0 5.533h23.772V8.33H0z"/></g></svg>