<svg xmlns="http://www.w3.org/2000/svg" xmlns:xlink="http://www.w3.org/1999/xlink" width="23.773" height="13.867" viewBox="0 0 23.773 13.867"><defs><path id="a" d="M0 0h23.773v13.867H0z"/></defs><clipPath id="b"><use xlink:href="#a" overflow="visible"/></clipPath><path clip-path="url(#b)" d="M0 0h23.773v4.621H0z"/><path clip-path="url(#b)" fill="#e1001f" d="M0 4.62h23.773v4.623H0z"/><path clip-path="url(#b)" fill="#f6d928" d="M0 9.244h23.773v4.623H0z"/><g clip-path="url(#b)"><defs><path id="c" d="M0 0h23.773v13.867H0z"/></defs><clipPath id="d"><use xlink:href="#c" overflow="visible"/></clipPath><path d="M8.596 3.281v5.55c0 2.079 2.791 1.829 3.29 2.659.499-.83 3.292-.58 3.292-2.659v-5.55H8.596z" clip-path="url(#d)" fill="#f6d728"/><g clip-path="url(#d)"><path d="M11.886 11.532l-.017-.03c-.177-.293-.646-.448-1.189-.629-.936-.31-2.105-.699-2.105-2.041v-5.57h6.623v5.569c0 1.342-1.167 1.731-2.105 2.041-.543.181-1.012.336-1.188.629l-.019.031zm-3.27-8.23v5.529c0 1.311 1.105 1.679 2.078 2.002.533.178.996.331 1.192.62.196-.289.659-.441 1.194-.62.972-.322 2.077-.69 2.077-2.002V3.302H8.616z"/></g><path d="M11.67 4.081c.033.163-.033.562-.116.697-.083.131-.299.38-.315.629-.084 1.249.382 3.059.647 4.355.266-1.296.731-3.106.648-4.355-.082-1.245-.249-1.578-.249-1.578l-.615.252z" clip-path="url(#d)"/><path d="M11.736 4.264a2.307 2.307 0 0 1-.781-.183c.089.109.29.198.599.264l.182-.081z" clip-path="url(#d)" fill="#ca001c"/><g clip-path="url(#d)"><path d="M11.557 4.335c-.316-.047-.519-.137-.609-.249.221.082.483.144.79.165l-.001.022a2.216 2.216 0 0 1-.784-.185c.097.093.297.182.604.247z"/></g><path d="M11.638 3.58c-.499-.249-.799.035-.466.483.034-.083.349-.201.499.201-.077.043-.261.048-.548.015.149.115.598.133.68.083.084-.05-.149-.465-.149-.465l-.016-.317z" clip-path="url(#d)" fill="#ca001c"/><g clip-path="url(#d)"><path d="M11.613 4.398c-.17 0-.398-.033-.498-.112.293.015.475.011.55-.033-.094-.223-.236-.26-.313-.261h-.001c-.09 0-.156.043-.169.076-.169-.201-.201-.39-.109-.501.102-.122.32-.12.569.006l-.01.017c-.236-.118-.45-.123-.543-.01-.087.102-.053.282.091.475-.001-.04.084-.084.174-.084.082.001.234.039.327.288-.085.058-.267.064-.56.03.151.094.596.113.676.064.055-.033-.066-.292-.153-.451.057.061.252.418.165.47a.524.524 0 0 1-.196.026z"/></g><path d="M12.253 3.929a.659.659 0 0 0 .315-.163c-.183 0-.516-.102-.649-.167-.132-.068-.365-.216-.365.065 0 .284.3.499.248.73l.451-.465z" clip-path="url(#d)"/><path d="M11.838 3.746s-.167-.083-.2-.115c-.033-.033-.084.183.066.249.021-.056.066-.099.134-.134z" clip-path="url(#d)" fill="#f0f7ff"/><path d="M11.721 3.647c-.079.023-.095.083-.051.182.012-.076.066-.126.167-.149l-.116-.033zm.896 2.26v1.962l2.227 1.827V4.827c0-.376-.077-.631-.232-.764v1.014l-1.995.83z" clip-path="url(#d)"/><g clip-path="url(#d)"><path fill="#f6d728" d="M13.065 9.48h-.063V5.326h.063V9.48z"/></g><g clip-path="url(#d)"><path fill="#f6d728" d="M13.531 9.48h-.063V5.326h.063V9.48z"/></g><g clip-path="url(#d)"><path fill="#f6d728" d="M13.996 9.48h-.063V5.326h.063V9.48z"/></g><g clip-path="url(#d)"><path fill="#f6d728" d="M14.46 9.48h-.062V5.326h.062V9.48z"/></g><path d="M12.185 6.274c1.496 0 2.128-.483 2.444-.848V4.081c.164-.047.254-.169.266-.368-.466.383-1.197-.515-1.63.416.234.465.699.416.865.149.333.282.066 1.346-1.945 1.329v.667z" clip-path="url(#d)"/><path d="M12.733 9.529c-.116.151-.016.285.084.335a.287.287 0 0 1 .05-.283l-.134-.052z" clip-path="url(#d)" fill="#ca001c"/><g clip-path="url(#d)"><path d="M12.827 9.861a.203.203 0 0 1-.151-.152c-.015-.059.003-.125.049-.184l.016.012a.204.204 0 0 0-.046.169.233.233 0 0 0 .127.147c-.049-.09-.031-.187.037-.279a.36.36 0 0 0-.032.287z"/></g><path d="M13.316 10.096c.01.066-.023.149-.1.25.2-.051.283-.119.216-.234l-.116-.016z" clip-path="url(#d)" fill="#ca001c"/><g clip-path="url(#d)"><path d="M13.219 10.355c.064-.112.097-.194.086-.257l.021-.003c.011.069-.023.156-.102.256.122-.05.194-.087.213-.136.013-.028.008-.059-.015-.097.044.033.048.072.035.105-.024.056-.1.097-.238.132z"/></g><path d="M13.98 9.845a.434.434 0 0 1 .018.267c.149-.134.199-.315.082-.35l-.1.083z" clip-path="url(#d)" fill="#ca001c"/><g clip-path="url(#d)"><path d="M14.005 10.119a.61.61 0 0 0-.035-.27l.021-.007c.034.079.039.17.017.273.081-.098.141-.213.125-.285a.07.07 0 0 0-.054-.057c.044-.011.066.015.075.051.017.081-.045.201-.149.295z"/></g><path d="M13.964 9.248c.055.012.11.065.166.166.017-.183-.017-.282-.183-.315l.017.149z" clip-path="url(#d)" fill="#ca001c"/><g clip-path="url(#d)"><path d="M14.139 9.415c-.072-.091-.126-.147-.178-.158l.004-.019c.059.011.118.069.174.17-.001-.191-.048-.271-.195-.3.186.015.212.132.195.307z"/></g><path d="M12.501 8.7l.782.714s-.299.066-.416.066c-.118 0-.217.033-.183.068.033.033.098.033.133.082.033.05.083.118.149.05.067-.065.299-.131.299-.131s0 .382-.017.43c-.016.051-.066.149-.032.149.032 0 .032-.015.167 0 .131.018.116.051.082-.149-.033-.198-.017-.414-.017-.414s.299.198.399.332c.1.133.084.033.132-.018.051-.048.116-.065.167-.082.049-.017-.133-.068-.183-.101-.051-.033-.432-.249-.432-.249s.215-.066.349-.084c.133-.015.133-.015.117-.082-.018-.066 0-.134 0-.166s-.018-.066-.101 0c-.082.066-.465.232-.465.232l-.649-.863-.281.216z" clip-path="url(#d)" fill="#ca001c"/><g clip-path="url(#d)"><path d="M13.47 10.151a.212.212 0 0 1-.038-.004l-.051-.007c-.095-.012-.121-.007-.14-.006l-.043-.004c-.011-.017.003-.054.026-.112l.015-.042c.014-.039.017-.321.017-.429-.01.017-.22.079-.282.141-.021.019-.043.032-.069.028-.039-.003-.068-.042-.096-.08-.016-.026-.045-.039-.072-.05a.152.152 0 0 1-.059-.032l-.005-.006-.003-.025c.015-.036.113-.054.199-.054.113 0 .409-.066.413-.066l-.786-.697.014-.015.781.714c-.017.021-.307.086-.422.086-.1 0-.172.025-.179.04a.102.102 0 0 0 .055.036c.028.012.061.025.082.057.024.036.051.069.081.072.018.003.035-.006.052-.024.068-.069.294-.133.304-.136a2.4 2.4 0 0 1-.004.447l-.017.042c-.011.028-.033.084-.026.093.041-.006.071-.011.167 0l.053.01c.018.003.037.007.041.003.005-.006 0-.036-.007-.075l-.015-.075a2.047 2.047 0 0 1-.017-.418c.028 0 .317.195.418.325.037.053.046.059.063.064.006 0 .014-.014.02-.03.009-.015.018-.035.033-.05a.365.365 0 0 1 .152-.079c.015-.01-.037-.032-.071-.046-.037-.015-.075-.029-.094-.042-.051-.033-.432-.249-.432-.249.004-.019.221-.086.353-.102.068-.008.104-.014.113-.025.005-.006 0-.022-.006-.047a.376.376 0 0 1-.003-.133l.003-.035c-.016-.03-.033-.032-.082.008-.084.068-.452.226-.469.234l-.662-.866.665.851c-.001-.008.37-.169.451-.234.043-.035.075-.047.096-.037.009.006.02.015.02.046l-.002.037a.341.341 0 0 0 .002.127c.007.029.012.047.003.062-.012.018-.044.021-.128.03a2.837 2.837 0 0 0-.343.084c.039.003.384.199.431.232.018.01.056.026.091.04.079.032.105.043.105.059l-.036.027a.315.315 0 0 0-.142.072.173.173 0 0 0-.027.047c-.012.019-.021.039-.038.04-.021.001-.044-.019-.084-.071-.092-.125-.362-.306-.393-.328.01.022-.001.223.03.403l.012.075c.012.058.015.082.003.093-.005.005-.013.006-.021.006z"/></g><path d="M11.886 10.86l.35-.416c.399.245.692.177.88-.198-.598.101-.88-.444-.847-1.628l.449.696v-.647l.548.066-1.446-1.545.066 3.672zm-.731-4.953v1.962L8.928 9.696V4.827c0-.376.078-.631.232-.764v1.014l1.995.83z" clip-path="url(#d)"/><g clip-path="url(#d)"><path fill="#f6d728" d="M10.771 9.48h-.062V5.326h.062V9.48z"/></g><g clip-path="url(#d)"><path fill="#f6d728" d="M10.305 9.48h-.062V5.326h.062V9.48z"/></g><g clip-path="url(#d)"><path fill="#f6d728" d="M9.84 9.48h-.062V5.326h.062V9.48z"/></g><g clip-path="url(#d)"><path fill="#f6d728" d="M9.375 9.48h-.064V5.326h.064V9.48z"/></g><path d="M11.588 6.274c-1.497 0-2.128-.483-2.444-.848V4.081c-.167-.047-.254-.169-.265-.368.465.383 1.196-.515 1.628.416-.232.465-.698.416-.864.149-.331.282-.066 1.346 1.945 1.329v.667z" clip-path="url(#d)"/><path d="M11.039 9.529c.116.151.018.285-.084.335a.29.29 0 0 0-.048-.282l.132-.053z" clip-path="url(#d)" fill="#ca001c"/><g clip-path="url(#d)"><path d="M10.96 9.872a.343.343 0 0 0-.063-.285.251.251 0 0 1 .068.279c.035-.036.095-.09.111-.16.012-.057-.003-.113-.047-.169l.017-.012a.22.22 0 0 1 .051.184.253.253 0 0 1-.137.163z"/></g><path d="M10.456 10.096c-.01.066.023.149.1.25-.199-.051-.281-.119-.216-.234l.116-.016z" clip-path="url(#d)" fill="#ca001c"/><g clip-path="url(#d)"><path d="M10.566 10.338c-.152-.018-.228-.059-.25-.115-.015-.033-.01-.072.015-.116-.003.048-.009.08.003.108.022.048.094.086.225.119-.089-.083-.123-.17-.113-.239l.022.003c-.012.063.021.145.098.24z"/></g><path d="M9.792 9.845a.434.434 0 0 0-.016.267c-.15-.134-.2-.315-.084-.35l.1.083z" clip-path="url(#d)" fill="#ca001c"/><g clip-path="url(#d)"><path d="M9.785 10.11c-.122-.084-.183-.205-.163-.285a.089.089 0 0 1 .068-.072c-.023.027-.042.047-.048.077-.017.072.043.187.141.274a.316.316 0 0 1 0-.261l.02.007a.417.417 0 0 0-.018.26z"/></g><path d="M9.809 9.248c-.055.012-.112.065-.166.166-.017-.183.017-.282.183-.316l-.017.15z" clip-path="url(#d)" fill="#ca001c"/><g clip-path="url(#d)"><path d="M9.652 9.419c-.035-.179-.009-.296.171-.332-.143.05-.188.13-.17.325.038-.107.095-.163.153-.174l.005.019c-.052.012-.105.067-.159.162z"/></g><path d="M11.271 8.7l-.781.714s.299.066.416.066c.115 0 .216.033.183.068-.033.033-.1.033-.134.082-.033.05-.082.118-.149.05-.067-.065-.299-.131-.299-.131s0 .382.017.43c.017.051.067.149.033.149-.033 0-.033-.015-.165 0-.134.018-.116.051-.084-.149.033-.198.016-.414.016-.414s-.299.198-.397.332c-.1.133-.084.033-.134-.018-.05-.049-.117-.065-.167-.082s.133-.068.183-.101c.05-.033.432-.249.432-.249s-.216-.066-.348-.084c-.134-.016-.134-.016-.117-.082.016-.066 0-.134 0-.166s.016-.066.099 0c.084.066.465.232.465.232l.649-.863.282.216z" clip-path="url(#d)" fill="#ca001c"/><g clip-path="url(#d)"><path d="M10.302 10.151c-.008 0-.015-.001-.021-.007-.012-.011-.008-.035.003-.093l.012-.075c.031-.185.019-.389.017-.412-.01.026-.287.213-.38.338-.038.051-.063.072-.083.071-.018-.001-.027-.021-.037-.04a.136.136 0 0 0-.028-.046.298.298 0 0 0-.142-.073l-.035-.025c-.002-.017.024-.028.103-.06a.842.842 0 0 0 .092-.04c.046-.033.38-.221.427-.248-.035 0-.221-.053-.339-.069-.084-.01-.114-.012-.128-.03-.009-.015-.005-.033.003-.062a.364.364 0 0 0 .002-.127l-.002-.038c0-.03.011-.04.019-.046.022-.01.053.003.097.037.081.065.458.23.463.231l.636-.86-.632.877c-.028-.006-.396-.163-.48-.231-.048-.04-.068-.039-.073-.036-.011.036-.008.047-.008.063a.335.335 0 0 1-.003.133c-.006.024-.009.041-.005.046.008.011.046.017.113.025.132.017.349.083.351.083.003.019-.38.235-.429.268-.021.013-.059.027-.096.042a.373.373 0 0 0-.091.045.34.34 0 0 1 .172.08.175.175 0 0 1 .032.05c.006.017.015.03.021.03.011-.004.025-.011.064-.064.1-.13.389-.325.402-.333.015.01.031.228-.001.426l-.013.075c-.008.039-.014.069-.009.075.003.004.024 0 .042-.003l.052-.01c.097-.011.125-.006.145-.003.028-.006.007-.064-.005-.09l-.016-.042c-.017-.053-.017-.421-.017-.436.024-.008.249.055.317.125.017.018.037.026.051.024.031-.003.059-.036.081-.072.022-.032.055-.044.084-.057a.13.13 0 0 0 .052-.028c-.003-.024-.075-.048-.175-.048-.117 0-.406-.065-.419-.068l.777-.732.014.015-.779.714c.027-.01.298.05.407.05.084 0 .183.018.196.054l.003.004-.01.026a.148.148 0 0 1-.059.033.148.148 0 0 0-.073.05c-.026.039-.056.077-.096.08-.024.004-.046-.008-.069-.028-.064-.065-.293-.131-.294-.131.012.095.016.38.029.419l.015.04c.024.059.037.097.025.113l-.043.004c-.019-.001-.046-.007-.139.006l-.052.007a.212.212 0 0 1-.038.004z"/></g><path d="M11.886 10.86l-.349-.416c-.398.245-.692.177-.88-.198.597.101.88-.444.846-1.628l-.447.696v-.647l-.55.066 1.446-1.545-.066 3.672z" clip-path="url(#d)"/></g></svg>