<svg xmlns="http://www.w3.org/2000/svg" xmlns:xlink="http://www.w3.org/1999/xlink" width="23.771" height="13.867" viewBox="0 0 23.771 13.867"><defs><path id="a" d="M0 0h23.771v13.867H0z"/></defs><clipPath id="b"><use xlink:href="#a" overflow="visible"/></clipPath><path clip-path="url(#b)" fill="#16007e" d="M0 12.324h23.771v1.543H0z"/><path clip-path="url(#b)" fill="#fff" d="M0 10.785h23.771v1.54H0z"/><path clip-path="url(#b)" fill="#16007e" d="M0 9.244h23.771v1.541H0z"/><path clip-path="url(#b)" fill="#fff" d="M0 7.703h23.771v1.541H0z"/><path clip-path="url(#b)" fill="#16007e" d="M0 6.162h23.771v1.541H0z"/><path clip-path="url(#b)" fill="#fff" d="M0 4.621h23.771v1.541H0z"/><path clip-path="url(#b)" fill="#16007e" d="M0 3.081h23.771v1.54H0z"/><path clip-path="url(#b)" fill="#fff" d="M0 1.538h23.771v1.543H0z"/><path clip-path="url(#b)" fill="#16007e" d="M0 0h23.771v1.538H0z"/><path clip-path="url(#b)" fill="#16007e" d="M0 0h7.703v7.703H0z"/><path clip-path="url(#b)" fill="#fff" d="M0 3.081h7.703v1.54H0z"/><path clip-path="url(#b)" fill="#fff" d="M3.082 0h1.539v7.703H3.082z"/></svg>