<svg xmlns="http://www.w3.org/2000/svg" xmlns:xlink="http://www.w3.org/1999/xlink" width="23.772" height="13.87" viewBox="0 0 23.772 13.87"><defs><path id="a" d="M0 0h23.772v13.87H0z"/></defs><clipPath id="b"><use xlink:href="#a" overflow="visible"/></clipPath><path clip-path="url(#b)" fill="#58b44d" d="M0 9.908h23.772v3.962H0z"/><path clip-path="url(#b)" fill="#fff" d="M0 3.959h23.772v5.948H0z"/><path clip-path="url(#b)" fill="#ea0042" d="M0 0h23.772v3.959H0z"/><g clip-path="url(#b)"><defs><path id="c" d="M0 0h23.772v13.87H0z"/></defs><clipPath id="d"><use xlink:href="#c" overflow="visible"/></clipPath><path d="M11.868 8.344c.115.138.533.282.893.102.056.169.504.44.905.149-.437-.064-.674-.205-.915-.528-.241.194-.636.019-.724-.075l.006-1.123.575-.564c0-.122-.369-.468-.739-.468-.369 0-.74.346-.74.468l.576.564.003 1.123c-.087.094-.482.268-.724.075-.241.324-.477.465-.914.528.4.29.849.019.905-.149.358.18.777.036.892-.102h.001zm-.002-1.668c-.144-.249-.435-.337-.435-.337s.151-.244.437-.244c.287 0 .436.244.436.244s-.294.088-.438.337" clip-path="url(#d)" fill="#cfb428"/><path d="M11.868 8.923c-.527 0-.864.185-1.038.382l-.149-.16c.134-.163.315-.221.36-.426.047-.144-.057-.255-.057-.255s.149.205.519.205c.227 0 .365-.252.365-.252m0-.001s.14.252.364.252c.369 0 .518-.205.518-.205s-.102.111-.056.255c.046.205.226.263.359.426l-.149.16c-.174-.196-.51-.382-1.037-.382m2.546-1.834l.101.308h.323l-.262.19.1.31-.262-.191-.261.191.1-.31-.262-.19h.323zm-.339-1.261l.101.307h.323l-.262.191.101.307-.263-.191-.262.191.101-.307-.263-.191h.325zM13.15 4.9l.1.307h.323l-.261.194.1.304-.262-.188-.263.188.1-.304-.263-.194h.325zm-1.264-.338l.1.307h.325l-.264.191.1.307-.261-.19-.263.19.1-.307-.261-.191h.324zm-1.264.338l.101.307h.323l-.263.194.101.304-.262-.188-.262.188.1-.304-.262-.194h.324zm-.925.927l.1.307h.323l-.261.191.099.307-.261-.191-.262.191.101-.307-.263-.191h.323zm-.338 1.261l.099.308h.324l-.262.19.1.31-.261-.191-.263.191.1-.31-.261-.19h.323z" clip-path="url(#d)" fill="#cfb428"/></g></svg>