<svg xmlns="http://www.w3.org/2000/svg" xmlns:xlink="http://www.w3.org/1999/xlink" width="23.772" height="13.867" viewBox="0 0 23.772 13.867"><defs><path id="a" d="M0 0h23.772v13.867H0z"/></defs><clipPath id="b"><use xlink:href="#a" overflow="visible"/></clipPath><path clip-path="url(#b)" fill="#4eaec4" d="M0 0h23.772v13.867H0z"/><g clip-path="url(#b)"><defs><path id="c" d="M0 0h23.772v13.867H0z"/></defs><clipPath id="d"><use xlink:href="#c" overflow="visible"/></clipPath><path d="M1.559 9.78c0-.279.25-.421.447-.421.263 0 .405.158.405.363a.618.618 0 0 1-.076.304l-.606 1.253a.397.397 0 0 0-.028.166c0 .113.109.205.224.208a.225.225 0 0 0 .217-.213c0-.136-.071-.196-.143-.196-.093 0-.13.036-.13.1 0 .044.022.064.054.064.076 0 .054-.105.054-.105.039.008.072.05.054.097a.149.149 0 0 1 .073.044.144.144 0 0 1-.073.042c.018.061-.007.089-.061.1a.102.102 0 0 0 .01-.061c-.084.022-.212-.017-.212-.158 0-.141.101-.263.284-.232-.043-.022-.065-.064-.071-.111.035.011.071.014.071.014-.021-.039-.051-.072-.048-.147.032.019.065.047.109.03-.069-.138.015-.324.231-.368a.449.449 0 0 0-.118.291c0 .321.09.376.09.598 0 .094-.05.196-.143.266v-.003c.062.017.102.044.125.089a.87.87 0 0 1-.465-.006.34.34 0 0 1-.246-.163.485.485 0 0 1 0-.396c.086-.18.49-1.035.614-1.303a.41.41 0 0 0 .046-.184c0-.166-.151-.221-.237-.221-.104 0-.209.077-.209.177 0 .058.036.097.083.097.116 0 .109-.097.084-.16.073.033.118.089.104.149.042.006.08.028.116.069a.145.145 0 0 1-.116.06c.024.097-.04.133-.104.155.022-.066.035-.147-.084-.147-.086 0-.155-.017-.194-.069l-.01.365c-.004.111.149.108.245.077-.036.127-.111.196-.285.18a.134.134 0 0 1 .087.133.35.35 0 0 1-.14.252L1.559 9.78z" clip-path="url(#d)" fill="#f5c832"/><path d="M1.616 9.78c0-.279-.249-.421-.447-.421-.263 0-.403.158-.403.363 0 .119.019.191.073.304l.607 1.253a.368.368 0 0 1 .028.166c0 .113-.109.205-.224.208-.105.003-.219-.097-.219-.213 0-.136.071-.196.144-.196.091 0 .127.036.127.1 0 .044-.021.064-.053.064-.076 0-.055-.105-.055-.105a.075.075 0 0 0-.053.097.17.17 0 0 0-.075.044.16.16 0 0 0 .075.042c-.017.061.007.089.059.1a.093.093 0 0 1-.008-.061c.083.022.21-.017.21-.158 0-.141-.097-.263-.284-.232a.13.13 0 0 0 .071-.111c-.032.011-.071.014-.071.014.022-.039.054-.072.051-.147-.035.019-.068.047-.111.03.069-.138-.015-.324-.231-.368.08.089.118.191.118.291 0 .321-.09.376-.09.598 0 .094.048.196.144.266v-.003c-.062.017-.104.044-.127.089.145.039.354.039.466-.006a.349.349 0 0 0 .248-.163.506.506 0 0 0 0-.396c-.089-.18-.491-1.035-.617-1.303a.501.501 0 0 1-.039-.184c0-.166.151-.221.237-.221.101 0 .206.077.206.177 0 .058-.033.097-.082.097-.115 0-.109-.097-.086-.16-.072.032-.114.087-.102.148a.194.194 0 0 0-.116.069c.028.034.063.061.116.061-.024.097.04.133.102.155-.021-.066-.033-.147.086-.147.087 0 .154-.017.194-.069.003.072.01.365.01.365.006.111-.148.108-.246.077.036.127.112.196.288.18a.134.134 0 0 0-.089.133c0 .102.086.219.141.252l.027-1.079zm-.028 3s.13.108.177.053c.072-.089-.221-.531-.221-.689 0-.257.17-.326.382-.362.144-.025.373.011.373.011-.042.058-.069.075-.144.08a.307.307 0 0 1 .166.277c0 .221-.091.313-.091.559 0 .141.112.315.112.315-.201-.019-.3-.208-.242-.354a.09.09 0 0 0-.086.028c-.014-.043.007-.09.039-.134-.026-.011-.043 0-.084.006.005-.042.031-.086.091-.131-.18.05-.29-.08-.29-.21 0-.097.071-.169.137-.169.024 0 .055.006.075.022a.105.105 0 0 0-.01-.089c.051.011.082.039.061.102.037.003.069.014.089.039a.096.096 0 0 1-.089.042c.028.058-.003.091-.05.116 0 0 .03-.116-.043-.116-.035 0-.065.014-.065.061 0 .042.037.102.126.1.083-.006.154-.061.154-.199 0-.125-.101-.188-.237-.191-.119-.006-.213.061-.213.188 0 .163.241.54.241.689 0 .111-.1.171-.199.171-.125 0-.232-.124-.232-.124l.073-.091z" clip-path="url(#d)" fill="#f5c832"/><path d="M1.588 12.78s-.131.108-.176.053c-.073-.089.221-.531.221-.689 0-.257-.173-.326-.383-.362-.144-.025-.376.011-.376.011.044.058.072.075.145.08a.308.308 0 0 0-.162.277c0 .221.089.313.089.559 0 .141-.113.315-.113.315.199-.019.3-.208.245-.354.029-.006.059.003.086.028.012-.042-.01-.089-.04-.133.024-.011.043 0 .083.006-.004-.042-.03-.086-.093-.13.181.05.292-.08.292-.21 0-.097-.069-.169-.138-.169a.122.122 0 0 0-.072.022c-.014-.028-.006-.061.007-.089-.048.011-.082.039-.059.102-.039.003-.068.014-.089.039.021.03.053.044.089.042-.028.058.004.091.048.116 0 0-.028-.116.046-.116.033 0 .064.014.064.061 0 .042-.037.102-.124.1-.084-.006-.154-.061-.154-.199 0-.125.101-.188.237-.191.12-.006.212.061.212.188 0 .163-.239.54-.239.689 0 .111.1.171.196.171.129 0 .234-.124.234-.124l-.076-.093zm-.029-7.858c0-.277.25-.421.447-.421.263 0 .405.16.405.365a.605.605 0 0 1-.076.302l-.606 1.253a.42.42 0 0 0-.027.167c0 .116.109.205.224.207.104.003.217-.094.217-.21 0-.138-.071-.196-.143-.196-.093 0-.13.033-.13.1 0 .044.022.064.054.064.076 0 .054-.108.054-.108.039.011.072.05.054.1a.114.114 0 0 1 .074.043c-.02.016-.043.036-.074.041.018.058-.007.089-.061.1a.108.108 0 0 0 .01-.064c-.084.025-.212-.014-.212-.158 0-.141.101-.26.284-.23-.043-.019-.065-.066-.071-.113.035.014.071.014.071.014-.021-.039-.051-.066-.048-.144.031.017.065.045.109.028-.069-.136.015-.321.231-.368a.46.46 0 0 0-.118.293c0 .321.09.374.09.598 0 .094-.05.196-.143.266v-.003c.062.014.102.044.125.086a.831.831 0 0 1-.465-.006.34.34 0 0 1-.246-.16.485.485 0 0 1 0-.396c.086-.18.49-1.035.614-1.303a.406.406 0 0 0 .045-.183c0-.163-.151-.221-.237-.221-.104 0-.209.077-.209.174 0 .061.036.097.083.097.116 0 .109-.097.084-.158.073.033.118.091.104.149.042.006.08.028.116.069a.17.17 0 0 1-.116.061c.024.094-.04.136-.104.155.022-.069.035-.147-.084-.147-.086 0-.155-.017-.194-.069l-.01.365c-.003.114.15.109.246.076-.036.13-.111.196-.285.18a.14.14 0 0 1 .087.136.35.35 0 0 1-.14.252l-.029-1.083z" clip-path="url(#d)" fill="#f5c832"/><path d="M1.616 4.922c0-.277-.249-.421-.447-.421-.263 0-.403.16-.403.365 0 .119.019.191.073.302 0 0 .437.905.607 1.253a.381.381 0 0 1 .028.166c0 .116-.109.205-.224.207-.105.003-.219-.094-.219-.21 0-.138.071-.196.144-.196.091 0 .127.033.127.1 0 .044-.021.064-.053.064-.076 0-.055-.108-.055-.108a.078.078 0 0 0-.053.1.13.13 0 0 0-.073.044c.022.016.044.036.075.041-.017.058.007.089.059.1a.1.1 0 0 1-.008-.064c.083.025.21-.014.21-.158 0-.141-.097-.26-.284-.23.044-.019.068-.066.071-.113-.032.014-.07.014-.07.014.022-.039.054-.066.051-.144-.035.017-.068.045-.111.028.069-.136-.015-.321-.231-.368a.45.45 0 0 1 .118.293c0 .321-.09.374-.09.598 0 .094.048.196.144.266v-.003a.186.186 0 0 0-.128.085c.146.042.354.042.467-.005a.35.35 0 0 0 .248-.16.506.506 0 0 0 0-.396c-.089-.18-.492-1.035-.618-1.303a.446.446 0 0 1-.041-.183c0-.163.151-.221.237-.221.101 0 .206.077.206.174 0 .061-.033.097-.082.097-.115 0-.109-.097-.086-.158-.072.033-.114.091-.102.15a.194.194 0 0 0-.116.069c.029.03.064.058.116.061-.024.094.04.136.102.155-.021-.07-.033-.147.086-.147.087 0 .154-.017.194-.069.003.072.01.365.01.365.005.113-.149.108-.247.075.036.13.112.196.288.18a.14.14 0 0 0-.089.135c0 .102.086.219.141.252l.028-1.082z" clip-path="url(#d)" fill="#f5c832"/><path d="M1.616 4.089c0 .279-.249.421-.447.421-.263 0-.403-.155-.403-.365 0-.113.019-.188.073-.299l.607-1.256a.36.36 0 0 0 .028-.166c0-.113-.109-.202-.224-.208-.105-.003-.219.1-.219.21 0 .141.071.202.144.202.091 0 .127-.039.127-.102 0-.044-.021-.064-.053-.064-.076 0-.055.105-.055.105a.071.071 0 0 1-.051-.096.155.155 0 0 1-.075-.045.15.15 0 0 1 .075-.041c-.017-.061.007-.091.059-.102a.11.11 0 0 0-.008.066c.083-.025.21.014.21.155s-.097.263-.284.23a.13.13 0 0 1 .071.113.33.33 0 0 0-.07-.014c.022.039.053.069.051.147-.035-.017-.068-.047-.111-.028.069.136-.015.324-.231.365a.443.443 0 0 0 .118-.291c0-.321-.09-.376-.09-.6 0-.091.048-.194.144-.26v.003a.204.204 0 0 1-.127-.089.835.835 0 0 1 .466.003.356.356 0 0 1 .247.164.505.505 0 0 1 0 .396c-.088.179-.491 1.034-.617 1.302a.453.453 0 0 0-.041.183c0 .163.151.224.237.224.101 0 .206-.08.206-.174 0-.064-.033-.102-.082-.102-.115 0-.109.1-.086.16-.072-.03-.113-.091-.102-.149a.188.188 0 0 1-.116-.066c.028-.037.063-.065.116-.065-.024-.094.04-.136.102-.155-.021.067-.033.147.086.147.087 0 .154.014.194.072l.01-.371c.005-.11-.149-.108-.247-.074.036-.127.112-.196.288-.18a.137.137 0 0 1-.089-.133c0-.102.086-.219.141-.252l.028 1.079z" clip-path="url(#d)" fill="#f5c832"/><path d="M1.559 4.089c0 .279.25.421.447.421.263 0 .405-.155.405-.365a.61.61 0 0 0-.076-.299L1.729 2.59a.393.393 0 0 1-.027-.166c0-.113.109-.202.224-.208.104-.003.217.1.217.21 0 .141-.071.202-.143.202-.093 0-.13-.039-.13-.102 0-.044.022-.064.054-.064.076 0 .054.105.054.105.039-.008.072-.046.054-.096a.144.144 0 0 0 .074-.045.139.139 0 0 0-.074-.041c.018-.061-.007-.091-.061-.102a.122.122 0 0 1 .01.066c-.084-.025-.212.014-.212.155s.101.263.284.23c-.043.022-.065.066-.071.113.035-.011.071-.014.071-.014-.021.039-.051.069-.048.147.031-.017.065-.047.109-.028-.069.136.015.324.231.365a.453.453 0 0 1-.118-.29c0-.321.09-.376.09-.6a.33.33 0 0 0-.143-.26v.003a.2.2 0 0 0 .125-.089.824.824 0 0 0-.465.002.349.349 0 0 0-.246.164.484.484 0 0 0 0 .396c.086.18.49 1.035.614 1.303a.405.405 0 0 1 .045.182c0 .163-.151.224-.237.224-.104 0-.209-.08-.209-.174 0-.064.036-.102.083-.102.116 0 .109.1.084.16.073-.03.118-.091.104-.149a.183.183 0 0 0 .116-.066c-.027-.037-.063-.065-.116-.065.024-.094-.04-.136-.104-.155.022.066.035.147-.084.147-.086 0-.155.014-.194.072-.001-.075-.01-.371-.01-.371-.003-.11.15-.108.246-.074-.036-.128-.111-.197-.285-.18a.137.137 0 0 0 .087-.133.35.35 0 0 0-.14-.252l-.029 1.079zm.057 4.859c0 .277-.249.421-.447.421-.263 0-.403-.16-.403-.365a.61.61 0 0 1 .073-.302s.437-.905.607-1.253a.373.373 0 0 0 .028-.166c0-.111-.109-.207-.224-.21-.105-.003-.219.1-.219.21 0 .141.071.202.144.202.091 0 .127-.036.127-.102 0-.044-.021-.064-.053-.064-.076 0-.055.108-.055.108a.078.078 0 0 1-.053-.1.137.137 0 0 1-.073-.045.15.15 0 0 1 .075-.041c-.017-.059.007-.089.059-.103a.116.116 0 0 0-.008.067c.083-.025.21.014.21.155 0 .144-.097.263-.284.232a.13.13 0 0 1 .071.113c-.032-.013-.07-.016-.07-.016.022.039.054.072.051.147-.035-.017-.068-.045-.111-.028.069.135-.015.321-.231.365a.437.437 0 0 0 .118-.291c0-.321-.09-.373-.09-.6 0-.091.048-.194.144-.26v.003c-.063-.017-.104-.047-.128-.092a.895.895 0 0 1 .467.006.358.358 0 0 1 .248.163.505.505 0 0 1 0 .396c-.089.18-.492 1.035-.618 1.303a.45.45 0 0 0-.041.183c0 .166.151.221.237.221.101 0 .206-.077.206-.174 0-.061-.033-.1-.082-.1-.115 0-.109.1-.086.16-.072-.033-.114-.088-.102-.152a.18.18 0 0 1-.116-.064.141.141 0 0 1 .116-.06c-.024-.097.04-.138.102-.16-.021.071-.033.149.086.149.087 0 .154.014.194.072l.01-.371c.005-.111-.149-.105-.247-.075.036-.127.112-.193.288-.177a.136.136 0 0 1-.089-.133c0-.105.086-.221.141-.257l.028 1.085z" clip-path="url(#d)" fill="#f5c832"/><path d="M1.559 8.948c0 .277.25.421.447.421.263 0 .405-.16.405-.365a.613.613 0 0 0-.076-.302l-.606-1.253a.413.413 0 0 1-.027-.167c0-.111.109-.207.224-.21.104-.003.217.1.217.21 0 .141-.071.202-.143.202-.093 0-.13-.036-.13-.102 0-.044.022-.064.054-.064.076 0 .054.108.054.108.039-.011.072-.05.054-.1a.12.12 0 0 0 .074-.044.139.139 0 0 0-.074-.041c.018-.059-.007-.089-.061-.103a.126.126 0 0 1 .01.066c-.084-.024-.212.014-.212.156 0 .144.101.263.284.232-.043.022-.065.064-.071.113a.279.279 0 0 1 .071-.017c-.021.039-.051.073-.048.147.031-.016.065-.044.109-.027-.069.135.015.321.231.365a.448.448 0 0 1-.118-.291c0-.321.09-.373.09-.6a.33.33 0 0 0-.143-.26v.003c.062-.017.102-.047.125-.091a.88.88 0 0 0-.465.005.348.348 0 0 0-.246.163.484.484 0 0 0 0 .396c.086.18.49 1.035.614 1.303a.409.409 0 0 1 .045.183c0 .166-.151.221-.237.221-.104 0-.209-.077-.209-.174 0-.061.036-.1.083-.1.116 0 .109.1.084.16.073-.033.118-.089.104-.152a.176.176 0 0 0 .116-.064.14.14 0 0 0-.116-.06c.024-.097-.04-.138-.104-.16.022.072.035.149-.084.149-.086 0-.155.014-.194.072-.001-.075-.01-.371-.01-.371-.003-.111.15-.105.246-.075-.036-.127-.111-.193-.285-.177a.137.137 0 0 0 .087-.133.36.36 0 0 0-.14-.257l-.029 1.085zm.029-7.855s.13-.111.177-.058c.072.091-.221.537-.221.692 0 .257.17.326.382.362.144.022.373-.008.373-.008C2.258 2.02 2.23 2 2.155 2a.31.31 0 0 0 .166-.279c0-.221-.091-.31-.091-.562 0-.138.112-.313.112-.313-.201.017-.3.205-.242.352-.032.006-.064 0-.086-.025-.014.042.007.089.039.13-.026.014-.043.006-.084-.003.005.042.031.089.091.13-.18-.047-.29.077-.29.21 0 .1.071.169.137.169a.146.146 0 0 0 .075-.025.114.114 0 0 1-.01.094c.051-.014.082-.042.061-.105a.126.126 0 0 0 .088-.038.109.109 0 0 0-.089-.045c.028-.055-.003-.089-.05-.113 0 0 .03.113-.043.113-.035 0-.065-.011-.065-.058 0-.044.037-.1.126-.097.083.003.154.058.154.196 0 .125-.101.188-.237.191-.119.006-.213-.06-.213-.182 0-.169.241-.548.241-.694 0-.111-.1-.174-.199-.174-.125 0-.232.127-.232.127l.074.094z" clip-path="url(#d)" fill="#f5c832"/><path d="M1.588 1.093s-.131-.111-.176-.058c-.073.091.222.536.222.691 0 .257-.173.326-.383.362a1.701 1.701 0 0 1-.377-.007C.919 2.02.946 2 1.02 2a.311.311 0 0 1-.162-.279c0-.221.089-.31.089-.562 0-.138-.113-.313-.113-.313.199.017.3.205.245.351.029.006.059 0 .086-.025.012.042-.01.089-.04.13.022.015.041.007.081-.002-.004.042-.03.089-.093.13.181-.047.292.077.292.21 0 .1-.069.169-.138.169a.142.142 0 0 1-.072-.025c-.014.031-.005.07.007.095-.048-.014-.081-.042-.059-.106a.127.127 0 0 1-.089-.038.11.11 0 0 1 .089-.045c-.028-.055.004-.088.048-.113 0 0-.028.113.046.113.033 0 .063-.011.063-.058 0-.044-.037-.1-.124-.097-.085.003-.154.059-.154.197 0 .125.101.188.237.191.12.006.212-.061.212-.183 0-.169-.239-.548-.239-.694 0-.111.1-.174.196-.174.129 0 .234.127.234.127l-.074.094z" clip-path="url(#d)" fill="#f5c832"/><path d="M1.328 8.923c0-.019-.05-.008-.084 0-.039.005-.061.027-.058.05.002.022.047.011.084.002.037-.011.061-.027.058-.052z" clip-path="url(#d)" fill="#4eaec4"/><g clip-path="url(#d)"><path d="M1.209 8.997h-.014l-.023-.024c-.003-.031.022-.053.068-.064.028-.006.051-.011.068-.011h.012l.022.025c.001.03-.024.055-.068.066a.273.273 0 0 1-.065.008z" fill="#4eaec4"/></g><path d="M12.41 9.424c-1.863.006-3.171-1.486-3.29-2.98 0 0-.073-.028-.084.039-.021.157.046.644.02.611-.045-.064-.385-.971-.446-.874-.083.132.381 1.167.353 1.2-.093.111-.624-1.012-.667-.929-.162.315.656 1.334.65 1.375-.016.135-.622-.548-.673-.476-.115.166.653.769.691.816.12.136-.418-.243-.434-.111-.014.106.26.324.423.415.165.095.217.067.264.147.035.061-.308-.039-.297.036.017.149.376.119.429.185.055.066-.243.017-.23.072.019.097.322.111.326.152.006.041-.191.014-.178.091.011.069.308.055.38.105.073.05-.266.006-.003.136.264.133.566.279.978.36.414.083.623-.008.639-.036.015-.025-.196.022-.488-.03a3.09 3.09 0 0 1-.843-.335c-.051-.025.155-.086.112-.144-.044-.055-.209.009-.273-.072-.041-.052.079-.052.075-.086-.003-.03-.228-.083-.268-.141-.042-.055.101-.044.108-.083.004-.027-.143-.077-.153-.113-.012-.039.162-.028.082-.075-.087-.05-.324-.108-.368-.194-.044-.08.18.011.122-.066-.04-.055-.257-.147-.303-.271-.03-.086.155-.011.158-.066.003-.086-.109-.03-.145-.277-.013-.08.143-.025.143-.025l.024-.042s.181.1.418.376c.237.274.303.531.526.717.108.091.111-.033.351.116.242.152.342.257.595.473.036.03.201-.03.686.072.263.055.315.191.315.191 0 .006.147-.089.216-.191.028-.044.055-.003.064-.011.026-.024-.005-.057-.005-.057z" clip-path="url(#d)" fill="#f5c832"/><g clip-path="url(#d)"><path d="M10.937 9.844c-.098 0-.205-.014-.317-.033-.429-.086-.747-.246-.981-.363-.081-.041-.112-.066-.108-.094.001-.025.04-.033.077-.039.015-.002.034-.005.038-.01-.034-.017-.108-.025-.18-.034-.11-.013-.206-.027-.211-.074l-.003-.003.011-.033c.019-.028.069-.036.109-.042.022-.006.055-.011.059-.017-.007-.008-.059-.019-.1-.03-.094-.025-.212-.052-.227-.122.021-.042.064-.044.134-.044.036-.003.097-.003.104-.014-.021-.028-.09-.039-.156-.05-.126-.022-.267-.046-.28-.146.036-.072.105-.047.19-.039.031.003.062.006.084.006 0-.042-.025-.047-.073-.066-.039-.014-.089-.03-.16-.072-.152-.086-.447-.313-.43-.432.001-.017.011-.042.051-.042.066 0 .192.066.289.116.05.025.108.055.122.055-.031-.016-.059-.041-.102-.074-.354-.307-.704-.634-.615-.764.068-.014.174.08.34.232.125.111.281.255.327.255.002-.019-.049-.088-.102-.166-.217-.315-.671-.974-.543-1.22.055-.014.118.091.278.368.128.222.325.562.386.562.004-.022-.05-.169-.102-.31-.167-.437-.3-.808-.248-.894.072-.013.181.208.365.642.042.091.076.174.094.213-.01-.03-.014-.097-.021-.158-.01-.152-.025-.337-.012-.428.004-.036.029-.055.064-.055.019 0 .037.008.039.008.123 1.469 1.375 2.974 3.273 2.974.024.008.04.028.04.053v.006l-.017.028-.022-.014-.022.008a.78.78 0 0 1-.244.212c-.017-.025-.08-.147-.318-.196a2.701 2.701 0 0 0-.537-.061h-.089c-.036 0-.055 0-.069-.014l-.144-.122c-.156-.138-.257-.23-.448-.349-.111-.069-.17-.075-.208-.075h-.048c-.029 0-.057-.006-.095-.039-.126-.107-.202-.234-.287-.372a2.273 2.273 0 0 0-.242-.352c-.231-.268-.413-.373-.416-.373l-.001.039c-.018.008-.065-.009-.106-.009-.017 0-.029.003-.035.008.017.164.066.197.099.225.025.017.046.033.043.072-.001.036-.046.036-.062.036h-.054c-.029 0-.037.003-.04.006.029.097.13.163.205.213.044.03.08.053.095.075l.006.008.004.03c-.007.014-.025.014-.04.014l-.07-.003c.007.069.126.119.22.157a.72.72 0 0 1 .122.05c.014.006.03.019.028.036-.005.02-.027.025-.058.031a.115.115 0 0 0-.046.016c.004.011.047.033.077.05.047.025.077.044.075.066-.003.028-.036.036-.065.045-.018.006-.047.014-.05.019.024.039.101.069.161.094.079.028.113.044.116.066.003.022-.025.033-.048.044-.012.004-.032.015-.035.023.035.05.095.05.154.053.051 0 .101 0 .125.033l.008.03c-.006.03-.044.055-.08.077-.018.011-.043.03-.044.036.144.08.538.274.84.324.095.019.194.03.302.03.042 0 .077-.003.107-.003l.047-.003c.025 0 .036.003.043.011-.018.045-.133.098-.34.098zM8.989 8.677c-.043 0-.053.006-.055.011.01.086.147.108.255.13.082.011.146.022.171.052l.006.008.003.025c-.013.025-.058.025-.129.028-.036.003-.101.006-.108.017.01.047.125.077.208.1.079.019.118.03.12.055.004.03-.039.036-.083.041-.035.008-.077.014-.093.03.001.047.109.061.187.069.077.011.151.019.185.042l.017.03c-.005.017-.028.02-.06.028-.015.003-.05.009-.055.017 0 0 0 .019.094.064.232.116.549.276.974.356.111.025.214.036.311.036.201 0 .303-.05.313-.066l-.064.017c-.03 0-.066.003-.108.003a1.77 1.77 0 0 1-.307-.028c-.303-.055-.704-.246-.849-.335-.014-.042.011-.055.042-.078.029-.017.065-.044.069-.058-.018-.033-.059-.033-.105-.033-.062-.003-.13-.003-.168-.052l-.013-.036c.006-.022.03-.03.053-.042.01-.006.03-.011.032-.017-.007-.008-.06-.027-.099-.044-.072-.022-.146-.052-.168-.088l-.009-.036c.007-.019.036-.028.066-.039.014-.003.046-.011.046-.019-.004-.009-.037-.025-.06-.039-.05-.028-.084-.044-.091-.069.012-.036.038-.042.067-.047.012-.003.033-.008.037-.011-.044-.025-.087-.039-.132-.058-.104-.039-.225-.086-.256-.147l-.003-.008v-.034c.015-.025.053-.017.086-.014h.032c-.006-.028-.039-.05-.08-.08-.082-.055-.183-.119-.215-.207-.006-.017-.006-.031.001-.042.013-.016.039-.019.064-.019l.054.003c.015 0 .035-.003.036-.011 0-.025-.011-.033-.033-.05-.035-.028-.089-.069-.113-.224-.001-.017.002-.028.012-.039.029-.036.148-.003.151-.003l.005-.036c.029 0 .209.102.443.373.105.125.177.241.244.355.08.136.158.263.279.365.033.028.054.03.077.03h.048c.044 0 .105.011.224.083.19.119.293.207.45.346l.145.127c.007.008.037.008.05.008l.089-.003c.104 0 .273.008.542.064.267.055.324.194.327.199 0-.011.127-.105.192-.194.01-.019.024-.028.037-.028l.029.008.003-.042-.011.014c-1.909 0-3.171-1.513-3.292-2.983h-.019c-.021 0-.033.006-.036.03-.012.089.003.283.013.424.014.163.016.188.005.196-.039-.022-.072-.1-.13-.241-.088-.204-.268-.63-.318-.633-.051.08.139.575.249.869.105.274.118.318.105.329l-.027.014c-.072 0-.209-.224-.409-.57-.098-.169-.21-.363-.239-.371-.112.23.335.877.551 1.19.093.138.111.163.109.18l-.001.013-.03.017c-.053 0-.166-.1-.346-.26-.12-.113-.26-.241-.297-.241-.087.127.438.578.61.725.044.039.073.064.08.072.017.019.024.033.019.044-.036.009-.075-.008-.15-.049-.092-.045-.217-.111-.278-.111-.021 0-.024.014-.025.017-.011.094.24.301.418.401.068.042.12.061.155.072.051.017.084.03.115.08-.014.083-.075.044-.137.036a.64.64 0 0 0-.104-.008z" fill="#f5c832"/></g><path d="M13.662 9.98c-.068-.014-.061.039-.061.039.006.066-.043.141-.098.155-.044.008-.022.042-.036.072l-.181-.008c-.286.155-.647.21-1.079.16 0 0-.091.069-.17.138-.082.075-.138.091-.153.147-.017.061.041.089.116.091.075.003.172-.066.172-.066s.014.055.082.064c.069.006.194-.042.194-.042s.105.047.187.036c.077-.011.147-.061.147-.061s.021.091.101.094c.079.006.201-.097.201-.097s.059.069.133.058c.075-.008.162-.097.162-.097s.091.042.176.014c.086-.025.169-.111.169-.111s.075.064.144.039c.068-.022.115-.119.115-.119s.183.077.306.014c.084-.039.064-.174.064-.174s.504.072.483-.257c-.008-.037-.818-.026-1.174-.089z" clip-path="url(#d)" fill="#f5c832"/><g clip-path="url(#d)"><path d="M12.885 10.815h-.006c-.073-.006-.102-.072-.111-.1-.008.019-.066.055-.136.064-.095-.003-.188-.036-.194-.036a.546.546 0 0 1-.174.042c-.071-.006-.097-.044-.105-.072-.008.022-.09.075-.156.075-.061-.003-.105-.019-.125-.044a.08.08 0 0 1-.01-.066c.012-.039.042-.061.086-.091.019-.017.043-.033.072-.058.082-.069.173-.141.173-.141.109.008.206.014.3.014.3 0 .562-.058.78-.177l.187.008c-.007-.039-.006-.061.033-.072.05-.014.093-.08.09-.141-.001 0-.006-.022.008-.039a.06.06 0 0 1 .044-.019c.219.042.551.055.816.064.36.014.383.019.386.042a.23.23 0 0 1-.058.18c-.079.083-.221.102-.328.102-.055 0-.095-.006-.109-.008.015.011.028.136-.059.174-.1.05-.291-.006-.314-.014.006.011-.04.1-.109.119-.061.019-.141-.03-.154-.042.003.014-.075.091-.156.113-.075.022-.176-.011-.187-.014.006.006-.079.089-.155.1h-.001a.192.192 0 0 1-.141-.066c.004.012-.108.103-.187.103zm-.115-.122c.024.014.043.091.111.091l.004.014v-.011c.072 0 .188-.097.19-.097.019.003.066.055.127.055.079-.008.165-.091.167-.091.011 0 .064.017.122.017.021 0 .04 0 .057-.008.083-.025.162-.105.162-.105.011.003.071.042.123.042a.239.239 0 0 0 .133-.119c.022-.006.111.03.203.03a.252.252 0 0 0 .109-.022c.076-.033.055-.16.055-.163.015-.011.062-.008.126-.008.101 0 .237-.014.308-.091a.198.198 0 0 0 .048-.158c-.015-.003-.19-.008-.358-.017-.267-.011-.599-.022-.8-.058l-.037.003c.001.094-.05.174-.113.188-.018.006-.019.011-.019.03-.001.008-.001.025-.008.036l-.194-.003c-.278.158-.645.21-1.082.166.003.003-.082.066-.158.136a.772.772 0 0 1-.077.058c-.04.03-.064.044-.073.077-.004.017-.004.028.004.039.015.019.053.033.1.036h.001a.34.34 0 0 0 .163-.066c.022.011.033.055.09.061h.001c.076 0 .184-.039.185-.039.012 0 .094.036.167.036a.34.34 0 0 0 .163-.059z" fill="#f5c832"/></g><path d="M12.587 9.628s.147-.058.405-.108c.488-.102.657-.069.692-.1.386-.429.67-.462.949-.573.224-.188.297-.457.534-.73.235-.274.376-.296.376-.296l.03.061s.127-.094.12-.014c-.01.122-.111.238-.105.321.003.055.173-.022.158.025-.04.13-.177.208-.214.26-.061.083.155-.028.111.055-.044.086-.26.171-.344.224-.053.03.057.039.046.075-.011.039-.232.122-.23.149.004.039.059.042.033.069-.047.053-.231.058-.234.091-.003.036.039.064-.003.116-.065.083-.115 0-.142.066-.014.039.108.113.025.13a.817.817 0 0 0-.292.127c-.036.022-.201.055-.295.08-.064.014-.408.058-.393.086.014.028.232.025.692-.055.196-.036.314-.058.624-.158.356-.113-.091-.122-.018-.169.073-.047.38-.025.393-.094.011-.077-.172-.055-.167-.097.006-.044.375-.042.397-.141.011-.055-.21-.014-.158-.08.053-.066.349-.083.36-.213.006-.075-.242.019-.21-.044.014-.025.113-.055.212-.122.156-.111.403-.296.387-.401-.012-.133-.512.304-.468.138.014-.061.809-.686.681-.841-.09-.102-.657.573-.676.437-.004-.044.884-1.046.722-1.361-.043-.083-.712 1.201-.805 1.09-.025-.03.57-1.267.474-1.389-.044-.064-.14.144-.241.368-.101.23-.213.479-.237.512-.022.033.026-.484.003-.642-.01-.066-.082-.039-.082-.039-.104 1.608-1.648 2.8-2.879 2.977-.318.044-.419.196-.771.396-.115.066-.297.096-.453.185a.939.939 0 0 0-.32.302c-.025.039.011.158.043.171.035.011.032-.086.068-.108.036-.014.036.039.082.036.043-.003.091-.044.091-.044s.869-.003 1.24-.011c.068-.003.178-.03.225-.08-.014-.042-.115-.019-.178-.017-.261-.017-.606 0-.851-.014 0 0-.039-.003-.036-.044 0-.017.156-.183.156-.183h-.123s-.073.042-.111.044c-.036.006-.051-.019-.036-.03.186-.141.743-.393.743-.393z" clip-path="url(#d)" fill="#f5c832"/><g clip-path="url(#d)"><path d="M11.324 10.483h-.011c-.026-.008-.043-.055-.048-.072-.012-.039-.019-.089-.001-.116a.893.893 0 0 1 .324-.307c.083-.047.172-.077.259-.108.073-.025.143-.047.198-.077.111-.064.196-.122.273-.174.163-.108.281-.191.502-.221 1.303-.185 2.765-1.422 2.865-2.963.025-.033.102-.017.109.036.014.089.003.274-.001.426a2.302 2.302 0 0 0-.008.21c0-.028.095-.235.185-.434l.03-.076c.119-.263.181-.39.238-.39h.004l.024.019c.061.08-.116.517-.335 1.043-.073.169-.14.324-.138.349.066-.003.3-.382.47-.658.201-.324.278-.443.314-.443.145.257-.344.905-.584 1.22-.057.075-.112.144-.116.158.04-.006.16-.105.266-.196.144-.13.292-.263.367-.263h.006l.033.014c.09.108-.205.398-.515.692-.077.072-.159.147-.163.16.035.022.116-.025.194-.069.141-.089.268-.144.277-.075.01.086-.12.227-.394.418a1.166 1.166 0 0 1-.145.077c-.026.011-.058.03-.062.039.03.003.05 0 .071-.003.058-.006.111-.006.13.014l.008.027c-.008.089-.124.125-.23.158-.058.019-.115.036-.134.061-.001.017.04.022.062.025.043.003.079.008.094.028-.01.091-.148.116-.268.133-.053.011-.115.022-.125.03a.31.31 0 0 0 .057.014c.051.008.12.025.112.083-.008.047-.105.058-.217.069-.077.008-.154.014-.183.033a.252.252 0 0 0 .058.019c.055.014.105.03.107.064 0 .019-.019.047-.149.089a4.48 4.48 0 0 1-.625.16c-.357.058-.53.069-.602.069-.082 0-.1-.014-.107-.025.011-.036.068-.047.282-.083a1.694 1.694 0 0 0 .223-.047c.079-.019.165-.039.188-.053a.81.81 0 0 1 .299-.13c.018-.014.001-.036-.007-.05-.018-.022-.037-.047-.028-.072.01-.028.024-.036.05-.036l.032.014V9.28c.017 0 .037-.003.059-.036.024-.025.015-.047.008-.066-.003-.011-.008-.028-.008-.039.004-.028.039-.036.101-.05.051-.008.115-.025.137-.05-.018-.022-.035-.036-.037-.058-.004-.022.026-.039.113-.083a.413.413 0 0 0 .118-.072c.003-.008-.015-.014-.026-.022-.015-.008-.033-.019-.033-.033v-.009l.021-.022a2.74 2.74 0 0 1 .101-.055c.094-.047.209-.105.238-.16-.019-.014-.035-.011-.051-.008a.22.22 0 0 1-.039.006l-.033-.017c-.006-.011.004-.025.012-.039.014-.017.036-.036.059-.058a.468.468 0 0 0 .155-.196c-.021.003-.037.003-.051.006-.068.014-.107-.006-.107-.025-.004-.044.019-.097.046-.155.026-.055.054-.113.059-.171-.03-.017-.076.011-.1.028l-.05-.066c.001.008-.136.042-.354.296-.104.122-.176.241-.245.354-.086.138-.165.274-.289.376-.053.025-.104.039-.154.058-.234.08-.479.166-.795.515-.018.017-.05.019-.12.025a3.77 3.77 0 0 0-.981.188c-.006.003-.556.249-.742.39a.304.304 0 0 0 .131-.036l.131-.003c-.062.1-.14.185-.142.199l.022.042v-.017c.246.017.589-.003.852.019l.044-.006c.054-.006.126-.025.145.03-.054.066-.17.094-.238.094a68.84 68.84 0 0 1-1.238.014.157.157 0 0 1-.093.044.06.06 0 0 1-.051-.028c-.03-.003-.046.025-.051.044-.008.03-.015.055-.039.055zm4.405-4.028a.082.082 0 0 0-.028.006c-.09 1.538-1.566 2.783-2.88 2.971-.213.03-.329.111-.49.219a2.588 2.588 0 0 1-.275.174.935.935 0 0 1-.202.08c-.084.03-.172.058-.253.108a.903.903 0 0 0-.314.296c-.011.014-.01.053.004.091.011.033.025.055.033.058.006-.003.011-.025.014-.036.01-.028.018-.058.043-.072.037 0 .046.008.054.017.01.014.017.019.029.019.037 0 .084-.039.084-.039.01-.006.878-.006 1.249-.019.059 0 .172-.022.214-.072-.007.003-.022-.003-.053-.003a.506.506 0 0 0-.066.006l-.048.006c-.264-.019-.606-.003-.854-.019 0 0-.022 0-.036-.017-.01-.011-.014-.022-.012-.042.003-.014.055-.077.16-.191l-.112.025a.305.305 0 0 1-.109.044c-.032.003-.051-.008-.057-.025l-.004-.011.012-.017c.188-.144.726-.385.75-.396.001-.003.149-.058.407-.111.299-.064.476-.077.581-.083a.302.302 0 0 0 .105-.014c.318-.354.567-.44.805-.523.05-.017.1-.033.148-.053.119-.102.198-.23.281-.371.068-.111.14-.23.246-.354.238-.274.378-.302.385-.302l.044.066c-.003-.017.051-.053.086-.053l.03.015c.004.006.01.019.008.036-.004.066-.033.127-.059.183a.337.337 0 0 0-.046.138.133.133 0 0 0 .075 0 .33.33 0 0 1 .048-.006l.033.014a.432.432 0 0 1-.16.23c-.022.022-.046.039-.055.055.004.011.017.008.033.006a.323.323 0 0 1 .046-.006h.008l.028.014c.01.017 0 .033-.003.039-.033.066-.148.125-.249.174-.04.019-.076.039-.1.053.029.028.059.044.051.072-.007.022-.047.047-.134.089a.481.481 0 0 0-.097.058c.003.008.01.014.021.022l.019.028c-.037.058-.104.072-.16.086-.03.008-.072.019-.082.025.018.05.029.083-.004.122-.029.042-.059.047-.082.047l-.032-.003c-.01 0-.017.003-.026.019-.003.008.015.03.026.047.019.019.035.047.026.066-.004.014-.018.019-.037.022a.839.839 0 0 0-.286.13 1.196 1.196 0 0 1-.198.055 2.201 2.201 0 0 0-.102.025 3.715 3.715 0 0 0-.122.022c-.076.011-.209.03-.253.047.032.003.123.028.668-.066.198-.036.31-.058.623-.155.127-.044.13-.064.13-.064 0-.014-.064-.033-.089-.036-.048-.017-.075-.028-.079-.044l-.001-.008.015-.017a.474.474 0 0 1 .195-.036c.075-.008.188-.022.194-.05.004-.03-.033-.039-.091-.05-.04-.008-.079-.017-.076-.047.003-.028.044-.033.145-.05.095-.017.239-.039.252-.089-.007-.014-.048-.017-.073-.022-.044-.002-.084-.008-.092-.03l-.004-.008.012-.03c.025-.03.083-.047.149-.066.094-.03.203-.066.209-.136-.008-.019-.058-.017-.111-.011-.043.003-.084.014-.098-.011.01-.042.035-.058.077-.077.037-.019.09-.042.14-.075.346-.243.389-.349.382-.39-.059-.014-.154.041-.235.091a.675.675 0 0 1-.203.097l-.029-.012c-.006-.011-.006-.025 0-.047.003-.017.047-.058.17-.174.209-.194.595-.553.51-.65-.075 0-.236.136-.364.249-.145.127-.237.21-.281.21h-.012l-.021-.03c-.003-.017.017-.042.125-.18.234-.307.719-.946.599-1.176-.024.011-.162.232-.285.432-.249.404-.418.67-.494.67-.036-.028-.026-.055.111-.385.148-.354.396-.943.339-1.018-.046-.003-.147.21-.217.368l-.032.075a5.981 5.981 0 0 1-.206.44c-.033-.008-.033-.039-.025-.227.007-.152.015-.338.004-.421-.004-.026-.015-.031-.037-.031z" fill="#f5c832"/></g><path d="M11.727 10.154c-.001-.017-.043-.006-.072 0-.032.008-.05.019-.047.039.001.019.04.011.069.003.032-.009.051-.023.05-.042z" clip-path="url(#d)" fill="#4eaec4"/><g clip-path="url(#d)"><path d="M11.627 10.218h-.014l-.021-.022c-.003-.025.019-.047.058-.055a.26.26 0 0 1 .058-.008h.014l.018.022c.001.022-.021.047-.059.055a.243.243 0 0 1-.054.008z" fill="#4eaec4"/></g><path d="M12.838 3.854c.105.022.156-.036.173-.113.022-.105-.024-.634-.024-.634s-.243.47-.263.573c-.016.083.01.155.114.174zm.383.116c.1.042.162-.006.192-.08.04-.097.1-.623.1-.623s-.331.412-.372.512c-.028.075-.018.153.08.191zm.353.191c.089.058.159.022.205-.044.057-.086.217-.589.217-.589s-.403.34-.463.429c-.044.066-.048.143.041.204zm.308.252c.076.077.152.055.208-.003.076-.072.331-.534.331-.534s-.462.255-.537.329c-.059.059-.078.133-.002.208zm.253.31c.059.089.138.086.203.039.09-.061.429-.462.429-.462s-.502.16-.591.219c-.064.043-.1.115-.041.204zm.188.351c.044.1.119.111.192.08.098-.042.512-.371.512-.371s-.524.061-.624.1c-.074.031-.12.094-.08.191zm.117.385c.021.102.094.13.173.113.105-.022.574-.263.574-.263s-.527-.044-.629-.025c-.081.017-.138.07-.118.175zm.038.395c.001.108.068.147.148.147.108 0 .613-.147.613-.147s-.505-.147-.613-.147c-.08.001-.148.04-.148.147zm-.038.399c-.019.105.037.155.118.172.102.022.629-.022.629-.022s-.469-.244-.574-.266c-.079-.014-.154.008-.173.116zm-.117.382c-.039.1.006.16.08.191.1.044.624.1.624.1s-.414-.329-.512-.371c-.073-.028-.15-.02-.192.08zm-.188.354c-.058.086-.024.158.042.205.089.055.591.219.591.219s-.339-.404-.429-.465c-.065-.042-.144-.048-.204.041zm-.253.307c-.075.075-.057.152.001.21.075.072.537.329.537.329s-.255-.465-.331-.537c-.055-.057-.132-.077-.207-.002zm-.308.252c-.087.061-.084.138-.042.205.061.091.463.429.463.429s-.16-.501-.217-.589c-.045-.07-.116-.103-.204-.045zm-.353.191c-.098.044-.108.116-.08.191.042.1.372.512.372.512s-.059-.523-.1-.623c-.03-.072-.094-.122-.192-.08zm-1.912-.191c-.09-.055-.16-.025-.205.044-.059.089-.22.589-.22.589s.404-.338.463-.429c.046-.066.052-.143-.038-.204zm-.308-.252c-.077-.075-.152-.055-.208.003-.077.072-.332.537-.332.537s.462-.257.537-.329c.057-.059.077-.136.003-.211zm-.255-.307c-.059-.089-.137-.083-.203-.042-.09.061-.43.465-.43.465s.504-.163.592-.219c.066-.047.101-.118.041-.204zm-.188-.354c-.042-.1-.119-.108-.194-.08-.098.042-.512.371-.512.371s.526-.055.625-.1c.074-.031.121-.092.081-.191zm-.116-.382c-.022-.108-.094-.13-.176-.116-.101.022-.571.266-.571.266s.526.044.631.022c.077-.017.138-.067.116-.172zm-.039-.399c-.001-.108-.068-.147-.147-.147-.108 0-.617.147-.617.147s.509.147.617.147c.079 0 .147-.039.147-.147zm.039-.395c.019-.105-.039-.158-.116-.174-.106-.02-.631.024-.631.024s.47.241.571.263c.082.017.154-.008.176-.113zm.116-.385c.04-.097-.007-.16-.08-.191-.1-.039-.625-.1-.625-.1s.414.329.512.371c.074.031.151.02.193-.08zm.188-.351c.059-.089.025-.16-.042-.205-.088-.058-.592-.218-.592-.218s.34.401.43.462c.067.047.146.052.204-.039zm.255-.31c.073-.075.054-.149-.003-.208-.075-.075-.537-.329-.537-.329s.255.462.332.534c.055.058.131.08.208.003z" clip-path="url(#d)" fill="#f5c832"/><path d="M12.439 4.064c.99 0 1.793.802 1.793 1.793a1.793 1.793 0 1 1-3.589 0 1.795 1.795 0 0 1 1.796-1.793zm0-.246c.108-.003.148-.069.148-.149 0-.105-.148-.614-.148-.614s-.144.509-.144.614c0 .08.039.149.144.149zm.399 4.034c-.104.025-.13.097-.113.177.019.102.263.573.263.573s.046-.528.024-.631c-.018-.08-.069-.136-.174-.119zm-.399.039c-.105.003-.144.069-.144.149 0 .108.144.614.144.614s.148-.506.148-.614c0-.08-.04-.149-.148-.149zm-.395-.039c-.105-.017-.158.039-.173.119-.021.102.024.631.024.631s.241-.47.263-.573c.016-.08-.011-.155-.114-.177zm-.384-.113c-.098-.042-.162.008-.192.08-.042.1-.1.623-.1.623s.331-.412.372-.512c.03-.075.019-.15-.08-.191zm-.351-3.578c.087-.061.084-.138.039-.205-.059-.089-.463-.429-.463-.429s.16.504.22.589c.044.067.114.103.204.045zm.351-.191c.098-.042.109-.116.08-.191-.042-.1-.372-.512-.372-.512s.058.526.1.623c.031.075.094.122.192.08zm.384-.116c.104-.022.13-.091.113-.174-.022-.102-.263-.573-.263-.573s-.044.528-.024.634c.016.077.069.138.174.113z" clip-path="url(#d)" fill="#f5c832"/></g></svg>