<svg xmlns="http://www.w3.org/2000/svg" xmlns:xlink="http://www.w3.org/1999/xlink" width="23.772" height="13.868" viewBox="0 0 23.772 13.868"><defs><path id="a" d="M0 0h23.772v13.868H0z"/></defs><clipPath id="b"><use xlink:href="#a" overflow="visible"/></clipPath><path clip-path="url(#b)" fill="#1c2a7d" d="M0 0h23.772v13.868H0z"/><g clip-path="url(#b)"><defs><path id="c" d="M0 0h23.772v13.868H0z"/></defs><clipPath id="d"><use xlink:href="#c" overflow="visible"/></clipPath><path d="M5.001 2.827l-.043 1.444H3.494c-.182-.349-.332-.647-.332-1.051 0-.337.267-.605.65-.605.403 0 .85.136 1.189.212zm-1.662.066v.834-.834z" clip-path="url(#d)" fill="#f6d849"/><g clip-path="url(#d)"><path d="M3.339 3.745c-.01 0-.021-.008-.021-.018v-.834c0-.019.036-.019.036 0v.834c.001.01-.006.018-.015.018z"/></g><path d="M3.456 2.809v1.109-1.109z" clip-path="url(#d)" fill="#f6d849"/><g clip-path="url(#d)"><path d="M3.456 3.936c-.011 0-.018-.008-.018-.019V2.809c0-.019.036-.019.036 0v1.109c0 .01-.009.018-.018.018z"/></g><path d="M3.573 2.749v1.323-1.323z" clip-path="url(#d)" fill="#f6d849"/><g clip-path="url(#d)"><path d="M3.573 4.091c-.01 0-.018-.009-.018-.019V2.749c0-.018.036-.018.036 0v1.323c0 .01-.008.019-.018.019z"/></g><path d="M3.691 2.723V3.76 2.723z" clip-path="url(#d)" fill="#f6d849"/><g clip-path="url(#d)"><path d="M3.691 3.777a.016.016 0 0 1-.017-.017V2.723c0-.019.036-.019.036 0V3.76c0 .01-.008.017-.019.017z"/></g><path d="M3.81 2.718v1.047-1.047z" clip-path="url(#d)" fill="#f6d849"/><g clip-path="url(#d)"><path d="M3.81 3.783a.017.017 0 0 1-.018-.018V2.718c0-.019.033-.019.033 0v1.047c0 .01-.005.018-.015.018z"/></g><path d="M3.927 2.682v1.083-1.083z" clip-path="url(#d)" fill="#f6d849"/><g clip-path="url(#d)"><path d="M3.927 3.781c-.01 0-.018-.008-.018-.017V2.682c0-.019.033-.019.033 0v1.083c.001.009-.006.016-.015.016z"/></g><path d="M4.046 2.682v1.083-1.083z" clip-path="url(#d)" fill="#f6d849"/><g clip-path="url(#d)"><path d="M4.046 3.781c-.011 0-.018-.008-.018-.017V2.682c0-.019.033-.019.033 0v1.083c.001.009-.008.016-.015.016z"/></g><path d="M4.161 2.692v1.082-1.082z" clip-path="url(#d)" fill="#f6d849"/><g clip-path="url(#d)"><path d="M4.161 3.793a.018.018 0 0 1-.018-.018V2.692c0-.019.036-.019.036 0v1.082c0 .011-.007.019-.018.019z"/></g><path d="M4.283 2.702v1.084-1.084z" clip-path="url(#d)" fill="#f6d849"/><g clip-path="url(#d)"><path d="M4.283 3.803c-.014 0-.022-.008-.022-.017V2.702c0-.019.036-.019.036 0v1.084c0 .009-.007.017-.014.017z"/></g><path d="M4.398 2.771v1.085-1.085z" clip-path="url(#d)" fill="#f6d849"/><g clip-path="url(#d)"><path d="M4.398 3.872c-.01 0-.018-.007-.018-.017V2.771c0-.018.036-.018.036 0v1.085c0 .009-.009.016-.018.016z"/></g><path d="M4.515 2.782v1.222-1.222z" clip-path="url(#d)" fill="#f6d849"/><g clip-path="url(#d)"><path d="M4.515 4.021c-.01 0-.018-.008-.018-.017V2.782c0-.02.035-.02.035 0v1.222a.018.018 0 0 1-.017.017z"/></g><path d="M4.632 2.782v1.083-1.083z" clip-path="url(#d)" fill="#f6d849"/><g clip-path="url(#d)"><path d="M4.632 3.882c-.008 0-.015-.008-.015-.017V2.782c0-.02.033-.02.033 0v1.083c0 .01-.006.017-.018.017z"/></g><path d="M4.752 2.782v1.083-1.083z" clip-path="url(#d)" fill="#f6d849"/><g clip-path="url(#d)"><path d="M4.752 3.882c-.01 0-.018-.008-.018-.017V2.782c0-.02.033-.02.033 0v1.083c0 .01-.007.017-.015.017z"/></g><path d="M4.077 2.726c.249.041.795.297.732.643-.088.491-.375.293-.756.223l-.285.095c-.102.105-.254.202-.357.074h-.168v.665h1.879V2.821l-1.045-.095z" clip-path="url(#d)"/><g clip-path="url(#d)"><path d="M5.121 4.443H3.243l-.018-.682.187-.017c.134.133.275.001.344-.07l.295-.1c.08.013.152.032.216.048.1.028.187.051.265.051.1 0 .213-.036.261-.307a.315.315 0 0 0-.065-.246c-.146-.208-.477-.347-.654-.377-.01-.001-.015-.01-.015-.019 0-.01.008-.015.021-.015l1.044.095.015 1.622c0 .009-.007.017-.018.017zm-1.722-.671l-.156.008.018.646 1.845-.018V2.821l-.852-.064c.18.065.393.184.501.34.063.09.087.183.072.275-.042.232-.135.338-.295.338-.08 0-.176-.026-.272-.053-.068-.017-.135-.034-.207-.047l-.279.095c-.044.047-.144.134-.244.134a.161.161 0 0 1-.131-.067z"/></g><path d="M5.033 2.612c0 .063-.05.114-.113.114a.114.114 0 0 1-.116-.114c0-.062.051-.113.113-.114.063 0 .116.052.116.114z" clip-path="url(#d)" fill="#f6d849"/><g clip-path="url(#d)"><path d="M4.919 2.745a.133.133 0 0 1-.134-.133c0-.073.059-.132.131-.132a.132.132 0 1 1 .003.265zm-.003-.231a.1.1 0 0 0-.095.098c0 .053.044.097.098.097.051 0 .094-.044.094-.097s-.043-.098-.097-.098z"/></g><path d="M4.775 2.55a.114.114 0 0 1-.113.115.115.115 0 0 1-.116-.115c0-.063.053-.114.116-.114.062 0 .113.051.113.114z" clip-path="url(#d)" fill="#f6d849"/><g clip-path="url(#d)"><path d="M4.662 2.682a.133.133 0 0 1-.133-.132c0-.073.061-.131.133-.131a.131.131 0 0 1 0 .263zm0-.229a.096.096 0 0 0-.097.097c0 .079.111.125.163.069a.086.086 0 0 0 .029-.069.095.095 0 0 0-.095-.097z"/></g><path d="M4.515 2.485a.113.113 0 0 1-.115.113.116.116 0 0 1-.116-.113c0-.063.051-.114.116-.114.064 0 .115.051.115.114z" clip-path="url(#d)" fill="#f6d849"/><g clip-path="url(#d)"><path d="M4.401 2.617a.131.131 0 0 1 0-.263.13.13 0 0 1 .131.132.13.13 0 0 1-.131.131zm0-.229a.1.1 0 0 0-.098.097.1.1 0 0 0 .098.096.096.096 0 0 0 .097-.096.098.098 0 0 0-.097-.097z"/></g><path d="M4.254 2.442a.112.112 0 0 1-.113.114.114.114 0 1 1-.002-.228c.064 0 .115.05.115.114z" clip-path="url(#d)" fill="#f6d849"/><g clip-path="url(#d)"><path d="M4.14 2.574a.133.133 0 0 1-.133-.132c0-.073.059-.132.131-.132a.132.132 0 1 1 .002.264zm-.001-.228a.095.095 0 0 0-.095.096c0 .053.043.097.097.097a.097.097 0 0 0 .095-.097.096.096 0 0 0-.097-.096z"/></g><path d="M3.992 2.416a.116.116 0 0 1-.113.114.118.118 0 0 1-.116-.114c0-.063.055-.114.116-.114.061 0 .113.051.113.114z" clip-path="url(#d)" fill="#f6d849"/><g clip-path="url(#d)"><path d="M3.879 2.548a.134.134 0 0 1-.133-.132c0-.073.061-.132.133-.132a.132.132 0 0 1 0 .264zm0-.229a.096.096 0 1 0 0 .193.097.097 0 0 0 0-.193z"/></g><path d="M3.738 2.43a.117.117 0 0 1-.116.115.112.112 0 0 1-.112-.115.108.108 0 0 1 .112-.113c.062 0 .116.049.116.113z" clip-path="url(#d)" fill="#f6d849"/><g clip-path="url(#d)"><path d="M3.622 2.562a.13.13 0 0 1-.13-.132c0-.035.012-.068.039-.093.074-.077.222-.015.222.093a.132.132 0 0 1-.131.132zm0-.228a.1.1 0 0 0-.069.028.091.091 0 0 0-.028.068.1.1 0 0 0 .097.097.099.099 0 0 0 .098-.097.098.098 0 0 0-.098-.096z"/></g><path d="M3.494 2.514a.117.117 0 0 1-.116.114.114.114 0 0 1-.113-.114c0-.062.05-.114.111-.114a.117.117 0 0 1 .118.114z" clip-path="url(#d)" fill="#f6d849"/><g clip-path="url(#d)"><path d="M3.378 2.646a.132.132 0 0 1-.133-.133c0-.107.151-.168.226-.093a.129.129 0 0 1 .039.093c0 .073-.06.133-.132.133zm0-.229a.096.096 0 1 0 0 .193.095.095 0 0 0 .095-.097.095.095 0 0 0-.095-.096z"/></g><path d="M3.286 2.665a.115.115 0 0 1-.112.116.115.115 0 0 1 0-.23c.06 0 .112.05.112.114z" clip-path="url(#d)" fill="#f6d849"/><g clip-path="url(#d)"><path d="M3.173 2.797a.13.13 0 0 1-.131-.132.13.13 0 0 1 .261 0 .13.13 0 0 1-.13.132zm0-.229a.097.097 0 0 0-.098.097.097.097 0 0 0 .195 0 .098.098 0 0 0-.097-.097z"/></g><path d="M3.14 2.876a.114.114 0 0 1-.113.114.116.116 0 0 1-.116-.114c0-.062.054-.114.116-.114.061 0 .113.051.113.114z" clip-path="url(#d)" fill="#f6d849"/><g clip-path="url(#d)"><path d="M3.027 3.009a.132.132 0 0 1-.131-.133c0-.034.012-.067.036-.093.077-.077.225-.015.225.093a.132.132 0 0 1-.13.133zm0-.228a.098.098 0 0 0-.098.095c0 .054.044.097.098.097a.096.096 0 0 0 .097-.097.095.095 0 0 0-.097-.095z"/></g><path d="M3.07 3.126a.113.113 0 0 1-.112.113.114.114 0 1 1 .112-.115v.002z" clip-path="url(#d)" fill="#f6d849"/><g clip-path="url(#d)"><path d="M2.958 3.256a.134.134 0 0 1-.134-.131c0-.073.059-.133.134-.133a.13.13 0 0 1 .13.131.13.13 0 0 1-.13.133zm0-.228a.098.098 0 0 0-.098.098c0 .051.044.095.098.095a.096.096 0 0 0 .094-.095.096.096 0 0 0-.094-.098z"/></g><path d="M3.072 3.382a.114.114 0 0 1-.112.114.115.115 0 0 1-.116-.114c0-.063.051-.115.116-.115a.115.115 0 0 1 .112.115z" clip-path="url(#d)" fill="#f6d849"/><g clip-path="url(#d)"><path d="M2.96 3.514a.132.132 0 0 1-.134-.131.132.132 0 0 1 .264 0 .131.131 0 0 1-.13.131zm0-.228a.096.096 0 1 0 0 .192.096.096 0 0 0 .094-.096.094.094 0 0 0-.094-.096z"/></g><path d="M3.121 3.634a.114.114 0 1 1-.228 0c0-.063.051-.114.116-.114.061 0 .112.051.112.114z" clip-path="url(#d)" fill="#f6d849"/><g clip-path="url(#d)"><path d="M3.009 3.766a.13.13 0 0 1-.131-.132.13.13 0 0 1 .131-.131.13.13 0 0 1 .131.131.131.131 0 0 1-.131.132zm0-.228a.097.097 0 0 0-.098.096c0 .053.044.097.098.097a.1.1 0 0 0 .097-.097.098.098 0 0 0-.097-.096z"/></g><path d="M4.968 2.764l-.01.148c-.285-.044-.686-.202-1.061-.202-.347 0-.618.139-.618.489 0 .345.148.657.34.977l-.199.095c-.183-.349-.332-.647-.332-1.051 0-.337.266-.669.725-.669.402 0 .816.137 1.155.213z" clip-path="url(#d)" fill="#f6d849"/><g clip-path="url(#d)"><path d="M3.42 4.288c-.008 0-.014-.003-.018-.01-.17-.33-.332-.642-.332-1.058 0-.332.26-.685.743-.685.31 0 .627.08.906.15.087.021.171.044.254.062l.001.167h-.001c-.12 0-.237-.031-.365-.062-.22-.059-.475-.124-.711-.124-.226 0-.6.062-.6.471 0 .363.172.693.339.968l-.209.12-.007.001zm.393-1.72c-.459 0-.707.336-.707.652 0 .401.155.707.321 1.029l.185-.089c-.177-.254-.35-.589-.35-.961 0-.321.232-.506.635-.506.242 0 .498.066.721.125.127.031.242.062.343.077l-.009-.133H4.95c-.066 0-.152-.021-.241-.044-.275-.07-.591-.15-.896-.15z"/></g><path d="M5.258 2.827l.043 1.444h1.466c.18-.349.329-.647.329-1.051 0-.337-.266-.605-.647-.605-.405 0-.849.136-1.191.212zm1.664.066v.834-.834z" clip-path="url(#d)" fill="#f6d849"/><g clip-path="url(#d)"><path d="M6.922 3.745c-.011 0-.019-.008-.019-.018v-.834c0-.019.035-.019.035 0v.834c0 .01-.009.018-.016.018z"/></g><path d="M6.803 2.809v1.109-1.109z" clip-path="url(#d)" fill="#f6d849"/><g clip-path="url(#d)"><path d="M6.803 3.936c-.01 0-.018-.008-.018-.019V2.809c0-.019.036-.019.036 0v1.109c0 .01-.007.018-.018.018z"/></g><path d="M6.686 2.749v1.323-1.323z" clip-path="url(#d)" fill="#f6d849"/><g clip-path="url(#d)"><path d="M6.686 4.091c-.011 0-.018-.009-.018-.019V2.749c0-.018.036-.018.036 0v1.323c0 .01-.008.019-.018.019z"/></g><path d="M6.567 2.723V3.76 2.723z" clip-path="url(#d)" fill="#f6d849"/><g clip-path="url(#d)"><path d="M6.567 3.777c-.01 0-.018-.007-.018-.017V2.723c0-.019.036-.019.036 0V3.76c0 .01-.007.017-.018.017z"/></g><path d="M6.452 2.718v1.047-1.047z" clip-path="url(#d)" fill="#f6d849"/><g clip-path="url(#d)"><path d="M6.452 3.783a.017.017 0 0 1-.018-.018V2.718c0-.019.033-.019.033 0v1.047c0 .01-.007.018-.015.018z"/></g><path d="M6.33 2.682v1.083-1.083z" clip-path="url(#d)" fill="#f6d849"/><g clip-path="url(#d)"><path d="M6.33 3.781c-.007 0-.014-.008-.014-.017V2.682c0-.019.033-.019.033 0v1.083c.001.009-.005.016-.019.016z"/></g><path d="M6.215 2.682v1.083-1.083z" clip-path="url(#d)" fill="#f6d849"/><g clip-path="url(#d)"><path d="M6.215 3.781c-.01 0-.018-.008-.018-.017V2.682c0-.019.033-.019.033 0v1.083c.001.009-.005.016-.015.016z"/></g><path d="M6.098 2.692v1.082-1.082z" clip-path="url(#d)" fill="#f6d849"/><g clip-path="url(#d)"><path d="M6.098 3.793a.017.017 0 0 1-.018-.018V2.692c0-.019.036-.019.036 0v1.082c0 .011-.008.019-.018.019z"/></g><path d="M5.979 2.702v1.084-1.084z" clip-path="url(#d)" fill="#f6d849"/><g clip-path="url(#d)"><path d="M5.979 3.803c-.01 0-.018-.008-.018-.017V2.702c0-.019.036-.019.036 0v1.084c0 .009-.007.017-.018.017z"/></g><path d="M5.861 2.771v1.085-1.085z" clip-path="url(#d)" fill="#f6d849"/><g clip-path="url(#d)"><path d="M5.861 3.872c-.01 0-.018-.007-.018-.017V2.771c0-.018.036-.018.036 0v1.085c0 .009-.008.016-.018.016z"/></g><path d="M5.744 2.782v1.222-1.222z" clip-path="url(#d)" fill="#f6d849"/><g clip-path="url(#d)"><path d="M5.744 4.021c-.011 0-.017-.008-.017-.017V2.782c0-.02.033-.02.033 0v1.222c0 .009-.007.017-.016.017z"/></g><path d="M5.625 2.782v1.083-1.083z" clip-path="url(#d)" fill="#f6d849"/><g clip-path="url(#d)"><path d="M5.625 3.882c-.01 0-.018-.008-.018-.017V2.782c0-.02.036-.02.036 0v1.083c0 .01-.007.017-.018.017z"/></g><path d="M5.507 2.782v1.083-1.083z" clip-path="url(#d)" fill="#f6d849"/><g clip-path="url(#d)"><path d="M5.507 3.882c-.008 0-.015-.008-.015-.017V2.782c0-.02.036-.02.036 0v1.083c0 .01-.011.017-.021.017z"/></g><path d="M6.182 2.726c-.249.041-.795.297-.732.643.087.49.375.293.755.223l.285.095c.102.105.254.202.357.075h.169v.665H5.138V2.821l1.044-.095z" clip-path="url(#d)"/><g clip-path="url(#d)"><path d="M7.016 4.443H5.138l-.019-1.622 1.061-.112c.01 0 .021.006.021.015.003.009-.006.018-.015.019-.178.03-.51.169-.655.377a.328.328 0 0 0-.065.246c.051.271.162.307.261.307.075 0 .162-.023.266-.049.066-.017.135-.036.207-.049l.296.096c.079.077.246.194.335.08l.185-.006.018.681c0 .009-.006.017-.018.017zm-1.02-1.681l-.857.077.014 1.587 1.845-.018v-.647l-.15.019a.137.137 0 0 1-.119.059c-.1 0-.196-.086-.252-.139l-.279-.091A9.207 9.207 0 0 0 6 3.657c-.097.026-.193.053-.273.053-.16 0-.253-.105-.295-.337a.36.36 0 0 1 .072-.276c.106-.153.314-.271.492-.335z"/></g><path d="M5.226 2.612a.114.114 0 1 0 .229 0 .116.116 0 0 0-.113-.114.116.116 0 0 0-.116.114z" clip-path="url(#d)" fill="#f6d849"/><g clip-path="url(#d)"><path d="M5.343 2.745a.13.13 0 0 1-.131-.133.13.13 0 0 1 .131-.132c.072 0 .131.059.131.132 0 .072-.06.133-.131.133zm0-.231c-.054 0-.097.044-.097.098s.043.097.097.097c.051 0 .095-.044.095-.097s-.044-.096-.095-.098z"/></g><path d="M5.484 2.55c0 .064.048.115.113.115a.113.113 0 0 0 .113-.115.113.113 0 1 0-.226 0z" clip-path="url(#d)" fill="#f6d849"/><g clip-path="url(#d)"><path d="M5.597 2.682a.132.132 0 0 1 0-.263.131.131 0 1 1 0 .263zm0-.229a.095.095 0 0 0-.095.097c0 .054.042.098.095.098a.097.097 0 0 0 .097-.098.096.096 0 0 0-.097-.097z"/></g><path d="M5.744 2.485a.115.115 0 0 0 .23 0 .115.115 0 0 0-.115-.114.114.114 0 0 0-.115.114z" clip-path="url(#d)" fill="#f6d849"/><g clip-path="url(#d)"><path d="M5.859 2.617a.13.13 0 0 1-.131-.131.13.13 0 0 1 .131-.132.132.132 0 0 1 0 .263zm0-.229a.097.097 0 0 0-.098.097c0 .053.044.096.098.096.026 0 .051-.01.066-.028a.1.1 0 0 0 .029-.068.098.098 0 0 0-.095-.097z"/></g><path d="M6.005 2.442a.114.114 0 0 0 .228 0 .114.114 0 0 0-.113-.114.114.114 0 0 0-.115.114z" clip-path="url(#d)" fill="#f6d849"/><g clip-path="url(#d)"><path d="M6.12 2.574a.132.132 0 0 1-.133-.132c0-.108.152-.17.226-.093a.127.127 0 0 1 .039.093.134.134 0 0 1-.132.132zm0-.228a.097.097 0 0 0-.097.095c0 .053.044.098.097.098a.095.095 0 0 0 .095-.097.101.101 0 0 0-.028-.069.09.09 0 0 0-.067-.027z"/></g><path d="M6.267 2.416a.114.114 0 0 0 .229 0 .115.115 0 0 0-.113-.114.113.113 0 0 0-.116.114z" clip-path="url(#d)" fill="#f6d849"/><g clip-path="url(#d)"><path d="M6.383 2.548a.123.123 0 0 1-.095-.04.122.122 0 0 1-.039-.093c0-.071.059-.131.134-.131a.13.13 0 0 1 .13.132.131.131 0 0 1-.13.132zm0-.229a.097.097 0 0 0-.072.164c.055.057.166.011.166-.067a.097.097 0 0 0-.094-.097z"/></g><path d="M6.524 2.43c0 .064.051.115.113.115a.116.116 0 0 0 .115-.115.115.115 0 0 0-.115-.113.112.112 0 0 0-.113.113z" clip-path="url(#d)" fill="#f6d849"/><g clip-path="url(#d)"><path d="M6.637 2.562a.132.132 0 0 1 0-.263c.072 0 .133.059.133.131a.133.133 0 0 1-.133.132zm0-.228a.095.095 0 0 0-.095.096c0 .053.043.097.095.097a.098.098 0 0 0 .097-.097.097.097 0 0 0-.097-.096z"/></g><path d="M6.767 2.514c0 .063.051.114.113.114.064 0 .115-.05.115-.114a.114.114 0 1 0-.228 0z" clip-path="url(#d)" fill="#f6d849"/><g clip-path="url(#d)"><path d="M6.881 2.646a.133.133 0 0 1-.131-.133.13.13 0 0 1 .261 0 .132.132 0 0 1-.13.133zm0-.229a.1.1 0 0 0-.069.028.096.096 0 0 0-.027.068c0 .055.042.098.095.098a.096.096 0 0 0 .097-.097.096.096 0 0 0-.096-.097z"/></g><path d="M6.974 2.665c0 .064.048.116.112.116a.115.115 0 0 0 0-.23.113.113 0 0 0-.112.114z" clip-path="url(#d)" fill="#f6d849"/><g clip-path="url(#d)"><path d="M7.086 2.797a.13.13 0 0 1-.13-.132c0-.072.058-.131.13-.131s.134.059.134.131a.134.134 0 0 1-.134.132zm0-.229c-.051 0-.094.044-.094.097s.043.097.094.097a.097.097 0 0 0 .098-.097.098.098 0 0 0-.098-.097z"/></g><path d="M7.119 2.876a.114.114 0 0 0 .229 0 .116.116 0 0 0-.116-.114.114.114 0 0 0-.113.114z" clip-path="url(#d)" fill="#f6d849"/><g clip-path="url(#d)"><path d="M7.232 3.009a.131.131 0 0 1-.13-.133.13.13 0 0 1 .13-.131.13.13 0 0 1 .131.131.13.13 0 0 1-.131.133zm0-.228a.093.093 0 0 0-.094.095c0 .054.04.097.094.097a.097.097 0 0 0 .098-.097.096.096 0 0 0-.098-.095z"/></g><path d="M7.188 3.126c0 .062.053.113.116.113a.114.114 0 0 0 .113-.113.115.115 0 0 0-.113-.115.114.114 0 0 0-.116.113v.002z" clip-path="url(#d)" fill="#f6d849"/><g clip-path="url(#d)"><path d="M7.304 3.256a.133.133 0 0 1-.133-.131c0-.073.061-.133.133-.133s.131.059.131.133a.13.13 0 0 1-.131.131zm0-.228a.093.093 0 0 0-.094.095c0 .053.04.097.094.097a.096.096 0 0 0 0-.192z"/></g><path d="M7.187 3.382c0 .062.051.114.112.114a.115.115 0 0 0 .003-.229.116.116 0 0 0-.115.115z" clip-path="url(#d)" fill="#f6d849"/><g clip-path="url(#d)"><path d="M7.299 3.514a.133.133 0 0 1-.13-.131c0-.073.061-.132.133-.132s.131.059.131.131c0 .072-.06.132-.134.132zm.002-.228a.095.095 0 0 0-.097.096c0 .053.042.096.094.096a.098.098 0 0 0 .098-.096.095.095 0 0 0-.095-.096z"/></g><path d="M7.138 3.634a.114.114 0 0 0 .227 0 .114.114 0 1 0-.227 0z" clip-path="url(#d)" fill="#f6d849"/><g clip-path="url(#d)"><path d="M7.25 3.766a.131.131 0 0 1-.131-.132.13.13 0 0 1 .131-.131.131.131 0 1 1 0 .263zm0-.228a.096.096 0 0 0 0 .193.098.098 0 0 0 .098-.097.097.097 0 0 0-.098-.096z"/></g><path d="M5.291 2.764l.01.148c.285-.044.689-.202 1.064-.202.346 0 .613.139.613.489 0 .345-.144.657-.339.977l.203.095c.18-.349.329-.647.329-1.051 0-.337-.266-.669-.722-.669-.405 0-.819.137-1.158.213z" clip-path="url(#d)" fill="#f6d849"/><g clip-path="url(#d)"><path d="M6.842 4.288l-.008-.001-.202-.095c.159-.299.331-.63.331-.993 0-.409-.375-.471-.598-.471-.239 0-.494.065-.717.124-.123.031-.242.062-.344.078l-.03-.165c.094-.036.18-.059.267-.08.279-.071.599-.15.909-.15.48 0 .739.353.739.685 0 .418-.16.73-.333 1.059a.015.015 0 0 1-.014.009zm-.477-1.595c.403 0 .631.185.631.506 0 .372-.172.707-.342.986l.177.065c.168-.322.321-.626.321-1.03 0-.315-.246-.652-.703-.652-.306 0-.621.08-.902.15a7.178 7.178 0 0 1-.253.063l.024.13c.081-.031.199-.062.322-.094.224-.059.48-.124.725-.124z"/></g><path clip-path="url(#d)" fill="#bc0030" d="M0 6.935h23.772v6.933H0z"/><path d="M5.132 1.229l-.123.223.123.222.115-.222-.115-.223zm0 .562l-.123.224.123.223.115-.223-.115-.224z" clip-path="url(#d)" fill="#f6d849"/><g clip-path="url(#d)"><path d="M5.132 2.255c-.011 0-.014-.003-.018-.008l-.117-.224.118-.239c.004-.006.007-.01.018-.01.006 0 .007.003.012.01l.12.223-.12.24c-.006.005-.007.008-.013.008zm0-.428l-.105.196.103.179.102-.195-.1-.18zm0-.135c-.011 0-.014-.003-.018-.01l-.117-.223.118-.239c.004-.006.007-.01.018-.01.006 0 .007.003.012.01l.12.223-.12.239c-.006.006-.007.01-.013.01zm0-.428l-.105.195.103.179.102-.194-.1-.18z"/></g><path d="M4.706 1.734l.187.118.188-.118-.188-.12-.187.12zm.472 0l.19.118.185-.118-.185-.12-.19.12z" clip-path="url(#d)" fill="#f6d849"/><g clip-path="url(#d)"><path d="M5.367 1.87l-.01-.002-.187-.12a.017.017 0 0 1-.007-.014c0-.006.003-.012.008-.015l.187-.12.206.12a.02.02 0 0 1 .007.015.017.017 0 0 1-.007.014l-.188.12-.009.002zm-.156-.137l.156.1.155-.098-.164-.106-.147.104zm-.318.137a.036.036 0 0 1-.01-.002l-.188-.12c-.005-.003-.007-.008-.007-.014s.001-.012.007-.015l.188-.12.205.12c.006.003.011.009.011.015s-.006.011-.011.014l-.185.12-.01.002zm-.156-.137l.156.1.154-.098-.164-.106-.146.104z"/></g><path d="M5.219 1.735a.089.089 0 0 1-.087.091.092.092 0 0 1-.093-.091c0-.049.042-.089.093-.089.049 0 .087.04.087.089z" clip-path="url(#d)" fill="#f6d849"/><g clip-path="url(#d)"><path d="M5.132 1.843a.11.11 0 0 1-.111-.108c0-.059.048-.107.111-.107a.108.108 0 0 1 0 .215zm0-.18a.073.073 0 0 0-.075.073c0 .081.144.081.144 0a.07.07 0 0 0-.069-.073z"/></g><path d="M5.373 2.313a.243.243 0 0 1-.485 0 .242.242 0 1 1 .485 0z" clip-path="url(#d)" fill="#f6d849"/><g clip-path="url(#d)"><path d="M5.132 2.572a.26.26 0 1 1-.005-.521.26.26 0 0 1 .005.521zm0-.484z"/></g><g clip-path="url(#d)"><path d="M5.363 2.389l-.003-.001a1.378 1.378 0 0 0-.462 0c-.01.003-.018-.006-.021-.014 0-.01.006-.019.015-.021a1.45 1.45 0 0 1 .474 0c.008.001.014.011.014.021a.017.017 0 0 1-.017.015zm0-.122h-.002a1.403 1.403 0 0 0-.17-.019l-.017-.169c0-.019.036-.019.036 0v.153c.04-.015.1-.009.156.001.01.002.015.01.015.019-.002.008-.008.015-.018.015zm-.464 0c-.01 0-.018-.006-.018-.015-.003-.01.006-.017.015-.019.054-.01.113-.016.173-.018l-.017-.037v-.1c0-.019.033-.019.033 0v.153c-.074.02-.13.026-.186.036z"/></g><path d="M4.893 2.72c-.024.395-.069.799-.223 1.09l.249-.1c.087-.332.108-.76.133-.963l-.159-.027zm.473 0l-.159.027c.025.203.043.631.133.963l.249.1c-.154-.291-.199-.695-.223-1.09z" clip-path="url(#d)" fill="#f6d849"/><g clip-path="url(#d)"><path d="M4.67 3.827c-.006 0-.008-.001-.014-.006-.004-.005-.004-.013-.003-.02.158-.297.201-.713.222-1.081l.18.011a.988.988 0 0 1-.006.223 4.776 4.776 0 0 1-.112.758l-.261.114-.006.001zm.22-1.089c0 .339-.04.739-.184 1.038l.205-.084c.057-.23.083-.526.102-.742.009-.08.017-.15.021-.205l-.144-.007zm.699 1.089l-.008-.001-.249-.1a4.152 4.152 0 0 1-.12-.765 8.304 8.304 0 0 0-.023-.212l.174-.044c.04.383.084.8.241 1.096.003.007.003.015-.001.02-.003.005-.009.006-.014.006zm-.241-1.106l-.137.044c.021.036.026.108.035.192.019.216.048.51.109.748l.198.073c-.144-.3-.186-.701-.205-1.057z"/></g><path d="M5.13 3.575c-.3 0-.519.141-.531.5-.075-.129-.384-.532-.672-.478-.168.033-.322.27-.294.541-.141-.407-.56-.472-.86-.232.269.221.387.874.614 1.157H6.87c.23-.283.35-.937.617-1.158-.303-.24-.717-.174-.86.232.027-.27-.127-.507-.298-.54-.288-.054-.596.349-.668.478-.013-.359-.234-.5-.531-.5z" clip-path="url(#d)" fill="#f6d849"/><g clip-path="url(#d)"><path d="M6.87 5.08H3.387c-.114-.132-.194-.328-.276-.534-.1-.249-.203-.507-.351-.628a.542.542 0 0 1 .39-.17c.201 0 .367.11.462.298.012-.247.162-.439.314-.466.282-.054.556.288.658.441.03-.299.222-.462.546-.462s.513.163.545.462c.102-.153.384-.494.655-.441.152.027.304.219.317.468a.511.511 0 0 1 .462-.3.64.64 0 0 1 .39.143c-.146.148-.252.406-.351.657-.082.205-.159.4-.261.526-.003.004-.012.006-.017.006zM3.15 3.784a.6.6 0 0 0-.367.135c.154.1.259.362.361.615.08.204.156.396.257.519l3.461-.006c.095-.125.171-.311.252-.513.103-.254.208-.515.362-.643a.812.812 0 0 0-.367-.107c-.21 0-.387.134-.465.36-.002.008-.012.012-.02.012-.01-.002-.015-.011-.012-.019.023-.272-.132-.494-.286-.524-.259-.048-.56.311-.65.471-.001.007-.012.01-.021.009-.007-.002-.012-.009-.012-.018-.015-.399-.288-.481-.513-.481-.227 0-.498.082-.513.481 0 .009-.008.015-.012.018-.009.001-.018-.002-.02-.009-.058-.1-.364-.526-.654-.471-.154.03-.306.252-.279.524 0 .008-.006.017-.012.019-.013 0-.021-.004-.022-.012-.081-.226-.255-.36-.468-.36z"/></g><path d="M6.866 5.063c0 .128-.779.27-1.733.27-.96 0-1.739-.143-1.739-.27 0-.129.779-.197 1.739-.197.954 0 1.733.068 1.733.197z" clip-path="url(#d)"/><g clip-path="url(#d)"><path d="M5.132 5.35c-.938 0-1.757-.134-1.757-.287 0-.199 1.343-.214 1.757-.214.408 0 1.751.016 1.751.214.001.154-.818.287-1.751.287zm0-.467c-1.133 0-1.724.091-1.724.181 0 .102.722.253 1.724.253.996 0 1.715-.152 1.715-.253.001-.09-.587-.181-1.715-.181z"/></g><path d="M5.211 2.646a.08.08 0 0 1-.079.08.08.08 0 0 1-.083-.08.08.08 0 0 1 .083-.082.082.082 0 0 1 .079.082z" clip-path="url(#d)" fill="#f6d849"/><g clip-path="url(#d)"><path d="M5.132 2.745a.098.098 0 0 1-.072-.166c.057-.057.169-.013.169.068a.1.1 0 0 1-.097.098zm0-.163a.084.084 0 0 0-.05.019.071.071 0 0 0-.017.045c0 .07.127.069.127 0a.061.061 0 0 0-.06-.064z"/></g><path d="M5.217 2.821a.086.086 0 0 1-.084.086.085.085 0 0 1-.087-.086c0-.048.036-.086.087-.086.046 0 .084.038.084.085v.001z" clip-path="url(#d)" fill="#f6d849"/><g clip-path="url(#d)"><path d="M5.132 2.925a.104.104 0 1 1 0-.208c.054 0 .1.046.1.102 0 .059-.046.106-.1.106zm0-.172c-.042 0-.069.029-.069.068 0 .076.136.076.136 0a.067.067 0 0 0-.067-.068z"/></g><path d="M5.224 3.01a.094.094 0 0 1-.091.094.092.092 0 0 1-.095-.094c0-.052.039-.094.095-.094.048 0 .091.042.091.094z" clip-path="url(#d)" fill="#f6d849"/><g clip-path="url(#d)"><path d="M5.132 3.121H5.13a.113.113 0 0 1-.113-.111.114.114 0 0 1 .227 0 .115.115 0 0 1-.112.111zm0-.188c-.047.001-.08.035-.08.077 0 .085.155.084.155 0a.075.075 0 0 0-.075-.077z"/></g><path d="M5.237 3.219a.105.105 0 0 1-.105.107.107.107 0 0 1-.111-.107.11.11 0 0 1 .111-.108c.057 0 .105.049.105.108z" clip-path="url(#d)" fill="#f6d849"/><g clip-path="url(#d)"><path d="M5.132 3.344H5.13a.125.125 0 0 1-.123-.125c0-.068.057-.125.126-.125.066 0 .12.056.12.125a.123.123 0 0 1-.121.125zm0-.215a.091.091 0 0 0-.092.09c0 .051.042.091.09.091.048 0 .09-.04.09-.091a.091.091 0 0 0-.088-.09z"/></g><path d="M5.247 3.453a.116.116 0 0 1-.115.118.12.12 0 0 1-.122-.118.12.12 0 0 1 .122-.119c.064 0 .115.055.115.119z" clip-path="url(#d)" fill="#f6d849"/><g clip-path="url(#d)"><path d="M5.132 3.588a.136.136 0 1 1 0-.272c.072 0 .133.061.133.136a.135.135 0 0 1-.133.136zm0-.235a.1.1 0 0 0-.102.1.1.1 0 0 0 .102.101.099.099 0 0 0 .097-.101c0-.055-.043-.1-.097-.1z"/></g><path d="M5.081 3.68c-.011 0-.024.012-.018.033 0 .024.006.068.01.098.005.035.026.026.032-.001.004-.026.001-.044.004-.093 0-.025-.013-.037-.028-.037zm.094 0c-.012 0-.025.012-.025.037 0 .05 0 .067.004.093.006.027.027.036.032.001l.012-.098c.004-.021-.009-.033-.023-.033zm-.177.013c-.012.002-.023.015-.023.026.002.023.008.051.011.085.003.036.028.021.03.002.003-.02.006-.051.003-.091-.003-.014-.008-.021-.015-.022h-.006zm.257 0c-.008.001-.012.008-.015.022-.003.04 0 .071.003.091.003.019.028.034.03-.002.003-.034.01-.062.01-.085 0-.011-.01-.024-.024-.026h-.004zm-.356.041c-.01.003-.021.016-.016.029.006.03.01.062.01.093 0 .025.024.016.024-.001 0-.019.003-.057.003-.091-.001-.025-.012-.033-.021-.03zm.456 0c-.007.003-.015.011-.015.029 0 .035.003.073.003.091.003.017.024.026.024.001 0-.03.007-.063.01-.093.004-.012-.004-.025-.016-.028h-.006zm-1.368.004c-.013-.001-.021.016-.013.036.015.03.03.05.043.082.014.031.033.012.026-.01a.526.526 0 0 0-.031-.085c-.007-.016-.017-.023-.025-.023zm2.285 0c-.008 0-.018.008-.026.023a.562.562 0 0 0-.03.086c-.006.021.012.04.026.009.012-.033.03-.052.043-.082.009-.02 0-.037-.013-.036zm-2.192.001c-.009.003-.016.015-.009.029.011.028.029.058.039.087.01.027.033.02.026-.005-.008-.024-.011-.039-.026-.084-.007-.022-.021-.029-.03-.027zm2.093 0c-.008.002-.019.01-.024.027-.015.045-.018.06-.026.084-.007.025.016.032.026.005.01-.03.028-.059.039-.088.004-.013 0-.026-.008-.028h-.007zm-1.976.022c-.012.002-.022.02-.012.042.007.029.023.057.036.088.012.032.033.026.028.006-.004-.021-.01-.054-.025-.105-.009-.024-.019-.032-.027-.031zm1.868 0c-.011-.001-.021.007-.029.03-.016.051-.021.085-.027.105-.004.02.017.026.032-.006.013-.03.026-.058.033-.086.01-.023 0-.041-.009-.043zm-2.156.016c-.012.002-.022.022-.015.039.01.026.021.034.032.062.012.028.028.006.022-.012-.005-.02-.012-.039-.018-.065-.004-.018-.012-.024-.021-.024zm2.441 0c-.009 0-.017.006-.021.024l-.018.064c-.006.018.01.04.019.012.014-.027.024-.035.036-.061.009-.017-.004-.037-.016-.039zm-1.55.065c-.015 0-.028.018-.025.034.01.028.022.051.03.086.008.03.028.015.026-.006a.37.37 0 0 0-.014-.091c0-.016-.008-.023-.017-.023zm.659 0c-.008 0-.017.007-.019.023a.517.517 0 0 0-.014.091c0 .021.022.037.028.006.008-.035.021-.058.03-.086.002-.016-.01-.034-.025-.034zm-.327.027c-.018 0-.021.023-.024.041a.29.29 0 0 1-.046.147c-.021.028-.054.02-.08.005a.432.432 0 0 1-.077-.049c-.033-.024-.053-.01-.017.042.105.152.22.281.22.531 0 .032.008.042.024.042.01 0 .018-.01.018-.042 0-.249.115-.378.223-.531.036-.052.011-.066-.018-.042-.033.022-.048.033-.076.049-.032.015-.062.022-.083-.005a.278.278 0 0 1-.046-.147c0-.018-.005-.041-.018-.041zm-.816-.037l-.005.001c-.008.001-.014.01-.008.023.003.024.021.068.026.089.007.024.033.018.026-.011-.006-.029-.006-.038-.014-.071-.006-.019-.018-.031-.025-.031zm1.63 0c-.01 0-.025.012-.028.031-.008.033-.008.042-.014.071-.007.029.02.034.026.011.006-.021.021-.066.026-.089.004-.012 0-.021-.008-.023l-.002-.001zm-2.115.01c-.013.001-.024.018-.011.043.012.026.042.06.051.08.014.018.032.005.019-.02-.017-.023-.019-.051-.036-.085-.008-.014-.017-.02-.023-.018zm2.6 0c-.009-.002-.02.004-.026.018-.017.034-.019.062-.036.085-.012.025.008.038.019.019.01-.019.036-.053.05-.08.014-.024.003-.041-.007-.042zm-3.335.076c-.014 0-.021.027-.003.046.021.026.033.042.057.062.021.018.026-.004.018-.022l-.044-.063c-.01-.016-.018-.023-.028-.023zm4.067 0c-.008 0-.018.007-.028.023-.019.029-.033.047-.044.063-.011.018-.003.04.015.022a.235.235 0 0 0 .06-.062c.015-.019.012-.046-.003-.046zm-3.949.025c-.012 0-.021.008-.01.029.012.03.03.064.042.087.012.024.048.031.033-.005-.014-.035-.017-.054-.029-.086a.042.042 0 0 0-.036-.025zm3.83 0a.043.043 0 0 0-.036.024c-.009.033-.012.052-.027.088-.016.036.02.029.033.005.011-.024.029-.057.044-.087.008-.022 0-.03-.014-.03zm-4.056.007c-.018 0-.021.018-.006.03a.72.72 0 0 1 .072.051c.028.024.042.001.026-.017a.208.208 0 0 0-.068-.059.06.06 0 0 0-.024-.005zm4.283 0a.072.072 0 0 0-.024.005.239.239 0 0 0-.069.059c-.015.019-.004.041.027.017a1.06 1.06 0 0 1 .072-.051c.015-.012.012-.03-.006-.03zm-2.534.017c-.011.001-.018.012-.013.027.004.027.015.055.021.083.007.027.036.027.03.003l-.015-.092c-.005-.014-.011-.02-.018-.021h-.005zm.783 0c-.009.001-.016.007-.018.021-.01.038-.013.067-.018.092-.006.024.026.024.033-.003.003-.028.014-.056.018-.083.005-.015-.004-.026-.013-.027H5.52zm-1.479-.046c-.008.002-.013.017-.006.037.032.118.042.18.036.208-.004.028-.021.033-.04.023a.296.296 0 0 1-.068-.037c-.018-.014-.037.002-.012.025a.739.739 0 0 1 .274.407c.008.033.032.036.024 0-.033-.202-.037-.365.011-.47.018-.039 0-.076-.029-.012-.02.041-.052.058-.078.021a1.407 1.407 0 0 1-.089-.178c-.005-.016-.013-.023-.018-.024h-.005zm2.172 0c-.003.001-.01.008-.015.024a1.196 1.196 0 0 1-.093.178c-.025.037-.057.02-.076-.021C6 4.038 5.982 4.075 6 4.114c.048.104.042.268.01.47-.004.036.014.033.022 0a.75.75 0 0 1 .277-.407c.025-.023.006-.039-.014-.025a.314.314 0 0 1-.064.037c-.021.01-.039.005-.043-.023a.584.584 0 0 1 .037-.208c.006-.02 0-.035-.007-.037h-.005zm-2.874.056c-.015 0-.025.008-.021.027.011.03.032.064.036.084.006.019.029.01.024-.017-.006-.026-.006-.042-.01-.072a.032.032 0 0 0-.029-.022zm3.583 0a.035.035 0 0 0-.032.021c-.004.03-.004.046-.01.072-.002.028.019.037.023.018.008-.02.026-.053.035-.084.007-.019-.003-.027-.016-.027zm-3.151-.041c-.012-.003-.015.036-.006.05.018.02.042.045.065.073.021.024.03.003.021-.017-.014-.018-.031-.038-.059-.087-.008-.012-.015-.017-.021-.019zm2.717 0a.04.04 0 0 0-.021.019c-.029.049-.045.069-.059.088-.01.02 0 .041.024.017.021-.028.043-.053.059-.073.012-.015.009-.053-.003-.051zm-3.05.092c-.011-.002-.018.007-.013.025.004.026.013.047.017.072.008.024.023.019.023-.003 0-.023-.004-.048-.007-.073 0-.013-.013-.021-.02-.021zm3.383 0c-.007 0-.018.008-.02.02-.003.026-.007.051-.007.074 0 .022.018.027.024.003.003-.025.012-.046.016-.072.005-.018-.003-.027-.013-.025zm-3.08.034c-.016.001-.029.015-.011.036.026.035.054.058.066.072.011.013.035.007.022-.02-.019-.027-.047-.059-.057-.08-.005-.007-.013-.01-.02-.008zm2.772 0c-.004 0-.012.003-.015.009-.01.02-.038.052-.054.079-.015.027.011.033.021.02.008-.013.039-.037.068-.071.014-.021.001-.035-.014-.037-.001-.002-.003-.002-.006 0zm-3.251.094c-.012 0-.014.01 0 .03.035.048.072.12.075.149.003.031-.012.031-.028.031-.042 0-.061-.031-.1-.039-.039-.01-.044.01-.017.03.141.102.281.216.338.32.022.042.055.057.039.017a.553.553 0 0 1-.058-.29c.014-.064.029-.107.026-.143 0-.036-.021-.033-.03 0a.228.228 0 0 1-.024.065c-.008.01-.042.017-.069-.022a.79.79 0 0 0-.128-.134.054.054 0 0 0-.024-.014zm3.737 0a.063.063 0 0 0-.025.014.878.878 0 0 0-.129.134c-.03.039-.062.033-.069.022a.228.228 0 0 1-.024-.065c-.007-.033-.03-.036-.033 0 0 .037.015.079.028.143a.556.556 0 0 1-.054.291c-.018.04.014.025.036-.017.057-.104.195-.218.339-.32.026-.02.021-.04-.018-.03-.039.007-.058.038-.103.038-.012 0-.028 0-.025-.031a.41.41 0 0 1 .076-.149c.013-.02.01-.03.001-.03z" clip-path="url(#d)"/><path d="M3.471 4.916l.043.142-.043-.142zm.093-.028l.039.144-.039-.144zm.099-.016l.026.148-.026-.148zm.093-.018L3.784 5l-.028-.146zm.117-.012l.024.147-.024-.147zm.126 0l.026.147-.026-.147zm.126-.042l.015.15-.015-.15zm.116.008l.018.149-.018-.149zm.114-.015l.017.149-.017-.149zm.112-.011l.01.149-.01-.149zm.12 0l.009.148-.009-.148zm.111-.009l.008.149-.008-.149zm.12-.008l.006.151-.006-.151zm.14-.002l.004.149-.004-.149zm1.83.153l-.043.142.043-.142zm-.092-.028l-.039.144.039-.144zm-.097-.016l-.029.148.029-.148zm-.096-.018L6.474 5l.029-.146zm-.117-.012l-.024.147.024-.147zm-.126 0l-.029.147.029-.147zM6.137 4.8l-.021.15.021-.15zm-.119.008l-.021.149.021-.149zm-.114-.015l-.016.148.016-.148zm-.112-.011l-.009.148.009-.148zm-.12 0l-.008.148.008-.148zm-.108-.009l-.011.149.011-.149zm-.122-.008l-.007.151.007-.151zm-.141-.002l-.005.149.005-.149zm-.169-.011v.164-.164z" clip-path="url(#d)" fill="#ed00fd"/><g clip-path="url(#d)"><path d="M6.745 5.075h-.006c-.01-.003-.013-.013-.01-.022l.044-.142c.003-.01.01-.015.021-.013.01.004.015.014.012.023l-.044.144a.02.02 0 0 1-.017.01zm-3.231 0c-.007 0-.012-.004-.015-.01l-.046-.144c-.003-.009.003-.019.01-.022.011-.003.021.001.024.012l.043.142c.003.01 0 .019-.011.022h-.005zm3.143-.024l-.006-.001c-.007-.003-.014-.012-.01-.021l.039-.146a.018.018 0 0 1 .021-.011c.01.002.015.011.012.022l-.038.144a.02.02 0 0 1-.018.013zm-3.055 0c-.008 0-.017-.006-.017-.013l-.04-.144c-.003-.011.001-.02.012-.022a.018.018 0 0 1 .021.011l.039.146c.004.009 0 .018-.012.021l-.003.001zm.087-.013c-.008 0-.015-.008-.018-.015l-.026-.147c-.003-.01.006-.019.012-.021.008-.003.018.004.021.015l.029.147c.003.01-.006.019-.014.02l-.004.001zm2.881 0l-.004-.001c-.008-.001-.017-.01-.014-.02l.029-.147c.001-.01.012-.017.021-.015.01.001.015.011.012.021l-.026.146c-.003.008-.01.016-.018.016zm-.096-.021h-.001c-.011-.001-.015-.011-.013-.021l.028-.146c0-.009.01-.015.021-.015.007.003.015.011.012.021l-.03.147c0 .01-.009.014-.017.014zm-2.69 0a.019.019 0 0 1-.018-.014l-.028-.147c-.003-.009.005-.018.012-.02.011 0 .021.006.021.015l.03.146c.003.01-.006.02-.015.021h-.002v-.001zm2.447-.011h-.003c-.007-.001-.015-.01-.012-.019l.026-.148c0-.009.007-.017.019-.014a.02.02 0 0 1 .017.02l-.029.148c0 .007-.007.013-.018.013zm-2.205 0a.019.019 0 0 1-.018-.013l-.024-.148c-.003-.009.003-.018.014-.02.01-.003.017.005.019.014l.026.148c.003.01-.006.019-.012.019h-.005zm2.336 0h-.003c-.01-.001-.015-.01-.015-.019l.022-.148a.02.02 0 0 1 .022-.014c.007.001.014.01.014.02l-.025.148c0 .007-.008.013-.015.013zm-2.465 0c-.007 0-.015-.006-.015-.013l-.027-.148c-.001-.01.006-.019.015-.02.012-.002.02.004.021.013l.024.148c.003.01-.006.019-.015.02h-.003zm2.1-.032c-.01-.003-.015-.01-.015-.02L6 4.804c.002-.007.012-.014.02-.013.011 0 .016.009.016.018l-.021.149c0 .009-.007.016-.018.016zm-1.738 0c-.008 0-.015-.007-.018-.016l-.018-.149c0-.01.004-.018.015-.019.012-.003.018.006.021.014l.018.149c.003.01-.006.019-.017.019.001.001.001.002-.001.002zm1.857-.008h-.003a.02.02 0 0 1-.015-.019l.019-.149c0-.01.003-.016.022-.015.007 0 .012.008.012.018l-.017.149c0 .01-.008.016-.018.016zm-1.976 0c-.007 0-.012-.006-.015-.016l-.018-.149c-.003-.01.006-.018.015-.018.017-.001.018.005.018.015l.018.149c.003.01-.006.017-.012.019H4.14zm1.748-.008h-.003c-.008-.001-.017-.008-.017-.018l.019-.149c.001-.009.007-.019.019-.016a.02.02 0 0 1 .017.02l-.019.148c-.001.009-.007.015-.016.015zm-1.517 0c-.007 0-.015-.006-.017-.015l-.019-.148a.02.02 0 0 1 .017-.02c.01-.001.017.006.017.016l.022.148c.001.011-.008.018-.017.019h-.003zm1.293-.01c-.011 0-.018-.009-.018-.019l.007-.148c.003-.01.006-.017.022-.017.01 0 .014.008.014.018l-.007.15c0 .009-.007.016-.018.016zm.119 0a.019.019 0 0 1-.019-.019l.01-.149c.003-.01.018-.016.021-.017.007 0 .015.008.015.018l-.011.15c0 .01-.007.017-.016.017zm-1.306 0c-.01 0-.017-.006-.017-.016l-.011-.15c0-.01.006-.018.015-.018.018 0 .018.006.021.016l.011.149c0 .01-.008.019-.019.019zm.119 0c-.008 0-.015-.007-.015-.016l-.011-.15c0-.01.008-.018.018-.018.017.001.017.007.018.017l.008.148c0 .01-.009.019-.018.019zm.957-.007a.02.02 0 0 1-.018-.02l.008-.149c0-.008.01-.01.021-.016.007 0 .015.008.015.018l-.008.15c0 .01-.007.017-.018.017zm-.847 0c-.011 0-.018-.007-.018-.017l-.008-.15c0-.01.006-.018.015-.018.014.006.018.008.021.016l.006.149c.002.011-.006.019-.016.02zm.426-.007c-.014 0-.021-.008-.021-.018v-.164c0-.019.036-.019.036 0v.164c.001.01-.008.018-.015.018zm.303 0c-.01-.001-.018-.01-.018-.019l.008-.15c0-.008.004-.012.017-.017.008 0 .017.008.017.019l-.006.149a.019.019 0 0 1-.018.018zm-.611 0c-.007 0-.015-.009-.018-.018L4.8 4.767c0-.011.008-.019.018-.019.014.004.015.008.015.017l.008.15c.001.009-.008.017-.017.019zm.472-.005h-.002a.018.018 0 0 1-.015-.018l.007-.149c0-.01.01-.016.018-.017.008.001.015.008.015.019l-.004.149c-.003.008-.011.016-.019.016zm-.334 0c-.01 0-.018-.008-.018-.016l-.005-.149c0-.011.008-.018.017-.019.01.001.019.008.019.017l.005.149c0 .01-.007.017-.015.018h-.003z"/></g></g></svg>