<svg xmlns="http://www.w3.org/2000/svg" xmlns:xlink="http://www.w3.org/1999/xlink" width="23.771" height="13.868" viewBox="0 0 23.771 13.868"><defs><path id="a" d="M0 0h23.771v13.868H0z"/></defs><clipPath id="b"><use xlink:href="#a" overflow="visible"/></clipPath><path clip-path="url(#b)" fill="#c0001a" d="M0 0h23.771v13.868H0z"/><path d="M20.206 13.868h3.565L11.886 6.933l8.32 6.935zM0 0l11.886 6.933L3.566 0H0zm10.696 13.868h2.379l-1.19-6.934-1.189 6.934zm0-13.868l1.19 6.933L13.076 0h-2.38z" clip-path="url(#b)" fill="#f8e72a"/><path d="M0 13.868h3.566l8.32-6.934L0 13.868zM20.206 0l-8.32 6.933L23.771 0h-3.565zM0 8.321l11.886-1.388L0 5.548v2.773zm11.886-1.388l11.885 1.388V5.548L11.886 6.933z" clip-path="url(#b)" fill="#f8e72a"/><g clip-path="url(#b)"><defs><path id="c" d="M0 0h23.771v13.868H0z"/></defs><clipPath id="d"><use xlink:href="#c" overflow="visible"/></clipPath><path d="M11.886 4.458a2.475 2.475 0 0 1 2.476 2.476 2.478 2.478 0 1 1-2.476-2.476" clip-path="url(#d)" fill="#c0001a"/><path d="M11.886 4.952a1.98 1.98 0 1 1 0 3.96 1.98 1.98 0 0 1 0-3.96" clip-path="url(#d)" fill="#f8e72a"/></g></svg>