<svg xmlns="http://www.w3.org/2000/svg" xmlns:xlink="http://www.w3.org/1999/xlink" width="23.772" height="13.868" viewBox="0 0 23.772 13.868"><defs><path id="a" d="M0 0h23.772v13.868H0z"/></defs><clipPath id="b"><use xlink:href="#a" overflow="visible"/></clipPath><path clip-path="url(#b)" fill="#bd0034" d="M11.886 0h11.886v13.868H11.886z"/><path clip-path="url(#b)" fill="#fff" d="M0 0h11.886v13.868H0z"/><g clip-path="url(#b)"><defs><path id="c" d="M0 0h23.772v13.868H0z"/></defs><clipPath id="d"><use xlink:href="#c" overflow="visible"/></clipPath><path d="M2.747 2.112c0 .021-.024.04-.054.04s-.057-.019-.057-.04c0-.022.026-.04.057-.04.031 0 .054.018.054.04z" clip-path="url(#d)" fill="#efecec"/><path d="M.99 1.917v1.022h1.02c0 .169.173.34.342.34V4.3h1.02V3.279c.17 0 .342-.171.342-.34h1.022V1.917H3.713c0-.17-.172-.339-.342-.339V.555h-1.02v1.022c-.169 0-.342.169-.342.339H.99z" clip-path="url(#d)" fill="#d30038"/><path d="M1.025 1.951v.953h1.021c0 .17.17.341.339.341v1.021h.953V3.245a.367.367 0 0 0 .342-.341H4.7v-.953H3.68c0-.171-.17-.34-.342-.34V.589h-.953v1.022a.365.365 0 0 0-.339.34H1.025z" clip-path="url(#d)" fill="#bd0034"/><path d="M1.058 1.985v.885H2.08c0 .172.169.34.338.34v1.021h.887V3.21c.169 0 .342-.169.342-.34h1.02v-.885h-1.02c0-.172-.173-.341-.342-.341V.623h-.887v1.021c-.169 0-.338.169-.338.341H1.058z" clip-path="url(#d)" fill="#91857c"/><path d="M1.091 2.019v.818h1.022c0 .169.169.34.34.34v1.022h.818V3.176c.169 0 .339-.17.339-.34h1.021v-.817h-1.02c0-.171-.17-.341-.339-.341V.658h-.818v1.02c-.172 0-.34.17-.34.341H1.091z" clip-path="url(#d)" fill="#cacaca"/><path d="M2.462 1.594c.06.059.011.206-.108.325-.12.12-.267.169-.326.108-.058-.059-.01-.205.108-.325.122-.12.267-.167.326-.108z" clip-path="url(#d)" fill="#cecece"/><path d="M2.39 1.666c.059.06.044.173-.036.252-.08.081-.192.097-.254.038-.058-.061-.043-.174.036-.254.083-.079.195-.095.254-.036z" clip-path="url(#d)" fill="#91857c"/><path clip-path="url(#d)" fill="#cecece" d="M2.088 1.847l.026-.024.094.049-.046-.098.024-.023.097.192z"/><path transform="rotate(134.149 2.318 1.763)" clip-path="url(#d)" fill="#cecece" d="M2.301 1.661h.034v.204h-.034z"/><path d="M3.695 2.027c-.06.061-.206.012-.326-.108-.118-.119-.166-.266-.108-.325.059-.059.206-.012.326.108.118.12.17.266.108.325z" clip-path="url(#d)" fill="#cecece"/><path d="M3.623 1.956c-.059.059-.171.043-.254-.037-.077-.079-.095-.193-.034-.253.059-.059.173-.043.252.036.079.08.096.193.036.254z" clip-path="url(#d)" fill="#91857c"/><path clip-path="url(#d)" fill="#cecece" d="M3.443 1.655l.024.023-.05.096.098-.048.024.025-.194.096z"/><path transform="rotate(-134.999 3.527 1.884)" clip-path="url(#d)" fill="#cecece" d="M3.51 1.782h.033v.204H3.51z"/><path d="M3.261 3.261c-.058-.059-.01-.206.108-.326.12-.119.267-.167.326-.109.062.061.01.206-.108.326-.12.12-.267.168-.326.109z" clip-path="url(#d)" fill="#cecece"/><path d="M3.335 3.189c-.061-.06-.043-.172.033-.253.084-.08.196-.096.255-.036.059.06.043.173-.036.253-.079.08-.192.096-.252.036z" clip-path="url(#d)" fill="#91857c"/><path clip-path="url(#d)" fill="#cecece" d="M3.635 3.009l-.024.023-.096-.049.049.097-.025.024-.096-.192z"/><path transform="rotate(-46.686 3.406 3.092)" clip-path="url(#d)" fill="#cecece" d="M3.39 2.99h.032v.204H3.39z"/><path d="M2.028 2.827c.059-.059.206-.01.326.109.119.12.167.266.108.326-.059.058-.204.01-.326-.109-.118-.12-.166-.265-.108-.326z" clip-path="url(#d)" fill="#cecece"/><path d="M2.1 2.9c.062-.06.174-.044.254.036.081.08.096.193.036.253-.059.06-.172.044-.255-.036-.078-.081-.093-.193-.035-.253z" clip-path="url(#d)" fill="#91857c"/><path clip-path="url(#d)" fill="#cecece" d="M2.283 3.2l-.025-.024.048-.096-.098.049-.022-.025.192-.095z"/><path transform="rotate(47.626 2.197 2.972)" clip-path="url(#d)" fill="#cecece" d="M2.18 2.87h.033v.203H2.18z"/><g clip-path="url(#d)"><path d="M2.864 3.149zm0-1.43a.708.708 0 1 0-.003 1.417.708.708 0 0 0 .003-1.417z" fill="#91857c"/></g><g clip-path="url(#d)"><path d="M2.864 2.978a.554.554 0 0 1-.553-.551.552.552 0 0 1 1.102 0 .551.551 0 0 1-.549.551zm0-1.09a.54.54 0 1 0-.001 1.079.54.54 0 0 0 .001-1.079z" fill="#91857c"/></g><path d="M2.624 3.006c0 .012-.007.024-.018.03s-.024.006-.033 0a.034.034 0 0 1-.018-.03c0-.012.007-.024.018-.029a.032.032 0 0 1 .033 0 .033.033 0 0 1 .018.029zm.544 0a.04.04 0 0 1-.015.03.038.038 0 0 1-.036 0 .036.036 0 0 1-.018-.03c0-.012.008-.024.018-.029a.038.038 0 0 1 .036 0 .038.038 0 0 1 .015.029zm-.328 0v.035h-.046c-.047 0-.047.036 0 .036h.046v.035c0 .037.039.042.042.003l.004-.037h.044c.046 0 .046-.036 0-.036h-.044v-.036c0-.035-.046-.035-.046 0z" clip-path="url(#d)"/><path d="M3.251 2.532c.012-.004.03-.002.03-.002s.003.009-.003.012a.097.097 0 0 0 .026.003l-.012.007c.007.001.017.011.017.011s-.017.003-.022-.001c.003.01.003.018.003.018s-.029-.008-.039-.026v-.022z" clip-path="url(#d)" fill="#91857c"/><g clip-path="url(#d)"><path d="M3.251 2.532c.012-.004.03-.002.03-.002s.003.009-.003.012a.097.097 0 0 0 .026.003l-.012.007c.007.001.017.011.017.011s-.017.003-.022-.001c.003.01.003.018.003.018s-.029-.008-.039-.026v-.022z" fill="none"/></g><path d="M3.204 2.516c-.007.016-.055-.014-.055-.014s.019.034.054.038l.001-.024z" clip-path="url(#d)" fill="#91857c"/><g clip-path="url(#d)"><path d="M3.204 2.516c-.007.016-.055-.014-.055-.014s.019.034.054.038l.001-.024z" fill="none"/></g><path clip-path="url(#d)" fill="#91857c" d="M2.586 2.834h.581l.042-.035-.074-.041-.115-.038-.046-.026-.086.005-.071.037-.097.011-.024.027-.072.007-.113-.003.188.03-.156-.008z"/><g clip-path="url(#d)"><path d="M3.167 2.837h-.581l-.043-.035.159.003-.191-.024.185-.009.021-.025.1-.014.072-.037.086-.005.048.025.19.08-.046.041zm-.624-.034l.043.03.578-.001.046-.035-.235-.1-.087.004-.069.037-.1.012-.02.027-.075.005-.113-.001.191.024-.159-.002z"/></g><path d="M2.9 2.668c-.075-.04-.095.057-.129.08.043.008.075-.032.112-.051.026.075.069.025.069.025s.044.072.107.039c.018.012.033.001.033.001s.023.003.028-.007c.011.005.024-.01.024-.01s.025.001.03-.012c.036.006.086-.076.086-.076l.015-.029.022-.004s0-.014-.01-.013c0-.01-.008-.014-.018-.012 0-.005-.008-.009-.008-.009-.021.005-.021.057-.021.057s-.036.028-.049.035c0-.031-.051-.071-.04-.091.01-.019.043.03.072.021.028-.009.043-.046.043-.074l-.028-.053-.017-.001-.017-.038s-.036.021-.033.041c0 .019.036.035.036.035s-.019.013-.04.007c-.003.021.022.016.033.016.004.013.018.022.018.022s.007.021-.014.019c-.022 0-.051-.053-.082-.029-.033.025.015.071.015.071s-.027.015-.048.056c-.069-.061-.111-.033-.189-.016z" clip-path="url(#d)" fill="#91857c"/><g clip-path="url(#d)"><path d="M3.027 2.772c-.043 0-.072-.04-.076-.047 0 .008-.048.028-.069-.027a1.07 1.07 0 0 1-.029.022c-.023.016-.043.033-.07.033l-.002-.004a.142.142 0 0 0 .066-.034c.014-.008.023-.015.035-.021.027.056.069.026.069.026.004 0 .056.065.108.037l.036.001.028-.005c.021-.012.044-.012.048-.022.042-.001.086-.075.086-.075l.018-.03-.006.002-.003-.03c-.018-.003-.024.035-.024.05-.002.001-.035.029-.051.036-.004-.016-.015-.033-.024-.048-.014-.018-.027-.035-.018-.046l.033.005a.053.053 0 0 0 .033.015c.03-.01.046-.043.048-.073a.971.971 0 0 0-.025-.048.142.142 0 0 1 .031.047c0 .033-.018.071-.046.079a.104.104 0 0 1-.047-.015c-.027.001-.018.017-.005.032.011.017.024.035.024.05a.429.429 0 0 1 .044-.037c0-.004 0-.053.022-.058l.026.022-.026.05c0 .003-.046.077-.084.077-.006.011-.03.012-.033.012l-.042.017-.043-.004v.003a.059.059 0 0 1-.032.008zm-.246-.03a.14.14 0 0 1 .015-.03c.023-.035.054-.074.104-.047l.039-.009c.057-.016.102-.019.153.026a.097.097 0 0 1 .043-.055c-.003 0-.028-.026-.025-.048l.03-.03c.012 0 .028.01.039.02.01.008.018.016.025.016.011-.015-.001-.023-.007-.035l.024.017-.018.023c-.009-.001-.016-.009-.027-.016-.012-.01-.024-.02-.036-.02l-.025.024c-.002.022.025.048.025.048-.003.006-.03.021-.045.059-.06-.041-.099-.039-.157-.024l-.038.008c-.057-.025-.078.013-.101.047a.071.071 0 0 1-.018.026zm.406-.209l.015-.009c-.008-.003-.034-.019-.034-.037-.001-.02.035-.043.035-.043l.007.01-.007-.008c-.006.007-.029.026-.029.04 0 .014.024.028.033.033v.003l-.003.003v-.001c-.001.004-.01.008-.017.009z"/></g><path d="M2.792 2.565c.03.028.01.075.022.084.011.01.029-.005.029-.005.033.009.087-.009.087-.009.025.014.015-.008.03-.006.014.035.057.028.057.028s-.039-.042-.065-.053a.208.208 0 0 1-.084.011c-.012-.001-.004-.015-.01-.022.021-.021.006-.071-.008-.089-.043-.031-.1.021-.058.061z" clip-path="url(#d)" fill="#91857c"/><g clip-path="url(#d)"><path d="M3.01 2.66c-.017 0-.042-.004-.053-.03-.027.008-.063.019-.093.019l-.039.007-.018-.031c.003-.019.003-.041-.015-.057-.017-.014-.021-.032-.017-.047a.052.052 0 0 1 .077-.019c.014.022.029.073.008.093.04.019.078.015.091.006a.3.3 0 0 1 .069.055l-.01.004zm-.05-.034a.055.055 0 0 0 .05.028v.003l.007-.003c-.007 0-.043-.037-.066-.048-.013.011-.051.013-.072.013l-.024-.029c.021-.019.003-.068-.008-.084-.019-.014-.055-.006-.064.017-.008.013-.002.028.013.04.018.018.015.043.015.062l.014.028.015-.01c.054-.001.09-.011.09-.011l.03-.006z"/></g><path d="M2.594 2.48c-.039.01-.104-.047-.134-.026-.03.023-.018.078.003.107.021.027-.025.036-.042.053-.013.014.005.032.005.032l.012.008-.001.022.007.024s.006.006.01-.001c.006.006 0 .024.017.026-.006-.011.004-.043.004-.043s.026.001.035-.011c.007-.012-.008-.038-.008-.038h.01c-.01-.005-.012-.024-.012-.024s.036-.012.036-.04c0-.029-.061-.06-.039-.075.024-.017.066.042.105.015.036-.026.014 0 .014 0s.015-.038-.022-.029z" clip-path="url(#d)" fill="#91857c"/><g clip-path="url(#d)"><path d="M2.475 2.729l-.01-.002-.028-.051v-.007.007l.001-.001.026.042c0-.014.006-.033.006-.037.019-.001.033-.005.036-.01.004-.008-.003-.028-.008-.034l-.003-.03s.036-.011.036-.037c0-.012-.012-.026-.022-.038-.013-.012-.02-.022-.02-.031l.018-.006c-.014.013-.003.022.004.033.014.012.026.026.026.042 0 .029-.039.042-.039.042.008.025.021.05.012.062-.004.01-.022.011-.033.011-.003.008-.01.031-.004.039l.002.006zm-.043-.078l-.008-.002c-.006-.009-.016-.025-.006-.038.035-.021.044-.027.047-.036a.214.214 0 0 1-.026-.069c-.002-.024.005-.043.018-.054.036-.006.054.003.072.011.021.008.039.015.057.015l.031.002-.008.016-.023-.011a.155.155 0 0 1-.057-.017.162.162 0 0 0-.051-.016c-.034.017-.034.037-.034.053.003.019.01.04.021.054.003.029-.011.036-.024.043-.027.026-.012.041-.012.042l.003.007z"/></g><path d="M2.789 2.079c-.051-.023-.155-.023-.21-.053a.045.045 0 0 0-.039.03c-.026-.002-.044.041-.042.049-.048-.02-.069.055-.054.071-.041.002-.036.055-.038.069-.013.032.002.042.029.032.002.013-.003.02-.014.023.069.081.111-.05.173-.05.076-.022.108-.06.108-.06l.03.003.057-.114z" clip-path="url(#d)" fill="#91857c"/><g clip-path="url(#d)"><path d="M2.465 2.33c-.015 0-.028-.01-.047-.027l-.016-.026c-.006-.008-.006-.019.001-.033.003-.033.006-.068.042-.071-.008-.003-.008-.023-.003-.042.011-.02.024-.035.044-.033.01 0 .012-.012.021-.021.004-.01.015-.025.033-.025-.003-.006.01-.027.039-.027.03.015.076.021.118.029.036.006.069.011.093.021l-.054.12-.034-.002c.001 0-.029.037-.108.06-.021 0-.042.02-.065.039-.018.018-.039.038-.064.038zm-.057-.058l.029.003-.016.028c.042.03.072.016.105-.016.021-.02.042-.04.068-.04.073-.021.105-.06.105-.06l.033.004.054-.115a.864.864 0 0 0-.09-.017.501.501 0 0 1-.12-.03c-.021.002-.033.02-.033.026a.051.051 0 0 0-.032.025l.003.007-.015.02c-.028-.002-.045.008-.052.027-.006.017-.006.035 0 .042-.03.006-.036.037-.036.057l-.005.041.002-.002z"/></g><path d="M2.927 2.019a.074.074 0 0 1-.075.075.074.074 0 0 1-.075-.075c0-.04.033-.075.075-.075.042 0 .075.035.075.075z" clip-path="url(#d)" fill="#91857c"/><g clip-path="url(#d)"><path d="M2.853 2.097a.078.078 0 0 1-.077-.077c0-.085.155-.085.155 0a.078.078 0 0 1-.078.077zm0-.149a.073.073 0 0 0-.072.071c0 .079.141.079.141 0 0-.039-.028-.071-.069-.071z"/></g><path d="M2.723 2.604c-.047-.01-.125-.056-.129-.118.04-.169.261-.081.282-.208a.367.367 0 0 1 .057-.235c.019-.028.048-.035.048-.035s.006.018-.003.031c.036-.006.087.015.12.017.012.02.012.029.009.041-.003.013-.018.008-.018.008-.008.009-.018.018-.041.014-.018.012-.06.017-.06.017s.083.085.071.111c.015.008.04.044.04.044s.054-.029.072-.055c.032 0 .086.034.111.037l.062.053s-.039.023-.054-.009c-.021 0-.062-.046-.122-.033-.001.053-.061.091-.061.091s.054-.007.084.01l.077.062.039.068s-.036.008-.051-.041c-.013.038-.013-.024-.067-.052-.018.001-.025.003-.04-.008-.039.01-.086.032-.142.026-.038.013-.067.046-.107.064-.039.018-.053.008-.053.008l-.03.001c-.006.021-.003.05-.021.055.011.013-.007.064-.028.072.007.035.036.044.064.061 0 0 .026-.012.044.003.015.015.03.057.03.057s-.033.003-.042-.001c-.011-.006-.014-.017-.024-.013-.08-.07-.12-.042-.129-.057-.008-.017.018-.059.012-.086z" clip-path="url(#d)" fill="#91857c"/><g clip-path="url(#d)"><path d="M2.888 2.765l-.024-.003c-.081-.059-.117-.062-.135-.063-.006-.003-.007-.006-.01-.01.033.006.069.01.12.055l.048.017.018-.003c-.001-.001-.011-.026-.023-.042a.104.104 0 0 1 .028.045l-.022.004zm-.018-.058l-.04-.004c-.035-.02-.057-.033-.065-.062a.087.087 0 0 0 .031-.051v-.001c-.004.03-.015.048-.028.054.01.024.03.035.054.048l.03.003a.044.044 0 0 1 .018.013zm-.156-.025c-.006-.01-.003-.019 0-.029a.086.086 0 0 0 .006-.049c-.05-.007-.125-.056-.132-.118.024-.093.098-.11.167-.126.055-.013.108-.024.118-.082a.376.376 0 0 1 .057-.237c.022-.028.048-.035.051-.036.003.001.006.01.006.019l-.006-.017v.003s-.026.008-.046.033a.366.366 0 0 0-.056.235c-.011.062-.065.075-.123.088-.065.016-.138.033-.162.12.007.059.079.106.13.115.006.017 0 .036-.004.053a.142.142 0 0 0-.006.028zm.144-.164l-.023-.002.012-.007a.084.084 0 0 0 .053-.007.648.648 0 0 0 .048-.031c.018-.013.036-.026.059-.033a.271.271 0 0 0 .113-.019l.029-.008.04.008a.096.096 0 0 1 .044.043c-.015-.014-.026-.028-.046-.038l-.038-.011.003.003-.029.01a.363.363 0 0 1-.096.018c-.04.006-.056.019-.076.032a.348.348 0 0 1-.048.03.125.125 0 0 1-.045.012zm.441-.004a.045.045 0 0 1-.036-.019.064.064 0 0 0 .042.017l-.039-.064s-.046-.035-.075-.06a.133.133 0 0 0-.057-.012l-.004-.001a.113.113 0 0 1 .064.007c.029.026.075.062.075.062l.04.069-.01.001zm-.168-.151c.007-.016.033-.044.033-.079.057-.004.079.008.1.019l.026.014v-.004l.025.017-.036-.056c-.01-.001-.025-.008-.043-.016a.176.176 0 0 0-.065-.019.23.23 0 0 1-.072.054c-.003-.001-.028-.036-.043-.045.007-.023-.046-.088-.068-.111.003-.004.042-.008.057-.02.029.003.036-.006.044-.012.018-.019.018-.027.007-.047a.123.123 0 0 1-.046-.008c-.02-.005-.04-.01-.062-.01v-.002a.191.191 0 0 1 .065.007c.015.003.033.008.046.008.014.023.014.032.011.044-.026.018-.033.026-.051.026a.321.321 0 0 1-.068.015c.008.004.083.083.068.109.018.003.04.038.04.042.003-.003.054-.031.069-.055a.187.187 0 0 1 .071.02c.015.007.03.014.043.016l.064.052c-.001.01-.046.022-.058-.005-.007.002-.014-.003-.027-.009-.021-.009-.043-.024-.07-.024a.237.237 0 0 1-.06.079z"/></g><path d="M2.534 2.294c.006-.004.034.006.034.006l.051.033.105.068.039.055-.067-.022-.095-.08-.049-.033s-.023-.021-.018-.027z" clip-path="url(#d)" fill="#91857c"/><g clip-path="url(#d)"><path d="M2.771 2.462l-.075-.025-.146-.114c-.007-.009-.024-.024-.018-.031.018-.001.036.005.036.007l.159.1.044.063zm-.231-.169l-.003.003.159.136.059.018-.031-.046-.184-.111z"/></g><path d="M3.161 2.469c-.036-.009-.126.1-.126.1l.066.073c.001 0 .003-.126.06-.173z" clip-path="url(#d)" fill="#91857c"/><g clip-path="url(#d)"><path d="M3.104 2.649l-.072-.079c.003-.008.084-.106.123-.106 0 .001 0 .003-.003.003-.04.01-.115.102-.115.103l.061.065a.3.3 0 0 1 .042-.148.4.4 0 0 0-.036.155v.007z"/></g><path d="M2.717 2.162c-.021.027-.024.078.003.099.003.031.028.094.048.1a.535.535 0 0 0 .151.021c-.007.059.039.105.08.136 0 .005 0 .011.006.017.005.007.025.008.027.004.011.013.057.019.059.013.005-.004-.068-.056-.084-.072a.381.381 0 0 1-.047-.128c-.036-.042-.096-.042-.096-.042l.003-.083.001-.095-.033-.017s.008-.003.011-.007c.007.004.022-.013.024-.018.009.004.016.004.016 0 .003-.004.003-.021.008-.029.024-.021-.006-.068-.044-.07-.039-.001-.046.045-.046.049.006.015.003.022 0 .025-.003.004-.015.012-.015.012s-.024-.01-.047 0c-.025.01-.055.024-.058.04-.011.002-.03.016-.033.03-.011-.001-.024.006-.047.043-.042.017-.042.102-.042.102s-.01.016-.01.024c-.002.009.003.016.009.014 0 .006.007.011.01.008.003.006.011.01.015.008 0 .004.012.003.015 0 0-.003-.003-.023 0-.024.003-.001.014.008.018.006.003-.003 0-.011-.001-.014-.003-.003-.014-.006-.017-.02-.003-.013.008-.032.008-.032s.044-.033.046-.063c.033.004.051-.026.062-.037z" clip-path="url(#d)" fill="#91857c"/><g clip-path="url(#d)"><path d="M3.081 2.559c-.012 0-.043-.005-.051-.017a.17.17 0 0 0 .051.01v.003l.008-.005c0-.003-.03-.026-.048-.04a.202.202 0 0 1-.036-.027.44.44 0 0 1-.047-.13c-.033-.039-.091-.04-.094-.04v-.086l.003-.095-.035-.014.003-.003.057-.055c.008-.009.01-.02.005-.033a.052.052 0 0 0-.047-.033c-.012 0-.022.004-.028.012a.063.063 0 0 0-.015.034l-.021.04-.044-.003v.003c-.022.008-.054.022-.055.038-.014.003-.032.018-.033.03-.017.002-.032.016-.048.043-.039.017-.042.1-.042.1l-.002.016v-.015h-.001c0-.003.001-.087.04-.105.018-.03.033-.044.047-.044.003-.012.022-.026.036-.028 0-.016.03-.03.055-.039l.05.002-.003-.003.015-.034c-.002-.004.003-.022.013-.036a.046.046 0 0 1 .036-.016c.026 0 .047.019.053.037.003.014.001.028-.009.037l-.012.033c-.012.001-.024.016-.035.016l.023.018-.004.18c.004-.003.061 0 .097.041a.435.435 0 0 0 .047.129l.033.026c.046.036.056.044.052.049l-.014.004zM2.9 2.383a.585.585 0 0 1-.131-.019c-.022-.007-.049-.071-.052-.103-.021-.016-.024-.054-.014-.082-.01.014-.022.024-.043.024-.005.027-.048.06-.051.062 0 0-.008.017-.006.028l.019.037-.03.021-.03-.023.022.015.018-.025c-.007-.037.002-.056.004-.057 0-.001.042-.035.048-.062.032-.003.044-.02.054-.033v.002c0-.002.003-.005.006-.008l-.008.015c-.007.025-.007.066.017.083.001.035.03.095.048.1a.652.652 0 0 0 .133.024v.001H2.9z"/></g><path d="M2.64 2.041c.011-.025.047-.022.047-.022s.012-.033.061-.012c.018-.014.064.006.064.006s.018-.024.041-.022a.055.055 0 0 1 .05.052c-.024.005-.068-.02-.099-.013-.018.011-.046.021-.057.037-.03.003-.06-.027-.107-.026z" clip-path="url(#d)" fill="#91857c"/><g clip-path="url(#d)"><path d="M2.742 2.07c-.012 0-.025-.006-.039-.011a.13.13 0 0 0-.058-.014v-.002a.1.1 0 0 1 .058.01c.017.006.029.011.039.011v.003l.006-.003c.006-.012.024-.019.039-.028l.03-.01c.014 0 .029.004.044.008.012.003.022.007.033.007-.008-.033-.018-.044-.041-.047a.065.065 0 0 0-.039.019c-.003.002-.028-.009-.049-.009l-.045-.002c-.024 0-.032.018-.032.018-.013.003-.035.005-.043.02.006-.022.03-.024.039-.024 0 0 .022-.03.064-.012a.132.132 0 0 1 .064.004c0-.001.017-.02.039-.02.028.003.04.016.049.027l.004.028a.107.107 0 0 1-.046-.003.16.16 0 0 0-.041-.007l-.028.01a.111.111 0 0 0-.042.026l-.005.001z"/></g><path d="M2.729 2.082c.012-.007.039-.019.057-.003a.334.334 0 0 0 .046.038l.034.013.015.009-.011.151c-.03-.032-.059-.036-.078-.074-.014-.014-.003-.052-.024-.078-.021-.025-.041-.041-.039-.056z" clip-path="url(#d)" fill="#91857c"/><g clip-path="url(#d)"><path d="M2.873 2.296l-.005-.004a.12.12 0 0 0-.033-.028.127.127 0 0 1-.046-.046c-.006-.007-.008-.018-.008-.031-.003-.015-.006-.033-.016-.046-.03-.035-.042-.047-.036-.06.006-.004.018-.013.036-.013.006.004.01.008.018.012-.03-.006-.042 0-.051.005-.003.007.01.019.024.035.028.033.028.05.03.068.003.012.003.021.008.028.012.023.028.033.043.044.01.007.021.015.03.025l.006-.047.003.052-.003.006z"/></g><path d="M2.81 2.124s.018-.003.021.001c.006.003.012.005.015.009.004.003.01.006.01.01.008.002.008.013.008.013l-.006.009s-.006-.007-.008-.012c-.003-.004-.013-.005-.015-.011-.007-.001-.01-.003-.012-.01-.006 0-.013-.009-.013-.009z" clip-path="url(#d)" fill="#91857c"/><g clip-path="url(#d)"><path d="M2.81 2.124s.018-.003.021.001c.006.003.012.005.015.009.004.003.01.006.01.01.008.002.008.013.008.013l-.006.009s-.006-.007-.008-.012c-.003-.004-.013-.005-.015-.011-.007-.001-.01-.003-.012-.01-.006 0-.013-.009-.013-.009z" fill="none"/></g><path d="M2.955 2.026c-.01-.011-.028-.001-.028-.001l-.045.078-.018.018-.003.061.015.058-.006.044s.024-.02.026-.033c.004-.012-.008-.049-.008-.049s-.012-.024.003-.068c.015-.043.054-.08.064-.108z" clip-path="url(#d)" fill="#91857c"/><g clip-path="url(#d)"><path d="M2.868 2.292l.005-.052-.015-.057v-.064l.024-.018.046-.079.028.002c-.004.017-.014.032-.023.048a.296.296 0 0 0-.039.064c-.015.04-.003.064-.003.066 0 .003.011.038.008.05-.002.013-.026.034-.026.035l-.005.005zm.084-.267l-.066.08-.022.078.015.056-.003.038c.007-.007.018-.019.018-.027.003-.009-.006-.038-.008-.047 0 0-.015-.025.003-.07a.338.338 0 0 1 .038-.064c.011-.017.021-.031.025-.044z"/></g><path d="M3.066 2.097s-.069.104-.187.14c-.032.008-.021-.077-.021-.077l-.008.002s-.019.082.026.084c.118-.024.205-.149.205-.149h-.015z" clip-path="url(#d)" fill="#91857c"/><g clip-path="url(#d)"><path d="M2.876 2.249l-.024-.01c-.017-.023-.005-.075-.005-.077l.006.01c-.003.017-.007.049.005.064l.018.011v-.004a.358.358 0 0 0 .18-.116.329.329 0 0 1-.18.122zm.006-.01c-.006-.001-.009-.005-.012-.009.123-.034.192-.134.195-.134.003.001.003.008-.003.016a.42.42 0 0 1-.18.127z"/></g><path d="M3.117 2.689s-.01.008-.025 0c-.008-.018-.029-.02-.029-.02s-.01-.037-.033-.026c-.003-.019-.025-.01-.025-.01s0-.027-.026-.023c.008-.033-.036-.03-.036-.03s0-.035-.066-.029c.141-.063.254.1.254.1l-.014.038z" clip-path="url(#d)" fill="#91857c"/><g clip-path="url(#d)"><path d="M3.089 2.691c-.008-.016-.026-.018-.026-.018-.003-.004-.01-.024-.02-.029l-.005.003-.036-.014-.006.002-.02-.025c-.01-.028-.033-.028-.033-.028-.024-.027-.039-.031-.067-.028.141-.068.254.093.256.095.003.004-.082-.11-.19-.11a.132.132 0 0 0-.064.015c.026-.009.044-.004.057.006.007.018.033.016.043.029l.046.042c.035.014.042.036.042.038 0-.001.021.001.029.018l.025.004h-.031z"/></g><path d="M3.185 2.702s.03.036.048.036c.018 0 .018-.035.018-.035s.006.015.015.011c0 .011.01.015.01.015s-.03.068-.112.003l.021-.03z" clip-path="url(#d)" fill="#91857c"/><g clip-path="url(#d)"><path d="M3.227 2.762c-.018 0-.04-.009-.066-.028.033.019.06.028.079.021a.055.055 0 0 0 .035-.028l-.021-.021c0 .009-.003.036-.021.036-.018-.001-.046-.034-.051-.037l.005-.005c.007.009.04.03.046.035.01 0 .015-.024.015-.033l.006.001h-.003.006l-.003.003.025.023c0 .002-.01.026-.039.032l-.013.001z"/></g><path d="M2.93 2.716l-.012.048s-.014.013-.011.015c.006.003.029-.005.029-.005s.035-.004.045-.014c.007.017.026.018.026.018s0-.007-.003-.011c.01.001.016-.002.016-.002s.004-.012-.006-.019c.003-.01.006-.018-.01-.018-.017.015-.047.03-.054.025-.008-.006.03-.023.021-.046l-.041.009z" clip-path="url(#d)" fill="#91857c"/><g clip-path="url(#d)"><path d="M2.904 2.782l.024-.067.006.001-.015.048c.023.006.055.001.062-.007l.021.017.01-.026.011.02-.018.008.003.001h-.006c-.015-.003-.018-.006-.021-.016-.007.012-.043.017-.046.017l-.031.004z"/></g><path d="M2.198 2.604l.046-.011-.006-.022c0-.005-.004-.009-.004-.01-.005-.002-.008-.002-.015-.002v-.003l.042-.01v.004a.028.028 0 0 0-.012.004c-.002.001-.002.004-.002.006-.003.002-.003.006 0 .009l.006.022.036-.009c.006-.001.01-.002.012-.004 0 0 0-.002.003-.004v-.009l-.003-.004.005-.001.013.05-.006.002v-.005c-.003-.004-.003-.008-.007-.01-.003 0-.008 0-.012.002l-.078.018c-.008.001-.011.003-.014.005l-.001.005v.007l.001.005-.004.001-.021-.089.025-.008v.003l-.01.01c-.002.001-.002.005-.002.007v.015l.008.026zm-.03-.211c0-.016.007-.029.021-.041a.07.07 0 0 1 .046-.015.072.072 0 0 1 .046.02c.01.013.015.027.013.044a.057.057 0 0 1-.019.042.073.073 0 0 1-.048.015.068.068 0 0 1-.047-.024.045.045 0 0 1-.012-.041zm.007.001c-.003.011.002.021.011.028.01.008.022.014.04.015.024.001.039-.002.048-.009a.034.034 0 0 0 .014-.026.04.04 0 0 0-.011-.029c-.01-.008-.022-.012-.043-.014-.021-.002-.036.001-.045.009-.012.006-.014.014-.014.026zm.177-.222l-.012.03-.067.019c-.003.001-.003.005-.003.007l-.003.002v.001l.03.013c.009.003.013.004.016.003.003-.001.006-.005.008-.008l.003-.003.003.001-.018.047-.006-.001.003-.004c.003-.005.003-.008 0-.012-.003-.002-.008-.003-.012-.007l-.075-.027c-.006-.003-.011-.004-.014-.003-.003.001-.004.004-.007.009l-.003.004-.002-.003.015-.04c.005-.013.011-.02.014-.027.004-.005.01-.008.015-.011.007-.002.015-.002.021.002a.023.023 0 0 1 .015.012c.001.007.004.017.001.027l.042-.012c.011-.001.018-.005.02-.008.006-.003.008-.007.01-.014l.006.003zm-.09.058v-.002l.003-.002c.003-.012.003-.021 0-.027 0-.008-.007-.013-.012-.016-.011-.003-.015-.003-.024 0a.03.03 0 0 0-.012.016c0 .003-.003.007-.003.013l.048.018zm.26-.406l.024.031-.003.002a.057.057 0 0 0-.024-.011c-.008-.003-.018 0-.029.006a.04.04 0 0 0-.019.035.07.07 0 0 0 .036.059c.01.006.018.008.025.008.011 0 .018-.001.024-.006.006-.001.007-.006.01-.008l.007-.011-.021-.03c-.002-.005-.005-.009-.007-.009-.002-.002-.002-.002-.005-.002l-.011.003V1.89l.039-.026.002.004h-.002c-.006.002-.006.006-.006.01l.006.012.021.031a.07.07 0 0 1-.013.017c-.003.006-.011.01-.015.015a.075.075 0 0 1-.06.011.058.058 0 0 1-.033-.027.05.05 0 0 1-.011-.029.052.052 0 0 1 .006-.037.056.056 0 0 1 .024-.024.037.037 0 0 1 .01-.006l.017-.004.006-.001s0-.002.003-.003c0-.002-.003-.003-.003-.006l.002-.003zm.198.014l-.047.013-.003.021v.01c0 .002.003.003.006.003a.02.02 0 0 0 .011 0l.001.005-.035.009-.002-.002c.004-.003.006-.006.009-.007l.006-.02.015-.107.003-.002.066.087.013.014a.024.024 0 0 0 .012.001v.003l-.046.013v-.004c.006-.001.008-.003.01-.006v-.006c0-.002-.001-.006-.007-.011l-.012-.014zm-.003-.006l-.033-.042-.009.053.042-.011zm.216 0h.003l-.014.033-.092-.003v-.004l.004.001c.006 0 .008-.001.011-.005.002-.002.002-.006.002-.014l.003-.078v-.014c-.003-.004-.007-.004-.01-.006h-.008l.003-.002.054.001v.004a.02.02 0 0 0-.012.001c-.004.002-.007.003-.007.005-.002.002-.002.006-.002.014l-.002.077v.01l.001.001c.003.002.009.002.016.003h.011l.018-.001c.003-.001.007-.002.01-.006a.042.042 0 0 0 .011-.017zm.163.043l.003.003-.022.027-.09-.03.001-.003.006.001a.023.023 0 0 0 .014-.001s.003-.005.004-.012l.026-.075c.003-.008.003-.011 0-.014 0-.003-.003-.007-.008-.007l-.006-.001.003-.004.053.017v.004c-.009-.003-.014-.004-.017-.003-.003 0-.004.001-.004.003l-.006.013-.023.072c-.003.005-.006.009-.003.011 0 .002 0 .003.003.003l.014.006.006.003.018.004a.04.04 0 0 0 .013-.004c.005-.002.008-.006.015-.013zm.131.069l-.038-.026-.018.011c-.004.001-.007.005-.01.007v.004c0 .003.003.006.007.01l-.001.003-.032-.023.003-.003a.021.021 0 0 0 .011.004.073.073 0 0 0 .018-.009l.093-.057.001.001-.023.108c-.002.008-.002.015-.002.019.002.003.004.007.007.009l-.003.005-.037-.029.001-.002.011.003.006-.003c0-.003.003-.006.003-.012l.003-.02zm0-.007l.013-.051-.046.028.033.023zm.147.028l.021.027-.028.115.055-.043c.006-.005.008-.008.008-.01.003-.003 0-.008-.003-.011l-.002-.003.003-.001.025.033-.001.002-.003-.003c-.003-.004-.006-.007-.011-.007l-.013.007-.082.06V2.13l.028-.123-.059.044c-.007.005-.01.008-.01.01-.003.004 0 .008.003.011l.003.003-.003.004-.024-.036v-.002l.006.003c.003.004.005.007.008.007a.062.062 0 0 0 .012-.006l.069-.051v-.012c0-.002 0-.006-.003-.009 0-.001-.003-.003-.003-.006l.004-.002zm.154.284l-.025.011-.003-.003c.005-.003.01-.005.01-.007.003-.003.006-.006.006-.01v-.011l-.008-.017-.088.032c-.007.003-.013.004-.013.006-.003.004-.003.007 0 .012v.003l-.003.002-.015-.049.003.003a.024.024 0 0 0 .008.009c.001.001.007 0 .012-.002l.09-.032-.005-.013c-.003-.007-.006-.01-.006-.01-.003-.005-.004-.007-.01-.008-.003-.002-.008 0-.012.001l-.002-.002.028-.009.033.094zm-.097.218v-.033l.056-.044c-.002-.004-.002-.006-.002-.009v-.004l-.036.002c-.008 0-.012.001-.015.003 0 .003-.003.007-.003.011v.005h-.003l-.003-.052.006-.001v.005c0 .004 0 .008.003.01a.053.053 0 0 0 .015.001l.076-.004a.11.11 0 0 0 .017-.003c.003-.002.003-.006.003-.01v-.005h.001l.003.044v.029c-.003.007-.004.013-.01.017a.029.029 0 0 1-.016.006.026.026 0 0 1-.02-.005c-.009-.005-.011-.013-.016-.023l-.034.027c-.007.006-.01.012-.015.016l-.001.017h-.006zm.058-.091v.006c0 .011.006.019.011.026.006.006.01.008.021.007.004 0 .012-.003.015-.008a.025.025 0 0 0 .008-.019c0-.004-.003-.009-.003-.015l-.052.003zm.034.252l-.011.041H3.51v-.011l-.001-.01a.02.02 0 0 1-.012-.011l-.039-.04-.027-.008-.015-.001c-.003.002-.006.005-.006.009l-.003.004h-.003l.012-.05h.004v.005c-.003.005-.003.009.002.012l.011.004.028.008.059-.019c.004-.002.01-.003.012-.005l.008-.006v-.007l.004.003-.011.049h-.005v-.004c.003-.002.003-.005 0-.007 0-.003 0-.004-.003-.006-.001-.001-.004 0-.012.003l-.046.014.03.033a.077.077 0 0 0 .013.009h.006c0-.001.003-.001.003-.003.003-.001.003-.003.003-.006h.001z" clip-path="url(#d)"/></g></svg>