<svg xmlns="http://www.w3.org/2000/svg" xmlns:xlink="http://www.w3.org/1999/xlink" width="23.772" height="13.868" viewBox="0 0 23.772 13.868"><defs><path id="a" d="M0 0h23.772v13.868H0z"/></defs><clipPath id="b"><use xlink:href="#a" overflow="visible"/></clipPath><path clip-path="url(#b)" fill="#efd928" d="M0 0h23.772v13.868H0z"/><path clip-path="url(#b)" fill="#1f00af" d="M0 0h7.924v13.868H0z"/><path clip-path="url(#b)" fill="#d00524" d="M15.848 0h7.924v13.868h-7.924z"/><g clip-path="url(#b)"><defs><path id="c" d="M0 0h23.772v13.868H0z"/></defs><clipPath id="d"><use xlink:href="#c" overflow="visible"/></clipPath><path d="M11.089 3.104a.19.19 0 0 0-.115.033.095.095 0 0 1 .066.093v.112h-.11a.095.095 0 0 1-.094-.068.205.205 0 0 0-.032.118c0 .049.012.092.032.117a.095.095 0 0 1 .094-.068h.11v.542a.094.094 0 0 1-.061.09c.053.009.1.08.112.12.012-.039.059-.111.111-.12a.097.097 0 0 1-.065-.09v-.542h.113c.047 0 .083.028.095.066a.201.201 0 0 0 .03-.116.212.212 0 0 0-.03-.117.096.096 0 0 1-.095.068h-.113V3.23c0-.045.029-.081.071-.093a.203.203 0 0 0-.119-.033" clip-path="url(#d)"/><path d="M11.089 3.129a.186.186 0 0 0-.066.011.12.12 0 0 1 .042.091v.134h-.018l-.003.001h-.114a.114.114 0 0 1-.09-.042.197.197 0 0 0 0 .136.112.112 0 0 1 .09-.043h.135v.567a.11.11 0 0 1-.042.084c.018.011.033.026.046.039a.255.255 0 0 1 .024.041c.008-.014.01-.026.024-.041a.126.126 0 0 1 .044-.037.11.11 0 0 1-.042-.086v-.567h.015l.004-.001h.113c.039 0 .069.017.093.041a.221.221 0 0 0 .008-.066.262.262 0 0 0-.008-.067.122.122 0 0 1-.093.042h-.113l-.001-.001h-.018V3.23c0-.037.015-.067.039-.09a.221.221 0 0 0-.069-.011" clip-path="url(#d)" fill="#f9f92b"/><path clip-path="url(#d)" fill="#7f6332" d="M11.176 5.1l-.187-.043-.392-.208-.247-.013-.015-.479-.476-.38-.485.52-.067.153.024 4.749.31-.377.067.016.321-.349.274-.694.083-.286.37.437-.141.259.128-.01.013.108.116-.049.03.148.259-.26.357.177-.678 1.211-.243.179.435.164.45-.523-.064.343-.137.333.548.314.594-.35-.296-.611.098-.043.382.555.419-.206-.542-.635-.36-.764.378-.126.257.247.039-.159.135.064-.018-.134.138.031-.167-.264.422-.354.267.834.396.449.081-.009.285.353-.001-4.893-.527-.555-.516.417.022.45-.23.008-.341.177-.193.063-.092.018-.117-.129-.156-.315-.011-.311.098-.204-.018-.191.085.001-.054-.128.077-.032-.116-.101.039-.047-.435-.187-.33-.022-.09.04-.043.079.087.248-.095.095.095.182.003.398-.075.335-.149.255z"/><path clip-path="url(#d)" fill="#c11b2c" d="M10.674 8.412l-.329.502-.159-.004-.165.076-.054.178.026.083.177.193.147-.081.115-.127.028-.111.416-.54-.021-.135-.088.058-.036-.111zm2.097.15l.442.592.041.117.192.174.06-.015.21-.246-.046-.169-.2-.121-.15.016-.33-.498-.06-.024-.022.096-.098-.029z"/><path d="M11.623 3.411c-.054 0-.133.001-.181.033-.044.03-.039.066-.054.079-.036.03-.098.03-.126.03-.191 0-.198.203-.198.203s.051-.073.136-.073c.141 0 .249.077.249.107 0 .012-.015.013-.015.013-.093 0-.234-.053-.308-.055v.029c.003.001.003.002.003.003l-.003-.001v.005c.167.059.336.14.336.501 0 .227-.028.459-.141.642a.642.642 0 0 1-.166.167 1.488 1.488 0 0 1-.275-.111c-.18-.099-.272-.198-.483-.207v-.164c0-.085.028-.162.028-.245-.086-.024-.335-.327-.564-.461-.338.217-.597.575-.597.739 0 0 .01 3.534 0 4.764a.542.542 0 0 1-.044.172c.123-.053.347-.36.396-.477v.055c.185-.084.324-.306.382-.421l.002.058c.167-.145.378-1.003.378-1.003l-.01-.181s-.147.701-.314.845V5.44l.131.122.201-.185v-.143l-.177.165v-.426a.687.687 0 0 0 .057-.094c.03.049.122.202.23.296.019-.073.137-.143.137-.143s.042.115.105.143c.024-.039.156-.129.156-.129s-.113.019-.159.062c-.04-.008-.051-.167-.051-.167s-.169.082-.201.142c-.033-.008-.082-.136-.102-.189.03-.003.072-.008.126-.008a.46.46 0 0 1 .177.055c.072.033.147.076.21.106a.761.761 0 0 0 .255.048 1.28 1.28 0 0 1-.141.084s.202-.002.346-.074c.053-.032.104-.065.149-.104a.487.487 0 0 1-.097.175.456.456 0 0 0 .343-.179c.017.038.039.095.077.146a.502.502 0 0 0 .08-.146.46.46 0 0 0 .346.179.55.55 0 0 1-.1-.175c.046.039.1.073.148.104a.936.936 0 0 0 .347.074 1.458 1.458 0 0 1-.141-.084.796.796 0 0 0 .252-.048c.066-.03.144-.073.216-.106a.467.467 0 0 1 .174-.055c.054 0 .097.005.126.008-.018.053-.069.181-.102.189-.029-.059-.198-.142-.198-.142s-.013.159-.052.167c-.046-.043-.163-.062-.163-.062s.136.09.159.129c.064-.028.105-.143.105-.143s.118.07.136.143c.111-.094.201-.247.231-.296.014.024.032.055.057.094v.426l-.177-.165v.143l.201.185.129-.122v3.017c-.163-.144-.31-.845-.31-.845l-.012.181s.21.858.378 1.003l.004-.058c.059.115.195.337.38.421v-.055c.048.116.273.424.396.477 0 0-.044-.1-.044-.172-.01-1.23 0-4.764 0-4.764 0-.164-.259-.522-.595-.739-.23.135-.479.438-.567.461 0 .083.033.16.033.245v.162c-.212.01-.304.109-.483.208a1.579 1.579 0 0 1-.278.111.609.609 0 0 1-.165-.167 1.025 1.025 0 0 1-.138-.542c0-.082.093-.173.093-.24 0-.1-.011-.159-.011-.159.035.003.091.062.091.062s-.003-.167-.055-.196c0 0 .021-.023.098-.024-.024-.055-.129-.121-.129-.121a.068.068 0 0 1 .029-.026.327.327 0 0 1 .093-.03 1.009 1.009 0 0 1-.107-.028 2.481 2.481 0 0 1-.289-.118.831.831 0 0 0-.389-.093m.003.049a.757.757 0 0 0 .044.001c.177 0 .297.08.462.153.043.019.082.034.12.046-.022.019-.042.039-.046.055 0 0 .073.014.108.076 0 0-.071.008-.083.049.042.003.08.053.08.101l-.101-.033s.024.113.024.234c0 .063-.09.136-.09.24 0 .331.086.457.141.56.026.04.044.086.083.12-.17-.091-.296-.204-.296-.309v-.398h-.046v.399c0 .076.021.111.021.111.025.085.079.215.112.268-.156-.085-.237-.191-.237-.23v-.548h-.042v.557l.007.038a.273.273 0 0 1-.061.073c-.015-.012-.039-.046-.059-.073l.011-.038v-.557h-.047v.549c0 .039-.076.145-.237.23.035-.053.089-.183.116-.268 0 0 .018-.035.018-.111v-.4h-.043v.399c0 .105-.129.219-.296.309.036-.035.057-.08.08-.12.064-.112.144-.254.144-.658a.705.705 0 0 0-.062-.327c-.012-.024-.029-.086.062-.086.048 0 .156.083.156.083s-.006-.066-.059-.104a.057.057 0 0 1-.025-.044c0-.015.025-.048.043-.055.012-.006-.187-.041-.187-.13 0-.02.012-.033.053-.033.055 0 .142.065.221.065.057 0 .08-.015.138-.015.072 0 .224.138.273.132-.057-.036-.148-.173-.289-.173-.05 0-.093.012-.14.012-.057 0-.115-.054-.18-.054-.04 0-.087.003-.095-.008-.012-.019 0-.032.011-.046.021-.031.08-.039.141-.042h.052m-1.767.6s.314.286.419.322l.003.098v.284c-.075-.026-.173-.152-.219-.219v-.039c0-.036.024-.062.039-.077l-.047-.017a.13.13 0 0 0-.036.087v.024l-.015.015-.008.008-.115.124-.134-.204v-.05c0-.035.026-.071.05-.097l-.047-.015a.185.185 0 0 0-.046.106v.04l-.154.16-.08-.168c.096-.132.246-.277.39-.382m3.937 0c.144.104.295.251.393.382l-.08.168-.156-.16v-.04c0-.037-.024-.077-.044-.106l-.046.016c.021.026.046.062.046.097v.05l-.133.203-.116-.124-.007-.008-.014-.015v-.024a.123.123 0 0 0-.039-.087l-.046.017a.101.101 0 0 1 .039.077v.039c-.046.066-.144.192-.221.219v-.285l.006-.098c.104-.035.418-.321.418-.321zm-4.381.468l.072.129v.235l-.111.1v-.347c0-.033.016-.074.039-.117m4.825 0a.251.251 0 0 1 .039.117v.348l-.108-.1v-.236l.069-.129zm-4.54.031l.123.189v.146l-.123.117v-.452zm4.257 0v.452l-.124-.117v-.146l.124-.189zm-4.3.033v.418l-.126-.116v-.171l.126-.131zm4.341 0l.126.131v.171l-.126.116v-.418zm-3.959.029c.018.032.108.173.188.213a.647.647 0 0 1-.188.185v-.398zm3.578 0v.399a.66.66 0 0 1-.188-.185c.082-.041.17-.182.188-.214m-3.622.021v.368l-.125-.116v-.13l.125-.122zm3.664 0l.126.122v.13l-.126.116v-.368zm-4.172.391V5.4l-.111-.102v-.162l.111-.103zm4.684 0l.108.103v.162l-.108.102v-.367zm-4.64.002l.072.067.054.05v.131l-.054.05-.072.066v-.364zm.292 0v.364l-.069-.066-.054-.052v-.129l.054-.051.069-.066zm.047 0l.125.118v.129l-.053.052-.072.065v-.364zm.295 0v.366l-.072-.067-.054-.051v-.122a.537.537 0 0 0 .126-.126m3.326 0a.518.518 0 0 0 .126.126v.122l-.054.051-.072.067v-.366zm.294 0v.364l-.069-.065-.057-.053v-.129l.126-.117zm.047 0l.072.067.053.051v.129l-.053.052-.072.066v-.365zm.292 0v.364l-.072-.066-.054-.051v-.13l.054-.05.072-.067zm-4.409.403l.131.124.134-.123v3.019s.01.149.014.247l-.279.283v-3.55zm4.225 0v3.55l-.281-.284.018-.247V5.439l.131.123.132-.124zm-4.299.001v3.436c0 .097-.177.324-.264.375V5.44l.131.122.133-.123zm4.375 0l.131.123.131-.122v3.81c-.086-.051-.263-.278-.263-.375V5.439zm-3.285 2.699s-.129.258-.176.304c0 0 .032.006.069.006-.022.033-.201.286-.253.382-.054.089-.09.049-.17.049-.066 0-.216.105-.241.148a.312.312 0 0 0-.044.144c0 .049.051.117.051.117.006-.023.015-.032.015-.032s.14.171.156.193c.017.017.089.028.113.006.062-.056.122-.096.174-.177.029-.042.032-.089.065-.134.108-.15.324-.437.375-.504.003.019.007.034.007.053.057-.114.327-.33.327-.33l-.075-.049s-.162.189-.216.225c0 0-.022-.094-.036-.127 0 0-.061.047-.094.048 0 0-.011-.064-.021-.106-.042.028-.111.023-.111.023.061-.03.136-.212.136-.212l-.051-.027zm2.194 0l-.051.026s.075.183.137.212c0 0-.072.006-.113-.023a4.103 4.103 0 0 0-.018.106c-.036-.001-.098-.048-.098-.048a2.192 2.192 0 0 0-.036.127c-.053-.036-.216-.225-.216-.225l-.073.049s.27.216.325.33a.5.5 0 0 1 .011-.053c.048.067.264.354.375.504.03.045.033.092.062.134.053.081.115.121.177.177.022.022.094.01.109-.006.021-.022.156-.193.156-.193s.011.009.017.032c0 0 .051-.068.051-.117a.285.285 0 0 0-.047-.144c-.021-.043-.172-.148-.238-.148-.08 0-.116.04-.167-.049a9.711 9.711 0 0 0-.254-.382c.036 0 .069-.006.069-.006-.05-.045-.178-.303-.178-.303m-2.214.291s0 .088.026.118l.098-.066s.004.031.015.075c-.044.057-.281.38-.398.538-.029.04-.054.14-.054.14s-.042-.02-.042-.057c0-.036.006-.078.006-.078s-.03.036-.09.036c0-.044.087-.091.09-.154-.064.048-.12.023-.195.046-.082.026-.105.06-.131.058-.012-.001-.028-.026-.022-.042.01-.028.109-.103.181-.116.018-.003.149.028.178-.012.109-.172.289-.449.307-.475.015-.002.024-.005.031-.011m2.233 0a.07.07 0 0 0 .03.012c.018.026.198.304.307.475.029.041.162.009.177.012.071.012.173.088.183.116.006.016-.007.041-.022.042-.026.002-.047-.033-.129-.058-.077-.024-.131.001-.198-.046.003.063.087.11.087.154-.054 0-.087-.036-.087-.036s.006.042.006.078c0 .037-.042.057-.042.057s-.026-.1-.054-.14c-.118-.158-.354-.481-.398-.538l.018-.075.095.066c.029-.031.027-.119.027-.119m-1.462.064s-.526 1.21-.993 1.398c0 0 .203.086.452.217.039.017.075.039.112.059a2.34 2.34 0 0 0 .098-.124c.149-.199.295-.431.295-.431.011.06-.069.247-.202.475a8.388 8.388 0 0 1-.083.141c.033.018.068.038.101.059.246.148.48.32.564.477.087-.158.321-.329.567-.477a1.13 1.13 0 0 1 .102-.059c-.033-.048-.058-.096-.084-.141-.133-.228-.213-.415-.203-.475 0 0 .147.232.296.431.033.044.066.087.097.124.039-.02.075-.042.111-.059.252-.131.455-.217.455-.217-.468-.187-.996-1.398-.996-1.398l-.075.023s.419 1.046.829 1.363a3.12 3.12 0 0 0-.315.117 5.092 5.092 0 0 1-.396-.571c-.123-.209-.223-.573-.223-.573-.059.14.064.845.313 1.291-.205.106-.39.222-.477.317-.087-.095-.267-.21-.474-.317.249-.446.372-1.15.313-1.291 0 0-.1.364-.225.573a4.46 4.46 0 0 1-.393.571 3.12 3.12 0 0 0-.315-.117c.409-.317.831-1.363.831-1.363l-.082-.023zm-1.374.581c0 .001.006.002.008.007.006.005.006.015 0 .019l-.044.037c-.007.006-.015.006-.019-.001-.008-.006-.006-.016 0-.021l.043-.038c.005-.002.007-.003.012-.003m3.442 0c.004 0 .007.001.01.003l.043.038c.006.005.008.015 0 .021-.003.007-.013.008-.017.002l-.044-.037c-.008-.005-.008-.015-.003-.019.003-.006.008-.007.011-.008m-3.397.039c.01-.001.022.005.03.014.012.015.011.036-.003.048l-.105.091a.032.032 0 0 1-.048-.005c-.012-.015-.012-.037 0-.048l.108-.092c.002-.005.012-.008.018-.008m3.342 0h.008c.008 0 .015.003.021.008l.105.092c.015.012.015.033 0 .048-.012.017-.033.017-.048.005l-.105-.091c-.014-.012-.017-.034 0-.048a.026.026 0 0 1 .019-.014m-3.284.073a.05.05 0 0 1 .035.012.035.035 0 0 1-.003.048l-.108.093c-.012.012-.033.009-.046-.006-.014-.015-.014-.036 0-.048l.105-.092c.004-.005.012-.007.017-.007m3.226 0h.007c.006 0 .014.003.018.007l.105.092c.017.012.017.033.003.048-.012.015-.036.018-.048.006l-.105-.093c-.015-.012-.015-.033-.003-.048.005-.009.012-.012.023-.012m-3.159.069a.044.044 0 0 1 .033.01c.012.016.01.038-.003.05l-.108.093c-.012.012-.033.01-.046-.006-.014-.016-.014-.036 0-.048l.108-.093a.031.031 0 0 1 .016-.006m3.089 0h.01c.006 0 .012.002.015.006l.108.093c.015.012.015.033 0 .048-.012.016-.033.019-.046.006l-.108-.093c-.012-.012-.012-.034 0-.05.008-.004.013-.009.021-.01" clip-path="url(#d)"/><path clip-path="url(#d)" d="M10.386 9.311l.247.134-.06.274-.246-.134z"/><path d="M9.241 6.683l-.09.042 1.002 2.194h.108l-1.02-2.236zm1.181 2.588l-.072.076.043.1.09-.042-.061-.134z" clip-path="url(#d)"/><path clip-path="url(#d)" fill="#f9f92b" d="M10.422 9.388l.151.083-.036.172-.153-.085z"/><path d="M9.552 8.413s.084.176.148.198c-.033-.009-.141.03-.141.03s.19.172.351.183c.134.009.201-.059.201-.059l-.025-.145s-.086-.1-.219-.148a1.443 1.443 0 0 0-.315-.059m.634-.311s-.116.1-.147.214a.44.44 0 0 0 .021.248l.098.183s.136-.073.192-.181c.059-.108.037-.253.037-.253s-.109.039-.122.057c.023-.119-.079-.268-.079-.268m-.375-.047s-.131.045-.259.037a.395.395 0 0 1-.224-.111s.1-.068.152-.059c-.057-.02-.137-.158-.137-.158s.113-.035.213.004c.104.037.19.147.19.147l.065.14zm.046-.647s.068.137.053.185c.022-.032.097-.08.097-.08s.048.222.006.358c-.049.137-.187.189-.187.189l-.149-.293s-.022-.109.024-.196a.622.622 0 0 1 .156-.163zm-.861-.363s.144-.015.273.039c.11.046.143.128.143.128l.054.144s-.154.059-.279.014c-.12-.045-.21-.193-.21-.193s.084-.033.118-.02c-.049-.021-.099-.112-.099-.112m.45-.269s.062.081.068.174c.015-.051.091-.104.091-.104s.083.195.065.334c-.018.138-.134.221-.134.221l-.147-.276s-.046-.113-.033-.2c.016-.088.09-.149.09-.149M8.95 6.25s-.026.149.018.236a.363.363 0 0 0 .064.095c-.073-.051-.19-.055-.19-.055s.042.163.14.237c.097.075.246.058.246.058s.097-.131.092-.273c-.007-.141-.12-.291-.12-.291s-.043.092-.046.16c-.031-.071-.204-.167-.204-.167z" clip-path="url(#d)"/><path d="M8.995 6.341s-.003.109.03.171c.039.063.118.088.118.088s.006-.11-.033-.172c-.034-.062-.115-.087-.115-.087m-.075.247s.095.006.148.048c.055.043.077.131.077.131s-.063.005-.12-.037a.508.508 0 0 1-.105-.142m.297-.221s-.033.073-.028.152c.003.078.048.165.048.165s.043-.094.04-.172c-.006-.079-.049-.123-.06-.145m-.161.705s.047.066.12.1c.072.036.177.038.177.038s-.053-.07-.125-.106c-.071-.035-.172-.032-.172-.032m.023.152s.036.066.097.096c.065.028.191.026.191.026s-.047-.062-.111-.092a.575.575 0 0 0-.177-.03m.362-.359s-.036.063-.033.131c.002.07.049.146.049.146s.03-.086.028-.156c-.003-.068-.044-.121-.044-.121m.139.089s-.064.088-.075.176c-.008.089.039.183.039.183s.077-.08.087-.169c.01-.089-.051-.19-.051-.19m-.177.827s.007.032.033.066c.028.035.075.071.075.071s.046-.014.1-.003c.057.012.131.062.131.062s-.082-.119-.165-.166c-.082-.046-.174-.03-.174-.03m-.009.205s.102-.044.188-.034c.085.011.162.078.162.078s-.113.041-.2.028a.295.295 0 0 1-.15-.072m.435-.481s-.09.095-.098.18c-.007.085.072.163.072.163s-.002-.054.013-.089c.012-.036.043-.073.043-.073s.014-.043.008-.077a.363.363 0 0 0-.038-.104m.131.112s-.086.087-.108.181c-.023.091.018.192.018.192s.079-.062.1-.154c.023-.094-.01-.219-.01-.219m.217.562s.039.082.05.15c.007.066 0 .091 0 .091s-.042.039-.059.063c-.024.029-.026.084-.026.084s-.082-.12-.069-.209a.409.409 0 0 1 .104-.179m.168.188s-.1.068-.144.138c-.039.07-.018.142-.018.142s.075-.006.116-.076a.575.575 0 0 0 .046-.204m-.678.289s.149-.003.239.019c.091.022.125.071.125.071s-.103.048-.194.025c-.091-.022-.17-.115-.17-.115m-.026-.177s.068.104.155.142c.12.053.259.026.259.026s-.076-.091-.18-.132c-.103-.04-.234-.036-.234-.036" clip-path="url(#d)" fill="#285f37"/><path d="M10.122 8.758l.001.055c.09.001.104-.009.126.019a.08.08 0 0 0 .09.018.073.073 0 0 0 .035-.096c-.017-.036-.05-.045-.083-.038-.021.003-.033.019-.051.028-.031.017-.118.014-.118.014" clip-path="url(#d)"/><path d="M10.342 8.767l.003.001c.007.02 0 .043-.021.053-.021.01-.043.001-.054-.019V8.8c-.007-.019 0-.044.021-.052.021-.009.044 0 .051.019z" clip-path="url(#d)" fill="#f9f92b"/><path d="M10.111 8.717l.044.032c-.047.077-.059.083-.047.118a.08.08 0 0 1-.033.084.071.071 0 0 1-.1-.021c-.024-.033-.014-.066.01-.09.015-.016.036-.018.051-.027a.392.392 0 0 0 .075-.096" clip-path="url(#d)"/><path d="M10 8.912a.044.044 0 0 0 .057.011.038.038 0 0 0 .01-.055.038.038 0 0 0-.053-.012.044.044 0 0 0-.014.056z" clip-path="url(#d)" fill="#f9f92b"/><path d="M9.811 8.08l.003.053c.09.001.102-.009.126.019a.075.075 0 0 0 .087.019.07.07 0 0 0 .036-.097c-.015-.037-.048-.045-.082-.039-.021.003-.035.02-.05.028-.033.019-.12.017-.12.017" clip-path="url(#d)"/><path d="M10.031 8.089c.011.02 0 .044-.017.052a.041.041 0 0 1-.054-.019.041.041 0 0 1 .021-.053.037.037 0 0 1 .05.02z" clip-path="url(#d)" fill="#f9f92b"/><path d="M9.829 8.098l.039.038c-.06.068-.075.072-.067.108a.08.08 0 0 1-.047.079.07.07 0 0 1-.094-.036c-.019-.036-.003-.068.025-.087.015-.014.036-.014.054-.02a.34.34 0 0 0 .09-.082" clip-path="url(#d)"/><path d="M9.69 8.273c.007.02.03.028.051.02a.042.042 0 0 0 .021-.053.043.043 0 0 0-.054-.02c-.018.01-.029.033-.018.052v.001z" clip-path="url(#d)" fill="#f9f92b"/><path d="M9.511 7.442l.003.055c.09 0 .102-.008.125.019.016.02.051.037.087.02a.075.075 0 0 0 .039-.098c-.019-.036-.052-.043-.086-.037-.019.003-.033.02-.048.028-.033.017-.12.013-.12.013" clip-path="url(#d)"/><path d="M9.731 7.453c.011.021.003.042-.018.053a.041.041 0 0 1-.053-.021c-.008-.018 0-.044.019-.053.021-.008.044 0 .051.019v.002h.001z" clip-path="url(#d)" fill="#f9f92b"/><path d="M9.533 7.432l.039.039c-.056.068-.072.071-.067.108.006.022-.008.061-.044.077s-.079.001-.097-.036c-.018-.036 0-.066.025-.087.019-.013.039-.012.055-.02a.317.317 0 0 0 .089-.081" clip-path="url(#d)"/><path d="M9.394 7.607c.011.02.033.029.054.019a.035.035 0 0 0 .018-.051c-.007-.021-.03-.029-.051-.021-.021.009-.027.033-.021.053z" clip-path="url(#d)" fill="#f9f92b"/><path d="M9.19 6.772l.006.054c.089.001.102-.009.125.02.013.018.049.034.087.018.036-.017.051-.059.036-.096-.019-.038-.052-.045-.085-.039-.019.004-.03.02-.048.029-.034.016-.121.014-.121.014" clip-path="url(#d)"/><path d="M9.412 6.781c.011.021 0 .044-.021.053-.018.01-.04 0-.051-.019-.01-.019 0-.043.018-.052.021-.011.048-.002.054.018z" clip-path="url(#d)" fill="#f9f92b"/><path d="M9.215 6.761l.039.038c-.059.067-.078.071-.07.108.006.024-.008.061-.041.078a.072.072 0 0 1-.097-.036c-.018-.036-.003-.067.025-.088.016-.012.036-.011.054-.018a.34.34 0 0 0 .09-.082" clip-path="url(#d)"/><path d="M9.076 6.935c.008.019.03.03.051.019.021-.008.029-.031.021-.053a.04.04 0 0 0-.054-.017.039.039 0 0 0-.018.051m.678.984c-.033.013-.08-.125-.116-.201-.035-.079-.107-.2-.086-.209.022-.01.051.053.089.134.036.079.144.264.113.276m-.331-.733c-.031.014-.067-.078-.1-.154-.036-.078-.07-.134-.049-.143.024-.01.057.059.084.122.03.063.096.163.065.175m.763 1.664c-.026.006-.136-.223-.224-.419-.087-.193-.156-.349-.133-.36.021-.01.093.173.183.367.089.196.192.406.174.412" clip-path="url(#d)" fill="#f9f92b"/><path clip-path="url(#d)" fill="#2e59a0" d="M10.378 6.651l.006 1.182.087.141.549.303.707.324.088.096.609-.333.714-.338.137-.207V6.656z"/><path d="M10.345 5.227l.036.108-.007 1.357.05.056.416.049.452-.065s.264.039.444.068l.006.027.087-.012c.021.001.084.012.084.012l.006-.027.444-.068.452.065.418-.049.048-.056-.007-1.357.036-.108-.498.004-.984.01-.984-.01-.499-.004z" clip-path="url(#d)" fill="#c11b2c"/><path clip-path="url(#d)" fill="#f9f92b" d="M10.491 6.741l.226-.088.156-.123.108.116.219.089-.177.101-.157.138-.138-.104zm2.29-.205l-.102.11-.219.089.206.128.132.118.143-.118.231-.116-.239-.094zm-.955-1.119l-.066.204-.198-.094.09.197-.194.075.194.069-.083.197.183-.095.074.204.075-.204.187.082-.085-.184.193-.069-.184-.081.081-.198-.192.095z"/><path clip-path="url(#d)" fill="#f9f92b" d="M12.352 5.383l.062.219.096.279.012.266-.108.192-.197.082-.108.034-.13-.069-.144.088-.158-.095-.13.089-.08-.054-.144-.02-.163-.172-.036-.307.199-.545-.246.197-.211.286v.376l.15.252.274.179.072.019-.129.239.225.068.117.116.062.233-.014.498-.069.115-.148.104-.008.094.164.103.141.116.213.007.186-.129.156-.089-.041-.137-.165-.13-.033-.396.047-.396.238-.15.123-.041-.127-.244.196-.069.219-.192.102-.382-.061-.232-.152-.191z"/><path clip-path="url(#d)" fill="#f9f92b" d="M11.418 7.092l.096.095-.089.09-.091-.092zm.822-.01l-.095.099.085.093.103-.089zm.069.253l-.173.04-.043.099-.002.274.072.153.095.04-.014-.357zm-.96.002l.061.304v.294l.087-.061.057-.133.011-.232-.044-.14zm1.566.243l-.198-.096-.189.042-.101.115-.01.188.141.165.033.009-.002-.177.149-.206zm-1.883-.065l-.019-.081-.108-.063-.088.036-.043.092.023.081-.093-.01-.074.071-.01.096.051.06.072.026.04-.003-.036.084.029.086.085.047.098-.024.051-.095.079.054.101-.02.064-.099-.045-.092-.048-.038.069-.037.029-.112-.092-.106-.09.013z"/><path d="M11.331 5.305c-.015.1-.519.308-.519.726 0 .537.501.664.501.664l-.021.037-.12.222s.205.01.318.104c.131.114.118.353.118.527 0 .138-.018.283-.087.343-.095.081-.162.087-.162.181 0 .079.064.095.162.146.126.066.12.156.306.156.188 0 .183-.089.309-.156.1-.051.159-.067.159-.146 0-.093-.062-.1-.159-.181-.069-.06-.087-.205-.087-.343 0-.174-.011-.413.12-.527.111-.093.315-.104.315-.104l-.12-.222-.021-.037s.501-.127.501-.664c0-.418-.504-.626-.516-.726-.049.172.167.412.167.695 0 .365-.27.383-.27.383-.065 0-.09.045-.113.045-.054-.005-.08-.073-.131-.073-.048 0-.087.077-.154.077-.064 0-.1-.077-.152-.077-.051 0-.076.068-.127.073-.026 0-.053-.045-.116-.045 0 0-.27-.018-.27-.383-.001-.283.218-.523.169-.695m1.032 1.427s.339.147.426.275c.19-.146.444-.259.444-.259s-.244-.062-.444-.244c-.117.153-.426.228-.426.228m-1.071 0s-.308-.075-.423-.228c-.203.182-.445.244-.445.244s.252.113.445.259c.09-.127.423-.275.423-.275m.534-1.391l-.087.248-.237-.113.113.239-.245.086.246.088-.113.237.237-.113.087.248.09-.248.237.113-.113-.237.246-.088-.246-.086.113-.239-.237.113-.091-.248zm-.57.116c.021.043-.167.317-.167.543 0 .275.147.438.342.438.039 0 .08.05.116.05.055 0 .094-.064.127-.064.047 0 .075.071.152.071.08 0 .111-.071.154-.071.035 0 .072.064.131.064.036 0 .077-.05.113-.05.198 0 .343-.163.343-.438 0-.225-.19-.5-.169-.543 0 0 .369.262.369.574 0 .501-.508.625-.508.625l.112.257s-.156.024-.25.101c-.131.103-.131.383-.131.571 0 .224.007.318.087.378.084.063.149.077.149.141 0 .058-.065.08-.152.118-.095.044-.104.118-.248.118-.141 0-.149-.075-.246-.118-.086-.038-.152-.06-.152-.118 0-.064.065-.078.149-.141.082-.06.087-.154.087-.378 0-.187 0-.468-.129-.571-.097-.077-.255-.101-.255-.101l.116-.257s-.51-.125-.51-.625c.001-.312.37-.574.37-.574m.573.052l.057.157.151-.072-.072.152.158.055-.158.056.072.151-.151-.071-.059.156-.054-.156-.151.071.072-.151-.158-.056.158-.055-.072-.152.151.072.056-.157zm-.965 1.07a.6.6 0 0 0 .264.162s-.169.089-.259.192v.007l-.003-.002c-.003.002-.006.003-.006.006v-.011c-.097-.085-.29-.18-.29-.18s.186-.063.294-.174m1.928 0c.111.111.293.174.293.174s-.191.095-.288.18v.011c-.003-.002-.006-.003-.006-.006l-.003.003v-.008c-.093-.104-.261-.192-.261-.192s.163-.044.265-.162m-1.371.482l-.12.12.12.121.12-.121-.12-.12zm.814 0l-.118.12.118.121.123-.121-.123-.12zm-.814.058l.061.063-.061.064-.065-.064.065-.063zm.814 0l.065.063-.065.064-.062-.064.062-.063zm-.925.184c.024.058.079.243.079.463 0 .152-.015.232-.015.232s.173-.05.206-.222c.012-.081.033-.378-.05-.43l-.22-.043zm1.038 0l-.221.044c-.082.051-.064.349-.048.43.033.172.202.222.202.222s-.012-.08-.012-.232a1.343 1.343 0 0 1 .079-.464m-1.454.049a.14.14 0 0 0-.13.177c.003.01.007.022.012.032a.217.217 0 0 0-.033-.007h-.015a.147.147 0 0 0-.14.134.145.145 0 0 0 .167.149l-.018.031a.143.143 0 0 0 .082.186.144.144 0 0 0 .185-.08.07.07 0 0 0 .008-.033.143.143 0 1 0 .208-.194c-.008-.007-.018-.013-.028-.019.01-.003.019-.009.03-.015a.146.146 0 0 0 .046-.198.142.142 0 0 0-.131-.066.13.13 0 0 0-.066.024.137.137 0 0 0-.028.021c0-.011 0-.024-.003-.035a.142.142 0 0 0-.146-.107m.494.017l.118.026c.044.06.036.158.036.295 0 .138-.102.192-.102.192-.001-.333-.034-.412-.052-.513m.882 0c-.018.101-.054.18-.054.513 0 0-.102-.054-.102-.192 0-.136-.006-.235.036-.295l.12-.026zm-1.365.042c.051-.003.1.03.112.084.003.012.003.024.003.037l-.007.027a.17.17 0 0 0-.054-.009.16.16 0 0 0-.123.055.24.24 0 0 1-.021-.024.077.077 0 0 1-.012-.033.107.107 0 0 1 .102-.137m1.776.046c-.183 0-.315.14-.297.314a.365.365 0 0 0 .279.303.306.306 0 0 1-.046-.136c-.018-.173.115-.313.297-.313.029 0 .057.005.084.011a.368.368 0 0 0-.317-.179m-1.553.039a.112.112 0 0 1 .087.053.112.112 0 0 1-.033.154.12.12 0 0 1-.033.013c-.011.002-.021.002-.03.002v-.005a.165.165 0 0 0-.095-.149.08.08 0 0 1 .015-.027.087.087 0 0 1 .026-.024.124.124 0 0 1 .063-.017m1.553.025c.057 0 .113.017.159.046a.35.35 0 0 0-.288.376.283.283 0 0 1-.105-.181c-.012-.135.085-.241.234-.241m-1.913.068c.012.002.024.004.036.008a.1.1 0 0 1 .024.016.162.162 0 0 0-.033.1c0 .03.008.057.021.08a.087.087 0 0 1-.029.014c-.01.003-.022.003-.033.003a.11.11 0 0 1-.102-.119.106.106 0 0 1 .116-.102m.191.016c.058 0 .105.048.105.108a.106.106 0 0 1-.105.107.109.109 0 0 1-.111-.107.11.11 0 0 1 .111-.108m.159.123c.01.001.019.005.03.008.011.005.021.009.03.017a.112.112 0 1 1-.144.171c-.01-.008-.015-.018-.022-.028-.006-.01-.008-.018-.011-.028a.163.163 0 0 0 .117-.14m-.296.075a.162.162 0 0 0 .137.072c.007 0 .021-.003.033-.005 0 .011.003.021.003.032-.003.011-.003.022-.008.034a.111.111 0 0 1-.144.061.114.114 0 0 1-.064-.145.071.071 0 0 1 .021-.03.06.06 0 0 1 .022-.019m.815.264c-.101 0-.165.022-.165.051 0 .031.064.051.165.051.025 0 .057-.015.057-.051s-.032-.051-.057-.051m.384 0c-.028 0-.057.015-.057.051s.029.051.057.051c.101 0 .162-.02.162-.051 0-.029-.061-.051-.162-.051" clip-path="url(#d)"/><path d="M10.213 5.19s.134.098.134.199V7.79c0 .064.018.106.051.145.03.044.097.103.167.147.21.138.564.284.831.405.224.102.313.143.429.286.118-.143.21-.184.434-.286.267-.121.621-.267.831-.405a.692.692 0 0 0 .167-.147.22.22 0 0 0 .048-.145v-2.4c0-.101.131-.199.131-.199h-3.223zm.171.077h2.889s-.042.046-.042.122V7.79c0 .053-.051.176-.367.332-.519.258-.917.379-1.038.526-.118-.147-.516-.268-1.035-.526-.313-.156-.368-.279-.368-.332v-2.4c.001-.077-.039-.123-.039-.123" clip-path="url(#d)" fill="#f9f92b"/><path d="M11.755 3.724c0 .046-.048.085-.111.085-.061 0-.113-.039-.113-.085 0-.048.053-.086.113-.086.062 0 .111.038.111.086z" clip-path="url(#d)"/><path d="M11.104 3.674s.039-.07.131-.07l.167-.003c.018.046.094.119.094.196 0 0-.079-.142-.3-.142a.252.252 0 0 0-.092.019" clip-path="url(#d)" fill="#c11b2c"/><path d="M11.389 3.693s-.053-.017-.053-.035c0-.024.025-.024.04-.006.013.013.013.041.013.041" clip-path="url(#d)"/><path d="M11.464 3.826s-.046.048-.055.075c-.05-.018-.129-.102-.129-.102s.069.04.184.027" clip-path="url(#d)" fill="#c11b2c"/><path d="M14.925 6.303l-.172.126.018.041s-.03.01-.046.037c-.014.029.01.068.01.068s-.165-.014-.189.003c-.024.015.01.129-.006.224-.021.134-.075.123-.077.149 0 .026.021.065.021.065s-.028.01-.036.023c-.01.02.008.058-.006.084l-.246.484c-.01.018-.036.026-.051.053-.01.023 0 .058 0 .058s-.046.001-.064.034c-.017.033-.006.078-.006.078s-.03.003-.044.032c-.015.03.011.046.006.059-.094.183-.205.402-.274.533-.023.049-.11.058-.163.157-.046.097.024.167.024.167s-.073.007-.093.044a.097.097 0 0 0 .05.124c.051.026.108.005.127-.033.019-.037-.019-.1-.019-.1s.1.013.148-.082c.05-.099.006-.174.032-.222l.274-.534c.006-.012.033-.001.047-.032.018-.028 0-.053 0-.053s.043-.019.061-.053c.015-.031-.01-.07-.01-.07s.036-.013.048-.036c.011-.026.003-.051.011-.071.072-.137.177-.344.246-.484.015-.025.055-.033.064-.053.008-.014-.003-.044-.003-.044s.047-.005.066-.021c.019-.016-.019-.053.075-.149.069-.069.177-.109.177-.138 0-.03-.108-.154-.108-.154s.044-.004.059-.033c.015-.026.006-.061.006-.061l.043-.008v-.212zm-1.623 3.08c-.021.002-.036.016-.04.025a.055.055 0 0 0 0 .047s-.054-.017-.072-.008c-.018.008 0 .265 0 .265s.216-.137.213-.157c-.006-.019-.05-.055-.05-.055a.054.054 0 0 0 .039-.027c.006-.014.008-.053-.042-.079a.106.106 0 0 0-.048-.011" clip-path="url(#d)"/><path d="M14.895 6.366l-.1.072.048.026.051.026v-.124zm-.097.119c-.021.001-.033.011-.044.027-.012.026 0 .059.028.074.029.015.065.006.077-.019.012-.026 0-.06-.028-.075a.063.063 0 0 0-.033-.007m-.191.119c-.015 0-.028.001-.028.003-.014.007.003.099 0 .178-.006.074-.029.095-.044.12-.007.024-.054.052-.054.052l.036.035s.024-.037.062-.107c.042-.085.042-.239.054-.248.01-.008.102-.029.102-.029s-.084-.006-.128-.004m.158.022s-.095.016-.108.03c-.017.011-.011.14-.059.239a1.306 1.306 0 0 1-.062.112l.026.013.025.012s.014-.033.054-.114c.05-.1.158-.171.159-.189.002-.018-.035-.103-.035-.103m.03.011s.033.086.033.1c.003.015-.123.104-.167.189a1.396 1.396 0 0 0-.051.113l.048.007s-.001-.052.008-.075c.012-.026.018-.056.076-.102.059-.049.144-.093.144-.105 0-.012-.091-.127-.091-.127m-.282.409a.042.042 0 0 0-.036.023c-.008.019-.003.043-.077.191l-.083.16-.089.174s-.019.033.017.051c.035.017.047-.018.047-.018s.054-.102.09-.174l.082-.161c.072-.146.098-.157.105-.175.014-.021.011-.047-.022-.064-.017-.007-.024-.01-.034-.007m-.324.613c-.014.001-.024.006-.029.014-.01.019.008.045.036.062.032.015.062.012.072-.007.011-.019-.007-.046-.039-.059a.054.054 0 0 0-.04-.01m-.044.089c-.021 0-.039.006-.046.021-.014.025.004.057.043.075.033.019.072.015.086-.01.01-.023-.008-.056-.044-.075a.1.1 0 0 0-.039-.011m-.06.112a.036.036 0 0 0-.028.015c-.008.018.007.044.036.059.03.015.062.012.069-.006.01-.019-.006-.045-.033-.06a.086.086 0 0 0-.044-.008m-.024.094c-.018.003-.029.021-.029.021s-.19.372-.253.504c-.021.042-.111.067-.147.136-.036.07-.01.134.036.158.043.024.112.007.148-.062.035-.071.006-.157.026-.2l.255-.503s.021-.034-.015-.051c-.009-.003-.015-.003-.021-.003m-.458.859c-.019 0-.04.009-.048.026-.015.029.003.066.039.083.033.018.072.009.087-.019.012-.027-.003-.064-.036-.082a.073.073 0 0 0-.042-.008m-.301.596c-.01 0-.021.004-.024.012-.007.013.008.035.035.049.025.013.054.011.058-.003.008-.013-.007-.035-.033-.048a.055.055 0 0 0-.036-.01m-.089.071v.183l.152-.106s-.021-.036-.066-.059c-.045-.024-.086-.018-.086-.018m-1.492-5.756a.077.077 0 0 1-.077.076.076.076 0 0 1-.077-.076c0-.044.035-.078.077-.078.041 0 .077.034.077.078z" clip-path="url(#d)" fill="#f9f92b"/><path d="M11.677 3.724c0 .018-.015.035-.033.035a.036.036 0 0 1-.036-.035c0-.019.015-.037.036-.037.018 0 .033.018.033.037" clip-path="url(#d)"/></g></svg>