<svg xmlns="http://www.w3.org/2000/svg" xmlns:xlink="http://www.w3.org/1999/xlink" width="23.771" height="13.868" viewBox="0 0 23.771 13.868"><defs><path id="a" d="M0 0h23.771v13.868H0z"/></defs><clipPath id="b"><use xlink:href="#a" overflow="visible"/></clipPath><path clip-path="url(#b)" fill="#cbae43" d="M0 0h23.771v13.868H0z"/><path clip-path="url(#b)" fill="#b41630" d="M.694.694h22.384v12.479H.694z"/><g clip-path="url(#b)"><defs><path id="c" d="M0 0h23.771v13.868H0z"/></defs><clipPath id="d"><use xlink:href="#c" overflow="visible"/></clipPath><path d="M14.898 6.822c.08-.023.364-.106.562-.267.199-.161.239-.291.255-.36.013-.071.022-.127-.03-.085-.051.039-.205.161-.312.219a1.125 1.125 0 0 1-.26.102c-.056.015-.1.026-.046.003.055-.021.233-.084.373-.223.138-.138.248-.346.25-.474.002-.127-.007-.118-.047-.086-.042.031-.188.212-.269.279a2.35 2.35 0 0 1-.28.2c-.066.039-.159.082-.029-.006.129-.089.376-.299.475-.569.102-.271.082-.43.08-.458-.001-.028-.026-.082-.048-.032-.022.049-.185.378-.318.519-.133.142-.1.115-.129.137-.03.023-.081.063-.017-.016.064-.08.196-.264.264-.446a1.49 1.49 0 0 0 .089-.469.878.878 0 0 0-.064-.295c-.019-.043-.041-.074-.048-.026A5.826 5.826 0 0 1 15.18 5c-.055.158-.17.335-.194.369-.022.035-.082.104-.018-.013a2.22 2.22 0 0 0 .203-.796c.015-.331-.031-.513-.075-.604-.046-.091-.084-.124-.084-.124s.008.225-.061.549c-.067.324-.165.495-.165.495s-.041.047-.013-.032c.019-.051.058-.166.076-.362.02-.205.022-.437-.037-.635-.066-.216-.178-.326-.178-.326-.033.309-.026.708-.14 1.031-.021-.019-.05-.055-.059.017-.02.107-.062.306-.203.559-.139.255-.196.288-.196.288s-.025-.062-.044-.096c-.018-.034-.028-.052-.052-.006-.023.046-.101.225-.27.422-.171.198-.268.293-.262.441.005.147.083.223.187.29.104.066.121.104.107.185-.017.08-.109.107-.189.11-.081.003-.183-.004-.219.015-.037.021-.039.073-.075.109-.035.037-.052.058-.085.062a.106.106 0 0 1-.029.003c-.008-.388.144-.562.144-.562l-.421-.495-.066.03a.315.315 0 0 1-.012-.019.33.33 0 0 1-.075-.224c.021.002.063.017.101.011.039-.009.008-.047-.001-.084a.752.752 0 0 1-.017-.21l.013-.067s.06.067.098.067c.038 0 .034-.039.041-.081a.323.323 0 0 1 .087-.187s.066.046.144.046c.077 0 .18-.022.262-.101.082-.079.08-.098.08-.098s.154.055.27.06c.116.006.241-.015.299-.136.061-.123-.017-.237-.029-.257-.014-.019-.053-.035-.053 0s.001.127-.069.173a.201.201 0 0 1-.192.023.615.615 0 0 0-.38-.01c.007-.005.093-.095.178-.12.089-.027.141.008.17.044.028.033.053.09.075.01a.296.296 0 0 0-.029-.232.215.215 0 0 0-.206-.087.52.52 0 0 0-.117.025s-.044-.124-.155-.147c-.135-.028-.285.022-.401.088 0 0-.093.021-.186-.006a.611.611 0 0 1-.158-.078l.033-.102.054-.019c.029-.01.023-.019.027-.042.003-.024-.053-.064-.053-.064s-.008-.07.084-.118c.092-.047.082-.039.082-.039s.054.01.075-.007c.021-.016.021-.026.021-.026s.042-.013.057-.037a.121.121 0 0 0 .007-.09c-.011-.028-.026-.033-.01-.047a.128.128 0 0 0 .03-.069v-.03s.031-.01.03-.058c-.001-.048-.026-.067-.042-.071-.015-.004-.025-.004-.025-.004s-.003-.029-.027-.068c-.026-.037-.04-.054-.04-.054s.017-.014.007-.045a.077.077 0 0 0-.053-.057c-.023-.007-.046 0-.046 0s-.072-.045-.106-.062l-.043-.022s-.001-.029-.013-.046c-.012-.017-.042-.024-.057-.024-.014 0-.03.009-.03.009s-.124-.032-.174-.039c-.051-.009-.053-.013-.053-.013s-.109-.052-.151-.061c-.043-.007-.055-.011-.055-.011s.044-.055.047-.116a.173.173 0 0 0-.081-.146c-.026-.015-.038-.017-.046-.021v-.044l.08.008.008-.132-.08.01.011-.08-.167-.001.012.08-.08-.005.006.129.085-.01-.009.048s-.029.005-.057.024a.153.153 0 0 0-.077.138.244.244 0 0 0 .038.116l-.053.01c-.043.009-.15.061-.15.061s-.003.004-.055.013c-.05.007-.173.039-.173.039s-.017-.009-.032-.009c-.013 0-.044.008-.055.024a.108.108 0 0 0-.014.046l-.043.022c-.035.017-.106.062-.106.062s-.023-.007-.045 0a.081.081 0 0 0-.052.057c-.01.031.008.045.008.045s-.017.017-.042.054c-.024.039-.026.068-.026.068s-.009 0-.025.004c-.015.004-.039.023-.041.071-.001.048.03.058.03.058l.001.03a.118.118 0 0 0 .03.069c.015.014.001.019-.01.047a.109.109 0 0 0 .008.09c.015.024.056.037.056.037s0 .01.021.026c.024.017.077.007.077.007s-.012-.008.081.039c.092.048.084.118.084.118s-.053.043-.05.066c.004.023-.001.033.027.042l.054.019s.022.066.032.102a.566.566 0 0 1-.158.079c-.091.027-.184.006-.184.006-.118-.066-.266-.116-.401-.088-.113.023-.156.147-.156.147s-.03-.012-.117-.021a.215.215 0 0 0-.206.087.296.296 0 0 0-.029.232c.022.08.048.024.077-.01.028-.035.08-.071.168-.044.086.025.173.115.178.12-.003-.001-.016-.008-.111-.023a.6.6 0 0 0-.268.033c-.068.021-.123.023-.194-.023-.071-.047-.07-.138-.07-.173 0-.035-.037-.019-.05 0-.014.019-.09.134-.032.257.059.121.185.141.301.135.118-.005.27-.059.27-.059s-.003.019.08.098a.381.381 0 0 0 .262.101c.076 0 .142-.046.142-.046.051.044.08.123.089.187.007.042.003.081.041.081s.1-.067.1-.067l.011.067a.716.716 0 0 1-.015.21c-.013.037-.041.075-.001.084.036.006.08-.009.1-.011a.334.334 0 0 1-.073.224.07.07 0 0 0-.012.018 1.765 1.765 0 0 1-.063-.029l-.422.495s.152.174.143.566v-.005a.227.227 0 0 1-.03-.003c-.033-.004-.049-.026-.084-.062-.037-.036-.039-.087-.076-.109-.035-.019-.136-.012-.217-.015-.08-.003-.173-.03-.188-.11-.016-.08.003-.118.107-.185.103-.068.181-.143.185-.29.006-.148-.09-.243-.261-.441-.171-.197-.248-.376-.27-.422-.028-.046-.037-.028-.056.006-.018.033-.044.096-.044.096s-.057-.034-.196-.289a1.846 1.846 0 0 1-.203-.559c-.012-.072-.039-.036-.06-.017-.113-.324-.107-.722-.139-1.031 0 0-.113.11-.178.326-.059.197-.056.43-.038.635.017.196.057.311.077.362.028.079-.014.032-.014.032s-.097-.172-.165-.496c-.067-.324-.058-.549-.058-.549s-.041.032-.087.123c-.045.092-.09.273-.075.604.015.329.14.677.203.796.063.118.004.049-.019.014-.021-.034-.136-.211-.192-.37a6.773 6.773 0 0 1-.17-.53c-.007-.049-.027-.018-.047.025a.854.854 0 0 0-.064.295c.003.104.02.286.089.469.068.182.2.366.265.446.063.079.012.039-.017.016-.029-.022.002.005-.129-.137-.132-.141-.297-.47-.319-.519-.023-.05-.046.004-.048.032-.003.028-.021.187.08.458.1.27.346.48.476.569.13.089.037.046-.03.006a2.664 2.664 0 0 1-.281-.198c-.081-.067-.227-.248-.268-.28-.041-.032-.051-.04-.048.086.002.128.111.336.25.474.139.139.318.202.373.223.055.023.008.012-.046-.003-.059-.017-.156-.044-.261-.102-.106-.058-.261-.181-.312-.22-.051-.041-.045.014-.028.085.015.068.055.199.254.36.2.161.481.244.563.267.08.023.023.023.023.023s-.032-.005-.197-.042a1.934 1.934 0 0 1-.481-.21c-.067-.041-.078-.057-.069.033a.583.583 0 0 0 .257.368c.151.09.427.136.497.139.071.003.053.012.02.015-.031.003-.11.003-.24-.012a1.874 1.874 0 0 1-.316-.081c-.005-.023-.012-.045-.014-.059-.007-.033-.025-.029-.035-.021-.012.006-.019.014-.056.034-.038.018-.038-.006-.041-.017l-.009-.087c-.001-.023-.014-.025-.032-.018l-.134.058c-.032.013-.003.038.013.068l.042.075-.105.028c-.025.007-.018.024-.011.042l.056.132c.01.025.033.01.033.01l.08-.047.026.107c0 .001-.035.007-.076.036-.04.028-.03.065.018.079.048.012.104.039.167.151.062.111.078.313.114.632.039.32.244.483.271.503.028.02.012.035.012.035s-.028.04-.015.102a.155.155 0 0 0 .093.109c.028.01.02.039.02.039s-.013.067 0 .192a.61.61 0 0 0 .145.29c.028.024.03.036.026.046-.004.009-.021.002-.055.027a.362.362 0 0 0-.098.107c-.022.044-.015.07-.007.131.008.06.096.115.096.115s-.015.004-.021.048c-.003.044.03.094.07.126a.312.312 0 0 0 .116.048l.01.065c.004.026.054.053.086.069.031.018.093.008.118-.003.027-.012.045.002.061.029.017.026.01.126.01.166 0 .041-.024.083-.01.102.014.021.053.006.09-.016.039-.023.049-.006.083.016a.271.271 0 0 0 .102.04c.014-.001.008-.038.008-.068 0-.03.005-.098.019-.108.006-.004.066-.01.111-.028.021-.01.047-.018.05-.038.003-.02-.029-.02-.095-.055-.065-.034-.077-.053-.12-.082-.041-.028-.022-.039-.022-.05 0-.013.021-.026.028-.044.008-.016.004-.052.004-.052s.034-.035.048-.052c.017-.019.037-.046.059-.065.022-.017.057-.104.078-.131.022-.028.073-.059.102-.097a.846.846 0 0 1 .157-.131c.046-.03.171-.089.171-.089s-.003.074.03.111c.032.036.075-.028.217-.129.141-.1.25-.136.25-.136s.03.046.068.093c.037.048.073-.001.246-.242.138-.19.319-.364.389-.429.013.006.026.01.039.018-.003.008-.006.019-.012.03-.015.05-.042.082-.075.153-.034.069-.086.084-.145.178a.452.452 0 0 0-.073.253c-.006.096.047.116.047.116s-.087.085-.113.15c-.026.064-.04.194-.04.194s-.013.005-.046.072c-.031.066-.09.075-.173.16-.085.084-.178.12-.222.146-.044.024-.032.051-.021.085.013.034.074.067.142.094.071.026.094.015.143.014.048-.003.01.036-.01.056-.019.02-.045.089-.042.167.003.077.062.059.134.048a.816.816 0 0 0 .156-.048l-.008.023a.234.234 0 0 0-.012.099c0 .062.01.093.028.107.019.017.055-.018.081-.025.025-.009.069-.034.132-.048.066-.013.089-.042.089-.042s-.016.019-.019.064a.547.547 0 0 0 .006.147.29.29 0 0 0 .084.125c.043.039.053.021.084-.029.033-.049.098-.113.098-.113s.004.016.05.158c.043.141.187.259.187.259s.143-.118.188-.259c.044-.143.047-.158.047-.158s.066.064.098.113c.032.05.043.068.087.029a.302.302 0 0 0 .082-.125.64.64 0 0 0 .007-.147c-.004-.045-.021-.064-.021-.064s.025.029.089.042c.064.015.109.039.134.048.027.007.062.042.081.025.017-.015.028-.046.028-.107a.234.234 0 0 0-.012-.099l-.008-.023s.084.035.156.048c.072.011.13.029.133-.048.004-.078-.021-.147-.041-.167-.021-.02-.059-.059-.01-.056.048.001.072.012.141-.014.071-.027.13-.06.141-.094.013-.035.026-.061-.02-.085-.043-.026-.138-.062-.221-.146-.084-.084-.143-.093-.174-.16-.033-.067-.046-.072-.046-.072s-.014-.129-.039-.194a.589.589 0 0 0-.115-.15s.055-.019.048-.116a.469.469 0 0 0-.073-.253c-.059-.094-.113-.109-.147-.178-.033-.071-.059-.103-.074-.153a.176.176 0 0 1-.01-.03l.05-.022c.071.064.253.239.39.43.174.241.208.291.246.244.038-.049.068-.095.068-.095s.107.036.25.136c.141.101.185.165.217.129.017-.018.019-.05.021-.075a3.926 3.926 0 0 0 .341.121c.122.053.137.08.234.157.099.076.237.069.371.029.132-.041.484-.156.625-.217.141-.061.242-.114.257-.142a.483.483 0 0 0 .03-.136c0-.028-.03-.07-.042-.077-.01-.008-.006-.03-.001-.048.001-.018-.006-.072-.029-.095-.022-.025-.019-.034-.017-.102a.428.428 0 0 0-.245-.387s-.002-.017-.015-.028c-.011-.01-.031-.018-.031-.018s.002-.084.001-.102c0-.017.008-.016.017-.011.009.007.026.026.048.033.026.005.041-.012.046-.039.004-.027.024-.081.033-.108.01-.026-.001-.03-.012-.033-.01-.003-.046-.006-.063-.012-.019-.003-.019-.003-.017-.012.006-.009.012-.024.033-.057.021-.034.001-.035-.019-.042-.021-.006-.115-.035-.141-.039-.026-.005-.032.018-.032.03l.002.076c0 .018-.016.012-.026.008l-.051-.032c-.017-.015-.03-.002-.038.018l-.035.127c-.005.021-.004.041.006.044.01.003.056 0 .084 0 .029 0 .013.016.013.016l-.041.067c-.008.019-.026.022-.049.022h-.06s-.153.006-.265.088a.43.43 0 0 0-.16.193c-.018.042-.039.033-.056.046-.018.015-.065.067-.065.099 0 .031.01.048-.038.08-.05.031-.089.169-.024.24.066.074.091.145.111.18.022.034 0 .048-.016.048-.017 0-.053-.03-.084-.052-.03-.023-.183-.141-.248-.189-.066-.049-.016-.044-.016-.044s.016.001.054-.014c.037-.016.044-.037.006-.048a.482.482 0 0 1-.133-.075c-.019-.02-.03-.042.009-.062.038-.019.121-.075.055-.092-.066-.019-.143-.033-.208-.049-.064-.019-.071-.037-.071-.037l.042-.06s.035-.048-.005-.054c-.041-.007-.138-.019-.225-.057a.54.54 0 0 1-.327-.363l.002-.004c.033.066.11.187.226.191.158.005.176-.044.139-.095-.036-.053-.077-.098-.089-.115-.009-.016-.012-.036.029.003.041.038.12.17.358.155.239-.017.237-.062.237-.075 0-.046-.048-.053-.077-.082-.015-.015-.024-.037.023-.018a.63.63 0 0 0 .327.006c.064-.014.231-.086.248-.172 0 0-.107-.006-.181-.038-.074-.031-.12-.057-.039-.042.078.015.232.047.367.002.078-.027.181-.089.181-.207 0 0-.147-.032-.202-.051a.262.262 0 0 1-.068-.034s.21.066.399-.029c.191-.098.198-.228.198-.258 0-.032-.004-.042-.004-.042s-.173.042-.303.042c-.129 0-.169-.013-.169-.013s.363-.01.544-.121c.182-.111.194-.33.194-.33s-.209.073-.336.088c-.13.015-.21.015-.241.012-.031-.002-.049-.012.021-.015a1.43 1.43 0 0 0 .498-.14.585.585 0 0 0 .256-.368c.009-.09-.001-.074-.069-.032a1.994 1.994 0 0 1-.481.209c-.164.037-.198.042-.198.042s-.057 0 .024-.023m-6.508.414l-.073.044-.037-.078c-.007-.017-.003-.026.006-.026.01 0 .041-.009.064-.01l.01-.002a.453.453 0 0 0 .033.072H8.39m2.219 1.299a.59.59 0 0 1-.252.207c-.089.039-.185.051-.225.057-.041.006-.006.054-.006.054l.042.059s-.006.019-.071.037c-.063.018-.141.033-.207.051-.067.018.018.072.056.092.038.019.028.043.008.062a.456.456 0 0 1-.131.073c-.037.013-.033.033.007.05.036.016.142.035.142.035s-.003.005-.069.053a.497.497 0 0 1-.248.084 3.319 3.319 0 0 1-.342.002c-.149-.006-.165-.01-.165-.01l-.015-.123a.613.613 0 0 0-.089-.225l-.107-.144.007-.044c.006-.024.003-.05-.015-.095a.404.404 0 0 0-.104-.111s-.005-.048-.005-.094c0-.044-.031-.222-.059-.305-.026-.083-.163-.302-.225-.405a1.116 1.116 0 0 1-.117-.378.492.492 0 0 1-.006-.192.405.405 0 0 1 .014-.037.373.373 0 0 0 .101.09c.182.111.543.121.543.121s-.04.013-.169.013c-.129.001-.302-.041-.302-.041s-.005.01-.005.042c0 .03.009.16.199.258.188.095.398.029.398.029s-.017.015-.07.033c-.055.02-.201.052-.201.052 0 .118.102.18.181.207.135.044.288.012.367-.003.08-.015.035.01-.04.042-.073.033-.181.039-.181.039.017.085.185.158.248.172.16.035.278.012.326-.006.047-.02.038.003.023.018-.027.028-.076.036-.076.081 0 .014-.003.059.237.075.237.015.316-.117.358-.155.04-.039.037-.019.028-.003-.011.017-.052.062-.089.115-.035.052-.017.1.14.095.116-.003.192-.127.226-.192l.001.003a.055.055 0 0 1 .007.009c-.015.039-.04.102-.068.153m1.92-5.146l-.033-.06s.09.044.143.103c.053.06.053.091.06.122.008.028 0 .083-.007.134-.009.051-.009.082.001.1.01.018.019.028.019.028s-.04.01-.077.024c-.038.015-.087.029-.115.006-.027-.023-.034-.039-.017-.054s.081-.033.089-.142a.5.5 0 0 0-.063-.261m-.489.296c.02-.051.03-.1.014-.207-.012-.089-.031-.165-.037-.263 0 0 .067.015.163.102.094.086.116.176.116.22 0 .043-.023.096-.026.138-.006.043.01.079.01.079s-.035.016-.066.037a.146.146 0 0 1-.102.034c-.045-.002-.075-.025-.102-.038-.028-.015-.046-.017-.046-.017s.056-.031.076-.085m-.465-.367a.415.415 0 0 1 .162-.102c-.004.098-.021.174-.034.263-.017.107-.008.156.012.207.021.053.076.084.076.084s-.018.003-.046.017c-.028.013-.057.036-.105.039a.144.144 0 0 1-.101-.034c-.032-.021-.066-.037-.066-.037s.015-.036.011-.079c-.003-.042-.026-.095-.026-.138a.332.332 0 0 1 .117-.22m-.342.528c-.026.023-.077.009-.113-.006-.038-.015-.077-.024-.077-.024s.01-.01.019-.028c.011-.018.011-.049.002-.1-.007-.051-.016-.106-.007-.134.007-.031.006-.062.059-.122a.59.59 0 0 1 .142-.103s-.01.021-.033.06a.535.535 0 0 0-.063.262c.008.109.071.127.089.142.016.015.008.031-.018.053m1.268.914c-.093.051-.147.039-.144.078.004.037.087.067.087.067s-.084.092-.151.135c-.066.042-.145.068-.145.068s-.027.004-.013.047c.016.042.043.07.063.082l.033.015s-.116.125-.167.165a.453.453 0 0 1-.122.07c-.042.018-.021.087-.012.118.01.032.047.073.067.079.021.006.029.021.002.064-.021.031-.088.115-.12.161l-.001.001c-.031-.046-.098-.131-.12-.162-.028-.043-.019-.058.002-.064.021-.006.057-.047.067-.079.009-.03.03-.1-.012-.118a.412.412 0 0 1-.122-.07c-.052-.039-.168-.165-.168-.165s.011-.004.032-.015a.16.16 0 0 0 .063-.082c.017-.043-.01-.047-.01-.047s-.08-.026-.147-.068c-.065-.043-.152-.134-.152-.134s.084-.03.089-.067c.003-.039-.05-.027-.145-.078-.093-.052-.123-.117-.123-.117s.109-.037.161-.147a.196.196 0 0 0 .023-.104l.003.002c.174.057.378.08.56.08.181 0 .384-.023.558-.08l.004-.002a.201.201 0 0 0 .021.104c.054.109.163.147.163.147s-.03.064-.124.116" clip-path="url(#d)" fill="#ac6a32"/><path d="M10.578 4.91a.624.624 0 0 0-.24-.073.755.755 0 0 0-.275.031.308.308 0 0 1-.164.006.222.222 0 0 1-.153-.172s-.07.09.001.187a.207.207 0 0 0 .124.084c.147.03.292-.061.414-.068.118-.007.211.066.211.066s.028.023.066 0c.041-.021.053-.04.016-.061m3.433-.209c-.021.085-.078.152-.154.172a.299.299 0 0 1-.164-.006.76.76 0 0 0-.275-.031.63.63 0 0 0-.24.073c-.037.021-.025.039.015.061.038.024.067 0 .067 0s.091-.073.21-.066c.124.007.267.096.414.068a.216.216 0 0 0 .124-.085c.071-.096.003-.186.003-.186" clip-path="url(#d)" fill="#b41630"/><path d="M13.071 6.869c0-.293.134-.48.134-.48l-.367-.421c-.349.135-.672.143-.959-.003-.285.146-.607.138-.957.003l-.369.421s.135.187.135.48c0 .295-.056.513-.09.654-.033.143-.062.408.015.598.075.19.156.356.484.493.327.138.499.209.612.304.113.095.17.171.17.171s.058-.076.172-.171c.113-.095.284-.166.611-.304.327-.138.408-.304.484-.493.077-.19.048-.455.015-.598-.035-.141-.09-.359-.09-.654m-2.826 2.348s-.118.057-.156.067c-.037.01-.046.01-.046.01s-.081.075-.142.109a.528.528 0 0 1-.205.071c-.092.01-.347.007-.463.003-.114-.005-.185.023-.234.079-.049.054-.062.134.001.196.063.061.133.03.156-.008.024-.037.011-.086.001-.107-.01-.022.021-.029.052-.031a.813.813 0 0 1 .137.01.74.74 0 0 1 .172.057c.038.02.016.023-.01.019-.026-.004-.055-.015-.101-.032a.438.438 0 0 0-.115-.027c-.029-.002-.019.014-.013.024s.022.036.026.046c.005.013-.009.057-.009.057l.014.027s.017-.027.025-.043c.005-.014-.003-.042.003-.055.008-.012.031-.012.051.01a.19.19 0 0 1 .05.103c.009.054-.009.093-.009.093s.023.019.028.032c.004.013-.007.066-.007.066s.016.008.031-.02a.745.745 0 0 0 .035-.104c.005-.019.019-.055.041-.026a.193.193 0 0 1 .043.073c.005.015.005.029.005.029s.053-.051.07-.08a.538.538 0 0 1 .102-.113c.051-.041.135-.122.178-.151.042-.027.148-.085.182-.105.034-.021.039-.022.046-.078.005-.058.033-.108.046-.147a.394.394 0 0 0 .015-.054m-.092-.045l-.035-.003a.504.504 0 0 1-.077-.024c-.013-.006-.033-.008-.046.008-.015.015-.12.076-.12.076h.176c.062 0 .102-.057.102-.057" clip-path="url(#d)" fill="#cbae43"/><path d="M10.647 9.144v-.019l-.023-.051s-.028.017-.055.044c-.033.035-.071.086-.086.106-.03.039-.071.075-.035.014.035-.059.047-.086.075-.125.028-.039.049-.057.046-.06a.937.937 0 0 0-.1-.015c-.073-.01-.119-.038-.153-.057-.033-.02-.095-.053-.095-.053s-.124.053-.172.064c-.047.012-.075.018-.03.042.046.021.085.03.107.043a.328.328 0 0 0 .134.036c.042 0 .114.001.086.03a.492.492 0 0 0-.091.171.597.597 0 0 0-.032.199c0 .037.006.075.006.075s.051-.057.188-.145c.138-.086.189-.116.216-.128.026-.012.038-.012.035-.044a1.274 1.274 0 0 1-.021-.127" clip-path="url(#d)" fill="#cbae43"/><path d="M11.174 8.725l-.027-.012-.006.003a.443.443 0 0 0-.134.118c-.035.056-.068.061-.03 0a.522.522 0 0 1 .093-.118l.029-.025a1.833 1.833 0 0 1-.212-.122.275.275 0 0 1-.047.072c-.029.03-.093.057-.093.057s.051-.053.069-.094a.294.294 0 0 0 .022-.071.955.955 0 0 1-.14-.131.49.49 0 0 1-.119.212c-.108.122-.324.183-.324.183s-.075.007-.013.023c.06.016.104.044.223.022.12-.021.128-.026.144-.03.017-.006.061-.002 0 .02a.782.782 0 0 1-.252.039c-.053-.005-.127-.016-.049.024.075.042.109.057.155.057.047 0 .066.014.111.014.046 0 .058-.008.091-.014.033-.006.053.005.053.017 0 .014-.043.049-.041.138a.799.799 0 0 0 .015.172.7.7 0 0 0 .042.093c.013.025.017.048.03-.003.012-.052.042-.126.053-.176.012-.049.017-.05.022-.077.006-.025.032-.044.019.002-.012.046-.028.107-.037.148-.01.043-.032.12.007.058.038-.06.184-.224.208-.252.024-.029.044-.057.062-.081.018-.025.069-.057.093-.092a.906.906 0 0 1 .113-.118l-.13-.056M8.345 7.088c-.001-.01-.022-.045-.025-.062-.006-.016-.023-.007-.023-.007s-.038.023-.064.03c-.03.007-.034-.003-.037-.019l-.014-.092c-.003-.031-.01-.03-.023-.024l-.07.027c-.025.012-.017.024-.009.036.008.015.035.072.048.092.013.02.001.028-.014.035-.014.007-.036.01-.063.02-.031.009-.028.016-.025.027a.543.543 0 0 0 .032.067c.011.018.02.006.02.006s.032-.028.057-.041c.026-.013.028-.009.035.011.008.019.037.122.042.14.006.019.016.018.03.012.013-.005.032-.009.047-.013.016-.006.021-.035.021-.035l-.073-.13c-.015-.026 0-.031.013-.034a.944.944 0 0 0 .073-.014c.031-.007.022-.023.022-.032m.644 2.789c-.004-.025 0-.05-.019-.068a.236.236 0 0 1-.051-.087c-.009-.032.008-.046.004-.065-.002-.016-.025-.016-.049.003-.023.02-.054.036-.054.092 0 .055.021.12.097.143.078.024.076.005.072-.018m.078-.027s-.017-.01-.024.003c-.008.017-.005.024.015.056.021.031.033.038.056.053s.008-.015.005-.024c-.003-.008 0-.02-.005-.027-.007-.008-.009-.017-.009-.04 0-.022-.038-.021-.038-.021" clip-path="url(#d)" fill="#cbae43"/><path d="M9.161 10.112c.015-.021.027-.028.062-.044a.412.412 0 0 1 .122-.026c.02-.001.071-.042.062-.087-.006-.043-.038-.06-.066-.067-.028-.005-.053-.005-.061.007a.123.123 0 0 1-.055.042c-.03.009-.035.019-.053.025-.019.005-.005.018-.021.031-.016.013-.037 0-.062-.008-.026-.007-.026-.01-.054-.011l-.1-.007s-.003-.002-.018-.002c-.017 0-.019.002-.026.019a.114.114 0 0 0 .019.084c.017.023.075.033.111.044a.797.797 0 0 0 .089.021c.033.007.037.001.051-.021m.352.035c.031-.021.014-.056.006-.077-.006-.022-.049-.026-.071-.026-.022 0-.033 0-.046.011a.156.156 0 0 1-.057.035c-.034.01-.059.022-.102.039s-.057.046-.075.059c-.019.011-.054 0-.054 0s-.027-.008-.035 0c-.009.006 0 .02.017.041.018.018.051.016.089.028s.044.003.059-.007c.014-.01.026-.033.052-.049.026-.015.082-.018.111-.02a.31.31 0 0 0 .106-.034m0-.132c.014.012.028.027.039.008.011-.02.03-.058.018-.082a.415.415 0 0 0-.029-.042s-.022.066-.032.084c-.009.018-.009.019.004.032m-.118-.201c0-.037-.025-.084-.025-.084s-.009.035-.023.066c-.017.03-.034.047-.034.047s.039.009.053.009c.015 0 .029 0 .029-.038m-.216.081a.161.161 0 0 0 .078-.041c.019-.013.028-.053.018-.074-.012-.02-.042-.041-.052-.041h-.022s-.012.038-.029.057c-.015.018-.034.031-.033.056.002.025-.001.051.04.043m.083-.186a.072.072 0 0 0-.02-.052l-.02-.022-.007.045c-.002.016-.005.019-.005.019s.013.012.023.017c.009.004.027.013.029-.007m-.502-1.03s.048 0 .026-.172a1.101 1.101 0 0 0-.179-.445 2.186 2.186 0 0 1-.177-.381 1.108 1.108 0 0 1-.052-.288c0-.068.029-.103.029-.103s.012-.018.001-.028c-.013-.013-.03-.002-.05.016a.247.247 0 0 0-.044.075c-.008.024-.008.034-.008.034s-.036-.01-.094-.005c-.059.004-.086.01-.089.022-.001.013.008.022.05.04.043.019.069.027.09.051.021.026.077.15.092.211.018.061.052.225.066.352.014.129.058.284.118.416.021.043.129.245.221.205m.106.301c-.04.022-.039.184-.02.269.017.084.1.188.124.216.026.028.031.028.046.021.012-.006.019-.006.019-.006s.034-.014.06-.033c.028-.022.017-.074.012-.118a.68.68 0 0 0-.106-.244c-.063-.105-.096-.127-.135-.105m.044-.131c0-.053-.046-.093-.098-.093-.026 0-.048.006-.061.019-.054.049-.021.169.056.169.028 0 .06-.005.081-.025.017-.016.022-.045.022-.07m.767 1.523c-.021-.003-.034-.012-.064-.033a.318.318 0 0 1-.091-.087c-.009-.02-.009-.021-.038-.011-.03.008-.072.008-.104.008-.033.002.004.038.026.072.023.033.015.147.015.147s0 .01-.005.026c-.006.017-.001.027.006.032.01.003.014-.005.037-.03a.944.944 0 0 0 .063-.096l.042.011a.281.281 0 0 0 .12-.006c.027-.009.015-.029-.007-.033" clip-path="url(#d)" fill="#cbae43"/><path d="M9.544 10.458c-.015-.001-.022-.003-.03.008-.006.008-.012.028-.017.038-.004.01-.001.019.006.026l.021.017s.012.014.025.019c.012.008.015-.012.015-.025 0-.014.008-.038.008-.055s-.014-.024-.028-.028m-.381-5.464c.004.09.103.26.158.35.057.091.071.129.063.133-.01.007-.033-.04-.066-.081-.03-.04-.089-.134-.139-.206-.052-.071-.123-.242-.135-.258-.009-.016-.012-.026-.038-.005-.025.019-.074.207-.015.335.057.127.145.221.181.264.038.046.086.115.078.122-.008.004-.021-.013-.065-.06a3.845 3.845 0 0 1-.167-.182 1.3 1.3 0 0 1-.111-.179c-.006-.012-.017-.008-.023-.002-.017.017-.042.053-.03.154a.485.485 0 0 0 .155.295c.065.072.13.132.121.142-.01.009-.077-.051-.124-.095-.046-.046-.16-.155-.186-.186-.024-.032-.061-.016-.06.106.001.121.138.245.194.315.056.066.125.107.12.12-.005.013-.063-.021-.099-.046l-.201-.133c-.026-.019-.04.018-.006.133a.526.526 0 0 0 .196.251c.059.044.156.095.15.108-.006.014-.046-.003-.103-.03a1.192 1.192 0 0 0-.171-.066c-.049-.013-.048.022-.048.022s-.01.099.062.178c.071.08.153.109.23.124.077.013.088.017.086.029-.002.011-.009.014-.027.014-.017 0-.087.008-.154.008-.066 0-.1.015-.1.044 0 .03-.003.067.095.134.099.065.21.074.256.085.047.009.048.013.039.027-.01.013-.031.012-.104.019-.074.007-.118.036-.128.055-.01.019.006.079.066.119.059.04.137.053.253.046.116-.007.145-.01.148.01.004.019-.034.026-.092.035-.058.01-.104.01-.136.038-.032.026-.007.081.049.122.057.04.194.04.253.038.057-.004.147-.026.154-.01.005.015-.043.039-.102.06-.06.022-.078.033-.091.06-.011.025-.003.048.07.075a.337.337 0 0 0 .23.002c.054-.026.084-.035.093-.026.01.01 0 .02-.011.034a.283.283 0 0 1-.117.065c-.061.016-.067.016-.089.065-.021.048.033.086.141.091a.717.717 0 0 0 .301-.067c.046-.026.063-.032.071-.022.007.009.006.015-.018.033a.65.65 0 0 1-.133.079c-.036.01-.042.037-.042.063 0 .024-.009.075.088.098a.383.383 0 0 0 .38-.127.79.79 0 0 1 .008-.23.409.409 0 0 1-.1-.023c-.058-.024-.081-.078-.095-.107-.014-.03-.033-.03-.057-.021-.023.008-.047.018-.078.016a.236.236 0 0 1-.154-.08c-.049-.06-.04-.119-.042-.147.001-.031-.046-.008-.07-.008a.312.312 0 0 1-.153-.053c-.062-.044-.062-.1-.068-.124-.005-.024-.03-.039-.049-.047-.019-.008-.051-.015-.093-.05a.197.197 0 0 1-.06-.126c-.002-.023-.029-.025-.114-.07-.087-.044-.08-.137-.077-.174.003-.038.044-.068.044-.082 0-.013-.028-.017-.057-.035-.029-.016-.101-.046-.104-.155-.001-.108.071-.12.071-.12s-.015-.005-.043-.023c-.03-.016-.109-.071-.109-.135 0-.064.028-.093.05-.109.022-.015.08-.03.08-.03s-.037-.022-.053-.074c-.015-.05-.022-.112.016-.156.037-.045.099-.045.132-.045s.06.018.073.007c.011-.009.013-.017.002-.042a.183.183 0 0 1-.005-.108c.01-.022.013-.065.095-.092.084-.026.17.03.198.046.027.014.015-.022.015-.049s-.056-.095-.12-.192a1.965 1.965 0 0 1-.291-.679c-.01-.048-.03-.025-.03-.025s-.018.007-.064.119a.727.727 0 0 0-.048.304" clip-path="url(#d)" fill="#cbae43"/><path d="M10.622 6.974a.22.22 0 0 1-.165-.102c-.049-.071-.125-.09-.255-.087-.129.003-.189-.059-.222-.149-.03-.09.007-.194.139-.258.132-.066.191-.137.197-.249.003-.113-.131-.251-.27-.41-.137-.156-.243-.378-.243-.378s-.04.053-.04.104c0 .052.019.107 0 .122-.02.015-.028-.022-.107-.058-.08-.034-.146-.039-.194.02-.05.055 0 .156.044.203.045.048.082.082.071.1-.014.017-.08-.027-.104-.042-.022-.016-.074-.073-.152-.064-.077.006-.104.029-.111.093-.008.066.069.122.12.147.05.025.07.047.056.057-.012.01-.024 0-.046-.007a.232.232 0 0 0-.126 0c-.039.016-.104.069-.044.138.059.068.184.091.209.097.023.005.038-.003.039.018.004.019-.052.019-.118.021-.067.003-.087.069-.077.118.01.051.122.104.184.114.062.01.084 0 .09.018.005.018-.008.025-.043.036-.036.008-.102.017-.115.072-.012.055-.015.08.037.127s.137.04.162.035c.025-.005.055-.033.08-.007.025.024-.021.044-.064.075-.044.029-.041.087.031.125a.212.212 0 0 0 .175.016c.03-.009.07-.056.089-.027.02.029-.061.04-.096.082-.036.043-.022.112.047.154.069.042.184.014.205-.004.02-.018.044-.025.059-.011.016.015-.006.056-.022.091-.015.034-.042.137.063.177.105.039.199-.05.216-.068.018-.017.036-.019.051-.012.015.007.008.022-.005.039a.108.108 0 0 0 .034.145.186.186 0 0 0 .138.028c.015-.057.035-.12.057-.208h-.017c-.01 0-.012.015-.012.021 0 .007.003.012-.006.012-.008 0-.01.004-.023.013-.012.01-.025.021-.031.017-.008-.006.026-.025.035-.035.009-.011.026-.028.028-.04.001-.012.008-.02.026-.033l.013-.017c.012-.058.024-.126.035-.209.008-.055.01-.109.012-.158l-.034-.002zM8.493 5.42c.111.224.269.352.269.352s-.02-.056-.03-.094c-.01-.039-.002-.083-.002-.083s-.04-.05-.113-.162c-.073-.113-.111-.278-.111-.278s.067.165.12.253c.052.087.113.16.113.16s.021-.077.037-.082c.015-.003.026.008.039.026.014.017.025.016.025.016s-.018-.037-.046-.083c-.012-.021-.03-.041-.043-.062-.043-.066-.133-.19-.178-.314a5.821 5.821 0 0 1-.162-.529c-.018-.092-.036-.042-.054.027-.017.067-.042.162-.025.307.015.144.049.321.161.546m.143.608c.042.031.103.072.103.072s-.009-.024-.015-.051c-.007-.026-.009-.082-.009-.082l-.083-.072c-.033-.03-.076-.068-.16-.172-.086-.106-.018-.044.051.032.069.075.201.183.201.183v-.024a.1.1 0 0 1 .021-.054c.012-.015.005-.017-.069-.075a2.132 2.132 0 0 1-.345-.402c-.078-.129-.164-.305-.164-.305s-.041.258.116.543c.158.284.313.376.353.407m.826 1.626c.085-.035.063-.118.063-.12 0-.002-.053.017-.102.034a1.11 1.11 0 0 1-.216.056c-.048 0-.048-.006-.049-.013-.001-.008.037 0 .105-.013.068-.012.188-.075.208-.089s.018-.016-.012-.02a.124.124 0 0 1-.069-.026c-.011-.01-.043.003-.121.021a1.391 1.391 0 0 1-.62.022c-.02-.003-.04.007.019.108.061.099.268.154.415.153.146-.002.292-.08.379-.113m-.388-.207c.15.001.206-.043.206-.043s0-.008-.02-.039c-.02-.03-.016-.082-.016-.082s-.037.007-.099.015c-.063.008-.135.018-.216.003-.08-.013-.046-.021.019-.015a.693.693 0 0 0 .225-.03c.04-.013.024-.026-.004-.035-.026-.009-.099-.055-.099-.055s-.182.023-.353.004c-.169-.019-.277-.062-.31-.068-.034-.004-.033.01-.033.01s-.009.014.049.106a.49.49 0 0 0 .27.18c.098.029.23.048.381.049m-.039-.353s-.006-.008-.015-.039c-.009-.03.017-.054.017-.054s-.036-.009-.147-.024c-.112-.013-.119-.023-.187-.037-.07-.016-.116-.035-.114-.043 0-.009.024.002.064.018.04.017.212.033.285.044.073.01.114.017.127.01.013-.009.058-.02.058-.02l-.07-.016a.238.238 0 0 1-.093-.035c-.021-.014-.027-.019-.119-.029-.091-.01-.165-.039-.33-.1a1.401 1.401 0 0 1-.321-.158c-.033-.027-.03-.008-.021.027.01.035.007.077.09.175.082.098.124.138.333.215.209.077.443.066.443.066m-.618-.508c.184.13.401.178.447.184.011-.012-.01-.056 0-.081.011-.032.031-.033.075-.035.046-.003.015-.012.006-.012-.01 0-.013-.001-.088-.021-.073-.019-.147-.031-.25-.069-.102-.039-.133-.066-.13-.074.001-.008.047.025.141.06.094.036.203.049.264.063.059.012.008-.014-.02-.03a.324.324 0 0 1-.068-.077s-.065-.011-.174-.044a1.522 1.522 0 0 1-.29-.122c-.03-.018-.062-.041-.094-.064-.062-.044-.123-.091-.147-.107-.037-.027-.027-.004-.022.011a.602.602 0 0 0 .088.177c.057.084.077.111.262.241m-.031-.367c.183.145.34.189.367.202.026.011.024-.006.019-.02-.004-.015-.01-.065-.01-.065l-.138-.079a2.586 2.586 0 0 1-.205-.138c-.054-.036-.023-.034-.006-.019.016.014.091.057.165.102.073.047.187.113.187.113s.003-.025.017-.04c.015-.015.053-.011.053-.011s-.019-.019-.03-.037-.071-.036-.14-.07a1.578 1.578 0 0 1-.278-.195 4.52 4.52 0 0 1-.274-.28c-.011-.016-.019-.013-.02.007-.001.018-.009.032.012.118a.8.8 0 0 0 .281.412m.646-1.363c.021.042.043.075.059.104.025.04.039.069.039.069s.005-.016 0-.04a.288.288 0 0 1 0-.102c.003-.024.009-.045.006-.065-.001-.023-.007-.043-.011-.057-.004-.024-.033-.13-.046-.204a1.67 1.67 0 0 1-.023-.278c0-.095.015-.046.015-.001 0 .046.003.116.019.223.013.109.06.275.06.275s.003-.026.016-.062c.013-.035.036-.077.054-.122.017-.044.011-.053.011-.053s-.064-.305-.08-.45a15.193 15.193 0 0 1-.044-.526c-.094.095-.163.343-.177.577-.01.177.019.34.028.405.017.133.04.235.074.307m-.209.483c.004-.069.02-.122.065-.137 0 0-.041-.069-.075-.168a1.335 1.335 0 0 1-.053-.221c-.024-.166-.044-.334.006-.057.047.276.108.374.108.374l.069.116a.51.51 0 0 1-.008-.142.783.783 0 0 1 .027-.188s-.086-.172-.14-.378a2.367 2.367 0 0 1-.087-.505c-.003-.108-.006-.15-.006-.15s-.088.067-.117.402c-.03.336.058.657.102.78.044.121.109.274.109.274m.962 2.559s-.012-.01-.054-.037c-.044-.026-.03-.107-.03-.107s-.011.01-.042.03a.48.48 0 0 1-.107.063c-.042.017-.063.028-.089.036-.027.008-.019-.003.003-.015.021-.012.029-.02.084-.042.055-.022.167-.12.167-.12s-.027-.003-.073-.003a.42.42 0 0 1-.103-.026s-.046.041-.231.12c-.185.08-.342.101-.342.101s.019.094.108.127c.075.031.175.05.375.004.197-.048.334-.131.334-.131m.243.189c.015-.077-.029-.133-.029-.133s-.01.006-.037.031c-.029.026-.069.073-.147.112-.077.039-.105.037-.03-.004.075-.04.186-.155.186-.155l-.03-.011c-.029-.011-.08.009-.288.133-.208.125-.33.13-.33.13s.093.113.345.104c.253-.008.345-.129.36-.207m.478-.09s-.028.039-.066.064c-.037.025-.137.041-.137.041s-.003.011-.023.036c-.021.025-.064.084-.108.117-.044.031-.113.053-.118.044-.003-.008.039-.024.084-.051.043-.026.081-.075.111-.11.029-.033-.014-.027-.014-.027s-.051.002-.1-.002c-.048-.005-.039 0-.053.024-.014.024-.034.044-.07.085-.043.051-.085.097-.126.148-.029.033-.008.043-.008.043s.013.02.125.033a.352.352 0 0 0 .223-.047.647.647 0 0 0 .152-.13c.136-.147.128-.268.128-.268m.059.304c-.026.037-.042.052-.042.052s.019-.059.035-.088a.514.514 0 0 1 .027-.039.63.63 0 0 1-.046-.135c-.013.04-.052.158-.1.234-.057.092-.111.125-.076.151.034.025.098.03.172-.006.072-.034.093-.096.102-.145a.699.699 0 0 1-.035-.061c-.007.007-.022.018-.037.037m4.228-2.02a.515.515 0 0 0 .196-.251c.035-.116.022-.152-.006-.134-.026.019-.164.109-.201.134-.037.025-.092.059-.099.046-.005-.012.064-.053.12-.12.057-.069.192-.194.193-.315.003-.122-.035-.138-.06-.107-.024.031-.139.141-.185.186-.046.044-.115.104-.123.095-.01-.01.055-.07.119-.142a.487.487 0 0 0 .157-.295c.01-.102-.015-.138-.032-.154-.006-.006-.015-.01-.022.002-.018.035-.072.13-.111.178a5.428 5.428 0 0 1-.165.183c-.046.047-.059.064-.067.059-.008-.006.042-.076.078-.121.037-.044.125-.138.181-.264.058-.129.012-.315-.014-.335-.026-.021-.03-.009-.039.006-.01.016-.083.186-.134.258-.051.072-.11.166-.142.206-.03.042-.053.088-.063.081-.01-.004.006-.042.062-.133.057-.09.155-.26.159-.35a.744.744 0 0 0-.048-.304c-.044-.112-.064-.12-.064-.12s-.02-.023-.029.025a1.93 1.93 0 0 1-.292.679c-.064.098-.119.165-.119.192s-.012.063.014.048c.028-.016.116-.072.199-.046.083.028.084.07.095.092a.182.182 0 0 1-.004.108c-.011.025-.009.033.001.042.012.011.041-.007.075-.007.033 0 .094 0 .131.045.035.044.03.106.015.156-.015.051-.052.074-.052.074s.059.015.08.03a.125.125 0 0 1 .051.109c0 .064-.081.119-.109.136l-.043.024s.071.012.069.12c-.003.109-.075.138-.104.155-.029.019-.058.022-.058.035 0 .014.04.044.044.082.006.037.013.13-.074.174-.088.045-.113.047-.115.071a.211.211 0 0 1-.059.126c-.042.035-.073.042-.093.05-.019.008-.045.023-.051.047-.006.024-.006.08-.068.123a.312.312 0 0 1-.153.053c-.023 0-.069-.022-.072.008-.001.028.008.086-.043.147a.232.232 0 0 1-.153.08c-.033.002-.056-.008-.078-.016-.023-.008-.043-.008-.056.021-.013.029-.037.083-.095.107a.424.424 0 0 1-.099.023.793.793 0 0 1 .007.23c.012.017.03.037.065.06a.382.382 0 0 0 .315.067c.097-.022.086-.073.086-.098 0-.026-.005-.053-.042-.062a.634.634 0 0 1-.133-.08c-.021-.017-.024-.024-.017-.033.008-.01.026-.004.072.023s.191.07.299.066c.109-.005.163-.043.14-.091-.02-.049-.026-.049-.087-.065a.282.282 0 0 1-.118-.065c-.012-.014-.02-.022-.012-.034.01-.008.04 0 .093.026a.337.337 0 0 0 .23-.002c.071-.028.081-.051.069-.075-.011-.026-.029-.037-.088-.06-.061-.021-.109-.045-.103-.06s.094.006.153.01c.057.003.196.003.252-.037.057-.042.084-.096.049-.122-.033-.028-.078-.028-.135-.038-.058-.009-.098-.016-.093-.035.004-.02.033-.017.15-.01.115.008.192-.006.254-.046.059-.04.074-.1.066-.119-.01-.019-.055-.048-.129-.055-.073-.008-.095-.006-.104-.019-.01-.014-.008-.017.038-.026.047-.012.157-.021.256-.086.099-.066.097-.104.097-.134 0-.029-.035-.044-.101-.044s-.136-.009-.153-.009c-.019 0-.026-.003-.028-.013-.002-.012.008-.017.087-.03a.39.39 0 0 0 .231-.124c.071-.079.062-.178.062-.178s0-.035-.05-.022a1.355 1.355 0 0 0-.172.066c-.055.027-.097.044-.102.03-.005-.012.092-.064.151-.108" clip-path="url(#d)" fill="#cbae43"/><path d="M14.542 6.016a.225.225 0 0 0-.124 0c-.022.007-.034.017-.048.007-.012-.01.009-.032.057-.057.051-.026.129-.082.122-.147-.009-.064-.036-.087-.114-.093-.076-.009-.129.048-.151.064-.022.015-.089.059-.102.042-.013-.018.024-.053.069-.1.044-.047.095-.148.044-.203-.05-.059-.113-.054-.194-.018-.08.035-.088.071-.106.057-.021-.015 0-.071 0-.122 0-.051-.041-.104-.041-.104s-.107.222-.244.378c-.136.159-.274.297-.27.41.005.112.065.183.198.249.133.064.17.168.137.257-.032.091-.092.153-.223.149-.127-.004-.202.015-.252.086-.05.073-.114.1-.165.102l-.033.001a2.098 2.098 0 0 0 .048.367l.012.017c.019.013.024.021.026.033.001.012.019.029.028.04.01.01.043.028.037.035-.008.004-.02-.007-.033-.017-.012-.009-.014-.013-.024-.013-.007 0-.004-.005-.004-.012 0-.006-.001-.021-.012-.021h-.015c.019.089.04.151.055.208.03.006.086.008.138-.028a.106.106 0 0 0 .035-.145c-.012-.017-.019-.033-.005-.039.015-.008.033-.005.05.012.018.018.111.107.217.068.104-.04.078-.143.063-.177-.015-.035-.038-.075-.022-.091.015-.014.04-.007.06.011.019.018.134.046.203.004.069-.042.082-.111.047-.154-.035-.042-.116-.053-.098-.082.021-.029.061.018.09.027.03.011.103.026.175-.015.073-.039.074-.096.031-.126-.041-.03-.089-.051-.064-.075.026-.026.055.002.08.007.026.006.109.012.161-.035.054-.047.051-.072.038-.127-.012-.055-.08-.064-.115-.072-.035-.011-.047-.018-.041-.036.005-.018.028-.008.089-.018.063-.01.175-.064.185-.114.009-.049-.01-.115-.078-.118-.066-.002-.122-.002-.119-.021.003-.021.015-.013.041-.018.024-.006.149-.029.208-.097.058-.065-.006-.12-.047-.136m.454-.244s.157-.128.268-.352c.111-.226.147-.403.162-.546.015-.145-.009-.24-.026-.308-.018-.067-.034-.117-.052-.026a5.908 5.908 0 0 1-.164.529c-.046.125-.135.249-.177.315-.012.021-.031.041-.044.062-.028.046-.046.083-.046.083s.012.001.025-.016c.013-.018.025-.029.039-.026.015.005.037.082.037.082s.059-.073.112-.16c.053-.089.122-.253.122-.253s-.04.165-.112.278c-.073.111-.112.162-.112.162s.006.044-.003.083a.858.858 0 0 1-.029.093m.593-.694s-.084.176-.163.304c-.078.129-.27.345-.344.402-.075.058-.08.06-.068.075.01.016.018.032.019.055l.001.024s.131-.109.201-.183c.068-.075.136-.138.052-.033a1.13 1.13 0 0 1-.163.172l-.082.072s-.002.056-.008.082c-.006.028-.015.052-.015.052s.06-.041.102-.072c.042-.031.198-.123.354-.407.156-.285.114-.543.114-.543m-.763-.934c-.012-.234-.08-.481-.175-.577 0 0-.026.381-.044.526-.016.145-.08.45-.08.45s-.008.008.012.053c.018.045.039.088.053.122.014.036.017.062.017.062s.046-.166.06-.275a1.65 1.65 0 0 0 .019-.223c0-.046.014-.094.015.001 0 .095-.012.202-.026.278-.013.074-.04.181-.044.204-.004.014-.012.034-.012.056-.003.02.003.042.008.065a.374.374 0 0 1-.001.102c-.004.024.001.04.001.04s.013-.028.038-.069c.016-.028.039-.062.059-.104a.996.996 0 0 0 .074-.306c.008-.065.036-.228.026-.405m.218.921c.044-.123.133-.444.104-.78-.03-.335-.119-.402-.119-.402s-.003.042-.006.149c-.001.111-.032.3-.087.506a2.23 2.23 0 0 1-.138.378.894.894 0 0 1 .017.33l.071-.116s.059-.098.109-.374c.048-.277.029-.109.003.057a1.39 1.39 0 0 1-.053.221c-.035.099-.075.168-.075.168.046.015.062.068.064.138 0-.001.065-.154.11-.275m.065 2.442c-.019.004-.135.024-.259.024s-.286-.027-.362-.046c-.077-.018-.11-.031-.122-.021a.128.128 0 0 1-.066.026c-.032.004-.036.006-.015.02a.96.96 0 0 0 .209.089c.068.012.106.004.106.012-.003.008-.003.014-.049.013a1.161 1.161 0 0 1-.216-.055c-.05-.017-.101-.036-.101-.034 0 .001-.024.085.062.12.086.033.232.111.378.111.147.002.356-.053.417-.153.058-.1.036-.11.018-.106m.243-.405c-.035.006-.143.05-.312.068-.171.02-.353-.004-.353-.004s-.073.046-.1.055c-.027.008-.043.022-.003.035.04.014.163.037.226.03.063-.006.098.001.017.015-.08.015-.152.005-.214-.003s-.098-.015-.098-.015.003.052-.017.082c-.021.031-.021.039-.021.039s.056.044.207.043c.149-.001.282-.02.379-.049a.495.495 0 0 0 .271-.18c.057-.092.05-.107.05-.107s0-.014-.032-.009m.215-.491a1.378 1.378 0 0 1-.321.158c-.165.06-.239.09-.331.1-.092.01-.098.015-.118.028a.256.256 0 0 1-.092.036l-.071.016s.046.011.059.019c.012.008.054 0 .126-.01.073-.01.245-.027.285-.044.042-.016.064-.027.065-.018.001.008-.044.027-.113.043-.069.015-.077.024-.187.037-.113.015-.148.024-.148.024s.027.024.018.054c-.01.03-.017.039-.017.039s.235.011.445-.064c.208-.078.249-.119.333-.216.082-.098.08-.14.09-.175.008-.034.01-.054-.023-.027m.103-.454c-.026.017-.086.063-.15.107-.033.024-.062.046-.093.064a1.505 1.505 0 0 1-.291.122c-.107.033-.174.044-.174.044s-.039.061-.066.077c-.028.017-.081.043-.021.03.059-.013.169-.027.264-.063.095-.035.138-.068.141-.06.003.008-.028.035-.13.074-.102.039-.178.05-.251.068-.075.019-.077.021-.087.021-.01 0-.039.009.005.012.044.002.064.003.077.035.01.025-.012.068-.001.081.046-.006.263-.054.447-.184.185-.129.205-.155.263-.239a.567.567 0 0 0 .087-.178c.005-.015.017-.038-.02-.011m-.694.118c.015.015.019.04.019.04s.111-.066.185-.113c.075-.045.149-.088.165-.102.017-.015.047-.017-.006.019-.054.037-.134.095-.207.136l-.136.08s-.006.05-.01.064c-.006.015-.008.032.019.021.026-.013.183-.057.366-.202a.8.8 0 0 0 .281-.412c.019-.086.014-.1.012-.118-.001-.02-.008-.023-.021-.007a3.617 3.617 0 0 1-.274.279c-.089.075-.21.165-.277.195-.068.034-.128.052-.14.071-.01.018-.03.037-.03.037s.039-.003.054.012m-.758 1.402s-.059.023-.104.026l-.072.003s.111.098.166.12c.055.022.062.03.083.042.024.012.031.023.004.015-.026-.008-.047-.019-.09-.037a.6.6 0 0 1-.106-.061l-.043-.03s.014.08-.028.107l-.057.037s.137.083.337.131c.199.046.299.027.372-.004.091-.033.11-.127.11-.127s-.156-.021-.342-.101a.947.947 0 0 1-.23-.121m-.401.25l-.03.011s.11.115.184.154c.078.041.048.044-.03.004-.077-.039-.118-.086-.144-.111-.029-.025-.039-.031-.039-.031s-.043.055-.029.133c.015.077.108.199.36.208.253.008.346-.104.346-.104s-.122-.005-.331-.129c-.209-.126-.259-.146-.287-.135m-.073.29c-.035-.041-.055-.062-.068-.085-.016-.024-.006-.028-.053-.024-.048.004-.102.002-.102.002s-.042-.006-.012.027c.03.035.068.084.112.11.041.026.086.042.082.051-.003.009-.073-.012-.118-.044-.045-.033-.087-.092-.107-.117-.019-.025-.023-.036-.023-.036s-.101-.016-.139-.041c-.037-.025-.064-.064-.064-.064s-.006.121.128.268a.684.684 0 0 0 .15.13.362.362 0 0 0 .225.047c.112-.013.125-.033.125-.033s.019-.01-.007-.043l-.129-.148m-.527-.126a.689.689 0 0 1-.044.135l.025.039c.018.028.037.088.037.088s-.016-.015-.043-.052a.223.223 0 0 0-.038-.036c-.012.022-.022.042-.035.061.01.049.03.111.101.145.073.036.139.03.173.006.032-.024-.019-.059-.077-.151-.047-.077-.085-.195-.099-.235m-.011-3.556c.03 0 .052.022.052.049 0 .025-.022.046-.052.046-.029 0-.05-.021-.05-.046a.05.05 0 0 1 .05-.049m-.628.024c.028.014.056.029.082.037a.417.417 0 0 0 .284-.024.763.763 0 0 1 .247-.095c.053-.006.077.017.125.019.015 0 .028-.005.034-.015.01-.019.004-.069-.066-.109-.072-.039-.18-.038-.275-.01a.603.603 0 0 0-.19.093c-.037.029-.081.071-.091.062-.01-.008.021-.028.039-.047.017-.019.026-.025.026-.025a.476.476 0 0 1-.308-.093c0-.001-.03.136.093.207" clip-path="url(#d)" fill="#cbae43"/><path d="M13.637 4.494c-.069-.033-.138-.028-.223.004-.086.031-.127.058-.127.058s.012.073-.04.106c-.053.034-.104.015-.116-.019-.015-.034-.019-.052-.019-.052s-.081.046-.192.066a.5.5 0 0 1-.254-.007s-.067.066-.118.106c-.05.041-.102.074-.102.074s.006.015.03.024c.022.008.031.012.014.037a1.06 1.06 0 0 1-.179.166c-.05.035-.123.063-.123.063s.024.044.057.059c.034.012.04.035.026.059a2.2 2.2 0 0 1-.183.201c-.049.046-.087.053-.108.057-.022.006-.062.028-.018.077.043.051.146.068.25.038.102-.03.202-.15.202-.15s-.022.174-.022.256c0 .082.01.174.024.221.013.048.028.072.028.072s.069-.04.117-.161a.666.666 0 0 0 .059-.224c0-.036.002-.056.034-.038.032.018.055.032.067.034.012.003.02.003.02.003s-.02-.088-.02-.154c0-.064.023-.208.05-.234.029-.026.034.01.036.026a.115.115 0 0 0 .075.087.413.413 0 0 1 .115-.26c.015-.016.024-.035.074-.016.072.03.167.048.24.019.073-.028.127-.103.11-.113-.003-.001-.112.053-.199.026-.084-.028-.125-.055-.075-.107.048-.053.072-.058.17-.14.1-.081.179-.123.266-.11.087.015.102.067.111.076.008.01.045.039.045-.032.001-.071-.033-.167-.102-.198" clip-path="url(#d)" fill="#cbae43"/><path d="M12.706 5.903c-.016-.024-.048-.094-.048-.094s-.003.017-.021.067c-.018.048-.069.12-.069.12s.041-.009.086-.023c.046-.014.077-.042.077-.042s-.007-.003-.025-.028m-.354-.268s-.028.071-.092.134c-.062.063-.11.055-.11.055s.006-.002.054-.035a.452.452 0 0 0 .096-.13.423.423 0 0 1-.237.048l-.024.061a.684.684 0 0 1-.085.143c-.022.031-.004.037-.004.037s.011.012.161.054c.149.041.284.019.284.019s-.006-.014-.03-.115c-.027-.104-.013-.271-.013-.271m-1.802-1.1a.05.05 0 0 1 .051.049c0 .025-.024.046-.051.046-.03 0-.052-.021-.052-.046 0-.026.023-.049.052-.049m-.11-.041c.048-.001.073-.024.124-.017a.76.76 0 0 1 .246.095c.08.036.183.053.285.024.028-.008.055-.023.082-.038.122-.07.093-.207.093-.207a.48.48 0 0 1-.307.094s.008.005.026.024.051.039.039.047c-.01.01-.054-.033-.092-.062a.553.553 0 0 0-.189-.093c-.095-.028-.203-.03-.275.01-.071.04-.075.09-.066.109.006.01.019.015.034.014" clip-path="url(#d)" fill="#cbae43"/><path d="M11.776 5.495c-.021-.006-.058-.011-.109-.057a2.033 2.033 0 0 1-.182-.201c-.015-.024-.008-.046.024-.06.034-.013.058-.057.058-.057s-.072-.028-.122-.064a1.27 1.27 0 0 1-.181-.165c-.017-.026-.008-.029.017-.037.024-.009.029-.024.029-.024s-.054-.033-.102-.074c-.05-.039-.118-.106-.118-.106a.489.489 0 0 1-.254.006c-.111-.018-.192-.064-.192-.064s-.003.018-.019.052c-.012.033-.065.053-.116.019-.052-.034-.04-.106-.04-.106s-.041-.027-.127-.058c-.085-.032-.154-.037-.223-.005s-.104.128-.104.199c0 .071.038.042.046.032.007-.009.024-.062.11-.076.087-.013.167.028.266.11.1.082.121.087.172.14.05.052.009.08-.075.107-.086.027-.195-.028-.199-.026-.016.008.037.084.109.113.075.028.169.01.241-.019.05-.02.061 0 .074.016.08.085.103.165.115.26a.116.116 0 0 0 .076-.087c.003-.016.008-.052.035-.026.028.026.049.169.049.234 0 .066-.019.152-.019.152l.019-.001c.013-.002.035-.017.067-.034.032-.018.035.002.035.038 0 .035.011.103.059.224.048.121.118.161.118.161s.015-.024.028-.072a.88.88 0 0 0 .024-.221c0-.082-.021-.257-.021-.257s.099.122.202.152c.102.03.206.01.249-.038.043-.052.002-.074-.019-.08" clip-path="url(#d)" fill="#cbae43"/><path d="M11.097 5.809s-.031.07-.047.094c-.018.025-.025.028-.025.028s.033.028.076.042c.046.014.087.023.087.023s-.051-.071-.069-.12l-.022-.067m.621-.041a73.537 73.537 0 0 1-.025-.061.421.421 0 0 1-.237-.048s.048.096.096.131c.047.033.054.035.054.035s-.047.008-.111-.055a.432.432 0 0 1-.092-.135s.013.167-.012.27c-.026.102-.031.116-.031.116s.135.023.284-.018c.151-.042.162-.055.162-.055s.018-.006-.005-.035a.745.745 0 0 1-.083-.145m-.527 3.757c.031.01.09-.013.12-.05.029-.035.041-.09.062-.122l.036-.053s-.004.051-.034.121a.458.458 0 0 0-.024.197c.012.076.063.09.093.079.022-.008.056-.043.086-.093.012-.017.018-.039.028-.057.018-.039.037-.1.046-.098.019.003.007.047 0 .077-.016.057-.044.145-.046.197-.003.053.003.148.055.152.053.005.08-.042.109-.149.031-.107.037-.142.05-.142.012 0 .012.074.012.106 0 .01 0 .041.004.072.008.057.025.126.042.142.026.023.046.019.046.019s.021.004.047-.019c.026-.024.046-.183.046-.214 0-.032 0-.106.012-.106.014 0 .019.034.049.142.029.107.057.154.11.149.053-.003.059-.099.057-.152-.001-.052-.031-.14-.046-.197-.016-.06.006-.055.046.021.013.024.026.053.038.072.028.044.055.072.075.079.03.01.08-.003.094-.08.012-.078-.047-.301-.047-.301l.025.037c.022.033.033.087.062.122.029.037.089.059.119.05.032-.012.037-.071.012-.176-.022-.106-.117-.164-.185-.249a.95.95 0 0 1-.116-.235.803.803 0 0 0-.227.159c-.137.146-.167.182-.167.182s-.03-.036-.17-.182a.782.782 0 0 0-.228-.161c-.009.019-.067.149-.129.227-.032.039-.075.068-.105.107a.362.362 0 0 0-.07.151c-.022.106-.018.164.013.176" clip-path="url(#d)" fill="#cbae43"/><path d="M11.187 9.882l.062-.057s.029-.024.021.023c-.006.046-.023.143-.013.185.009.042.016.078.068.047.051-.032.064-.049.089-.075.024-.027.049-.038.044.003-.006.04-.025.103-.016.185.008.084.048.095.102.026a.853.853 0 0 0 .101-.171c.017-.034.048-.064.048 0 0 .139.033.34.185.395.153-.055.185-.256.185-.395 0-.064.033-.034.048 0 .018.036.049.1.102.171.053.069.093.057.104-.026.008-.082-.01-.145-.016-.185-.007-.042.018-.03.044-.003.024.026.037.044.089.075s.057-.005.066-.047c.01-.042-.005-.139-.012-.185-.009-.047.022-.023.022-.023l.061.057c.041.035.097.037.097.037s.026-.145-.034-.232l-.083-.116s-.035-.001-.061-.011c-.026-.011-.052-.029-.052-.029v.08s.075.071.093.091c.017.021.051.057.001.023-.051-.036-.094-.069-.094-.069s-.01.073-.03.091c-.021.018-.052.021-.063.017l-.013-.004-.003.028s.045.084.052.12c.006.034-.004.03-.025-.013-.021-.046-.062-.102-.081-.133-.018-.03-.046-.053-.043-.013a.333.333 0 0 1-.028.138c-.012.026-.021.035-.021.035s.028.1.031.118c.004.019.001.04-.015.016-.015-.023-.062-.122-.062-.122s-.061-.003-.078-.019c-.017-.018-.045-.084-.045-.084s-.024.085-.045.112c-.02.028-.068.055-.068.055s-.003.149-.006.174c-.003.026-.005.038-.017.038-.01 0-.011-.012-.015-.038s-.007-.174-.007-.174-.048-.027-.068-.055c-.022-.027-.047-.112-.047-.112s-.026.066-.043.084c-.017.017-.078.019-.078.019s-.046.099-.062.122c-.017.024-.019.003-.016-.016.004-.019.032-.118.032-.118s-.008-.008-.021-.035a.327.327 0 0 1-.026-.138c.001-.039-.026-.017-.044.013-.019.031-.058.087-.08.133-.021.044-.031.047-.026.013a.653.653 0 0 1 .052-.12l-.002-.028-.012.005a.075.075 0 0 1-.063-.017c-.022-.018-.032-.091-.032-.091l-.092.069c-.052.035-.016-.001.001-.023.018-.02.091-.091.091-.091v-.08s-.026.018-.052.029c-.026.01-.059.011-.059.011s-.024.028-.084.116c-.062.086-.034.232-.034.232s.056-.003.096-.038" clip-path="url(#d)" fill="#cbae43"/><path d="M11.025 10.376c.035-.024.067-.049.15-.104.082-.055.114-.116.114-.116h-.031c-.016 0-.028-.021-.03-.044 0-.021 0-.067.006-.12a.233.233 0 0 0-.009-.095s-.035.032-.088.06c-.053.028-.076.015-.076.015l-.014-.054s-.023.048-.056.107c-.033.057-.121.12-.184.167a.81.81 0 0 1-.185.116c-.052.019-.021.044-.021.044s.051.052.185.077c.138.024.201-.031.239-.053" clip-path="url(#d)" fill="#cbae43"/><path d="M11.496 10.322c-.048-.005-.077-.022-.086-.074-.006-.035.003-.165.003-.165s-.016.015-.034.035c-.019.023-.06.028-.06.028s-.007.018-.024.048a.277.277 0 0 1-.087.094c-.047.028-.1.063-.136.093a.875.875 0 0 1-.122.089.213.213 0 0 0-.104.136c-.015.068-.003.091.05.086.053-.003.06.001.147-.021.086-.022.21-.118.299-.176a.62.62 0 0 0 .154-.173" clip-path="url(#d)" fill="#cbae43"/><path d="M11.734 10.402s-.035-.046-.049-.098l-.039-.156s-.011.033-.041.094c-.03.062-.079.078-.079.078s-.002.027-.044.078a.555.555 0 0 1-.164.138.606.606 0 0 0-.186.148c-.044.063-.046.128-.026.155.02.028.049-.003.091-.025.041-.019.16-.038.324-.126.161-.087.213-.286.213-.286" clip-path="url(#d)" fill="#cbae43"/><path d="M11.806 10.768c.044-.067.052-.231.052-.231s-.017-.011-.038-.03a.598.598 0 0 1-.065-.082s-.026.056-.055.109a.409.409 0 0 1-.105.127c-.061.057-.144.111-.179.171-.035.059-.015.179.009.219.023.04.054.028.09-.006.033-.035.044-.043.103-.093.06-.053.143-.118.188-.184m1.331-.459a.728.728 0 0 1-.185-.116c-.064-.047-.152-.111-.185-.167-.033-.059-.055-.107-.055-.107l-.015.054s-.021.013-.075-.015a.465.465 0 0 1-.088-.06s-.016.042-.01.095a.75.75 0 0 1 .007.12c-.001.022-.015.044-.031.044h-.028s.03.06.112.116c.083.055.115.081.152.104.037.022.102.077.236.054.134-.026.188-.077.188-.077s.028-.026-.023-.045" clip-path="url(#d)" fill="#cbae43"/><path d="M12.81 10.468a.739.739 0 0 1-.122-.089 1.167 1.167 0 0 0-.137-.093.267.267 0 0 1-.087-.094c-.017-.03-.024-.048-.024-.048s-.042-.005-.059-.028l-.035-.035s.008.131.001.165c-.009.052-.037.069-.086.074 0 0 .066.113.155.172.091.058.214.154.3.176.087.021.093.017.147.021.053.004.064-.018.051-.086a.207.207 0 0 0-.104-.135" clip-path="url(#d)" fill="#cbae43"/><path d="M12.441 10.536a.573.573 0 0 1-.165-.138c-.041-.051-.044-.078-.044-.078s-.048-.016-.078-.078-.043-.094-.043-.094-.024.104-.038.156c-.013.053-.048.098-.048.098s.053.198.215.286c.163.088.282.107.322.126.042.022.071.053.091.025.022-.027.018-.092-.026-.155a.643.643 0 0 0-.186-.148" clip-path="url(#d)" fill="#cbae43"/><path d="M12.164 10.66a.414.414 0 0 1-.106-.127 6.32 6.32 0 0 1-.056-.109s-.042.065-.064.082c-.021.019-.038.03-.038.03s.008.164.053.231c.046.066.128.131.188.183.059.051.071.059.104.093.034.033.066.046.09.006.022-.04.043-.16.007-.219-.036-.06-.117-.114-.178-.17m-.232.189a.685.685 0 0 1-.052-.069s-.012.024-.052.069c-.039.044-.131.117-.131.117s.009.12.053.186a.488.488 0 0 0 .13.142.5.5 0 0 0 .13-.142c.044-.066.053-.186.053-.186s-.093-.073-.131-.117" clip-path="url(#d)" fill="#cbae43"/><path d="M15.201 9.366c-.037-.008-.051-.023-.051-.023s-.016-.001-.029.02c-.011.023-.058.053-.058.053s-.066.017-.075.062c-.009.046.024.061.055.056.03-.006.107-.021.139-.06.034-.041.037-.062.046-.078.006-.017.01-.02-.027-.03m.101-.357a.42.42 0 0 0-.212-.286l-.061.216c-.013.052-.013.05.026.061l.194.044c.025.008.069.03.053-.035m-.593-.095c.03.006.026-.007.036-.046l.062-.237s-.132-.004-.246.051c-.112.054-.161.156-.161.156s.028.012.107.03c.077.017.173.042.202.046m-.303.272c-.047-.008-.064-.013-.064-.013s.029.112.078.174c.048.062.102.093.202.095.1.002.176-.054.188-.098.013-.043.033-.075.033-.075s-.182-.024-.257-.043c-.074-.016-.134-.032-.18-.04" clip-path="url(#d)" fill="#355d8e"/><path d="M12.953 6.99c-.045-.281.118-.527.118-.527l-.315-.369c-.244.138-.581.118-.876-.016-.293.134-.632.154-.874.016l-.316.369s.163.246.116.527-.147.726-.121.907a.876.876 0 0 0 .284.501c.131.111.327.203.465.252a1.32 1.32 0 0 1 .445.288s.043-.044.108-.093c.063-.05.199-.146.337-.195.14-.05.334-.142.466-.252a.893.893 0 0 0 .284-.501c.026-.181-.074-.625-.121-.907m-.642-1.589c-.046.055-.16.104-.16.104l-.002.01s.046-.008.091-.035a.49.49 0 0 0 .124-.104c.015-.024-.002-.04-.002-.04s-.006.014-.051.065m.194.108c0 .03-.01.241-.01.241-.001.01-.005.073-.021.082.009.001.025.003.03-.028l.044-.309-.023-.01c0 .001-.02-.008-.02.024m.352-.532a.51.51 0 0 0-.093.063c-.026.021-.044.021-.068.033-.024.011-.015-.042-.001-.084.015-.042.064-.095.1-.136.037-.041-.001-.028-.019-.012a.867.867 0 0 0-.103.136c-.047.076-.073.247-.073.247s.029-.017.057-.037c.029-.019.061-.036.115-.075a.63.63 0 0 0 .113-.102c.029-.033-.006-.039-.028-.033m-1.412.424a.338.338 0 0 1-.051-.065s-.017.015-.003.04c.015.022.08.08.125.104.045.026.09.035.09.035l-.003-.01a.522.522 0 0 1-.158-.104m-.183.35s-.011-.211-.011-.241c0-.032-.021-.024-.021-.024l-.022.01.045.309c.005.032.021.03.03.028-.018-.009-.02-.073-.021-.082m-.282-.909c-.018-.016-.056-.029-.019.012.037.041.086.093.1.136.015.043.023.095-.001.084-.025-.012-.041-.012-.068-.033a.546.546 0 0 0-.093-.063c-.021-.006-.057 0-.028.031a.725.725 0 0 0 .114.102c.053.039.084.056.113.075.03.021.057.037.057.037s-.025-.171-.073-.246a.845.845 0 0 0-.102-.135m.896 4.867c.006.001.006-.011.006-.036.001-.024.006-.082.01-.117.007-.033-.009-.031-.018-.029-.008.001-.013.028-.013.044l.003.118c.001.017.007.02.012.02m.612-.31c.022.05.028.043.017.003a.38.38 0 0 0-.048-.115c-.023-.037-.081-.089-.081-.089s.016.033.038.063c.021.03.049.09.074.138m-.231.042a.417.417 0 0 0 .062.119c.006-.003-.019-.08-.036-.133-.017-.053-.044-.094-.048-.091-.006.002.005.033.005.033s.006.04.017.072m-.184.147c.012.023.024.051.03.047.004-.003-.013-.052-.016-.064-.003-.015-.005-.044-.021-.076-.015-.03-.022-.015-.022-.003a.652.652 0 0 0 .029.096m-.802-.189c.023-.048.051-.108.073-.138.021-.03.037-.063.037-.063s-.058.052-.081.089a.44.44 0 0 0-.048.115c-.01.04-.004.047.019-.003m.231.042l.015-.055s.01-.03.003-.033c-.003-.001-.028.02-.046.073-.015.053-.042.129-.035.133a.443.443 0 0 0 .063-.118m.183.147l.009-.024s.021-.061.021-.072c0-.012-.008-.028-.023.003-.015.033-.016.062-.02.076-.003.012-.022.06-.015.064.004.004.017-.025.028-.047m-.565.556l-.025-.016s-.015.02-.035.042c-.021.022-.044.029-.06.051a.222.222 0 0 1-.078.066c-.037.019-.052.025-.044.03.008.006.033-.008.033-.008s.012 0 .056-.027c.046-.027.055-.041.086-.066.027-.027.067-.072.067-.072m.195.232c.017-.019.037-.032.026-.04-.01-.01-.023-.009-.038.004a2.292 2.292 0 0 0-.082.075c-.02.017-.037.029-.058.045a.656.656 0 0 1-.087.051c-.023.015-.001.015-.001.015l.035-.015c.018-.006.071-.029.071-.029s.021-.01.048-.029c.028-.021.068-.06.086-.077m.228.157c.015-.029 0-.022-.026-.011-.024.01-.078.069-.109.092-.033.021-.059.03-.086.044-.026.013-.026.02-.026.026.001.006.013.006.023.001.011-.004.05-.026.05-.026s.016-.005.03-.006c.013-.001.035-.017.068-.044.032-.029.062-.046.076-.076m.106.208a.42.42 0 0 0-.127.116c-.018.036-.031.062-.024.068.006.006.026-.006.034-.022.008-.014.027-.037.027-.037s.069-.068.094-.084a.23.23 0 0 0 .077-.087c.009-.027.002-.042.002-.042s-.043.063-.083.088m1.188-.454a.23.23 0 0 1-.078-.066c-.015-.022-.039-.029-.059-.051a.403.403 0 0 1-.035-.042l-.025.016s.039.046.069.072c.029.024.04.039.084.066.046.027.056.027.056.027s.025.015.033.008c.005-.005-.008-.011-.045-.03m-.155.224a.549.549 0 0 1-.087-.051l-.058-.045c-.021-.019-.066-.062-.082-.075-.017-.013-.028-.014-.037-.004-.01.008.008.021.026.04a.768.768 0 0 0 .086.076c.029.019.048.029.048.029a1.513 1.513 0 0 0 .106.044s.02 0-.002-.014m-.245.147c-.026-.014-.053-.023-.086-.044-.03-.023-.086-.082-.11-.092-.025-.011-.04-.018-.026.011.016.03.044.047.078.075.032.027.052.044.069.044.014.001.03.006.03.006s.037.022.047.026c.013.006.023.006.024-.001.001-.005.001-.012-.026-.025m-.328.083c-.039-.025-.082-.086-.082-.086s-.008.015.002.042a.227.227 0 0 0 .076.087c.025.016.095.084.095.084l.027.037c.008.016.028.028.034.022.006-.006-.006-.033-.024-.068a.395.395 0 0 0-.128-.118m-.249.255c.004.028.001.098.019.098s.015-.071.018-.098c.003-.028.005-.095.005-.095h-.046s0 .067.004.095" clip-path="url(#d)" fill="#ac6a32"/><path d="M12.923 7.025c-.044-.304.091-.548.091-.548l-.284-.318c-.24.124-.532.092-.852-.019-.317.111-.61.142-.85.019l-.285.317s.138.245.091.548c-.044.302-.116.646-.101.847 0 .014.003.028.004.042h.259s.015-.017.044-.029c.028-.012.037-.021.037-.021s.006-.053.037-.064c.032-.011.044-.011.057-.011.012 0 .023-.003.038-.018.013-.016.055-.052.073-.104.017-.053.028-.074.028-.109 0-.033.013-.088.013-.088s-.006-.017-.033-.008c-.027.01-.031-.017-.034-.042a.223.223 0 0 1 .013-.105l.021-.033-.011-.041s-.166.032-.194-.096c-.028-.127-.034-.189-.039-.203-.004-.014-.008-.02-.03-.019-.021.001-.067-.013-.101-.08-.033-.065-.036-.093-.026-.119.009-.026.028-.017.033-.008.005.008.049.072.066.053.018-.018.008-.018-.016-.067-.024-.05-.017-.066-.015-.091.003-.024-.008-.058-.008-.071 0-.014.015-.025.032-.018a.097.097 0 0 1 .034.026c.007.008.01.021.024.013.015-.009.006-.055.006-.07 0-.015.019-.025.04-.014a.066.066 0 0 1 .033.053c0 .016.001.032.01.032s.017-.026.019-.042c.001-.017.01-.042.025-.02.017.02.021.05.017.082-.006.032.005.016-.006.071-.01.055-.017.08-.015.122a.27.27 0 0 0 .024.116c.02.051.036.109.075.111l.049.003s.042-.084.075-.102c.033-.021.081-.022.113-.028.033-.004.046-.013.046-.021 0-.009-.01-.01-.051-.017-.036-.006-.069-.015-.07-.046-.002-.029.006-.055-.019-.057-.027-.001-.091-.023-.114-.065-.024-.042-.018-.052-.015-.075.003-.024.034-.071.053-.026.019.044.031.049.048.059.017.008.037.011.027-.018-.01-.03-.018-.05-.016-.072.004-.023.019-.032.037-.036.018-.004.071-.021.099-.026l.029-.007s.003-.021.038-.031c.035-.012.059-.012.086-.012.025 0 .044.005.08-.012a.171.171 0 0 1 .083-.019.11.11 0 0 1 .055.022c.018.01.011.026.011.041s.003.023.027.023.044 0 .064.008c.025.01.055.02.035.044-.019.023-.02.051-.035.048-.011-.001-.01.012-.015.02-.005.009-.009.016.003.024.014.007.015.016.036.034.018.017.048.038.018.066-.028.029-.08.053-.08.053s-.028.013.004.033c.033.019.048.06.061.066l.032.023c.009.003.008.031.008.031s-.018.012-.043.021c-.025.01-.051.021-.073.021-.024 0-.035 0-.027.022.01.021.027.046.03.056.006.014.01.036.01.036s.038.007.072.007c.036 0 .05.002.125-.006a.614.614 0 0 1 .171-.002c.073.008.084.006.103.012.019.006.038.017.038.017s.104-.001.159-.014c.057-.012.07-.049.062-.066-.008-.02-.006-.048-.106-.062-.098-.013-.137-.008-.217-.024-.077-.014-.201-.054-.223-.152-.021-.097.058-.138.098-.158.039-.019.127-.049.166-.066a.388.388 0 0 1 .19-.023c.077.012.121.033.15.015.03-.019.055-.005.051.023-.006.027-.035.083-.122.111a.538.538 0 0 1-.248.013c-.055-.015-.098-.038-.132-.025-.035.013-.073.055-.036.106s.226.066.277.071c.051.006.239-.008.293.085.053.094.01.199-.053.222a.764.764 0 0 1-.165.045l-.048.007s.023.051.023.071c0 .021-.004.059.021.074a.137.137 0 0 0 .095.023c.04-.004.089.023.091.058.001.037.012.086.017.157.003.071 0 .131 0 .131s-.004.028-.012.054c-.01.027-.059.127-.059.127h.277l.005-.042c.01-.203-.061-.547-.106-.849" clip-path="url(#d)" fill="#355d8e"/><path d="M10.77 8.048a.786.786 0 0 0 .336.414c.237.143.339.122.562.268.221.145.208.17.211.17.003 0-.01-.025.212-.17.223-.146.325-.126.562-.268a.787.787 0 0 0 .335-.414H10.77z" clip-path="url(#d)" fill="#718c42"/><path d="M10.963 6.853c.025.026.044.035.082.031.039-.005.048.024.055.054.006.032.006.104.036.17.026.066.12.071.12.071a.476.476 0 0 1 .028-.111c.003-.006.015-.037-.019-.037-.033 0-.033-.013-.052-.046a.616.616 0 0 1-.068-.171.478.478 0 0 1 .017-.166c.01-.029.012-.048 0-.055-.01-.004-.031 0-.031 0s.009.026-.001.03c-.009.003-.018-.014-.024-.033-.008-.017-.015-.016-.028-.015-.015.001-.015.013-.004.026.009.014.004.037.004.037s-.029-.021-.042-.026c-.011-.006-.04.006-.043.021-.003.017.012.057.037.079.026.021.026.065.018.085-.009.021-.046.017-.055.008-.008-.009-.024-.012-.034 0-.012.016-.021.021.004.048m-.016-.07l-.02-.018c-.003-.008-.015-.022-.015-.022s-.003.006-.003.022c0 .017.017.035.017.035l.021-.017zm.058-.186c.011-.006.021-.008.011-.021-.008-.013-.017-.028-.026-.03-.008-.003-.018-.001-.018-.001s.012.024.014.039c.002.013.006.018.019.013m.069-.055c-.001.01.001.016.012.01.011-.005.015-.02.01-.03a.09.09 0 0 0-.018-.018l-.008-.005s.005.031.004.043m.1.016a.084.084 0 0 0-.004-.028s0 .017-.008.026c-.006.008-.004.006.003.015.006.006.008 0 .009-.013m.156.678c.021.046.071-.026.116-.084.046-.057.044-.012.038.035a.21.21 0 0 0 .032.129c.016.032.031.014.039-.008.009-.024.014-.071.03-.094.014-.022.029-.003.03.017a.246.246 0 0 0 .049.09c.022.026.033-.009.04-.041.007-.033.017-.081.023-.1.005-.021.027-.003.027-.003l.045.044c.03.029.035-.016.037-.039.003-.023-.004-.073.003-.081.01-.007.035.012.076.031.037.02.037-.019.033-.039a.225.225 0 0 0-.059-.097c-.032-.027-.037-.06-.026-.074.011-.012.049-.001.074-.005.023-.001.035-.004.053-.008.019-.003.019-.021.019-.021s-.014-.026-.039-.048c-.026-.024-.042-.041-.073-.049-.032-.007-.076 0-.076 0l-.005-.008c-.004-.008-.013-.008-.019 0s-.021.021-.033.033c-.012.01-.02.016-.026.011-.009-.004.005-.014.005-.014s.017-.013.032-.043c.015-.031.02-.06.008-.073-.013-.014-.044 0-.064 0-.017 0-.029.003-.03-.006-.001-.009.018-.004.041-.008.023-.003.037-.03.044-.053.008-.022.014-.019.026-.006.014.014.027.011.03.003a.248.248 0 0 1 .029-.055c.015-.024.023-.055.008-.075-.017-.022-.057-.019-.074-.006-.017.014-.027.027-.032.06-.005.034-.012.016-.012.005 0-.01-.016-.026-.009-.042.008-.012 0-.027 0-.027s-.001-.03-.035-.035a.245.245 0 0 0-.1.009c-.031.008-.025.036-.025.036s-.025 0-.05.003c-.026.003-.056.013-.08.019s-.035.01-.035.021c0 .012.005.033.005.033s.021 0 .031.006c.01.006.004.016-.008.021-.013.005-.017.006-.017.021 0 .015.006.018.018.018.01 0 .037 0 .068.015.03.012.038.04.034.056-.003.015-.044.034-.066.034-.021 0-.028.005-.028.019 0 .013.026.012.026.012s.026.001.075.008c.05.007.058.017.081.036.023.02.006.026-.005.031-.01.006-.026.021-.043.025-.017.006-.028.019-.044.023-.015.002-.052.001-.122.028-.069.026-.093.118-.093.118s.008-.003.04-.021c.032-.016.072-.035.109-.057.035-.024.035.01.016.043-.016.032.017.024.028.015a.474.474 0 0 1 .059-.037c.035-.017.024.012.024.012s-.01.021-.015.071c-.002.05.05.003.075-.029.024-.03.034 0 .017.036-.019.036-.053.066-.074.066-.019 0-.034-.021-.037-.034 0-.012.007-.048-.005-.056-.012-.01-.046 0-.073.015-.025.016-.031.003-.037-.011-.006-.012.009-.017.003-.026-.006-.009-.02 0-.03.005a1.808 1.808 0 0 0-.082.042c-.047.025-.044.038-.044.074.001.033.01.038.029.084" clip-path="url(#d)" fill="#cbae43"/><path d="M11.785 6.476a.18.18 0 0 1 .028-.013s.022-.005.043-.007c.019-.003.017-.016.012-.024-.005-.01-.012-.013-.038-.013-.028 0-.044.013-.061.019-.015.007-.031.011-.031.011l.012.019c.01.013.025.015.035.008m.109.108c.01 0 .024-.005.024-.005l.035-.017c.018-.006.025-.01.037-.03.01-.021-.012-.021-.044-.029-.03-.008-.046.003-.049.014-.004.012-.003.025-.015.048-.013.022 0 .019.012.019m-.011.028c-.03 0-.064.046-.077.053-.012.008-.005.017-.005.017s.008.019.012.036c.004.018.004.049.004.049s.006.003.023.003c.018 0 .028-.009.046-.022a.117.117 0 0 1 .055-.021c.024-.004.035-.01.062-.024.028-.014-.012-.039-.042-.062a.104.104 0 0 0-.078-.029m-.404.104c.024-.001.036-.014.036-.026 0-.014-.013-.03-.044-.026-.075.006-.147-.02-.161-.094 0 0-.026.047.021.098.047.052.124.052.148.048m-.256 1.186c.006.006.009.01.015.012h.115c.021-.005.021-.023.021-.035.001-.015.012-.057.028-.134.015-.076.044-.131.054-.163.012-.03-.01-.041-.019-.06a.457.457 0 0 1-.024-.071c-.003-.017-.03-.014-.045-.014-.015.001-.018.026-.019.048-.002.024-.014.091-.024.149a.396.396 0 0 1-.096.154c-.017.016-.033.023-.046.023-.012 0-.039 0-.053.009-.015.006-.028.03-.03.046-.001.017.027.026.027.026s.021-.013.029-.024c.009-.008.026-.011.044-.015.019-.002.02.004.014.013s-.003.011.009.036m-.175-.006c-.01.003-.015.012-.019.018h.075a.045.045 0 0 0-.007-.018c-.01-.011-.034-.007-.049 0" clip-path="url(#d)" fill="#cbae43"/><path d="M11.15 7.893c-.01.006-.02.012-.026.021h.08c.004-.007.006-.017-.006-.025-.018-.015-.036-.003-.048.004m.703-.033c-.01 0-.017.008-.03.017a.044.044 0 0 0-.018.033v.005h.035c.002-.001.002-.002.002-.005 0-.009.004-.018.019-.03.013-.014.001-.02-.008-.02m.067.036c0-.01-.003-.02-.011-.019-.008.001-.021.015-.032.023-.006.004-.01.01-.013.014h.052c.002-.006.004-.011.004-.018" clip-path="url(#d)" fill="#cbae43"/><path d="M12.233 7.523c.026-.017.021-.023.022-.042.001-.018.001-.023-.009-.031a.176.176 0 0 0-.081-.022.31.31 0 0 0-.123.024c-.025.017-.036.077-.036.108 0 .033.005.037.014.037.008 0 .024-.022.024-.022s.033.042.053.072c.018.028.01.041.001.062-.009.024-.04.082-.066.095-.026.012-.045.001-.076-.004a.068.068 0 0 0-.064.021c-.018.018-.001.033.01.033.01 0 .024-.001.037.014.008.01.003.033-.001.046h.15c.024-.01.044-.046.051-.064.006-.022.039-.051.054-.065.017-.014.018-.025.018-.057a.124.124 0 0 0-.021-.073c-.011-.024-.02-.056-.016-.075.002-.019.036-.04.059-.057" clip-path="url(#d)" fill="#cbae43"/><path d="M11.988 7.148c.015.026.006.03-.016.035a.254.254 0 0 1-.078.006c-.033-.003-.033.001-.033.017a.15.15 0 0 1-.024.08c-.019.027-.044.016-.059.005-.015-.01-.024-.006-.03.012-.005.017-.015.031-.03.058-.016.028-.026.03-.037.027-.012-.002-.021-.019-.033-.02-.011-.002-.029-.024-.046-.051-.017-.027-.026.003-.036.026-.011.023-.022.04-.045.038-.021-.003-.046-.044-.057-.067-.011-.024-.019-.048-.037-.048-.019.003-.051.041-.071.051-.021.01-.026.008-.036-.006-.01-.012-.021.005-.034.035-.011.031.001.057.017.066.018.008.051-.015.073-.03.024-.016.033-.012.057-.012.022 0 .021.039.031.095.01.056.042.063.042.063s.012.01.037-.033c.026-.044.028-.086.054-.086.023 0 .024.006.049.039.026.033.046.059.059.033.014-.025.025-.062.042-.077.016-.012.031-.015.014.01-.017.023-.024.05.01.039.035-.01.167-.064.22-.074 0 0 .063-.011.135-.015.072-.004.09-.006.118-.006.028 0 .029-.005.031-.023.001-.019-.013-.016-.065-.016s-.089.007-.125.012c-.037.006-.055.005-.048-.004.008-.009.018-.015.061-.022.041-.007.128-.012.172-.012.046-.002.033.013.028.043-.004.029.004.074.006.102.002.028.003.037.028.075.024.039.107.065.133.077.024.012.021 0 .018-.024 0-.022.02-.021.041-.01a.368.368 0 0 0 .083.028c.026.007.028.011.028.025 0 .014.004.042.006.069.003.027.003.036-.008.053-.013.017-.059.065-.059.065s-.021 0-.067.012c-.046.011-.061.032-.064.051-.006.018.009.024.01.032v.022h.01a.123.123 0 0 1 .017-.025c.017-.02.057-.024.082-.012.017.008.017.026.016.037h.104a2 2 0 0 0 .057-.112.144.144 0 0 0 .019-.075c.001-.035.005-.169-.003-.176-.006-.008.003-.03 0-.067-.001-.038 0-.066-.069-.073-.068-.007-.09-.035-.113-.058-.024-.024-.019-.079-.037-.144-.018-.065-.064-.076-.146-.091a.662.662 0 0 0-.203-.012c-.06.005-.136.014-.178.01-.043-.003-.037.009-.021.033" clip-path="url(#d)" fill="#cbae43"/><path d="M12.38 7.9a.032.032 0 0 0-.016.014h.071a.024.024 0 0 0-.008-.019c-.01-.014-.031-.007-.047.005m.125-.004a.115.115 0 0 0-.023.018h.072v-.008c-.003-.01-.023-.024-.049-.01m-1.764.043c.006.024.009.045.017.068h2.245a.515.515 0 0 0 .015-.068h-2.277zm1.513-1.071c.071.046.295.049.401.07.107.021.099.102.066.145-.031.042-.181.047-.207.05.015.01.035.042.035.042l.062-.006a.316.316 0 0 0 .175-.057c.055-.046.051-.118.004-.167-.048-.048-.125-.053-.206-.062-.08-.009-.141-.014-.232-.03-.089-.015-.131-.051-.131-.104 0-.051.048-.079.082-.089.035-.01.091-.025.141-.005.05.018.107.019.205.007.099-.012.122-.08.122-.08s-.012.006-.063.006c-.05.002-.086-.021-.175-.022-.091 0-.125.032-.167.046-.042.015-.155.026-.188.1-.034.073.005.109.076.156" clip-path="url(#d)" fill="#cbae43"/><path d="M11.664 6.487c.022 0 .042.019.042.042a.042.042 0 0 1-.042.042.043.043 0 0 1-.043-.042c0-.023.02-.042.043-.042m.909.114c-.055-.006-.129.01-.129.01s.015.01.033.01a.411.411 0 0 1 .106.007c.055.01.095-.016.095-.016s-.049-.007-.105-.011" clip-path="url(#d)" fill="#ac6a32"/><path d="M14.374 9.114c.046.011.416.082.446.089.032.007.058.014.066.006.009-.009.015-.015.047-.026.034-.012.031-.046.031-.046s.009-.031.012-.062c.003-.031.021-.042.057-.003.037.037.043.093.05.147.008.053.092.068.124.073.034.006.05-.004.068-.036.02-.031.029-.094.035-.134.006-.039.001-.036-.04-.046-.041-.01-.234-.053-.268-.062-.035-.01-.028-.03-.024-.055.006-.024.082-.268.082-.268a.527.527 0 0 0-.222-.063s-.054.248-.064.286c-.011.038-.035.038-.075.032l-.326-.076-.023.053a.46.46 0 0 0-.033.151c.001.032.013.031.057.04" clip-path="url(#d)" fill="#cbae43"/><path d="M15.357 9.34c-.039-.025-.067-.031-.087.016-.019.046-.021.114-.071.161-.05.048-.119.098-.188.093-.071-.006-.11-.022-.094-.1.017-.08.123-.106.148-.147a.09.09 0 0 0-.019-.12c-.035-.033-.089-.039-.104-.028a.23.23 0 0 0-.079.106c-.023.059-.036.107-.082.145a.355.355 0 0 1-.259.055c-.091-.021-.125-.05-.16-.141-.034-.091-.077-.242-.094-.259-.018-.016-.04-.028-.081-.001-.04.029-.043.07-.048.104-.006.033 0 .071.039.119a.44.44 0 0 1 .096.145c.015.051.059.127-.001.129-.065.004-.093.006-.141-.042-.047-.045-.236-.172-.286-.215-.052-.04-.073-.054-.073-.054a.474.474 0 0 1-.259-.096s.048.128.059.176c.01.047.008.075.008.075l.264.131a4.6 4.6 0 0 1 .297.168c.073.045.136.114.264.087.129-.026.391-.105.476-.131.085-.025.317-.082.403-.143.086-.059.094-.057.11-.116.014-.059 0-.092-.038-.117m-.499-.891c.013-.003.02-.005.064-.01.044-.007.028.037.019.052a.69.69 0 0 1-.039.079c-.019.032.005.036.018.041.012.005.03.008.065.017.037.01.03-.017.031-.03.001-.014.003-.084.006-.108.003-.026.028-.019.035-.014a.99.99 0 0 1 .05.027c.019.009.026-.001.03-.012.003-.01.012-.029.02-.057s-.009-.022-.028-.022l-.07-.001c-.029-.001-.01-.028-.01-.028s.02-.035.037-.061c.016-.025.01-.029-.006-.034a.954.954 0 0 0-.081-.02c-.015-.004-.022-.003-.022.008l-.001.078c0 .02-.001.03-.027.032-.024.001-.039-.015-.059-.035-.02-.022-.029-.014-.03-.006a2.442 2.442 0 0 0-.022.09c-.004.015.005.014.02.014" clip-path="url(#d)" fill="#cbae43"/><path d="M13.421 9.15c-.029-.03.043-.03.084-.03a.327.327 0 0 0 .134-.037c.021-.014.062-.021.107-.044.046-.021.018-.029-.029-.042a1.732 1.732 0 0 1-.171-.064l-.095.053c-.034.02-.08.048-.153.057-.073.01-.096.012-.1.015-.003.003.018.019.047.06.027.04.039.065.073.125.035.06-.005.024-.034-.012-.017-.021-.053-.071-.089-.106-.026-.028-.053-.045-.053-.045l-.024.05v.018c0 .016-.014.097-.019.13-.003.032.008.032.034.045.026.01.077.04.215.126.139.087.19.145.19.145s.005-.037.005-.074a.576.576 0 0 0-.032-.2.527.527 0 0 0-.09-.17" clip-path="url(#d)" fill="#cbae43"/><path d="M13.1 8.958c.033.006.046.014.091.014.046 0 .064-.014.111-.014.048 0 .08-.017.156-.056.075-.042.004-.03-.051-.026a.813.813 0 0 1-.251-.039c-.06-.022-.017-.025 0-.021.016.005.023.01.144.03.118.021.164-.006.224-.021.061-.017-.015-.025-.015-.025s-.216-.062-.324-.183a.485.485 0 0 1-.119-.212c-.043.05-.091.095-.14.134.003.017.01.044.022.07.017.041.069.094.069.094s-.064-.026-.093-.057c-.021-.021-.037-.054-.047-.071-.071.05-.145.089-.212.122a.462.462 0 0 1 .122.144c.038.061.004.055-.03 0a.45.45 0 0 0-.136-.12l-.006-.001a.175.175 0 0 1-.024.011l-.131.057a.75.75 0 0 1 .115.117c.024.035.074.067.091.092.019.024.038.051.062.08s.169.192.208.254c.039.062.017-.016.006-.058-.008-.043-.024-.101-.037-.149-.013-.046.015-.027.021-.001.004.026.01.028.022.078.012.051.04.125.053.177.012.05.017.026.03.001a.635.635 0 0 0 .042-.092.716.716 0 0 0 .016-.172c.001-.088-.042-.125-.042-.138.001-.014.022-.025.053-.019m.624.192a.368.368 0 0 1-.077.024c-.021.003-.035.003-.035.003s.04.057.102.057h.176s-.107-.062-.118-.076a.046.046 0 0 0-.048-.008m1.272-.075s-.001.051-.006.069c-.006.017-.017.042.003.048.021.007.04.016.052.012.012-.003.008-.028 0-.048a.17.17 0 0 0-.033-.064l-.016-.017zm.305.201c.007.016.021.02.033.023.008.003.024.003.024-.016s.003-.044-.012-.064c-.016-.02-.024-.035-.034-.004-.011.03-.017.046-.011.061m-1.059-.202l.04.011s0-.047.008-.082c.008-.032.02-.055.009-.055-.015 0-.019.01-.028.025-.009.013-.033.017-.042.056-.009.043.002.043.013.045" clip-path="url(#d)" fill="#cbae43"/><path d="M10.054 7.709c-.035.026-.08.037-.08.037s-.021-.001-.021.007.024 0 .051-.004a.212.212 0 0 0 .076-.042c.012-.009.033-.021.026-.038-.007-.016-.017.013-.052.04m.298.159c-.006.009-.065.053-.065.053s-.017.011-.037.019c-.019.007-.024.018-.024.018s.003.006.024 0a.631.631 0 0 0 .099-.066c.02-.016.028-.021.021-.028-.006-.008-.011-.004-.018.004m-1.211-2.15c.011.014.025.03.03.026.007-.008 0-.012-.015-.029a.432.432 0 0 0-.023-.026s-.02-.033-.032-.045c-.012-.011-.03-.017-.009.011.024.027.038.05.049.063m-.092.202c.014.012.024.023.039.039.015.014.026.031.035.023.008-.01-.021-.026-.035-.044a.259.259 0 0 0-.041-.04.352.352 0 0 0-.037-.023s.025.033.039.045m.034.325c.023.024.057.03.062.021.004-.01-.003-.018-.021-.028-.019-.008-.05-.029-.067-.038-.015-.01-.03-.024-.042-.035-.01-.01-.023-.02-.026-.016-.004.004.031.042.042.048.011.005.03.024.052.048m.067.26c0-.009.002-.014-.017-.015a.99.99 0 0 1-.046-.004s-.036-.016-.04-.008c-.002.008.032.022.045.025a.136.136 0 0 1 .042.01c.009.006.016.001.016-.008m.029.284c-.043 0-.077-.01-.078-.005-.003.007.02.016.04.023.019.008.058.01.084.011.026.001.032-.004.03-.018-.001-.012-.035-.011-.076-.011m.318.308c-.006-.005-.021 0-.043.005a.32.32 0 0 1-.081.01l-.068-.001s-.027 0-.027.004c0 .006.034.005.085.011.051.007.084-.005.109-.008.023-.003.031-.014.025-.021m.132.222a.169.169 0 0 1-.062.012c-.021 0-.064.009-.064.009s-.023.002-.019.011c.004.008.012 0 .03-.003.019-.002.033 0 .067-.001.033-.001.053-.01.073-.014.02-.003.044-.013.032-.026-.01-.015-.031.003-.057.012m.257.167c-.014.014-.07.051-.07.051s-.01.008-.032.019c-.021.01-.021.015-.018.022.004.005.018-.01.029-.014a.636.636 0 0 0 .072-.048c.021-.016.048-.03.042-.04-.005-.013-.008-.005-.023.01m-.427-2.16s.005.01.049.066c.044.055.021.003.01-.01a2.296 2.296 0 0 0-.098-.133c-.023-.025-.026-.012-.014.004l.053.073m-.094.285c.006-.007-.008-.014-.033-.045a5.78 5.78 0 0 1-.075-.097s-.015-.03-.019-.028c-.005.004.016.052.037.072.021.021.048.061.063.077.014.019.021.026.027.021m.124.532c0-.015-.051-.013-.073-.018l-.063-.013s-.048-.009-.048-.002c-.003.005.008.011.035.016.025.004.066.017.095.021.03.006.054.011.054-.004m-.124-.288c.033.027.055.039.073.049.018.009.032.023.042.013.009-.012-.008-.019-.037-.032a.291.291 0 0 1-.042-.024l-.031-.015c-.014-.007-.038-.017-.005.009m.287-.189c-.022-.018-.038-.027-.038-.027s-.026-.024-.03-.017c-.004.008.029.032.044.046.017.014.046.055.059.048.014-.009-.014-.034-.035-.05m-.187.742l-.046.013c-.018.004-.018.012.014.012.033 0 .046-.008.077-.015.034-.006.044-.01.039-.021-.006-.01-.021-.006-.035-.003l-.049.014m.051.268c-.003.007.023 0 .039-.006.018-.005.052-.023.072-.03.021-.006.021-.01.021-.021 0-.011-.022-.001-.047.007-.029.007-.061.034-.061.034s-.022.01-.024.016m.345.164c.024-.015.03-.025.021-.033-.007-.007-.016-.006-.034.01a.967.967 0 0 1-.057.042l-.034.014c-.014.007-.032.02-.026.026.003.008.034 0 .048-.012.017-.014.059-.032.082-.047m.164.216c.01-.008.039-.017.053-.028.012-.01.019-.038.01-.042-.01-.003-.017.013-.039.03l-.103.068s.003 0-.019.008c-.023.009-.012.014.006.012.019-.002.03-.002.051-.019.023-.017.032-.02.041-.029m.242.205a.315.315 0 0 0 .064-.048c.015-.013.033-.03.024-.038-.012-.009-.025.002-.041.018-.017.015-.061.062-.061.062s-.006.002-.03.021c-.024.019.001.016.01.008a.08.08 0 0 1 .034-.023m3.517.485s-.046-.011-.08-.037c-.035-.027-.046-.056-.053-.039-.005.017.014.029.026.038.013.01.05.037.076.042.026.004.052.012.052.004s-.021-.008-.021-.008m-.278.193c-.018-.008-.036-.019-.036-.019s-.058-.044-.064-.053c-.008-.008-.012-.012-.017-.006-.008.007 0 .012.019.028a.562.562 0 0 0 .098.066c.022.006.026 0 .026 0s-.007-.009-.026-.016m1.111-2.221c.01-.013.025-.036.047-.063.022-.028.004-.022-.007-.011a.558.558 0 0 0-.033.045l-.023.026c-.014.017-.021.021-.015.029.005.005.019-.012.031-.026m.017.264c.01.008.021-.01.034-.024a.357.357 0 0 1 .04-.039c.013-.012.039-.044.039-.044s-.021.01-.037.023a.222.222 0 0 0-.041.04c-.012.018-.042.035-.035.044m.134.167c-.003-.004-.017.006-.028.016a.26.26 0 0 1-.042.035.657.657 0 0 1-.065.039c-.02.01-.026.018-.021.028.006.008.038.002.061-.021.023-.024.042-.044.052-.048.013-.007.047-.045.043-.049m-.099.336s-.025.004-.045.005c-.019.001-.017.006-.017.015s.006.014.015.008a.145.145 0 0 1 .041-.01c.015-.003.048-.018.046-.025-.001-.008-.04.007-.04.007m-.09.304c-.04 0-.074-.001-.077.011-.001.014.004.019.03.018a.337.337 0 0 0 .086-.011c.019-.007.042-.016.039-.023-.002-.005-.038.005-.078.005m-.125.322l-.068.001c-.024.001-.059-.006-.084-.01-.022-.005-.035-.01-.042-.004-.006.006.001.018.025.021.026.003.059.015.109.008.05-.006.084-.005.084-.011 0-.005-.024-.005-.024-.005m-.198.228s-.047-.009-.066-.009a.18.18 0 0 1-.062-.011c-.025-.01-.046-.028-.057-.013-.012.013.013.024.032.026.02.004.039.013.073.014.035.001.048-.001.069.001.017.003.025.012.029.003.003-.008-.018-.011-.018-.011m-.283.218l-.033-.019s-.054-.037-.07-.051c-.015-.015-.018-.023-.024-.01-.005.01.021.024.042.041a.466.466 0 0 0 .072.048c.012.004.026.019.029.014.005-.008.007-.013-.016-.023m.276-2.165l.051-.066.053-.073c.009-.016.007-.029-.015-.004-.022.026-.087.118-.1.133-.009.013-.034.065.011.01m.27.05c-.004-.003-.019.028-.019.028l-.076.097c-.025.031-.039.038-.033.045.006.006.014-.002.029-.02.014-.017.04-.056.06-.077.022-.022.045-.07.039-.073m-.251.701c0 .015.025.01.055.004.03-.004.069-.017.095-.021.026-.006.037-.011.035-.016-.001-.007-.049.001-.049.001l-.063.013c-.021.006-.073.004-.073.019m.119-.297l-.03.015s-.014.011-.041.024c-.031.012-.047.02-.037.032.01.01.022-.003.042-.012.016-.01.039-.022.072-.049.031-.027.009-.017-.006-.01m-.316-.13c.015.007.043-.034.058-.048.017-.015.049-.038.044-.047-.004-.006-.03.017-.03.017s-.017.009-.037.027c-.021.017-.05.042-.035.051m.175.703c.034.006.047.015.079.015s.03-.008.012-.012l-.044-.013-.048-.013c-.015-.003-.033-.007-.036.003-.006.01.006.014.037.02m-.027.241s-.035-.027-.061-.035c-.027-.008-.048-.018-.048-.007 0 .012 0 .016.021.021.019.007.055.025.071.03.017.006.043.012.04.006a.097.097 0 0 0-.023-.015m-.22.213a.392.392 0 0 0-.033-.014s-.037-.026-.056-.043c-.02-.014-.026-.017-.035-.01-.009.008-.004.019.02.033.026.015.066.033.082.047.015.012.046.02.049.012.006-.005-.012-.018-.027-.025m-.168.219l-.02-.008-.101-.068c-.024-.017-.029-.033-.041-.03-.01.004-.001.033.012.044.014.01.042.019.052.026.01.009.019.012.04.029s.035.017.052.019c.018.002.028-.003.006-.012m-.297.183c-.023-.019-.029-.021-.029-.021s-.044-.046-.062-.062c-.017-.016-.029-.027-.039-.018-.01.008.006.025.021.038a.315.315 0 0 0 .064.048.101.101 0 0 1 .035.021c.009.01.034.014.01-.006" clip-path="url(#d)" fill="#ac6a32"/><path d="M11.878 4.372a1.439 1.439 0 0 1-.461-.059l-.112.024c.174.066.318.092.573.094.254-.002.398-.028.573-.094a21.41 21.41 0 0 0-.113-.024c-.106.04-.296.062-.46.059m.593-.136a.878.878 0 0 0-.105-.073c-.021-.01-.005-.035-.001-.046.003-.012.086-.035.134-.046.046-.012.039-.021.039-.021s-.027-.032-.195-.05c-.167-.019-.463-.014-.463-.014s-.294-.005-.463.014c-.167.018-.194.05-.194.05s-.008.01.037.021a.467.467 0 0 1 .134.046c.004.011.019.037 0 .046-.019.01-.095.062-.107.073-.012.011-.014.028.007.028.019.002.021.002.078-.01a2.818 2.818 0 0 1 1.017 0c.057.012.057.012.078.01.019 0 .018-.017.004-.028" clip-path="url(#d)" fill="#cbae43"/><path clip-path="url(#d)" fill="#cbae43" d="M11.237 4.088l-.075.059.091.041.099-.07zm1.282 0l-.114.03.097.07.092-.041zm-.237.219c-.116-.013-.188-.029-.403-.026-.213.001-.285.013-.401.026.072.029.19.044.401.044.212 0 .329-.015.403-.044"/><path d="M12.042 7.645c-.014-.021-.017-.019-.035-.006-.015.014-.031-.034-.034-.064-.001-.028.013-.119.013-.119s-.077.015-.118.03c-.041.013-.08.017-.113.026-.035.007-.051.015-.069.01a.634.634 0 0 0-.084-.006c-.031 0-.028.006-.057.036a.239.239 0 0 0-.062.1.603.603 0 0 0-.038.172.45.45 0 0 1-.019.089h.351l.015-.035a.08.08 0 0 1 .043-.039c.013-.006.025-.006.033-.023.005-.015.023-.028.042-.036.019-.009.051-.004.081.005.029.008.039-.013.046-.024.008-.012.013-.026.028-.046.016-.021.004-.039.004-.039s-.014-.01-.027-.031m.564.009c-.006-.021-.003-.024-.017-.026a.694.694 0 0 1-.049-.014c-.017-.008-.015.039-.015.039s-.042.005-.089-.001c-.047-.006-.102-.048-.121-.061-.02-.015-.042-.046-.042-.046s-.014.013-.029.021c-.015.008-.023.037-.026.068-.003.028.035.064.038.095.002.028-.032.088-.051.111-.011.018-.026.053-.035.072h.169a.126.126 0 0 1 .019-.028c.018-.018.047-.021.047-.021s0-.007.006-.024c.006-.015.024-.034.066-.051.044-.016.093-.019.093-.019s.021-.017.035-.039c.016-.021.005-.057.001-.076" clip-path="url(#d)" fill="#355d8e"/><path clip-path="url(#d)" fill="#cbae43" d="M11.843 2.726l.089-.007-.009-.077.094.014.005-.076-.099.008.016-.081-.108-.001.018.082-.095-.008v.076l.094-.012zm.192.124h-.118v-.101a.388.388 0 0 0-.035-.002l-.03.001v.102h-.124a.144.144 0 0 0-.006.04l.001.017h.317V2.89a.096.096 0 0 0-.005-.04"/><path d="M11.882 3.036a.158.158 0 0 0 .151-.099h-.303a.161.161 0 0 0 .152.099m.065-.278v.07h.08a.167.167 0 0 0-.08-.07m-.13 0a.153.153 0 0 0-.078.07h.078v-.07z" clip-path="url(#d)" fill="#355d8e"/><path d="M11.973 4.044l-.095-.042-.097.047c-.033.018-.028.013-.039.036-.01.026.003.035.017.041l.121.061.13-.061c.025-.012.021-.024.015-.042-.009-.02-.023-.026-.052-.04m.216-.028c.052 0 .094.041.094.089 0 .05-.042.09-.094.09a.09.09 0 0 1-.092-.09c0-.048.041-.089.092-.089m-.623 0c.051 0 .093.041.093.089 0 .05-.042.09-.093.09a.092.092 0 0 1-.093-.09c0-.048.042-.089.093-.089" clip-path="url(#d)" fill="#ac6a32"/><path clip-path="url(#d)" fill="#cbae43" d="M11.776 4.075l.104.054.103-.054-.105-.049zm.413-.043c.032 0 .056.025.056.054 0 .03-.024.054-.056.054a.055.055 0 0 1-.055-.054c0-.029.024-.054.055-.054m-.623 0c.03 0 .055.025.055.054 0 .03-.024.054-.055.054a.055.055 0 0 1-.057-.054.057.057 0 0 1 .057-.054m-.195-.235c.024.009.055.006.055.006s.01-.042-.015-.062c-.022-.02-.042-.035-.055-.048l-.017-.018s0 .036-.002.058c0 .022.011.055.034.064m.049.03c.01 0 .018.007.018.016s-.008.017-.018.017c-.009 0-.016-.008-.016-.017s.007-.016.016-.016m-.126-.001l-.023.026s.019.001.034.011c.017.011.035.02.055.018.019-.001.026-.018.023-.031-.004-.013-.012-.024-.044-.037-.03-.01-.039.002-.045.013"/><path d="M11.36 3.934c-.059.005-.137-.059-.137-.059-.007.052-.039.078-.086.088l.004.003s.045.022.098.03c.025.004.046-.001.073-.006a.283.283 0 0 0 .086-.026c.035-.021.025-.078.025-.078s-.006.042-.063.048m-.229-.059c-.025-.008-.06-.026-.075-.026-.015-.002-.037-.005-.033.023.002.028.032.041.059.042.028.001.043-.009.059-.018.017-.008.014-.011-.01-.021m-.184-.098c-.026-.019-.048-.024-.048-.024s-.018.044-.008.073c.01.028.03.035.055.034.025-.001.062-.014.051-.033a.132.132 0 0 0-.05-.05m.025.112c.012 0 .021.006.021.014s-.01.015-.021.015c-.011 0-.02-.006-.02-.015-.001-.008.008-.014.02-.014m.056-.211a.324.324 0 0 1 .059-.267c.073-.106.201-.149.201-.149s.004-.008.044-.052c.042-.044.122-.096.122-.096s-.094.022-.149.04v.003a.066.066 0 0 1-.065.066.063.063 0 0 1-.037-.012.71.71 0 0 0-.154.086.066.066 0 0 1-.056.101.05.05 0 0 1-.029-.007.573.573 0 0 0-.055.122.068.068 0 0 1 .028.057c0 .036-.026.066-.055.067-.004.023-.002.038-.002.044.002.021.012.035.048.046.038.01.09.076.09.076.001.001.03-.048.01-.125" clip-path="url(#d)" fill="#cbae43"/><path d="M11.259 3.186c.015-.01.017-.028.006-.037-.01-.011-.03-.01-.044.001-.014.012-.017.028-.005.039.011.01.032.009.043-.003m-.243.166c.015-.015.018-.036.006-.048-.012-.013-.035-.011-.05.003-.017.014-.019.035-.006.048.012.011.035.009.05-.003m-.147.17c.022 0 .039.017.039.037 0 .02-.017.038-.039.038a.038.038 0 0 1-.037-.038c.001-.02.017-.037.037-.037m.816-.487a.491.491 0 0 0-.11.045c.038 0 .068.024.068.055s-.034.064-.072.064a.064.064 0 0 1-.063-.064c0-.008.001-.015.004-.021-.015.011-.033.021-.052.035a.513.513 0 0 0-.208.23c-.059.11-.08.232-.055.303.025.072.12.087.122.087 0 0-.011-.012-.012-.024-.003-.015.003-.021.006-.048.004-.027.001-.059.001-.059s.021-.003.034.012l.041.048c.013.015.046.044.046.044s.017-.029.017-.06c0-.033-.021-.068-.025-.124a.407.407 0 0 1 .081-.232.639.639 0 0 1 .191-.156c.03-.015.037-.038.038-.052l.006-.057c.005-.034-.026-.032-.058-.026" clip-path="url(#d)" fill="#cbae43"/><path d="M11.566 3.164c.021 0 .04-.02.04-.037 0-.018-.017-.031-.037-.031-.021 0-.039.015-.039.032 0 .016.015.036.036.036m.179.705a.093.093 0 0 0 .077-.006c.016-.01.02-.036.003-.052-.018-.015-.046-.014-.063-.005l-.053.037s.007.013.036.026" clip-path="url(#d)" fill="#cbae43"/><path d="M11.838 3.901c-.01.016-.018.026-.05.027-.033.002-.067-.001-.089-.022-.021-.02-.035-.05-.035-.05l-.037-.001s-.012.05-.029.064c-.014.014-.071.017-.095-.003-.025-.018-.048-.039-.052-.036-.003.001 0 .02.026.041.025.023.043.036.084.036h.23s.047.003.06-.024c.014-.029.014-.046.008-.053-.007-.008-.011.005-.021.021" clip-path="url(#d)" fill="#cbae43"/><path d="M11.487 3.863c.035.018.055.006.066-.01.014-.015.015-.021.015-.021s-.032-.012-.048-.022c-.017-.01-.027-.018-.043-.016-.017.002-.018.004-.018.004s-.007.045.028.065m.445-.052c-.017.016-.013.042.003.052a.09.09 0 0 0 .077.006c.03-.013.038-.026.038-.026l-.055-.037a.062.062 0 0 0-.063.005" clip-path="url(#d)" fill="#cbae43"/><path d="M12.254 3.917c-.026.019-.081.017-.096.003-.017-.015-.029-.064-.029-.064l-.035.001s-.015.03-.035.05c-.022.021-.059.024-.089.022-.033-.001-.041-.011-.051-.027-.01-.016-.015-.028-.021-.02-.006.006-.006.024.008.053.013.028.06.024.06.024h.23c.041 0 .059-.013.084-.035.026-.021.03-.04.026-.042-.005-.004-.029.017-.052.035" clip-path="url(#d)" fill="#cbae43"/><path d="M12.236 3.81c-.015.01-.048.022-.048.022s.003.007.015.021c.012.016.032.028.067.01.035-.02.028-.065.028-.065s-.003-.002-.019-.004c-.017-.002-.026.006-.043.016m.181-.077l-.001-.058-.017.018c-.013.013-.033.028-.056.048s-.014.062-.014.062.032.003.054-.006c.026-.009.036-.042.034-.064m-.065.11a.017.017 0 0 0-.016-.017c-.01 0-.018.007-.018.017 0 .009.008.016.018.016a.016.016 0 0 0 .016-.016m.044.038a.086.086 0 0 0 .055-.018c.015-.01.034-.011.034-.011l-.024-.026c-.007-.01-.015-.023-.044-.012-.03.012-.039.024-.044.037-.002.012.005.029.023.03m.137-.006s-.077.064-.137.059c-.058-.006-.063-.048-.063-.048s-.01.057.025.078a.265.265 0 0 0 .086.026c.027.006.048.01.073.006a.38.38 0 0 0 .098-.03l.006-.003c-.049-.01-.081-.036-.088-.088m.166-.026c-.015.001-.05.018-.075.026-.024.01-.026.013-.01.021.017.009.03.019.058.018.028-.001.057-.015.059-.042.005-.028-.016-.026-.032-.023m.109-.072a.137.137 0 0 0-.049.051c-.01.019.026.032.051.033.025.001.044-.006.055-.034.009-.029-.008-.073-.008-.073s-.022.003-.049.023m-.026.112c.012 0 .022.006.022.014s-.01.015-.022.015c-.01 0-.018-.006-.018-.015 0-.008.009-.014.018-.014m.037-.318a.07.07 0 0 1 .028-.057.52.52 0 0 0-.047-.108c-.001-.004-.005-.008-.008-.014a.053.053 0 0 1-.03.007.066.066 0 0 1-.066-.066c0-.013.004-.025.009-.035a.674.674 0 0 0-.152-.086.066.066 0 0 1-.038.012.066.066 0 0 1-.065-.066v-.004a2.655 2.655 0 0 0-.149-.041.783.783 0 0 0 .168.149s.126.043.199.149c.072.107.075.19.059.267-.019.077.008.125.01.125 0 0 .053-.066.089-.076.039-.011.047-.025.05-.046a.217.217 0 0 0-.001-.043c-.03 0-.056-.031-.056-.067" clip-path="url(#d)" fill="#cbae43"/><path d="M12.496 3.186c.014.012.033.013.044.003.011-.01.009-.027-.005-.039-.014-.011-.035-.012-.046-.001-.01.009-.007.027.007.037m.243.166c.017.012.038.015.051.003.012-.012.01-.034-.007-.048-.015-.015-.037-.017-.05-.003-.011.012-.008.033.006.048m.147.17c.021 0 .037.017.037.037 0 .02-.017.038-.037.038a.038.038 0 0 1-.037-.038c0-.02.016-.037.037-.037m-.869-.405a.067.067 0 0 0 .038.052.664.664 0 0 1 .191.156.402.402 0 0 1 .081.232c-.004.056-.026.091-.026.124 0 .031.019.06.019.06s.032-.029.044-.044l.042-.048c.012-.015.034-.012.034-.012s-.003.033.001.059c.003.027.009.033.008.048-.003.012-.015.024-.013.024 0 0 .097-.015.122-.087.025-.071.003-.193-.056-.303a.491.491 0 0 0-.208-.23l-.051-.035c.003.007.003.014.003.021 0 .03-.025.064-.063.064-.036 0-.072-.033-.072-.064 0-.032.03-.055.068-.055a.491.491 0 0 0-.11-.045c-.032-.006-.062-.008-.059.026l.007.057m-.139.552s-.01.037-.021.052c-.011.016-.019.03-.017.049.003.018.025.03.039.03.013 0 .035-.012.039-.03.003-.019-.007-.033-.018-.049a.164.164 0 0 1-.022-.052m0 .15a.02.02 0 0 1 .019.02c0 .011-.009.02-.019.02a.02.02 0 0 1-.02-.02c0-.012.011-.02.02-.02" clip-path="url(#d)" fill="#cbae43"/><path d="M11.809 3.738s.034-.037.046-.062l.023-.045a.459.459 0 0 0 .069.107s.048-.026.075-.116c.028-.091-.006-.187-.019-.292-.011-.102-.021-.281-.021-.281a.204.204 0 0 1-.102.029.2.2 0 0 1-.103-.029s-.01.179-.023.281c-.012.104-.047.201-.018.292.025.09.073.116.073.116m.34-.612c0 .017.02.037.042.037.021 0 .036-.02.036-.037 0-.017-.018-.032-.039-.032-.023.001-.039.014-.039.032" clip-path="url(#d)" fill="#cbae43"/><path d="M11.32 3.445c.042 0 .076.034.076.077a.077.077 0 1 1-.154 0c0-.043.035-.077.078-.077m.133-.189c-.03-.019-.076-.011-.101.019-.025.032-.019.074.012.094.03.021.075.012.1-.019a.064.064 0 0 0-.011-.094" clip-path="url(#d)" fill="#ac6a32"/><path d="M11.317 3.47c.025 0 .044.018.044.042a.043.043 0 0 1-.044.042c-.024 0-.046-.019-.046-.042 0-.024.021-.042.046-.042m.104-.205c-.02-.005-.046.005-.054.022-.011.017 0 .036.026.041.049.01.072-.05.028-.063" clip-path="url(#d)" fill="#cbae43"/><path d="M11.878 3.453c.044 0 .082.035.082.08s-.038.08-.082.08a.08.08 0 0 1-.083-.08.08.08 0 0 1 .083-.08m0-.181c.043 0 .078.033.078.075a.077.077 0 0 1-.078.077.078.078 0 0 1-.08-.077.079.079 0 0 1 .08-.075m0-.175a.073.073 0 1 1 0 .146c-.042 0-.077-.033-.077-.073a.076.076 0 0 1 .077-.073m.559.348a.077.077 0 1 0 0 .154.077.077 0 0 0 0-.154m-.033-.17c-.025-.03-.071-.038-.101-.019a.063.063 0 0 0-.01.094c.024.031.07.04.1.019.031-.02.036-.062.011-.094" clip-path="url(#d)" fill="#ac6a32"/><path d="M12.439 3.47c.025 0 .046.018.046.042 0 .023-.021.042-.046.042a.043.043 0 0 1-.044-.042c0-.024.019-.042.044-.042m-.104-.205c-.044.012-.021.073.028.063.026-.005.037-.024.026-.041-.009-.017-.034-.026-.054-.022m-.457.213c.024 0 .043.019.043.041a.042.042 0 0 1-.043.042.043.043 0 0 1-.044-.042.043.043 0 0 1 .044-.041m0-.185c.023 0 .042.018.042.04a.042.042 0 0 1-.084 0 .04.04 0 0 1 .042-.04m0-.172c.019 0 .037.015.037.036 0 .019-.018.035-.037.035a.037.037 0 0 1-.037-.035.036.036 0 0 1 .037-.036" clip-path="url(#d)" fill="#cbae43"/><path d="M14.449 8.923c.037 0 .066.03.066.067 0 .038-.03.068-.066.068a.068.068 0 0 1-.068-.068.067.067 0 0 1 .068-.067m.19.045a.07.07 0 0 1 .069.071.07.07 0 0 1-.14 0 .07.07 0 0 1 .071-.071m.553.117c.038 0 .07.033.07.069a.07.07 0 0 1-.07.07.069.069 0 0 1-.069-.07.07.07 0 0 1 .069-.069m-.364-.072a.069.069 0 0 1 0 .137.069.069 0 0 1-.069-.068.07.07 0 0 1 .069-.069m.05-.166c.039 0 .069.031.069.069a.069.069 0 0 1-.137 0c0-.038.03-.069.068-.069m.049-.166c.039 0 .069.031.069.07a.07.07 0 0 1-.069.069.07.07 0 1 1 0-.139" clip-path="url(#d)" fill="#ac6a32"/><path d="M14.454 8.95c.019 0 .035.015.035.034 0 .018-.015.033-.035.033a.034.034 0 0 1-.034-.033c0-.018.015-.034.034-.034m.19.046c.019 0 .034.015.034.034 0 .02-.015.035-.034.035a.034.034 0 0 1-.035-.035c0-.019.015-.034.035-.034m.554.117c.017 0 .034.015.034.035 0 .018-.017.035-.034.035a.036.036 0 0 1-.035-.035c-.001-.02.015-.035.035-.035m-.364-.072c.019 0 .035.015.035.034a.035.035 0 0 1-.035.035.035.035 0 0 1-.035-.035c0-.019.016-.034.035-.034m.05-.166c.019 0 .034.015.034.035a.035.035 0 0 1-.034.035.035.035 0 0 1-.035-.035c0-.02.017-.035.035-.035m.049-.166c.019 0 .034.016.034.035a.035.035 0 0 1-.034.035.036.036 0 0 1-.035-.035c0-.019.015-.035.035-.035" clip-path="url(#d)" fill="#cbae43"/></g></svg>