<svg xmlns="http://www.w3.org/2000/svg" xmlns:xlink="http://www.w3.org/1999/xlink" width="23.772" height="13.866" viewBox="0 0 23.772 13.866"><defs><path id="a" d="M0 0h23.772v13.866H0z"/></defs><clipPath id="b"><use xlink:href="#a" overflow="visible"/></clipPath><path clip-path="url(#b)" fill="#ea0020" d="M8.315 0h15.457v13.866H8.315z"/><path clip-path="url(#b)" fill="#2a680b" d="M0 0h8.315v13.866H0z"/><g clip-path="url(#b)"><defs><path id="c" d="M0 0h23.772v13.866H0z"/></defs><clipPath id="d"><use xlink:href="#c" overflow="visible"/></clipPath><path d="M11.023 9.084c-1.046-.03-5.844-3.029-5.877-3.506l.264-.442c.477.692 5.382 3.607 5.864 3.503l-.251.445z" clip-path="url(#d)" fill="#fcff2c"/><path d="M5.355 5.075c-.095.254 1.253 1.087 2.872 2.072 1.621.987 3.016 1.596 3.121 1.509.005-.012.051-.089.046-.089-.019.03-.067.038-.14.017-.439-.126-1.578-.65-2.992-1.509-1.414-.856-2.644-1.647-2.835-1.983a.228.228 0 0 1-.021-.098h-.004l-.04.071-.007.011v-.001zm5.693 4.023c-.017.032-.05.035-.112.027-.393-.044-1.58-.623-2.986-1.463-1.635-.98-2.985-1.873-2.839-2.107l.039-.07.009.002c-.133.396 2.665 1.997 2.829 2.098 1.621 1.004 2.983 1.591 3.104 1.438l-.044.075z" clip-path="url(#d)" fill="#fcff2c"/><g clip-path="url(#d)"><path d="M10.984 9.138a.473.473 0 0 1-.049-.003c-.399-.044-1.601-.634-2.989-1.466C6.09 6.558 5.157 5.888 5.094 5.623a.094.094 0 0 1 .009-.074l.038-.069v.022l-.02.058c-.011.016-.014.035-.008.06.063.259.993.925 2.843 2.034 1.386.831 2.585 1.418 2.982 1.461.058.006.089.005.103-.021l.026-.046a.121.121 0 0 1-.052.009c-.329 0-1.554-.546-3.03-1.463l-.112-.066c-1.809-1.065-2.726-1.742-2.729-2.01.038.176.461.65 2.738 1.993l.112.066c1.474.913 2.693 1.459 3.02 1.459.035 0 .061-.008.071-.019l-.001.001a.025.025 0 0 1-.006.021l-.02.064c-.017.031-.048.035-.074.035zm.327-.465c-.242 0-1.567-.591-3.089-1.518-1.744-1.061-2.969-1.831-2.876-2.083l.047-.084.003.006-.027.075c-.098.266 1.474 1.225 2.862 2.07 1.52.926 2.839 1.514 3.08 1.514.019 0 .027-.003.03-.006a.432.432 0 0 1 .027-.048c-.023.01-.066.01-.117-.004-.481-.14-1.663-.702-2.995-1.51-1.289-.782-2.635-1.631-2.838-1.988a.223.223 0 0 1-.022-.103c.02.035.028.073.04.093.203.355 1.619 1.246 2.83 1.98 1.33.808 2.511 1.37 2.989 1.506.064.02.112.015.129-.012.021.006.021.008-.019.078-.02.031-.034.034-.054.034z"/></g><path d="M8.319 5.867c1.048-.008 2.341-.142 3.084-.44l-.16-.261c-.44.244-1.739.403-2.932.428-1.411-.012-2.406-.144-2.906-.48l-.152.278c.918.388 1.858.471 3.066.475z" clip-path="url(#d)" fill="#fcff2c"/><path d="M11.447 5.433c-.026.041-.511.208-1.226.332a12.52 12.52 0 0 1-1.905.138c-.75.001-1.362-.053-1.825-.116-.749-.117-1.137-.281-1.281-.339.014-.026.023-.046.037-.07.411.162.8.261 1.256.332a13.506 13.506 0 0 0 3.702-.025c.733-.119 1.134-.27 1.19-.342l.052.09zm-.141-.264c-.08.064-.474.203-1.172.315-.464.067-1.054.127-1.81.128a11.98 11.98 0 0 1-1.749-.114c-.707-.091-1.084-.258-1.22-.308l.043-.07c.105.054.469.202 1.186.303.439.062 1.027.109 1.74.109.752 0 1.336-.062 1.798-.127.7-.098 1.077-.276 1.134-.321l.05.085z" clip-path="url(#d)" fill="#fcff2c"/><g clip-path="url(#d)"><path d="M8.293 5.913c-.632 0-1.239-.039-1.803-.116-.73-.115-1.123-.275-1.27-.335l-.005-.044.023-.046c.406.152.793.255 1.267.328a13.427 13.427 0 0 0 3.699-.024c.725-.118 1.129-.268 1.183-.338l.068.091c-.031.057-.534.226-1.232.346a12.66 12.66 0 0 1-1.907.138h-.023zm-3.05-.527l-.024.066c.156.051.546.212 1.275.325.562.076 1.168.116 1.799.116v.01l.023-.01c.67-.001 1.311-.046 1.905-.138.734-.127 1.197-.294 1.219-.327l-.052-.08c-.038.069-.41.221-1.179.347a13.36 13.36 0 0 1-3.707.024 5.627 5.627 0 0 1-1.259-.333zm3.069.235a12.43 12.43 0 0 1-1.738-.112 4.758 4.758 0 0 1-1.164-.287L5.354 5.2l.024-.064c.002-.006.019-.024.024-.024.062.031.41.192 1.183.302.347.048.928.108 1.727.108a12.56 12.56 0 0 0 1.807-.128c.669-.093 1.064-.266 1.131-.318l.065.087c-.08.075-.465.218-1.178.331-.603.087-1.178.127-1.813.127h-.012zM5.393 5.13l-.028.065.053.008c.174.067.535.205 1.159.286.501.073 1.102.113 1.735.113v.01l.012-.01a12.599 12.599 0 0 0 1.809-.128c.708-.113 1.091-.252 1.167-.313l-.053-.072c-.037.044-.4.226-1.124.326-.603.086-1.175.126-1.799.127-.811 0-1.394-.059-1.742-.109-.776-.109-1.127-.271-1.189-.303z"/></g><path d="M4.881 7.13c.643.347 2.075.522 3.429.534 1.234.002 2.839-.19 3.44-.51l-.017-.347c-.187.295-1.909.575-3.436.564-1.527-.011-2.947-.247-3.419-.553l.003.312z" clip-path="url(#d)" fill="#fcff2c"/><path d="M11.782 7.081v.082c-.089.107-.656.271-1.367.386-.538.083-1.243.146-2.121.146-.834 0-1.499-.06-2.014-.138-.816-.12-1.336-.328-1.441-.389v-.097c.316.209 1.167.361 1.453.41.513.077 1.173.138 2.003.138.874 0 1.574-.063 2.11-.145.508-.074 1.235-.266 1.377-.393zm0-.296v.084c-.089.109-.656.271-1.367.386a14.15 14.15 0 0 1-2.121.146c-.834 0-1.498-.06-2.014-.14-.815-.12-1.336-.326-1.441-.389l.001-.096c.315.21 1.165.362 1.451.41.513.079 1.173.138 2.003.138.874 0 1.574-.062 2.11-.145.511-.075 1.237-.266 1.378-.394z" clip-path="url(#d)" fill="#fcff2c"/><g clip-path="url(#d)"><path d="M8.294 7.704c-.74 0-1.417-.046-2.016-.139-.779-.113-1.318-.315-1.445-.39l-.005-.104c.331.201 1.203.356 1.464.399.593.091 1.266.138 2.002.138.775 0 1.484-.049 2.109-.144.507-.074 1.231-.264 1.373-.391l.017.091c-.095.118-.674.283-1.376.395-.63.097-1.343.145-2.123.145zm-3.461-.625l.015.089c.075.039.58.255 1.432.379.598.091 1.275.138 2.014.138.778 0 1.492-.048 2.12-.145.685-.111 1.27-.275 1.361-.383l-.003-.076c-.128.135-.858.328-1.367.4-.625.098-1.336.145-2.111.145-.737 0-1.41-.045-2.004-.137-.335-.055-1.147-.203-1.457-.41zm3.461.332c-.737 0-1.415-.047-2.016-.14-.782-.113-1.32-.316-1.445-.39l-.004-.105c.33.201 1.202.357 1.463.399.596.091 1.269.138 2.002.138.778 0 1.486-.049 2.109-.145.507-.074 1.231-.263 1.373-.39l.017.09c-.095.118-.674.283-1.374.396-.63.097-1.344.147-2.125.147zm-3.461-.627l.015.088c.073.039.575.255 1.433.38.599.091 1.277.138 2.012.138.781 0 1.495-.048 2.12-.144.688-.112 1.273-.276 1.361-.384l-.003-.077c-.129.138-.859.331-1.367.403-.621.096-1.332.145-2.11.145a13.27 13.27 0 0 1-2.004-.138c-.335-.055-1.147-.205-1.457-.411z"/></g><path d="M8.307 9.025c-1.481-.009-2.751-.405-3.02-.468l.196.305c.473.2 1.713.497 2.837.463 1.127-.032 2.11-.12 2.804-.458l.199-.318c-.472.223-2.079.474-3.016.476z" clip-path="url(#d)" fill="#fcff2c"/><path d="M11.2 8.796l-.089.133a7.786 7.786 0 0 1-1.061.271 9.502 9.502 0 0 1-1.742.16c-1.312-.019-2.387-.276-2.892-.494l-.041-.071.006-.01.069.026c.9.322 1.909.45 2.865.474a9.6 9.6 0 0 0 1.708-.159c.754-.151 1.059-.265 1.152-.315l.025-.015zm.173-.286l.001.001a4.199 4.199 0 0 1-.067.113 7.474 7.474 0 0 1-1.339.299c-.455.061-.738.123-1.644.14-1.698-.043-2.797-.376-3.059-.458l-.039-.075c.985.258 1.989.437 3.097.456.829-.019 1.181-.08 1.634-.141.806-.126 1.213-.258 1.334-.296l-.004-.008.086-.031z" clip-path="url(#d)" fill="#fcff2c"/><g clip-path="url(#d)"><path d="M8.308 9.37c-1.338-.019-2.396-.279-2.896-.496l-.046-.075c.003-.003.014-.024.018-.024l.071.028c.801.287 1.764.447 2.861.472h.001c.687 0 1.304-.085 1.704-.158.842-.167 1.094-.283 1.15-.315a.063.063 0 0 1 .018-.006l.002-.005.009.005-.001.001c.004.001.01.001.009.003l-.089.134a7.731 7.731 0 0 1-1.066.275c-.47.098-1.154.16-1.745.161zm-2.93-.577l.046.067c.533.229 1.634.473 2.885.491.58 0 1.278-.064 1.739-.16a8.134 8.134 0 0 0 1.059-.27c.019-.031.042-.064.064-.097-.075.037-.343.151-1.145.311a9.724 9.724 0 0 1-1.683.159c-1.126-.027-2.091-.187-2.896-.474l-.069-.027zm2.946.279c-1.51-.039-2.566-.304-3.061-.458l-.046-.079c1.138.28 2.122.424 3.106.441.736-.016 1.1-.066 1.484-.12l.149-.02c.773-.12 1.182-.249 1.316-.29l.099-.046-.003.007-.078.044c-.146.054-.557.183-1.332.303l-.147.021c-.385.054-.751.105-1.487.121-.986-.016-1.972-.162-3.1-.456l.051.062c.488.15 1.542.413 3.05.452.771-.015 1.085-.061 1.449-.113l.193-.026a7.437 7.437 0 0 0 1.339-.299l.062-.107-.053.12c-.237.089-.728.217-1.345.303l-.194.027c-.366.054-.68.099-1.452.113z"/></g><path d="M8.308 3.85c1.703 0 3.077 1.385 3.077 3.088s-1.374 3.078-3.077 3.078a3.08 3.08 0 0 1-3.079-3.084A3.08 3.08 0 0 1 8.308 3.85zm0-.305a3.393 3.393 0 0 1 3.385 3.388 3.394 3.394 0 0 1-3.385 3.389 3.392 3.392 0 0 1-3.383-3.389 3.392 3.392 0 0 1 3.383-3.388z" clip-path="url(#d)" fill="#fcff2c"/><path d="M8.311 3.505a3.438 3.438 0 0 1 3.43 3.432 3.438 3.438 0 0 1-3.43 3.433 3.439 3.439 0 0 1-3.43-3.433 3.438 3.438 0 0 1 3.43-3.432zm0 .075a3.37 3.37 0 0 1 3.355 3.357 3.37 3.37 0 0 1-3.355 3.357 3.37 3.37 0 0 1-3.355-3.357A3.37 3.37 0 0 1 8.311 3.58z" clip-path="url(#d)" fill="#fcff2c"/><g clip-path="url(#d)"><path d="M8.311 10.38a3.445 3.445 0 0 1-3.44-3.442 3.445 3.445 0 0 1 3.44-3.443 3.446 3.446 0 0 1 3.44 3.443 3.445 3.445 0 0 1-3.44 3.442zm0-6.865a3.425 3.425 0 0 0-3.42 3.423 3.424 3.424 0 0 0 3.42 3.422 3.425 3.425 0 0 0 3.42-3.422 3.426 3.426 0 0 0-3.42-3.423zm0 6.789a3.369 3.369 0 0 1-3.365-3.366A3.37 3.37 0 0 1 8.311 3.57a3.37 3.37 0 0 1 3.364 3.368 3.369 3.369 0 0 1-3.364 3.366zm0-6.713a3.349 3.349 0 0 0-3.344 3.347c0 1.845 1.5 3.346 3.344 3.346a3.35 3.35 0 0 0 3.344-3.346 3.35 3.35 0 0 0-3.344-3.347z"/></g><path d="M8.315 3.79a3.156 3.156 0 0 1 3.141 3.145 3.155 3.155 0 0 1-3.141 3.144 3.156 3.156 0 0 1-3.142-3.144A3.155 3.155 0 0 1 8.315 3.79zm0 .075a3.08 3.08 0 0 1 3.066 3.07 3.079 3.079 0 0 1-3.066 3.067 3.078 3.078 0 0 1-3.067-3.067 3.08 3.08 0 0 1 3.067-3.07z" clip-path="url(#d)" fill="#fcff2c"/><g clip-path="url(#d)"><path d="M8.315 10.089a3.158 3.158 0 0 1-3.153-3.154A3.158 3.158 0 0 1 8.315 3.78a3.156 3.156 0 0 1 3.151 3.155 3.157 3.157 0 0 1-3.151 3.154zm0-6.29a3.138 3.138 0 0 0-3.133 3.135 3.137 3.137 0 0 0 3.133 3.134 3.136 3.136 0 0 0 3.131-3.134 3.138 3.138 0 0 0-3.131-3.135zm0 6.214a3.08 3.08 0 0 1-3.077-3.078 3.082 3.082 0 0 1 3.077-3.079 3.08 3.08 0 0 1 3.075 3.079 3.08 3.08 0 0 1-3.075 3.078zm0-6.138a3.064 3.064 0 0 0-3.059 3.06 3.063 3.063 0 0 0 3.059 3.059 3.062 3.062 0 0 0 3.056-3.059 3.062 3.062 0 0 0-3.056-3.06z"/></g><path clip-path="url(#d)" fill="#fcff2c" d="M8.172 3.488h.3v6.907h-.3z"/><g clip-path="url(#d)"><path d="M8.21 3.492h.209-.209z" fill="none"/></g><g clip-path="url(#d)"><path d="M8.21 10.388h.21-.21z" fill="none"/></g><path d="M8.423 3.451h.074v6.978h-.074V3.451zm-.294 0h.076l.001 6.978h-.077V3.451z" clip-path="url(#d)" fill="#fcff2c"/><g clip-path="url(#d)"><path d="M8.497 10.438h-.074l-.01-6.987.084-.009.01 6.987-.004.006c-.001.002-.003.003-.006.003zm-.01-6.987l-.064.01.01 6.967.054-.009V3.451zm-.28 6.987h-.078l-.008-6.987.084-.009.012 6.987-.004.006-.006.003zm-.011-6.987l-.066.01.01 6.967.056-.009V3.451z"/></g><path d="M4.869 6.791c.431-.396 2.017-.654 3.425-.647 1.408.007 3.075.296 3.438.639l.003.295c-.304-.285-1.599-.627-3.438-.631-1.841-.003-3.176.347-3.428.639v-.295z" clip-path="url(#d)" fill="#fcff2c"/><g clip-path="url(#d)"><path d="M4.878 7.059l-.02-.254c0-.012.02-.012.02 0v.254z"/></g><g clip-path="url(#d)"><path d="M11.753 7.071l-.021-.256c0-.01.021-.01.021 0v.256z"/></g><path d="M8.312 6.406c.809-.001 1.596.077 2.22.198.643.129 1.094.29 1.25.472v.089c-.187-.225-.795-.39-1.265-.484a11.62 11.62 0 0 0-2.205-.198 12.31 12.31 0 0 0-2.251.2c-.489.098-1.14.292-1.224.482v-.093c.046-.132.53-.329 1.212-.465.616-.12 1.408-.2 2.263-.201zm.001-.294c.81-.002 1.595.077 2.219.198.643.129 1.094.29 1.25.47v.089c-.185-.225-.795-.389-1.264-.483a11.725 11.725 0 0 0-2.205-.197c-.851.001-1.639.082-2.249.2-.47.09-1.15.291-1.228.48v-.092c.047-.13.541-.335 1.214-.465.615-.12 1.408-.198 2.263-.2z" clip-path="url(#d)" fill="#fcff2c"/><g clip-path="url(#d)"><path d="M4.837 7.175l-.001-.001c-.004 0-.008-.005-.008-.009v-.093c.048-.146.562-.344 1.221-.475a12.24 12.24 0 0 1 2.263-.201c.781 0 1.563.071 2.222.199.672.135 1.107.299 1.256.474l.003.097c-.216-.232-.892-.397-1.278-.474a11.55 11.55 0 0 0-2.177-.198c-.821.002-1.619.073-2.274.2-.533.106-1.142.3-1.217.475-.001.003-.005.006-.01.006zm3.475-.701c.781 0 1.556.069 2.207.196.388.077 1.069.245 1.271.488l-.017-.082c-.146-.167-.575-.329-1.243-.462a11.981 11.981 0 0 0-2.2-.198c-.82.001-1.623.073-2.278.201-.731.146-1.165.344-1.203.458v.053c.144-.195.817-.376 1.211-.455a12.372 12.372 0 0 1 2.252-.199zm-3.474.406h-.001c-.005-.001-.009-.005-.009-.01v-.093c.05-.147.575-.349 1.222-.476a12.373 12.373 0 0 1 2.264-.2c.785 0 1.565.071 2.221.198.671.134 1.107.299 1.257.475l.001.095c-.215-.231-.89-.396-1.277-.474a11.896 11.896 0 0 0-2.185-.197c-.809.002-1.605.074-2.264.201-.54.104-1.152.303-1.218.474-.003.004-.007.007-.011.007zm3.475-.7c.777 0 1.554.068 2.206.196.389.078 1.071.245 1.271.486l-.018-.082c-.146-.165-.575-.326-1.243-.461a11.78 11.78 0 0 0-2.191-.198c-.831.002-1.633.073-2.285.2-.703.137-1.165.342-1.204.459v.053c.138-.19.789-.372 1.215-.454a12.22 12.22 0 0 1 2.249-.199z"/></g><path d="M8.297 4.61c1.275-.007 2.388.18 2.898.44l.186.322c-.443-.239-1.643-.487-3.084-.45-1.171.007-2.425.129-3.054.464l.222-.371c.517-.268 1.733-.404 2.832-.405z" clip-path="url(#d)" fill="#fcff2c"/><g clip-path="url(#d)"><path d="M11.227 5.102l.126.204-.126-.204z" fill="none"/></g><path d="M8.313 4.876c.727-.003 1.43.04 1.99.14.522.096 1.018.242 1.09.32l.054.098c-.173-.112-.602-.239-1.155-.343-.555-.104-1.257-.139-1.98-.137-.822-.002-1.462.04-2.009.136-.58.109-.982.264-1.081.337l.055-.103c.191-.099.497-.217 1.013-.309.565-.103 1.211-.135 2.023-.139zm-.001-.294c.697-.003 1.385.037 1.922.134.423.082.841.211.993.325l.082.127c-.138-.151-.654-.296-1.108-.376-.531-.093-1.192-.129-1.889-.135-.731.002-1.406.047-1.932.142-.499.095-.822.207-.958.296l.071-.107c.188-.1.493-.191.877-.266.528-.095 1.207-.138 1.942-.14z" clip-path="url(#d)" fill="#fcff2c"/><g clip-path="url(#d)"><path d="M11.447 5.444l-.005-.002c-.17-.109-.589-.235-1.152-.341-.481-.091-1.124-.138-1.914-.138l-.064.001-.075-.001c-.788 0-1.402.044-1.933.137-.577.107-.975.261-1.076.335l.039-.116c.264-.136.598-.238 1.02-.314.513-.093 1.1-.135 2.026-.14h.043c.765 0 1.439.048 1.95.14.531.099 1.022.244 1.094.324l.057.098a.014.014 0 0 1-.001.013.012.012 0 0 1-.009.004zm-3.091-.559h-.043c-.924.006-1.509.046-2.022.139-.42.077-.751.177-1.01.309l-.048.099c.085-.089.488-.243 1.068-.352.533-.092 1.147-.136 1.937-.136h.139c.789 0 1.435.046 1.919.136.531.102.937.219 1.125.325l-.035-.065c-.068-.073-.564-.22-1.083-.315-.51-.091-1.183-.14-1.947-.14zm2.953.294c-.004 0-.005-.002-.008-.003-.142-.158-.683-.3-1.103-.374-.483-.085-1.101-.128-1.886-.136-.761.003-1.427.052-1.929.143-.444.085-.802.195-.956.295l.057-.121c.192-.103.495-.193.883-.27.499-.091 1.172-.14 1.945-.142h.057c.735 0 1.381.046 1.866.134.454.088.854.219.999.327l.083.131c.003.004.001.01-.003.013-.001.001-.003.003-.005.003zm-2.997-.532c.786.006 1.405.05 1.89.135.383.067.865.192 1.061.335l-.044-.071c-.14-.103-.537-.235-.988-.322-.483-.086-1.128-.133-1.862-.133h-.057c-.773.003-1.444.051-1.942.142-.384.075-.688.166-.872.263l-.068.105c.142-.115.503-.225.949-.311.503-.093 1.171-.142 1.933-.143z"/></g><path d="M10.017 8.365a8.808 8.808 0 0 0-1.705-.131c-2.127.025-2.814.438-2.899.562l-.159-.259c.542-.393 1.7-.613 3.069-.591.711.012 1.325.059 1.841.158l-.147.261z" clip-path="url(#d)" fill="#fcff2c"/><g clip-path="url(#d)"><path d="M5.29 8.573l.104.18-.104-.18z" fill="none"/></g><path d="M8.299 8.197c.593.01 1.172.035 1.734.138l-.04.072a9.07 9.07 0 0 0-1.691-.129c-.786-.007-1.58.067-2.27.265-.22.061-.582.201-.617.317l-.04-.067c.012-.068.23-.21.638-.326.791-.226 1.532-.264 2.286-.27zm.026-.297c.614.012 1.247.039 1.862.163l-.042.074c-.555-.111-1.086-.147-1.814-.159-.789.002-1.624.057-2.383.279-.246.073-.67.227-.683.349l-.04-.073c.009-.112.375-.256.705-.352.765-.223 1.602-.279 2.395-.281z" clip-path="url(#d)" fill="#fcff2c"/><g clip-path="url(#d)"><path d="M5.415 8.87a.011.011 0 0 1-.008-.003l-.041-.069c.012-.082.243-.225.645-.339.756-.217 1.462-.265 2.288-.271.562.009 1.161.031 1.735.138L10 8.412a9.49 9.49 0 0 0-1.622-.125l-.076.001-.09-.001c-.832 0-1.565.089-2.179.266-.232.065-.574.204-.609.31-.002.004-.005.007-.008.007h-.001zm2.884-.662c-.825.005-1.528.053-2.283.269-.413.117-.622.258-.632.318l.029.045c.071-.13.463-.264.616-.307.615-.175 1.349-.266 2.183-.266l.09.001.076-.001c.614 0 1.143.044 1.616.131l.03-.068c-.567-.092-1.165-.113-1.725-.122zm-3.034.406a.01.01 0 0 1-.009-.005l-.04-.071c.01-.152.547-.32.711-.367.653-.19 1.416-.279 2.398-.282.603.012 1.246.042 1.865.164l-.036.087c-.6-.112-1.163-.143-1.823-.154-.977.002-1.733.089-2.38.278-.318.094-.663.239-.676.34 0 .004-.003.008-.008.009h-.002v.001zm3.06-.705c-.981.003-1.741.092-2.392.281-.418.121-.691.258-.699.343l.028.048c.068-.15.618-.315.682-.333.65-.19 1.408-.277 2.387-.279.662.011 1.226.042 1.817.159l.032-.069c-.612-.111-1.252-.138-1.855-.15z"/></g><path d="M7.69 8.108a.044.044 0 0 1 .011-.026c.006-.008.013-.011.024-.011.005 0 .01 0 .015.003.004.002.008.006.009.01.003.005.003.011.003.017a.043.043 0 0 1-.006.018.032.032 0 0 1-.01.012.029.029 0 0 1-.018.005.035.035 0 0 1-.015-.001.026.026 0 0 1-.01-.011c-.003-.006-.003-.011-.003-.016zm.009-.001c0 .008.001.013.005.018a.015.015 0 0 0 .014.005c.007-.001.013-.003.017-.008.004-.004.006-.011.007-.02a.023.023 0 0 0-.001-.012c-.002-.006-.004-.008-.006-.008-.004-.002-.007-.004-.012-.004a.048.048 0 0 0-.016.008c-.003.005-.007.011-.008.021zm.081.011l.008-.002c0 .003.002.006.003.008l.008.002c.003-.001.006-.001.008-.003l.004-.005-.001-.006-.008-.002-.012-.002-.005-.005-.001-.006c0-.003.001-.004.003-.006l.003-.004.006-.003c.002-.002.004-.002.006-.002.005 0 .008 0 .01.002.003 0 .004.003.004.004l.003.006-.008.003-.001-.006-.008-.002-.008.002c-.001.002-.003.003-.003.005v.001c.002.003.003.003.004.003l.006.001a.104.104 0 0 1 .012.003l.004.005v.006a.011.011 0 0 1-.003.008.017.017 0 0 1-.006.006l-.01.002c-.007.001-.01 0-.013-.003a.02.02 0 0 1-.005-.01zm.078-.007l.008.002a.023.023 0 0 1-.008.011c-.004.003-.007.004-.014.004a.017.017 0 0 1-.015-.005c-.003-.005-.003-.01-.003-.019.001-.008.003-.013.008-.017.004-.005.009-.007.016-.007.006 0 .01.001.015.004.003.005.004.011.003.019v.001l-.034.003c0 .003 0 .008.003.011.001.003.006.003.009.003l.007-.001c.001-.002.004-.005.005-.009zM7.835 8.1h.025l-.002-.008c-.001-.004-.006-.004-.01-.004a.01.01 0 0 0-.008.004c-.002.001-.005.005-.005.008zm.038.029h.007l.003.006.007.001a.019.019 0 0 0 .008-.002c.003-.002.003-.004.004-.007l.002-.01a.017.017 0 0 1-.013.007.012.012 0 0 1-.013-.006.028.028 0 0 1-.005-.016.033.033 0 0 1 .005-.012c.002-.006.004-.008.009-.01a.015.015 0 0 1 .01-.004.01.01 0 0 1 .012.006l.001-.006h.006l-.005.041c0 .007-.001.012-.003.015-.002.003-.004.006-.007.007-.005.002-.008.004-.012.004-.005 0-.009 0-.012-.003-.003-.003-.006-.005-.004-.01zm.009-.029c0 .006 0 .01.003.013.001.003.003.004.008.004.003 0 .006-.002.01-.005.002-.002.003-.008.004-.012 0-.008 0-.011-.003-.013-.002-.003-.004-.005-.008-.005-.003 0-.006.002-.008.005-.003.004-.004.007-.006.013zm.04.022l.006-.047h.007v.008c0-.002.004-.004.006-.006a.024.024 0 0 1 .008-.002l.008.001c.002 0 .002.004.004.006.005-.007.009-.008.015-.008a.03.03 0 0 1 .01.002c.001.004.002.006.001.013l-.004.031h-.007l.003-.029v-.007c0-.002 0-.002-.003-.003l-.002-.001-.01.002-.005.012-.002.027h-.008l.004-.03-.001-.009-.005-.001-.006.001c-.002.002-.005.004-.006.007l-.003.01-.002.023h-.008zm.106-.019l.008.001a.022.022 0 0 1-.01.011c-.002.003-.007.005-.013.005-.006 0-.01-.002-.013-.007-.004-.003-.006-.009-.006-.016a.043.043 0 0 1 .01-.019.02.02 0 0 1 .016-.007c.006 0 .01.003.014.005.004.006.005.011.004.018l-.001.003h-.033l.001.012c.001.001.006.004.009.003.003 0 .006-.002.008-.003.002 0 .004-.002.006-.006zm-.023-.012h.025c0-.004-.001-.009-.003-.009-.001-.002-.005-.006-.008-.006s-.006.004-.009.006c-.003 0-.004.005-.005.009zm.038.027l.006-.046h.008v.005c.002-.004.008-.006.014-.006.003-.002.006 0 .009.001l.003.003.001.005v.007l-.003.029-.008.001.003-.028v-.007l-.003-.006-.006-.001c-.003 0-.005.001-.009.005l-.004.012-.003.026h-.008zm.067-.009v.007h-.007c-.002.001-.003 0-.005-.001l-.004-.004.001-.009.005-.027h-.007l.001-.004H8.1l.003-.012.007-.006-.003.018.008-.002v.006h-.008l-.004.027-.001.005.001.001.001.001h.006zm.008-.017c.001-.01.003-.016.009-.018.004-.006.01-.007.015-.007.006 0 .01.001.014.007.004.002.006.008.004.017 0 .006-.003.01-.005.013l-.008.009a.045.045 0 0 1-.013.003.02.02 0 0 1-.014-.006.02.02 0 0 1-.002-.018zm.007 0c-.001.005 0 .01.001.012.002.003.004.005.008.005.003 0 .006-.001.01-.005.003-.002.006-.007.008-.013l-.001-.013a.017.017 0 0 0-.011-.004c-.003 0-.006.001-.01.004a.022.022 0 0 0-.005.014zm.097.008h.008a.032.032 0 0 1-.01.01.017.017 0 0 1-.013.005c-.006.001-.011-.002-.015-.006-.002-.005-.004-.009-.002-.018.001-.009.003-.015.009-.017.003-.006.01-.008.016-.008.005 0 .01.003.014.008.003.002.003.008.003.017l-.002.002h-.033c-.001.006 0 .009.002.012.001.003.006.004.009.004a.03.03 0 0 0 .008-.002.013.013 0 0 1 .006-.007zm-.023-.013h.025l-.001-.011-.01-.002-.01.002c-.002.004-.004.006-.004.011zm.037.026l.01-.064h.008l-.01.064h-.008zm.028-.055l.003-.01h.008l-.003.01h-.008zm-.009.055l.008-.047h.008l-.008.047h-.008zm.019 0l.008-.047h.007l-.001.008c.001-.003.003-.006.006-.007s.005-.003.009-.003c.003 0 .005.001.008.003a.021.021 0 0 1 .004.007.016.016 0 0 1 .015-.01c.004 0 .008.001.009.004.003.003.003.006.003.013l-.006.032h-.008l.006-.03v-.006l-.002-.003c-.003-.002-.004-.003-.007-.003l-.008.003-.004.012-.005.027h-.006l.004-.03v-.008c-.002-.001-.003-.004-.007-.004l-.006.003c-.002.001-.003.001-.004.006-.001.002-.003.004-.004.009l-.003.024h-.008zm.082-.055l.001-.01h.007l-.001.01h-.007zm-.009.055l.008-.047h.007l-.007.047h-.008zm.019-.002l.008-.045h.008l-.002.006a.02.02 0 0 1 .016-.008l.007.001c.001.001.003.003.003.006l.001.004v.009l-.006.029h-.006l.003-.028c.002-.003.002-.007.002-.009 0 0-.001-.002-.003-.002l-.002-.003c-.006 0-.008.003-.011.003-.003.002-.006.008-.006.013l-.004.024h-.008zm.077-.003l-.007.005-.009.001c-.005 0-.009-.001-.012-.004-.002-.002-.002-.006-.002-.01l.002-.006c.003-.001.004-.003.006-.005l.006-.002h.006l.014-.003.001-.002-.001-.008-.008-.002-.008.002c-.001.001-.004.002-.006.008l-.006-.002c0-.005.003-.006.004-.009.001-.001.003-.003.008-.004l.009-.001.01.001a.06.06 0 0 1 .005.003c.001.001.001.004.003.005l-.001.007-.003.012-.002.014v.006h-.008l-.001-.006zm.002-.017l-.012.001-.006.001c-.003 0-.003.001-.003.003l-.001.003.001.006c0 .002.003.003.006.003l.008-.001.005-.007c.001 0 .002-.003.002-.007v-.002zm.045.022l.001-.006c-.003.006-.007.008-.013.007a.02.02 0 0 1-.01-.003.024.024 0 0 1-.005-.009V8.09l.004-.013.009-.008c.003-.003.006-.003.01-.003l.008.001c.002.001.002.004.003.005l.005-.023.007.001-.012.063H8.49zm-.019-.022a.024.024 0 0 0 .001.012c.003.003.005.004.008.004.004 0 .006-.001.01-.004l.005-.012c.001-.007.001-.011-.001-.015-.003-.002-.004-.004-.008-.004-.003 0-.006.002-.009.004-.002.004-.005.006-.006.013v.002zm.041-.002c.001-.008.004-.015.01-.018a.024.024 0 0 1 .015-.006c.006 0 .011.003.013.008.003.002.004.008.003.017a.072.072 0 0 1-.005.014.017.017 0 0 1-.008.007l-.012.004c-.008-.001-.011-.004-.014-.007-.004-.004-.004-.011-.002-.019zm.007.002a.024.024 0 0 0 .001.012c.002.003.005.004.009.004a.019.019 0 0 0 .01-.004.027.027 0 0 0 .007-.012c.001-.007 0-.011-.001-.015-.003-.002-.005-.002-.01-.002-.004-.002-.006 0-.01.002a.03.03 0 0 0-.006.015zm.062.025l.009-.047h.006v.007l.004-.005c.002-.003.005-.004.005-.004.004.001.006.001.009.004l-.004.007a.007.007 0 0 0-.003-.003c-.005 0-.007.001-.007.003l-.004.004c-.002.002-.002.005-.003.009l-.003.025h-.009zm.062-.014l.009.001a.024.024 0 0 1-.01.01c-.004.004-.008.005-.014.005s-.01-.003-.013-.008c-.004-.003-.004-.01-.003-.017.002-.009.006-.013.009-.018a.029.029 0 0 1 .017-.006.02.02 0 0 1 .014.006.03.03 0 0 1 .001.019v.001l-.035-.001c0 .006 0 .01.003.012.003.003.004.004.008.004a.019.019 0 0 0 .008-.002c.001.001.004-.004.006-.006zm-.022-.013l.025.001-.001-.009c-.002-.005-.005-.006-.009-.006-.003 0-.007.001-.009.003a.039.039 0 0 0-.006.011zm.037.013h.008c0 .003 0 .006.003.008l.006.001.008-.001c.003-.001.003-.003.004-.006L8.686 8.1c-.002 0-.004 0-.008-.003-.006-.001-.008-.003-.01-.004-.003 0-.004-.001-.005-.003v-.007a.02.02 0 0 1 .002-.006l.003-.002c.003-.003.006-.003.007-.003l.007-.001.008.001.006.004a.023.023 0 0 1 .001.007l-.007.001-.001-.006-.007-.003c-.004 0-.007.001-.008.003-.002.002-.004.002-.004.004v.002c.001.001.001.003.003.003l.006.002.011.004.004.004v.007c0 .003-.003.006-.004.007 0 .002-.003.005-.007.007h-.009c-.006 0-.01-.001-.012-.004-.003-.003-.004-.006-.004-.012zm.039.034l.012-.065.008.001-.001.006c.002-.003.003-.003.006-.004.003-.002.005-.003.008-.003.004 0 .006.003.01.003.003.001.004.006.005.01v.012a.049.049 0 0 1-.006.013c-.003.004-.005.007-.009.009-.003.002-.006.002-.011.002l-.006-.002c-.001 0-.004-.002-.004-.005l-.005.023h-.007zm.015-.04a.03.03 0 0 0 .001.014c.001.001.005.004.008.004a.014.014 0 0 0 .009-.003c.003-.003.005-.008.006-.015a.028.028 0 0 0-.001-.013.008.008 0 0 0-.007-.005c-.003 0-.006.002-.01.004a.026.026 0 0 0-.006.014zm.07.011l.006.001c-.001.005-.003.009-.008.01-.003.003-.007.004-.012.004-.008-.001-.013-.002-.015-.006a.024.024 0 0 1-.003-.019c.003-.008.005-.015.01-.017.005-.006.01-.006.017-.006.006 0 .01.001.012.008.004.003.004.01.003.017v.002L8.757 8.1c0 .004 0 .009.003.011.002.003.003.005.009.005l.006-.002a.023.023 0 0 0 .007-.007zm-.022-.014l.025.001c0-.003 0-.007-.003-.01 0-.002-.003-.004-.007-.004l-.01.002a.027.027 0 0 0-.005.011zm.048-.026l.001-.009h.008l-.002.009h-.007zm-.011.055l.01-.047.007.001-.01.047-.007-.001zm.036-.005v.007l-.004.001-.008-.002c-.001-.002-.003-.003-.003-.005l.001-.009.005-.027H8.82l.001-.007.004.001.003-.012.009-.004-.004.016h.008l-.001.006h-.007l-.006.028v.005l.003.001h.003v.001zm.036.003l-.01.005H8.85c-.004 0-.008-.001-.01-.004-.001-.003-.003-.006-.001-.01l.003-.006c.001-.001.002-.003.005-.003 0-.002.003-.002.005-.004h.006c.007-.001.011-.001.015-.003V8.086l-.01-.004c-.004 0-.006.002-.007.002l-.006.008-.007-.001.004-.009c.003 0 .005-.002.009-.004l.01-.002c.003 0 .006.002.009.004l.005.002.001.007-.001.006-.003.012-.002.013.001.006h-.007V8.12zm.001-.018l-.012.002c-.003 0-.006 0-.006.003l-.005.001-.001.002.001.008c.002 0 .003.002.007.002l.007-.002c.004-.001.006-.003.007-.005a.02.02 0 0 0 .002-.009v-.002zm.04.002c.003-.008.006-.015.012-.018.005-.003.01-.004.015-.004s.011 0 .013.007c.003.004.004.01.003.016l-.005.015a.07.07 0 0 1-.01.008c-.003.002-.006.002-.01.002-.006 0-.012-.002-.015-.006a.032.032 0 0 1-.003-.02zm.009 0c-.001.007-.001.012.002.014.001.003.003.005.008.006.003 0 .008-.002.01-.006a.05.05 0 0 0 .008-.012.03.03 0 0 0-.001-.014c-.005-.003-.007-.005-.01-.005a.012.012 0 0 0-.01.005c-.003.002-.005.006-.007.012zm.058.043l.014-.063h.006l-.001.007c.001-.002.004-.004.007-.005l.008-.001c.003 0 .007.001.009.004.001.003.003.004.003.008a.024.024 0 0 1 0 .012c0 .005-.003.009-.005.012-.002.006-.004.008-.007.01l-.012.003a.011.011 0 0 1-.006-.003l-.003-.004-.006.021-.007-.001zm.016-.039c-.001.006-.001.01.001.013.001.004.003.006.006.006a.018.018 0 0 0 .01-.004c.004-.003.005-.007.006-.014a.032.032 0 0 0 0-.014c-.001-.002-.005-.004-.007-.004-.004 0-.006.001-.01.003-.003.004-.006.008-.006.014zm.035.026l.011-.047h.006l-.002.007.006-.005.006-.002c.003 0 .003.002.006.004l-.003.006-.002-.001a.02.02 0 0 0-.008.001l-.003.003a.022.022 0 0 0-.003.01l-.006.024h-.008zm.031-.021a.034.034 0 0 1 .01-.02l.015-.003c.007 0 .01.003.014.008.003.002.004.009.003.016-.003.006-.004.011-.007.014-.001.003-.005.006-.008.008l-.011.002c-.007-.002-.012-.003-.015-.007a.026.026 0 0 1-.001-.018zm.008 0c-.002.005-.002.011.001.014.001.002.004.003.008.003.004.001.008 0 .01-.003.003-.002.006-.007.007-.013V8.1a.013.013 0 0 0-.01-.004c-.003 0-.008.001-.01.005-.004.001-.005.006-.006.012zm.048-.029l.004-.01h.006l-.001.01h-.009zm-.023.072l.001-.006a.01.01 0 0 1 .003.001l.006-.001.002-.008.01-.048h.008l-.01.05c-.001.005-.002.01-.005.011-.004.001-.006.003-.01.002l-.005-.001zm.065-.029l.008.001c-.001.006-.005.008-.009.01a.027.027 0 0 1-.015.005c-.005-.002-.011-.004-.014-.008-.002-.004-.003-.01-.002-.017.002-.009.005-.014.011-.018.004-.005.01-.008.016-.006.006 0 .012.003.012.006.004.004.004.01.001.019v.001h-.032c0 .005 0 .008.003.011 0 .003.003.005.007.005a.01.01 0 0 0 .008-.001l.006-.008zm-.021-.014l.025.001c0-.004 0-.006-.003-.01-.001-.002-.004-.004-.008-.004s-.008.001-.009.003c-.004.004-.005.006-.005.01zm.068.016l.006.001a.029.029 0 0 1-.008.013.035.035 0 0 1-.014.003.016.016 0 0 1-.015-.008c-.002-.003-.002-.01-.001-.017.001-.006.002-.01.006-.013a.023.023 0 0 1 .009-.008.024.024 0 0 1 .012-.003.023.023 0 0 1 .011.005c.003.003.004.007.004.012h-.008c0-.003-.001-.006-.003-.007-.001-.003-.004-.003-.006-.003a.013.013 0 0 0-.01.004c-.003.002-.004.007-.006.013a.033.033 0 0 0 0 .014c.002.003.005.004.009.004a.016.016 0 0 0 .008-.003c.001 0 .004-.002.006-.007zm.027.012v.007h-.006l-.008-.001-.002-.003.001-.009.006-.026-.004-.002.001-.007.006.001.002-.012.009-.003-.003.016h.007l-.001.007-.008-.001-.006.027v.005l.002.001h.004zm.009-.014c.001-.009.005-.016.01-.019a.017.017 0 0 1 .015-.004.02.02 0 0 1 .015.007c.002.005.003.01.001.019l-.005.013a.036.036 0 0 1-.01.007.05.05 0 0 1-.013.002.026.026 0 0 1-.013-.008c-.003-.004-.004-.01 0-.017zm.008 0c-.003.006-.003.009 0 .013a.012.012 0 0 0 .008.006c.003 0 .006-.002.01-.005.003-.003.005-.006.006-.013.003-.005.001-.01 0-.012-.002-.005-.004-.006-.008-.006-.003 0-.008.001-.01.003-.004.004-.006.007-.006.014zm.088.03l.003-.005a.024.024 0 0 1-.015.006.03.03 0 0 1-.01-.004l-.005-.008a.021.021 0 0 1 .001-.012c0-.006.003-.01.003-.013l.01-.01.011-.001.008.001c.002.003.002.005.005.007l.003-.024h.008l-.015.064-.007-.001zm-.019-.023l.001.012c.002.004.006.006.007.006a.012.012 0 0 0 .009-.005c.004-.001.006-.006.007-.011a.038.038 0 0 0 0-.015c-.001-.003-.004-.004-.007-.004-.005-.001-.007.001-.009.003-.004.003-.005.007-.008.014zm.072.013l.008.002c-.003.004-.005.008-.01.01-.006.004-.009.004-.015.004-.005-.002-.009-.003-.013-.009-.001-.004-.003-.01-.001-.018a.03.03 0 0 1 .011-.016c.003-.004.009-.006.015-.006.008.001.01.003.012.008.005.005.005.012.003.018l-.001.002-.033-.004c-.001.006-.001.01.001.013.002.003.004.005.007.005l.008-.001c.003-.001.005-.004.008-.008zm-.022-.013l.025.001v-.008a.015.015 0 0 0-.009-.007.016.016 0 0 0-.009.003c-.004.002-.005.006-.007.011zm.108.014l.007.004a.03.03 0 0 1-.012.015.04.04 0 0 1-.018.004c-.006-.001-.011-.002-.015-.006l-.007-.013.001-.017a.026.026 0 0 1 .009-.017.028.028 0 0 1 .012-.01.02.02 0 0 1 .015-.003c.007 0 .012.003.014.006a.02.02 0 0 1 .008.016H9.48c0-.006-.001-.009-.004-.01-.002-.004-.005-.004-.009-.006-.005 0-.009.002-.012.003a.032.032 0 0 0-.01.01c-.001.003-.004.007-.004.012a.03.03 0 0 0-.001.013c0 .004.001.008.003.01.003.001.006.004.01.004a.03.03 0 0 0 .013-.003.023.023 0 0 0 .009-.012zm.015.002c.003-.01.006-.015.012-.019a.04.04 0 0 1 .015-.003c.006.001.01.003.013.008.003.004.003.01 0 .017a.032.032 0 0 1-.005.014c-.003.004-.005.006-.009.007-.003.002-.008.002-.012.002-.006-.001-.011-.003-.013-.007-.002-.005-.004-.012-.001-.019zm.008 0a.032.032 0 0 0 0 .014c.001.003.004.006.007.006.006 0 .008-.001.01-.004.005-.002.007-.006.01-.012a.025.025 0 0 0-.001-.013c-.002-.005-.004-.006-.008-.006-.003 0-.008.001-.01.003-.004.002-.007.007-.008.012zm.035.029l.018-.064h.008l-.017.064h-.009zm.048.004l.002-.006c-.004.006-.011.006-.016.006l-.008-.001-.003-.006V8.17l.001-.007.008-.028.008.001-.008.025-.001.009a.01.01 0 0 0 .001.003c.001.003.003.003.003.003h.008c.003-.001.006-.003.007-.005l.003-.007.006-.026.008.001-.012.046-.007-.002zm.017.003l.012-.046.008.001-.003.006.008-.004c.003-.001.006-.002.009-.001l.006.002c.002.002.002.004.003.008.003-.006.01-.008.015-.008.006.002.008.003.01.006a.034.034 0 0 1 .001.011l-.009.033-.008-.002.008-.028.001-.008-.001-.002c-.001-.002-.003-.002-.003-.002-.005-.001-.008 0-.011.001-.003.003-.004.006-.005.011l-.007.026h-.006l.008-.03v-.008l-.007-.005a.02.02 0 0 0-.006.002l-.004.005c-.003.002-.003.006-.005.01l-.006.024-.008-.002zm.078.011l-.006-.001.016-.062.009.001-.008.021c.005-.003.01-.005.014-.003l.008.002c.002.001.004.002.004.005l.001.008-.001.009a.033.033 0 0 1-.011.018.023.023 0 0 1-.015.005c-.006 0-.008-.004-.01-.009l-.001.006zm.006-.024c-.001.006-.002.01-.001.012.001.005.003.007.007.007.004.002.007 0 .009-.002a.032.032 0 0 0 .008-.013c.002-.006.002-.01 0-.012 0-.004-.003-.006-.006-.007a.014.014 0 0 0-.01.004.015.015 0 0 0-.007.011zm.063.028l-.009.004-.009.001c-.005-.001-.007-.004-.01-.006-.002-.003-.002-.006-.001-.01.001-.002.001-.005.004-.007 0 0 .003-.003.006-.003l.004-.002h.008l.014-.001v-.003a.006.006 0 0 0 0-.006c-.001-.002-.004-.004-.008-.004a.02.02 0 0 0-.008.001.017.017 0 0 0-.006.006l-.006-.001c.001-.003.002-.006.005-.007.002-.003.005-.004.007-.005l.012-.001.008.004.003.003.001.006-.001.006-.002.012a.049.049 0 0 0-.004.013v.007l-.008-.002v-.005zm.004-.018h-.013l-.006.001-.004.004-.001.002v.006c.001.001.004.004.006.004.003 0 .005 0 .008-.003.003 0 .005-.001.006-.003l.004-.008v-.003zm.012.027l.015-.046.006.001-.002.006c.006-.004.01-.006.017-.005l.006.003.004.004v.006c0 .001 0 .004-.002.007l-.008.029h-.008l.008-.029.001-.007-.001-.005-.003-.001c-.005-.001-.007 0-.01.001-.004.002-.006.006-.007.011l-.008.027-.008-.002zm.051-.016c.003-.009.006-.015.011-.019.006-.002.012-.003.015-.002a.02.02 0 0 1 .014.008c.003.006.003.011 0 .019a.023.023 0 0 1-.006.013c-.004.004-.006.004-.01.006-.003.002-.007.002-.011.002-.006-.002-.01-.005-.012-.009-.004-.004-.004-.011-.001-.018zm.008.001v.013c0 .004.003.005.008.007.004 0 .006 0 .01-.003s.005-.006.008-.013c.003-.006.003-.011 0-.014-.003-.003-.005-.006-.009-.006-.003 0-.006 0-.01.003-.004.001-.006.007-.007.013z" clip-path="url(#d)"/><g clip-path="url(#d)"><path d="M9.998 8.418c-.004 0-.005-.001-.008-.003-.008-.003-.011-.012-.007-.021l.188-.333c.005-.008.013-.011.021-.006.009.004.012.015.006.021l-.187.333c-.002.006-.009.009-.013.009z" fill="#ea0020"/></g><path d="M5.436 5.011c1.053-.015 5.919 2.976 5.935 3.526L11.069 9c-.137-.64-5.075-3.549-5.89-3.494l.257-.495z" clip-path="url(#d)" fill="#fcff2c"/><g clip-path="url(#d)"><path d="M11.1 8.978l.24-.407.013-.003.002.013-.255.397z"/></g><g clip-path="url(#d)"><path d="M5.199 5.483l.219-.451c.003-.005.009-.006.015-.003.004.001.006.007.003.012l-.237.442z"/></g><path d="M5.149 5.487c.196-.132 1.633.509 3.136 1.417 1.502.91 2.934 1.937 2.805 2.13l-.042.066-.02.017c.004-.003.026-.03-.002-.1-.064-.212-1.081-1.024-2.767-2.043-1.645-.98-3.015-1.573-3.153-1.403l.043-.084zM11.4 8.571c.124-.246-1.209-1.25-2.861-2.228-1.692-.959-2.91-1.524-3.132-1.355l-.052.089c0 .005.003-.005.012-.014.041-.034.108-.033.138-.033.384.005 1.478.51 3.015 1.391.673.393 2.843 1.785 2.835 2.177 0 .033.001.039-.01.057l.055-.084z" clip-path="url(#d)" fill="#fcff2c"/><g clip-path="url(#d)"><path d="M11.034 9.124l-.01-.013c-.003 0-.004-.001-.003-.002 0 0 .021-.021-.005-.089-.066-.216-1.141-1.055-2.764-2.037C6.863 6.154 5.58 5.551 5.2 5.551c-.044 0-.073.009-.086.025l.001-.004c.001-.005.001-.01.004-.014l.021-.075a.154.154 0 0 1 .09-.022c.382 0 1.729.629 3.06 1.435 1.352.819 2.752 1.8 2.816 2.089.005.022.003.042-.007.055l-.043.068-.012.006a.072.072 0 0 1-.008.01h-.002zM5.2 5.532c.383 0 1.67.602 3.063 1.435 1.65.997 2.704 1.822 2.772 2.047a.189.189 0 0 1 .014.067l.032-.052c.008-.01.009-.022.005-.039-.062-.281-1.491-1.28-2.805-2.077C6.951 6.11 5.61 5.48 5.23 5.48a.143.143 0 0 0-.075.015l-.025.052c.013-.011.038-.015.07-.015zm6.15 3.124l-.005-.002v-.001l-.003-.012.001-.001-.006.01.006-.01c.002-.006.002-.012.002-.03.008-.401-2.204-1.815-2.83-2.18-1.531-.878-2.628-1.384-3.01-1.39-.039 0-.095 0-.13.031h-.003c.038-.049.094-.049.127-.051.393.006 1.492.513 3.026 1.392.443.258 2.85 1.759 2.839 2.186v.007l.026-.04c.115-.224-1.141-1.197-2.858-2.214-1.816-1.029-2.921-1.506-3.12-1.356l-.042.077c-.008.002-.025.009-.025.006l.053-.095c.03-.025.071-.035.128-.035.474 0 1.903.753 3.018 1.385 1.493.884 3.003 1.969 2.866 2.24l-.05.077c-.003.004-.006.006-.01.006z"/></g><path d="M6.256 7.316c0 .563.231 1.074.606 1.446a2.039 2.039 0 0 0 2.904.007c.373-.371.604-.885.604-1.451V4.571l-4.114-.004v2.749z" clip-path="url(#d)" fill="#fff"/><g clip-path="url(#d)"><path d="M8.309 9.383c-.543 0-1.06-.217-1.457-.613a2.042 2.042 0 0 1-.607-1.454V4.567l4.125-.006.012 2.756c0 .551-.217 1.069-.609 1.459a2.057 2.057 0 0 1-1.464.607zm2.049-4.812l-4.102.007.012 2.738c0 .541.214 1.053.602 1.439a2.03 2.03 0 0 0 2.887.007 2.03 2.03 0 0 0 .601-1.444V4.571z"/></g><path d="M6.334 7.319v.002a1.98 1.98 0 0 0 1.974 1.966c.542 0 1.035-.221 1.392-.577a1.95 1.95 0 0 0 .58-1.388V4.659H6.335l-.001 2.66zm3.152-1.862v1.695l-.002.178a1.144 1.144 0 0 1-.345.83 1.167 1.167 0 0 1-1.659-.006 1.18 1.18 0 0 1-.347-.83V5.451l2.353.006z" clip-path="url(#d)" fill="#ea0020"/><g clip-path="url(#d)"><path d="M8.308 9.297a1.981 1.981 0 0 1-1.401-.582 1.96 1.96 0 0 1-.583-1.393l.002-2.662 3.953-.009.009 2.673a1.96 1.96 0 0 1-.581 1.394 1.971 1.971 0 0 1-1.399.579zm1.962-4.638l-3.935.009.008 2.652c0 .52.205 1.01.577 1.383.374.372.867.576 1.388.576.523 0 1.016-.204 1.387-.574a1.94 1.94 0 0 0 .575-1.381V4.659zM8.307 8.513a1.18 1.18 0 0 1-.833-.352 1.189 1.189 0 0 1-.351-.837V5.443l2.363.005.009 1.704-.001.179a1.153 1.153 0 0 1-.349.836 1.173 1.173 0 0 1-.838.346zM7.141 5.461l.001 1.863c0 .306.125.607.344.824a1.158 1.158 0 0 0 1.646.006 1.153 1.153 0 0 0 .343-.824l.001-1.874-2.335.005z"/></g><path d="M8.059 7.016c0 .077.029.147.076.198a.253.253 0 0 0 .184.083.247.247 0 0 0 .183-.082.287.287 0 0 0 .078-.199v-.372h-.52l-.001.372z" clip-path="url(#d)" fill="#1a0095"/><path d="M8.466 6.735a.053.053 0 0 0-.053.052c0 .027.024.051.053.051a.051.051 0 1 0 0-.103zm-.144.138a.052.052 0 0 0-.051.053.05.05 0 0 0 .051.051.05.05 0 0 0 .052-.051.053.053 0 0 0-.052-.053zm.144.143a.055.055 0 0 0-.053.053c0 .028.025.051.053.051a.051.051 0 0 0 .051-.051c0-.028-.023-.053-.051-.053zm-.282.003a.051.051 0 0 0-.051.051.051.051 0 1 0 .103 0 .05.05 0 0 0-.052-.051zm0-.284a.05.05 0 0 0-.052.05c0 .029.023.052.052.052a.052.052 0 0 0 .052-.052.05.05 0 0 0-.052-.05z" clip-path="url(#d)" fill="#fff"/><path d="M8.057 7.911c0 .076.028.147.077.198a.242.242 0 0 0 .182.081c.073 0 .137-.03.184-.082a.284.284 0 0 0 .075-.197v-.372l-.518-.002v.374z" clip-path="url(#d)" fill="#1a0095"/><path d="M8.463 7.629a.051.051 0 1 0 .052.051.052.052 0 0 0-.052-.051zm-.144.139a.05.05 0 0 0-.051.051.05.05 0 0 0 .051.051.051.051 0 0 0 .051-.051.051.051 0 0 0-.051-.051zm.144.144a.052.052 0 0 0-.052.052c0 .028.024.051.052.051a.051.051 0 0 0 .051-.051.05.05 0 0 0-.051-.052zm-.282 0a.053.053 0 0 0-.051.052c0 .028.024.052.051.052a.053.053 0 0 0 .053-.052.052.052 0 0 0-.053-.052zm0-.283a.053.053 0 0 0-.052.051c0 .03.024.053.052.053a.053.053 0 0 0 .053-.053c0-.028-.025-.051-.053-.051z" clip-path="url(#d)" fill="#fff"/><path d="M7.338 7.019c0 .076.03.147.077.197a.246.246 0 0 0 .366 0 .285.285 0 0 0 .077-.196v-.374h-.519l-.001.373z" clip-path="url(#d)" fill="#1a0095"/><path d="M7.746 6.736a.052.052 0 0 0-.051.052c0 .028.023.051.051.051.028 0 .053-.023.053-.051a.056.056 0 0 0-.053-.052zm-.145.139a.05.05 0 0 0-.051.051c0 .028.024.051.051.051a.052.052 0 0 0 .052-.051.052.052 0 0 0-.052-.051zm.145.145a.051.051 0 0 0-.051.051c0 .028.023.051.051.051a.051.051 0 0 0 .051-.051.052.052 0 0 0-.051-.051zm-.282 0a.051.051 0 0 0-.051.051c0 .028.022.052.051.052a.053.053 0 0 0 .052-.052.052.052 0 0 0-.052-.051zm-.001-.284a.051.051 0 0 0-.05.051.05.05 0 0 0 .05.052c.03 0 .052-.023.052-.052a.053.053 0 0 0-.052-.051z" clip-path="url(#d)" fill="#fff"/><path d="M8.778 7.019c0 .076.028.147.075.197a.249.249 0 0 0 .184.082c.072 0 .136-.03.183-.082a.283.283 0 0 0 .077-.197v-.373h-.518l-.002.373h.001z" clip-path="url(#d)" fill="#1a0095"/><path d="M9.186 6.736a.051.051 0 0 0-.053.051c0 .029.022.052.053.052a.05.05 0 0 0 .05-.052.05.05 0 0 0-.05-.051zm-.146.139a.052.052 0 0 0-.052.051c0 .028.024.051.052.051.028 0 .053-.023.053-.051 0-.028-.025-.051-.053-.051zm.144.144a.052.052 0 0 0-.051.053.05.05 0 0 0 .051.051.052.052 0 0 0 0-.104zm-.28.001a.051.051 0 0 0-.052.051c0 .028.023.051.052.051a.05.05 0 0 0 .05-.051.05.05 0 0 0-.05-.051zm-.001-.284a.052.052 0 0 0-.053.051c0 .028.024.052.053.052a.052.052 0 0 0 .051-.052.05.05 0 0 0-.051-.051z" clip-path="url(#d)" fill="#fff"/><path d="M8.059 6.117a.29.29 0 0 0 .076.196c.048.05.112.082.184.082a.244.244 0 0 0 .183-.082.292.292 0 0 0 .078-.196v-.375h-.521v.375z" clip-path="url(#d)" fill="#1a0095"/><path d="M8.466 5.832a.054.054 0 0 0-.053.053c0 .028.024.05.053.05a.05.05 0 0 0 .051-.05.052.052 0 0 0-.051-.053zm-.144.14a.05.05 0 0 0-.051.051c0 .028.022.052.051.052a.052.052 0 0 0 .051-.052.052.052 0 0 0-.051-.051zm.143.145c-.027 0-.052.022-.052.05 0 .029.025.053.052.053a.053.053 0 0 0 .053-.053.052.052 0 0 0-.053-.05zm-.281 0a.051.051 0 0 0-.051.05c0 .03.023.053.051.053a.051.051 0 0 0 .052-.053.05.05 0 0 0-.052-.05zm0-.285a.052.052 0 0 0-.052.053c0 .028.023.05.052.05a.05.05 0 0 0 .052-.05.052.052 0 0 0-.052-.053z" clip-path="url(#d)" fill="#fff"/><path d="M6.589 5.354c.005-.192.14-.237.14-.238.002 0 .148.048.148.239l-.288-.001z" clip-path="url(#d)" fill="#fcff2c"/><path d="M6.471 5.121l-.024.22h.144c.001-.182.138-.213.14-.21.004-.001.139.039.143.21h.144l-.027-.222-.52.002z" clip-path="url(#d)" fill="#fcff2c"/><g clip-path="url(#d)"><path d="M7.028 5.35h-.153c-.013-.174-.144-.211-.144-.213 0 .001-.13.026-.131.203l-.152.008.015-.23.528-.008.037.24zm-.311-.225l-.246.004-.015.212.136-.008c-.007-.149.087-.196.125-.208zm.028-.001c.034.013.135.065.139.217l.125-.008-.026-.213-.238.004z"/></g><path d="M6.439 5.341h.586c.013 0 .023.014.023.028s-.01.027-.023.027h-.586c-.013 0-.023-.013-.023-.027 0-.015.01-.028.023-.028z" clip-path="url(#d)" fill="#fcff2c"/><g clip-path="url(#d)"><path d="M7.025 5.404h-.586c-.018 0-.033-.015-.033-.035 0-.021.015-.036.033-.036h.586c.016 0 .032.015.032.036 0 .02-.016.035-.032.035zm-.586-.054v.036h.586c.008 0 .015-.006.015-.017l-.601-.019z"/></g><path d="M6.652 5.341c0-.116.077-.148.077-.148s.082.034.082.148h-.159z" clip-path="url(#d)" fill="#fcff2c"/><g clip-path="url(#d)"><path d="M6.82 5.348h-.168c-.008-.127.071-.162.075-.164.01.002.093.038.093.157v.007zm-.093-.147c.002.001-.066.032-.066.14l.143-.008c-.005-.101-.075-.131-.077-.132z"/></g><path d="M6.451 5.029h.563c.011 0 .021.011.021.025 0 .013-.01.024-.021.024h-.563c-.012 0-.022-.01-.022-.024s.01-.025.022-.025z" clip-path="url(#d)" fill="#fcff2c"/><g clip-path="url(#d)"><path d="M7.014 5.085h-.563a.03.03 0 0 1-.031-.031c0-.019.014-.033.031-.033h.563c.017 0 .03.013.03.033-.001.018-.014.031-.03.031zm-.563-.047v.03h.563c.008 0 .012-.007.012-.015l-.575-.015z"/></g><path d="M6.462 5.078H7c.012 0 .021.011.021.025 0 .014-.009.025-.021.025h-.538c-.012 0-.02-.011-.02-.025 0-.014.009-.025.02-.025z" clip-path="url(#d)" fill="#fcff2c"/><g clip-path="url(#d)"><path d="M7.001 5.136h-.539c-.016 0-.029-.016-.029-.034 0-.019.013-.034.029-.034H7c.017 0 .03.015.03.034 0 .019-.013.034-.029.034zm-.539-.051v.033H7c.006 0 .012-.008.012-.016l-.55-.017z"/></g><path d="M6.636 4.711h.043v.03h.031v-.03h.044v.03h.031v-.03h.043v.07c0 .01-.009.018-.019.018h-.154c-.009 0-.019-.009-.019-.019v-.069z" clip-path="url(#d)" fill="#fcff2c"/><g clip-path="url(#d)"><path d="M6.808 4.807h-.16l-.021-.027v-.069l.052-.01.008.04.023-.01-.009-.02.053-.01.009.04.022-.01-.009-.02.052-.01.009.089-.029.017zm-.137-.096l-.035.008.009.061.163.019.012-.018v-.07l-.035.008.009.022-.04.009-.009-.039-.035.008.009.022-.04.009-.008-.039z"/></g><path clip-path="url(#d)" fill="#fcff2c" d="M6.797 4.804l.01.225h-.152l.012-.226.13.001z"/><g clip-path="url(#d)"><path d="M6.815 5.036h-.16l.003-.233.138-.008.019.241zm-.027-.232l-.12.007-.003.218.132-.009-.009-.216z"/></g><path d="M6.821 4.82h.042v.03h.03v-.03h.043v.03h.03v-.03h.042v.069c0 .01-.008.019-.019.019h-.148a.02.02 0 0 1-.019-.019V4.82h-.001z" clip-path="url(#d)" fill="#fcff2c"/><g clip-path="url(#d)"><path d="M6.99 4.916h-.158l-.02-.027V4.82l.051-.009.009.039.021-.008-.008-.022.051-.009.009.039.021-.008-.008-.022.05-.009.009.087-.027.018zm-.136-.096l-.033.009.009.06.16.019.011-.019V4.82l-.034.009.007.021-.038.009-.009-.039-.034.009.008.021-.038.009-.009-.039z"/></g><path clip-path="url(#d)" fill="#fcff2c" d="M6.982 4.908l.005.121h-.143l.004-.121z"/><g clip-path="url(#d)"><path d="M6.996 5.036h-.152l-.004-.13.142-.008.014.138zm-.023-.128l-.125.008.005.113.125-.009-.005-.112z"/></g><path d="M6.453 4.82h.042v.03h.03v-.03h.044v.03h.03v-.03h.043v.069c0 .012-.009.019-.021.019h-.148c-.009 0-.019-.009-.019-.019V4.82h-.001z" clip-path="url(#d)" fill="#fcff2c"/><g clip-path="url(#d)"><path d="M6.622 4.916h-.158l-.019-.027V4.82l.051-.009.009.039.021-.008-.009-.022.052-.008.008.039.022-.008-.009-.023.052-.009.008.087-.028.018zm-.135-.095l-.034.008.008.059.16.019.012-.019V4.82l-.034.009.009.022-.039.009-.009-.04-.034.009.008.022-.038.009-.009-.039z"/></g><path clip-path="url(#d)" fill="#fcff2c" d="M6.614 4.908l.004.121h-.141l.003-.121z"/><g clip-path="url(#d)"><path d="M6.628 5.038h-.151l-.006-.132.143-.008.014.14zm-.022-.13l-.126.008.004.113.126-.007-.004-.114z"/></g><path d="M6.717 4.876c-.001-.022.03-.024.028 0v.053h-.028v-.053zm.184.076c0-.021.029-.021.028 0v.041h-.028v-.041zm-.369 0c0-.02.03-.021.03 0v.042h-.03v-.042z" clip-path="url(#d)"/><path d="M8.219 4.711h.044v.03h.03v-.03h.044v.03h.032v-.03h.043v.07c0 .01-.009.018-.019.018h-.154c-.01 0-.02-.008-.02-.018v-.07z" clip-path="url(#d)" fill="#fcff2c"/><g clip-path="url(#d)"><path d="M8.393 4.807h-.162l-.021-.026v-.07l.053-.01.008.04.021-.009-.008-.021.053-.01.009.04.023-.009-.009-.021.052-.01.009.089-.028.017zm-.14-.096l-.034.008.009.062.165.018.01-.018v-.07l-.034.008.008.022-.04.01-.009-.04-.035.008.009.022-.039.01-.01-.04z"/></g><path clip-path="url(#d)" fill="#fcff2c" d="M8.38 4.804l.009.225h-.148l.01-.225h.129z"/><g clip-path="url(#d)"><path d="M8.397 5.036h-.156l.001-.233.138-.006.017.239zm-.026-.232l-.12.008-.003.217.132-.009-.009-.216z"/></g><path d="M8.405 4.82h.04v.03h.031v-.03h.042v.03h.03v-.03h.044v.069c0 .012-.008.019-.018.019h-.15a.02.02 0 0 1-.019-.019V4.82z" clip-path="url(#d)" fill="#fcff2c"/><g clip-path="url(#d)"><path d="M8.573 4.916h-.158l-.019-.027V4.82l.05-.009.009.039.022-.008-.009-.022.051-.009.009.04.021-.008-.009-.023.052-.009.008.087-.027.018zm-.135-.096l-.033.009.008.059.16.019.011-.019V4.82l-.035.009.009.022-.039.009-.009-.04-.033.009.008.022-.04.009-.007-.04z"/></g><path clip-path="url(#d)" fill="#fcff2c" d="M8.566 4.908l.005.121h-.144l.004-.121z"/><g clip-path="url(#d)"><path d="M8.419 5.038l.004-.131.143-.008.014.13-.161.009zm.137-.13l-.125.008.005.104h.135l-.015-.112z"/></g><path d="M8.038 4.821h.042v.03h.03V4.82h.042v.03h.03v-.03h.044l-.001.071c0 .01-.008.017-.018.017h-.15a.02.02 0 0 1-.019-.019v-.068z" clip-path="url(#d)" fill="#fcff2c"/><g clip-path="url(#d)"><path d="M8.207 4.916h-.159l-.019-.027v-.068l.05-.01.007.039.024-.007-.009-.023.051-.009.009.039.021-.008-.009-.022.052-.009.009.086-.027.019zm-.136-.095l-.033.008.009.059.16.019.009-.017v-.07l-.035.009.01.021-.039.01-.009-.04-.033.009.009.021-.039.01-.009-.039z"/></g><path clip-path="url(#d)" fill="#fcff2c" d="M8.199 4.908l.003.121h-.143l.004-.121z"/><g clip-path="url(#d)"><path d="M8.21 5.038h-.151l-.004-.13.143-.009.012.139zm-.02-.13l-.126.008.003.113.125-.007-.002-.114z"/></g><path d="M8.173 5.354c.003-.191.139-.237.14-.238.001 0 .146.05.146.24l-.286-.002z" clip-path="url(#d)" fill="#fcff2c"/><path d="M8.055 5.121l-.024.22h.144c.001-.182.137-.212.14-.21.003 0 .139.039.142.21H8.6l-.024-.222-.521.002z" clip-path="url(#d)" fill="#fcff2c"/><g clip-path="url(#d)"><path d="M8.611 5.35h-.153c-.013-.175-.142-.211-.143-.213.001.001-.129.027-.132.203l-.153.01.017-.23.528-.009.036.239zm-.312-.225l-.244.005-.017.21.135-.008c-.006-.147.089-.193.126-.207zm.029-.001a.225.225 0 0 1 .14.217l.125-.008-.026-.213-.239.004z"/></g><path d="M8.021 5.341h.588c.012 0 .022.014.022.028 0 .015-.01.027-.022.027h-.588C8.01 5.396 8 5.384 8 5.369s.01-.028.021-.028z" clip-path="url(#d)" fill="#fcff2c"/><g clip-path="url(#d)"><path d="M8.609 5.405h-.588c-.016 0-.03-.016-.03-.036 0-.021.014-.036.03-.036h.588c.017 0 .031.015.031.036 0 .02-.015.036-.031.036zm-.588-.055v.038h.588c.008 0 .014-.008.014-.019l-.602-.019z"/></g><path d="M8.236 5.341c0-.116.078-.148.078-.148s.082.035.082.148h-.16z" clip-path="url(#d)" fill="#fcff2c"/><g clip-path="url(#d)"><path d="M8.404 5.35h-.168c-.009-.128.071-.164.075-.165.008.001.093.037.093.156v.009zm-.093-.149c.003.001-.066.032-.066.14l.142-.008c-.004-.1-.074-.131-.076-.132z"/></g><path d="M8.035 5.029h.562c.012 0 .021.011.021.025 0 .013-.01.024-.021.024h-.562c-.013 0-.023-.01-.023-.024s.01-.025.023-.025z" clip-path="url(#d)" fill="#fcff2c"/><g clip-path="url(#d)"><path d="M8.597 5.087h-.563c-.017 0-.03-.015-.03-.033 0-.019.013-.033.03-.033h.563c.017 0 .03.013.03.033 0 .018-.013.033-.03.033zm-.563-.049v.031h.563c.006 0 .013-.007.013-.015l-.576-.016z"/></g><path d="M8.047 5.078h.537c.011 0 .02.011.02.026 0 .013-.009.024-.02.024h-.537c-.012 0-.022-.011-.022-.024 0-.015.01-.026.022-.026z" clip-path="url(#d)" fill="#fcff2c"/><g clip-path="url(#d)"><path d="M8.585 5.136h-.538c-.017 0-.031-.016-.031-.033 0-.019.015-.034.031-.034h.537c.016 0 .029.015.029.034.001.018-.013.033-.028.033zm-.538-.049v.032h.537c.007 0 .011-.006.011-.015l-.548-.017z"/></g><path d="M8.302 4.876c-.003-.022.029-.022.029 0v.053h-.029v-.053zm.183.076c0-.02.028-.021.028 0v.042h-.028v-.042zm-.369 0c0-.021.029-.021.028 0v.042h-.028v-.042z" clip-path="url(#d)"/><path d="M9.786 4.713h.043v.03h.03v-.03h.044v.03h.03v-.03h.043v.07c0 .011-.008.017-.018.017h-.153c-.01 0-.019-.008-.019-.017v-.07z" clip-path="url(#d)" fill="#fcff2c"/><g clip-path="url(#d)"><path d="M9.958 4.808h-.161l-.02-.026v-.069l.052-.01.007.039.024-.008-.009-.022.053-.009.009.039.021-.008-.01-.022.052-.009.009.087-.027.018zm-.138-.095l-.034.007.008.062.164.017.01-.017v-.07l-.035.008.009.022-.039.01-.009-.04-.035.008.008.022-.039.01-.008-.039z"/></g><path clip-path="url(#d)" fill="#fcff2c" d="M9.946 4.804l.01.225h-.149l.009-.225z"/><g clip-path="url(#d)"><path d="M9.965 5.038h-.158v-.234l.14-.008.018.242zm-.028-.234l-.122.01v.215l.131-.008-.009-.217z"/></g><path d="M9.97 4.822h.043v.03h.029v-.031h.043v.031h.03v-.031h.043v.07a.017.017 0 0 1-.017.018H9.99c-.01 0-.019-.008-.019-.018l-.001-.069z" clip-path="url(#d)" fill="#fcff2c"/><g clip-path="url(#d)"><path d="M10.141 4.918h-.159l-.02-.027v-.069l.051-.01.008.039.021-.01-.009-.021.052-.01.009.041.021-.01-.008-.021.051-.01.009.088-.026.02zm-.137-.096l-.034.008.009.061.162.018.008-.018v-.07l-.034.008.009.023-.039.008-.009-.039-.034.008.009.023-.038.008-.009-.038z"/></g><path clip-path="url(#d)" fill="#fcff2c" d="M10.132 4.909l.005.12h-.144l.003-.12z"/><g clip-path="url(#d)"><path d="M10.144 5.038h-.151l-.003-.13.143-.009.011.139zm-.021-.129l-.125.009.004.111.125-.008-.004-.112z"/></g><path d="M9.603 4.822h.041v.03h.032v-.03h.041v.03h.033v-.03h.042v.068a.018.018 0 0 1-.019.019h-.15c-.01 0-.019-.01-.019-.019v-.068h-.001z" clip-path="url(#d)" fill="#fcff2c"/><g clip-path="url(#d)"><path d="M9.771 4.918h-.157l-.019-.027v-.069l.049-.009.009.039.023-.009-.009-.021.05-.01.009.039.024-.009-.01-.02.051-.01.008.086-.028.02zm-.134-.096l-.034.009.009.06.159.019.01-.019v-.069l-.032.008.008.022-.04.008-.008-.038-.033.008.007.022-.039.008-.007-.038z"/></g><path clip-path="url(#d)" fill="#fcff2c" d="M9.764 4.91l.005.12h-.143l.004-.12z"/><g clip-path="url(#d)"><path d="M9.778 5.038h-.152l-.006-.129.144-.01.014.139zm-.022-.128l-.126.008.005.112.124-.008-.003-.112z"/></g><path d="M9.738 5.355c.006-.191.141-.237.141-.237.001-.001.147.048.147.239l-.288-.002z" clip-path="url(#d)" fill="#fcff2c"/><path d="M9.62 5.121l-.022.221h.142c.002-.182.139-.212.141-.212.004 0 .138.04.142.212h.144l-.025-.221H9.62z" clip-path="url(#d)" fill="#fcff2c"/><g clip-path="url(#d)"><path d="M10.178 5.35h-.154c-.012-.172-.142-.211-.142-.211s-.131.026-.133.203l-.151.008.015-.229.53-.008.035.237zm-.312-.224l-.246.004-.014.212.134-.009c-.005-.148.089-.194.126-.207zm.027-.001a.221.221 0 0 1 .138.216l.125-.007-.024-.213-.239.004z"/></g><path d="M9.588 5.342h.587c.012 0 .023.012.023.028 0 .015-.01.027-.023.027h-.587c-.013 0-.022-.012-.022-.027-.001-.016.008-.028.022-.028z" clip-path="url(#d)" fill="#fcff2c"/><g clip-path="url(#d)"><path d="M10.175 5.406h-.587c-.018 0-.03-.017-.03-.036 0-.02.012-.036.03-.036h.587c.017 0 .032.016.032.036 0 .019-.015.036-.032.036zm-.587-.056v.039h.587c.007 0 .014-.01.014-.019l-.601-.02z"/></g><path d="M9.8 5.341c.001-.113.078-.147.078-.146 0 0 .082.033.084.146H9.8z" clip-path="url(#d)" fill="#fcff2c"/><g clip-path="url(#d)"><path d="M9.97 5.35H9.8c-.007-.128.072-.164.077-.164.01 0 .093.037.093.156v.008zm-.093-.148c.002.002-.066.033-.067.138l.143-.007c-.005-.099-.074-.13-.076-.131z"/></g><path d="M9.601 5.03h.563c.011 0 .021.012.021.026 0 .013-.01.024-.021.024h-.563c-.012 0-.022-.01-.022-.024s.01-.026.022-.026z" clip-path="url(#d)" fill="#fcff2c"/><g clip-path="url(#d)"><path d="M10.164 5.087h-.563a.032.032 0 0 1-.031-.032c0-.018.014-.034.031-.034h.563c.016 0 .028.015.028.034 0 .019-.012.032-.028.032zm-.563-.048v.032h.563c.006 0 .012-.006.012-.015l-.575-.017z"/></g><path d="M9.611 5.079h.54c.01 0 .021.011.021.024 0 .015-.01.024-.021.024h-.54c-.01 0-.02-.01-.02-.024 0-.013.01-.024.02-.024z" clip-path="url(#d)" fill="#fcff2c"/><g clip-path="url(#d)"><path d="M10.151 5.136h-.54c-.016 0-.028-.016-.028-.033 0-.019.012-.033.028-.033h.54c.017 0 .029.014.029.033 0 .018-.013.033-.029.033zm-.54-.049v.031h.54c.006 0 .012-.006.012-.015l-.552-.016z"/></g><path d="M9.866 4.876c0-.021.031-.021.031 0v.054h-.031v-.054zm.184.078c0-.021.03-.022.029 0v.04h-.029v-.04zm-.369 0c0-.021.03-.021.03 0v.041h-.03v-.041z" clip-path="url(#d)"/><path d="M6.639 6.316h.04v.031h.031v-.031h.045v.032h.03v-.032h.044v.07c0 .01-.009.017-.021.017h-.153c-.008 0-.017-.008-.017-.017v-.07h.001z" clip-path="url(#d)" fill="#fcff2c"/><g clip-path="url(#d)"><path d="M6.808 6.411h-.16l-.019-.025v-.07l.05-.009.008.04.023-.008-.008-.023.053-.008.008.04.022-.008-.008-.024.052-.008.008.086-.029.017zm-.137-.095l-.032.008.008.062.162.017.011-.017v-.07l-.035.008.009.024-.039.007-.01-.039-.035.008.009.024-.04.007-.008-.039z"/></g><path clip-path="url(#d)" fill="#fcff2c" d="M6.797 6.409l.011.224h-.15l.009-.224h.131z"/><g clip-path="url(#d)"><path d="M6.816 6.642l-.158-.001v-.232l.138-.008.02.241zm-.027-.233l-.122.009v.216l.132-.008-.01-.217z"/></g><path d="M6.823 6.425h.04v.031h.03v-.031h.043v.031h.03v-.031h.044v.071c0 .01-.009.017-.019.017h-.15c-.01 0-.019-.008-.019-.017v-.071h.001z" clip-path="url(#d)" fill="#fcff2c"/><g clip-path="url(#d)"><path d="M6.991 6.521h-.157l-.02-.025v-.071l.049-.008.009.039.021-.009-.007-.022.051-.008.009.039.021-.009-.007-.022.05-.008.008.086-.027.018zm-.136-.096l-.032.008.007.063.16.017.011-.017v-.071l-.034.008.008.023-.039.009-.007-.04-.036.008.009.023-.039.009-.008-.04z"/></g><path clip-path="url(#d)" fill="#fcff2c" d="M6.983 6.512l.005.121h-.144l.004-.121z"/><g clip-path="url(#d)"><path d="M6.996 6.641h-.152l-.003-.129.143-.008.012.137zm-.022-.129l-.126.009.005.113.127-.008-.006-.114z"/></g><path d="M6.455 6.427h.041v.029h.032v-.031h.042v.031h.03v-.031h.043v.071c0 .01-.009.017-.019.017h-.15c-.01 0-.019-.008-.019-.017v-.069z" clip-path="url(#d)" fill="#fcff2c"/><g clip-path="url(#d)"><path d="M6.624 6.522h-.157l-.019-.026v-.069l.048-.01.009.039.023-.008-.01-.023.051-.008.008.039.024-.008-.009-.023.05-.008.008.087-.026.018zm-.136-.095l-.033.006.008.062.162.017.01-.017v-.07l-.034.008.008.023-.04.009-.008-.04-.034.008.007.023-.038.009-.008-.038z"/></g><path clip-path="url(#d)" fill="#fcff2c" d="M6.615 6.513l.006.121h-.144l.003-.121z"/><g clip-path="url(#d)"><path d="M6.628 6.642h-.151l-.004-.13.143-.008.012.138zm-.02-.129l-.128.009.006.112.125-.008-.003-.113z"/></g><path d="M6.589 6.96c.005-.192.14-.237.14-.237.002-.001.148.048.148.239l-.288-.002z" clip-path="url(#d)" fill="#fcff2c"/><path d="M6.473 6.726l-.024.221h.143c.002-.182.138-.212.141-.212.004 0 .138.039.142.212h.144l-.025-.222-.521.001z" clip-path="url(#d)" fill="#fcff2c"/><g clip-path="url(#d)"><path d="M7.029 6.954h-.154c-.012-.174-.142-.211-.144-.211 0 0-.13.027-.131.204l-.151.007.015-.23.53-.009.035.239zm-.312-.225l-.244.005-.017.213.136-.01c-.006-.148.087-.194.125-.208zm.028 0c.034.013.136.064.139.216l.125-.008-.024-.212-.24.004z"/></g><path d="M6.439 6.947h.587c.012 0 .022.012.022.027s-.01.028-.022.028h-.587c-.013 0-.023-.012-.023-.028 0-.015.01-.027.023-.027z" clip-path="url(#d)" fill="#fcff2c"/><g clip-path="url(#d)"><path d="M7.026 7.01h-.587c-.017 0-.032-.016-.032-.036 0-.019.015-.036.032-.036h.587c.017 0 .032.017.032.036 0 .02-.015.036-.032.036zm-.587-.056v.037h.587c.008 0 .014-.008.014-.018l-.601-.019z"/></g><path d="M6.652 6.945c0-.114.08-.148.08-.148s.081.035.082.148h-.162z" clip-path="url(#d)" fill="#fcff2c"/><g clip-path="url(#d)"><path d="M6.823 6.954h-.171c-.007-.127.071-.164.079-.164.006.001.09.037.09.157l.002.007zm-.095-.147c.001.001-.067.034-.067.138l.145-.008c-.006-.097-.073-.129-.078-.13z"/></g><path d="M6.451 6.634h.563c.012 0 .021.012.021.024 0 .015-.009.025-.021.025h-.563c-.012 0-.021-.01-.021-.025 0-.012.009-.024.021-.024z" clip-path="url(#d)" fill="#fcff2c"/><g clip-path="url(#d)"><path d="M7.014 6.692h-.563c-.018 0-.03-.015-.03-.034 0-.018.012-.033.03-.033h.563c.017 0 .029.015.029.033s-.012.034-.029.034zm-.563-.049v.03h.563c.007 0 .013-.006.013-.015l-.576-.015z"/></g><path d="M6.464 6.683h.537c.012 0 .021.012.021.025 0 .013-.01.024-.021.024h-.537c-.012 0-.021-.01-.021-.024-.001-.013.008-.025.021-.025z" clip-path="url(#d)" fill="#fcff2c"/><g clip-path="url(#d)"><path d="M7.001 6.741h-.537c-.016 0-.03-.015-.03-.033 0-.018.015-.035.03-.035h.537c.017 0 .03.017.03.035 0 .018-.014.033-.03.033zm-.537-.049v.031h.537c.008 0 .013-.007.013-.015l-.55-.016z"/></g><path d="M6.718 6.48c-.001-.022.03-.022.03 0v.053h-.03V6.48zm.183.078c0-.021.029-.021.029 0v.041h-.029v-.041zm-.368 0c0-.021.028-.021.028 0v.041h-.028v-.041z" clip-path="url(#d)"/><path d="M9.695 8.01l.029.03-.022.022.021.02.021-.02.03.03-.02.021.021.022.021-.021.034.032-.05.049c-.009.007-.02.006-.026 0l-.109-.109a.02.02 0 0 1-.001-.028l.049-.048h.002z" clip-path="url(#d)" fill="#fcff2c"/><g clip-path="url(#d)"><path d="M9.768 8.208l-.02-.008-.113-.114.003-.033.05-.049.043.03-.022.033.021.009.01-.02.042.031-.022.033.023.01.008-.022.044.03-.067.07zm-.081-.191l-.037.047.118.136.006-.012.049-.048-.032-.019-.008.022-.034-.023.021-.033-.03-.02-.01.022-.034-.022.021-.033-.03-.017z"/></g><path clip-path="url(#d)" fill="#fcff2c" d="M9.74 8.19l-.15.164-.106-.105.166-.152z"/><g clip-path="url(#d)"><path d="M9.59 8.367l-.111-.112.165-.163.102.092-.156.183zm.054-.263l-.154.151.099.088.145-.159-.09-.08z"/></g><path d="M9.747 8.219l.029.03-.02.021.02.021.022-.022.031.03-.022.022.022.021.021-.021.03.03-.048.049c-.009.008-.02.006-.027-.001L9.7 8.293c-.008-.006-.008-.018-.003-.026l.05-.048z" clip-path="url(#d)" fill="#fcff2c"/><g clip-path="url(#d)"><path d="M9.818 8.414l-.02-.009-.111-.112.005-.033.048-.048.042.029-.022.034.021.01.01-.022.044.03-.023.034.023.009.008-.021.044.03-.069.069zm-.078-.19l-.035.049.113.132.005-.012.05-.048-.03-.018-.008.022-.035-.022.022-.034-.031-.018-.01.022-.032-.022.021-.034-.03-.017z"/></g><path clip-path="url(#d)" fill="#fcff2c" d="M9.798 8.394l-.081.088-.1-.101.087-.083.094.096z"/><g clip-path="url(#d)"><path d="M9.717 8.494l-.108-.107.089-.095.107.095-.088.107zm-.02-.189l-.074.082.094.083.075-.082-.095-.083z"/></g><path d="M9.486 7.958l.03.029-.021.023.021.021.022-.021.03.029-.021.022.021.021.022-.022.03.032-.049.048a.02.02 0 0 1-.026 0l-.105-.107a.017.017 0 0 1-.001-.025l.047-.05z" clip-path="url(#d)" fill="#fcff2c"/><g clip-path="url(#d)"><path d="M9.558 8.154l-.019-.008-.106-.11-.001-.035.049-.049.041.03-.02.035.02.009.01-.021.043.029-.023.033.022.008.009-.021.044.03-.069.07zm-.077-.19l-.036.05.113.132.006-.011.049-.051-.03-.019-.009.024-.034-.022.021-.035-.03-.017-.01.021-.032-.021.022-.034-.03-.017z"/></g><path clip-path="url(#d)" fill="#fcff2c" d="M9.539 8.134l-.082.089-.101-.102.088-.082z"/><g clip-path="url(#d)"><path d="M9.457 8.235l-.107-.107.089-.096.106.096-.088.107zm-.02-.19l-.076.083.096.082.074-.082-.094-.083z"/></g><path d="M9.206 8.431c.137-.133.265-.068.266-.068.001.001.069.138-.065.274l-.201-.206z" clip-path="url(#d)" fill="#fcff2c"/><path d="M9.288 8.183l-.173.14.101.101c.13-.128.248-.054.25-.05.003.002.07.126-.049.249l.102.102.138-.175-.369-.367z" clip-path="url(#d)" fill="#fcff2c"/><g clip-path="url(#d)"><path d="M9.52 8.738l-.11-.109c.115-.13.05-.248.05-.251-.001 0-.034-.02-.083-.02a.22.22 0 0 0-.154.071l-.113-.1.174-.153.38.367-.144.195zm-.041-.359a.204.204 0 0 1 .016.066.234.234 0 0 1-.072.184l.095.084.132-.169-.171-.165zm-.197-.19l-.162.14.102.088c.064-.082.19-.081.235-.058l-.175-.17z"/></g><path d="M9.109 8.316l.414.415c.008.008.007.024-.003.035-.009.011-.027.012-.036.004l-.415-.416c-.009-.009-.007-.025.005-.035a.024.024 0 0 1 .035-.003z" clip-path="url(#d)" fill="#fcff2c"/><g clip-path="url(#d)"><path d="M9.499 8.784l-.02-.009-.416-.415c-.011-.013-.01-.033.003-.047l.026-.012.436.424c.013.011.01.033-.002.046l-.027.013zm-.423-.437l.423.427.015-.014-.412-.437-.033.031.007-.007z"/></g><path d="M9.259 8.466c.082-.08.16-.048.16-.048s.034.081-.046.161l-.114-.113z" clip-path="url(#d)" fill="#fcff2c"/><g clip-path="url(#d)"><path d="M9.374 8.591l-.12-.12c.088-.109.167-.063.169-.063.007.007.038.095-.043.177l-.006.006zm.006-.17a.155.155 0 0 0-.113.051l.106.095c.064-.068.043-.136.039-.146-.002.003-.013 0-.032 0z"/></g><path d="M9.337 8.104l.398.398c.009.008.008.024-.001.033-.01.009-.026.009-.033.002l-.398-.399c-.009-.008-.007-.022.002-.031.01-.01.024-.011.034-.003h-.002z" clip-path="url(#d)" fill="#fcff2c"/><g clip-path="url(#d)"><path d="M9.716 8.551l-.021-.008-.398-.399a.032.032 0 0 1 .001-.044l.046-.003.398.399c.009.01.009.034-.002.044l-.024.011zm-.385-.441l-.022.022.407.409.011-.013-.396-.418z"/></g><path d="M9.311 8.146l.381.381c.008.008.007.023-.003.032-.009.01-.025.01-.031.003l-.381-.381c-.008-.008-.007-.022.003-.032.009-.009.023-.011.031-.003z" clip-path="url(#d)" fill="#fcff2c"/><g clip-path="url(#d)"><path d="M9.671 8.576l-.021-.009-.38-.38c-.011-.012-.01-.031.003-.044l.044-.003.38.38c.011.011.011.032-.001.044l-.025.012zm-.365-.423l-.023.021.388.394.012-.012-.377-.403z"/></g><path d="M9.636 8.179c.013-.016.035.004.019.021l-.036.038-.021-.021.038-.038zm.074.184c.015-.016.035.006.02.02l-.028.03-.021-.021.029-.029zm-.262-.261a.015.015 0 0 1 .022.021l-.029.029-.022-.021.029-.029z" clip-path="url(#d)"/><path d="M9.785 6.316h.042v.031h.03v-.031h.044v.031h.03v-.031h.044v.07c0 .01-.01.019-.019.019h-.153c-.01 0-.019-.01-.019-.019v-.07h.001z" clip-path="url(#d)" fill="#fcff2c"/><g clip-path="url(#d)"><path d="M9.956 6.412h-.162l-.018-.026v-.07l.051-.009.009.04.021-.009-.009-.022.053-.009.009.04.021-.009-.01-.022.054-.009.008.087-.027.018zm-.139-.096l-.032.009.007.06.165.019.01-.019v-.07l-.036.01.009.023-.039.007-.009-.039-.035.009.009.023-.04.007-.009-.039z"/></g><path clip-path="url(#d)" fill="#fcff2c" d="M9.944 6.411l.009.223-.148-.001.009-.224z"/><g clip-path="url(#d)"><path d="M9.962 6.642h-.157v-.233l.138-.008.019.241zm-.027-.231l-.121.007v.216l.131-.008-.01-.215z"/></g><path d="M9.969 6.427h.042v.029h.028v-.031h.043v.031h.032v-.031h.041v.071c0 .01-.009.017-.017.017h-.15c-.01 0-.019-.008-.019-.017v-.069z" clip-path="url(#d)" fill="#fcff2c"/><g clip-path="url(#d)"><path d="M10.138 6.522h-.159l-.019-.026v-.069l.051-.01.009.039.019-.009-.008-.022.051-.008.01.039.022-.009-.01-.022.052-.008.009.087-.027.018zm-.136-.095l-.033.007.008.062.162.017.008-.017v-.071l-.032.008.008.023-.039.009-.008-.04-.035.008.009.023-.037.009-.011-.038z"/></g><path clip-path="url(#d)" fill="#fcff2c" d="M10.129 6.513l.004.121H9.99l.003-.121z"/><g clip-path="url(#d)"><path d="M10.142 6.642H9.99l-.005-.13.144-.008.013.138zm-.022-.129l-.127.009.006.112.125-.008-.004-.113z"/></g><path d="M9.601 6.427h.04v.029h.032v-.031h.042v.031h.032v-.031h.042v.071c0 .01-.008.017-.019.017h-.15c-.01 0-.019-.007-.019-.017v-.069z" clip-path="url(#d)" fill="#fcff2c"/><g clip-path="url(#d)"><path d="M9.769 6.522h-.158l-.019-.026v-.069l.049-.01.009.039.023-.009-.009-.022.05-.008.009.039.023-.009-.008-.022.051-.008.008.087-.028.018zm-.134-.095l-.034.007.008.062.16.017.011-.017v-.071l-.033.008.009.023-.041.009-.008-.04-.034.008.008.023-.04.009-.006-.038z"/></g><path clip-path="url(#d)" fill="#fcff2c" d="M9.761 6.513l.006.121h-.144l.004-.121z"/><g clip-path="url(#d)"><path d="M9.614 6.643l.005-.131.143-.008.015.129-.163.01zm.139-.13l-.126.009.005.104h.135l-.014-.113z"/></g><path d="M9.736 6.96c.004-.192.14-.237.14-.237.001-.001.147.048.147.238l-.287-.001z" clip-path="url(#d)" fill="#fcff2c"/><path d="M9.619 6.726l-.024.221h.143c.002-.182.139-.213.141-.212.004 0 .138.041.142.212h.144l-.025-.221h-.521z" clip-path="url(#d)" fill="#fcff2c"/><g clip-path="url(#d)"><path d="M10.175 6.954h-.155c-.011-.174-.142-.21-.142-.212 0 .001-.129.027-.132.204l-.151.008.014-.229.529-.009.037.238zm-.311-.224l-.245.005-.016.212.134-.01c-.004-.148.088-.194.127-.207zm.029-.001c.038.015.134.071.136.217l.125-.008-.024-.212-.237.003z"/></g><path d="M9.585 6.947h.587c.012 0 .023.012.023.028 0 .014-.01.026-.023.026h-.587c-.012 0-.023-.012-.023-.026 0-.015.011-.028.023-.028z" clip-path="url(#d)" fill="#fcff2c"/><g clip-path="url(#d)"><path d="M10.172 7.01h-.587c-.017 0-.031-.016-.031-.035 0-.021.015-.037.031-.037h.587c.018 0 .032.016.032.037 0 .019-.014.035-.032.035zm-.587-.054v.035h.587c.008 0 .015-.008.015-.017l-.602-.018z"/></g><path d="M9.798 6.947c0-.116.08-.147.08-.147s.08.032.082.147h-.162z" clip-path="url(#d)" fill="#fcff2c"/><g clip-path="url(#d)"><path d="M9.969 6.954h-.171c-.007-.128.072-.163.076-.164.01.001.093.037.095.157v.007zm-.095-.147c.003.001-.067.033-.067.14l.143-.009c-.004-.099-.073-.131-.076-.131z"/></g><path d="M9.598 6.635h.563c.011 0 .021.011.021.024 0 .015-.01.025-.021.025h-.563c-.012 0-.022-.01-.022-.025 0-.013.01-.024.022-.024z" clip-path="url(#d)" fill="#fcff2c"/><g clip-path="url(#d)"><path d="M10.161 6.692h-.563c-.017 0-.031-.016-.031-.034s.015-.032.031-.032h.563c.017 0 .03.014.03.032s-.013.034-.03.034zm-.563-.048v.03h.563c.008 0 .012-.006.012-.015l-.575-.015z"/></g><path d="M9.609 6.683h.539c.012 0 .021.012.021.026 0 .013-.009.024-.021.024h-.539c-.011 0-.02-.011-.02-.024 0-.014.009-.026.02-.026z" clip-path="url(#d)" fill="#fcff2c"/><g clip-path="url(#d)"><path d="M10.146 6.741h-.537c-.017 0-.029-.015-.029-.033 0-.019.012-.035.029-.035h.537c.017 0 .031.017.031.035a.03.03 0 0 1-.031.033zm-.537-.049v.033h.537c.008 0 .013-.008.013-.016l-.55-.017z"/></g><path d="M9.864 6.48c-.001-.021.03-.022.03 0v.055h-.03V6.48zm.184.078c0-.021.029-.021.029 0v.041h-.029v-.041zm-.368 0c0-.021.028-.021.027 0V6.6H9.68v-.042z" clip-path="url(#d)"/><path d="M6.792 8.143l.03-.03.021.021.022-.022-.021-.021.031-.031.023.023.021-.023-.021-.023.03-.03.049.049a.018.018 0 0 1 0 .026l-.109.108c-.007.007-.02.01-.027.002l-.049-.049z" clip-path="url(#d)" fill="#fcff2c"/><g clip-path="url(#d)"><path d="M6.853 8.206l-.019-.009-.048-.048.03-.042.033.021.01-.021-.021-.01.032-.043.034.021.009-.021-.022-.01.03-.043.069.055-.008.033-.129.117zm-.037-.086l-.017.03.053.047.009-.013.109-.109-.049-.062-.017.03.021.01-.021.036-.034-.023-.021.031.023.01-.023.033-.033-.02z"/></g><path clip-path="url(#d)" fill="#fcff2c" d="M6.972 8.096l.164.152-.105.104-.151-.164z"/><g clip-path="url(#d)"><path d="M7.031 8.365l-.158-.173.092-.103.177.152-.111.124zm-.066-.263l-.08.092.146.146.098-.098-.164-.14z"/></g><path d="M7.001 8.089l.03-.03.021.022.021-.021-.023-.022.032-.029.021.021.021-.021-.021-.023.03-.029.049.049a.016.016 0 0 1-.001.025l-.106.107a.019.019 0 0 1-.026 0l-.048-.049z" clip-path="url(#d)" fill="#fcff2c"/><g clip-path="url(#d)"><path d="M7.061 8.152l-.018-.008-.049-.048.029-.042.035.021.008-.021-.021-.009.03-.043.035.022.008-.021-.023-.01.032-.043.062.054-.001.033-.127.115zm-.038-.086l-.017.03.055.048.009-.013.104-.105-.047-.063-.018.029.022.01-.021.034-.035-.022-.018.031.022.009-.021.033-.035-.021z"/></g><path clip-path="url(#d)" fill="#fcff2c" d="M7.176 8.037l.087.083-.099.101-.084-.087z"/><g clip-path="url(#d)"><path d="M7.162 8.233l-.087-.095.095-.107.1.082-.108.12zm.008-.189l-.084.094.076.071.095-.095-.087-.07z"/></g><path d="M6.74 8.349l.03-.028.023.021.021-.021-.023-.023.03-.03.022.022.023-.021-.023-.021.029-.031.051.049a.017.017 0 0 1 0 .025l-.107.107a.02.02 0 0 1-.026.001l-.05-.05z" clip-path="url(#d)" fill="#fcff2c"/><g clip-path="url(#d)"><path d="M6.803 8.412l-.02-.007-.049-.049.029-.042.036.021.008-.021-.022-.009.031-.043.033.023.01-.022-.023-.01.03-.042.062.051-.001.035-.124.115zm-.04-.086l-.018.03.057.047.008-.011.107-.106-.05-.063-.018.03.021.01-.021.033-.033-.021-.018.03.021.009-.02.033-.036-.021z"/></g><path clip-path="url(#d)" fill="#fcff2c" d="M6.916 8.297l.088.082-.1.103-.083-.089z"/><g clip-path="url(#d)"><path d="M6.904 8.493l-.09-.095.096-.107.101.082-.107.12zm.007-.189l-.085.095.077.071.094-.095-.086-.071z"/></g><path d="M7.213 8.632c-.131-.139-.068-.267-.068-.268.001-.001.138-.069.273.065l-.205.203z" clip-path="url(#d)" fill="#fcff2c"/><path d="M6.965 8.549l.139.173.101-.102c-.128-.13-.053-.247-.049-.25.001-.001.125-.069.249.051l.102-.103-.175-.138-.367.369z" clip-path="url(#d)" fill="#fcff2c"/><g clip-path="url(#d)"><path d="M7.103 8.734l-.145-.179.368-.381.185.138-.1.115c-.06-.046-.111-.068-.166-.068-.051 0-.084.019-.086.019.001 0-.071.111.052.235l-.108.121zm.037-.354l-.17.175.134.154.095-.095a.198.198 0 0 1-.076-.179.199.199 0 0 1 .017-.055zm.105-.039a.24.24 0 0 1 .166.072l.09-.1-.175-.127-.164.172a.212.212 0 0 1 .083-.017z"/></g><path d="M7.098 8.728l.414-.414c.01-.009.025-.008.036.002.01.011.011.026.003.036l-.415.415c-.007.008-.024.008-.035-.003-.01-.011-.012-.027-.003-.036z" clip-path="url(#d)" fill="#fcff2c"/><g clip-path="url(#d)"><path d="M7.122 8.782l-.027-.012c-.011-.012-.015-.037-.003-.048l.414-.415c.031-.009.041-.004.048.004.012.012.014.036.003.048l-.435.423zm.406-.466l-.424.419-.003.029.021.008.008-.011.416-.415.003-.03h-.021z"/></g><path d="M7.248 8.576c-.081-.081-.049-.159-.049-.159s.081-.034.162.047l-.113.112z" clip-path="url(#d)" fill="#fcff2c"/><g clip-path="url(#d)"><path d="M7.248 8.589l-.006-.006c-.085-.084-.051-.166-.05-.169.01-.01.086-.044.175.044l-.119.131zm-.045-.164c.003 0-.022.066.046.14l.107-.108a.187.187 0 0 0-.153-.032z"/></g><path d="M6.886 8.499l.398-.398c.008-.009.024-.009.033.001.008.01.01.025.001.033l-.398.398c-.008.01-.022.008-.032-.001-.01-.009-.011-.024-.002-.033z" clip-path="url(#d)" fill="#fcff2c"/><g clip-path="url(#d)"><path d="M6.906 8.548l-.025-.015-.001-.04.398-.398.046.001c.011.014.011.035 0 .047l-.418.405zm0-.018v.009l.008-.012.397-.397.006-.027-.018.001-.407.402-.004.026.018-.002z"/></g><path d="M6.929 8.526l.38-.381c.009-.008.024-.007.033.002.01.01.01.024.002.033l-.381.38c-.007.008-.021.007-.032-.002-.009-.01-.011-.025-.002-.032z" clip-path="url(#d)" fill="#fcff2c"/><g clip-path="url(#d)"><path d="M6.95 8.574l-.026-.011c-.011-.012-.013-.031-.002-.043l.382-.382.043.002c.014.014.014.033.004.044l-.401.39zm0-.017v.008l.007-.01.381-.382.003-.026h-.018l-.388.385-.004.026.019-.001z"/></g><path d="M6.965 8.197c-.015-.014.005-.036.022-.021l.037.039-.02.02-.039-.038zm.185-.075c-.015-.015.006-.035.02-.02l.029.029-.02.02-.029-.029zm-.261.261c-.014-.014.006-.036.021-.02l.029.029-.02.02-.03-.029z" clip-path="url(#d)"/></g></svg>