<svg xmlns="http://www.w3.org/2000/svg" xmlns:xlink="http://www.w3.org/1999/xlink" width="23.772" height="13.866" viewBox="0 0 23.772 13.866"><defs><path id="a" d="M0 0h23.772v13.866H0z"/></defs><clipPath id="b"><use xlink:href="#a" overflow="visible"/></clipPath><path clip-path="url(#b)" fill="#fff" d="M0 0h23.772v13.866H0z"/><path clip-path="url(#b)" fill="#ea0020" d="M0 9.244h23.772v4.622H0z"/><path clip-path="url(#b)" fill="#3555e2" d="M0 4.622h23.772v4.622H0z"/><g clip-path="url(#b)"><defs><path id="c" d="M0 0h23.772v13.866H0z"/></defs><clipPath id="d"><use xlink:href="#c" overflow="visible"/></clipPath><path d="M5.257 2.665a5.044 5.044 0 0 0-.129.058l.134 2.097a2.35 2.35 0 0 0 .688 1.521c.278.279.618.481.989.592a2.36 2.36 0 0 0 1.678-2.112l.131-2.097a3.733 3.733 0 0 0-.127-.058l-.135 2.146A2.235 2.235 0 0 1 6.94 6.797a2.265 2.265 0 0 1-.9-.548 2.243 2.243 0 0 1-.648-1.437l-.135-2.147" clip-path="url(#d)" fill="#ea0020"/><path d="M8.621 2.665a4.16 4.16 0 0 0-3.367 0l.138 2.147c.033.54.264 1.051.647 1.437.254.253.564.439.899.548a2.23 2.23 0 0 0 .896-.548c.386-.385.616-.897.65-1.437" clip-path="url(#d)" fill="#3555e2"/><path clip-path="url(#d)" fill="#f8e72a" d="M7.039 3.315l.077-.102-.126.013-.051-.115-.051.115-.125-.013.074.102-.074.101.125-.013.051.115.051-.115.126.013m-.549-.734l.073-.103-.124.014-.053-.115-.048.115-.128-.014.075.103-.075.102.128-.015.048.115.053-.115.124.015m.874-.102l.077-.103-.126.014-.05-.115-.053.115-.124-.014.074.103-.074.102.124-.015.053.115.05-.115.126.015"/><path d="M8.298 5.123l-.68-.903-.271.362-.408-.816-.408.816-.27-.362-.68.903a.44.44 0 0 0 .136.321.445.445 0 0 0 .545.072.446.446 0 0 1 .45.001.447.447 0 0 0 .452-.001.461.461 0 0 1 .454 0 .451.451 0 0 0 .545-.072.452.452 0 0 0 .135-.321" clip-path="url(#d)" fill="#fff"/><path d="M5.742 5.616c.03.061.065.123.104.18a.444.444 0 0 0 .415-.019.44.44 0 0 1 .451 0 .457.457 0 0 0 .452 0s-.001.001 0 0a.461.461 0 0 1 .228-.062H7.39c.08 0 .159.021.228.062a.452.452 0 0 0 .414.018c.039-.057.072-.119.104-.18-.023.01-.046.019-.065.032a.463.463 0 0 1-.453 0 .455.455 0 0 0-.228-.061h.003a.457.457 0 0 0-.228.061h.001a.467.467 0 0 1-.454 0 .445.445 0 0 0-.451 0 .467.467 0 0 1-.454 0 .325.325 0 0 0-.065-.031" clip-path="url(#d)" fill="#fff"/><path d="M7.917 5.962a2.096 2.096 0 0 1-.978.696 2.116 2.116 0 0 1-.807-.501 2.447 2.447 0 0 1-.17-.195.44.44 0 0 0 .299-.055.448.448 0 0 1 .451 0 .444.444 0 0 0 .452 0c.001-.001-.001 0 0 0a.46.46 0 0 1 .228-.06H7.39c.08 0 .159.02.228.06a.438.438 0 0 0 .299.055" clip-path="url(#d)" fill="#fff"/></g></svg>