<svg xmlns="http://www.w3.org/2000/svg" xmlns:xlink="http://www.w3.org/1999/xlink" width="23.772" height="13.866" viewBox="0 0 23.772 13.866"><defs><path id="a" d="M0 0h23.772v13.866H0z"/></defs><clipPath id="b"><use xlink:href="#a" overflow="visible"/></clipPath><path clip-path="url(#b)" fill="#fff" d="M0 0h23.772v13.866H0z"/><path clip-path="url(#b)" fill="#2534a4" d="M0 4.622h23.772v9.244H0z"/><path clip-path="url(#b)" fill="#bc0030" d="M0 9.244h23.772v4.622H0z"/><g clip-path="url(#b)"><defs><path id="c" d="M0 0h23.772v13.866H0z"/></defs><clipPath id="d"><use xlink:href="#c" overflow="visible"/></clipPath><path d="M3.594 3.259c-.277.021-.199.36-.232.551-.101 1.327-.237 2.695.168 3.987.318 1.04 1.083 1.901 2.009 2.455.226.127.448.286.7.355.266-.075.498-.241.735-.375.912-.554 1.656-1.408 1.974-2.435.412-1.312.265-2.704.164-4.051-.015-.186.013-.507-.261-.487H3.594z" clip-path="url(#d)" fill="#fff"/><path d="M6.239 3.465v6.933C3.032 8.845 3.384 6.274 3.594 3.465h2.645zm0 0v6.933c3.207-1.553 2.855-4.124 2.645-6.933H6.239z" clip-path="url(#d)" fill="#bc0030"/><path d="M6.614 5.367c.336 0 .681.062 1.011.128a1.249 1.249 0 0 1 0-.84c-.33.066-.675.128-1.011.128h-.75c-.336 0-.679-.062-1.011-.128.097.322.097.519 0 .84.332-.066.675-.128 1.011-.128h.75zm.29 1.263c.339 0 .681.061 1.011.127a1.249 1.249 0 0 1 0-.84c-.33.067-.672.128-1.011.128H5.575c-.34 0-.683-.062-1.013-.127.095.322.095.518 0 .84.33-.067.673-.128 1.013-.128h1.329z" clip-path="url(#d)" fill="#fff"/><path d="M5.816 3.732c.069.33.131.671.131 1.007v4.295h.585V4.739c0-.336.061-.677.129-1.007a1.251 1.251 0 0 1-.845 0" clip-path="url(#d)" fill="#fff"/><path d="M4.907 7.991a.685.685 0 0 0-.678.768c.131.196.288.383.465.566a.687.687 0 0 0 .903-.65.686.686 0 0 0-.69-.684" clip-path="url(#d)" fill="#2534a4"/><path d="M6.239 7.586a.877.877 0 0 0-.876.874c0 .48.393.871.876.871s.876-.391.876-.871a.877.877 0 0 0-.876-.874" clip-path="url(#d)" fill="#2534a4"/><path d="M7.57 7.991a.686.686 0 0 0-.686.683.686.686 0 0 0 .899.65c.18-.183.336-.37.468-.566.004-.026.01-.055.01-.084a.69.69 0 0 0-.691-.683" clip-path="url(#d)" fill="#2534a4"/><path d="M4.334 8.908c.423.562 1.028 1.067 1.905 1.491.878-.425 1.482-.929 1.904-1.491H4.334z" clip-path="url(#d)" fill="#2534a4"/></g></svg>