<svg xmlns="http://www.w3.org/2000/svg" xmlns:xlink="http://www.w3.org/1999/xlink" width="23.772" height="13.87" viewBox="0 0 23.772 13.87"><defs><path id="a" d="M0 0h23.772v13.87H0z"/></defs><clipPath id="b"><use xlink:href="#a" overflow="visible"/></clipPath><path clip-path="url(#b)" fill="#d00027" d="M0 0h23.772v13.87H0z"/><g clip-path="url(#b)"><defs><path id="c" d="M0 0h23.772v13.87H0z"/></defs><clipPath id="d"><use xlink:href="#c" overflow="visible"/></clipPath><path d="M6.933 3.467a3.468 3.468 0 1 1 0 6.935 3.468 3.468 0 0 1 0-6.935" clip-path="url(#d)" fill="#fff"/><path d="M7.8 4.158a2.775 2.775 0 1 1-.002 5.55 2.775 2.775 0 0 1 .002-5.55" clip-path="url(#d)" fill="#d00027"/><path clip-path="url(#d)" fill="#fff" d="M9.864 6.933l1.646.537.268-.827z"/><path clip-path="url(#d)" fill="#fff" d="M9.864 6.933l1.646-.534.268.825z"/><path clip-path="url(#d)" fill="#fff" d="M11.061 5.284v1.735h.866z"/><path clip-path="url(#d)" fill="#fff" d="M11.061 5.284l1.018 1.403-.699.509z"/><path clip-path="url(#d)" fill="#fff" d="M11.061 8.585l1.018-1.405-.699-.509z"/><path clip-path="url(#d)" fill="#fff" d="M11.061 8.585V6.848h.866z"/><path clip-path="url(#d)" fill="#fff" d="M12.998 5.918l-1.646.531.268.825z"/><path clip-path="url(#d)" fill="#fff" d="M12.998 5.918l-1.018 1.4-.702-.509z"/><path clip-path="url(#d)" fill="#fff" d="M12.998 7.954L11.98 6.552l-.702.509z"/><path clip-path="url(#d)" fill="#fff" d="M12.998 7.954l-1.646-.536.268-.825z"/></g></svg>