<svg xmlns="http://www.w3.org/2000/svg" xmlns:xlink="http://www.w3.org/1999/xlink" width="23.772" height="13.866" viewBox="0 0 23.772 13.866"><defs><path id="a" d="M0 0h23.772v13.866H0z"/></defs><clipPath id="b"><use xlink:href="#a" overflow="visible"/></clipPath><path clip-path="url(#b)" fill="#fff" d="M0 0h23.772v13.866H0z"/><path clip-path="url(#b)" fill="#bd0034" d="M15.917 5.013L23.772.616V0h-.542l-8.956 5.013zm-.371 4.118l8.226 4.603v-.92L17.19 9.131zM0 1.055l7.037 3.958h1.644L0 .135zm8.308 8.076L0 13.786v.08h1.501l8.452-4.735z"/><path clip-path="url(#b)" fill="#1a237b" d="M22.145 0h-8.323v4.661zM10.147 0h-8.29l8.29 4.661zm13.625 5.013V1.832l-5.646 3.181zm0 7.265V9.131h-5.646zM2.327 13.866h7.82V9.484zm11.495 0h7.844l-7.844-4.382zM0 9.131v3.289l5.843-3.289zm0-4.118h5.843L0 1.72z"/><path clip-path="url(#b)" fill="#bd0034" d="M10.882 0v5.837H0v2.472h10.882v5.557h2.205V8.309h10.685V5.837H13.087V0z"/></svg>